<svg xmlns="http://www.w3.org/2000/svg" viewBox="0 0 126 86.44">
  <defs>
    <style>
      .cls-1 {
        fill: #1ec8ff;
      }

      .cls-2 {
        fill: #fff;
      }

      .cls-3 {
        fill: #231f20;
      }
    </style>
  </defs>
  <g id="Layer_2" data-name="Layer 2">
    <g id="Layer_1-2" data-name="Layer 1">
      <g>
        <g>
          <circle class="cls-1" cx="25" cy="25" r="25"/>
          <path class="cls-2" d="M16,20.67a1.53,1.53,0,0,1-.55-.49,1.87,1.87,0,0,1-.23-1.44,1.67,1.67,0,0,1,1.18-1.19l.15-.09h0a2,2,0,0,1,1.68.51,1.63,1.63,0,0,1,.51,1.18,1.58,1.58,0,0,1-.53,1.18,1.71,1.71,0,0,1-.93.42,1.53,1.53,0,0,1-1.07-.28c-.24-.14-.51-.54.11-.86l.41-.23.16-.11h0s0,0,0,0,0-.39,0-.28.16.2.21.19h0s0,0,0,0a.44.44,0,0,0-.17.21c0,.06,0,0,0,0a.35.35,0,0,0-.08-.21s0,0,0,0h0c.08.05,0,0,0,0h0a.57.57,0,0,0,.22,0c.14-.07,0,0-.08.16s0,0,0,.05h0c0-.06,0,.14,0-.13h0v.05a.48.48,0,0,0,.07.17.43.43,0,0,0-.21-.08,1,1,0,0,0-.25,0h-.13l0-.18s.06-.11,0-.15-.05,0-.1.18h0c0-.24,0,.18,0-.12h0s0,0,0,0,0,0,0-.36a5.41,5.41,0,0,0,0-.74v0c-.16-.71,0-.45.18-.52a1.3,1.3,0,0,1,1.39.46,2.3,2.3,0,0,1,.55,1.4,1.52,1.52,0,0,1-.51,1.2,1.6,1.6,0,0,1-.64.34,1.88,1.88,0,0,1-.68.06,1.06,1.06,0,0,1-.71-.25Z"/>
          <path class="cls-2" d="M31.81,20.13a1.68,1.68,0,0,1-.55-.48l0,0L31,19.33V19a2.44,2.44,0,0,1,.35-1.28,2.12,2.12,0,0,1,1.12-.94c.06,0,.1-.08.15-.11h0a1.79,1.79,0,0,1,1.19.11,2,2,0,0,1,.81.71A1.8,1.8,0,0,1,35,18.74,1.57,1.57,0,0,1,34,20a1.64,1.64,0,0,1-1.26,0,1.93,1.93,0,0,1-.67-.46c-.1-.11-.28-.26.15-.78s.78-.81.87-.72l.23.24c0,.06,0,.23,0,.19v0h0s-.07-.09.06.08h0l0,0,0,0a.59.59,0,0,0-.37,0c-.1.05,0,0,0-.07a.26.26,0,0,0,.07-.14v0h0c0-.23,0,.31,0,.25h0a.17.17,0,0,0,0,.07s0,0,0,0a.63.63,0,0,0-.1.3l-.15-.49a.25.25,0,0,0,.15.11c.09,0,.18,0,.16-.06v0h0l0,.11h0a.22.22,0,0,0-.05-.08l-.08-.08a.48.48,0,0,0,.28,0h0s.16-.09.08-.05h0l0,0s-.1.14-.08.1,0,0,0,0,0,.13,0,.08h0a.44.44,0,0,0,0-.21l0-.05s0,0,0,0l-.16-.13a4.11,4.11,0,0,1-.37-.32c-.11-.12-.31-.24-.33-.39h0a.4.4,0,0,1,.16-.53,1.83,1.83,0,0,1,.48-.11,1.7,1.7,0,0,1,1.88.86,1.92,1.92,0,0,1-1.33,2.69,2.63,2.63,0,0,1-1.22-.05,1,1,0,0,1-.61-.26Z"/>
          <path class="cls-2" d="M26,37.5a7.91,7.91,0,0,1-1.08.11,12.64,12.64,0,0,1-4-.69.77.77,0,0,0-.22,0h0a10.88,10.88,0,0,1-2.27-1.12,7.88,7.88,0,0,1-2.22-2,5.48,5.48,0,0,1-1.06-2.91c0-.32,0-.88.65-.86s1.12.27,1.15.64a3.7,3.7,0,0,0,1.3,2.59,10.28,10.28,0,0,0,4,2,11.3,11.3,0,0,0,4.14.19A10.39,10.39,0,0,0,30,34.11a7.15,7.15,0,0,0,2.46-2,.64.64,0,0,0,.14-.72h0c.19-.06.17-.23.18-.37s0-.29.23-.37h0c0-.09.1-.17.08-.26-.09-.41.17-.53.93-.37.17,0,.39,0,.5.13h0c.52.42.18.91.08,1.33a7.55,7.55,0,0,1-4.05,4.59A14.76,14.76,0,0,1,27,37.32a4.29,4.29,0,0,1-1,.19Z"/>
        </g>
        <g>
          <circle class="cls-1" cx="101" cy="25" r="25"/>
          <path class="cls-2" d="M92,20.67a1.53,1.53,0,0,1-.55-.49,1.87,1.87,0,0,1-.23-1.44,1.67,1.67,0,0,1,1.18-1.19,1.19,1.19,0,0,0,.15-.09h0a2,2,0,0,1,1.68.51,1.63,1.63,0,0,1,.51,1.18,1.58,1.58,0,0,1-.53,1.18,1.71,1.71,0,0,1-.93.42,1.53,1.53,0,0,1-1.07-.28c-.24-.14-.51-.54.11-.86l.41-.23.16-.11h0s0,0,0,0,0-.39,0-.28.16.2.21.19h0s0,0,0,0a.44.44,0,0,0-.17.21c0,.06,0,0,0,0a.35.35,0,0,0-.08-.21s0,0,0,0h0l0,0h0a.57.57,0,0,0,.22,0c.14-.07,0,0-.08.16s0,0,0,.05h0c0-.06,0,.14,0-.13h0v.05a.48.48,0,0,0,.07.17.43.43,0,0,0-.21-.08,1,1,0,0,0-.25,0h-.13l0-.18s.06-.11,0-.15-.05,0-.1.18h0c0-.24,0,.18,0-.12h0s0,0,0,0,0,0,0-.36a5.41,5.41,0,0,0,0-.74v0c-.16-.71,0-.45.18-.52a1.3,1.3,0,0,1,1.39.46,2.3,2.3,0,0,1,.55,1.4,1.52,1.52,0,0,1-.51,1.2,1.6,1.6,0,0,1-.64.34,1.88,1.88,0,0,1-.68.06,1.06,1.06,0,0,1-.71-.25Z"/>
          <path class="cls-2" d="M107.81,20.13a1.68,1.68,0,0,1-.55-.48l0,0-.18-.27V19a2.44,2.44,0,0,1,.35-1.28,2.12,2.12,0,0,1,1.12-.94c.06,0,.1-.08.15-.11h0a1.79,1.79,0,0,1,1.19.11,2,2,0,0,1,.81.71,1.8,1.8,0,0,1,.31,1.24A1.57,1.57,0,0,1,110,20a1.64,1.64,0,0,1-1.26,0,1.93,1.93,0,0,1-.67-.46c-.1-.11-.28-.26.15-.78s.78-.81.87-.72l.23.24c0,.06,0,.23,0,.19v0h0s-.07-.09.06.08h0l0,0,0,0a.59.59,0,0,0-.37,0c-.1.05,0,0,0-.07a.26.26,0,0,0,.07-.14v0h0c0-.23,0,.31,0,.25h0a.17.17,0,0,0,0,.07s0,0,0,0a.63.63,0,0,0-.1.3l-.15-.49a.25.25,0,0,0,.15.11c.09,0,.18,0,.16-.06v0h0l0,.11h0a.22.22,0,0,0,0-.08l-.08-.08a.48.48,0,0,0,.28,0h0s.16-.09.08-.05h0l0,0s-.1.14-.08.1,0,0,0,0,0,.13,0,.08h0a.44.44,0,0,0,0-.21l0-.05s0,0,0,0l-.16-.13a4.11,4.11,0,0,1-.37-.32c-.11-.12-.31-.24-.33-.39h0a.4.4,0,0,1,.16-.53,1.83,1.83,0,0,1,.48-.11,1.7,1.7,0,0,1,1.88.86,1.92,1.92,0,0,1-1.33,2.69,2.63,2.63,0,0,1-1.22-.05,1,1,0,0,1-.61-.26Z"/>
          <path class="cls-2" d="M100,29a9.85,9.85,0,0,1,1.08-.1,12.69,12.69,0,0,1,4,.69.77.77,0,0,0,.22,0h0a11.44,11.44,0,0,1,2.27,1.13,7.88,7.88,0,0,1,2.22,2,5.48,5.48,0,0,1,1.06,2.91c0,.32,0,.88-.65.86s-1.12-.27-1.15-.64a3.7,3.7,0,0,0-1.3-2.59,10.28,10.28,0,0,0-4-2,11.53,11.53,0,0,0-4.14-.2A10.81,10.81,0,0,0,96,32.38a7.08,7.08,0,0,0-2.46,2,.64.64,0,0,0-.14.72h0c-.19.06-.17.23-.18.37s0,.29-.23.37h0c0,.09-.1.17-.08.26.09.41-.17.53-.93.37-.17,0-.39,0-.5-.13h0c-.52-.42-.18-.91-.08-1.33a7.55,7.55,0,0,1,4-4.59A14.33,14.33,0,0,1,99,29.18a3.47,3.47,0,0,1,1-.19Z"/>
        </g>
      </g>
      <g>
        <path class="cls-3" d="M36.25,80.38,35,79.08c-.39-.4-.78-.8-1.19-1.15s-.81-.66-1.32-1a9.88,9.88,0,0,1-2.72-2.84l-.26-.37v0A4.59,4.59,0,0,1,29.08,71a4.08,4.08,0,0,1,1.37-2.54,3.25,3.25,0,0,1,1.71-.69,4.66,4.66,0,0,1,1.62.15l.68.22a6,6,0,0,1,.67.31c.41.21.78.42,1.15.65a30.82,30.82,0,0,1,4,3c.39.34,1.1,1,.6,1.47a1.3,1.3,0,0,1-1.83-.13c-.8-.68-1.64-1.34-2.5-2A11.88,11.88,0,0,0,33.92,70a3.22,3.22,0,0,0-1.78-.19,1.54,1.54,0,0,0-1,1,2.74,2.74,0,0,0,0,1.7,4.42,4.42,0,0,0,1.1,1.61,14.08,14.08,0,0,0,1.53,1.26,16.75,16.75,0,0,1,1.72,1.4c1.08,1,2,2.1,3,3.12,1.78,1.94,3.66,3.61,5.9,4.15a21,21,0,0,0,6.45.47,3.13,3.13,0,0,0,1.58-.36h0c.65.25,1.32-.4,2,0h0a2.27,2.27,0,0,0,.6,0c.76-.24,1.06,0,1,.76,0,.18.11.38-.1.54h0a1.71,1.71,0,0,1-1.07.49c-.36,0-.73,0-1.08,0-1.72.2-3.48.42-5.28.48a15.22,15.22,0,0,1-5.5-.71,15.72,15.72,0,0,1-5.44-4.08,10.61,10.61,0,0,1-1.24-1.27Z"/>
        <path class="cls-3" d="M36.88,58.06c-.13-.36-.27-.71-.38-1.08l-1.15-4.19a.72.72,0,0,0-.11-.19h0c-.23-.85-.44-1.73-.63-2.63a9.49,9.49,0,0,1,.54-6.54c.16-.33.51-.89,1.07-.48s.75.87.55,1.27a5.86,5.86,0,0,0-.56,3.51,46.46,46.46,0,0,0,1.32,5.46l1.46,5c.49,1.56,1.08,3.08,1.52,4.66.38,1.35.6,2.75.92,4.12a1.33,1.33,0,0,0,.48.91h0c-.19.45.49.72.15,1.21a1.29,1.29,0,0,0,.08.38c.27.52.07.74-.73.76-.17,0-.37.12-.52,0v0h0c-.61-.23-.5-.77-.63-1.19-.64-2-1.24-4.12-1.85-6.18-.37-1.27-.71-2.54-1.16-3.79a4.77,4.77,0,0,1-.36-1Z"/>
        <path class="cls-3" d="M43.18,48.29a7.76,7.76,0,0,1,.31.74l.9,2.91c0,.05.06.09.1.13h0c.18.59.35,1.18.54,1.76a25.1,25.1,0,0,1,1.12,4.1c0,.22.15.58-.5.78s-1.15.09-1.24-.28a13.58,13.58,0,0,0-.76-2.69,38.81,38.81,0,0,1-1.36-3.83l-1.16-3.49c-.36-1.15-.75-2.19-1.1-3.18A6,6,0,0,0,39,43c-.09-.13-.23-.21-.42,0h0c0-.16-.1-.11-.16-.09s-.12.09-.21-.14h0a.15.15,0,0,0-.17,0c-.22.18-.39,0-.53-.8,0-.17-.14-.37-.06-.51h0A.61.61,0,0,1,38,41c.22,0,.45.05.66.05a3.5,3.5,0,0,1,.79.19,3,3,0,0,1,.67.4,4,4,0,0,1,.94,1,9.65,9.65,0,0,1,1,2.25c.32.92.51,1.85.83,2.69a2.36,2.36,0,0,1,.27.66Z"/>
        <path class="cls-3" d="M52.85,56.91a2.43,2.43,0,0,1,.38-.45,4.33,4.33,0,0,1,2.54-1s.08,0,.13-.06h0a6.49,6.49,0,0,1,1.54.16A6.16,6.16,0,0,1,60.29,57c.12.1.34.23,0,.82s-.7.89-.91.74a4.08,4.08,0,0,0-1.57-.87,5.87,5.87,0,0,0-2.25-.15,2.53,2.53,0,0,0-.82.34,2.49,2.49,0,0,0-.34.28,4,4,0,0,1-.61.54l-.25.15a2.5,2.5,0,0,1-1.85.1,3.54,3.54,0,0,1-1.28-.76c-.54-.54-.8-1-1.05-1.15-.06,0-.17-.08-.2.18h0c0-.15-.07-.08-.06,0s0,.07-.08-.13h0s-.06,0-.05,0-.16,0-.74-.5c-.12-.12-.32-.23-.36-.38h0c-.22-.59.36-.71.67-.79a2.38,2.38,0,0,1,1.75.13,2.82,2.82,0,0,1,.45.27c.54.38.89.79,1.21,1s.79.39.77.24h0a.13.13,0,0,1,.11-.16Z"/>
        <path class="cls-3" d="M67.25,70.31a12.41,12.41,0,0,1,.32,1.27,16.82,16.82,0,0,1,.11,5.06,1.14,1.14,0,0,0,0,.26h0a14.67,14.67,0,0,1-.81,3,4.46,4.46,0,0,1-1.21,1.78,9.19,9.19,0,0,1-1.58,1c-1,.54-2,1-2.83,1.46-.29.16-.49.41-1.06,0a.88.88,0,0,1,0-1.53c1.37-.91,2.81-1.31,3.85-2.18a2.8,2.8,0,0,0,.77-.93,6.94,6.94,0,0,0,.47-1.29,12.62,12.62,0,0,0,.47-2.94A17.84,17.84,0,0,0,65.13,70c-.46-1.7-1.08-3.41-1.51-5.14-.38-1.5-.6-3-.93-4.55-.07-.36-.13-.74-.47-.91h0a.34.34,0,0,0-.15-.43c-.12-.1-.16-.1-.08-.33h0s-.06-.11-.09-.1-.09,0-.15-.1a1.49,1.49,0,0,1-.13-.74c0-.19-.09-.4.12-.56h0a.92.92,0,0,1,1.15,0,2.57,2.57,0,0,1,.74.82,6.75,6.75,0,0,1,.73,1.89l.46,1.71L65.74,65c.38,1.4.71,2.8,1.16,4.19a5.42,5.42,0,0,1,.35,1.17Z"/>
      </g>
    </g>
  </g>
</svg>
