<svg xmlns="http://www.w3.org/2000/svg" viewBox="0 0 124.11 77.8">
  <defs>
    <style>
      .cls-1 {
        fill: #1ec8ff;
      }

      .cls-2 {
        fill: #231f20;
      }
    </style>
  </defs>
  <g id="Layer_2" data-name="Layer 2">
    <g id="Layer_1-2" data-name="Layer 1">
      <g>
        <g>
          <path class="cls-1" d="M43.64,73.62l16.5-36.28a2,2,0,0,1,3.83,0L80.44,73.62c.85,1.86-.21,4.18-1.91,4.18h-33C43.86,77.8,42.79,75.48,43.64,73.62Z" transform="translate(-0.01)"/>
          <path class="cls-2" d="M66.66,34.67c-1.69-.3-3.37-.58-5-.91L42.59,30c-.32-.06-.65-.09-1-.13h0c-3.83-.75-7.67-1.53-11.5-2.26-8.88-1.71-17.76-3.43-26.57-5.37C2.2,22-.16,21.51,0,20.85s1.84-.78,4.25-.28c5.82,1.2,11.66,2.5,17.5,3.51,8.53,1.47,17,3.22,25.5,4.83,7.63,1.45,15.25,3,22.88,4.41,7.17,1.36,14.36,2.6,21.52,4,6.18,1.2,12.32,2.58,18.49,3.84a23.48,23.48,0,0,0,4.42.65h0c1.62.63,3.7.44,5.24,1.21h0c.57.12,1.14.28,1.7.36,2.56.38,3.18.75,2.18,1.35-.21.13,0,.39-.68.38l0,0v0c-1.82.18-3.89-.48-5.81-.84Q103,41.58,88.81,38.83c-5.8-1.11-11.6-2.27-17.39-3.3-1.59-.28-3.2-.49-4.79-.86Z" transform="translate(-0.01)"/>
        </g>
        <path class="cls-2" d="M123.23,25.8a11.43,11.43,0,0,1,.44,3.19,12.94,12.94,0,0,1-1.52,5.87,13.15,13.15,0,0,1-4.08,4.47l-.5.38h0a11.82,11.82,0,0,1-3.4,1.43,12.65,12.65,0,0,1-3.67.4,12.41,12.41,0,0,1-7.82-3.07,12,12,0,0,1-4-7.29c-.15-.87-.18-2.36.49-2.32s1.1.9,1.32,2.17a10.19,10.19,0,0,0,5.5,7.41,11.15,11.15,0,0,0,3.32,1,10.67,10.67,0,0,0,3.43-.05,10.41,10.41,0,0,0,6-3.19,10.77,10.77,0,0,0,2.74-5.44,10.61,10.61,0,0,0,.1-3.08,11.31,11.31,0,0,0-.79-3,10.48,10.48,0,0,0-3.64-4.37,10.78,10.78,0,0,0-5.32-1.88,11.46,11.46,0,0,0-4.85.65,10.46,10.46,0,0,0-4.09,2.78,7.56,7.56,0,0,0-.74.95,3.29,3.29,0,0,0-.42,1.1h0c-.7.68-.54,1.85-1.16,2.58h0a4,4,0,0,0-.19.9c0,1.37-.24,1.75-1,1.26-.16-.11-.39,0-.49-.37v0h0c-.5-1.1,0-2.44.41-3.56A12.32,12.32,0,0,1,104.86,18a12.68,12.68,0,0,1,8.66-1.38A13,13,0,0,1,122.09,23a9.19,9.19,0,0,1,1.14,2.83Z" transform="translate(-0.01)"/>
        <path class="cls-2" d="M9.71,4.25,10,2.67l.19-1.11L10.47,0l.28.05L24.12,2.7c.21,0,.43,0,.64.06h0l8.13,1.61-.18.91-1.82,9.32c-.59,2.89-1.2,5.78-1.87,8.65-.21.89-.51,2.43-1.17,2.27s-.89-1.28-.56-2.85c.81-3.8,1.71-7.6,2.33-11.41l.52-3.1.4-2.2L20.93,4.1,12.08,2.39l-.81,4.27-1.25,7-.63,3.52-.65,3.43h0l9.91,2.17a10.33,10.33,0,0,0,2.9.35h0c1,.52,2.43.2,3.4.85h0a8.86,8.86,0,0,0,1.11.25c1.68.21,2.07.54,1.37,1.19-.16.14-.06.39-.48.43l0,0h0c-1.22.3-2.56-.22-3.82-.45L6.37,22.24l.68-3.52c.72-3.79,1.48-7.57,2.13-11.36.17-1,.27-2.09.54-3.13Z" transform="translate(-0.01)"/>
      </g>
    </g>
  </g>
</svg>
