<svg xmlns="http://www.w3.org/2000/svg" viewBox="0 0 96.7 119.78">
  <defs>
    <style>
      .cls-1 {
        fill: #231f20;
      }

      .cls-2 {
        fill: #1ec8ff;
      }
    </style>
  </defs>
  <g id="Layer_2" data-name="Layer 2">
    <g id="Layer_1-2" data-name="Layer 1">
      <g>
        <path class="cls-1" d="M46,25.08c.87,0,1.73-.06,2.6,0l9.8.17a4,4,0,0,0,.5-.05h0l5.93.14c4.57.08,9.15.22,13.7.59.71.05,1.92.1,1.87.78s-.87,1.08-2.11,1c-3-.17-6-.42-9-.38-4.38.07-8.74-.12-13.11-.15-3.93,0-7.85-.11-11.77-.09-3.69,0-7.37.17-11.05.17-3.18,0-6.36-.14-9.54-.16a6.06,6.06,0,0,0-2.25.23h0c-.87-.3-1.87.3-2.72-.15h0a6.36,6.36,0,0,0-.87,0c-1.31.14-1.66-.1-1.23-.88.09-.17,0-.4.29-.52h0c.88-.54,2-.3,3-.33,4.86-.13,9.73-.18,14.59-.21,3,0,6,0,9-.07A22.34,22.34,0,0,1,46,25.08Z"/>
        <path class="cls-1" d="M44.2,6a1.39,1.39,0,0,1,.36-.44,2.29,2.29,0,0,1,2.08-.28s.08,0,.12,0h0a2.56,2.56,0,0,1,1.09.9,2,2,0,0,1-.48,3c-.18.11-.51.2-.67-.46-.09-.34-.15-.62-.22-.79a1,1,0,0,0,0-.1l0,0h0l-.12-.13h0s0,0,0,0l.09-.05a.12.12,0,0,0,0-.17c-.19-.09-.19-.19-.32-.2s-.19,0-.2.13.22.14.2.12l0,0s0,0,0,.09a.79.79,0,0,0,.21.27s.09.07.16-.17h0c0,.31.05-.26.08.19h0s0,0,0,0,.09.11.3.85a1.82,1.82,0,0,1,.11.5h0c0,.57-.37.35-.54.35a2.53,2.53,0,0,1-1.27-.34,2.87,2.87,0,0,1-1-1A2.31,2.31,0,0,1,44,6.46c0-.17,0-.38.21-.48Z"/>
        <path class="cls-1" d="M7.89,13.87a8.06,8.06,0,0,0-1.59.48c-1.72.71-2.68,2.94-3.1,5.18,0,.12,0,.24,0,.36h0a28.2,28.2,0,0,0-.41,4.25c-.06,3.34.24,6.71.28,10.16,0,.53,0,1.47-.64,1.47S1.3,35.2,1.26,34.28C1.16,32,1.13,29.75.93,27.5a28.38,28.38,0,0,1,.74-10A8.28,8.28,0,0,1,4.2,13.27a5.66,5.66,0,0,1,2.32-1.14,12.76,12.76,0,0,1,2.35-.37c1.45-.11,2.84-.07,4.22-.14s2.75-.08,4.13-.08c2.38,0,4.76.18,7.14.24A3.55,3.55,0,0,0,26,11.57h0c.65.31,1.4-.27,2,.18h0a4.72,4.72,0,0,0,.65,0c1-.12,1.24.13.93.9-.07.17,0,.4-.22.51h0c-.65.53-1.48.28-2.22.29l-10.95.1c-2.22,0-4.52,0-6.66.08-.59,0-1.15.18-1.71.21Z"/>
        <path class="cls-1" d="M96.33,29.73c0,1.34.11,2.68.13,4L96.58,49a6.85,6.85,0,0,0,.07.78v0l0,9.22c0,7.12.07,14.22-.29,21.34a16.62,16.62,0,0,1-.19,1.92c-.15.71-.39,1.18-.71,1a1.44,1.44,0,0,1-.72-1A7.49,7.49,0,0,1,94.59,80c.17-4.65.32-9.36.2-14-.18-6.8-.12-13.6-.22-20.39-.09-6.11-.13-12.21-.28-18.31-.08-2.86-.17-5.74-.34-8.57l-.08-.94a4.23,4.23,0,0,0-.21-.92,3.44,3.44,0,0,0-.8-1.43,6.2,6.2,0,0,0-3.19-1.56,36,36,0,0,0-7.14-.6l-7.43-.14a15.06,15.06,0,0,0-3.5.2h0c-1.34-.31-2.91.27-4.22-.18h0c-.45,0-.92-.06-1.36,0-2,.12-2.57-.13-1.89-.9.15-.17,0-.4.47-.51h0c1.38-.53,3.07-.28,4.62-.29l11.34-.05c1.89,0,3.77,0,5.71,0a17.44,17.44,0,0,1,5.86,1.13,5.93,5.93,0,0,1,3,2.68,7.37,7.37,0,0,1,.63,1.87A18.24,18.24,0,0,1,95.93,19q.13,3.5.26,7c0,1.27.18,2.54.14,3.83Z"/>
        <path class="cls-1" d="M96.25,98.64c0,.38,0,.77,0,1.14-.09,1.43-.17,2.85-.22,4.28a.87.87,0,0,0,0,.22h0c0,.87-.07,1.73-.07,2.59,0,1,0,2-.05,3a11.23,11.23,0,0,1-.64,3.16c-.1.31-.25.84-.9.65s-1-.64-.84-1.14a17.43,17.43,0,0,0,.45-1.83,5.84,5.84,0,0,0,.08-.93,8.08,8.08,0,0,0,0-1c-.16-1.93,0-3.86,0-5.8,0-1.73.15-3.47.22-5.2s0-3.22,0-4.82c0-1.37.17-2.76.19-4.15a1.31,1.31,0,0,0-.24-1h0c.29-.39-.31-.8.13-1.19h0a1.28,1.28,0,0,0,0-.39c-.15-.56.09-.73.88-.57.17,0,.39,0,.51.1h0c.55.36.32.86.35,1.29.14,2.15.22,4.31.2,6.47,0,1.33-.11,2.66-.1,4a4.34,4.34,0,0,1,0,1.08Z"/>
        <path class="cls-1" d="M42.9,116.74c1.29,0,2.58,0,3.88,0,4.89,0,9.78.16,14.67.29.25,0,.5,0,.75,0h0l8.87.31c3.42.12,6.84.25,10.26.45,1.71.09,3.41.23,5,.23A12.24,12.24,0,0,0,91,117.2a7.65,7.65,0,0,0,1.35-.77c.42-.26.76-.51,1-.3s.33.65,0,1.22A3.71,3.71,0,0,1,91.48,119a16.85,16.85,0,0,1-7,.77c-2.28-.13-4.5-.26-6.74-.3-6.55-.11-13.07-.42-19.6-.53-5.87-.1-11.74-.2-17.61-.17-5.51,0-11,.23-16.53.32l-14.29.12c-1.16,0-2.4-.12-3.59-.11h0c-1.27-.54-3.15-.76-4-2h0a12.76,12.76,0,0,1-1-1,3.14,3.14,0,0,1-1-1.89c0-.37.27-.38.76-.23.21.06.34-.16.64.17v0c.51.4,1,.84,1.46,1.28a7.22,7.22,0,0,0,1.67,1.18c3,1.43,6.75.73,10.37.73s7.28-.21,10.92-.28l13.4-.18c1.23,0,2.45-.12,3.69-.06Z"/>
        <path class="cls-1" d="M9.39,64c0,1.21,0,2.42,0,3.64q-.12,6.87-.25,13.74c0,.23,0,.47,0,.7v0c-.06,2.77-.12,5.54-.16,8.31-.07,6.41-.17,12.82-.49,19.21-.05,1-.08,2.69-.75,2.65s-1.1-1.19-1-2.93c.13-4.22.36-8.46.3-12.65-.09-6.15.1-12.27.16-18.41,0-5.5.17-11,.22-16.52,0-5.17,0-10.34,0-15.52.07-4.46.32-8.92.45-13.38a12.29,12.29,0,0,0-.16-3.16h0c.33-1.2-.23-2.63.25-3.8H8c0-.41.07-.83.05-1.23-.09-1.84.16-2.32.93-1.69.17.13.39,0,.5.43v0h0c.51,1.25.23,2.78.22,4.17C9.67,34.37,9.57,41.19,9.49,48c0,4.19-.14,8.38-.11,12.55,0,1.15.09,2.29,0,3.45Z"/>
        <path class="cls-1" d="M88.75,64.23c0,1.22,0,2.44,0,3.65q-.17,6.91-.35,13.82c0,.24,0,.47.05.71v0c-.07,2.78-.16,5.57-.21,8.35-.13,6.45-.27,12.89-.63,19.32-.06,1-.1,2.71-.78,2.66s-1.09-1.2-1-3c.16-4.24.42-8.49.39-12.72,0-6.17.2-12.34.3-18.5.09-5.54.25-11.08.34-16.62.08-5.2,0-10.4.16-15.6.11-4.49.39-9,.55-13.46a12,12,0,0,0-.14-3.18h0c.34-1.21-.2-2.65.28-3.82h0c0-.41.08-.84.06-1.24-.07-1.84.18-2.33.94-1.69.17.14.4,0,.5.43v0h0c.5,1.26.21,2.79.19,4.19-.1,6.86-.24,13.71-.37,20.57-.08,4.21-.21,8.42-.21,12.62,0,1.15.07,2.3,0,3.47Z"/>
        <path class="cls-1" d="M43.49,109.42c.94,0,1.89-.07,2.84-.06,3.58,0,7.17,0,10.75,0a5.43,5.43,0,0,0,.55-.06h0c2.17,0,4.34,0,6.5,0,5,0,10,0,15,.2.78,0,2.11,0,2.08.72s-.91,1.11-2.28,1.09c-3.3-.07-6.61-.23-9.89-.11-4.81.18-9.6.09-14.4.12-4.31,0-8.62,0-12.92,0-4,0-8.09.19-12.14.18-3.49,0-7-.18-10.47-.24a7.63,7.63,0,0,0-2.48.2h0c-.95-.31-2.06.27-3-.19h0c-.32,0-.65,0-1,0-1.44.12-1.82-.13-1.34-.9.11-.18,0-.4.33-.52l0,0h0c1-.53,2.17-.28,3.26-.29,5.33-.05,10.66-.06,16-.08,3.27,0,6.55,0,9.81-.08.9,0,1.79-.12,2.7-.07Z"/>
        <path class="cls-1" d="M63.17,37.89c.34,0,.68-.07,1-.06,1.29,0,2.58,0,3.87,0a.76.76,0,0,0,.2-.06h0c.78,0,1.56,0,2.34,0A42.48,42.48,0,0,1,76,38c.28,0,.76,0,.75.72s-.33,1.12-.82,1.09a22.34,22.34,0,0,0-3.56-.11c-1.73.18-3.46.09-5.18.12-1.55,0-3.1,0-4.65,0s-2.92.18-4.37.18c-1.26,0-2.51-.18-3.77-.25a1.09,1.09,0,0,0-.89.21h0c-.34-.31-.74.27-1.07-.19h0a1,1,0,0,0-.34,0c-.52.11-.66-.14-.48-.91,0-.17,0-.39.12-.51h0c.35-.53.78-.27,1.17-.28,1.92-.06,3.84-.06,5.76-.09,1.18,0,2.36,0,3.54-.07a3.5,3.5,0,0,1,1-.07Z"/>
        <path class="cls-1" d="M62.74,48.1c.34,0,.68-.07,1-.07l3.87,0a.73.73,0,0,0,.2,0h0c.78,0,1.56,0,2.34,0a40.72,40.72,0,0,1,5.41.2c.28,0,.76,0,.75.71S76,50.07,75.5,50a23.57,23.57,0,0,0-3.56-.1c-1.73.18-3.46.08-5.18.12-1.55,0-3.1,0-4.65,0s-2.92.19-4.37.18c-1.26,0-2.51-.18-3.77-.24a1.08,1.08,0,0,0-.89.2h0c-.34-.31-.74.27-1.07-.19h0a1.34,1.34,0,0,0-.35,0c-.51.12-.65-.13-.48-.91,0-.17,0-.39.12-.51v0c.35-.52.78-.27,1.17-.28,1.92,0,3.84-.06,5.76-.08,1.18,0,2.36,0,3.53-.08a4,4,0,0,1,1-.06Z"/>
        <path class="cls-1" d="M62.31,58.3c.34,0,.68-.07,1-.07l3.87.05a.76.76,0,0,0,.2-.06h0c.78,0,1.56,0,2.34,0a40.72,40.72,0,0,1,5.41.2c.28,0,.76,0,.75.72s-.33,1.12-.82,1.09a22.34,22.34,0,0,0-3.56-.11c-1.73.18-3.46.09-5.18.12-1.55,0-3.11,0-4.66,0s-2.91.19-4.36.19c-1.26,0-2.52-.19-3.77-.25a1.09,1.09,0,0,0-.89.21h0c-.34-.31-.74.26-1.07-.19h0a1,1,0,0,0-.35,0c-.51.11-.65-.14-.48-.91,0-.17,0-.4.12-.51h0c.35-.53.78-.27,1.17-.28,1.92-.06,3.84-.06,5.76-.09,1.18,0,2.36,0,3.53-.07a3.53,3.53,0,0,1,1-.07Z"/>
        <path class="cls-1" d="M61.88,68.51c.34,0,.68-.07,1-.07l3.87,0a.89.89,0,0,0,.2-.06h0c.78,0,1.56,0,2.34,0a40.78,40.78,0,0,1,5.41.2c.28,0,.76,0,.75.71s-.33,1.12-.82,1.09a23.66,23.66,0,0,0-3.57-.1c-1.72.18-3.45.08-5.18.12-1.55,0-3.1,0-4.65,0s-2.91.19-4.36.18c-1.26,0-2.52-.18-3.77-.24a1.05,1.05,0,0,0-.89.2h0c-.34-.31-.74.27-1.07-.19h0a1.06,1.06,0,0,0-.35,0c-.51.11-.65-.13-.48-.91,0-.17,0-.39.12-.51v0c.35-.52.78-.27,1.17-.28,1.92,0,3.84-.06,5.76-.08,1.18,0,2.36,0,3.53-.08a4,4,0,0,1,1-.06Z"/>
        <path class="cls-1" d="M30.23,76.78c.34,0,.68-.07,1-.06,1.29,0,2.58,0,3.87,0a.66.66,0,0,0,.2-.06h0c.77,0,1.55,0,2.33,0a40.71,40.71,0,0,1,5.41.19c.28,0,.76,0,.75.72s-.33,1.12-.82,1.09a22.33,22.33,0,0,0-3.56-.1c-1.73.17-3.45.08-5.18.11-1.55,0-3.1,0-4.65,0s-2.91.19-4.37.18c-1.26,0-2.51-.18-3.77-.25a1.1,1.1,0,0,0-.89.21h0c-.35-.31-.75.27-1.08-.19h0a1,1,0,0,0-.34,0c-.52.11-.66-.13-.48-.91,0-.17,0-.39.12-.51h0c.35-.52.78-.27,1.17-.28,1.92-.06,3.84-.06,5.76-.08,1.18,0,2.36,0,3.54-.08a3.93,3.93,0,0,1,1-.07Z"/>
        <path class="cls-1" d="M29.8,87c.34,0,.68-.07,1-.07l3.87,0a.73.73,0,0,0,.2,0h0c.78,0,1.56,0,2.34,0a40.72,40.72,0,0,1,5.41.2c.28,0,.76,0,.75.71s-.33,1.12-.82,1.1A22.34,22.34,0,0,0,39,88.83c-1.73.18-3.46.08-5.18.12-1.55,0-3.1,0-4.65,0s-2.92.19-4.37.18c-1.26,0-2.51-.18-3.77-.24a1.08,1.08,0,0,0-.89.2h0c-.34-.31-.74.27-1.07-.19h0a1.31,1.31,0,0,0-.34,0c-.52.12-.66-.13-.48-.9,0-.18,0-.4.12-.51h0c.35-.53.78-.28,1.17-.29,1.92,0,3.84-.06,5.76-.08,1.18,0,2.36,0,3.54-.07a3.5,3.5,0,0,1,1-.07Z"/>
        <path class="cls-1" d="M29.37,97.19c.34,0,.68-.07,1-.06,1.29,0,2.58,0,3.87,0a.76.76,0,0,0,.2-.06h0c.78,0,1.56,0,2.34,0a42.48,42.48,0,0,1,5.41.2c.28,0,.76,0,.75.72s-.33,1.12-.82,1.09A23.58,23.58,0,0,0,38.57,99c-1.73.18-3.46.09-5.18.12-1.55,0-3.1,0-4.65,0s-2.92.19-4.37.18c-1.26,0-2.51-.18-3.77-.25a1.09,1.09,0,0,0-.89.21h0c-.34-.31-.74.27-1.07-.19h0a1,1,0,0,0-.34,0c-.52.11-.66-.13-.48-.91,0-.17,0-.39.11-.51h0c.35-.53.78-.27,1.17-.28,1.92-.06,3.84-.06,5.76-.08,1.18,0,2.36,0,3.53-.08a3.6,3.6,0,0,1,1-.07Z"/>
        <g>
          <path class="cls-2" d="M77.27,87.56c0,1.13-1.63,2-1.9,3s.66,2.66.12,3.6-2.4.91-3.17,1.68-.74,2.63-1.69,3.18-2.52-.41-3.59-.13-1.93,1.9-3.05,1.9-2-1.62-3.05-1.9-2.65.67-3.59.13-.91-2.41-1.69-3.18-2.62-.73-3.17-1.68.41-2.53.12-3.6-1.9-1.92-1.9-3,1.63-2,1.9-3-.66-2.66-.12-3.6,2.4-.91,3.17-1.68.74-2.63,1.69-3.18,2.52.41,3.59.13,1.93-1.9,3.05-1.9,2,1.62,3.05,1.9,2.66-.67,3.59-.13.92,2.41,1.69,3.18,2.62.73,3.17,1.68-.41,2.53-.12,3.6S77.27,86.44,77.27,87.56Z"/>
          <path class="cls-1" d="M65.24,88.9c.25-.26.48-.54.75-.79l3-2.78a.54.54,0,0,0,.11-.18h0c.61-.56,1.23-1.11,1.82-1.68a47.12,47.12,0,0,1,4.32-3.78c.24-.18.61-.52,1.07,0s.51,1,.11,1.39a24.91,24.91,0,0,0-2.82,2.51C72.4,85,71,86.14,69.69,87.41l-3.57,3.41-1.68,1.71a3.21,3.21,0,0,1-3.24.6A3,3,0,0,1,60,92.27l-.64-.78c-.42-.52-.83-1-1.27-1.55a1.18,1.18,0,0,0-.79-.55h0c0-.47-.73-.38-.64-1h0a1.09,1.09,0,0,0-.23-.29c-.45-.32-.38-.6.32-1,.15-.09.28-.28.45-.26h0c.63-.09.76.42,1.06.71l2.13,2.19,1.06,1.1a1.18,1.18,0,0,0,.78.39,1.43,1.43,0,0,0,1-.34c.4-.38.88-.86,1.29-1.31a4.6,4.6,0,0,1,.71-.75Z"/>
        </g>
        <g>
          <path class="cls-1" d="M21.45,46.94a6.35,6.35,0,0,1-.33-1.83,7.2,7.2,0,0,1,3.2-6,3,3,0,0,0,.28-.24h0a7.29,7.29,0,0,1,4.12-1,7.14,7.14,0,0,1,4.51,1.8,6.92,6.92,0,0,1,2.3,4.21c.08.5.11,1.36-.57,1.34a1.18,1.18,0,0,1-1.22-1.07A5.06,5.06,0,0,0,31,40.33a5.6,5.6,0,0,0-6.4,1.14,5.3,5.3,0,0,0-.91,5.75,5.53,5.53,0,0,0,4.52,3.05,5.29,5.29,0,0,0,4.46-1.57,1.35,1.35,0,0,0,.48-1.08h0c.48-.28.12-.94.64-1.25h0a1.19,1.19,0,0,0,.11-.45c-.06-.68.17-.89.94-.64.17.06.4,0,.51.2h0c.52.62.13,1.4-.08,2a6.87,6.87,0,0,1-3.15,3.89,7.18,7.18,0,0,1-5,.75,7.71,7.71,0,0,1-4.94-3.62,4.66,4.66,0,0,1-.71-1.61Z"/>
          <path class="cls-1" d="M30.26,63.79c-.55,0-1.1.07-1.66.08A22.51,22.51,0,0,1,22,63.24a2.32,2.32,0,0,0-.38-.06h0a5.74,5.74,0,0,1-2-1.24,5.06,5.06,0,0,1-1.29-2.07,9.31,9.31,0,0,1,0-5,9.52,9.52,0,0,1,2.43-4.19c.35-.37,1-.95,1.42-.43A1.2,1.2,0,0,1,22.08,52,7.62,7.62,0,0,0,20,56.74a5.24,5.24,0,0,0,.76,3.42,4.58,4.58,0,0,0,3.13,1.48,63.18,63.18,0,0,0,7.47.17,23.28,23.28,0,0,0,3.42-.23,4.31,4.31,0,0,0,1.34-.43,2.21,2.21,0,0,0,.77-.78,6.37,6.37,0,0,0,.51-2.46A8.39,8.39,0,0,0,37,55.14,1.8,1.8,0,0,0,36.33,54h0c0-.6-.75-.79-.67-1.44h0a2.09,2.09,0,0,0-.29-.42c-.59-.5-.58-.81.16-1.17.17-.07.28-.28.51-.21v0h0c.81.09,1.11.87,1.48,1.44A10.49,10.49,0,0,1,39.2,57a9,9,0,0,1,0,1.27,8.28,8.28,0,0,1-.09,1.3A4.76,4.76,0,0,1,38,62.18a4.09,4.09,0,0,1-1.54,1,7.6,7.6,0,0,1-1.61.37c-1.05.13-2,.14-3,.19a10.56,10.56,0,0,1-1.59,0Z"/>
        </g>
        <path class="cls-1" d="M42.86.05c1.29,0,2.58-.07,3.88,0,2.44,0,4.9.17,7.35.43a7.51,7.51,0,0,1,2.08.42,3.58,3.58,0,0,1,1.1.71,4.08,4.08,0,0,1,.74,1,9.44,9.44,0,0,1,.75,1.9c.19.62.35,1.23.48,1.86.06.25.14.5.21.75V7a25.2,25.2,0,0,1,.37,4.58c0,.78,0,1.51,0,2.19A7.44,7.44,0,0,0,60,15.7,1.91,1.91,0,0,0,60.91,17a6.3,6.3,0,0,0,2.07.29c1.65.09,3.35.07,5.09.18a17.67,17.67,0,0,1,5.29,1,10.43,10.43,0,0,1,4.49,3.21,5.74,5.74,0,0,1,1,1.81c.19.64.11,1.16-.21,1.21-.74.11-1.27-.84-2.32-2.05a9.64,9.64,0,0,0-5.28-3,28.65,28.65,0,0,0-6.53-.46c-.81,0-1.64,0-2.48-.06a6,6,0,0,1-1.38-.2,3.49,3.49,0,0,1-1.41-.77,4.55,4.55,0,0,1-1.32-2.66,14.52,14.52,0,0,1-.13-2.6,24.56,24.56,0,0,0-.2-4.71A17.68,17.68,0,0,0,56.4,3.78a1.83,1.83,0,0,0-1-1.06,7.64,7.64,0,0,0-1.9-.3c-1.43-.14-2.87-.23-4.32-.29C46.31,2,43.4,2,40.5,2.07l-2.06,0a10.61,10.61,0,0,0-1.84.14,1.12,1.12,0,0,0-.87.66,3.58,3.58,0,0,0-.19,1.55l.15,2c0,.7.05,1.41,0,2.12a30.18,30.18,0,0,1-.35,4.24,13.18,13.18,0,0,1-1,3.74A5.05,5.05,0,0,1,33,18.31a6,6,0,0,1-1.89,1,10.85,10.85,0,0,1-3.87.35,31.45,31.45,0,0,0-3.46-.11,5.79,5.79,0,0,0-3,.75h0a3.17,3.17,0,0,0-1.62.72,7.89,7.89,0,0,1-1.42,1h0a3.62,3.62,0,0,0-.7.88,11.89,11.89,0,0,1-.69,1.44c-.19.2-.44.17-.76-.23-.13-.18-.4-.06-.37-.59l0,0h0a3.5,3.5,0,0,1,.83-2.26,8.23,8.23,0,0,1,1.89-1.66,11.25,11.25,0,0,1,5.51-1.75c1.9-.16,3.77.12,5.41,0S32,17,32.61,15.69a9.09,9.09,0,0,0,.64-2.37c.15-.86.27-1.73.35-2.61.09-1.07.13-2.15.12-3.22s-.13-2.1-.15-3.35a5.07,5.07,0,0,1,.37-2A3,3,0,0,1,35.6.55,5.85,5.85,0,0,1,37.55.21l1.67,0c1.21,0,2.43-.16,3.66-.11Z"/>
        <path class="cls-1" d="M2.44,71.36c0,1,0,1.9,0,2.85-.06,3.6-.13,7.2-.19,10.8a3.41,3.41,0,0,0,.05.55v0c0,2.18-.09,4.36-.11,6.53-.05,5-.12,10.07-.41,15.09,0,.79-.07,2.12-.74,2.09S0,108.31,0,106.94c.11-3.31.31-6.64.24-9.94-.12-4.82,0-9.64.08-14.46,0-4.32.12-8.65.14-13,0-4.06-.08-8.13,0-12.19.06-3.51.28-7,.39-10.51a7.4,7.4,0,0,0-.17-2.49h0c.32-1-.24-2.07.23-3h0a6.22,6.22,0,0,0,0-1c-.09-1.45.16-1.82.93-1.33.17.11.39,0,.5.34v0h0c.52,1,.25,2.19.24,3.28,0,5.36-.08,10.72-.13,16.07,0,3.29-.11,6.58-.06,9.86,0,.9.1,1.8,0,2.71Z"/>
      </g>
    </g>
  </g>
</svg>
