<svg xmlns="http://www.w3.org/2000/svg" viewBox="0 0 125.28 159.4">
  <defs>
    <style>
      .cls-1 {
        fill: #231f20;
      }

      .cls-2 {
        fill: #fff;
      }
    </style>
  </defs>
  <g id="Layer_2" data-name="Layer 2">
    <g id="Layer_1-2" data-name="Layer 1">
      <g>
        <path class="cls-1" d="M70.34,2.94a7,7,0,0,1,1.55-1.79A5.22,5.22,0,0,1,74.2.08a6.14,6.14,0,0,1,4.45,1.06A9.44,9.44,0,0,1,81.59,4.3c1.4,2.41,2,5,3.23,7a4.21,4.21,0,0,0,.44.58v0a16,16,0,0,0,6.67,5.42,24.33,24.33,0,0,0,4.88,1.63c1.66.39,3.42.58,5.23.87a27.92,27.92,0,0,1,2.74.58,9.55,9.55,0,0,1,6.65,5.44,7.24,7.24,0,0,1,.69,2c.1.68,0,1.22-.35,1.23-.73,0-1.2-1-2.06-2.58a10.18,10.18,0,0,0-2-2.56,6.62,6.62,0,0,0-2.78-1.55,42.3,42.3,0,0,0-6.86-1.21,24,24,0,0,1-9.95-3.65,17.37,17.37,0,0,1-4-3.67,16.63,16.63,0,0,1-1.47-2.3c-.42-.8-.77-1.62-1.1-2.42a25,25,0,0,0-1.91-4,7,7,0,0,0-3-2.64,4,4,0,0,0-1.81-.31,3.3,3.3,0,0,0-1.65.66,8.61,8.61,0,0,0-2.29,3.42,31.14,31.14,0,0,1-1.91,4,22,22,0,0,1-2.7,3.66,21.64,21.64,0,0,1-7.4,5.25,20.68,20.68,0,0,1-3.78,1.17,23.74,23.74,0,0,1-3.89.43,35,35,0,0,0-7.28.58,4.16,4.16,0,0,0-2.53,1.69h0a4,4,0,0,0-1.31,1.41A8.19,8.19,0,0,1,39,25.92h0a4.69,4.69,0,0,0-.46,1.15,12.5,12.5,0,0,1-.33,1.68c-.14.27-.39.3-.79,0-.17-.15-.41,0-.51-.5l0,0h0a4,4,0,0,1,.23-2.48,10.8,10.8,0,0,1,1.27-2.26,9.44,9.44,0,0,1,4.85-3.83,26.12,26.12,0,0,1,5.87-.76,31.14,31.14,0,0,0,5.54-.56,19.46,19.46,0,0,0,5.1-1.94,19.26,19.26,0,0,0,8.8-9.8,17,17,0,0,1,1.75-3.64Z"/>
        <path class="cls-1" d="M71.53,27.2c.9,0,1.79-.06,2.69-.05l10.16.18a4.8,4.8,0,0,0,.52,0h0l6.14.14c4.74.09,9.48.23,14.19.6.74.06,2,.11,2,.79s-.91,1.09-2.19,1c-3.11-.17-6.24-.42-9.34-.38-4.53.06-9-.13-13.58-.17-4.06,0-8.13-.1-12.19-.09-3.82,0-7.63.17-11.45.18-3.29,0-6.59-.14-9.88-.17a6.73,6.73,0,0,0-2.33.24h0c-.9-.3-1.94.29-2.81-.15h0a7,7,0,0,0-.91,0c-1.35.14-1.72-.1-1.28-.88.1-.17,0-.4.31-.52l0,0v0c.91-.54,2-.3,3.07-.33,5-.13,10.08-.18,15.12-.22,3.1,0,6.19,0,9.28-.07.84,0,1.69-.11,2.55-.05Z"/>
        <path class="cls-1" d="M73.93,7.19a1.81,1.81,0,0,1,.41-.37,2.36,2.36,0,0,1,2.24-.06s.09,0,.14,0h0a2.3,2.3,0,0,1,.91,1.13,2.33,2.33,0,0,1,0,1.58,1.84,1.84,0,0,1-1.1,1.15c-.17.08-.47.16-.63-.5a7.18,7.18,0,0,0-.28-1.06c0,.08.33,0,.22-.26s-.12-.14-.15-.2a.2.2,0,0,0-.13-.09l-.17.05a.43.43,0,0,0-.22.17.11.11,0,0,0,.05.16s.06,0,.07,0,0,.32.17.44.09.08.15-.17h0c0,.31,0-.26.09.19h0s0,0,0,0,.11.11.31.85a1.76,1.76,0,0,1,.1.5h0c0,.56-.36.35-.54.35A2.36,2.36,0,0,1,73.4,9.57a2,2,0,0,1-.12-.74,2.74,2.74,0,0,1,.35-1.2c.08-.15.13-.36.3-.44Z"/>
        <path class="cls-1" d="M39.23,15.34c-.46,0-.93.06-1.38.05a14.38,14.38,0,0,0-4.85.55.85.85,0,0,0-.19.14h0a5.74,5.74,0,0,0-2.23,1.46,4.53,4.53,0,0,0-1.09,2.72,11.69,11.69,0,0,1-.76,3.88c-.18.44-.69,1.13-1.2.66a1.2,1.2,0,0,1-.45-1.41c.54-1.19.45-2.9.76-4.68A5.65,5.65,0,0,1,30,15.33a9.13,9.13,0,0,1,3.55-1.61,31.19,31.19,0,0,1,6.54-.37c2,0,4-.2,5.95-.2,1.71,0,3.42.18,5.13.24a1.83,1.83,0,0,0,1.21-.21h0c.47.31,1-.27,1.46.19h0a1.89,1.89,0,0,0,.47,0c.7-.11.9.13.67.91,0,.17,0,.39-.15.51h0c-.46.52-1.06.27-1.59.28l-7.88.1c-1.61,0-3.23,0-4.84.08a6.5,6.5,0,0,1-1.32.07Z"/>
        <path class="cls-1" d="M112,12.77c.56,0,1.12-.07,1.68-.07a28.92,28.92,0,0,1,6.55.64,2.1,2.1,0,0,0,.36,0h0a6.65,6.65,0,0,1,3.81,2.45,5.07,5.07,0,0,1,.83,2.63,13.65,13.65,0,0,1-.06,2.4,13.9,13.9,0,0,1-1.3,4.52c-.2.44-.57,1.19-1.17.87a1.17,1.17,0,0,1-.46-1.64,11.62,11.62,0,0,0,1.11-5.37,5.89,5.89,0,0,0-.33-1.79,2.93,2.93,0,0,0-1-1.22A8,8,0,0,0,118.47,15a52.62,52.62,0,0,0-7.47-.26c-2.39,0-4.77.2-7.16.19-2.06,0-4.12-.18-6.17-.24a2.72,2.72,0,0,0-1.46.2h0c-.56-.31-1.22.27-1.76-.18h0a2.73,2.73,0,0,0-.57,0c-.84.12-1.07-.13-.78-.9.06-.17,0-.4.19-.51h0c.57-.53,1.28-.28,1.92-.29l9.43-.08c1.93,0,3.87,0,5.79-.08a9.41,9.41,0,0,1,1.59-.07Z"/>
        <path class="cls-1" d="M15.4,83.63c-.28,1.63-.54,3.27-.85,4.9C13.4,94.71,12.12,100.86,10.8,107c-.07.32-.1.64-.15,1v0L8.18,119.05c-1.91,8.57-3.89,17.12-6,25.62-.33,1.33-.83,3.6-1.48,3.41S0,146.27.49,143.94c1.32-5.63,2.77-11.25,3.93-16.88,1.69-8.24,3.64-16.41,5.32-24.63,1.53-7.37,2.92-14.77,4.27-22.2,1.27-7,2.45-14,3.87-20.91,1.22-6,2.68-12,4.13-17.9a26,26,0,0,0,.8-4.27l0,0c.68-1.54.6-3.57,1.44-5h0c.14-.54.34-1.09.45-1.63.52-2.46.92-3,1.46-2,.12.22.39.07.35.69l0,0h0c.08,1.77-.68,3.74-1.13,5.58-2.19,9.06-4.15,18.18-6,27.34C18.27,67.74,17.17,73.36,16.2,79c-.26,1.54-.45,3.1-.8,4.65Z"/>
        <path class="cls-1" d="M112.55,86.44c-.3,1.68-.58,3.37-.91,5.06l-3.73,19.08c-.06.32-.09.66-.13,1v0l-2.26,11.54c-.85,4.46-1.69,8.91-2.62,13.35-.46,2.21-.9,4.43-1.43,6.66s-1.11,4.42-1.75,6.6c-.39,1.37-1,3.69-1.69,3.45s-.62-1.89,0-4.26c.79-2.86,1.54-5.74,2.16-8.64s1.21-5.85,1.74-8.77c1.47-8.56,3.21-17.05,4.82-25.57l4.4-23c1.35-7.19,2.58-14.4,4-21.58,1.2-6.19,2.57-12.36,3.83-18.54a24.68,24.68,0,0,0,.65-4.43l0,0c.63-1.63.45-3.7,1.21-5.25h0c.12-.57.28-1.15.36-1.71.38-2.56.75-3.19,1.35-2.2.13.21.4,0,.39.67l0,0,0,0c.18,1.82-.48,3.9-.84,5.84L116.7,64.22c-1.11,5.81-2.27,11.62-3.3,17.44-.28,1.59-.49,3.2-.86,4.8Z"/>
        <path class="cls-1" d="M44.13,156.33c1.34,0,2.68-.05,4,0q7.61.08,15.19.31a6.74,6.74,0,0,0,.77,0h0l9.17.32c3.54.12,7.08.27,10.61.48,1.78.09,3.51.23,5.2.19a12.84,12.84,0,0,0,4.8-.87,11.93,11.93,0,0,0,1.48-.8c.47-.27.86-.49,1.12-.24s.24.68-.09,1.23a4.34,4.34,0,0,1-2,1.57,17.17,17.17,0,0,1-7.24.93c-2.38-.11-4.66-.26-7-.3-6.77-.13-13.52-.45-20.28-.57-6.07-.1-12.14-.21-18.21-.19-5.7,0-11.4.23-17.1.32l-14.77.13c-1.18,0-2.46,0-3.68,0h0c-.69-.28-1.47-.39-2.26-.68a3.7,3.7,0,0,1-1.95-1.37h0a11.45,11.45,0,0,1-1-1.16A3.09,3.09,0,0,1,0,153.44c.07-.38.34-.34.79-.09.19.1.37-.1.61.28v0h0c.45.47.84.94,1.32,1.42a5.86,5.86,0,0,0,1.66,1.21,12,12,0,0,0,5.17.75l5.63-.19c3.76-.11,7.53-.21,11.29-.27l13.86-.18c1.27,0,2.53-.13,3.81-.06Z"/>
        <path class="cls-1" d="M23.1,83.42c-.32,1.72-.62,3.44-1,5.16-1.32,6.49-2.66,13-4,19.47-.07.33-.1.67-.15,1v0c-.8,3.92-1.62,7.84-2.4,11.77C13.79,129.89,12,139,9.91,148c-.32,1.41-.81,3.82-1.47,3.64s-.76-1.88-.23-4.35c1.27-6,2.65-11.94,3.73-17.92,1.58-8.73,3.43-17.4,5.15-26.1,1.55-7.81,3.16-15.62,4.7-23.43,1.45-7.34,2.78-14.7,4.27-22,1.28-6.32,2.73-12.61,4.07-18.92a25.82,25.82,0,0,0,.71-4.53l0,0c.65-1.66.49-3.79,1.28-5.37h0c.13-.57.29-1.16.38-1.73.42-2.62.79-3.26,1.38-2.24.13.23.39.05.38.7l0,.05v0c.16,1.87-.52,4-.91,6-1.9,9.67-3.85,19.34-5.78,29-1.19,5.93-2.42,11.87-3.52,17.8-.31,1.63-.53,3.27-.92,4.9Z"/>
        <path class="cls-1" d="M105.4,83.66c-.33,1.73-.64,3.46-1,5.18-1.36,6.52-2.74,13-4.1,19.56-.07.33-.1.67-.15,1v0c-.83,3.94-1.67,7.87-2.48,11.82-1.87,9.12-3.77,18.25-5.86,27.3-.33,1.42-.84,3.83-1.49,3.65s-.75-1.9-.21-4.37c1.31-6,2.72-12,3.84-18,1.63-8.77,3.54-17.48,5.31-26.21,1.6-7.85,3.26-15.68,4.85-23.53,1.49-7.37,2.86-14.76,4.4-22.11,1.32-6.36,2.81-12.67,4.19-19a26,26,0,0,0,.73-4.54v0c.66-1.66.51-3.8,1.3-5.38h0c.14-.58.31-1.17.4-1.75.43-2.63.81-3.27,1.39-2.24.13.23.39.05.37.71l0,0h0c.15,1.87-.55,4-1,6-2,9.71-4,19.42-6,29.13-1.22,6-2.49,11.92-3.63,17.88-.31,1.63-.55,3.28-.95,4.92Z"/>
        <path class="cls-1" d="M45.84,148.73c1,0,2-.07,2.95-.06,3.72,0,7.44,0,11.15,0a5.51,5.51,0,0,0,.57-.06h0c2.24,0,4.49,0,6.74,0,5.2,0,10.41,0,15.6.2.81,0,2.19,0,2.16.71s-1,1.12-2.37,1.1c-3.42-.07-6.86-.23-10.27-.11-5,.18-10,.08-14.94.12-4.47,0-8.94,0-13.41,0-4.2,0-8.39.19-12.59.18-3.63,0-7.25-.18-10.87-.24a7.9,7.9,0,0,0-2.57.2h0c-1-.31-2.14.27-3.09-.19h0a8.25,8.25,0,0,0-1,0c-1.49.12-1.89-.13-1.39-.91.11-.17,0-.39.35-.51l0,0v0c1-.52,2.25-.27,3.38-.28,5.54-.05,11.07-.06,16.61-.08,3.39,0,6.8,0,10.19-.08.92,0,1.85-.13,2.79-.07Z"/>
        <g>
          <path class="cls-2" d="M63.16,52.73c-1.49,5.82-7.4,10.54-13.49,11.19-6.86.72-11.72-4.09-10.86-10.75s7.11-12.66,14-13.39a10.15,10.15,0,0,1,8.13,2.41S65.08,45.27,63.16,52.73Z"/>
          <path class="cls-1" d="M55.28,51.68c.29-.26.57-.54.88-.78l3.51-2.73a.67.67,0,0,0,.14-.19h0c.7-.55,1.42-1.09,2.12-1.65a51.73,51.73,0,0,1,5-3.71c.27-.18.7-.52,1.12,0s.39,1.12-.07,1.44a30.45,30.45,0,0,0-3.27,2.47c-1.45,1.37-3.06,2.53-4.59,3.79L56,53.7c-.65.53-1.27,1.09-1.9,1.64a9.78,9.78,0,0,1-1.09.88,3.7,3.7,0,0,1-1.65.57,3,3,0,0,1-1.63-.3A2.85,2.85,0,0,1,49,56a4.11,4.11,0,0,1-.27-.35l-.15-.22c-.39-.61-.77-1.23-1.18-1.83a1.37,1.37,0,0,0-.78-.69h0c0-.5-.73-.53-.59-1.11h0a1.24,1.24,0,0,0-.21-.33c-.45-.41-.34-.68.4-1,.16-.07.31-.24.49-.19h0c.66,0,.76.56,1,.91l2,2.63.5.65a.72.72,0,0,0,.3.25,1.4,1.4,0,0,0,1,0,2.38,2.38,0,0,0,.63-.33l.77-.62c.53-.43,1.05-.86,1.55-1.31a5.36,5.36,0,0,1,.83-.75Z"/>
        </g>
        <path class="cls-1" d="M88.41,42.73c.36,0,.71-.07,1.06-.07l4,.05a.76.76,0,0,0,.2-.06h0c.81,0,1.61,0,2.42,0a43.93,43.93,0,0,1,5.62.2c.29,0,.78,0,.77.72s-.34,1.11-.85,1.09A24,24,0,0,0,98,44.57c-1.8.18-3.59.08-5.38.12-1.61,0-3.22,0-4.83,0s-3,.19-4.53.19c-1.3,0-2.61-.19-3.91-.25a1.16,1.16,0,0,0-.92.21h0c-.35-.31-.77.26-1.11-.19a1.11,1.11,0,0,0-.36,0c-.54.12-.68-.13-.5-.9,0-.17,0-.4.13-.51h0c.36-.53.81-.28,1.22-.29,2-.05,4-.05,6-.08,1.23,0,2.45,0,3.67-.07a3.79,3.79,0,0,1,1-.07Z"/>
        <path class="cls-1" d="M85.89,53.32c.35,0,.7-.07,1.06-.07l4,0a.83.83,0,0,0,.21-.06h0c.81,0,1.62,0,2.43,0a43.84,43.84,0,0,1,5.61.2c.29,0,.79,0,.78.72s-.34,1.11-.85,1.09a24.12,24.12,0,0,0-3.7-.11c-1.79.18-3.58.08-5.38.12-1.6,0-3.21,0-4.82,0s-3,.19-4.53.19c-1.31,0-2.61-.19-3.92-.25a1.17,1.17,0,0,0-.92.21h0c-.36-.31-.77.26-1.12-.19a1.11,1.11,0,0,0-.36,0c-.53.12-.67-.13-.49-.9,0-.17,0-.4.12-.51h0c.36-.53.81-.28,1.21-.29,2,0,4,0,6-.08,1.22,0,2.44,0,3.66-.07a3.82,3.82,0,0,1,1-.07Z"/>
        <path class="cls-1" d="M83.36,63.91c.35,0,.71-.07,1.06-.07l4,0a.89.89,0,0,0,.2-.06h0c.81,0,1.62,0,2.43,0a43.77,43.77,0,0,1,5.61.2c.3,0,.79,0,.78.72s-.34,1.11-.85,1.09a24.08,24.08,0,0,0-3.7-.11c-1.79.18-3.58.08-5.37.12-1.61,0-3.22,0-4.83,0s-3,.19-4.53.19c-1.3,0-2.61-.19-3.91-.25a1.18,1.18,0,0,0-.93.21h0c-.35-.31-.77.26-1.11-.19h0a1.14,1.14,0,0,0-.36,0c-.54.12-.68-.13-.5-.9,0-.17,0-.4.12-.51h0c.36-.53.81-.28,1.22-.29,2,0,4,0,6-.08,1.22,0,2.45,0,3.67-.07a3.79,3.79,0,0,1,1-.07Z"/>
        <path class="cls-1" d="M80.83,74.5c.36,0,.71-.07,1.07-.07l4,0a.66.66,0,0,0,.2-.06h0c.81,0,1.62,0,2.43,0a43.84,43.84,0,0,1,5.61.2c.29,0,.79,0,.78.72s-.35,1.11-.85,1.09a24.16,24.16,0,0,0-3.7-.11c-1.79.18-3.59.08-5.38.12-1.61,0-3.22,0-4.82,0s-3,.19-4.54.19c-1.3,0-2.6-.19-3.91-.25a1.17,1.17,0,0,0-.92.21h0c-.35-.31-.77.26-1.11-.19h0a1.11,1.11,0,0,0-.36,0c-.53.12-.67-.13-.5-.9,0-.17,0-.4.13-.51h0c.37-.53.81-.28,1.22-.29,2,0,4,0,6-.08,1.22,0,2.44,0,3.66-.07a3.82,3.82,0,0,1,1-.07Z"/>
        <path class="cls-1" d="M78.31,85.09c.35,0,.71-.07,1.06-.07l4,0a.83.83,0,0,0,.21-.06h0c.81,0,1.62,0,2.43,0a43.77,43.77,0,0,1,5.61.2c.3,0,.79,0,.78.72s-.34,1.11-.85,1.09a24.08,24.08,0,0,0-3.7-.11c-1.79.18-3.58.08-5.37.12-1.61,0-3.22,0-4.83,0s-3,.19-4.53.19c-1.31,0-2.61-.19-3.91-.25a1.18,1.18,0,0,0-.93.21h0c-.36-.31-.77.26-1.11-.19h0a1.14,1.14,0,0,0-.36,0c-.54.12-.68-.13-.5-.9,0-.17,0-.4.12-.51h0c.36-.53.81-.28,1.21-.29,2,0,4,0,6-.08,1.22,0,2.45,0,3.67-.07a3.75,3.75,0,0,1,1-.07Z"/>
        <path class="cls-1" d="M75.78,95.68c.36,0,.71-.07,1.06-.07l4,0a.66.66,0,0,0,.2-.06h0c.81,0,1.62,0,2.42,0a43.93,43.93,0,0,1,5.62.2c.29,0,.79,0,.78.72s-.35,1.11-.86,1.09a24,24,0,0,0-3.69-.11c-1.8.18-3.59.08-5.38.12-1.61,0-3.22,0-4.83,0s-3,.19-4.53.19c-1.3,0-2.6-.19-3.91-.25a1.12,1.12,0,0,0-.92.21h0c-.35-.3-.77.27-1.11-.18h0a1.11,1.11,0,0,0-.36,0c-.54.12-.68-.13-.5-.9,0-.17,0-.4.13-.51h0c.37-.53.81-.28,1.22-.29,2-.05,4-.05,6-.08,1.23,0,2.45,0,3.67-.07a3.79,3.79,0,0,1,1-.07Z"/>
        <path class="cls-1" d="M73.26,106.27c.35,0,.7-.07,1.06-.07l4,0a.83.83,0,0,0,.21-.06h0c.81,0,1.62,0,2.43,0a43.84,43.84,0,0,1,5.61.2c.29,0,.79,0,.78.72s-.34,1.11-.85,1.09a24.08,24.08,0,0,0-3.7-.11c-1.79.18-3.58.08-5.37.12-1.61,0-3.22,0-4.83,0s-3,.19-4.53.19c-1.31,0-2.61-.19-3.91-.25a1.14,1.14,0,0,0-.93.21h0c-.36-.3-.77.27-1.12-.18h0a1.11,1.11,0,0,0-.36,0c-.53.12-.67-.13-.49-.9,0-.17,0-.4.12-.51h0c.36-.53.81-.28,1.21-.29,2,0,4,0,6-.08,1.22,0,2.45,0,3.67-.07a3.72,3.72,0,0,1,1-.07Z"/>
        <path class="cls-1" d="M70.73,116.86c.35,0,.71-.07,1.06-.07l4,0a.76.76,0,0,0,.2-.06h0c.8,0,1.61,0,2.42,0a43.93,43.93,0,0,1,5.62.2c.29,0,.78,0,.77.72s-.34,1.11-.85,1.09a24,24,0,0,0-3.69-.11c-1.8.18-3.59.08-5.38.12-1.61,0-3.22,0-4.83,0s-3,.19-4.53.19c-1.3,0-2.61-.19-3.91-.25a1.12,1.12,0,0,0-.92.21h0c-.35-.3-.77.27-1.11-.18h0a1.11,1.11,0,0,0-.36,0c-.54.12-.68-.13-.5-.9,0-.17,0-.4.12-.51h0c.36-.53.81-.28,1.22-.29,2,0,4,0,6-.08,1.23,0,2.45,0,3.67-.07a3.79,3.79,0,0,1,1-.07Z"/>
        <path class="cls-1" d="M68.21,127.45c.35,0,.7-.07,1.06-.07l4,.05a.83.83,0,0,0,.21-.06h0c.81,0,1.62,0,2.43,0a43.84,43.84,0,0,1,5.61.2c.29,0,.79,0,.78.72s-.34,1.11-.85,1.09a24.12,24.12,0,0,0-3.7-.11c-1.79.18-3.58.08-5.38.12-1.6,0-3.21,0-4.82,0s-3,.19-4.54.19c-1.3,0-2.6-.19-3.91-.25a1.13,1.13,0,0,0-.92.21h0c-.36-.3-.77.27-1.12-.18a1.11,1.11,0,0,0-.36,0c-.53.12-.67-.13-.49-.9,0-.17,0-.4.12-.51h0c.36-.53.81-.28,1.21-.29,2,0,4-.06,6-.08,1.22,0,2.44,0,3.66-.07a3.82,3.82,0,0,1,1-.07Z"/>
        <path class="cls-1" d="M65.68,138c.35,0,.71-.07,1.06-.07l4,.05A.89.89,0,0,0,71,138h0c.81,0,1.62,0,2.43,0a43.77,43.77,0,0,1,5.61.2c.3,0,.79,0,.78.72s-.34,1.11-.85,1.09a24.08,24.08,0,0,0-3.7-.11c-1.79.18-3.58.08-5.37.12-1.61,0-3.22,0-4.83,0s-3,.19-4.53.19c-1.3,0-2.61-.19-3.91-.25a1.14,1.14,0,0,0-.93.21h0c-.35-.3-.77.27-1.11-.18h0a1.14,1.14,0,0,0-.36,0c-.54.12-.68-.13-.5-.9,0-.17,0-.4.12-.51h0c.36-.53.81-.28,1.22-.29,2,0,4-.06,6-.08,1.22,0,2.45,0,3.67-.07a3.79,3.79,0,0,1,1-.07Z"/>
        <g>
          <path class="cls-2" d="M54.23,90.31c-1.49,5.82-7.4,10.54-13.49,11.18-6.86.73-11.72-4.08-10.86-10.74s7.11-12.66,14-13.39A10.15,10.15,0,0,1,52,79.77S56.14,82.85,54.23,90.31Z"/>
          <path class="cls-1" d="M46.35,89.26c.29-.26.57-.54.88-.78l3.51-2.73a.85.85,0,0,0,.14-.19h0c.71-.55,1.43-1.08,2.13-1.65a56.57,56.57,0,0,1,5-3.71c.28-.17.71-.51,1.13,0s.39,1.11-.07,1.44a30.37,30.37,0,0,0-3.27,2.46c-1.45,1.38-3.06,2.54-4.59,3.8L47,91.28c-.65.53-1.28,1.09-1.9,1.64A9.78,9.78,0,0,1,44,93.8a3.7,3.7,0,0,1-1.65.57,3.06,3.06,0,0,1-1.63-.3,2.67,2.67,0,0,1-.72-.54,3,3,0,0,1-.28-.34L39.61,93c-.39-.61-.77-1.22-1.18-1.82a1.42,1.42,0,0,0-.78-.7h0c0-.5-.73-.52-.59-1.1a1.48,1.48,0,0,0-.21-.34c-.45-.4-.34-.68.4-1,.16-.07.31-.24.49-.2v0h0c.66,0,.76.56,1,.91l2,2.62.5.66a.7.7,0,0,0,.3.24,1.34,1.34,0,0,0,1,0,2.42,2.42,0,0,0,.63-.34l.77-.61c.53-.43,1.05-.86,1.55-1.32a4.49,4.49,0,0,1,.83-.74Z"/>
        </g>
        <g>
          <path class="cls-2" d="M45.3,127.89c-1.49,5.82-7.4,10.53-13.49,11.18C25,139.8,20.08,135,20.94,128.32s7.12-12.65,14-13.38a10.16,10.16,0,0,1,8.13,2.41S47.21,120.42,45.3,127.89Z"/>
          <path class="cls-1" d="M37.42,126.84c.29-.26.57-.54.88-.78l3.51-2.74c.06,0,.09-.12.14-.18h0c.71-.55,1.43-1.09,2.13-1.65a56.57,56.57,0,0,1,5-3.71c.28-.17.71-.51,1.12,0s.4,1.11-.06,1.44a30.37,30.37,0,0,0-3.27,2.46c-1.45,1.38-3.06,2.53-4.6,3.79l-4.16,3.35c-.65.54-1.28,1.09-1.91,1.65a10.21,10.21,0,0,1-1.09.88,3.73,3.73,0,0,1-1.64.57,3.16,3.16,0,0,1-1.63-.3,2.89,2.89,0,0,1-.72-.54,4.19,4.19,0,0,1-.28-.34l-.14-.23c-.39-.61-.78-1.22-1.18-1.82a1.39,1.39,0,0,0-.78-.7h0c0-.5-.73-.52-.59-1.1h0a1.3,1.3,0,0,0-.21-.34c-.45-.41-.34-.68.4-1,.16-.07.31-.25.49-.2v0h0c.66,0,.76.55,1,.91l2,2.62.51.66a.7.7,0,0,0,.3.24,1.35,1.35,0,0,0,1,0,2,2,0,0,0,.62-.33l.78-.62c.53-.42,1.05-.85,1.55-1.31a4.49,4.49,0,0,1,.83-.74Z"/>
        </g>
      </g>
    </g>
  </g>
</svg>
