<svg xmlns="http://www.w3.org/2000/svg" viewBox="0 0 92 96.45">
  <defs>
    <style>
      .cls-1 {
        fill: #231f20;
      }

      .cls-2 {
        fill: #ee3435;
      }
    </style>
  </defs>
  <g id="Layer_2" data-name="Layer 2">
    <g id="Layer_1-2" data-name="Layer 1">
      <g>
        <path class="cls-1" d="M7.67,35.68l3.24,1.85.4.23.21.11a1.66,1.66,0,0,1,.34.25,2.37,2.37,0,0,1,.82,1.44,2.32,2.32,0,0,1,0,.83l-.11.49-.18.89a34.69,34.69,0,0,0-.6,7.19,33.58,33.58,0,0,0,.8,6.78l.09.42a2.59,2.59,0,0,1,.06.79,2.5,2.5,0,0,1-.65,1.45,3,3,0,0,1-.61.47l-.38.22-.76.44L7.28,61.29,4.22,63.05l-1.53.88-.38.22-.16.1,0,0a.23.23,0,0,0-.07.13.17.17,0,0,0,0,.14l.42.73.88,1.53,1.76,3.06L8.65,76l.89,1.53.42.74a.23.23,0,0,0,.12.1c.15,0,0,.09.73-.31l1.53-.88,6.11-3.53.77-.44L19.6,73s.17-.1.29-.15a1.9,1.9,0,0,1,.38-.13,2.38,2.38,0,0,1,2.22.56l.33.3c.84.77,1.72,1.5,2.63,2.19a27.37,27.37,0,0,0,2.33,1.52l-.07,0a34.3,34.3,0,0,0,7.44,3.54l1,.33a2.46,2.46,0,0,1,1.43,1.26,2.37,2.37,0,0,1,.23,1V94c0,.06,0,.22,0,.21v0a.21.21,0,0,0,.11.14,12.3,12.3,0,0,0,1.55,0H53.9a.2.2,0,0,0,.15-.13.43.43,0,0,0,0-.05V83.6a2.91,2.91,0,0,1,.12-.95,2.42,2.42,0,0,1,.59-1,2.5,2.5,0,0,1,.94-.59l.62-.2c.38-.11.75-.25,1.13-.38.75-.26,1.49-.56,2.22-.88a34.07,34.07,0,0,0,4.23-2.22,36.54,36.54,0,0,0,3.88-2.78l.91-.78.44-.4.22-.21a3,3,0,0,1,.44-.33A2.41,2.41,0,0,1,72,72.77c.09,0,.17.08.26.12l.14.08.26.16.54.31,8.46,4.9a.23.23,0,0,0,.23,0l.09-.07.26-.45,1.24-2.13,2.48-4.26,2.49-4.26L89.66,65l.27-.46a.28.28,0,0,0,0-.15.35.35,0,0,0-.14-.27l-8.41-4.95-.69-.4a2.75,2.75,0,0,1-1-.79,2.23,2.23,0,0,1-.4-1.4,2.35,2.35,0,0,1,.05-.37l.06-.23.1-.44c.27-1.17.48-2.37.64-3.45.34-2.17.47-3.86.81-3.79s.67,1.28.66,3.41a24,24,0,0,1-.35,3.81q-.1.52-.21,1.08a.47.47,0,0,0,.12.38,6.72,6.72,0,0,0,.82.49l1.13.65,5.62,3.28,1.41.82a6.91,6.91,0,0,1,.82.52,2.18,2.18,0,0,1,.68,1.12,2.13,2.13,0,0,1-.08,1.32c0,.1-.09.2-.14.3l-.1.18-.21.35-.82,1.4L83.83,78.7a5.88,5.88,0,0,1-.53.81,2.07,2.07,0,0,1-1.09.64A2.09,2.09,0,0,1,81,80.06c-.1,0-.2-.1-.28-.14l-.17-.1-.35-.21L77.33,78l-5.62-3.25-.35-.21-.18-.08a.6.6,0,0,0-.35,0,8.7,8.7,0,0,0-1,.88c-.83.73-1.69,1.43-2.58,2.08a36.11,36.11,0,0,1-10.12,5.26,6,6,0,0,0-.89.31.5.5,0,0,0-.21.36v2.31l0,4.72v3.85a2.73,2.73,0,0,1-.06.49,2.16,2.16,0,0,1-.43.87,2.19,2.19,0,0,1-1.71.84H38.05l-.24,0a2.07,2.07,0,0,1-.93-.32,2.22,2.22,0,0,1-1-1.62c0-.08,0-.16,0-.24V83.46c0-.13,0-.09,0-.14a.41.41,0,0,0-.07-.17A.33.33,0,0,0,35.6,83l-.09,0-.29-.09c-.39-.13-.77-.24-1.15-.38a35.71,35.71,0,0,1-4.46-1.89,36.59,36.59,0,0,1-8-5.48l-.44-.41a.5.5,0,0,0-.2-.13.41.41,0,0,0-.36,0l-2,1.19-4.09,2.36-1.83,1.07-.92.53-.46.26a2.34,2.34,0,0,1-.83.29,2.27,2.27,0,0,1-1.69-.46,2.36,2.36,0,0,1-.57-.66l-.27-.46L6.88,76.92,2.63,69.58.51,65.9l-.13-.23-.07-.12-.1-.2A2.21,2.21,0,0,1,0,64.47a2.27,2.27,0,0,1,.65-1.62,5,5,0,0,1,1.09-.72l.92-.53L10,57.36l.46-.27a.38.38,0,0,0,.13-.11.37.37,0,0,0,.08-.31l-.21-1-.2-1.07a36.86,36.86,0,0,1-.5-4.32,36,36,0,0,1,.57-8.67l.21-1.07.12-.53a.33.33,0,0,0,0-.17.42.42,0,0,0-.16-.26l-.85-.49L6,37,2.34,34.9l-.92-.53A4.64,4.64,0,0,1,.86,34a2.25,2.25,0,0,1-.58-.69A2.3,2.3,0,0,1,.1,31.56a3.79,3.79,0,0,1,.18-.42l.14-.25.26-.45,4-6.92,2-3.45,1-1.73.5-.87a2.77,2.77,0,0,1,.49-.63,2.26,2.26,0,0,1,.74-.45,2.32,2.32,0,0,1,1.7,0,3.57,3.57,0,0,1,.56.3L12,17l1.73,1,3.46,2,3.46,2a.31.31,0,0,0,.23.05.24.24,0,0,0,.1-.05s0,0,.05,0l.18-.17c.5-.47,1-.92,1.54-1.36a36.62,36.62,0,0,1,6.84-4.51,34.77,34.77,0,0,1,3.76-1.64q1-.36,2-.66l.14,0,0,0,.06-.06,0-.07s0,0,0-.22l0-8V2.36a2.32,2.32,0,0,1,.06-.45,2.46,2.46,0,0,1,1-1.49,2.52,2.52,0,0,1,.84-.36A3.62,3.62,0,0,1,38,0h15.3a5.3,5.3,0,0,1,1.1.06A2.43,2.43,0,0,1,55.7.9a2.35,2.35,0,0,1,.57,1.43V5l0,3.44V12.7c0,.26,0,.69,0,.64a.24.24,0,0,0,.09.15c.07.06,0,0,.41.17A36.1,36.1,0,0,1,69,20.41c.44.38.89.76,1.32,1.17l.32.3.11.09,0,0a.45.45,0,0,0,.25,0,.27.27,0,0,0,.12,0l.32-.18.75-.43,1.49-.85,6-3.42.7-.4.18-.1a2.8,2.8,0,0,1,.3-.15,2.16,2.16,0,0,1,.67-.14,2.21,2.21,0,0,1,1.3.32,2,2,0,0,1,.52.45,3,3,0,0,1,.32.47c.55,1,1.11,1.91,1.66,2.86,1.12,1.9,2.25,3.75,3.38,5.45l0-.07c.55,1.12,1.18,2.25,1.84,3.4l1,1.72.07.11.1.2a3,3,0,0,1,.15.42,2.37,2.37,0,0,1-.82,2.43,6.52,6.52,0,0,1-.55.35l-.43.26-.86.51-1.72,1c-1.13.64-2.26,1.23-3.36,1.74h0L82,39.22l-.56.31a.54.54,0,0,0-.19.15.37.37,0,0,0-.07.2.2.2,0,0,0,0,.11.5.5,0,0,0,0,.18,24,24,0,0,1,.8,7.38c-.13,1.16-.38,1-.79-.25-.2-.54-.37.1-.61-1.69v-.08c-.23-1.24-.49-2.54-.8-3.87-.09-.34-.17-.67-.25-1l-.07-.28a3,3,0,0,1,0-.43,2.26,2.26,0,0,1,.17-.85,2,2,0,0,1,.5-.73,1.87,1.87,0,0,1,.35-.28l.26-.15.94-.55L89.27,33l.57-.32a.57.57,0,0,0,.21-.19.51.51,0,0,0,0-.48l-1.25-2.18L86.2,25.32l-2.63-4.55L82.25,18.5c-.14-.25-.13-.23-.2-.3a.57.57,0,0,0-.22-.11.6.6,0,0,0-.23,0l-.11,0-.29.16-9.1,5.27a2.16,2.16,0,0,1-2.08,0,1.9,1.9,0,0,1-.44-.3l-.26-.24-.47-.43c-.64-.56-1.3-1.11-2-1.63a34.6,34.6,0,0,0-4.28-2.8,34.94,34.94,0,0,0-4.66-2.13l-1.2-.42-.62-.19-.35-.12a2.39,2.39,0,0,1-.48-.24,2.19,2.19,0,0,1-1-1.84V2.45a.52.52,0,0,0,0-.11.32.32,0,0,0-.1-.18A.47.47,0,0,0,54,2a1.21,1.21,0,0,0-.37,0H38.51C38.31,2,38,2,38,2a.4.4,0,0,0-.32.24c0,.09,0,.08,0,.27V13.46a2.24,2.24,0,0,1-1.61,2l-.75.24c-.5.17-1,.33-1.48.52a34.18,34.18,0,0,0-10.68,6.48l-.58.53a3.4,3.4,0,0,1-.43.35,2.4,2.4,0,0,1-.61.28,2.22,2.22,0,0,1-1.35,0,7.12,7.12,0,0,1-.87-.45l-2.79-1.61-5.59-3.21-.35-.2-.17-.1-.06,0a.36.36,0,0,0-.23,0c-.2.07-.17,0-.51.64L8,21.62l-3.2,5.59L3,30.27l-.87,1.54c-.2.34-.18.33-.19.4a.29.29,0,0,0,0,.18l.07.07.06,0,.19.11.77.44,1.54.88,3.08,1.8Z"/>
        <path class="cls-1" d="M22.72,54.61a23.27,23.27,0,0,1-.6-3,28.37,28.37,0,0,1-.19-3A24.63,24.63,0,0,1,24.8,37.46,25,25,0,0,1,32.5,29c.33-.21.65-.44,1-.67l0,0a26.22,26.22,0,0,1,3.11-1.62,26.29,26.29,0,0,1,3.32-1.09A25.13,25.13,0,0,1,43.31,25c.58-.07,1.16-.07,1.75-.11l.87,0,.87,0A23.56,23.56,0,0,1,69.35,44.4c.32,1.65.39,4.5-.29,4.43-.35,0-.66-.5-.88-1.28s-.47-1.86-.67-3.19A22,22,0,0,0,42.28,27.15a22.38,22.38,0,0,0-6.7,2.26A23,23,0,0,0,30,33.72a22,22,0,0,0-5.65,11.22l-.25,1.58L24,48.11c0,.26,0,.53,0,.79l0,.8c0,.53,0,1.06.1,1.59a21.38,21.38,0,0,0,4.72,11.22,21.93,21.93,0,0,0,4.35,4,9.1,9.1,0,0,0,1.24.81c.43.25.85.53,1.29.75a22.51,22.51,0,0,0,2.72,1.17,21.57,21.57,0,0,0,5.77,1.25,23.17,23.17,0,0,0,10.06-1.45,22.07,22.07,0,0,0,8.36-5.87,19.34,19.34,0,0,0,1.52-2,12,12,0,0,0,1.07-2.16l0,0c1.14-1.53,1.39-3.76,2.2-5.4h0a11.13,11.13,0,0,0,.37-1.86c.1-.71.11-1.28.15-1.74a4,4,0,0,1,.18-1c.17-.42.42-.38.78.12.16.22.4,0,.48.7l0,.05,0,0a6.35,6.35,0,0,1,.14,1.64c0,.56-.1,1.15-.19,1.74s-.29,1.15-.44,1.73c-.09.29-.17.58-.25.86s-.21.55-.31.82a23.56,23.56,0,0,1-10.7,12.8A23.85,23.85,0,0,1,24.81,60a24.85,24.85,0,0,1-1.23-2.61L23.06,56c-.13-.47-.24-.94-.35-1.42Z"/>
        <path class="cls-2" d="M56.1,46.75,43,39.18a2.4,2.4,0,0,0-3.6,2.08V56.4A2.4,2.4,0,0,0,43,58.48L56.1,50.91A2.4,2.4,0,0,0,56.1,46.75Z"/>
      </g>
    </g>
  </g>
</svg>
