<svg xmlns="http://www.w3.org/2000/svg" viewBox="0 0 72.3 75.32">
  <defs>
    <style>
      .cls-1 {
        fill: #ee3435;
      }

      .cls-2 {
        fill: #231f20;
      }
    </style>
  </defs>
  <g id="Layer_2" data-name="Layer 2">
    <g id="Layer_1-2" data-name="Layer 1">
      <g>
        <circle class="cls-1" cx="36.15" cy="22.18" r="9.51"/>
        <path class="cls-2" d="M37.19,51.81c0,.59.07,1.18.07,1.77,0,2.24,0,4.47,0,6.7a2,2,0,0,0,.06.34h0c0,1.35,0,2.7,0,4,0,3.12,0,6.25-.2,9.36,0,.49,0,1.32-.72,1.3s-1.12-.57-1.09-1.42c.07-2.05.23-4.12.11-6.17-.18-3-.09-6-.12-9,0-2.69,0-5.37,0-8.05,0-2.52-.19-5-.18-7.56,0-2.18.18-4.35.24-6.53a2.91,2.91,0,0,0-.21-1.54h0c.3-.59-.27-1.28.18-1.86h0a3,3,0,0,0,0-.6c-.12-.89.13-1.13.9-.83.17.07.4,0,.51.21v0h0c.53.6.28,1.35.29,2,.05,3.32.06,6.64.08,10,0,2,0,4.08.08,6.11a11.8,11.8,0,0,1,.06,1.68Z"/>
        <path class="cls-2" d="M12.58,23.52a12.64,12.64,0,0,1-.11-1.37A21.76,21.76,0,0,1,13.12,17a2.35,2.35,0,0,0,0-.27h0a27.52,27.52,0,0,1,1-3,17.1,17.1,0,0,1,4-6c.28-.25.72-.71,1.2-.23A1,1,0,0,1,19.45,9a12.87,12.87,0,0,0-2.6,3.49,24.24,24.24,0,0,0-2,6,19.82,19.82,0,0,0-.2,5.65,22,22,0,0,0,1.43,5.08A23.26,23.26,0,0,0,18,33.38a1.49,1.49,0,0,0,.81.75h0c0,.52.77.51.69,1.12a1.4,1.4,0,0,0,.26.33c.51.37.46.67-.24,1.06-.15.09-.27.29-.47.25v0h0c-.7,0-.91-.56-1.24-.95a20.82,20.82,0,0,1-3.88-6.56,28.75,28.75,0,0,1-1.16-4.56,5.09,5.09,0,0,1-.19-1.29Z"/>
        <path class="cls-2" d="M.14,24.14c-.08-.67-.12-1.35-.14-2a32.74,32.74,0,0,1,1-7.63,2.47,2.47,0,0,0,0-.39H1a37.52,37.52,0,0,1,1.5-4.41A27.36,27.36,0,0,1,8.36.75C8.77.37,9.42-.32,9.89.17s.37,1.23-.27,1.89A22.28,22.28,0,0,0,5.69,7.43a34.49,34.49,0,0,0-3.15,9.12,30.17,30.17,0,0,0-.32,8.64A32,32,0,0,0,4.32,33,32.68,32.68,0,0,0,7.41,39.3a3.11,3.11,0,0,0,1.15,1.21v0c.14.71,1.07.89,1.13,1.66h0a3.31,3.31,0,0,0,.41.5c.75.61.75,1,0,1.28-.17.07-.27.29-.52.19v0C8.7,44,8.3,43.18,7.8,42.6a31.31,31.31,0,0,1-5.73-9.77A38.62,38.62,0,0,1,.39,26.05a9.44,9.44,0,0,1-.25-1.92Z"/>
        <path class="cls-2" d="M59.72,20.84a12.44,12.44,0,0,1,.11,1.37,22.29,22.29,0,0,1-.65,5.15,2.35,2.35,0,0,0,0,.27h0a29.87,29.87,0,0,1-1,3,17.23,17.23,0,0,1-4,6c-.29.25-.73.71-1.2.23a1,1,0,0,1-.09-1.5,12.87,12.87,0,0,0,2.6-3.49,24.66,24.66,0,0,0,2-6,19.82,19.82,0,0,0,.2-5.65,22,22,0,0,0-1.43-5.08,22.33,22.33,0,0,0-2-4.14,1.43,1.43,0,0,0-.81-.75h0c0-.52-.77-.52-.69-1.12h0a1.23,1.23,0,0,0-.26-.33c-.52-.37-.46-.67.24-1.06.15-.09.27-.29.47-.25v0h0c.71,0,.91.56,1.25.95A20.82,20.82,0,0,1,58.37,15a28.75,28.75,0,0,1,1.16,4.56,5.58,5.58,0,0,1,.19,1.29Z"/>
        <path class="cls-2" d="M72.16,20.22c.08.67.11,1.35.14,2a32.74,32.74,0,0,1-1,7.63,2.47,2.47,0,0,0,0,.39h0a38.16,38.16,0,0,1-1.5,4.41,27.52,27.52,0,0,1-5.88,8.94c-.41.38-1.06,1.07-1.53.58S62,43,62.68,42.3a22.28,22.28,0,0,0,3.93-5.37,34.49,34.49,0,0,0,3.15-9.12,30.59,30.59,0,0,0,.32-8.65A32,32,0,0,0,68,11.34a33.28,33.28,0,0,0-3.09-6.28,3,3,0,0,0-1.16-1.21h0c-.14-.7-1.07-.88-1.13-1.65h0a3.31,3.31,0,0,0-.41-.5c-.75-.61-.76-1,0-1.28.17-.07.27-.29.52-.2v0c.86.13,1.26.94,1.76,1.52a31.51,31.51,0,0,1,5.73,9.77,38.62,38.62,0,0,1,1.68,6.78,9.44,9.44,0,0,1,.25,1.92Z"/>
      </g>
    </g>
  </g>
</svg>
