<svg xmlns="http://www.w3.org/2000/svg" viewBox="0 0 141.31 124.01">
  <defs>
    <style>
      .cls-1 {
        fill: #231f20;
      }

      .cls-2 {
        fill: #fff;
      }

      .cls-3 {
        fill: #ee3435;
      }
    </style>
  </defs>
  <g id="Layer_2" data-name="Layer 2">
    <g id="Layer_1-2" data-name="Layer 1">
      <g>
        <path class="cls-1" d="M107.49,10.12c.34,0,.69-.08,1-.08h3.93a.76.76,0,0,0,.2-.06h0c.79,0,1.58,0,2.38,0a43.93,43.93,0,0,1,5.5.14c.29,0,.78,0,.78.71s-.31,1.12-.81,1.1a24.47,24.47,0,0,0-3.63-.07c-1.76.2-3.52.12-5.28.18l-4.74.08c-1.48.05-3,.22-4.45.23-1.28,0-2.56-.16-3.84-.21a1.13,1.13,0,0,0-.91.22h0c-.34-.31-.75.27-1.09-.18h0a1.06,1.06,0,0,0-.35,0c-.53.12-.67-.12-.49-.9,0-.17,0-.4.12-.51h0c.35-.53.79-.28,1.19-.3,2-.07,3.91-.1,5.86-.14,1.2,0,2.4,0,3.59-.11a3.68,3.68,0,0,1,1-.08Z" transform="translate(-0.01)"/>
        <path class="cls-1" d="M70.9,10c.47,0,.93-.06,1.4,0,1.76,0,3.51.06,5.27.09a1.28,1.28,0,0,0,.27-.05h0c1.07,0,2.13.06,3.19.06,2.47,0,4.93,0,7.38.27.38,0,1,0,1,.72a1,1,0,0,1-1.13,1.08A41.6,41.6,0,0,0,83.43,12c-2.36.16-4.71,0-7.07.05-2.11,0-4.23,0-6.34,0s-4,.15-6,.13c-1.71,0-3.43-.22-5.14-.3a1.91,1.91,0,0,0-1.21.2h0c-.46-.32-1,.26-1.46-.2h0a1.52,1.52,0,0,0-.47,0c-.71.11-.89-.14-.65-.91.06-.17,0-.4.17-.51h0c.48-.52,1.07-.27,1.6-.27,2.62,0,5.24,0,7.85,0,1.61,0,3.22,0,4.82,0A7.37,7.37,0,0,1,70.91,10Z" transform="translate(-0.01)"/>
        <path class="cls-1" d="M42.49,9.81A3.21,3.21,0,0,1,43,9.74l2,0a.24.24,0,0,0,.1,0h0c.4,0,.8,0,1.2,0A11,11,0,0,1,49.1,10c.14,0,.39,0,.38.72s-.18,1.11-.43,1.09a6,6,0,0,0-1.83-.12,17,17,0,0,1-2.67.11c-.8,0-1.6,0-2.39,0s-1.5.18-2.25.17-1.29-.19-1.94-.25a.37.37,0,0,0-.46.2h0c-.17-.31-.38.26-.55-.19h0c-.06,0-.12-.06-.18,0-.26.12-.33-.13-.24-.9a1.88,1.88,0,0,1,.06-.51h0c.19-.53.41-.27.61-.28,1,0,2,0,3-.07A13.78,13.78,0,0,0,42,9.87c.17,0,.34-.12.5-.06Z" transform="translate(-0.01)"/>
        <path class="cls-1" d="M75.72,26.67c1.12,0,2.24-.05,3.35,0l12.66.13c.21,0,.43,0,.64-.06h0l7.65,0c5.91,0,11.8-.1,17.69,0,.92,0,2.48,0,2.47.67s-1,1.14-2.66,1.14c-3.9,0-7.81-.09-11.67.07-5.66.22-11.32.12-17,.13l-15.23-.09c-4.77,0-9.53.08-14.3,0-4.11-.05-8.22-.26-12.33-.35a10.06,10.06,0,0,0-2.91.19h0c-1.11-.31-2.42.26-3.5-.2h0c-.38,0-.77-.06-1.13,0-1.69.11-2.14-.14-1.57-.91.12-.17,0-.39.39-.51h0c1.14-.52,2.56-.26,3.84-.27,6.28,0,12.57,0,18.85.08,3.86,0,7.72.1,11.56.05,1.06,0,2.11-.1,3.18,0Z" transform="translate(-0.01)"/>
        <path class="cls-1" d="M123.45,37.14c.06-.67.1-1.34.18-2,.28-2.51.57-5,.76-7.54a2.53,2.53,0,0,0,0-.38h0c.14-1.52.23-3.05.31-4.57.16-3.53.22-7.06.41-10.59,0-.55,0-1.49.71-1.48s1.12.63,1.1,1.61c0,2.35-.24,4.7-.18,7,.07,3.42-.22,6.83-.47,10.24-.23,3.06-.6,6.11-1,9.15-.36,2.86-.65,5.74-1.18,8.58-.45,2.45-1.12,4.85-1.73,7.26a3.92,3.92,0,0,0-.2,1.76h0c-.45.58-.08,1.49-.68,2h0a4,4,0,0,0-.2.65c-.14,1-.44,1.22-1.11.7-.15-.12-.38-.09-.44-.36h0c-.35-.79.1-1.55.28-2.3.84-3.67,1.6-7.35,2.23-11.06.4-2.27.78-4.56,1-6.85a17,17,0,0,1,.18-1.89Z" transform="translate(-0.01)"/>
        <path class="cls-1" d="M30.15,51.82l.45-3.12c.54-3.94,1-7.9,1.2-11.89,0-.2,0-.41,0-.61v0c.09-1.2.13-2.41.16-3.62S32,30.19,32,29c0-5.59-.19-11.18-.31-16.78,0-.87-.1-2.35.58-2.37s1.17.95,1.24,2.48c.17,3.71.15,7.44.35,11.13a141.44,141.44,0,0,1-.25,16.21,138.92,138.92,0,0,1-1.85,14.47,99.12,99.12,0,0,1-3.36,13.32c-.64,1.87-1.43,3.7-2.19,5.52l-1.29,2.68c-.42.89-.84,1.78-1.33,2.65a9.74,9.74,0,0,0-1.1,2.58h0c-.74.82-.92,2.17-1.83,2.85h0a9,9,0,0,0-.59.92c-.72,1.46-1.15,1.69-1.53.82-.09-.19-.34-.2-.25-.59l0,0h0c.11-1.2,1-2.21,1.6-3.26a91.24,91.24,0,0,0,7-16.28c.27-.86.57-1.72.83-2.6l.7-2.63c.5-1.75.82-3.54,1.17-5.32.21-1,.26-2,.49-2.95Z" transform="translate(-0.01)"/>
        <g>
          <path class="cls-1" d="M45.33,83.83c1.33,0,2.66-.1,4-.12l15.09-.12c.25,0,.51,0,.76-.06h0l9.12-.07,2.64,0a22,22,0,0,1,2.78.08,7.15,7.15,0,0,1,2.91,1,18,18,0,0,1,2.3,1.59c2.85,2.3,5,5.09,8,6.43l.78.32c.29.09.57.19.83.3.52.16.93.4.89.73s-.39.58-1,.68A4.74,4.74,0,0,1,91.91,94a22.27,22.27,0,0,1-5.72-4.38c-.84-.79-1.68-1.56-2.56-2.25-.44-.35-.9-.66-1.36-1a8,8,0,0,0-1.39-.72,14.62,14.62,0,0,0-4.71-.3l-5,.08L61,85.61l-18.14.24c-5.68.09-11.36.31-17,.36-4.9.05-9.8-.07-14.7-.08a14.21,14.21,0,0,0-3.47.24h0c-1.33-.3-2.88.3-4.18-.14h0c-.45,0-.91,0-1.35,0-2,.13-2.55-.11-1.88-.89.15-.17,0-.39.46-.51h0c1.36-.54,3-.31,4.57-.34l22.46-.32c4.59-.07,9.19-.09,13.77-.23,1.26,0,2.51-.15,3.79-.1Z" transform="translate(-0.01)"/>
          <path class="cls-1" d="M42.77,101.65c1.37,0,2.74-.05,4.11,0,5.18,0,10.36.08,15.55.06a7.23,7.23,0,0,0,.79-.07h0c3.14,0,6.27,0,9.4-.09l21.72-.58c1.12,0,3-.14,3,.54s-1.26,1.2-3.24,1.29c-4.78.2-9.59.22-14.34.48-7,.37-13.91.37-20.86.43-6.24,0-12.49,0-18.73-.08-5.86,0-11.71,0-17.6-.21a36.24,36.24,0,0,1-7.7-1.07A19.69,19.69,0,0,1,7.74,98.9c-1-.77-1.91-1.73-2.87-2.45v0c-.7-1.26-2.13-2.29-2.5-3.68h0c-.24-.4-.46-.83-.72-1.21C.45,89.84.4,89.25,1.42,89.45c.22,0,.32-.23.68.14v0c1.17.94,1.85,2.52,2.76,3.76a19.45,19.45,0,0,0,3.79,4,16,16,0,0,0,4.85,2.53,37.69,37.69,0,0,0,11.18,1.48c4.73.13,9.47.25,14.2.24,1.29,0,2.59-.09,3.9,0Z" transform="translate(-0.01)"/>
        </g>
        <path class="cls-1" d="M48.45,10.2a10.56,10.56,0,0,1,.08-1.68,11.75,11.75,0,0,1,2.59-5.87l.18-.29h0A7.54,7.54,0,0,1,54.82.2a6.15,6.15,0,0,1,4.8.73,8,8,0,0,1,3,3.49c.2.43.52,1.15-.12,1.39A1.12,1.12,0,0,1,61,5.21a5.48,5.48,0,0,0-3.43-3.14,4.76,4.76,0,0,0-3.19.45,6.26,6.26,0,0,0-2.43,2.39,11,11,0,0,0-1.48,6.25,10.75,10.75,0,0,0,2,5.61,5.34,5.34,0,0,0,3.87,2.55A1.14,1.14,0,0,0,57.35,19h0c.51.19.72-.53,1.29-.35h0a1.64,1.64,0,0,0,.39-.22c.46-.5.76-.48,1.1.26.07.17.28.29.2.51h0c-.11.78-.9,1-1.51,1.3a5.76,5.76,0,0,1-2.46.57,6.23,6.23,0,0,1-2.48-.52,8.26,8.26,0,0,1-3.56-3.28,13.8,13.8,0,0,1-1.77-5.48,6,6,0,0,1-.1-1.58Z" transform="translate(-0.01)"/>
        <path class="cls-1" d="M88.83,10.2a10.56,10.56,0,0,1,.08-1.68A11.75,11.75,0,0,1,91.5,2.65l.18-.29h0A7.54,7.54,0,0,1,95.2.2a6.15,6.15,0,0,1,4.8.73,8,8,0,0,1,3,3.49c.2.43.52,1.15-.12,1.39a1.12,1.12,0,0,1-1.51-.6,5.5,5.5,0,0,0-3.44-3.14,4.74,4.74,0,0,0-3.18.45,6.26,6.26,0,0,0-2.43,2.39,11,11,0,0,0-1.48,6.25,10.75,10.75,0,0,0,2,5.61,5.34,5.34,0,0,0,3.87,2.55,1.14,1.14,0,0,0,1-.33h0c.52.19.73-.53,1.3-.35h0a1.64,1.64,0,0,0,.39-.22c.46-.5.76-.48,1.1.26.07.17.28.29.2.51h0c-.1.78-.89,1-1.5,1.3a5.76,5.76,0,0,1-2.46.57,6.23,6.23,0,0,1-2.48-.52,8.26,8.26,0,0,1-3.56-3.28,13.8,13.8,0,0,1-1.77-5.48,6,6,0,0,1-.1-1.58Z" transform="translate(-0.01)"/>
        <g>
          <circle class="cls-2" cx="119.84" cy="87.1" r="21.47"/>
          <path class="cls-3" d="M118.42,85.84a2.14,2.14,0,0,1-.07-.43l0-.28a3.87,3.87,0,0,1,0-.48l.06-3.66c0-.06-.06-.12-.09-.19h0c0-.74,0-1.48,0-2.21a26.51,26.51,0,0,1,.27-5.11c0-.27.06-.72,1-.71s1.58.31,1.54.77a14.68,14.68,0,0,0-.15,3.37,38.06,38.06,0,0,1,.17,4.89c0,.74,0,1.47,0,2.2v1.33s0,0,0,.07a.67.67,0,0,0,.06.12.33.33,0,0,0,.21.12h.11s0,0,.23,0a20.15,20.15,0,0,1,2.06-.11c1.19,0,2.37.26,3.56.34a.75.75,0,0,0,.84-.29h0c.32.44.7-.38,1,.27h0c.11,0,.22.08.33,0,.49-.16.61.19.45,1.28,0,.24,0,.56-.11.73v0h0c-.33.75-.73.39-1.1.41-1.82.07-3.63.08-5.45.11l-1.67,0a3.44,3.44,0,0,1-1.35-.25,3.31,3.31,0,0,1-1.19-.84,2.33,2.33,0,0,1-.75-1.46Z" transform="translate(-0.01)"/>
        </g>
        <path class="cls-1" d="M137,34.9c.05.8.1,1.6.11,2.4,0,3,0,6.07,0,9.1a3.78,3.78,0,0,0,.06.47v0l0,5.5c0,4.23,0,8.46-.18,12.68,0,.66,0,1.78-.7,1.77s-1.12-.76-1.11-1.92c0-2.79.2-5.59.08-8.37-.17-4.06,0-8.11-.09-12.16,0-3.64,0-7.27-.15-10.9-.11-3.41-.39-6.8-.59-10.2-.09-1.49-.08-2.88-.63-3.78a16.07,16.07,0,0,0-2.94-2.85,5.47,5.47,0,0,0-1.76-1.15h0c-.42-.74-1.52-.88-1.83-1.73h0a5.93,5.93,0,0,0-.61-.53c-1-.68-1.11-1.07-.31-1.42.18-.07.24-.31.54-.22v0h0c1,.11,1.59.94,2.32,1.51l2.64,2.1c.89.73,1.75,1.35,2.67,2.2a5.39,5.39,0,0,1,1.19,1.6,6.38,6.38,0,0,1,.54,1.87c.16,1.22.18,2.3.27,3.44l.4,8.32a17.24,17.24,0,0,1,.11,2.28Z" transform="translate(-0.01)"/>
        <path class="cls-1" d="M130.94,49.33c0,.36,0,.72-.05,1.08-.17,1.35-.36,2.7-.57,4a.82.82,0,0,0,0,.21h0L130,57.08a46,46,0,0,1-1,5.58c-.07.28-.14.78-.81.67s-1.06-.49-1-1a26,26,0,0,0,.63-3.68c.09-1.82.45-3.59.65-5.38.19-1.61.42-3.21.55-4.81s.09-3,.19-4.53c.08-1.3.31-2.59.39-3.9a1.15,1.15,0,0,0-.19-.92h0c.32-.35-.26-.77.19-1.11h0a1.11,1.11,0,0,0,0-.36c-.12-.54.13-.68.9-.51.17,0,.4,0,.51.13h0c.53.37.28.82.29,1.24,0,2,0,4-.13,6.08-.06,1.24-.19,2.48-.23,3.73a3.86,3.86,0,0,1,0,1Z" transform="translate(-0.01)"/>
        <path class="cls-1" d="M87.66,121.8c1.47,0,2.94-.07,4.4-.07l16.64,0c.28,0,.57,0,.85-.06h10A77.35,77.35,0,0,0,131,121a6.76,6.76,0,0,0,2.29-.57.79.79,0,0,0,.3-.57,7.51,7.51,0,0,0,.08-1.27l.08-2.91c0-.49,0-1,.06-1.48l.07-1.42c0-1.21.06-3.26.74-3.22s1.12,1.42,1.07,3.54c-.05,1.33-.12,2.53-.14,3.83l0,1.92a4.85,4.85,0,0,1-.41,2.23,2.58,2.58,0,0,1-.94,1,4.09,4.09,0,0,1-1.09.44c-.71.16-1.31.25-2,.36-1.28.2-2.57.36-3.85.49-3.75.38-7.49.34-11.2.36l-11.13,0-20,.06c-6.26,0-12.52.2-18.78.2-5.41,0-10.81-.16-16.21-.22a16.34,16.34,0,0,0-3.8.22h0A5.52,5.52,0,0,0,45,124h-.66l-.63,0-.61,0a3.34,3.34,0,0,1-1-.2,1.66,1.66,0,0,1-.76-.72,2.5,2.5,0,0,1-.2-1h0a11.94,11.94,0,0,1,0-1.68c.09-2.34.41-2.76,1.1-2,.16.18.4,0,.45.56v0h0a12.49,12.49,0,0,1,.19,2.35,4.35,4.35,0,0,0,0,.48.32.32,0,0,0,0,.16.2.2,0,0,0,.14.08l.2,0,.3,0a10.7,10.7,0,0,0,1.46.08l1.55,0,3.1,0,6.2,0,12.38,0c5.06,0,10.14,0,15.19-.1,1.39,0,2.77-.13,4.18-.07Z" transform="translate(-0.01)"/>
        <path class="cls-1" d="M60.47,113.21c1.33,0,2.65-.07,4-.07l15,0c.25,0,.51,0,.76-.06h0l9.07,0H99.75c3.49,0,7,0,10.36-.27,1.07-.08,2.85-.4,3,.27s-1.07,1.36-3,1.55c-4.68.47-9.33.19-13.9.34-6.7.19-13.4.1-20.09.14l-18,.06c-5.65,0-11.29.21-16.94.2-4.87,0-9.75-.16-14.62-.22a8.84,8.84,0,0,1-2-.23,3.83,3.83,0,0,1-1.1-.44,2.55,2.55,0,0,1-1-1.1v0a3.18,3.18,0,0,1,.17-1.7,5.86,5.86,0,0,1,.61-1.2A5.14,5.14,0,0,1,24.6,109h0a13.24,13.24,0,0,0,.85-1c1.15-1.65,1.67-1.92,1.87-.91,0,.22.32.22.11.68l0,0h0c-.43,1.39-1.66,2.55-2.58,3.75a3.45,3.45,0,0,0-.56,1c-.09.32,0,.4,0,.52a1.76,1.76,0,0,0,.79.36,5.58,5.58,0,0,0,1.19.12l5.58,0,11.16,0c4.57,0,9.14,0,13.7-.09,1.25,0,2.5-.13,3.77-.07Z" transform="translate(-0.01)"/>
      </g>
    </g>
  </g>
</svg>
