<svg xmlns="http://www.w3.org/2000/svg" viewBox="0 0 124.68 82.45">
  <defs>
    <style>
      .cls-1 {
        fill: #231f20;
      }

      .cls-2 {
        fill: #ee3435;
      }
    </style>
  </defs>
  <g id="Layer_2" data-name="Layer 2">
    <g id="Layer_1-2" data-name="Layer 1">
      <g>
        <path class="cls-1" d="M.05,14.52l0-8.1V4.9a4.78,4.78,0,0,1,0-.64,4.73,4.73,0,0,1,1-2.4A4.83,4.83,0,0,1,3.12.33,6.09,6.09,0,0,1,5.51,0l61.31,0c1,0,2.08,0,3.12-.06h-.09l37.06,0H119c.45,0,.84,0,1.47,0a4.8,4.8,0,0,1,3,1.59,4.87,4.87,0,0,1,1.21,3.19V7.52q0,10.71,0,21.43-.09,21.44-.19,42.83c0,1.11,0,2.42,0,3.76l0,2a5.8,5.8,0,0,1-.1,1.12,4.23,4.23,0,0,1-.37,1.07,4.09,4.09,0,0,1-2.75,2.19c-.88.17-1.38,0-1.33-.18s.4-.32.92-.6a4,4,0,0,0,1.64-1.59,3.29,3.29,0,0,0,.38-1.46c0-.67,0-1.38-.07-2.14,0-1.57-.07-3.35-.06-5.29.06-18.82.22-37.73.1-56.45l0-5.13V6.51a13.91,13.91,0,0,0-.1-2.35,2.87,2.87,0,0,0-3-2.16l-5.13,0L94,2H6.9c-.74,0-1.58,0-2.25,0a2.7,2.7,0,0,0-1.58.61A2.75,2.75,0,0,0,2,5V24.56l.11,34.6.06,17.3a12.32,12.32,0,0,0,.06,1.93A2.67,2.67,0,0,0,3,79.69a2.72,2.72,0,0,0,1.32.69,16.33,16.33,0,0,0,1.94,0H14.9l59.73.24c4.68,0,9.67,0,14.1-.21h-.08c5.41.31,11.74-.27,17,.18h0c1.84,0,3.71.06,5.49,0,8.18-.12,10.34.13,7.6.9-.6.17.1.4-1.88.51h-.09c-5.54.53-12.38.28-18.58.29l-91.25.08H4.73a4.9,4.9,0,0,1-.54,0A4.6,4.6,0,0,1,.35,79a4.86,4.86,0,0,1-.16-1.07V57.79q0-14-.07-28c0-5.1-.13-10.2-.07-15.38Z"/>
        <path class="cls-1" d="M9.21,42.35a19.58,19.58,0,0,1-.51-2.51,22,22,0,0,1-.16-2.56A20.5,20.5,0,0,1,11,28a20.91,20.91,0,0,1,6.46-7.12c.27-.18.54-.38.81-.57h0a21.48,21.48,0,0,1,2.61-1.35A21.18,21.18,0,0,1,23.59,18a21.64,21.64,0,0,1,2.89-.54c.48-.06,1-.06,1.46-.09l.73,0,.74,0A19.72,19.72,0,0,1,48.3,33.79c.26,1.38.31,3.77-.36,3.71S46.85,36,46.47,33.81A17.69,17.69,0,0,0,37.09,21.3a18.07,18.07,0,0,0-5.59-1.73,17.82,17.82,0,0,0-5.83.06,18.27,18.27,0,0,0-5.52,1.86,18.64,18.64,0,0,0-4.62,3.56,18.12,18.12,0,0,0-4.66,9.24,18.72,18.72,0,0,0-.18,5.23A19.2,19.2,0,0,0,12,44.58a18.83,18.83,0,0,0,2.56,4.18,17.93,17.93,0,0,0,3.59,3.32,17,17,0,0,0,4.33,2.24,17.92,17.92,0,0,0,4.75,1,19.14,19.14,0,0,0,8.27-1.18,18.1,18.1,0,0,0,6.91-4.82,14.12,14.12,0,0,0,1.25-1.61,8.65,8.65,0,0,0,.85-1.8l0,0c1-1.25,1.1-3.11,1.85-4.44h0a9.11,9.11,0,0,0,.3-1.54c.08-.57.09-1,.12-1.42a2.72,2.72,0,0,1,.18-.82c.16-.35.42-.32.78.1.16.18.4,0,.48.58v0c.49,1.75-.18,3.89-.83,5.69a19.75,19.75,0,0,1-8.95,10.72A20.17,20.17,0,0,1,24.62,57,20.47,20.47,0,0,1,11,46.83a22.86,22.86,0,0,1-1-2.18l-.44-1.14c-.11-.39-.2-.79-.29-1.19Z"/>
        <polygon class="cls-2" points="60.3 38.12 40.34 72.69 80.26 72.69 60.3 38.12"/>
        <path class="cls-1" d="M55.65,71.64c1.62,0,3.24-.07,4.86-.06l17.82,0s0,0,0-.06h0L74,64c-4.3-7.41-8.59-14.84-12.68-22.35-.63-1.17-1.77-3.14-1.16-3.44s1.76.8,2.9,2.83C65.79,46,68.49,51,71.4,55.76q2.47,4.08,4.87,8.21l5.55,9.62H74.74l-22.1,0-14.17.13,5.12-9c3-5.16,6.12-10.24,9.16-15.38a21.37,21.37,0,0,0,1.94-3.77l0,0c1.07-1.25,1.52-3.18,2.71-4.32h0c.28-.47.6-.93.85-1.41,1.12-2.18,1.66-2.62,1.92-1.52.06.24.36.17.16.75l0,0h0c-.38,1.7-1.62,3.35-2.54,5L44.15,67.89l-2.24,3.89h3.8l5.36-.06c1.53,0,3.06-.13,4.61-.07Z"/>
        <path class="cls-1" d="M74.17,13.87l0-1.61V10.55a3.07,3.07,0,0,1,1.15-2.13,3.15,3.15,0,0,1,1.11-.56,3.55,3.55,0,0,1,1.09-.11l24.32,0c.42,0,.83,0,1.24-.06h0l7.35,0h3.22a4.25,4.25,0,0,1,.65,0,3.13,3.13,0,0,1,2.21,1.64,3.06,3.06,0,0,1,.34,1.38v.93c0,11.35,0,22.69-.19,34,0,.44,0,1,0,1.49a2.74,2.74,0,0,1-.81,2,2.14,2.14,0,0,1-1.47.65c-.41,0-.62-.16-.6-.32,0-.36.57-.61.91-1.17a1.6,1.6,0,0,0,.25-1c0-.56-.07-1.31-.06-2.07.06-7.46.23-15,.1-22.39l-.09-8.15,0-4a1.1,1.1,0,0,0-.59-.89,1.12,1.12,0,0,0-.57-.11H96.32l-14.62,0H77.16a1.06,1.06,0,0,0-1,.9c0,.1,0,.48,0,.77v6.39c0,9.16.19,18.31.18,27.46v2.11a.8.8,0,0,0,.09.31.94.94,0,0,0,.47.43,1.07,1.07,0,0,0,.33.07H78l5.93.07,11.85.15a38.12,38.12,0,0,0,5.59-.21h0c2.15.31,4.66-.27,6.74.19h0c.73,0,1.47.06,2.18,0,3.24-.11,4.1.13,3,.91-.24.17,0,.39-.75.51h0c-2.2.52-4.91.27-7.37.28L87,50.2l-9,0a8.09,8.09,0,0,1-1.31-.06A2.88,2.88,0,0,1,74.4,48a3.73,3.73,0,0,1-.08-.77V42.15c0-7.41,0-14.82-.07-22.21,0-2-.13-4.05-.07-6.1Z"/>
      </g>
    </g>
  </g>
</svg>
