<?xml version="1.0" encoding="utf-8"?>
<!-- Generator: Adobe Illustrator 21.1.0, SVG Export Plug-In . SVG Version: 6.00 Build 0)  -->
<svg version="1.1" id="Layer_1" xmlns="http://www.w3.org/2000/svg" xmlns:xlink="http://www.w3.org/1999/xlink" x="0px" y="0px"
	 viewBox="0 0 107.9 170.8" style="enable-background:new 0 0 107.9 170.8;" xml:space="preserve">
<style type="text/css">
	.st0{fill:#597E8E;stroke:#0B2E42;stroke-width:4;stroke-miterlimit:10;}
	.st1{fill:none;}
	.st2{fill:#EFDBCA;}
	.st3{fill:#0D2E42;}
	.st4{fill:#EABC8F;}
	.st5{fill:#EEBE84;}
	.st6{fill:#0B2E42;}
</style>
<symbol  id="ba" viewBox="-313.1 -313 626.2 626.1">
	<rect x="-310" y="-311" class="st0" width="621.1" height="622.1"/>
	<rect x="-311.1" y="-311" class="st0" width="622.1" height="622.1"/>
	<rect x="-310" y="248.9" class="st0" width="62.1" height="62.2"/>
	<rect x="-247.9" y="248.9" class="st0" width="62.1" height="62.2"/>
	<rect x="-185.8" y="248.9" class="st0" width="62.1" height="62.2"/>
	<rect x="-123.7" y="248.9" class="st0" width="62.1" height="62.2"/>
	<rect x="-61.6" y="248.9" class="st0" width="62.1" height="62.2"/>
	<rect x="0.5" y="248.9" class="st0" width="62.1" height="62.2"/>
	<rect x="62.6" y="248.9" class="st0" width="62.1" height="62.2"/>
	<rect x="124.7" y="248.9" class="st0" width="62.1" height="62.2"/>
	<rect x="186.8" y="248.9" class="st0" width="62.1" height="62.2"/>
	<rect x="249" y="248.9" class="st0" width="62.1" height="62.2"/>
	<rect x="-310" y="186.7" class="st0" width="62.1" height="62.2"/>
	<rect x="-247.9" y="186.7" class="st0" width="62.1" height="62.2"/>
	<rect x="-185.8" y="186.7" class="st0" width="62.1" height="62.2"/>
	<rect x="-123.7" y="186.7" class="st0" width="62.1" height="62.2"/>
	<rect x="-61.6" y="186.7" class="st0" width="62.1" height="62.2"/>
	<rect x="0.5" y="186.7" class="st0" width="62.1" height="62.2"/>
	<rect x="62.6" y="186.7" class="st0" width="62.1" height="62.2"/>
	<rect x="124.7" y="186.7" class="st0" width="62.1" height="62.2"/>
	<rect x="186.8" y="186.7" class="st0" width="62.1" height="62.2"/>
	<rect x="249" y="186.7" class="st0" width="62.1" height="62.2"/>
	<rect x="-310" y="124.5" class="st0" width="62.1" height="62.2"/>
	<rect x="-247.9" y="124.5" class="st0" width="62.1" height="62.2"/>
	<rect x="-185.8" y="124.5" class="st0" width="62.1" height="62.2"/>
	<rect x="-123.7" y="124.5" class="st0" width="62.1" height="62.2"/>
	<rect x="-61.6" y="124.5" class="st0" width="62.1" height="62.2"/>
	<rect x="0.5" y="124.5" class="st0" width="62.1" height="62.2"/>
	<rect x="62.6" y="124.5" class="st0" width="62.1" height="62.2"/>
	<rect x="124.7" y="124.5" class="st0" width="62.1" height="62.2"/>
	<rect x="186.8" y="124.5" class="st0" width="62.1" height="62.2"/>
	<rect x="249" y="124.5" class="st0" width="62.1" height="62.2"/>
	<rect x="-310" y="62.3" class="st0" width="62.1" height="62.2"/>
	<rect x="-247.9" y="62.3" class="st0" width="62.1" height="62.2"/>
	<rect x="-185.8" y="62.3" class="st0" width="62.1" height="62.2"/>
	<rect x="-123.7" y="62.3" class="st0" width="62.1" height="62.2"/>
	<rect x="-61.6" y="62.3" class="st0" width="62.1" height="62.2"/>
	<rect x="0.5" y="62.3" class="st0" width="62.1" height="62.2"/>
	<rect x="62.6" y="62.3" class="st0" width="62.1" height="62.2"/>
	<rect x="124.7" y="62.3" class="st0" width="62.1" height="62.2"/>
	<rect x="186.8" y="62.3" class="st0" width="62.1" height="62.2"/>
	<rect x="249" y="62.3" class="st0" width="62.1" height="62.2"/>
	<rect x="-310" y="0.1" class="st0" width="62.1" height="62.2"/>
	<rect x="-247.9" y="0.1" class="st0" width="62.1" height="62.2"/>
	<rect x="-185.8" y="0.1" class="st0" width="62.1" height="62.2"/>
	<rect x="-123.7" y="0.1" class="st0" width="62.1" height="62.2"/>
	<rect x="-61.6" y="0.1" class="st0" width="62.1" height="62.2"/>
	<rect x="0.5" y="0.1" class="st0" width="62.1" height="62.2"/>
	<rect x="62.6" y="0.1" class="st0" width="62.1" height="62.2"/>
	<rect x="124.7" y="0.1" class="st0" width="62.1" height="62.2"/>
	<rect x="186.8" y="0.1" class="st0" width="62.1" height="62.2"/>
	<rect x="249" y="0.1" class="st0" width="62.1" height="62.2"/>
	<rect x="-310" y="-62.1" class="st0" width="62.1" height="62.2"/>
	<rect x="-247.9" y="-62.1" class="st0" width="62.1" height="62.2"/>
	<rect x="-185.8" y="-62.1" class="st0" width="62.1" height="62.2"/>
	<rect x="-123.7" y="-62.1" class="st0" width="62.1" height="62.2"/>
	<rect x="-61.6" y="-62.1" class="st0" width="62.1" height="62.2"/>
	<rect x="0.5" y="-62.1" class="st0" width="62.1" height="62.2"/>
	<rect x="62.6" y="-62.1" class="st0" width="62.1" height="62.2"/>
	<rect x="124.7" y="-62.1" class="st0" width="62.1" height="62.2"/>
	<rect x="186.8" y="-62.1" class="st0" width="62.1" height="62.2"/>
	<rect x="249" y="-62.1" class="st0" width="62.1" height="62.2"/>
	<rect x="-310" y="-124.3" class="st0" width="62.1" height="62.2"/>
	<rect x="-247.9" y="-124.3" class="st0" width="62.1" height="62.2"/>
	<rect x="-185.8" y="-124.3" class="st0" width="62.1" height="62.2"/>
	<rect x="-123.7" y="-124.3" class="st0" width="62.1" height="62.2"/>
	<rect x="-61.6" y="-124.3" class="st0" width="62.1" height="62.2"/>
	<rect x="0.5" y="-124.3" class="st0" width="62.1" height="62.2"/>
	<rect x="62.6" y="-124.3" class="st0" width="62.1" height="62.2"/>
	<rect x="124.7" y="-124.3" class="st0" width="62.1" height="62.2"/>
	<rect x="186.8" y="-124.3" class="st0" width="62.1" height="62.2"/>
	<rect x="249" y="-124.3" class="st0" width="62.1" height="62.2"/>
	<rect x="-310" y="-186.6" class="st0" width="62.1" height="62.2"/>
	<rect x="-247.9" y="-186.6" class="st0" width="62.1" height="62.2"/>
	<rect x="-185.8" y="-186.6" class="st0" width="62.1" height="62.2"/>
	<rect x="-123.7" y="-186.6" class="st0" width="62.1" height="62.2"/>
	<rect x="-61.6" y="-186.6" class="st0" width="62.1" height="62.2"/>
	<rect x="0.5" y="-186.6" class="st0" width="62.1" height="62.2"/>
	<rect x="62.6" y="-186.6" class="st0" width="62.1" height="62.2"/>
	<rect x="124.7" y="-186.6" class="st0" width="62.1" height="62.2"/>
	<rect x="186.8" y="-186.6" class="st0" width="62.1" height="62.2"/>
	<rect x="249" y="-186.6" class="st0" width="62.1" height="62.2"/>
	<rect x="-310" y="-248.8" class="st0" width="62.1" height="62.2"/>
	<rect x="-247.9" y="-248.8" class="st0" width="62.1" height="62.2"/>
	<rect x="-185.8" y="-248.8" class="st0" width="62.1" height="62.2"/>
	<rect x="-123.7" y="-248.8" class="st0" width="62.1" height="62.2"/>
	<rect x="-61.6" y="-248.8" class="st0" width="62.1" height="62.2"/>
	<rect x="0.5" y="-248.8" class="st0" width="62.1" height="62.2"/>
	<rect x="62.6" y="-248.8" class="st0" width="62.1" height="62.2"/>
	<rect x="124.7" y="-248.8" class="st0" width="62.1" height="62.2"/>
	<rect x="186.8" y="-248.8" class="st0" width="62.1" height="62.2"/>
	<rect x="249" y="-248.8" class="st0" width="62.1" height="62.2"/>
	<rect x="-310" y="-311" class="st0" width="62.1" height="62.2"/>
	<rect x="-247.9" y="-311" class="st0" width="62.1" height="62.2"/>
	<rect x="-185.8" y="-311" class="st0" width="62.1" height="62.2"/>
	<rect x="-123.7" y="-311" class="st0" width="62.1" height="62.2"/>
	<rect x="-61.6" y="-311" class="st0" width="62.1" height="62.2"/>
	<rect x="0.5" y="-311" class="st0" width="62.1" height="62.2"/>
	<rect x="62.6" y="-311" class="st0" width="62.1" height="62.2"/>
	<rect x="124.7" y="-311" class="st0" width="62.1" height="62.2"/>
	<rect x="186.8" y="-311" class="st0" width="62.1" height="62.2"/>
	<rect x="249" y="-311" class="st0" width="62.1" height="62.2"/>
	<rect x="-310" y="-311" class="st0" width="621.1" height="622.1"/>
	<rect x="-311.1" y="-311" class="st0" width="622.1" height="622.1"/>
	<rect x="-310" y="248.9" class="st0" width="62.1" height="62.2"/>
	<rect x="-247.9" y="248.9" class="st0" width="62.1" height="62.2"/>
	<rect x="-185.8" y="248.9" class="st0" width="62.1" height="62.2"/>
	<rect x="-123.7" y="248.9" class="st0" width="62.1" height="62.2"/>
	<rect x="-61.6" y="248.9" class="st0" width="62.1" height="62.2"/>
	<rect x="0.5" y="248.9" class="st0" width="62.1" height="62.2"/>
	<rect x="62.6" y="248.9" class="st0" width="62.1" height="62.2"/>
	<rect x="124.7" y="248.9" class="st0" width="62.1" height="62.2"/>
	<rect x="186.8" y="248.9" class="st0" width="62.1" height="62.2"/>
	<rect x="249" y="248.9" class="st0" width="62.1" height="62.2"/>
	<rect x="-310" y="186.7" class="st0" width="62.1" height="62.2"/>
	<rect x="-247.9" y="186.7" class="st0" width="62.1" height="62.2"/>
	<rect x="-185.8" y="186.7" class="st0" width="62.1" height="62.2"/>
	<rect x="-123.7" y="186.7" class="st0" width="62.1" height="62.2"/>
	<rect x="-61.6" y="186.7" class="st0" width="62.1" height="62.2"/>
	<rect x="0.5" y="186.7" class="st0" width="62.1" height="62.2"/>
	<rect x="62.6" y="186.7" class="st0" width="62.1" height="62.2"/>
	<rect x="124.7" y="186.7" class="st0" width="62.1" height="62.2"/>
	<rect x="186.8" y="186.7" class="st0" width="62.1" height="62.2"/>
	<rect x="249" y="186.7" class="st0" width="62.1" height="62.2"/>
	<rect x="-310" y="124.5" class="st0" width="62.1" height="62.2"/>
	<rect x="-247.9" y="124.5" class="st0" width="62.1" height="62.2"/>
	<rect x="-185.8" y="124.5" class="st0" width="62.1" height="62.2"/>
	<rect x="-123.7" y="124.5" class="st0" width="62.1" height="62.2"/>
	<rect x="-61.6" y="124.5" class="st0" width="62.1" height="62.2"/>
	<rect x="0.5" y="124.5" class="st0" width="62.1" height="62.2"/>
	<rect x="62.6" y="124.5" class="st0" width="62.1" height="62.2"/>
	<rect x="124.7" y="124.5" class="st0" width="62.1" height="62.2"/>
	<rect x="186.8" y="124.5" class="st0" width="62.1" height="62.2"/>
	<rect x="249" y="124.5" class="st0" width="62.1" height="62.2"/>
	<rect x="-310" y="62.3" class="st0" width="62.1" height="62.2"/>
	<rect x="-247.9" y="62.3" class="st0" width="62.1" height="62.2"/>
	<rect x="-185.8" y="62.3" class="st0" width="62.1" height="62.2"/>
	<rect x="-123.7" y="62.3" class="st0" width="62.1" height="62.2"/>
	<rect x="-61.6" y="62.3" class="st0" width="62.1" height="62.2"/>
	<rect x="0.5" y="62.3" class="st0" width="62.1" height="62.2"/>
	<rect x="62.6" y="62.3" class="st0" width="62.1" height="62.2"/>
	<rect x="124.7" y="62.3" class="st0" width="62.1" height="62.2"/>
	<rect x="186.8" y="62.3" class="st0" width="62.1" height="62.2"/>
	<rect x="249" y="62.3" class="st0" width="62.1" height="62.2"/>
	<rect x="-310" y="0.1" class="st0" width="62.1" height="62.2"/>
	<rect x="-247.9" y="0.1" class="st0" width="62.1" height="62.2"/>
	<rect x="-185.8" y="0.1" class="st0" width="62.1" height="62.2"/>
	<rect x="-123.7" y="0.1" class="st0" width="62.1" height="62.2"/>
	<rect x="-61.6" y="0.1" class="st0" width="62.1" height="62.2"/>
	<rect x="0.5" y="0.1" class="st0" width="62.1" height="62.2"/>
	<rect x="62.6" y="0.1" class="st0" width="62.1" height="62.2"/>
	<rect x="124.7" y="0.1" class="st0" width="62.1" height="62.2"/>
	<rect x="186.8" y="0.1" class="st0" width="62.1" height="62.2"/>
	<rect x="249" y="0.1" class="st0" width="62.1" height="62.2"/>
	<rect x="-310" y="-62.1" class="st0" width="62.1" height="62.2"/>
	<rect x="-247.9" y="-62.1" class="st0" width="62.1" height="62.2"/>
	<rect x="-185.8" y="-62.1" class="st0" width="62.1" height="62.2"/>
	<rect x="-123.7" y="-62.1" class="st0" width="62.1" height="62.2"/>
	<rect x="-61.6" y="-62.1" class="st0" width="62.1" height="62.2"/>
	<rect x="0.5" y="-62.1" class="st0" width="62.1" height="62.2"/>
	<rect x="62.6" y="-62.1" class="st0" width="62.1" height="62.2"/>
	<rect x="124.7" y="-62.1" class="st0" width="62.1" height="62.2"/>
	<rect x="186.8" y="-62.1" class="st0" width="62.1" height="62.2"/>
	<rect x="249" y="-62.1" class="st0" width="62.1" height="62.2"/>
	<rect x="-310" y="-124.3" class="st0" width="62.1" height="62.2"/>
	<rect x="-247.9" y="-124.3" class="st0" width="62.1" height="62.2"/>
	<rect x="-185.8" y="-124.3" class="st0" width="62.1" height="62.2"/>
	<rect x="-123.7" y="-124.3" class="st0" width="62.1" height="62.2"/>
	<rect x="-61.6" y="-124.3" class="st0" width="62.1" height="62.2"/>
	<rect x="0.5" y="-124.3" class="st0" width="62.1" height="62.2"/>
	<rect x="62.6" y="-124.3" class="st0" width="62.1" height="62.2"/>
	<rect x="124.7" y="-124.3" class="st0" width="62.1" height="62.2"/>
	<rect x="186.8" y="-124.3" class="st0" width="62.1" height="62.2"/>
	<rect x="249" y="-124.3" class="st0" width="62.1" height="62.2"/>
	<rect x="-310" y="-186.6" class="st0" width="62.1" height="62.2"/>
	<rect x="-247.9" y="-186.6" class="st0" width="62.1" height="62.2"/>
	<rect x="-185.8" y="-186.6" class="st0" width="62.1" height="62.2"/>
	<rect x="-123.7" y="-186.6" class="st0" width="62.1" height="62.2"/>
	<rect x="-61.6" y="-186.6" class="st0" width="62.1" height="62.2"/>
	<rect x="0.5" y="-186.6" class="st0" width="62.1" height="62.2"/>
	<rect x="62.6" y="-186.6" class="st0" width="62.1" height="62.2"/>
	<rect x="124.7" y="-186.6" class="st0" width="62.1" height="62.2"/>
	<rect x="186.8" y="-186.6" class="st0" width="62.1" height="62.2"/>
	<rect x="249" y="-186.6" class="st0" width="62.1" height="62.2"/>
	<rect x="-310" y="-248.8" class="st0" width="62.1" height="62.2"/>
	<rect x="-247.9" y="-248.8" class="st0" width="62.1" height="62.2"/>
	<rect x="-185.8" y="-248.8" class="st0" width="62.1" height="62.2"/>
	<rect x="-123.7" y="-248.8" class="st0" width="62.1" height="62.2"/>
	<rect x="-61.6" y="-248.8" class="st0" width="62.1" height="62.2"/>
	<rect x="0.5" y="-248.8" class="st0" width="62.1" height="62.2"/>
	<rect x="62.6" y="-248.8" class="st0" width="62.1" height="62.2"/>
	<rect x="124.7" y="-248.8" class="st0" width="62.1" height="62.2"/>
	<rect x="186.8" y="-248.8" class="st0" width="62.1" height="62.2"/>
	<rect x="249" y="-248.8" class="st0" width="62.1" height="62.2"/>
	<rect x="-310" y="-311" class="st0" width="62.1" height="62.2"/>
	<rect x="-247.9" y="-311" class="st0" width="62.1" height="62.2"/>
	<rect x="-185.8" y="-311" class="st0" width="62.1" height="62.2"/>
	<rect x="-123.7" y="-311" class="st0" width="62.1" height="62.2"/>
	<rect x="-61.6" y="-311" class="st0" width="62.1" height="62.2"/>
	<rect x="0.5" y="-311" class="st0" width="62.1" height="62.2"/>
	<rect x="62.6" y="-311" class="st0" width="62.1" height="62.2"/>
	<rect x="124.7" y="-311" class="st0" width="62.1" height="62.2"/>
	<rect x="186.8" y="-311" class="st0" width="62.1" height="62.2"/>
	<rect x="249" y="-311" class="st0" width="62.1" height="62.2"/>
</symbol>
<title>Untitled-3</title>
<g>
	<path class="st1" d="M28.3,147.8l-1.9,15.9c0,0,0,0,0,0l2-15.8C28.4,147.8,28.3,147.8,28.3,147.8z"/>
	<path class="st1" d="M28.9,141.6c1.6-0.8,4.1-1,6.7-0.9L34,127.3c-0.4-0.2-0.9-0.4-1.3-0.6c-1.7-0.7-3.3-1.6-3.3-1.6
		c-1.8-1-2.2-1.3-3.9-2.4l-0.5-0.3c-1.2-0.5-2.4-1.4-3.3-2.2l-0.9-0.8c-0.6-0.5-1.2-1.1-1.8-1.6L28.9,141.6z"/>
	<path class="st1" d="M48.3,143.1c0.5,0.2,1,0.4,1.4,0.6c1.8,0.9,2.9,1.8,3.4,2.6l17.2-20.4c-0.1,0.1-0.3,0.1-0.4,0.2
		c-0.8,0.4-1.6,0.7-2.2,1c-1.1,0.5-2.3,0.9-3,1.1c-3,0.9-3,0.9-5.2,1.4c-0.1,0-0.7,0.2-1.6,0.3L48.3,143.1z"/>
	<path class="st1" d="M38.1,140.9c0.9,0.1,1.9,0.2,2.7,0.4c1.8,0.2,3.5,0.6,5,1l8.7-12.1c-0.7,0.1-1.5,0.1-2.4,0.1
		c-0.6,0-1.3,0-1.9,0c-2.1,0-4.1-0.1-6-0.4c-3.8-0.5-6.6-1.4-7.7-1.8L38.1,140.9z"/>
	<path class="st1" d="M50.8,151.8l-0.3,2.3l0.5-2.4C50.9,151.8,50.9,151.8,50.8,151.8z"/>
	<path class="st2" d="M46.3,152.3c-2.3,0-4.7-0.3-6.9-0.7c-0.8-0.2-1.6-0.4-2.5-0.6c-3.4-0.7-6.5-1.8-8.5-3.1l-2,15.8
		c0.7,0.8,1.8,1.3,2.8,1.8c3.2,1.5,6.7,2.4,10.4,2.7c1.9,0.2,3.6,0.2,5.4,0c0,0,0.1,0,0.1,0c1.3-0.1,2.1-0.4,2.4-0.7l2.9-13.4
		l0.3-2.3C49.5,152.2,48,152.3,46.3,152.3z"/>
	<path class="st3" d="M72,125c-0.5,0.2-1.1,0.5-1.7,0.8l-17.2,20.4c-0.5-0.8-1.5-1.7-3.4-2.6c-0.4-0.2-0.9-0.4-1.4-0.6l9.6-13.2
		c-0.8,0.1-2,0.3-3.3,0.4l-8.7,12.1c-1.5-0.4-3.2-0.8-5-1c-0.9-0.2-1.8-0.3-2.7-0.4l-1.4-12.7c0,0-0.1,0-0.1,0
		c-1.1-0.4-1.8-0.6-2.5-0.9l1.5,13.4c-2.6-0.1-5,0.2-6.7,0.9l-10-23.8c-0.1-0.1-0.2-0.2-0.3-0.3c-1.4-1.4-3-3.1-4.1-4.4
		c-0.2-0.3-0.5-0.6-0.8-0.9l12.9,31.1c-0.3,0.2-0.5,0.5-0.5,0.8L24,162.6c-0.3,0.2-0.5,0.6-0.5,1.1c0,0.2,0,0.3,0.1,0.4
		c0.1,0.2,0.2,0.3,0.3,0.4c0.1,0.3,0.3,0.6,0.5,0.7c1,1.2,2.5,1.8,3.6,2.4c2.1,1,4.4,1.8,7.1,2.4c1.3,0.3,2.8,0.5,4.2,0.6
		c1,0.1,2,0.2,3,0.2c1,0,1.9,0,2.9-0.1c0,0,0.1,0,0.1,0c1.8-0.1,3.1-0.6,3.9-1.4c0.2-0.1,0.3-0.2,0.4-0.3c0.1-0.1,0.2-0.3,0.3-0.5
		l4.1-19.4l22.4-26.6c-0.3,0.2-0.7,0.4-1,0.6C74.5,123.7,73.1,124.5,72,125z M47.6,167.5c-0.3,0.3-1.1,0.6-2.4,0.7c0,0-0.1,0-0.1,0
		c-1.8,0.2-3.6,0.2-5.4,0c-3.8-0.3-7.3-1.2-10.4-2.7c-1-0.5-2.1-1.1-2.8-1.8c0,0,0,0,0,0l1.9-15.9c0,0,0.1,0.1,0.1,0.1
		c2,1.4,5.1,2.5,8.5,3.1c0.8,0.2,1.7,0.4,2.5,0.6c2.2,0.5,4.6,0.7,6.9,0.7c1.7,0,3.2-0.2,4.5-0.5c0.1,0,0.1,0,0.2-0.1l-0.5,2.4
		L47.6,167.5z M48.8,145.5c2.3,1.1,2.8,2,2.7,2.3c0,0.3-0.8,1.1-3.3,1.5c-2.4,0.4-5.5,0.4-8.8,0c-7.5-1-11.3-3.6-11.2-4.6
		c0.1-1,4.5-2.5,12-1.5C43.6,143.7,46.6,144.5,48.8,145.5z"/>
	<path class="st4" d="M28.4,144.8c-0.1,1,3.7,3.6,11.2,4.6c3.3,0.4,6.4,0.4,8.8,0c2.5-0.5,3.2-1.2,3.3-1.5c0-0.3-0.5-1.2-2.7-2.3
		c-2.2-1-5.2-1.8-8.4-2.3C32.9,142.3,28.5,143.8,28.4,144.8z"/>
	<path class="st5" d="M66.5,1.9c-0.4-0.1-0.8-0.2-1.1-0.2c0.1,0.1,0.1,0.3,0.1,0.4C65.9,2,66.2,2,66.5,1.9z"/>
	<path class="st5" d="M63.3,1.6c0,0,0.1,0,0.1,0c0.2,0.1,0.4,0.2,0.6,0.2c-0.3-0.4-0.5-0.4-0.6-0.4c-0.2,0-0.5-0.1-0.8-0.1
		c0.1,0,0.2,0.1,0.3,0.1C63.1,1.5,63.2,1.5,63.3,1.6z"/>
	<path class="st5" d="M56.1,1.1c0,0-0.1,0-0.1,0c-0.1,0-0.1,0-0.2,0C55.9,1.1,56,1.1,56.1,1.1z"/>
	<path class="st5" d="M49.8,4.6l0.2-0.1l0,0c0.6-0.2,1.3-0.4,1.9-0.6c0.2-0.1,0.5-0.1,0.7-0.2c0.5-0.1,0.9-0.2,1.4-0.4
		c0.3-0.1,0.5-0.1,0.8-0.2c0.5-0.1,1-0.2,1.6-0.3c0.3,0,0.5-0.1,0.8-0.1c0.6-0.1,1.2-0.2,1.8-0.2c0.1,0,0.2,0,0.3,0
		c-3.4-0.3-6.8-0.2-10.2,0.3c-0.1,0.2-0.2,0.4,0,0.8c0,0,0,0,0,0c0.1,0.2,0.2,0.4,0.5,0.7c0,0,0.1,0.1,0.1,0.1
		C49.7,4.5,49.7,4.5,49.8,4.6z"/>
	<path class="st5" d="M56.1,7.7c2-1.8,4-3.3,6-4.3c-0.8,0-1.6,0.1-2.5,0.2c0,0-0.1,0-0.1,0c-2.7,0.3-5.5,0.9-8.3,1.9
		C52.5,6.2,54.1,7,56.1,7.7z"/>
	<path class="st5" d="M57.7,8.4c0.1,0,0.2,0.1,0.3,0.1c2.2,0.6,4.5,1.1,6.9,1.5c0.1,0,0.2,0,0.3,0c0-2.7-0.2-4.9-0.5-6.4
		C62.5,4.5,60.1,6.1,57.7,8.4z"/>
	<path class="st5" d="M65.9,4c0.4,1.6,0.7,3.8,0.8,6.3c1.3,0.2,2.6,0.3,3.9,0.3l0.2,0c1,0.1,2,0,3,0C71.4,7.7,68.7,5.5,65.9,4z"/>
	<path class="st5" d="M75.8,10.5c1.4-0.1,2.7-0.5,3.4-0.9c-3.1-2-6.4-3.7-9.8-4.9C71.6,6.2,73.7,8.1,75.8,10.5z"/>
	<path class="st5" d="M71.7,4.3c2.8,1.1,5.6,2.5,8.2,4.2c0-0.4-0.2-0.9-1-1.6l0,0C76.6,5.8,74.3,5,72,4.4
		C71.9,4.3,71.8,4.3,71.7,4.3z"/>
	<path class="st5" d="M33.5,8.3c-0.1,0.1-0.2,0.3-0.3,0.4c0,0,0,0,0,0.1c-0.1,0.1-0.1,0.3-0.1,0.4c0,0,0,0.1,0,0.1
		c0,0.1,0,0.2,0,0.2c0,0.7,0.4,1.4,0.9,2c0,0.1,0.1,0.1,0.1,0.2c0.1,0.1,0.2,0.2,0.3,0.3c0.1,0.1,0.3,0.3,0.4,0.4l0,0l0.1,0.1
		c0.6-0.5,1.3-0.9,1.9-1.4c0.2-0.1,0.3-0.2,0.5-0.3c0.7-0.5,1.5-1,2.2-1.4c0,0,0,0,0.1,0c0,0,0,0,0,0c0,0,0,0,0,0
		c0.5-0.3,1.1-0.6,1.6-0.9c0,0,0,0,0.1,0c0.2-0.1,0.5-0.3,0.7-0.4c0.1-0.1,0.3-0.2,0.4-0.2c0.3-0.1,0.5-0.3,0.8-0.4
		C43.5,7.2,43.7,7.1,44,7c0.3-0.1,0.6-0.3,0.8-0.4c0.3-0.1,0.5-0.2,0.8-0.4c0.3-0.1,0.6-0.2,0.8-0.4c0.3-0.1,0.6-0.2,0.8-0.3
		c0.2-0.1,0.3-0.1,0.5-0.2c-0.5-0.5-0.7-1-0.8-1.5c0-0.1,0-0.1,0-0.2c0,0,0,0,0,0c0-0.1,0-0.1,0-0.2c0-0.1,0-0.2,0-0.2
		c-4.6,1-8.9,2.6-13,4.9C33.8,8.2,33.7,8.2,33.5,8.3C33.5,8.3,33.5,8.3,33.5,8.3z"/>
	<path class="st6" d="M48,3.2c0,0.1,0,0.2,0,0.3c0,0.2,0.1,0.5,0.3,0.8C48,3.9,47.9,3.5,48,3.2z"/>
	<path class="st5" d="M36.2,13.6c2.4,1.7,6,3.4,10.8,5c0,0,0,0,0-0.1c0.6-0.9,1.1-1.7,1.7-2.5c0,0,0,0,0-0.1
		c0.6-0.8,1.2-1.6,1.8-2.3c0.1-0.1,0.1-0.2,0.2-0.2c0.6-0.7,1.2-1.4,1.8-2c0.1-0.1,0.2-0.2,0.3-0.3c0.5-0.6,1.1-1.2,1.6-1.7
		c0.1-0.1,0.2-0.2,0.3-0.3c-0.1,0-0.1-0.1-0.2-0.1c-0.1,0-0.2-0.1-0.2-0.1c-2.3-0.9-4.1-1.8-5.4-2.6C44.3,8.2,40.1,10.7,36.2,13.6z"
		/>
	<path class="st5" d="M64.6,22.9C64.6,22.9,64.6,22.9,64.6,22.9c0.1-1,0.1-1.9,0.2-2.9c0-0.1,0-0.2,0-0.2c0.1-0.9,0.1-1.8,0.1-2.7
		c0,0,0,0,0-0.1c0-0.9,0.1-1.8,0.1-2.6c0-0.1,0-0.1,0-0.2c0-0.8,0.1-1.6,0.1-2.4c0,0,0-0.1,0-0.1c-2.8-0.4-5.4-0.9-8.9-2
		c-2.4,2.6-4.9,5.8-7.3,9.7C53.5,20.8,58.9,22,64.6,22.9z"/>
	<path class="st5" d="M82.2,24c0-0.1-0.1-0.2-0.1-0.3c-0.4-0.9-0.8-1.8-1.2-2.7c-0.1-0.2-0.2-0.4-0.3-0.7c-0.3-0.7-0.7-1.3-1.1-2
		c-0.3-0.5-0.6-1-0.9-1.5c-0.2-0.3-0.4-0.6-0.5-0.9c-0.8-1.3-1.7-2.5-2.6-3.7c-1.3,0.1-2.7,0.1-4.2,0.1c-1.4-0.1-2.9-0.2-4.4-0.3
		c0.1,1.2,0.1,2.6,0.1,4c0,0,0,0,0,0c0,0.4,0,0.8,0,1.3c0,0.3,0,0.6,0,1c0,0.1,0,0.3,0,0.4c0,1.5-0.1,3-0.1,4.5
		c3.1,0.4,5.7,0.6,8.2,0.7C78,24.1,80.2,24.1,82.2,24z"/>
	<path class="st6" d="M65.8,23.2C65.8,23.2,65.8,23.2,65.8,23.2c0.1-1.5,0.2-3.1,0.2-4.5c-0.1,1.4-0.2,2.9-0.3,4.5
		C65.7,23.2,65.7,23.2,65.8,23.2z"/>
	<path class="st5" d="M84.2,23.8c3.3-0.4,6.1-1.2,7.6-2.2c-3.3-4.3-6.9-7.9-10.8-10.7c-0.8,0.6-2.1,1-3.8,1.2
		C79.7,15.3,82.1,19.3,84.2,23.8z"/>
	<path class="st5" d="M82,8.6c0.1,0.5,0,0.9-0.1,1.2c4,2.8,7.6,6.3,10.9,10.4c0.3-0.9,0-1.9-0.9-3c-1.4-1.6-1.7-2-3.7-3.8L86.6,12
		C85.1,10.7,83.6,9.6,82,8.6z"/>
	<path class="st6" d="M80.7,9.4c0.1,0,0.1,0.1,0.2,0.1c0.1-0.2,0.2-0.4,0-0.7C80.9,8.9,80.8,9.2,80.7,9.4z"/>
	<path class="st5" d="M19.3,21.5c0,0,0,0.1,0,0.1c0.2,1.1,1.1,2.3,2.5,3.6c3.4-4.3,7.2-8.1,11.2-11.4c-1.5-1.5-1.9-2.7-1.9-3.7
		c0-0.1,0-0.3,0-0.4c-3.6,2.3-7,5.1-10.3,8.5c-0.3,0.3-0.6,0.7-1,1.1c-0.4,0.6-0.6,1.2-0.6,1.8C19.3,21.2,19.3,21.3,19.3,21.5z"/>
	<path class="st6" d="M33.8,13.2c0,0,0.1-0.1,0.1-0.1c-1.2-1.2-1.7-2.3-1.8-3.2C32,11.1,32.9,12.2,33.8,13.2z"/>
	<path class="st5" d="M38.6,33.8c1.9-4.1,3.8-7.8,5.8-11.1c0.5-0.8,0.9-1.5,1.4-2.3c-4.7-1.6-8.7-3.5-11.3-5.5
		c-4.1,3.4-7.8,7.2-11.2,11.5c0.8,0.6,1.8,1.3,2.8,1.9c2.7,1.6,6.1,3.1,10,4.6C36.9,33.3,37.7,33.6,38.6,33.8
		C38.5,33.9,38.5,33.9,38.6,33.8z"/>
	<path class="st6" d="M46.3,19.6C46.3,19.6,46.3,19.5,46.3,19.6c-5.1-1.9-8.9-3.8-11.3-5.6c-0.1,0-0.2-0.1-0.3-0.2c0,0,0,0-0.1,0.1
		l0.1,0.1C37.3,15.9,41.4,17.9,46.3,19.6z"/>
	<path class="st5" d="M40.9,34.7c6.5,2.1,14.1,3.8,22.1,5c0.5-4.6,1-9.3,1.4-14.7c-0.3,0-0.6-0.1-0.8-0.1c-0.4-0.1-0.7-0.1-1.1-0.2
		c-0.4-0.1-0.8-0.1-1.1-0.2c-0.4-0.1-0.7-0.1-1.1-0.2c-0.4-0.1-0.7-0.1-1.1-0.2c-0.4-0.1-0.7-0.1-1.1-0.2c-0.4-0.1-0.7-0.2-1.1-0.2
		c-0.3-0.1-0.7-0.1-1-0.2c-0.4-0.1-0.7-0.2-1.1-0.3c-0.3-0.1-0.7-0.2-1-0.2c-0.4-0.1-0.7-0.2-1.1-0.3c-0.3-0.1-0.6-0.2-0.9-0.2
		c-0.4-0.1-0.8-0.2-1.1-0.3c-0.3-0.1-0.6-0.2-0.9-0.2c-0.4-0.1-0.9-0.3-1.3-0.4c-0.2-0.1-0.4-0.1-0.7-0.2
		C45.3,25.4,43,29.9,40.9,34.7z"/>
	<path class="st6" d="M39.8,34.3c0.1,0,0.1,0,0.2,0.1c2.2-4.9,4.6-9.6,7.2-14l0.2-0.3l0.4,0.1c5,1.6,10.9,3,16.7,3.9
		c0,0,0-0.1,0-0.1c-6.1-1-11.8-2.3-16.5-3.8c-0.1,0-0.3-0.1-0.5-0.1c0,0-0.1,0-0.1,0c-2.8,4.3-5.4,9.1-7.8,14.3
		C39.6,34.2,39.7,34.2,39.8,34.3z"/>
	<path class="st5" d="M75.3,26.1c-2.6-0.1-5.3-0.3-8.5-0.7c-0.2,4-0.5,8.7-1,14.7c4.2,0.5,8,0.9,11.4,1c3.6,0.2,7,0.1,10.2-0.2
		c-0.2-1-0.4-1.9-0.6-2.9c-0.1-0.2-0.1-0.5-0.2-0.7c-1-4-2.2-7.8-3.6-11.3C80.9,26.2,78.4,26.2,75.3,26.1z"/>
	<path class="st6" d="M64,39.8c0.2,0,0.5,0.1,0.7,0.1c0.5-6.3,0.9-11.1,1.1-15.2l0-0.5c-0.1,0-0.1,0-0.2,0c0,0-0.1,0-0.1,0
		C65,30,64.5,35,64,39.8z"/>
	<path class="st5" d="M85.4,26.6c0.4,0.9,0.7,1.8,1.1,2.7c0.2,0.5,0.3,0.9,0.5,1.4c0.3,0.8,0.5,1.6,0.8,2.3c0.2,0.5,0.3,1,0.5,1.6
		c0.2,0.8,0.4,1.5,0.7,2.3c0.1,0.5,0.3,1.1,0.4,1.7c0.2,0.7,0.3,1.4,0.5,2.1c5.2-0.6,9.1-1.8,11-3.5c-0.4-1-0.8-1.9-1.2-2.9
		c-0.1-0.3-0.2-0.6-0.4-0.9c-0.6-1.3-1.2-2.5-1.8-3.7c-0.2-0.3-0.3-0.5-0.5-0.8c-0.5-0.9-1-1.8-1.6-2.7c-0.3-0.4-0.5-0.8-0.8-1.2
		c-0.4-0.6-0.8-1.2-1.2-1.8c0,0,0,0-0.1-0.1c0,0-0.1,0-0.1,0.1c-0.1,0.1-0.2,0.2-0.4,0.3c-0.1,0.1-0.2,0.1-0.3,0.2
		c-1.7,1-4.2,1.8-7.5,2.1C85.1,26,85.3,26.3,85.4,26.6z"/>
	<path class="st6" d="M88.4,40.9c0.1,0,0.2,0,0.3,0c0,0,0,0,0,0c-1-4.4-2.2-8.7-3.8-12.7C86.3,32.1,87.5,36.4,88.4,40.9z"/>
	<path class="st6" d="M92.5,22.2c-1.7,1.3-4.8,2.2-8.7,2.6c-0.1,0-0.2,0-0.2,0c0,0,0,0,0,0l0.6-0.1c3.8-0.3,6.8-1.2,8.3-2.4
		C92.6,22.3,92.5,22.3,92.5,22.2z"/>
	<path class="st5" d="M101.8,35.8c0.1-0.1,0.1-0.3,0.1-0.4c0,0,0,0,0-0.1c0.1-0.4,0.1-0.8,0-1.2c0,0,0-0.1,0-0.1
		c0-0.2-0.1-0.4-0.2-0.6c-1.2-2.9-1.2-2.9-4-8.1c-0.9-1.7-1.6-2.7-3-4.6c-0.1,0.5-0.2,0.9-0.4,1.2C97.2,26.2,99.7,30.9,101.8,35.8z"
		/>
	<path class="st6" d="M93.3,21.5C93.3,21.6,93.3,21.6,93.3,21.5c0.2-0.1,0.2-0.2,0.3-0.4C93.5,21.3,93.4,21.4,93.3,21.5L93.3,21.5z"
		/>
	<path class="st5" d="M8.8,36c0,0.1,0,0.1,0,0.2c0,0.2-0.1,0.4-0.1,0.6c0,0.1,0,0.2,0,0.3c0,0.2,0,0.4,0.1,0.6
		c0,0.1,0.1,0.2,0.1,0.3c0.1,0.2,0.1,0.4,0.2,0.5c0.1,0.1,0.1,0.2,0.2,0.4c0.1,0.2,0.2,0.3,0.3,0.5c0.1,0.1,0.2,0.3,0.3,0.4
		c0.1,0.2,0.2,0.3,0.4,0.5c0.1,0.1,0.2,0.3,0.4,0.4c0.2,0.2,0.3,0.3,0.5,0.5c0.1,0.1,0.3,0.3,0.4,0.4c0.1,0.1,0.2,0.1,0.2,0.2
		C14,36.6,17,31.6,20.4,27c-1.5-1.3-2.4-2.6-2.8-3.9c-0.1-0.3-0.1-0.6-0.2-1c-2.1,2.6-4,5.3-5.7,8.2c-1,1.7-1.9,3.4-2.7,4.8
		C8.9,35.5,8.8,35.7,8.8,36z"/>
	<path class="st6" d="M21,26.2c0.1-0.1,0.1-0.1,0.2-0.2c-1.5-1.4-2.3-2.6-2.7-3.7C18.7,23.5,19.5,24.8,21,26.2z"/>
	<path class="st5" d="M31.5,52L31.5,52c0.3-0.9,0.6-1.8,0.9-2.6c0.2-0.5,0.3-0.9,0.5-1.4c0.5-1.4,1-2.9,1.5-4.2
		c0.1-0.2,0.1-0.4,0.2-0.5c0.5-1.2,0.9-2.4,1.4-3.6c0.2-0.5,0.4-0.9,0.6-1.4c0.3-0.8,0.7-1.6,1-2.3c-0.1,0-0.2-0.1-0.3-0.1
		c-6.8-2.4-12-4.9-15.3-7.5c-3.3,4.6-6.2,9.6-8.7,14.9c0,0,0.1,0.1,0.1,0.1c0.4,0.3,0.9,0.6,1.3,0.9c0.2,0.1,0.4,0.2,0.6,0.4
		c0.2,0.1,0.5,0.3,0.7,0.4C19.9,47.5,25.1,49.8,31.5,52L31.5,52z"/>
	<path class="st6" d="M12.4,42.5L12.4,42.5L12.4,42.5c0.1,0.1,0.1,0.1,0.1,0.1c2.5-5.5,5.6-10.6,9-15.3l0.3-0.4l0.4,0.3
		c3.3,2.7,8.6,5.3,15.8,7.8c0,0,0-0.1,0-0.1c0,0,0,0,0,0c-7-2.5-12.5-5.2-15.9-7.8c-0.1-0.1-0.1-0.1-0.2-0.1c-0.1,0-0.1-0.1-0.2-0.1
		C18.1,31.6,15,36.9,12.4,42.5z"/>
	<path class="st5" d="M62.7,41.9c-7.8-1.2-15.6-2.9-22.6-5.2c-2.3,5.4-4.2,10.8-5.8,16.2c0.4,0.1,0.9,0.3,1.3,0.4
		c0.5,0.2,1,0.3,1.5,0.5c0.4,0.1,0.8,0.2,1.2,0.4c6.7,1.9,14.1,3.5,21.5,4.7c0.2,0,0.5,0.1,0.7,0.1C61.4,52.8,62.1,46.8,62.7,41.9z"
		/>
	<path class="st6" d="M32.8,52.4c0.2,0.1,0.3,0.1,0.5,0.2c1.7-5.6,3.7-11.1,6.1-16.7l0.2-0.4l0.4,0.1c7,2.3,14.9,4.1,22.9,5.3
		c0-0.1,0-0.1,0-0.2c-8.2-1.2-16.1-3-22.7-5.2c-0.3-0.1-0.5-0.2-0.7-0.2c-0.1,0-0.2-0.1-0.3-0.1c-2.5,5.4-4.7,11.3-6.6,17.2
		C32.6,52.4,32.7,52.4,32.8,52.4z"/>
	<path class="st5" d="M87.8,43.1c-3.2,0.3-6.7,0.3-10.3,0.2c-0.1,0-0.2,0-0.2,0c-4.7-0.2-8.3-0.5-11.6-1c-0.5,5-1.1,10.3-1.8,15.8
		l-0.2,1.2c3.4,0.4,7.2,0.8,11.2,1.1c0.8,0,1.7,0.1,2.5,0.1c2.2,0.1,4.4,0.1,6.4,0.1c0.3,0,0.5,0,0.8,0c0.8,0,1.5,0,2.3-0.1
		c0.4,0,0.8,0,1.2-0.1c0.5,0,0.9-0.1,1.4-0.1l0-0.1h0.1C89.3,54.6,88.7,48.8,87.8,43.1z"/>
	<path class="st6" d="M87.5,41.9c-3.3,0.3-6.8,0.3-10.4,0.2c-3.6-0.2-7.7-0.6-12-1.1c-0.4,0-0.8,0-1.2-0.1c-0.6,5-1.4,11.5-2.4,18.2
		l0.1,0l0,0c0.2,0,0.3,0,0.5,0.1c0.1,0,0.3,0,0.4,0.1l0.2-1.2c0.7-5.7,1.4-11.2,1.9-16.3l0-0.5l0.5,0.1c3.5,0.5,7.2,0.8,12.2,1.1
		c3.3,0.1,7,0.1,10.3-0.1C87.5,42.1,87.5,42,87.5,41.9z"/>
	<path class="st5" d="M90.1,43c0.8,4.5,1.4,8.9,1.6,13.3c0,0.3,0,0.6,0,0.8c0.1,1,0.1,2,0.1,3c6.1-0.7,10.8-2.2,13.1-4.2
		c-0.5-5.6-1.7-11.1-3.6-16.4C99.3,41.2,95.4,42.4,90.1,43z"/>
	<path class="st6" d="M88.6,42C88.6,42,88.6,42,88.6,42c1,5.6,1.6,11.7,1.8,18.3c0,0,0.1,0,0.1,0c0.1,0,0.3,0,0.4,0
		c-0.1-5.7-0.8-11.6-1.9-17.5l-0.1-0.5l0.5-0.1c5.6-0.6,9.6-1.9,11.6-3.6c0,0,0-0.1,0-0.1c-2.2,1.7-6.2,2.9-11.7,3.5
		C89.1,41.9,88.8,41.9,88.6,42z"/>
	<path class="st5" d="M102.7,38.3c1.7,4.9,3,10.1,3.6,15.5c0.1-0.4,0.2-0.8,0.1-1.3l0.1,0c-0.5-3.4-1.1-6.8-1.6-9.1
		c-0.5-1.8-1.1-4-1.8-6C103,37.7,102.9,38,102.7,38.3z"/>
	<path class="st6" d="M101.8,37.6C101.8,37.6,101.8,37.6,101.8,37.6C101.8,37.6,101.8,37.6,101.8,37.6L101.8,37.6z"/>
	<path class="st5" d="M5.2,61l0.2,0.2c0.1-0.3,0.1-0.5,0.2-0.8c0.1-0.3,0.1-0.6,0.2-1C5.9,59,6,58.6,6.1,58.1c0.1-0.3,0.2-0.6,0.2-1
		c0.1-0.4,0.2-0.9,0.3-1.3c0.1-0.3,0.2-0.6,0.2-0.9C7,54.4,7.2,54,7.3,53.5c0.1-0.3,0.2-0.6,0.3-0.9c0-0.1,0.1-0.3,0.1-0.4
		c0-0.1,0.1-0.2,0.1-0.3C7.9,51.7,8,51.4,8,51.1c0.1-0.2,0.1-0.4,0.2-0.7c0-0.1,0.1-0.3,0.1-0.4c0.1-0.4,0.3-0.8,0.4-1.1
		C8.9,48.7,9,48.5,9,48.2c0-0.1,0.1-0.2,0.1-0.3c0.5-1.3,1-2.6,1.6-3.9c-0.3-0.3-0.6-0.5-0.8-0.8c-0.1-0.1-0.1-0.1-0.2-0.2
		c-0.3-0.3-0.6-0.6-0.8-1c0,0-0.1-0.1-0.1-0.1c-0.3-0.3-0.5-0.7-0.7-1c0,0,0,0,0,0c-0.2-0.3-0.4-0.6-0.5-1c0,0,0-0.1-0.1-0.1
		c-0.1-0.2-0.2-0.4-0.2-0.7c-0.8,2-1.8,4.4-2.4,6.3c-0.8,2.5-1.5,5.7-2.2,8.4l-0.3,1.3C2.1,57,3,58.9,5.2,61L5.2,61z"/>
	<path class="st6" d="M11.1,43c0-0.1,0.1-0.2,0.1-0.3c-1.2-1.1-2.2-2.2-2.7-3.2C8.9,40.7,9.8,41.8,11.1,43z"/>
	<path class="st5" d="M12.4,45.5c-2.3,5.4-4.1,11.2-5.2,17.2c4.4,3.3,11,6.5,19.3,9.3c1.1-5.8,2.6-11.7,4.3-17.6
		C22.7,51.6,16.5,48.6,12.4,45.5z"/>
	<path class="st6" d="M6.3,62c1.2-6,3-11.9,5.5-17.6l0.3-0.6l0.5,0.4c3.9,3.1,10.3,6.3,18.5,9.1c0,0,0,0,0,0c0-0.1,0.1-0.2,0.1-0.3
		c-8.3-2.9-14.8-6.1-18.7-9.2c-0.1-0.1-0.2-0.2-0.3-0.3c0,0-0.1-0.1-0.1-0.1C9.4,49.5,7.5,55.7,6.3,62C6.3,62,6.3,62,6.3,62z"/>
	<path class="st5" d="M29.2,73c9.1,2.9,18.7,5,28,6.3v0l0.1,0c0.1-0.9,0.3-1.7,0.4-2.6c0.1-0.5,0.2-1.1,0.3-1.6c0-0.1,0-0.1,0-0.2
		c0.7-4.2,1.4-8.7,2.1-13.2c0-0.1,0-0.3,0.1-0.4c-9.5-1.4-18.7-3.5-26.8-6.1C31.8,60.7,30.4,66.7,29.2,73z"/>
	<path class="st6" d="M27.4,72.4l0.8,0.3c1.2-6.3,2.7-12.4,4.4-18.3l0.1-0.5l0.5,0.2c8.3,2.7,17.7,4.8,27.1,6.2c0-0.1,0-0.2,0.1-0.3
		c-9.4-1.4-18.8-3.5-27.1-6.2c-0.3-0.1-0.6-0.2-0.9-0.3c-0.1,0-0.2-0.1-0.3-0.1C30.2,59.7,28.6,66.1,27.4,72.4z"/>
	<path class="st2" d="M77.1,62.9c-4.9-0.2-9.5-0.6-13.9-1.2c-0.8,5.9-1.8,12-2.8,18.1c4.4,0.6,9.3,1,14.4,1.2
		c4.5,0.2,8.8,0.1,12.9-0.2v0h0.1c0-0.2,0.1-0.5,0.1-0.7c0.2-1,0.3-1.9,0.4-2.9c0-0.2,0.1-0.5,0.1-0.7c0.6-4.5,0.8-9.1,0.9-13.7
		C85.5,63,81.4,63.1,77.1,62.9z"/>
	<path class="st6" d="M62.9,60.3c-0.4-0.1-0.7-0.1-1-0.2c-0.2,0-0.3-0.1-0.5-0.1c-1,6.8-2.1,13.3-3.1,19.4l1.1,0.2
		c1.1-6.3,2-12.5,2.9-18.6l0.1-0.5l0.5,0.1c4.5,0.7,9.1,1.1,14.2,1.3c4.3,0.2,8.4,0.1,12.2-0.2c0-0.1,0-0.2,0-0.3
		c-3.8,0.3-7.9,0.3-12.1,0.2C72.1,61.4,67.1,60.8,62.9,60.3z"/>
	<path class="st5" d="M90.4,80.6c6.8-0.8,11.6-2.4,13.9-4.6c0.7-4.3,1.1-8.7,1-13.4c0-1.4-0.1-2.7-0.2-4.1c-2.6,2-7.3,3.4-13.3,4
		C91.9,68.7,91.4,74.8,90.4,80.6z"/>
	<path class="st6" d="M105.1,57.1c-2.7,2-7.5,3.5-13.7,4.1c-0.3,0-0.5,0-0.8,0c-0.1,0-0.2,0-0.3,0c0.1,6.6-0.4,13.1-1.5,19.5l0,0v0
		c0.1,0,0.1,0,0.2,0c0.1,0,0.3,0,0.4,0c1-6,1.5-12.3,1.5-18.7v-0.4v-0.1l0.5,0c6.7-0.7,11.4-2.1,13.8-4.2
		C105.1,57.2,105.1,57.2,105.1,57.1z"/>
	<path class="st5" d="M106.8,59.3c0,0.5,0,0.9,0.1,1.4c0,0.3,0,0.5,0,0.8c0-1.5,0-3.1-0.1-4.6c0,0.1-0.1,0.1-0.1,0.2
		C106.7,57.8,106.7,58.6,106.8,59.3z"/>
	<path class="st5" d="M3.9,80.7C3.7,75,4,69.3,4.9,63.9c0,0,0-0.1,0-0.1c-1.8-1.7-2.7-3-3.2-4c-0.3,2.3-0.5,4.8-0.6,6.6
		c0,3,0,7.1,0.2,10l0,0C1.4,77.7,2.3,79.2,3.9,80.7z"/>
	<path class="st5" d="M6.8,65.2c-0.9,5.7-1.2,11.5-1,17.2C9.7,85.5,16,88.6,24,91.4c0.2-5.3,0.9-11,1.9-17
		C17.8,71.6,11.2,68.4,6.8,65.2z"/>
	<path class="st6" d="M5.6,66.5c0.1-0.8,0.2-1.5,0.4-2.2L6,63.4l0.7,0.5c4.3,3.3,11,6.6,19.4,9.5c0-0.1,0-0.2,0-0.4
		c-8.6-2.9-15.5-6.3-19.9-9.7c-0.1,0-0.1-0.1-0.2-0.2C5.9,64.2,5.7,65.3,5.6,66.5z"/>
	<path class="st5" d="M26.8,92.3c8.3,2.6,17.5,4.7,26.8,6.1c0.9-4.3,1.8-9,2.8-14.1c0.1-0.6,0.2-1.1,0.3-1.7c0-0.1,0.1-0.3,0.1-0.4
		c0-0.2,0.1-0.4,0.1-0.5c-0.4-0.1-0.9-0.1-1.3-0.2c-5.5-0.8-11.1-1.9-16.6-3.3c-3.5-0.9-6.9-1.8-10.2-2.8
		C27.8,81.4,27.1,87.1,26.8,92.3z"/>
	<path class="st6" d="M25,91.7c0.1,0,0.3,0.1,0.4,0.1c0,0,0.1,0,0.1,0c0.1,0,0.1,0,0.2,0.1c0.3-5.4,1-11.3,2.1-17.4l0.1-0.6l0.5,0.2
		c8.7,2.8,18.6,5,28.5,6.5c0,0,0,0,0,0c0-0.1,0-0.3,0-0.4c-9.5-1.3-19.4-3.6-28.7-6.5l-1.2-0.4c0,0,0,0.1,0,0.1
		C25.9,80,25.2,86.1,25,91.7z"/>
	<path class="st5" d="M87.3,83.3c-4,0.3-8.4,0.3-12.9,0.2c-5.2-0.2-10.4-0.8-14.5-1.2c-0.6,3.2-1.2,6.2-1.8,9.1
		c-0.5,2.6-1.1,5.1-1.6,7.5c4.4,0.5,8,0.9,11.3,1.1c0.8,0,1.6,0.1,2.4,0.1c1.1,0,2.2,0.1,3.3,0.1c0.3,0,0.6,0,0.9,0
		c0.7,0,1.5,0,2.2,0c0.8,0,1.6,0,2.4-0.1c0.2,0,0.4,0,0.6,0c0.7,0,1.3-0.1,2-0.1c0.3,0,0.6,0,1-0.1C84.7,94.8,86.2,89.2,87.3,83.3z"
		/>
	<path class="st6" d="M59,81.6l0.1-0.5l0.5,0.1c4.2,0.5,9.6,1.1,15,1.3c4.5,0.2,9,0.1,13-0.2c0-0.1,0-0.2,0.1-0.3c0,0,0-0.1,0-0.2
		c-4.1,0.3-8.4,0.3-12.8,0.2c-5.4-0.2-10.4-0.7-15-1.3l-1.6-0.2c0,0.1,0,0.1,0,0.2c-1.2,6.5-2.3,12.5-3.5,17.9l0.4,0.1
		c0.2,0,0.4,0.1,0.6,0.1C56.8,93.5,58,87.6,59,81.6z"/>
	<path class="st5" d="M90,83.2c-1.1,5.8-2.7,11.4-4.6,16.5c6.3-0.7,11-2.3,13.1-4.5c0,0,0,0,0,0c0.3-0.6,0.6-1.3,0.8-1.9
		c0.1-0.1,0.1-0.2,0.1-0.4c0.2-0.6,0.5-1.2,0.7-1.8c0.1-0.1,0.1-0.3,0.2-0.4c0.2-0.6,0.4-1.2,0.7-1.8c0-0.1,0.1-0.2,0.1-0.3
		c0.2-0.7,0.4-1.3,0.7-2c0,0,0-0.1,0-0.1c0.8-2.5,1.4-4.9,1.9-7.4C101.1,81.1,96.3,82.4,90,83.2z"/>
	<path class="st6" d="M89,81.7c-0.1,0-0.3,0-0.4,0c0,0,0,0,0,0c0,0.1,0,0.2,0,0.3c-1.1,6.3-2.7,12.2-4.8,17.7c0.1,0,0.3,0,0.4,0
		c2.1-5.3,3.7-11.1,4.9-17.2l0.1-0.4l0.4,0c6.9-0.7,11.8-2.2,14.3-4.3c-2.8,1.9-7.6,3.3-14,3.9C89.6,81.7,89.3,81.7,89,81.7z"/>
	<path class="st5" d="M6.8,97.6l0.1,0.1c0,0,0,0,0,0c-0.1-0.2-0.1-0.4-0.2-0.5c-0.1-0.2-0.1-0.5-0.2-0.7c-0.2-0.7-0.4-1.4-0.6-2.1
		c0,0,0-0.1,0-0.1c0-0.1,0-0.1,0-0.2c0,0,0-0.1,0-0.1c0-0.1,0-0.2-0.1-0.2c0-0.2-0.1-0.4-0.1-0.6c-0.1-0.5-0.3-1.1-0.4-1.7
		c-0.6-2.6-0.9-5.3-1.2-8c-0.9-0.8-1.6-1.6-2.2-2.4c0.3,1.7,0.6,3.5,0.9,5L3,87.1c0.1,0.3,0.2,0.6,0.2,0.9L4,90.9
		c0.3,1,0.8,2.3,1.5,4.4c0.1,0.3,0.2,0.6,0.4,0.9C6.1,96.7,6.4,97.1,6.8,97.6L6.8,97.6z"/>
	<path class="st3" d="M4.3,91.8c0.4,1.2,0.8,2.5,1.2,3.5c-0.7-2.1-1.2-3.4-1.5-4.4L4.3,91.8z"/>
	<path class="st5" d="M7.7,94.8c0.1,0.3,0.2,0.6,0.3,0.9C8,96,8.1,96.3,8.1,96.6c0.1,0.3,0.2,0.6,0.3,0.9c0.1,0.3,0.2,0.6,0.3,0.8
		c0.1,0.3,0.2,0.6,0.3,0.8c0.1,0.3,0.2,0.5,0.3,0.8c1.6,1.2,3.6,2.4,5.9,3.6c0.2,0.1,0.4,0.2,0.5,0.3c0.4,0.2,0.8,0.4,1.2,0.5
		c0.3,0.1,0.6,0.3,0.9,0.4c0.3,0.2,0.7,0.3,1.1,0.5c0.4,0.2,0.8,0.3,1.2,0.5c0.3,0.1,0.7,0.3,1.1,0.4c0.4,0.2,0.9,0.3,1.4,0.5
		c0.4,0.1,0.8,0.3,1.2,0.4c0.3,0.1,0.6,0.2,0.9,0.3c-0.5-4-0.7-8.5-0.6-13.8c-7.5-2.5-13.8-5.5-18-8.6c0,0.3,0.1,0.7,0.1,1
		c0,0.3,0.1,0.7,0.1,1c0,0.3,0.1,0.6,0.1,1c0,0.3,0.1,0.7,0.1,1c0.1,0.3,0.1,0.7,0.2,1c0.1,0.3,0.1,0.6,0.2,0.9
		c0.1,0.3,0.1,0.7,0.2,1c0.1,0.3,0.1,0.6,0.2,0.9c0.1,0.3,0.2,0.6,0.2,1C7.5,94.2,7.6,94.5,7.7,94.8z"/>
	<path class="st6" d="M24,92.6c0,0,0-0.1,0-0.1c-6.7-2.3-12.3-4.9-16.3-7.5C11.7,87.7,17.4,90.3,24,92.6z"/>
	<path class="st5" d="M52.3,100.4c-7.8-1.2-15.4-2.9-22.5-5c-1-0.3-2.1-0.6-3.1-0.9c0,1.2-0.1,2.5-0.1,3.7c0,0.4,0,0.8,0,1.2
		c0,0.8,0,1.6,0,2.3c0,0.5,0.1,0.9,0.1,1.4c0,0.7,0.1,1.4,0.1,2c0,0.5,0.1,1,0.1,1.5c0,0.6,0.1,1.1,0.2,1.7
		c6.8,2.2,14.9,4.1,22.9,5.2c0.8-3.2,1.6-6.6,2.5-10.2c0.1-0.4,0.2-0.8,0.3-1.2c0-0.2,0.1-0.4,0.1-0.6c0.1-0.3,0.1-0.6,0.2-1
		C52.8,100.5,52.6,100.4,52.3,100.4z"/>
	<path class="st6" d="M25.6,107.8c0.2,0.1,0.3,0.1,0.5,0.2c-0.5-4.4-0.6-9.2-0.4-14.2l0-0.7l0.6,0.2c8.3,2.7,17.6,4.8,27,6.2
		c0,0,0-0.1,0-0.1C43.7,98,34.3,95.8,26,93.2c-0.3-0.1-0.6-0.2-0.9-0.3c-0.1,0-0.1-0.1-0.2-0.1C24.8,98.6,25,103.5,25.6,107.8z"/>
	<path class="st5" d="M69.9,102.3c-4.9-0.2-9.7-0.7-13.8-1.2c-1.2,5-2.3,9.2-3.3,12.8c4.3,0.5,8.1,0.9,11.5,1
		c3.8,0.2,7.4,0.1,10.7-0.2c2.5-3.6,4.8-7.8,6.8-12.6C78,102.4,74.1,102.5,69.9,102.3z"/>
	<path class="st6" d="M55.9,99.8c-0.4-0.1-0.7-0.1-1-0.2l-0.5-0.1c-1.1,5.1-2.3,9.8-3.4,14.1c0.2,0,0.5,0.1,0.7,0.1
		c1.1-3.7,2.2-8.1,3.5-13.4l0.1-0.5l0.5,0.1c4.4,0.6,9.2,1.1,14.1,1.3c4.4,0.2,8.5,0.1,12.3-0.2c0,0,0,0,0-0.1
		c-3.7,0.3-7.8,0.3-12,0.1C66.2,100.9,61.7,100.5,55.9,99.8z"/>
	<path class="st5" d="M77.7,114.6c5-0.7,8.5-1.9,10.4-3.4c0,0,0.1-0.1,0.1-0.1l0.1-0.1l0.1-0.1c3.3-3.8,6.1-7.9,8.4-12.2
		c-2.7,1.6-6.9,2.7-12.2,3.3C82.4,106.9,80.1,111.1,77.7,114.6z"/>
	<path class="st6" d="M83.9,100.7c-0.2,0-0.3,0-0.5,0c-2.1,5.3-4.4,9.9-7.1,13.8c0,0,0,0,0,0c2.7-3.6,5.1-8.1,7.4-13.5L83.9,100.7
		l0.3,0.1c2.1-0.2,4-0.5,5.7-0.9c-1.6,0.3-3.3,0.6-5.2,0.8C84.4,100.7,84.1,100.7,83.9,100.7z"/>
	<path class="st5" d="M8,100.9C8,100.9,8,100.9,8,100.9C8,100.9,8,100.9,8,100.9C8,100.9,8,100.9,8,100.9z"/>
	<path class="st3" d="M10.4,105.5l0.2,0.3c1.2,2.3,3.3,5,4.8,6.7c1.1,1.3,2.7,3,4.1,4.4c0.6,0.6,1.3,1.2,2,1.8l0.7,0.6l0.2,0.2
		c0.4,0.3,0.8,0.7,1.3,1c-0.2-0.2-0.4-0.3-0.7-0.5c-0.9-0.8-1.8-1.5-2.6-2.2c2.3,1.2,5.1,2.4,8.3,3.5c0.8,1.4,1.6,2.7,2.5,3.7
		c0.6,0.3,1.3,0.6,2.1,1c0.4,0.2,0.8,0.4,1.1,0.5c0.1,0,0.3,0.1,0.4,0.1l0.1,0c0,0,0.1,0,0.1,0c0.1,0,0.2,0.1,0.4,0.1
		c1.5,0.4,3,0.9,4.5,1.2c-1.5-0.4-3-0.8-4.5-1.2c-1.6-1-3-2.6-4.2-4.7c4.4,1.4,9.7,2.6,15.2,3.4c0,0,0,0,0,0.1
		c-0.8,2-1.4,2.9-1.8,3.3c0,0,0,0,0,0c0.1,0,0.2,0,0.2,0l0.9,0.1c0.3,0,0.6,0.1,0.9,0.1c0.7-0.8,1.4-1.9,2-3.4
		c2.3,0.3,4.5,0.5,6.6,0.7c0.1,0,0.2,0,0.3,0c0.5,0,1.1,0.1,1.6,0.1c1.2,0,2.2,0.1,3.2,0.1c1,0,1.9,0,2.7,0
		c-1.7,0.9-3.4,1.6-5.1,2.2c-0.9,0.3-1.9,0.5-2.8,0.6c2.4-0.2,4-0.6,4.1-0.6c2.2-0.5,2.2-0.5,5-1.3c0.1-0.1,0.2-0.1,0.3-0.2
		c0.5-0.3,1-0.6,1.6-0.9c0.5-0.1,1-0.1,1.5-0.2c0.6-0.3,1.3-0.6,1.9-0.9c0.8-0.3,1.5-0.7,2.2-1c1-0.5,2.4-1.3,3.4-1.9
		c3.9-2.4,6.6-4.7,7.3-5.3c0.9-0.7,1.9-1.6,2.8-2.4c0.3-0.3,0.7-0.6,1-0.9c0.8-0.7,1.7-1.8,2.5-2.7l0.5-0.6c2.3-2.8,4.2-5.3,5.8-7.8
		c2.6-4,4.2-7.5,4.8-8.8c1.6-3.3,2.9-6.7,3.6-9.2l0.1-0.3c0.8-2.9,1.8-6.9,2.4-9.9c0.8-4,1-7.5,1.2-10.7c0.3-6.9-0.3-13.7-1.9-20.4
		c-1.5-6.4-4.1-12.7-7.1-18c-0.9-1.4-2.1-3.2-3-4.5c-0.6-0.9-1.6-2.2-2.5-3.2c-1.1-1.3-2.7-2.9-3.9-4.1c-0.6-0.6-1.3-1.2-2-1.8
		L86,11.3c-0.7-0.5-1.3-1-1.8-1.4c-5.6-4-12-6.3-19-6.6l0-1c1.8,0.1,3.5,0.3,5.2,0.6c-1.5-0.4-2.7-0.7-3.9-1c-0.3,0.1-0.7,0.1-1,0.2
		c0-0.1-0.1-0.3-0.1-0.4c-1.1-0.2-2-0.3-2.6-0.4c-0.5-0.1-2-0.2-4.4-0.3C57.4,1,56,1,55,1.1c-2,0.2-3.3,0.4-4.8,0.6l-1.1,0.2
		c-0.9,0.1-2,0.4-2.9,0.7c-0.4,0.1-0.8,0.2-1.2,0.3c-1.2,0.3-2.6,0.8-3.8,1.3l-0.5,0.2c-0.5,0.2-1,0.4-1.6,0.7
		c-0.6,0.3-1.1,0.5-1.6,0.7c-0.9,0.4-2,1-3,1.5c-0.5,0.3-0.9,0.5-1.3,0.7c-1,0.6-2.4,1.5-3.4,2.2c-1.2,0.9-2.8,2.1-3.9,3
		c-0.5,0.4-1.1,1-1.6,1.5c-0.6,0.5-1.2,1.1-1.7,1.5c-0.7,0.7-1.3,1.3-2,2c3.2-3.3,6.7-6.2,10.3-8.5c0,0.1,0,0.2,0,0.4
		c0,1,0.4,2.2,1.9,3.7c-4,3.3-7.8,7.1-11.2,11.4c-1.4-1.3-2.3-2.5-2.5-3.6c0,0,0-0.1,0-0.1c0-0.1,0-0.3,0-0.4c0-0.6,0.2-1.2,0.6-1.8
		c-0.8,0.9-1.7,1.9-2.5,2.9c0,0.3,0.1,0.6,0.2,1c0.4,1.3,1.3,2.6,2.8,3.9c-3.4,4.6-6.4,9.5-8.7,14.8c-0.1-0.1-0.2-0.1-0.2-0.2
		c-0.2-0.1-0.3-0.3-0.4-0.4c-0.2-0.2-0.3-0.3-0.5-0.5c-0.1-0.1-0.2-0.3-0.4-0.4c-0.1-0.2-0.3-0.3-0.4-0.5c-0.1-0.1-0.2-0.3-0.3-0.4
		c-0.1-0.2-0.2-0.3-0.3-0.5c-0.1-0.1-0.1-0.2-0.2-0.4c-0.1-0.2-0.1-0.4-0.2-0.5c0-0.1-0.1-0.2-0.1-0.3c0-0.2-0.1-0.4-0.1-0.6
		c0-0.1,0-0.2,0-0.3c0-0.2,0-0.4,0.1-0.6c0-0.1,0-0.1,0-0.2c0.1-0.3,0.2-0.5,0.3-0.8c0.7-1.4,1.7-3.2,2.7-4.8
		c-0.2,0.4-0.5,0.8-0.7,1.2c-0.6,1.1-2.6,4.3-4.5,9.2c-1.5,3.6-1.5,3.6-3.3,10.2c-1,3.3-1.6,7.5-1.9,10.2c-0.2,1.2-0.3,2.8-0.3,4.3
		L1,66.3c-0.1,1.7-0.1,3.9-0.1,5.5c0,1.1,0.1,2.4,0.2,3.6c0,0.5,0.1,0.9,0.1,1.3c0.1,0.8,0.2,1.7,0.3,2.6c0.1,0.9,0.3,1.9,0.4,2.7
		c0.3,1.7,0.7,3.7,1.1,5.1L3.2,88c-0.1-0.3-0.1-0.6-0.2-0.9l-0.2-0.9c-0.3-1.6-0.6-3.3-0.9-5c0.6,0.8,1.3,1.6,2.2,2.4
		c0.2,2.7,0.6,5.3,1.2,8c0.1,0.6,0.2,1.1,0.4,1.7c0,0.2,0.1,0.4,0.1,0.6c0,0.1,0,0.2,0.1,0.2c0,0,0,0.1,0,0.1c0,0.1,0,0.1,0,0.2
		c0,0,0,0.1,0,0.1c0.2,0.7,0.4,1.4,0.6,2.1c0.1,0.2,0.1,0.5,0.2,0.7c0.1,0.2,0.1,0.4,0.2,0.5c0,0,0,0,0,0l-0.1-0.1l0,0
		c-0.4-0.5-0.7-0.9-0.9-1.4c0.1,0.2,0.1,0.3,0.2,0.5C7.8,101,9.3,103.7,10.4,105.5z M8.5,39.6c0.6,1,1.5,2.1,2.7,3.2
		c0,0.1-0.1,0.2-0.1,0.3C9.8,41.8,8.9,40.7,8.5,39.6z M18.5,22.3c0.3,1.1,1.2,2.3,2.7,3.7c-0.1,0.1-0.1,0.1-0.2,0.2
		C19.5,24.8,18.7,23.5,18.5,22.3z M46.7,126.8c0.2-0.5,0.5-1.1,0.8-1.8c0.1,0,0.1,0,0.2,0C47.4,125.7,47,126.3,46.7,126.8z
		 M93.6,21.1c-0.1,0.2-0.1,0.3-0.2,0.5c0,0,0-0.1-0.1-0.1l0,0C93.4,21.4,93.5,21.3,93.6,21.1z M88.4,110.8l-0.1,0.1l-0.1,0.1
		c0,0-0.1,0.1-0.1,0.1c-1.9,1.6-5.5,2.8-10.4,3.4c2.5-3.5,4.7-7.7,6.9-12.7c5.3-0.5,9.5-1.7,12.2-3.3
		C94.5,102.9,91.7,107,88.4,110.8z M32.1,9.9c0.1,0.9,0.6,1.9,1.8,3.2c0,0-0.1,0.1-0.1,0.1C32.9,12.2,32,11.1,32.1,9.9z M101.8,86.6
		c-0.2,0.7-0.4,1.3-0.7,2c0,0.1-0.1,0.2-0.1,0.3c-0.2,0.6-0.4,1.2-0.7,1.8c-0.1,0.1-0.1,0.3-0.2,0.4c-0.2,0.6-0.5,1.2-0.7,1.8
		c0,0.1-0.1,0.2-0.1,0.4c-0.3,0.6-0.5,1.3-0.8,1.9c0,0,0,0,0,0c-2.2,2.2-6.9,3.8-13.1,4.5c2-5.1,3.5-10.6,4.6-16.5
		c6.3-0.7,11-2.1,13.8-4c-0.5,2.5-1.2,5-1.9,7.4C101.8,86.6,101.8,86.6,101.8,86.6z M15.2,111.6c-0.3-0.4-0.5-0.8-0.8-1.1
		c-0.1-0.2-0.3-0.5-0.4-0.7c-1.4-2.2-2.6-4.6-3.7-7.2c0.2,0.2,0.5,0.3,0.7,0.5c0.2,0.1,0.5,0.3,0.7,0.4c0.3,0.2,0.5,0.3,0.8,0.5
		c0.3,0.1,0.5,0.3,0.8,0.4c0.3,0.2,0.6,0.3,0.9,0.5c0.3,0.1,0.5,0.3,0.8,0.4s0.6,0.3,0.9,0.4c0.3,0.2,0.6,0.3,0.9,0.5
		c0.3,0.1,0.6,0.3,0.9,0.4c0.3,0.2,0.7,0.3,1,0.5c0.3,0.1,0.6,0.3,0.9,0.4c0.4,0.1,0.7,0.3,1.1,0.4c0.3,0.1,0.6,0.2,1,0.4
		c0.4,0.1,0.8,0.3,1.2,0.4c0.3,0.1,0.7,0.2,1,0.3c0.4,0.1,0.7,0.3,1.1,0.4c0.1,0.4,0.1,0.8,0.2,1.2c0,0,0,0.1,0,0.1
		c0.1,0.5,0.2,1,0.3,1.5c0,0.1,0.1,0.2,0.1,0.3c0.1,0.4,0.2,0.7,0.3,1.1c0,0.2,0.1,0.3,0.1,0.5c0.1,0.3,0.2,0.6,0.2,0.9
		c0,0.2,0.1,0.3,0.1,0.5c0.1,0.3,0.2,0.6,0.3,0.8c0.1,0.2,0.1,0.3,0.2,0.5c0.1,0.3,0.2,0.5,0.3,0.8c0.1,0.1,0.1,0.3,0.2,0.4
		c0.1,0.3,0.2,0.6,0.4,0.9c0,0.1,0.1,0.2,0.1,0.3c0,0,0,0,0,0c-4.6-1.6-8.4-3.5-10.8-5.4c0,0,0,0,0,0
		C16.3,113.1,15.7,112.4,15.2,111.6z M6.3,62c1.2-6.3,3.1-12.5,5.8-18.5c0,0,0.1,0.1,0.1,0.1c0.1,0.1,0.2,0.2,0.3,0.3
		c4,3.1,10.5,6.3,18.7,9.2c0,0.1-0.1,0.2-0.1,0.3c0,0,0,0,0,0c-8.3-2.9-14.7-6-18.5-9.1L12,43.8l-0.3,0.6C9.3,50.1,7.4,56,6.3,62
		C6.3,62,6.3,62,6.3,62z M21.9,26.7c0.1,0,0.1,0.1,0.2,0.1c0,0,0.1,0.1,0.2,0.1c3.4,2.7,8.9,5.4,15.9,7.8c0,0,0,0,0,0
		c0,0,0,0.1,0,0.1c-7.2-2.5-12.5-5.1-15.8-7.8l-0.4-0.3l-0.3,0.4c-3.4,4.7-6.4,9.8-9,15.3c0,0,0,0,0,0l0,0l-0.1-0.1
		C15,36.9,18.1,31.6,21.9,26.7z M101.8,37.6C101.8,37.6,101.8,37.6,101.8,37.6l0.1-0.1C101.8,37.6,101.8,37.6,101.8,37.6z
		 M64.7,124.9c-0.2,0-0.4,0-0.6,0c-0.1,0-0.2,0-0.2,0c-0.2,0-0.5,0-0.7,0c-0.1,0-0.1,0-0.2,0c-0.3,0-0.5,0-0.8,0c0,0-0.1,0-0.1,0
		c-0.3,0-0.5,0-0.8,0c-0.1,0-0.1,0-0.2,0c-0.3,0-0.5,0-0.8,0c-0.1,0-0.2,0-0.3,0c-0.2,0-0.4,0-0.6,0c-0.6,0-1.1,0-1.7,0
		c-0.6,0-1.3-0.1-2-0.1c-0.3,0-0.5,0-0.8-0.1c-0.4,0-0.9-0.1-1.3-0.1c-0.3,0-0.7-0.1-1-0.1c-0.4,0-0.8-0.1-1.2-0.1
		c-0.4,0-0.8-0.1-1.2-0.1c-0.3,0-0.5-0.1-0.8-0.1c0.9-2.1,1.8-4.7,3-8.4c3.3,0.5,6.9,0.8,11.6,1c3,0.1,6.5,0.1,9.7-0.1
		c-1.8,2.4-3.8,4.6-6,6.4c0,0,0,0,0,0c-0.7,0.6-1.4,1.1-2.1,1.7c0,0-0.1,0.1-0.1,0.1c-0.1,0-0.2,0-0.3,0
		C65,124.8,64.8,124.9,64.7,124.9z M48.3,4.3C48.1,4,48,3.8,47.9,3.5c0-0.1,0-0.2,0-0.3C47.9,3.5,48,3.9,48.3,4.3z M89.5,82.1
		l-0.4,0l-0.1,0.4c-1.1,6.1-2.8,11.9-4.9,17.2c-0.1,0-0.3,0-0.4,0c2-5.4,3.6-11.3,4.8-17.7c0-0.1,0-0.2,0-0.3c0,0,0,0,0,0
		c0.1,0,0.3,0,0.4,0c0.3,0,0.5,0,0.8-0.1c6.4-0.7,11.1-2,14-3.9C101.3,79.9,96.4,81.4,89.5,82.1z M47.9,124c0.9-2.6,1.9-5.8,2.9-9.3
		c0.2,0,0.5,0.1,0.7,0.1l-0.1,0.3c-1.3,4.1-2.2,6.9-3.2,9C48.1,124,48,124,47.9,124z M7.1,92.1c-0.1-0.3-0.1-0.7-0.2-1
		c-0.1-0.3-0.1-0.6-0.2-0.9c-0.1-0.3-0.1-0.7-0.2-1c-0.1-0.3-0.1-0.7-0.1-1c0-0.3-0.1-0.6-0.1-1c0-0.3-0.1-0.7-0.1-1
		c0-0.3-0.1-0.7-0.1-1c4.2,3,10.5,6,18,8.6c-0.1,5.2,0.1,9.8,0.6,13.8c-0.3-0.1-0.6-0.2-0.9-0.3c-0.4-0.1-0.8-0.3-1.2-0.4
		c-0.5-0.2-0.9-0.3-1.4-0.5c-0.4-0.1-0.7-0.3-1.1-0.4c-0.4-0.2-0.8-0.3-1.2-0.5c-0.4-0.2-0.7-0.3-1.1-0.5c-0.3-0.1-0.6-0.3-0.9-0.4
		c-0.4-0.2-0.8-0.4-1.2-0.5c-0.2-0.1-0.4-0.2-0.5-0.3c-2.4-1.2-4.3-2.4-5.9-3.6C9.1,99.6,9,99.4,9,99.1c-0.1-0.3-0.2-0.6-0.3-0.8
		c-0.1-0.3-0.2-0.6-0.3-0.8c-0.1-0.3-0.2-0.6-0.3-0.9C8.1,96.3,8,96,7.9,95.7c-0.1-0.3-0.2-0.6-0.3-0.9c-0.1-0.3-0.1-0.6-0.2-0.9
		c-0.1-0.3-0.2-0.6-0.2-1C7.2,92.6,7.1,92.3,7.1,92.1z M26.1,28.4c-1-0.6-2-1.3-2.8-1.9c3.3-4.3,7.1-8.2,11.2-11.5
		c2.7,2,6.6,3.9,11.3,5.5c-0.5,0.7-0.9,1.5-1.4,2.3c-2,3.3-4,7.1-5.8,11.1c0,0,0,0,0,0c-0.8-0.3-1.6-0.6-2.4-0.8
		C32.2,31.5,28.8,30,26.1,28.4z M82.3,101C82.3,101,82.3,101,82.3,101c-3.9,0.4-8,0.4-12.4,0.2c-5-0.2-9.7-0.7-14.1-1.3l-0.5-0.1
		l-0.1,0.5c-1.2,5.4-2.4,9.8-3.5,13.4c-0.2,0-0.5-0.1-0.7-0.1c1.1-4.3,2.2-9,3.4-14.1l0.5,0.1c0.3,0.1,0.7,0.1,1,0.2
		c5.8,0.7,10.2,1.1,14.3,1.3C74.5,101.3,78.5,101.2,82.3,101z M32.1,53.2c0.1,0,0.2,0.1,0.3,0.1c0.3,0.1,0.6,0.2,0.9,0.3
		c8.3,2.7,17.6,4.9,27.1,6.2c0,0.1,0,0.2-0.1,0.3c-9.4-1.4-18.8-3.5-27.1-6.2l-0.5-0.2l-0.1,0.5c-1.7,5.9-3.2,12-4.4,18.3l-0.8-0.3
		C28.6,66.1,30.2,59.7,32.1,53.2z M15.3,44.6c-0.2-0.1-0.4-0.2-0.6-0.4c-0.5-0.3-0.9-0.6-1.3-0.9c0,0-0.1-0.1-0.1-0.1
		c2.4-5.3,5.4-10.3,8.7-14.9c3.3,2.6,8.5,5.1,15.3,7.5c0.1,0,0.2,0.1,0.3,0.1c-0.3,0.8-0.7,1.5-1,2.3c-0.2,0.5-0.4,0.9-0.6,1.4
		c-0.5,1.2-1,2.4-1.4,3.6c-0.1,0.2-0.1,0.4-0.2,0.5c-0.5,1.4-1,2.8-1.5,4.2c-0.2,0.5-0.3,0.9-0.5,1.4c-0.3,0.9-0.6,1.8-0.9,2.6l0,0
		l0,0.1c-6.3-2.2-11.6-4.6-15.4-7C15.8,44.9,15.5,44.8,15.3,44.6z M34.7,13.9l-0.1-0.1c0,0,0,0,0.1-0.1c0.1,0.1,0.2,0.2,0.3,0.2
		c2.4,1.9,6.2,3.8,11.4,5.5c0,0,0,0.1-0.1,0.1C41.4,17.9,37.3,15.9,34.7,13.9z M49.1,3.7C49.1,3.7,49.1,3.7,49.1,3.7
		c-0.1-0.4-0.1-0.6,0-0.8c3.4-0.5,6.8-0.6,10.2-0.3c-0.1,0-0.2,0-0.3,0c-0.6,0.1-1.2,0.1-1.8,0.2c-0.3,0-0.5,0.1-0.8,0.1
		c-0.5,0.1-1,0.2-1.6,0.3c-0.3,0.1-0.5,0.1-0.8,0.2c-0.5,0.1-0.9,0.2-1.4,0.4c-0.2,0.1-0.5,0.1-0.7,0.2c-0.6,0.2-1.3,0.4-1.9,0.6
		l0,0l-0.2,0.1c0,0-0.1-0.1-0.1-0.1c0,0-0.1-0.1-0.1-0.1C49.3,4.1,49.1,3.9,49.1,3.7z M79.8,100.1c-0.2,0-0.4,0-0.6,0
		c-0.8,0-1.6,0.1-2.4,0.1c-0.7,0-1.4,0-2.2,0c-0.3,0-0.6,0-0.9,0c-1.1,0-2.2,0-3.3-0.1c-0.8,0-1.6-0.1-2.4-0.1
		c-3.3-0.2-6.9-0.6-11.3-1.1c0.5-2.4,1.1-4.9,1.6-7.5c0.6-2.9,1.2-6,1.8-9.1c4.1,0.5,9.3,1,14.5,1.2c4.4,0.2,8.9,0.1,12.9-0.2
		c-1.1,5.9-2.7,11.4-4.6,16.6c-0.3,0-0.6,0-1,0.1C81.1,100,80.4,100.1,79.8,100.1z M91.8,21.5c-1.5,1.1-4.3,1.9-7.6,2.2
		c-2.1-4.5-4.4-8.4-7-11.7c1.8-0.3,3-0.7,3.8-1.2C84.8,13.6,88.5,17.2,91.8,21.5z M84.9,28.2c1.5,4,2.8,8.3,3.8,12.7c0,0,0,0,0,0
		c-0.1,0-0.2,0-0.3,0C87.5,36.4,86.3,32.1,84.9,28.2z M92.7,23.5c0.1-0.1,0.3-0.2,0.4-0.3c0,0,0.1,0,0.1-0.1c0,0,0,0,0.1,0.1
		c0.4,0.6,0.8,1.2,1.2,1.8c0.3,0.4,0.5,0.8,0.8,1.2c0.5,0.9,1.1,1.8,1.6,2.7c0.2,0.3,0.3,0.5,0.5,0.8c0.6,1.2,1.3,2.5,1.8,3.7
		c0.1,0.3,0.2,0.6,0.4,0.9c0.4,0.9,0.8,1.9,1.2,2.9c-1.9,1.7-5.8,2.9-11,3.5c-0.2-0.7-0.3-1.4-0.5-2.1c-0.1-0.6-0.3-1.1-0.4-1.7
		c-0.2-0.8-0.4-1.5-0.7-2.3c-0.2-0.5-0.3-1.1-0.5-1.6c-0.2-0.8-0.5-1.6-0.8-2.3c-0.2-0.5-0.3-1-0.5-1.4c-0.3-0.9-0.7-1.8-1.1-2.7
		c-0.1-0.3-0.2-0.6-0.4-0.9c3.2-0.3,5.8-1.1,7.5-2.1C92.6,23.6,92.7,23.5,92.7,23.5z M91.9,60.1c0-1-0.1-2-0.1-3c0-0.3,0-0.6,0-0.8
		c-0.3-4.4-0.8-8.8-1.6-13.3c5.3-0.7,9.2-1.9,11.3-3.5c1.8,5.3,3,10.8,3.6,16.4C102.7,58,98,59.5,91.9,60.1z M55,98.7l-0.4-0.1
		c1.2-5.4,2.3-11.3,3.5-17.9c0-0.1,0-0.2,0-0.2l1.6,0.2c4.6,0.6,9.7,1.1,15,1.3c4.4,0.2,8.8,0.1,12.8-0.2c0,0.1,0,0.1,0,0.2
		c0,0.1,0,0.2-0.1,0.3c-4,0.3-8.5,0.3-13,0.2c-5.3-0.2-10.8-0.8-15-1.3l-0.5-0.1L59,81.6c-1,5.9-2.2,11.8-3.4,17.1
		C55.4,98.7,55.2,98.7,55,98.7z M27.1,73.5c0,0,0-0.1,0-0.1l1.2,0.4c9.3,3,19.2,5.2,28.7,6.5c0,0.1,0,0.2,0,0.4c0,0,0,0,0,0
		c-10-1.5-19.8-3.7-28.5-6.5L27.9,74l-0.1,0.6c-1,6.1-1.7,11.9-2.1,17.4c-0.1,0-0.1,0-0.2-0.1c0,0-0.1,0-0.1,0
		c-0.1,0-0.3-0.1-0.4-0.1C25.2,86.1,25.9,80,27.1,73.5z M7.2,62.7c1.2-6,2.9-11.8,5.2-17.2c4.1,3.1,10.3,6.1,18.3,8.9
		C29,60.3,27.5,66.2,26.4,72C18.2,69.2,11.6,66,7.2,62.7z M39.2,35.1c0.1,0,0.2,0.1,0.3,0.1c0.2,0.1,0.4,0.1,0.7,0.2
		c6.6,2.2,14.5,4,22.7,5.2c0,0.1,0,0.1,0,0.2c-7.9-1.2-15.8-3-22.9-5.3l-0.4-0.1l-0.2,0.4C36.9,41.5,35,47,33.3,52.6
		c-0.2-0.1-0.3-0.1-0.5-0.2c-0.1,0-0.2-0.1-0.3-0.1C34.4,46.4,36.7,40.5,39.2,35.1z M54.4,9.1c0.1,0,0.1,0.1,0.2,0.1
		c-0.1,0.1-0.2,0.2-0.3,0.3c-0.6,0.5-1.1,1.1-1.6,1.7c-0.1,0.1-0.2,0.2-0.3,0.3c-0.6,0.7-1.2,1.3-1.8,2c-0.1,0.1-0.1,0.2-0.2,0.2
		c-0.6,0.7-1.2,1.5-1.8,2.3c0,0,0,0,0,0.1c-0.6,0.8-1.1,1.6-1.7,2.5c0,0,0,0,0,0.1c-4.8-1.6-8.4-3.3-10.8-5c3.9-3,8.1-5.4,12.6-7.3
		c1.3,0.9,3.1,1.8,5.4,2.6C54.3,9,54.4,9.1,54.4,9.1z M88.3,77.2c-0.1,1-0.3,1.9-0.4,2.9c0,0.2-0.1,0.5-0.1,0.7h-0.1v0
		c-4.1,0.3-8.4,0.3-12.9,0.2c-5.1-0.2-10-0.6-14.4-1.2c1-6.1,2-12.2,2.8-18.1c4.4,0.6,8.9,1,13.9,1.2c4.3,0.2,8.4,0.1,12.2-0.2
		c0,4.6-0.3,9.2-0.9,13.7C88.4,76.7,88.4,77,88.3,77.2z M52.8,102.1c-0.1,0.4-0.2,0.8-0.3,1.2c-0.8,3.6-1.7,7.1-2.5,10.2
		c-7.9-1.2-16-3-22.9-5.2c-0.1-0.5-0.1-1.1-0.2-1.7c0-0.5-0.1-1-0.1-1.5c0-0.7-0.1-1.3-0.1-2c0-0.5-0.1-0.9-0.1-1.4
		c0-0.8,0-1.6,0-2.3c0-0.4,0-0.8,0-1.2c0-1.2,0-2.4,0.1-3.7c1,0.3,2,0.6,3.1,0.9c7.1,2.1,14.8,3.8,22.5,5c0.3,0,0.5,0.1,0.8,0.1
		c-0.1,0.3-0.1,0.7-0.2,1C52.9,101.7,52.8,101.9,52.8,102.1z M47.3,19.9c0,0,0.1,0,0.1,0c0.2,0,0.3,0.1,0.5,0.1
		c4.7,1.6,10.4,2.9,16.5,3.8c0,0,0,0.1,0,0.1c-5.8-0.9-11.8-2.3-16.7-3.9L47.4,20l-0.2,0.3c-2.6,4.4-5.1,9.1-7.2,14
		c-0.1,0-0.1,0-0.2-0.1c-0.1,0-0.2-0.1-0.3-0.1C41.9,29,44.5,24.2,47.3,19.9z M89.3,61.4c0,0.1,0,0.2,0,0.3
		c-3.8,0.3-7.9,0.3-12.2,0.2c-5.1-0.2-9.8-0.6-14.2-1.3l-0.5-0.1L62.3,61c-0.9,6.1-1.8,12.3-2.9,18.6l-1.1-0.2
		c1.1-6.1,2.1-12.7,3.1-19.4c0.2,0,0.3,0.1,0.5,0.1c0.3,0.1,0.7,0.1,1,0.2c4.2,0.5,9.1,1.1,14.2,1.3C81.4,61.8,85.5,61.7,89.3,61.4z
		 M55.6,81.5c0.4,0.1,0.9,0.1,1.3,0.2c0,0.2-0.1,0.4-0.1,0.5c0,0.1-0.1,0.3-0.1,0.4c-0.1,0.5-0.2,1.1-0.3,1.7
		c-1,5.1-1.9,9.8-2.8,14.1c-9.3-1.4-18.5-3.5-26.8-6.1c0.3-5.3,1-11,2-17c3.3,1,6.7,2,10.2,2.8C44.5,79.6,50.1,80.7,55.6,81.5z
		 M38.3,54.1c-0.4-0.1-0.8-0.2-1.2-0.4c-0.5-0.1-1-0.3-1.5-0.5c-0.4-0.1-0.9-0.3-1.3-0.4c1.6-5.4,3.5-10.8,5.8-16.2
		c7,2.2,14.8,4,22.6,5.2c-0.6,4.9-1.3,10.9-2.2,17c-0.2,0-0.5-0.1-0.7-0.1C52.4,57.7,45,56.1,38.3,54.1z M65.9,18.7
		c0,1.4-0.1,2.9-0.1,4.5c0,0,0,0-0.1,0c0,0-0.1,0-0.1,0C65.8,21.6,65.9,20.1,65.9,18.7z M49.8,21.8c0.3,0.1,0.6,0.2,0.9,0.2
		c0.4,0.1,0.8,0.2,1.1,0.3c0.3,0.1,0.6,0.2,0.9,0.2c0.4,0.1,0.7,0.2,1.1,0.3c0.3,0.1,0.7,0.2,1,0.2c0.4,0.1,0.7,0.2,1.1,0.3
		c0.3,0.1,0.7,0.2,1,0.2c0.4,0.1,0.7,0.2,1.1,0.2c0.3,0.1,0.7,0.1,1.1,0.2c0.4,0.1,0.7,0.2,1.1,0.2c0.4,0.1,0.7,0.1,1.1,0.2
		c0.4,0.1,0.8,0.1,1.1,0.2c0.4,0.1,0.7,0.1,1.1,0.2c0.3,0,0.6,0.1,0.8,0.1c-0.4,5.4-0.9,10.1-1.4,14.7c-8-1.2-15.6-2.9-22.1-5
		c2.1-4.7,4.4-9.3,6.9-13.5c0.2,0.1,0.4,0.1,0.7,0.2C48.9,21.5,49.3,21.7,49.8,21.8z M86.7,38.1c0.2,1,0.4,1.9,0.6,2.9
		c-3.3,0.3-6.7,0.3-10.2,0.2c-3.4-0.2-7.2-0.5-11.4-1c0.5-6,0.9-10.7,1-14.7c3.2,0.4,5.9,0.6,8.5,0.7c3.1,0.1,5.6,0.1,7.7-0.1
		c1.4,3.5,2.7,7.3,3.6,11.3C86.6,37.6,86.7,37.8,86.7,38.1z M87.6,42.2c-3.3,0.3-7.1,0.2-10.3,0.1c-4.9-0.2-8.7-0.6-12.2-1.1
		l-0.5-0.1l0,0.5C64,46.8,63.4,52.2,62.6,58l-0.2,1.2c-0.1,0-0.3,0-0.4-0.1c-0.2,0-0.3,0-0.5-0.1l0,0l-0.1,0
		c1-6.7,1.8-13.1,2.4-18.2c0.4,0.1,0.8,0.1,1.2,0.1c4.4,0.5,8.4,0.9,12,1.1c3.6,0.2,7.1,0.1,10.4-0.2C87.5,42,87.5,42.1,87.6,42.2z
		 M89.3,60.4c-0.5,0-0.9,0.1-1.4,0.1c-0.4,0-0.8,0.1-1.2,0.1c-0.7,0-1.5,0.1-2.3,0.1c-0.3,0-0.5,0-0.8,0c-2.1,0-4.2,0-6.4-0.1
		c-0.8,0-1.7-0.1-2.5-0.1c-4-0.3-7.8-0.7-11.2-1.1l0.2-1.2c0.7-5.6,1.4-10.8,1.8-15.8c3.4,0.5,7,0.8,11.6,1c0.1,0,0.2,0,0.2,0
		c3.6,0.2,7.1,0.1,10.3-0.2c1,5.6,1.5,11.4,1.6,17.2h-0.1L89.3,60.4z M56.3,9.7c3.4,1.1,6.1,1.6,8.9,2c0,0,0,0.1,0,0.1
		c0,0.8-0.1,1.5-0.1,2.4c0,0.1,0,0.1,0,0.2c0,0.8-0.1,1.7-0.1,2.6c0,0,0,0,0,0.1c0,0.9-0.1,1.8-0.1,2.7c0,0.1,0,0.2,0,0.2
		c-0.1,0.9-0.1,1.9-0.2,2.9c0,0,0,0,0,0C58.9,22,53.5,20.8,49,19.4C51.4,15.5,53.9,12.3,56.3,9.7z M65.5,24.2
		C65.5,24.2,65.5,24.2,65.5,24.2c0.1,0,0.2,0,0.3,0l0,0.5c-0.2,4.1-0.5,9-1.1,15.2c-0.2,0-0.5-0.1-0.7-0.1C64.5,35,65,30,65.5,24.2z
		 M66.9,18.7c0-0.1,0-0.3,0-0.4c0-0.3,0-0.6,0-1c0-0.4,0-0.9,0-1.3c0,0,0,0,0,0c0-1.4,0-2.8-0.1-4c1.5,0.2,2.9,0.2,4.4,0.3
		c1.5,0,2.9,0,4.2-0.1c0.9,1.1,1.8,2.4,2.6,3.7c0.2,0.3,0.4,0.6,0.5,0.9c0.3,0.5,0.6,1,0.9,1.5c0.4,0.6,0.7,1.3,1.1,2
		c0.1,0.2,0.2,0.4,0.3,0.7c0.4,0.9,0.9,1.8,1.2,2.7c0,0.1,0.1,0.2,0.1,0.3c-1.9,0.1-4.2,0.1-7.1,0c-2.5-0.1-5.1-0.3-8.2-0.7
		C66.9,21.7,66.9,20.2,66.9,18.7z M59.7,3.6c0.8-0.1,1.7-0.2,2.5-0.2c-2,1-4,2.4-6,4.3c-2-0.7-3.7-1.5-4.9-2.2
		C54.1,4.6,56.9,3.9,59.7,3.6C59.6,3.6,59.6,3.6,59.7,3.6z M60.2,61.7c-0.7,4.5-1.4,8.9-2.1,13.2c0,0.1,0,0.1,0,0.2
		c-0.1,0.6-0.2,1.1-0.3,1.6c-0.2,0.9-0.3,1.8-0.4,2.6l-0.1,0v0c-9.3-1.3-18.9-3.5-28-6.3c1.2-6.3,2.6-12.3,4.2-17.8
		c8.1,2.6,17.3,4.7,26.8,6.1C60.2,61.4,60.2,61.6,60.2,61.7z M64.8,10C62.5,9.6,60.1,9,58,8.4c-0.1,0-0.2-0.1-0.3-0.1
		c2.4-2.2,4.8-3.8,6.9-4.7c0.3,1.5,0.4,3.7,0.5,6.4C65,10,64.9,10,64.8,10z M24,91.4c-8-2.8-14.3-5.9-18.3-8.9
		c-0.3-5.8,0.1-11.6,1-17.2c4.4,3.2,11,6.4,19.2,9.2C24.9,80.3,24.3,86,24,91.4z M25,92.8c0.1,0,0.1,0.1,0.2,0.1
		c0.3,0.1,0.6,0.2,0.9,0.3c8.2,2.7,17.7,4.8,27.3,6.3c0,0,0,0.1,0,0.1c-9.4-1.4-18.7-3.5-27-6.2l-0.6-0.2l0,0.7
		c-0.2,5,0,9.8,0.4,14.2c-0.2,0-0.3-0.1-0.5-0.2C25,103.5,24.8,98.6,25,92.8z M25.9,108.9c0.1,0,0.3,0.1,0.4,0.1l0.1,0.6
		c0.4,2.7,0.9,5.2,1.6,7.5C27.1,114.7,26.4,111.9,25.9,108.9z M27.5,110.4c6.5,2.1,14,3.8,22,5c-0.7,2.9-1.5,5.4-2.2,7.5
		c0,0.1-0.1,0.3-0.1,0.4c0,0.1-0.1,0.3-0.1,0.4c0,0.1-0.1,0.2-0.1,0.3l0,0l-0.1,0.1c-5.8-0.9-11.5-2.2-16.7-3.8
		C29,117.5,28.1,114.1,27.5,110.4z M101,38.5c-2,1.7-6,2.9-11.6,3.6l-0.5,0.1l0.1,0.5c1.1,5.9,1.8,11.8,1.9,17.5c-0.1,0-0.3,0-0.4,0
		c0,0-0.1,0-0.1,0c-0.1-6.6-0.7-12.7-1.8-18.3c0,0,0,0,0,0c0.2,0,0.4-0.1,0.7-0.1c5.4-0.5,9.4-1.7,11.7-3.5
		C101,38.5,101,38.5,101,38.5z M64.3,114.9c-3.4-0.2-7.2-0.5-11.5-1c1.1-3.6,2.1-7.8,3.3-12.8c4.1,0.5,8.9,1,13.8,1.2
		c4.2,0.2,8.1,0.1,11.9-0.1c-2,4.8-4.3,9-6.8,12.6C71.7,115,68.1,115.1,64.3,114.9z M105.4,62.6c0,4.6-0.3,9.1-1,13.4
		c-2.3,2.2-7.1,3.8-13.9,4.6c1-5.8,1.5-11.9,1.5-18.1c6-0.6,10.7-2,13.3-4C105.3,59.9,105.4,61.3,105.4,62.6z M91.4,61.5l-0.5,0v0.1
		V62c0,6.4-0.5,12.7-1.5,18.7c-0.1,0-0.3,0-0.4,0c-0.1,0-0.1,0-0.2,0v0l0,0c1.1-6.4,1.6-12.9,1.5-19.5c0.1,0,0.2,0,0.3,0
		c0.2,0,0.5,0,0.8,0c6.2-0.6,11.1-2.1,13.7-4.1c0,0.1,0,0.1,0,0.2C102.8,59.4,98,60.8,91.4,61.5z M92.6,22.4
		c-1.5,1.2-4.5,2.1-8.3,2.4l-0.6,0.1c0,0,0,0,0,0c0.1,0,0.1,0,0.2,0c3.8-0.4,6.9-1.3,8.7-2.6C92.5,22.3,92.6,22.3,92.6,22.4z
		 M70.9,10.6l-0.2,0c-1.3-0.1-2.6-0.2-3.9-0.3c-0.2-2.5-0.5-4.7-0.8-6.3c2.8,1.6,5.4,3.7,8,6.6C73,10.6,72,10.7,70.9,10.6z M24,92.5
		c0,0,0,0.1,0,0.1c-6.6-2.3-12.3-4.9-16.3-7.6C11.7,87.6,17.2,90.1,24,92.5z M6.1,63.1c0.1,0.1,0.2,0.1,0.2,0.2
		c4.4,3.4,11.3,6.8,19.9,9.7c0,0.2-0.1,0.3,0,0.4c-8.4-2.9-15.1-6.2-19.4-9.5L6,63.4l-0.1,0.8c-0.1,0.7-0.2,1.5-0.4,2.2
		C5.7,65.3,5.9,64.2,6.1,63.1z M80.9,9.5c-0.1,0-0.1-0.1-0.2-0.1c0.1-0.2,0.2-0.4,0.2-0.6C81,9.1,80.9,9.3,80.9,9.5z M75.8,10.5
		c-2.1-2.4-4.2-4.3-6.4-5.8c3.4,1.2,6.7,2.8,9.8,4.9C78.5,10,77.3,10.3,75.8,10.5z M84.2,100.8l-0.3,0l-0.1,0.3
		c-2.3,5.5-4.7,9.9-7.4,13.5c0,0,0,0,0,0c2.7-3.9,5.1-8.6,7.1-13.8c0.2,0,0.3,0,0.5,0c0.2,0,0.5,0,0.7,0c1.9-0.2,3.7-0.4,5.2-0.8
		C88.2,100.3,86.3,100.6,84.2,100.8z M46.9,3.2c0,0.1,0,0.2,0,0.2c0,0.1,0,0.1,0,0.2c0,0,0,0,0,0c0,0.1,0,0.1,0,0.2
		c0.1,0.5,0.4,1,0.8,1.5c-0.2,0.1-0.3,0.1-0.5,0.2c-0.3,0.1-0.6,0.2-0.8,0.3c-0.3,0.1-0.6,0.2-0.8,0.4c-0.3,0.1-0.5,0.2-0.8,0.4
		C44.6,6.7,44.3,6.8,44,7c-0.3,0.1-0.5,0.3-0.8,0.4c-0.3,0.1-0.5,0.3-0.8,0.4C42.2,7.9,42.1,8,41.9,8c-0.2,0.1-0.5,0.3-0.7,0.4
		c0,0,0,0-0.1,0c-0.5,0.3-1.1,0.6-1.6,0.9c0,0,0,0,0,0c0,0,0,0,0,0c0,0,0,0-0.1,0c-0.7,0.4-1.5,0.9-2.2,1.4
		c-0.2,0.1-0.3,0.2-0.5,0.3c-0.7,0.4-1.3,0.9-1.9,1.4l-0.1-0.1l0,0c-0.1-0.1-0.3-0.3-0.4-0.4c-0.1-0.1-0.2-0.2-0.3-0.3
		c0-0.1-0.1-0.1-0.1-0.2c-0.5-0.6-0.9-1.3-0.9-2c0-0.1,0-0.2,0-0.2c0,0,0-0.1,0-0.1c0-0.1,0.1-0.3,0.1-0.4c0,0,0,0,0-0.1
		c0.1-0.1,0.2-0.3,0.3-0.4c0,0,0,0,0,0c0.1-0.1,0.3-0.1,0.4-0.2C38,5.8,42.4,4.2,46.9,3.2z M78.9,6.9c0.8,0.7,1,1.2,1,1.6
		c-2.7-1.7-5.4-3.1-8.2-4.2c0.1,0,0.2,0.1,0.3,0.1C74.3,5,76.6,5.8,78.9,6.9L78.9,6.9z M56,1.1c0,0,0.1,0,0.1,0c-0.1,0-0.2,0-0.4,0
		C55.8,1.1,55.9,1.1,56,1.1z M74,122.7c-1.3,0.8-3.1,1.3-5.4,1.7c2.6-2.1,5.2-4.7,7.6-7.9c3.5-0.4,6.4-1,8.5-1.9
		c-0.1,0.1-0.3,0.2-0.4,0.4c-0.6,0.6-1.1,1-1.6,1.4c-0.6,0.5-1.3,1.1-1.9,1.6c0,0-0.1,0.1-0.1,0.1c-1.8,1.4-3.6,2.7-5.5,3.8l0,0
		C74.8,122.2,74.4,122.4,74,122.7z M106.8,61.5c0-0.3,0-0.5,0-0.8c0-0.5,0-0.9-0.1-1.4c0-0.8-0.1-1.5-0.1-2.3
		c0.1-0.1,0.1-0.1,0.1-0.2C106.8,58.4,106.8,60,106.8,61.5z M106.5,52.5L106.5,52.5c0,0.5-0.1,0.9-0.2,1.3
		c-0.7-5.4-1.9-10.7-3.6-15.5c0.2-0.3,0.4-0.5,0.5-0.8c0.6,2,1.3,4.1,1.8,6C105.4,45.8,106,49.2,106.5,52.5z M97.7,25.4
		c2.8,5.2,2.8,5.2,4,8.1c0.1,0.2,0.1,0.4,0.2,0.6c0,0,0,0.1,0,0.1c0.1,0.4,0.1,0.8,0,1.2c0,0,0,0,0,0.1c0,0.1-0.1,0.3-0.1,0.4
		c-2-5-4.5-9.6-7.5-13.8c0.2-0.3,0.4-0.8,0.4-1.2C96.1,22.7,96.8,23.8,97.7,25.4z M88.1,13.4c2,1.9,2.4,2.2,3.7,3.8
		c0.9,1.1,1.3,2.1,0.9,3c-3.2-4.1-6.9-7.6-10.9-10.4c0.2-0.3,0.2-0.7,0.1-1.2c1.6,1,3.1,2.1,4.6,3.3L88.1,13.4z M63.4,1.4
		c0.1,0,0.3,0.1,0.6,0.4c-0.2-0.1-0.4-0.2-0.6-0.2c0,0-0.1,0-0.1,0c-0.1,0-0.3-0.1-0.4-0.1c-0.1,0-0.2-0.1-0.3-0.1
		C62.9,1.3,63.2,1.3,63.4,1.4z M2.4,55.2l0.3-1.3c0.6-2.6,1.4-5.9,2.2-8.4c0.7-1.9,1.6-4.3,2.4-6.3c0.1,0.2,0.1,0.4,0.2,0.7
		c0,0,0,0.1,0.1,0.1c0.1,0.3,0.3,0.6,0.5,1c0,0,0,0,0,0c0.2,0.3,0.4,0.7,0.7,1c0,0,0.1,0.1,0.1,0.1c0.3,0.3,0.5,0.6,0.8,1
		c0.1,0.1,0.1,0.1,0.2,0.2c0.3,0.3,0.5,0.5,0.8,0.8c-0.6,1.3-1.1,2.6-1.6,3.9c0,0.1-0.1,0.2-0.1,0.3c-0.1,0.2-0.2,0.5-0.2,0.7
		c-0.1,0.4-0.3,0.8-0.4,1.1c0,0.1-0.1,0.3-0.1,0.4c-0.1,0.2-0.1,0.4-0.2,0.7c-0.1,0.3-0.2,0.6-0.3,0.8c0,0.1-0.1,0.2-0.1,0.3
		c0,0.1-0.1,0.3-0.1,0.4c-0.1,0.3-0.2,0.6-0.3,0.9C7.2,54,7,54.4,6.9,54.9c-0.1,0.3-0.2,0.6-0.2,0.9c-0.1,0.4-0.2,0.9-0.3,1.3
		c-0.1,0.3-0.2,0.6-0.2,1C6,58.6,5.9,59,5.8,59.4c-0.1,0.3-0.1,0.6-0.2,1c-0.1,0.3-0.1,0.5-0.2,0.8L5.2,61v0.1
		C3,58.9,2.1,57,2.4,55.2z M1.1,66.3c0.1-1.8,0.3-4.3,0.6-6.6c0.5,1.1,1.4,2.4,3.2,4c0,0,0,0.1,0,0.1C4,69.3,3.7,75,3.9,80.7
		c-1.6-1.5-2.5-3-2.6-4.4l0,0C1.1,73.4,1.1,69.3,1.1,66.3z M8,100.9C8,100.9,8,100.9,8,100.9C8,100.9,8,100.9,8,100.9
		C8,100.9,8,100.9,8,100.9z"/>
	<path class="st5" d="M27.7,119.3C27.7,119.2,27.7,119.2,27.7,119.3c-0.1-0.1-0.1-0.2-0.1-0.3c-0.1-0.3-0.2-0.6-0.4-0.9
		c-0.1-0.1-0.1-0.3-0.2-0.4c-0.1-0.3-0.2-0.5-0.3-0.8c-0.1-0.2-0.1-0.3-0.2-0.5c-0.1-0.3-0.2-0.5-0.3-0.8c0-0.2-0.1-0.3-0.1-0.5
		c-0.1-0.3-0.2-0.6-0.2-0.9c0-0.2-0.1-0.3-0.1-0.5c-0.1-0.3-0.2-0.7-0.3-1.1c0-0.1-0.1-0.2-0.1-0.3c-0.1-0.5-0.2-1-0.3-1.5
		c0,0,0-0.1,0-0.1c-0.1-0.4-0.2-0.8-0.2-1.2c-0.4-0.1-0.7-0.3-1.1-0.4c-0.3-0.1-0.7-0.2-1-0.3c-0.4-0.1-0.8-0.3-1.2-0.4
		c-0.3-0.1-0.7-0.2-1-0.4c-0.4-0.1-0.7-0.3-1.1-0.4c-0.3-0.1-0.6-0.3-0.9-0.4c-0.3-0.1-0.7-0.3-1-0.5c-0.3-0.1-0.6-0.3-0.9-0.4
		c-0.3-0.1-0.6-0.3-0.9-0.5c-0.3-0.1-0.6-0.3-0.9-0.4s-0.6-0.3-0.8-0.4c-0.3-0.2-0.6-0.3-0.9-0.5c-0.3-0.1-0.5-0.3-0.8-0.4
		c-0.3-0.2-0.6-0.3-0.8-0.5c-0.2-0.1-0.5-0.3-0.7-0.4c-0.2-0.2-0.5-0.3-0.7-0.5c1.1,2.6,2.3,5,3.7,7.2c0.1,0.2,0.3,0.5,0.4,0.7
		c0.3,0.4,0.5,0.8,0.8,1.1c0.5,0.8,1.1,1.5,1.7,2.2c0,0,0,0,0,0C19.2,115.8,23,117.7,27.7,119.3z"/>
	<path class="st5" d="M46.8,123.9l0.1-0.1l0,0c0-0.1,0.1-0.2,0.1-0.3c0-0.1,0.1-0.2,0.1-0.4c0-0.1,0.1-0.3,0.1-0.4
		c0.7-2.1,1.4-4.6,2.2-7.5c-7.9-1.2-15.5-2.9-22-5c0.6,3.8,1.5,7.1,2.7,9.8C35.3,121.7,41,123.1,46.8,123.9z"/>
	<path class="st6" d="M26.3,109.1c-0.1,0-0.3-0.1-0.4-0.1c0.5,3,1.2,5.7,2.1,8.2c-0.7-2.2-1.2-4.7-1.6-7.5L26.3,109.1z"/>
	<path class="st5" d="M65.5,124.7c0.7-0.5,1.4-1.1,2.1-1.7c0,0,0,0,0,0c2.1-1.8,4.1-4,6-6.4c-3.2,0.2-6.7,0.2-9.7,0.1
		c-4.7-0.2-8.3-0.6-11.6-1c-1.2,3.7-2.1,6.4-3,8.4c0.3,0,0.5,0.1,0.8,0.1c0.4,0,0.8,0.1,1.2,0.1c0.4,0,0.8,0.1,1.2,0.1
		c0.3,0,0.7,0.1,1,0.1c0.4,0,0.9,0.1,1.3,0.1c0.3,0,0.5,0,0.8,0.1c0.7,0,1.3,0.1,2,0.1c0.6,0,1.2,0,1.7,0c0.2,0,0.4,0,0.6,0
		c0.1,0,0.2,0,0.3,0c0.3,0,0.5,0,0.8,0c0.1,0,0.1,0,0.2,0c0.3,0,0.6,0,0.8,0c0,0,0.1,0,0.1,0c0.3,0,0.6,0,0.8,0c0.1,0,0.1,0,0.2,0
		c0.3,0,0.5,0,0.7,0c0.1,0,0.2,0,0.2,0c0.2,0,0.4,0,0.6,0c0.2,0,0.3,0,0.4,0C65.2,124.8,65.3,124.8,65.5,124.7
		C65.4,124.8,65.5,124.8,65.5,124.7z"/>
	<path class="st6" d="M51.5,114.8c-0.2,0-0.5-0.1-0.7-0.1c-0.9,3.6-1.9,6.8-2.9,9.3c0.1,0,0.2,0,0.3,0c0.9-2.1,1.9-4.9,3.2-9
		L51.5,114.8z"/>
	<path class="st5" d="M80.7,118.1c0,0,0.1-0.1,0.1-0.1c0.7-0.5,1.3-1.1,1.9-1.6c0.4-0.4,1-0.9,1.6-1.4c0.1-0.1,0.3-0.2,0.4-0.4
		c-2.1,0.8-4.9,1.5-8.5,1.9c-2.4,3.2-5,5.8-7.6,7.9c2.3-0.3,4.1-0.9,5.4-1.7c0.4-0.2,0.8-0.5,1.2-0.8l0,0
		C77.1,120.7,79,119.4,80.7,118.1z"/>
	<path class="st5" d="M20.2,117.6c0.8,0.7,1.6,1.5,2.6,2.2c0.3,0.2,0.5,0.4,0.7,0.5c0.6,0.4,1.2,0.8,1.9,1.1l0.6,0.3
		c1.8,1.1,2.2,1.4,3.9,2.4c0,0,0.5,0.3,1.2,0.6c-0.9-1-1.7-2.2-2.5-3.7C25.4,120,22.5,118.8,20.2,117.6z"/>
	<path class="st5" d="M46.2,125.4C46.2,125.4,46.3,125.4,46.2,125.4c-5.5-0.9-10.8-2.1-15.2-3.5c1.2,2.1,2.6,3.7,4.2,4.7
		c1.5,0.5,3,0.9,4.5,1.2c0,0,0.1,0,0.1,0c0.4,0.1,0.8,0.2,1.3,0.3c0.4,0.1,0.8,0.2,1.1,0.2c0.3,0.1,0.6,0.1,0.9,0.2
		c0.4,0.1,0.9,0.2,1.3,0.2c0,0,0,0,0,0C44.8,128.3,45.4,127.5,46.2,125.4z"/>
	<path class="st3" d="M41.1,128.2c-0.4-0.1-0.8-0.2-1.3-0.3C40.3,128,40.7,128.1,41.1,128.2z"/>
	<path class="st3" d="M43.1,128.5c-0.3-0.1-0.6-0.1-0.9-0.2C42.5,128.4,42.8,128.5,43.1,128.5z"/>
	<path class="st5" d="M57.9,128.6c1.7-0.5,3.4-1.2,5.1-2.2c-0.8,0-1.7,0-2.7,0c-1,0-2.1,0-3.2-0.1c-0.5,0-1.1,0-1.6-0.1
		c-0.1,0-0.2,0-0.3,0c-2-0.1-4.2-0.3-6.6-0.7c-0.7,1.5-1.3,2.6-2,3.4c0.1,0,0.1,0,0.2,0c1.1,0.1,2.2,0.2,3.3,0.2l0.3,0
		c0.8,0,1.5,0.1,2.2,0.1c0.3,0,0.5,0,0.8,0c0.7,0,1.3-0.1,1.9-0.1C56,129.1,56.9,128.9,57.9,128.6z"/>
	<path class="st3" d="M50,129.3c-1.1-0.1-2.2-0.1-3.3-0.2C47.7,129.1,48.8,129.2,50,129.3l0.2,0c0.8,0.1,1.5,0.1,2.3,0.1
		c-0.7,0-1.4,0-2.2-0.1L50,129.3z"/>
	<path class="st6" d="M47.7,125c-0.1,0-0.1,0-0.2,0c-0.3,0.7-0.5,1.3-0.8,1.8C47,126.3,47.4,125.7,47.7,125z"/>
	<path class="st5" d="M64.4,127.1c-0.1,0.1-0.2,0.1-0.3,0.2c0.1,0,0.1,0,0.2-0.1c0.6-0.2,1.8-0.6,2.8-1.1c0.1,0,0.2-0.1,0.3-0.1
		c-0.5,0.1-1,0.1-1.5,0.2C65.5,126.5,64.9,126.8,64.4,127.1z"/>
	<path class="st3" d="M106.1,43.1c-1.5-6.5-4.1-12.9-7.3-18.3c-0.9-1.4-2.1-3.2-3-4.5c-0.8-1.1-1.8-2.4-2.5-3.2
		c-1.1-1.3-2.7-2.9-3.9-4.1c-0.6-0.6-1.4-1.3-2-1.8l-0.7-0.6c-0.9-0.8-1.9-1.5-2.8-2.1c-0.2-0.1-0.3-0.2-0.4-0.3l-0.4-0.3
		c-1.8-1.2-2.2-1.4-4-2.4c0,0-3.1-1.8-7.2-3.1c-4.3-1.4-7.4-1.8-8.8-1.9c-0.6-0.1-2-0.2-4.5-0.3C57.4,0,56,0,55,0.1
		c-2,0.2-3.4,0.4-4.8,0.6L49,0.9c-0.9,0.1-2,0.4-3,0.7c-0.4,0.1-0.8,0.2-1.1,0.3c-1.2,0.3-2.7,0.8-3.9,1.3l-0.6,0.2
		c-0.5,0.2-1.1,0.5-1.6,0.7c-0.5,0.2-1.1,0.5-1.6,0.7c-1,0.4-2,1-3.1,1.6c-0.4,0.3-0.9,0.5-1.3,0.7c-1.1,0.6-2.5,1.6-3.4,2.2
		c-1.2,0.9-2.8,2.1-3.9,3c-0.5,0.5-1.1,1-1.7,1.5c-0.6,0.5-1.1,1-1.7,1.5c-4.5,4.4-8.7,9.8-12,15.6c-0.6,1.1-2.6,4.4-4.5,9.4
		C4.1,44,4.1,44,2.3,50.7C1.3,54,0.7,58.3,0.4,61c-0.2,1.2-0.3,2.9-0.3,4.3L0,66.3c-0.1,1.7-0.1,3.9-0.1,5.5c0,1.1,0.1,2.5,0.2,3.7
		c0,0.5,0.1,0.9,0.1,1.4c0.1,0.8,0.2,1.7,0.4,2.7c0.1,0.9,0.2,1.8,0.4,2.7C1.2,84,1.6,86,2,87.4l1.3,4.6c0.3,0.9,1.1,3.2,1.8,5
		c1.7,4.4,3.4,7.2,4.4,8.9l0.2,0.3c1.1,2,2.7,4.2,4.1,5.9c0.3,0.3,0.5,0.7,0.8,0.9c1.1,1.3,2.7,3,4.1,4.4c0.1,0.1,0.2,0.2,0.3,0.3
		c0.6,0.5,1.2,1.1,1.8,1.6l0.9,0.8c1,0.8,2.1,1.7,3.3,2.2l0.5,0.3c1.8,1.1,2.2,1.4,3.9,2.4c0.1,0,1.6,0.9,3.3,1.6
		c0.5,0.2,0.9,0.4,1.3,0.6c0.7,0.3,1.4,0.5,2.5,0.9c0,0,0.1,0,0.1,0c1.1,0.4,3.9,1.3,7.7,1.8c1.9,0.3,3.9,0.4,6,0.4
		c0.6,0,1.2,0,1.9,0c0.8,0,1.6-0.1,2.4-0.1c1.3-0.1,2.4-0.2,3.3-0.4c0.9-0.1,1.4-0.3,1.6-0.3c2.2-0.5,2.2-0.5,5.2-1.4
		c0.6-0.2,1.9-0.6,3-1.1c0.7-0.3,1.5-0.7,2.2-1c0.1-0.1,0.3-0.1,0.4-0.2c0.6-0.3,1.2-0.5,1.7-0.8c1-0.5,2.5-1.3,3.4-1.9
		c0.4-0.2,0.7-0.4,1-0.6c3.4-2.2,5.8-4.2,6.4-4.8c0.9-0.7,1.9-1.6,2.8-2.4c0.3-0.3,0.7-0.6,1-0.9c0.8-0.8,1.8-1.8,2.6-2.7l0.5-0.6
		c2.4-2.8,4.3-5.4,5.9-7.9c2.7-4,4.3-7.6,4.9-9c1.6-3.3,2.9-6.7,3.6-9.3l0.1-0.3c0.8-2.9,1.8-6.9,2.4-10c0.8-4,1-7.6,1.2-10.9
		C108.3,56.7,107.7,49.8,106.1,43.1z M6.1,96.7c-0.1-0.2-0.1-0.3-0.2-0.5c-0.1-0.3-0.2-0.6-0.4-0.9c-0.4-1.1-0.8-2.3-1.2-3.5L4,90.9
		L3.2,88L3,87.2c-0.4-1.4-0.8-3.4-1.1-5.1c-0.1-0.8-0.2-1.7-0.4-2.7c-0.1-0.9-0.2-1.8-0.3-2.6c0-0.4-0.1-0.9-0.1-1.3
		c-0.1-1.2-0.2-2.6-0.2-3.6c0-1.6,0-3.8,0.1-5.5l0.1-0.9c0.1-1.4,0.2-3,0.3-4.3c0.3-2.7,0.9-7,1.9-10.2c1.8-6.6,1.8-6.6,3.3-10.2
		c1.9-4.9,3.8-8.2,4.5-9.2c0.2-0.4,0.5-0.8,0.7-1.2c1.7-2.9,3.6-5.6,5.7-8.2c0.8-1,1.6-2,2.5-2.9c0.3-0.4,0.6-0.7,1-1.1
		c0.7-0.7,1.3-1.4,2-2c0.5-0.5,1.1-1,1.7-1.5c0.6-0.5,1.1-1,1.6-1.5c1.1-0.9,2.7-2.1,3.9-3c0.9-0.7,2.3-1.5,3.4-2.2
		c0.4-0.2,0.8-0.5,1.3-0.7c1-0.6,2-1.2,3-1.5c0.5-0.2,1.1-0.5,1.6-0.7c0.5-0.2,1.1-0.5,1.6-0.7l0.5-0.2c1.2-0.5,2.6-1,3.8-1.3
		c0.4-0.1,0.7-0.2,1.2-0.3c0.9-0.3,2-0.5,2.9-0.7l1.1-0.2c1.4-0.2,2.8-0.5,4.8-0.6C56,1,57.4,1,58.5,1c2.4,0.1,3.8,0.2,4.4,0.3
		c0.6,0.1,1.4,0.2,2.6,0.4c0.4,0.1,0.7,0.1,1.1,0.2c1.1,0.2,2.4,0.5,3.9,1c-1.7-0.3-3.4-0.5-5.2-0.6l0,1c7,0.3,13.4,2.6,19,6.6
		c0.5,0.4,1.1,0.9,1.8,1.4l0.7,0.6c0.7,0.6,1.4,1.2,2,1.8c1.2,1.2,2.8,2.8,3.9,4.1c0.8,0.9,1.8,2.3,2.5,3.2c0.9,1.3,2.1,3.1,3,4.5
		c3.1,5.2,5.6,11.6,7.1,18c1.6,6.6,2.2,13.5,1.9,20.4c-0.2,3.2-0.4,6.8-1.2,10.7c-0.6,3-1.6,7-2.4,9.9l-0.1,0.3
		c-0.7,2.5-2,5.9-3.6,9.2c-0.6,1.3-2.2,4.8-4.8,8.8c-1.6,2.5-3.5,5.1-5.8,7.8l-0.5,0.6c-0.8,0.9-1.7,2-2.5,2.7
		c-0.3,0.3-0.6,0.6-1,0.9c-0.9,0.8-1.8,1.7-2.8,2.4c-0.7,0.7-3.4,3-7.3,5.3c-1,0.6-2.4,1.4-3.4,1.9c-0.6,0.3-1.4,0.6-2.2,1
		c-0.7,0.3-1.3,0.6-1.9,0.9c-0.1,0-0.2,0.1-0.3,0.1c-1,0.5-2.2,0.9-2.8,1.1c-0.1,0-0.1,0-0.2,0.1c-2.8,0.8-2.8,0.8-5,1.3
		c-0.1,0-1.7,0.4-4.1,0.6c-0.6,0.1-1.2,0.1-1.9,0.1c-0.2,0-0.5,0-0.8,0c-0.7,0-1.5,0-2.3-0.1l-0.3,0c-1.1-0.1-2.1-0.1-3.2-0.2
		c-0.1,0-0.1,0-0.2,0c-0.3,0-0.6-0.1-0.9-0.1l-0.9-0.1c-0.1,0-0.2,0-0.2,0c-0.4-0.1-0.9-0.1-1.3-0.2c-0.3-0.1-0.6-0.1-0.9-0.2
		c-0.4-0.1-0.8-0.2-1.1-0.2c-0.4-0.1-0.8-0.2-1.3-0.3c0,0-0.1,0-0.1,0c-1.5-0.4-3-0.8-4.5-1.2c-0.1-0.1-0.3-0.1-0.4-0.1
		c0,0-0.1,0-0.1,0l-0.1,0c-0.1,0-0.3-0.1-0.4-0.1c-0.4-0.2-0.7-0.3-1.1-0.5c-0.8-0.3-1.5-0.7-2.1-1c-0.7-0.3-1.1-0.6-1.2-0.6
		c-1.7-1-2.1-1.2-3.9-2.4l-0.6-0.3c-0.7-0.3-1.3-0.7-1.9-1.1c-0.4-0.3-0.9-0.7-1.3-1l-0.2-0.2l-0.7-0.6c-0.7-0.6-1.4-1.2-2-1.8
		c-1.4-1.4-3-3.1-4.1-4.4c-1.5-1.8-3.5-4.4-4.8-6.7l-0.2-0.3C9.3,103.7,7.8,101,6.1,96.7z"/>
</g>
<use xlink:href="#ba"  width="626.2" height="626.1" id="XMLID_3_" x="-313.1" y="-313" transform="matrix(0.9998 0 0 0.9998 -461.895 -432.8132)" style="overflow:visible;"/>
</svg>
