<?xml version="1.0" encoding="utf-8"?>
<!-- Generator: Adobe Illustrator 21.1.0, SVG Export Plug-In . SVG Version: 6.00 Build 0)  -->
<svg version="1.1" id="Layer_1" xmlns="http://www.w3.org/2000/svg" xmlns:xlink="http://www.w3.org/1999/xlink" x="0px" y="0px"
	 viewBox="0 0 177.7 285.5" style="enable-background:new 0 0 177.7 285.5;" xml:space="preserve">
<style type="text/css">
	.st0{fill:none;}
	.st1{fill:#0D2E42;}
	.st2{fill:#ABCFDB;}
	.st3{fill:#597E8E;}
	.st4{fill:#0B2E42;}
</style>
<title>Untitled-3</title>
<g>
	<path class="st0" d="M131.7,236.7l18.7-48.6c-1.5,1.6-3.4,3.5-5,5l-0.3,0.3c-1.9,1.6-6.2,5.5-12,9.1c-0.1,0-0.1,0.1-0.2,0.1
		l-9.8,32.2C126.4,235,129.5,235.6,131.7,236.7z"/>
	<path class="st0" d="M107.7,235.8c1.2-0.2,2.3-0.4,3.4-0.6c2-0.3,4.5-0.5,7.1-0.5l8.7-28.7c-2.1,1-4.6,2.2-7.5,3.3
		c-5.6,2.1-10.2,3.1-12.4,3.4c-5.3,1-9.8,1.2-11.8,1.2l10.7,22.2C106.5,236,107.1,235.9,107.7,235.8z"/>
	<path class="st0" d="M101,237.3l-11.3-23.5c-0.4,0-0.8,0-1.2-0.1l-0.5,0c-2.4-0.2-4.7-0.5-5.5-0.7l-0.3,0c-0.4-0.1-0.7-0.1-1.1-0.2
		c-0.9-0.2-1.9-0.3-2.8-0.5l-4.3-1c-1.9-0.5-4.3-1.3-6.1-1.9l-0.9-0.3c-1.4-0.5-3.2-1.2-4.6-1.8c-1.4-0.7-3-1.5-4.6-2.3L91.1,242
		C93.4,240.1,96.9,238.5,101,237.3z"/>
	<path class="st1" d="M151.9,186.6c-0.4,0.5-0.9,1-1.4,1.5l-18.7,48.6c-2.3-1.1-5.3-1.7-8.5-1.9l9.8-32.2c-1,0.6-3.1,1.9-6.1,3.4
		l-8.7,28.7c-2.6,0.1-5.1,0.3-7.1,0.5c-1.1,0.2-2.3,0.3-3.4,0.6c-0.6,0.1-1.2,0.2-1.8,0.3l-10.7-22.2c-0.3,0-0.5,0-0.7,0
		c-2.1,0-3.5,0-4.8-0.1l11.3,23.5c-4.1,1.2-7.7,2.8-9.9,4.7l-33.2-37.1c-1.5-0.7-2.9-1.5-4.3-2.2c-4.1-2.3-8.9-5.9-11-7.6l46,51.4
		c0,0.2,0,0.4,0,0.6c0.1,0.7,0.4,1.4,0.8,2l4.5,30.5c0,0.1,0,0.2,0.1,0.3c0.1,0.4,0.4,0.8,0.6,1c2,3.2,8.1,4.6,15.1,4.6
		c2.7,0,5.5-0.2,8.2-0.5c9.6-1.2,17.6-4.4,20.4-8c0.7-0.9,1-1.8,1.2-2.6c0-0.2,0.1-0.4,0-0.7c0-0.1,0-0.1,0-0.2c0-0.3,0-0.5-0.1-0.8
		l-3.9-32.3c0-0.1,0-0.2-0.1-0.2l25.4-65.8c-1.3,2.1-2.9,4.4-4.8,6.9C154.7,183.1,153.1,185.1,151.9,186.6z M92.6,246.6
		c-0.2-1.4,6-5.6,18.3-7.2c12.3-1.6,19.4,0.9,19.6,2.3c0.2,1.4-6,5.6-18.3,7.2C99.8,250.5,92.7,248,92.6,246.6z M135.5,273.7
		c0,0.2-0.1,0.5-0.4,0.8c-1.8,2.3-8.4,5.3-17.7,6.5c-11.9,1.6-18.9-0.8-19.4-2.2c0-0.2,0.1-0.4,0.1-0.6c0.1-0.3,0.2-0.7,0.1-1
		l-3.4-24.9c2.7,0.7,5.9,1.1,9.4,1.1c2.7,0,5.5-0.2,8.3-0.6c7.3-1,14.7-3.1,18.8-6.2l3.4,25.7c0.1,0.4,0.3,0.8,0.6,1.2
		C135.4,273.5,135.5,273.6,135.5,273.7z"/>
	<path class="st2" d="M134.8,272.3l-3.4-25.7c-4,3.1-11.5,5.3-18.8,6.2c-2.8,0.4-5.6,0.6-8.3,0.6c-3.5,0-6.8-0.3-9.4-1.1l3.4,24.9
		c0,0.3,0,0.7-0.1,1c-0.1,0.2-0.1,0.4-0.1,0.6c0.5,1.4,7.5,3.7,19.4,2.2c9.3-1.2,15.9-4.2,17.7-6.5c0.2-0.3,0.4-0.6,0.4-0.8
		c0-0.1-0.1-0.2-0.1-0.3C135.1,273.1,134.9,272.7,134.8,272.3z"/>
	<path class="st3" d="M112.1,248.9c12.3-1.6,18.5-5.9,18.3-7.2c-0.2-1.4-7.3-3.9-19.6-2.3c-12.3,1.6-18.5,5.9-18.3,7.2
		C92.7,248,99.8,250.5,112.1,248.9z"/>
	<path class="st3" d="M50.5,15.7c0.1,0,0.3,0.1,0.4,0.1l0.1-0.1l0,0c0.2-0.2,0.4-0.3,0.6-0.5c0.6-0.5,1.3-1,1.9-1.5
		c0.4-0.3,0.8-0.6,1.2-0.9c0.6-0.4,1.1-0.8,1.7-1.2c0.5-0.3,0.9-0.6,1.4-0.9c0.5-0.3,1-0.6,1.5-0.9c0.5-0.3,1-0.6,1.6-0.9
		c0.4-0.2,0.8-0.4,1.2-0.6c0.5-0.3,1-0.6,1.6-0.9c0,0,0,0,0,0c-0.1,0-0.1,0-0.2,0c-0.8,0.2-1.6,0.5-2.3,0.7
		c-0.2,0.1-0.5,0.2-0.7,0.2C59.6,8.6,59,8.8,58.3,9c-0.2,0.1-0.4,0.1-0.6,0.2c-0.8,0.3-1.6,0.6-2.4,1c-0.2,0.1-0.3,0.2-0.5,0.2
		c-0.6,0.3-1.3,0.6-1.9,0.9c-0.2,0.1-0.5,0.2-0.7,0.3c-0.7,0.3-1.4,0.7-2,1c-0.1,0.1-0.2,0.1-0.3,0.2c-0.7,0.3-1.3,0.7-2,1.1
		C48.1,14.7,49.5,15.3,50.5,15.7z"/>
	<path class="st3" d="M63.6,17L63.6,17L63.6,17c0.3-0.6,0.5-1.1,0.8-1.6c0-0.1,0.1-0.2,0.1-0.2c0.3-0.6,0.6-1.1,0.9-1.7
		c0.1-0.1,0.2-0.3,0.2-0.4c1.3-2.3,2.7-4.4,4.1-6.2c-5.4,2.3-10.7,5.5-15.6,9.5C56.7,16.9,60,17.1,63.6,17z"/>
	<path class="st3" d="M79.6,15.3L79.6,15.3L79.6,15.3c-0.1-0.2-0.1-0.3-0.2-0.5c-0.1-0.2-0.2-0.4-0.3-0.6c-0.2-0.4-0.4-0.8-0.6-1.2
		c-0.1-0.1-0.1-0.3-0.2-0.4c-1.6-3-3.1-5.3-4.4-6.8c-2.5,2.5-4.9,6.3-7,11.1C71.2,16.6,75.6,16.1,79.6,15.3z"/>
	<path class="st3" d="M87.5,13.3c2.1-0.6,4.1-1.3,5.9-2c-0.1,0-0.1-0.1-0.2-0.1c-0.3-0.2-0.6-0.3-0.9-0.4c-0.5-0.3-1.1-0.5-1.6-0.8
		c-0.3-0.1-0.6-0.3-0.9-0.4c-0.6-0.3-1.2-0.5-1.8-0.8c-0.2-0.1-0.4-0.2-0.7-0.3C86.6,8.3,85.8,8,85,7.7c-0.2-0.1-0.3-0.1-0.5-0.1
		c-0.6-0.2-1.3-0.4-1.9-0.6c-0.3-0.1-0.5-0.1-0.8-0.2c-0.5-0.1-1.1-0.3-1.6-0.4c-0.3-0.1-0.6-0.1-0.9-0.2c-0.5-0.1-1.1-0.2-1.6-0.3
		c-0.3,0-0.5-0.1-0.8-0.1c0,0-0.1,0-0.1,0c1.9,2.1,3.9,5.1,5.9,8.9C84.2,14.2,85.9,13.8,87.5,13.3z"/>
	<path class="st3" d="M100.9,7.2c-0.7-0.2-1.3-0.4-2-0.5c-0.1,0-0.2,0-0.2-0.1c-1-0.2-2.1-0.5-3.1-0.6c0,0,0,0-0.1,0
		c-3.9-0.7-7.8-1.1-11.8-1.2c4.3,1.2,8.7,2.9,13,5.2C98.9,9.1,100.2,8,100.9,7.2z"/>
	<path class="st3" d="M99.1,3.8c-2.6-0.4-5.2-0.7-7.8-0.7c3.2,0.3,6.4,0.9,9.6,1.6C100.3,4.3,99.6,4,99.1,3.8z"/>
	<path class="st3" d="M30.9,37.5c0.4,0.1,0.7,0.2,1.1,0.4c0.1-0.1,0.1-0.2,0.2-0.2C36,31.4,40.3,26,44.9,21.2
		c0.9-0.9,1.8-1.9,2.8-2.8c-1.9-0.8-2.8-1.7-3.2-2.6C37.4,20.4,31,26,25.3,32.8C25.5,35.2,28.9,36.7,30.9,37.5z"/>
	<path class="st3" d="M61.3,20.2c-0.3,0-0.6,0-0.9,0c-0.3,0-0.5,0-0.8,0c-0.3,0-0.6,0-0.9,0c-0.2,0-0.4,0-0.6,0
		c-0.4,0-0.7,0-1.1-0.1c-0.2,0-0.3,0-0.4,0c-0.4,0-0.8-0.1-1.2-0.1c-0.1,0-0.2,0-0.3,0c-0.4,0-0.9-0.1-1.3-0.2c-0.1,0-0.1,0-0.2,0
		c-0.4-0.1-0.9-0.1-1.3-0.2c-0.1,0-0.1,0-0.2,0c-0.5-0.1-0.9-0.2-1.4-0.3c-0.7,0.7-1.4,1.4-2.1,2.1c-0.2,0.2-0.4,0.5-0.7,0.7
		c-0.5,0.5-1,1-1.4,1.5c-0.3,0.3-0.5,0.6-0.8,0.9c-0.4,0.5-0.8,0.9-1.2,1.4c-0.3,0.3-0.6,0.7-0.9,1.1c-0.4,0.5-0.8,0.9-1.1,1.4
		c-0.3,0.4-0.6,0.8-0.9,1.1c-0.4,0.5-0.7,0.9-1.1,1.4c-0.3,0.4-0.6,0.8-0.9,1.2c-0.3,0.5-0.7,1-1,1.4c-0.3,0.4-0.6,0.9-0.9,1.3
		c-0.3,0.5-0.7,1-1,1.5c-0.3,0.4-0.6,0.9-0.8,1.3c-0.2,0.3-0.4,0.6-0.6,0.9c0.2,0,0.3,0.1,0.5,0.1c0.3,0.1,0.6,0.1,0.9,0.2
		c0.5,0.1,0.9,0.2,1.4,0.2c0.3,0.1,0.7,0.1,1,0.2c0.5,0.1,1,0.1,1.6,0.2c0.3,0,0.7,0.1,1,0.1c0.6,0.1,1.2,0.1,1.8,0.2
		c0.3,0,0.6,0.1,0.9,0.1c0.7,0.1,1.5,0.1,2.3,0.1c0.2,0,0.4,0,0.6,0c2,0.1,4.1,0.1,6.3,0.1c0.3,0,0.7,0,1,0c0.6,0,1.2,0,1.8,0
		c0.1-0.6,0.2-1.1,0.4-1.6c0.1-0.3,0.1-0.7,0.2-1c0.5-2,0.9-4,1.4-5.8c0-0.1,0.1-0.2,0.1-0.3c0.2-0.8,0.5-1.7,0.7-2.5
		c0-0.1,0-0.2,0.1-0.2c0.9-3,1.8-5.8,2.9-8.4c0,0-0.1,0-0.1,0C61.8,20.2,61.5,20.2,61.3,20.2z"/>
	<path class="st3" d="M80.6,18.4c-3.3,0.6-6.8,1.2-11.3,1.5c-0.1,0-0.2,0-0.2,0c-1.1,0.1-2.2,0.2-3.4,0.2c-0.1,0-0.1,0-0.2,0
		c-1.7,4.9-3.2,10.3-4.3,16.1c-0.1,0.5-0.2,1-0.3,1.5c-0.1,0.3-0.1,0.6-0.2,0.9c-0.1,0.4-0.1,0.8-0.2,1.2c0.4,0,0.9,0,1.3-0.1
		c0.5,0,1-0.1,1.5-0.1c0.7,0,1.4-0.1,2.1-0.2c0.5,0,1-0.1,1.5-0.1c0.8-0.1,1.5-0.1,2.3-0.2c0.4,0,0.8-0.1,1.3-0.1
		c1-0.1,2-0.2,3.1-0.3c0.2,0,0.3,0,0.5-0.1c1.2-0.1,2.4-0.3,3.6-0.5c0.4,0,0.7-0.1,1.1-0.2c0.8-0.1,1.7-0.2,2.5-0.4
		c0.5-0.1,0.9-0.2,1.4-0.2c0.7-0.1,1.5-0.2,2.2-0.4c0.5-0.1,1-0.2,1.5-0.3c0.5-0.1,0.9-0.2,1.4-0.3c-2.3-7.2-4.6-13.3-6.7-18.3
		C80.9,18.4,80.7,18.4,80.6,18.4z"/>
	<path class="st3" d="M101.9,16.6c-1.2-0.8-2.4-1.7-3.9-2.6c-0.2-0.1-0.4-0.3-0.7-0.4c-2.2,1-5,2-8.2,2.8c-1.6,0.5-3.2,0.9-4.9,1.3
		c0.3,0.6,0.6,1.2,0.9,1.9c0.1,0.1,0.1,0.2,0.2,0.3c0.3,0.5,0.5,1.1,0.8,1.7c0.1,0.2,0.2,0.5,0.3,0.8c0.2,0.5,0.4,0.9,0.6,1.4
		c0.1,0.3,0.3,0.6,0.4,0.9c0.2,0.4,0.4,0.9,0.6,1.3c0.1,0.3,0.3,0.7,0.4,1c0.2,0.4,0.4,0.9,0.5,1.3c0.2,0.4,0.3,0.8,0.5,1.2
		c0.2,0.4,0.4,0.9,0.5,1.4c0.2,0.4,0.3,0.8,0.5,1.2c0.2,0.5,0.3,0.9,0.5,1.4c0.2,0.4,0.3,0.9,0.5,1.3c0.1,0.3,0.3,0.7,0.4,1
		c3.1-0.6,6.3-1.4,9.9-2.4c5.5-1.6,10.1-3.1,13.8-4.7C111.1,24,106.6,20,101.9,16.6z"/>
	<path class="st3" d="M118.7,27.1c5-2.5,8.3-5,9.4-7.2c-9.4-6.1-12.7-7.9-23.3-11.5c-0.8,1.3-2.3,2.5-4.6,3.8
		C106.7,16.1,112.9,21.1,118.7,27.1z"/>
	<path class="st3" d="M128.1,16.6c-0.1-0.2-0.2-0.3-0.4-0.5c0,0,0,0,0,0c-0.1-0.1-0.2-0.3-0.4-0.4c-0.1-0.1-0.1-0.1-0.2-0.2
		c-0.1-0.1-0.2-0.2-0.3-0.2l-0.6-0.5l-1.8-1.1c-6.8-3.9-7.4-4.1-14-6.8L109,6.4c-1.3-0.5-2.6-0.9-3.9-1.2c0.1,0.2,0.2,0.5,0.2,0.8
		C113.1,8.2,120.7,11.8,128.1,16.6z"/>
	<path class="st3" d="M17.7,66.2c0.4,0.1,0.7,0.2,1,0.3c0.1,0,0.2,0.1,0.3,0.1c0.1,0,0.2,0,0.2,0.1l0-0.1l0,0c0.1-0.5,0.3-1,0.5-1.4
		c0.2-0.5,0.3-1,0.5-1.6c0.2-0.6,0.4-1.2,0.6-1.8c0.2-0.6,0.4-1.2,0.6-1.7c0.1-0.4,0.3-0.7,0.4-1c2.3-6.2,5-12.1,8.1-17.7
		c-0.2-0.1-0.5-0.1-0.7-0.2c-4.1-1.5-6-3.3-6.8-4.9C17.3,43,13,50.6,9.8,58.6c0,0,0,0,0,0.1C9.5,61.7,12.2,64.2,17.7,66.2z"/>
	<path class="st3" d="M22.9,67.6c7.8,1.7,18,2.5,29.9,2.2c0-0.6,0.1-1.2,0.1-1.8c0-0.4,0.1-0.8,0.1-1.2c0.6-8,1.5-15.7,2.7-22.9
		c-0.3,0-0.6,0-0.9,0c-0.6,0-1.2,0-1.8,0c-0.7,0-1.3,0-2,0c-0.4,0-0.7,0-1.1,0c-0.9,0-1.7,0-2.6-0.1c-0.2,0-0.3,0-0.5,0
		c-5.2-0.2-9.8-0.8-13.6-1.6C29,50,25.5,58.6,22.9,67.6z"/>
	<path class="st3" d="M63.1,69.3c9-0.6,18.4-1.8,27.8-3.4c0,0,0,0,0,0c1.1-0.2,2.2-0.4,3.4-0.6c0.5-0.1,1-0.2,1.5-0.3
		c0-0.2-0.1-0.3-0.1-0.5c-0.5-1.9-0.9-3.7-1.4-5.5c-0.1-0.2-0.1-0.5-0.2-0.7c0-0.1,0-0.1,0-0.2c-0.5-1.7-0.9-3.4-1.4-5.1
		c-0.2-0.7-0.4-1.4-0.6-2c-0.3-1-0.5-1.9-0.8-2.9c-0.8-2.7-1.6-5.4-2.4-8c-9.3,1.9-19.3,3.1-29,3.5c-0.1,0.5-0.1,1-0.2,1.5
		c-0.1,0.6-0.2,1.1-0.2,1.7c-0.1,0.6-0.2,1.3-0.2,1.9c-0.1,0.4-0.1,0.9-0.2,1.3c-0.1,0.7-0.2,1.4-0.2,2.2c0,0.4-0.1,0.7-0.1,1.1
		c-0.1,0.8-0.2,1.6-0.2,2.3c0,0.3-0.1,0.6-0.1,0.9c-0.1,0.8-0.1,1.6-0.2,2.4c0,0.3-0.1,0.6-0.1,0.9c-0.1,0.8-0.1,1.6-0.2,2.4
		c0,0.3,0,0.7-0.1,1c-0.1,0.7-0.1,1.5-0.1,2.3c0,0.4,0,0.8-0.1,1.2c0,0.7-0.1,1.3-0.1,2c0,0.4,0,0.7,0,1.1c0.6,0,1.1-0.1,1.7-0.1
		c0.9,0,1.8-0.1,2.7-0.1C62.3,69.4,62.7,69.4,63.1,69.3z"/>
	<path class="st3" d="M118.2,31.7c-4.6,2-9.7,3.8-15.2,5.3c-3.2,0.9-6.6,1.7-10,2.5c2.5,7.3,5,15.6,7.5,24.6c4.7-1,9.3-2.2,13.7-3.4
		c7.6-2.1,14.2-4.4,19.6-6.9c-2.9-5.1-6.1-10-9.4-14.4C122.4,36.7,120.4,34.1,118.2,31.7z"/>
	<path class="st3" d="M137.6,52.1c0.1,0,0.2-0.1,0.3-0.1c0.2-0.1,0.5-0.2,0.7-0.3c0.2-0.1,0.5-0.2,0.7-0.4c0.2-0.1,0.4-0.2,0.6-0.3
		c0.2-0.1,0.5-0.3,0.7-0.4c0.2-0.1,0.4-0.2,0.6-0.3c0.2-0.1,0.4-0.3,0.7-0.4c0.2-0.1,0.4-0.2,0.5-0.3c0.2-0.1,0.4-0.3,0.7-0.4
		c0.2-0.1,0.3-0.2,0.5-0.3c0.2-0.2,0.5-0.3,0.7-0.5c0.1-0.1,0.2-0.1,0.3-0.2c0.3-0.2,0.7-0.5,1-0.7c0.1,0,0.1-0.1,0.2-0.1
		c0.3-0.2,0.5-0.4,0.8-0.6c0.1-0.1,0.2-0.2,0.3-0.2c0.2-0.2,0.4-0.3,0.5-0.5c0.1-0.1,0.2-0.2,0.3-0.3c0.2-0.1,0.3-0.3,0.4-0.4
		c0.1-0.1,0.2-0.2,0.3-0.3c0.1-0.1,0.3-0.3,0.4-0.4c0.1-0.1,0.2-0.2,0.3-0.3c0.1-0.1,0.2-0.3,0.3-0.4c0.1-0.1,0.2-0.2,0.2-0.3
		c0.1-0.1,0.2-0.2,0.3-0.4c0.1-0.1,0.1-0.2,0.2-0.3c0.1-0.1,0.2-0.2,0.2-0.4c0.1-0.1,0.1-0.2,0.2-0.3c0.1-0.1,0.1-0.2,0.2-0.4
		c0-0.1,0.1-0.2,0.1-0.3c0,0,0-0.1,0-0.1c-2.3-2.9-4.7-5.7-7.2-8.4c-0.4-0.4-0.8-0.8-1.2-1.3c-0.4-0.4-0.7-0.7-1.1-1.1
		c-3.2-3.1-6.5-6-10-8.6c-1.4,2.6-4.7,5.2-9.8,7.8C127.5,36.6,132.9,44,137.6,52.1z"/>
	<path class="st3" d="M142,27.8c-0.1-0.1-0.3-0.3-0.4-0.4c-1.2-1.1-2.7-2.5-4.9-4.6c0,0,0,0,0,0c-1.1-1-2.5-2.1-3.8-3.1
		c-0.2-0.2-0.5-0.4-0.7-0.5c0,0.1,0,0.2,0,0.4c3.5,2.6,6.8,5.4,10,8.5C142.1,27.9,142.1,27.9,142,27.8z"/>
	<path class="st3" d="M11.7,99.4c0.6,0.2,1.1,0.4,1.7,0.6c0-0.3,0-0.7,0.1-1c0.4-7.1,1.3-14.1,2.8-20.9c0.1-0.3,0.1-0.5,0.2-0.8
		c0.1-0.7,0.3-1.3,0.4-2c0.3-1.5,0.7-3.1,1.1-4.6c0,0-0.1,0-0.1,0c-0.5-0.1-1-0.3-1.5-0.5c-4.9-1.7-7.4-3.8-8.5-5.8
		c-2.6,7.8-4.4,16-5.2,24.4l0,0c-0.1,1-0.2,2-0.3,3C2.9,95.5,7.6,97.9,11.7,99.4z"/>
	<path class="st2" d="M51.7,102.7c-0.5-10-0.5-19.3-0.1-27.7c-11.5,0.2-21.4-0.5-29-2.2c-2.2,8.8-3.6,18-4.1,27.4
		C27,102.2,38.4,103,51.7,102.7z"/>
	<path class="st1" d="M17.3,101.1c8.9,2.1,21.1,3,35.4,2.6l0,0h0c-0.3-5.8-0.5-11.6-0.5-17.2c0-0.1,0-0.1,0-0.2
		c0-4.3,0.1-8.4,0.3-12.4c-12.3,0.3-23-0.5-30.8-2.3C19.3,81.1,17.9,91,17.3,101.1z M51.6,75.1c-0.4,8.4-0.4,17.7,0.1,27.7
		c-13.3,0.3-24.7-0.6-33.2-2.4c0.5-9.5,1.8-18.7,4.1-27.4C30.1,74.6,40.1,75.3,51.6,75.1z"/>
	<path class="st3" d="M57.2,81.1c0,0.9,0,1.8,0,2.7c0,1.6,0,3.2,0,4.8c0,1,0.1,2.1,0.1,3.1c0,1.5,0.1,3,0.1,4.5
		c0,1.1,0.1,2.2,0.2,3.3c0.1,1.3,0.1,2.7,0.2,4c0,0,0.1,0,0.1,0c14.3-0.7,29-2.5,42.8-5.1c0.7-0.1,1.5-0.3,2.2-0.4
		c-0.3-1.4-0.5-2.8-0.8-4.2c-0.1-0.6-0.3-1.3-0.4-1.9c-0.1-0.6-0.2-1.1-0.3-1.7c-0.2-0.8-0.3-1.6-0.5-2.4c-0.1-0.5-0.2-1-0.3-1.5
		c-0.3-1.3-0.5-2.5-0.8-3.7c-0.1-0.5-0.2-0.9-0.3-1.4c-0.2-0.8-0.3-1.6-0.5-2.3c-0.1-0.5-0.2-1-0.3-1.4c-0.2-0.7-0.3-1.4-0.5-2.1
		c-0.1-0.4-0.2-0.9-0.3-1.3c-0.2-0.7-0.3-1.4-0.5-2.2c-0.1-0.4-0.2-0.8-0.3-1.2C97,70,96.9,69.5,96.8,69c-0.7,0.1-1.5,0.3-2.2,0.4
		c-0.8,0.1-1.5,0.3-2.3,0.4c-0.9,0.2-1.8,0.3-2.7,0.5c-0.8,0.1-1.5,0.3-2.3,0.4c-0.9,0.1-1.8,0.3-2.7,0.4c-0.8,0.1-1.5,0.2-2.3,0.3
		c-0.9,0.1-1.8,0.2-2.8,0.4c-0.8,0.1-1.5,0.2-2.3,0.3c-0.9,0.1-1.9,0.2-2.8,0.3c-0.7,0.1-1.5,0.2-2.2,0.3c-1,0.1-1.9,0.2-2.9,0.3
		c-0.7,0.1-1.4,0.1-2.1,0.2c-1.1,0.1-2.1,0.2-3.2,0.2c-0.6,0-1.2,0.1-1.8,0.1c-1.6,0.1-3.3,0.2-4.9,0.3
		C57.2,76.2,57.2,78.6,57.2,81.1z"/>
	<path class="st3" d="M147.6,84.9c-3.8-11-5.5-15.2-10.2-24.7c-0.5-0.9-1-1.8-1.4-2.7c-2.1,0.9-4.4,1.8-6.8,2.7
		c-0.6,0.2-1.1,0.4-1.7,0.6c0,0-0.1,0-0.1,0c-2.6,0.9-5.4,1.9-8.3,2.7c-0.2,0.1-0.4,0.1-0.7,0.2c0,0-0.1,0-0.1,0
		c-0.9,0.3-1.7,0.5-2.6,0.8c-4.4,1.3-9.1,2.4-13.9,3.4c2.5,9.4,4.7,19.2,6.6,29c5.3-1.2,10.8-2.4,15.9-3.9
		C133.2,90.5,141,87.8,147.6,84.9z"/>
	<path class="st3" d="M139.6,55.7c4.7,8.6,8.7,17.8,11.9,27.3c8.6-4.2,14.1-8.7,15.5-12.6c-0.3-0.8-0.7-1.7-1-2.5
		c-0.1-0.3-0.2-0.6-0.3-0.9c-0.5-1.2-1-2.3-1.6-3.5c-0.2-0.3-0.3-0.7-0.5-1c-0.4-0.8-0.7-1.6-1.1-2.3c-0.3-0.6-0.6-1.2-1-1.9
		c-0.2-0.5-0.5-0.9-0.7-1.4c-0.5-0.9-1-1.8-1.5-2.6c-0.1-0.1-0.2-0.3-0.2-0.4c-1.2-2-2.4-3.9-3.6-5.8c-0.4-0.6-0.8-1.2-1.2-1.8
		c-0.3-0.4-0.5-0.7-0.8-1.1c0,0-0.1-0.1-0.1-0.1C151.4,48.6,146.7,52.2,139.6,55.7z"/>
	<path class="st3" d="M7,130.8c2.3,2.1,5.8,3.5,8.8,4.5c-0.1-0.5-0.2-1-0.3-1.5c-0.1-0.3-0.1-0.7-0.2-1c-0.2-1.1-0.4-2.2-0.5-3.2
		c-0.2-1.1-0.3-2.1-0.4-3.2c0-0.3-0.1-0.7-0.1-1c-0.1-0.7-0.2-1.5-0.3-2.2c0-0.4-0.1-0.8-0.1-1.2c-0.1-0.7-0.1-1.3-0.2-2
		c0-0.4-0.1-0.9-0.1-1.3c0-0.6-0.1-1.3-0.1-1.9c0-0.5,0-0.9-0.1-1.4c0-0.6-0.1-1.2-0.1-1.8c0-0.5,0-0.9,0-1.4c0-0.6,0-1.2,0-1.8
		c0-0.5,0-1,0-1.4c0-0.6,0-1.2,0-1.7c0-0.5,0-1,0-1.5c0-0.4,0-0.9,0-1.3c-0.8-0.2-1.6-0.5-2.4-0.8c-4.5-1.6-7.2-3.4-8.7-5.2
		c0,1.4-0.1,2.9-0.1,4.3c0,2.9,0.3,6.9,0.4,8.4c0.2,3.4,0.7,7.6,1.3,10.7l0.4,1.9c0.2,1.3,0.5,2.7,0.8,4.1c0.3,0.8,0.8,1.8,1.7,2.8
		c0.1,0.1,0.1,0.1,0.2,0.2C6.9,130.7,6.9,130.7,7,130.8z"/>
	<path class="st3" d="M18.8,129.7c0.4,2.2,0.7,4.5,1.2,6.7c9.5,2.2,22.4,3.2,36.7,2.8c-0.2-1.1-0.4-2.2-0.5-3.3
		c-0.2-0.9-0.3-1.9-0.5-2.8c-1.2-8.2-2.1-16.6-2.7-24.9c-14.4,0.3-26.6-0.6-35.7-2.7C17.2,113.5,17.7,121.6,18.8,129.7z"/>
	<path class="st3" d="M108.5,130.9c-0.2-1.3-0.4-2.7-0.5-4.1c-0.1-0.4-0.1-0.8-0.2-1.1c0,0,0,0,0,0c0,0,0,0,0,0c0,0,0,0,0,0
		c0,0,0,0,0,0c0,0,0,0,0-0.1c0,0,0,0,0,0c0,0,0,0,0,0c0,0,0,0,0,0c0,0,0,0,0,0c-0.3-2.2-0.7-4.4-1-6.4c-0.8-5.1-1.7-10.4-2.7-16
		c-0.1-0.3-0.1-0.6-0.2-0.9c-15.3,3-31.1,4.9-45.7,5.6c0.6,8.6,1.5,16.9,2.7,24.6l0,0.2c0.3,2.1,0.7,4.2,1,6.3c0.2,0,0.5,0,0.7,0
		c1.6-0.1,3.2-0.2,4.9-0.3c0.6,0,1.3-0.1,2-0.1c1.2-0.1,2.4-0.2,3.6-0.3c9.9-0.8,20.2-2.2,30.6-4c1.7-0.3,3.4-0.6,5.1-1l0-0.1l0.1,0
		C108.7,132.4,108.6,131.7,108.5,130.9z"/>
	<path class="st2" d="M114.7,129.7c0.1,0.4,0.1,0.8,0.2,1.3c5.7-1.3,10.8-2.5,15.5-3.8c9-2.6,17-5.3,23.5-8.2
		c-0.2-2.1-0.5-4-0.8-5.8c0,0,0-0.1,0-0.1c-1.1-7.7-2.7-15.3-4.9-22.7c-6.3,2.7-13.9,5.3-22.6,7.8c-4.9,1.4-10,2.7-15.4,3.8
		c1.7,8.6,3,17.1,4,23.8C114.3,127.1,114.5,128.4,114.7,129.7z"/>
	<path class="st1" d="M114.1,132.1c6.1-1.3,11.5-2.7,16.5-4c9.4-2.7,17.5-5.5,24.3-8.5c-0.6-4.9-1.1-8.6-1.7-12
		c-0.1-0.6-0.2-1.3-0.3-1.9c-0.9-4.7-2-9.3-4-16.5c-6.5,2.9-14.3,5.6-23.4,8.2c-5.4,1.6-10.8,2.9-16.3,4c1.6,8.6,3,16.9,4.2,24.7
		C113.6,127.9,113.9,130,114.1,132.1z M125.5,98.1c8.7-2.4,16.2-5,22.6-7.8c2.2,7.4,3.8,15,4.9,22.7c0,0,0,0.1,0,0.1
		c0.4,1.8,0.6,3.7,0.8,5.8c-6.6,2.9-14.5,5.7-23.5,8.2c-4.6,1.3-9.7,2.6-15.5,3.8c-0.1-0.4-0.1-0.8-0.2-1.3c-0.2-1.3-0.4-2.6-0.5-4
		c-1-6.6-2.3-15.2-4-23.8C115.5,100.8,120.7,99.5,125.5,98.1z"/>
	<path class="st3" d="M152.8,87.1c2.3,7.8,4.2,16,5.5,24.4c0.3,2,0.6,4.1,0.8,6.1c9-4.5,14.5-9,15.9-13.1c-0.2-2.4-0.5-4.8-0.9-7.2
		c-1.2-7.6-3-15.1-5.4-22.2C166.3,79.1,160.9,83.2,152.8,87.1z"/>
	<path class="st3" d="M25.7,166.3c-0.1-0.2-0.2-0.4-0.3-0.6c-0.2-0.4-0.4-0.9-0.6-1.3c-0.3-0.7-0.6-1.4-0.9-2.1
		c-0.2-0.4-0.3-0.8-0.5-1.2c-0.4-0.9-0.7-1.7-1.1-2.6c-0.1-0.2-0.2-0.4-0.2-0.6c-2.2-5.7-4-11.8-5.5-18.2c-0.8-0.2-1.7-0.5-2.6-0.9
		c-3.1-1.1-5.6-2.4-7.4-3.8c0.3,1.3,0.7,2.6,1.1,3.7c1.2,3.7,2,6.2,3,8.7c0.6,1.5,1.4,3.3,2.4,5.8c0.2,0.4,0.4,0.9,0.6,1.3l3.1,6
		l0,0l0.1,0.2c1.2,2,3.9,3.8,8.1,5.3C25.3,166.2,25.5,166.3,25.7,166.3z"/>
	<path class="st3" d="M63.5,169.1c-0.1-0.5-0.3-0.9-0.4-1.4c-0.2-0.8-0.4-1.5-0.7-2.3c-0.1-0.3-0.2-0.6-0.3-1
		c-1.8-6.6-3.5-13.6-4.9-21.1c-5.4,0.2-10.6,0.1-15.5-0.1c-5.1-0.2-9.9-0.6-14.6-1.3c-2.2-0.3-4.3-0.7-6.2-1.1
		c2.2,9.6,5.3,18.6,9.4,26.9c7.9,1.8,18.7,2.7,30.8,2.6c0.2,0,0.4,0,0.6,0c0.5,0,1,0,1.5,0c0.2,0,0.4,0,0.6,0l0,0h0
		C63.7,169.9,63.6,169.5,63.5,169.1z"/>
	<path class="st3" d="M70.6,170.1c13.2-0.7,27.4-2.4,41.3-5.1c0.1,0,0.1,0,0.2,0c-0.5-6.9-1.2-14.3-2.1-22.1
		c-0.2-1.8-0.4-3.5-0.7-5.3c-16,3.1-32.1,5-46.6,5.7c1.8,9.7,3.9,18.7,6.4,26.9C69.5,170.1,70.1,170.1,70.6,170.1z"/>
	<path class="st3" d="M155,150.3c0.1-0.5,0.1-0.9,0.2-1.4c0.1-0.7,0.1-1.4,0.2-2.2c0-0.5,0.1-1,0.1-1.5c0-0.2,0-0.4,0-0.6
		c0.5-6.8,0.4-13.7-0.2-20.6c-6.8,2.9-14.9,5.7-23.9,8.3c-4.9,1.4-10.4,2.7-16.8,4.1c1.2,9.8,2,19,2.5,27.3
		c5.9-1.3,10.7-2.5,15.1-3.7c8.4-2.3,16-5,22.5-7.9C154.9,151.5,154.9,150.9,155,150.3z"/>
	<path class="st3" d="M159.5,122.1c0.8,9.7,0.6,19.1-0.5,28.1c8-4,12.9-8.2,14.1-11.9c2.1-12.4,2.5-16.8,2.2-27.6
		C172.5,114.5,167.2,118.3,159.5,122.1z"/>
	<path class="st3" d="M38.8,187.1c-0.6-0.8-1.3-1.6-1.9-2.4c-0.1-0.1-0.2-0.2-0.2-0.3c-3.2-4.2-6.1-8.7-8.7-13.6
		c-0.8-0.3-1.6-0.5-2.4-0.8c-1.6-0.6-3-1.2-4.2-1.9l0.2,0.3c0.5,0.7,0.9,1.4,1.3,1.9c0.4,0.6,0.9,1.2,1.3,1.9c0.3,0.5,0.6,0.9,1,1.4
		c1.2,1.6,2.8,3.6,6,7.5c1.1,1.2,2.5,2.6,3.8,4.1c0.7,0.8,1.4,1.5,2.1,2.2c0.1,0.1,0.1,0.1,0.2,0.2c0.1,0.1,0.3,0.2,0.4,0.4
		c0.1,0.1,0.2,0.2,0.3,0.3c0.2,0.2,0.4,0.3,0.7,0.5c0.1,0.1,0.2,0.1,0.3,0.2c0.2,0.1,0.4,0.2,0.7,0.4c0.1,0.1,0.2,0.1,0.3,0.2
		c0.3,0.2,0.7,0.3,1,0.5c0,0,0.1,0,0.1,0c-0.7-0.7-1.3-1.5-2-2.3C39,187.4,38.9,187.3,38.8,187.1z"/>
	<path class="st3" d="M73.2,193.6c-0.1-0.1-0.1-0.3-0.2-0.4c-0.2-0.3-0.3-0.7-0.5-1c-0.2-0.5-0.5-1-0.7-1.5
		c-0.1-0.3-0.3-0.6-0.4-0.9c-0.3-0.7-0.6-1.3-0.9-2c0-0.1-0.1-0.2-0.1-0.3c-1.9-4.2-3.6-8.7-5.2-13.5c-0.3,0-0.5,0-0.8,0
		c-0.4,0-0.8,0-1.2,0c-0.5,0-1,0-1.5,0c-0.3,0-0.5,0-0.8,0c-0.6,0-1.2,0-1.8,0c-0.2,0-0.3,0-0.5,0c-0.7,0-1.4,0-2,0
		c-0.1,0-0.2,0-0.2,0c-0.7,0-1.4,0-2.1,0c0,0-0.1,0-0.1,0c-0.7,0-1.5,0-2.2-0.1c0,0,0,0,0,0c-0.7,0-1.5-0.1-2.2-0.1c0,0,0,0,0,0
		c-0.7,0-1.4-0.1-2.1-0.1c0,0,0,0,0,0c-0.7,0-1.3-0.1-2-0.1c0,0-0.1,0-0.1,0c-0.6-0.1-1.3-0.1-1.9-0.2c0,0-0.1,0-0.1,0
		c-0.6-0.1-1.2-0.1-1.7-0.2c-0.1,0-0.2,0-0.2,0c-0.5-0.1-1.1-0.1-1.6-0.2c-0.1,0-0.2,0-0.3,0c-0.5-0.1-1-0.1-1.4-0.2
		c-0.1,0-0.3,0-0.4-0.1c-0.4-0.1-0.9-0.1-1.3-0.2c-0.2,0-0.3-0.1-0.5-0.1c-0.4-0.1-0.8-0.1-1.2-0.2c-0.2,0-0.3-0.1-0.5-0.1
		c-0.6-0.1-1.1-0.2-1.7-0.3c0.5,0.9,1,1.8,1.5,2.8c0.2,0.3,0.4,0.7,0.6,1c0.3,0.6,0.7,1.1,1,1.7c0.2,0.4,0.5,0.8,0.7,1.1
		c0.3,0.5,0.6,1,1,1.5c0.3,0.4,0.5,0.8,0.8,1.2c0.3,0.5,0.6,0.9,1,1.4c0.3,0.4,0.6,0.8,0.9,1.2c0.3,0.4,0.6,0.9,1,1.3
		c0.3,0.4,0.6,0.7,0.9,1.1c0.3,0.4,0.7,0.8,1,1.3c0.3,0.4,0.6,0.7,0.9,1.1c0.4,0.4,0.7,0.8,1.1,1.2c0.3,0.3,0.6,0.7,0.9,1
		c0.3,0.3,0.6,0.6,0.9,1C53.1,193.1,62.4,193.8,73.2,193.6z"/>
	<path class="st3" d="M112.9,183.7c0-0.4,0-0.7,0-1.1c0-0.8,0-1.6,0-2.4c0-0.1,0-0.3,0-0.4c0-0.8,0-1.7-0.1-2.6c0-0.3,0-0.7,0-1
		c0-0.6,0-1.2-0.1-1.9c0-0.4,0-0.8-0.1-1.2c0-0.6-0.1-1.2-0.1-1.8c0-0.4,0-0.9-0.1-1.3c0-0.4,0-0.8-0.1-1.3
		c-0.8,0.1-1.5,0.3-2.3,0.4c-0.8,0.2-1.6,0.3-2.4,0.5c-1,0.2-2,0.3-2.9,0.5c-0.8,0.1-1.6,0.3-2.4,0.4c-1,0.2-2,0.3-3,0.5
		c-0.8,0.1-1.6,0.2-2.4,0.4c-1,0.1-2,0.3-3,0.4c-0.8,0.1-1.6,0.2-2.4,0.3c-1,0.1-2,0.2-3.1,0.3c-0.8,0.1-1.6,0.2-2.4,0.3
		c-1.1,0.1-2.1,0.2-3.2,0.3c-0.7,0.1-1.5,0.1-2.2,0.2c-1.1,0.1-2.3,0.2-3.4,0.3c-0.7,0-1.3,0.1-2,0.1c-1.8,0.1-3.6,0.2-5.3,0.3
		c0.3,1,0.6,1.9,0.9,2.8c0.1,0.3,0.2,0.6,0.3,1c0.2,0.6,0.4,1.2,0.6,1.8c0.1,0.4,0.3,0.7,0.4,1.1c0.2,0.5,0.4,1,0.6,1.5
		c0.1,0.4,0.3,0.8,0.4,1.1c0.2,0.5,0.4,1,0.6,1.4c0.2,0.4,0.3,0.7,0.5,1.1c0.2,0.4,0.4,0.9,0.6,1.3c0.2,0.4,0.3,0.7,0.5,1.1
		c0.2,0.4,0.4,0.9,0.6,1.3c0.2,0.3,0.3,0.7,0.5,1c0.2,0.4,0.4,0.8,0.6,1.3c0.2,0.3,0.3,0.6,0.5,0.9c0.2,0.3,0.3,0.6,0.5,0.9
		c11.2-0.4,23.3-1.9,34.9-4.2c0-1.4,0.1-2.9,0.1-4.5C112.9,184.5,112.9,184.1,112.9,183.7z"/>
	<path class="st3" d="M129.2,185.4c7.2-2.1,13.3-4.2,18.2-6.4c1.4-3.4,2.4-5.9,3.2-8.4c0.1-0.4,0.3-0.9,0.4-1.3
		c0.2-0.5,0.3-1.1,0.5-1.6c0.1-0.4,0.2-0.8,0.4-1.3c0.7-2.7,1.3-5.7,2.2-10c-0.1,0.1-0.3,0.1-0.4,0.2c-0.4,0.2-0.7,0.3-1.1,0.5
		c-0.5,0.2-1,0.4-1.4,0.6c-0.4,0.2-0.8,0.3-1.2,0.5c-0.5,0.2-1,0.4-1.4,0.6c-0.4,0.2-0.8,0.3-1.2,0.5c-0.5,0.2-1,0.4-1.5,0.5
		c-0.4,0.2-0.8,0.3-1.3,0.5c-0.5,0.2-1,0.4-1.5,0.5c-0.4,0.1-0.9,0.3-1.3,0.4c-0.5,0.2-1.1,0.4-1.6,0.5c-0.4,0.1-0.8,0.3-1.3,0.4
		c-0.6,0.2-1.2,0.4-1.9,0.6c-0.4,0.1-0.7,0.2-1.1,0.3c-1,0.3-2,0.6-3,0.9c-4.9,1.4-10,2.7-15.3,3.7c0.3,8,0.3,15-0.1,20.7
		C121.1,187.6,125,186.6,129.2,185.4z"/>
	<path class="st3" d="M152,176.7c4.8-2.6,8.1-5.3,9.5-7.6l0.1-0.1l0,0l0.6-1.1l-0.1-0.1l0.1-0.1l0,0c0.2-0.4,0.4-0.8,0.6-1.1
		c2.8-5.6,3.8-7.7,5.2-11.3c0.5-1.4,1.1-3.1,1.9-5.3c0.3-0.8,0.5-1.7,0.8-2.5c0.1-0.4,0.2-0.9,0.4-1.4c-2.8,2.8-7.1,5.7-12.8,8.5
		C157,162.5,154.9,169.9,152,176.7z"/>
	<path class="st3" d="M45,194.2c-0.1,0-0.1,0-0.2,0c0.5,0.4,0.9,0.7,1.4,1c-0.3-0.3-0.7-0.6-1-0.9C45.1,194.2,45,194.2,45,194.2z"/>
	<path class="st3" d="M83.2,208C83.2,208,83.2,208,83.2,208L83.2,208l0.1,0c-2.8-2.8-5.6-6.3-8.1-10.7c-0.1-0.1-0.2-0.2-0.2-0.4
		c-0.3,0-0.6,0-0.9,0c-0.8,0-1.6,0-2.4,0c-0.5,0-1.1,0-1.6,0c-0.6,0-1.2,0-1.7,0c-0.9,0-1.7,0-2.6-0.1c-0.2,0-0.4,0-0.6,0
		c-5.5-0.2-10.3-0.7-14.5-1.4c5.1,4.7,10.8,8.4,16.7,11.1C71.4,207.6,76.8,208.1,83.2,208C83.1,208,83.2,208,83.2,208z"/>
	<path class="st3" d="M88,207.9c0.4,0,0.8,0,1.1-0.1c0.5,0,1.1-0.1,1.6-0.1c0.1,0,0.1,0,0.2,0c6.3-0.4,12.9-1.2,19.4-2.5
		c0.2,0,0.4-0.1,0.6-0.1c0-0.2,0.1-0.3,0.1-0.5c0-0.2,0.1-0.4,0.1-0.6c0.1-0.3,0.1-0.5,0.2-0.8c0-0.2,0.1-0.4,0.1-0.6
		c0,0,0-0.1,0-0.1c0.4-2.3,0.7-5.1,1-8.4c0-0.5,0.1-0.9,0.1-1.4c0,0,0,0,0,0c-11,2.1-22.4,3.5-33,4.1
		C82.3,201.5,85.1,205.3,88,207.9z"/>
	<path class="st3" d="M129.4,188.8c-4,1.1-8.1,2.1-12.2,3c-0.4,5.1-1.2,9.2-2.1,12.4c2.5-0.6,4.9-1.1,6.9-1.7
		c4.5-1.3,8.5-2.7,12.1-4.3c4.3-4,8.1-9,11.3-14.9C140.6,185.3,135.3,187.1,129.4,188.8z"/>
	<path class="st3" d="M148.2,184.3c-0.2,0.3-0.3,0.6-0.5,0.9c-0.4,0.7-0.8,1.3-1.2,2c-0.2,0.3-0.4,0.7-0.6,1
		c-0.4,0.6-0.8,1.2-1.2,1.8c-0.2,0.3-0.4,0.6-0.7,0.9c-0.4,0.6-0.9,1.2-1.4,1.8c-0.1,0.2-0.3,0.4-0.4,0.6l1.9-1.7
		c4.4-4.2,4.8-4.7,9.8-10.8l0.4-0.5c0.5-0.7,1.1-1.5,1.7-2.3c-1.8,1.2-3.8,2.3-6.2,3.5C149.3,182.4,148.8,183.4,148.2,184.3z"/>
	<path class="st3" d="M84.4,210.5c-0.3,0-0.7,0-1.1,0c-0.3,0-0.6,0-0.9,0c-0.7,0-1.4,0-2.1,0c0,0-0.1,0-0.1,0
		c1.4,0.3,2.2,0.4,5.3,0.8c1,0.1,1.5,0.2,2.3,0.2c-0.5-0.3-1-0.7-1.5-1C85.7,210.5,85.1,210.5,84.4,210.5z"/>
	<path class="st3" d="M96,211.8h0.7l0,0c1.4-0.1,3.4-0.2,5.6-0.5c0.3,0,0.6-0.1,1-0.1c0.2,0,0.4-0.1,0.6-0.1
		c0.7-0.1,0.9-0.2,2.6-0.4l0.5-0.1c0.1,0,0.2-0.1,0.2-0.1l0-0.1c0.4,0,0.7-0.1,1.1-0.3c0.5-0.4,1-1,1.5-2c0,0,0-0.1,0-0.1
		c-6.3,1.1-12.6,1.9-18.5,2.3C92.9,211.3,94.5,211.7,96,211.8z"/>
	<path class="st3" d="M118.6,206.1c-0.5,0.1-1,0.3-1.5,0.4c-0.8,0.2-1.6,0.4-2.5,0.6c-0.2,0-0.4,0.1-0.6,0.1
		c-0.3,0.6-0.6,1.2-0.9,1.7c0,0.1-0.1,0.2-0.1,0.2c0,0,0,0,0,0c0,0,0.1,0,0.1,0c1-0.3,2-0.6,2.8-0.9l-0.1-0.4c2-0.4,4.1-1.1,6.2-1.9
		c0.9-0.4,1.9-0.9,3.1-1.4c0,0,0,0,0,0c0.5-0.2,0.9-0.5,1.4-0.8c-1.4,0.4-2.9,0.9-4.5,1.3C120.8,205.5,119.7,205.8,118.6,206.1z"/>
	<path class="st4" d="M177.7,110.3c0-2-0.1-4.1-0.2-6.1l0-0.9c-0.1-2.7-0.6-6.3-1-9.1c-0.2-1.6-0.9-5.8-1.6-9
		c-0.5-2.5-1.4-5.8-2.1-8.4c-0.2-0.7-0.5-1.4-0.7-2.3c-0.6-2-1.3-4.2-2-6c-2.6-7.3-5.7-13.3-6.9-15.6c-0.3-0.6-0.7-1.2-1-1.8
		c-1-1.7-2-3.6-3-5.1c-0.9-1.4-2-3.1-3.1-4.8c-0.5-0.8-1-1.5-1.5-2.2l-0.3-0.4h-0.1c-0.1-0.1-0.2-0.2-0.3-0.3
		c-1.3-1.7-4.8-6.3-9.7-11.4c-1.5-1.5-3.6-3.6-5.4-5.1c-2.2-1.8-5.1-4.1-6.2-5c-1.6-1.3-3.8-2.7-5.7-4c-2.1-1.2-4.7-2.8-6.9-3.9
		c-1.5-0.8-3.2-1.5-4.8-2.2c-1.8-0.8-3.6-1.6-5.5-2.2l0,0c0,0,0,0,0,0c-0.6-0.2-1.4-0.4-2.2-0.7c-0.8-0.3-1.6-0.5-2.2-0.7
		c-2.1-0.6-4.4-1.2-6-1.5C96.7,1,93.2,0.3,87.5,0c-1.8-0.1-6-0.2-10.8,0.3c-5,0.6-9.2,1.5-10.7,1.9c-2.7,0.7-3.4,0.9-6.1,1.8
		c-1.2,0.4-2.7,1-4,1.5l-0.6,0.2c-3.8,1.6-7.8,3.8-9.3,4.8c-2.5,1.6-5.1,3.3-7,4.7c-1.6,1.1-3.6,2.8-5.2,4.2c-2.3,1.9-5,4.8-7.1,7.1
		c-0.1,0.1-7.2,7.7-13.2,18.8c-1.4,2.5-2.9,5.4-3.8,7.7C9.4,53.9,9,54.9,8.6,56C8,57.4,7.4,58.9,7,60.1c-0.7,1.9-1.6,4.7-2.6,8.2
		c-1.4,5-2.6,12-3.2,15.8c-0.4,2.2-0.6,5.2-0.8,7.6l-0.1,1.4C0.1,95.1,0,98.9,0,102c0,1.6,0.1,3.6,0.2,5.5c0.1,1.1,0.1,2.1,0.2,3
		c0.1,2.1,0.4,5.2,1,9.2l0.1,0.6c0.4,2.5,0.9,5.6,1.4,7.8c0.4,1.7,0.7,3.2,1.1,4.5c0.5,2.2,1.2,4.8,1.9,6.8
		c2.2,6.8,3.3,9.8,6.1,16.1c3.3,7,6.7,12.4,7.8,14.1c0.1,0.1,0.1,0.2,0.2,0.3l0.2,0.3c0.7,0.9,1.5,2,2.2,3.1
		c0.8,1.1,1.6,2.2,2.3,3.2c1.7,2.2,3.9,5,5.5,6.8c5.1,5.7,9.1,9.2,12,11.5c0.1,0.1,0.2,0.2,0.3,0.2c2.2,1.7,7,5.3,11,7.6
		c1.3,0.7,2.8,1.5,4.3,2.2c1.6,0.8,3.2,1.6,4.6,2.3c1.4,0.6,3.2,1.3,4.6,1.8l0.9,0.3c1.8,0.6,4.2,1.4,6.1,1.9l4.3,1
		c0.8,0.2,1.9,0.4,2.8,0.5c0.4,0.1,0.7,0.1,1.1,0.2l0.3,0c0.9,0.1,3.2,0.5,5.5,0.7l0.5,0c0.4,0,0.8,0,1.2,0.1
		c1.2,0.1,2.6,0.1,4.8,0.1c0.2,0,0.4,0,0.7,0c2,0,6.5-0.2,11.8-1.2c2.2-0.4,6.8-1.4,12.4-3.4c2.9-1.1,5.4-2.2,7.5-3.3
		c3-1.5,5-2.8,6.1-3.4c0.1,0,0.1-0.1,0.2-0.1c5.8-3.6,10.1-7.5,12-9.1l0.3-0.3c1.6-1.4,3.4-3.3,5-5c0.5-0.5,1-1.1,1.4-1.5
		c1.3-1.4,2.9-3.5,4.1-5.1c1.9-2.4,3.5-4.8,4.8-6.9c1.8-2.9,3.1-5.2,3.7-6.3c0.1-0.3,3.5-6.5,6.5-14.7c1.3-3.8,3.1-9.1,4.5-16.3
		c1.1-5.4,1.8-11.1,2.1-16.8C177.8,117.3,177.7,113.7,177.7,110.3z M174.1,97.4c0.4,2.4,0.7,4.8,0.9,7.2c-1.5,4.1-6.9,8.6-15.9,13.1
		c-0.2-2-0.5-4.1-0.8-6.1c-1.3-8.5-3.1-16.7-5.5-24.4c8.1-3.9,13.5-8,15.9-12C171.2,82.3,173,89.7,174.1,97.4z M117.4,167.6
		c5.3-1.1,10.5-2.3,15.3-3.7c1-0.3,2-0.6,3-0.9c0.4-0.1,0.7-0.2,1.1-0.3c0.6-0.2,1.3-0.4,1.9-0.6c0.4-0.1,0.8-0.3,1.3-0.4
		c0.5-0.2,1.1-0.4,1.6-0.5c0.4-0.1,0.9-0.3,1.3-0.4c0.5-0.2,1-0.4,1.5-0.5c0.4-0.1,0.8-0.3,1.3-0.5c0.5-0.2,1-0.4,1.5-0.5
		c0.4-0.2,0.8-0.3,1.2-0.5c0.5-0.2,1-0.4,1.4-0.6c0.4-0.2,0.8-0.3,1.2-0.5c0.5-0.2,1-0.4,1.4-0.6c0.4-0.2,0.7-0.3,1.1-0.5
		c0.1-0.1,0.3-0.1,0.4-0.2c-0.8,4.3-1.5,7.3-2.2,10c-0.1,0.4-0.2,0.9-0.4,1.3c-0.2,0.5-0.3,1.1-0.5,1.6c-0.1,0.4-0.3,0.9-0.4,1.3
		c-0.8,2.5-1.8,5-3.2,8.4c-4.9,2.2-11,4.3-18.2,6.4c-4.2,1.2-8.1,2.1-11.8,2.9C117.8,182.6,117.8,175.7,117.4,167.6z M132.3,160
		c-4.4,1.2-9.2,2.4-15.1,3.7c-0.5-8.3-1.3-17.5-2.5-27.3c6.4-1.4,11.9-2.7,16.8-4.1c9-2.6,17-5.4,23.9-8.3
		c0.6,6.9,0.6,13.8,0.2,20.6c0,0.2,0,0.4,0,0.6c0,0.5-0.1,1-0.1,1.5c-0.1,0.7-0.1,1.5-0.2,2.2c0,0.5-0.1,0.9-0.2,1.4
		c-0.1,0.6-0.1,1.2-0.2,1.8C148.3,155.1,140.8,157.7,132.3,160z M63.8,170.3c-0.2,0-0.4,0-0.6,0c-0.5,0-1,0-1.5,0
		c-0.2,0-0.4,0-0.6,0c-12.1,0.1-22.9-0.8-30.8-2.6c-4-8.3-7.2-17.3-9.4-26.9c1.9,0.4,4,0.8,6.2,1.1c4.7,0.7,9.5,1.1,14.6,1.3
		c4.9,0.2,10.1,0.3,15.5,0.1c1.4,7.4,3.1,14.5,4.9,21.1c0.1,0.3,0.2,0.6,0.3,1c0.2,0.8,0.4,1.5,0.7,2.3c0.1,0.5,0.3,0.9,0.4,1.4
		C63.6,169.5,63.7,169.9,63.8,170.3L63.8,170.3L63.8,170.3z M108.7,133.3c-1.7,0.3-3.4,0.6-5.1,1c-10.4,1.8-20.8,3.2-30.6,4
		c-1.2,0.1-2.4,0.2-3.6,0.3c-0.7,0-1.3,0.1-2,0.1c-1.6,0.1-3.3,0.2-4.9,0.3c-0.2,0-0.5,0-0.7,0c-0.3-2.1-0.7-4.2-1-6.3l0-0.2
		c-1.2-7.7-2.1-16-2.7-24.6c14.6-0.6,30.4-2.6,45.7-5.6c0.1,0.3,0.1,0.6,0.2,0.9c1,5.5,1.9,10.8,2.7,16c0.3,2.1,0.7,4.2,1,6.4
		c0,0,0,0,0,0c0,0,0,0,0,0c0,0,0,0,0,0c0,0,0,0,0,0c0,0,0,0,0,0.1c0,0,0,0,0,0c0,0,0,0,0,0c0,0,0,0,0,0c0,0,0,0,0,0
		c0.1,0.4,0.1,0.8,0.2,1.1c0.2,1.4,0.4,2.7,0.5,4.1c0.1,0.8,0.2,1.5,0.3,2.3l-0.1,0L108.7,133.3z M62.1,73.5c0.6,0,1.2-0.1,1.8-0.1
		c1.1-0.1,2.1-0.1,3.2-0.2c0.7-0.1,1.4-0.1,2.1-0.2c1-0.1,1.9-0.2,2.9-0.3c0.7-0.1,1.5-0.2,2.2-0.3c0.9-0.1,1.9-0.2,2.8-0.3
		c0.8-0.1,1.5-0.2,2.3-0.3c0.9-0.1,1.8-0.2,2.8-0.4c0.8-0.1,1.5-0.2,2.3-0.3c0.9-0.1,1.8-0.3,2.7-0.4c0.8-0.1,1.5-0.3,2.3-0.4
		c0.9-0.2,1.8-0.3,2.7-0.5c0.8-0.1,1.5-0.3,2.3-0.4c0.7-0.1,1.5-0.3,2.2-0.4c0.1,0.5,0.3,1.1,0.4,1.6c0.1,0.4,0.2,0.8,0.3,1.2
		c0.2,0.7,0.3,1.4,0.5,2.2c0.1,0.4,0.2,0.9,0.3,1.3c0.2,0.7,0.3,1.4,0.5,2.1c0.1,0.5,0.2,1,0.3,1.4c0.2,0.8,0.3,1.5,0.5,2.3
		c0.1,0.5,0.2,0.9,0.3,1.4c0.3,1.2,0.5,2.5,0.8,3.7c0.1,0.5,0.2,1,0.3,1.5c0.2,0.8,0.3,1.6,0.5,2.4c0.1,0.6,0.2,1.1,0.3,1.7
		c0.1,0.6,0.3,1.2,0.4,1.9c0.3,1.4,0.6,2.8,0.8,4.2c-0.7,0.1-1.5,0.3-2.2,0.4c-13.9,2.6-28.6,4.4-42.8,5.1c0,0-0.1,0-0.1,0
		c-0.1-1.3-0.1-2.7-0.2-4c-0.1-1.1-0.1-2.2-0.2-3.3c-0.1-1.5-0.1-3-0.1-4.5c0-1-0.1-2.1-0.1-3.1c0-1.6,0-3.2,0-4.8
		c0-0.9,0-1.8,0-2.7c0-2.5,0-4.9,0.1-7.3C58.9,73.7,60.5,73.6,62.1,73.5z M57.4,69.6c0-0.4,0-0.7,0-1.1c0-0.7,0.1-1.3,0.1-2
		c0-0.4,0-0.8,0.1-1.2c0-0.8,0.1-1.5,0.1-2.3c0-0.3,0-0.7,0.1-1c0.1-0.8,0.1-1.6,0.2-2.4c0-0.3,0.1-0.6,0.1-0.9
		c0.1-0.8,0.1-1.6,0.2-2.4c0-0.3,0.1-0.6,0.1-0.9c0.1-0.8,0.2-1.6,0.2-2.3c0-0.4,0.1-0.7,0.1-1.1c0.1-0.7,0.2-1.4,0.2-2.2
		c0.1-0.4,0.1-0.9,0.2-1.3c0.1-0.6,0.2-1.3,0.2-1.9c0.1-0.6,0.2-1.1,0.2-1.7c0.1-0.5,0.1-1,0.2-1.5c9.7-0.4,19.7-1.7,29-3.5
		c0.8,2.6,1.6,5.2,2.4,8c0.3,1,0.5,1.9,0.8,2.9c0.2,0.7,0.4,1.4,0.6,2c0.5,1.7,0.9,3.4,1.4,5.1c0,0.1,0,0.1,0,0.2
		c0.1,0.2,0.1,0.5,0.2,0.7c0.5,1.8,0.9,3.7,1.4,5.5c0,0.2,0.1,0.3,0.1,0.5c-0.5,0.1-1,0.2-1.5,0.3c-1.1,0.2-2.2,0.4-3.4,0.6
		c0,0,0,0,0,0c-9.4,1.6-18.8,2.8-27.8,3.4c-0.4,0-0.8,0.1-1.2,0.1c-0.9,0.1-1.8,0.1-2.7,0.1C58.6,69.6,58,69.6,57.4,69.6z M108.3,97
		c-1.9-9.8-4.2-19.6-6.6-29c4.8-1,9.5-2.1,13.9-3.4c0.9-0.3,1.8-0.5,2.6-0.8c0,0,0.1,0,0.1,0c0.2-0.1,0.4-0.1,0.7-0.2
		c2.9-0.9,5.6-1.8,8.3-2.7c0,0,0.1,0,0.1,0c0.6-0.2,1.2-0.4,1.7-0.6c2.5-0.9,4.7-1.8,6.8-2.7c0.5,0.9,1,1.8,1.4,2.7
		c4.8,9.5,6.4,13.7,10.2,24.7c-6.5,2.9-14.4,5.7-23.3,8.2C119.1,94.5,113.6,95.8,108.3,97z M114.2,60.6c-4.5,1.2-9.1,2.3-13.7,3.4
		c-2.4-9-4.9-17.2-7.5-24.6c3.4-0.7,6.8-1.6,10-2.5c5.5-1.5,10.6-3.3,15.2-5.3c2.1,2.4,4.2,5,6.2,7.6c3.3,4.5,6.5,9.3,9.4,14.4
		C128.4,56.2,121.8,58.5,114.2,60.6z M101.6,33.3c-3.5,1-6.8,1.8-9.9,2.4c-0.1-0.3-0.3-0.7-0.4-1c-0.2-0.4-0.3-0.9-0.5-1.3
		c-0.2-0.5-0.4-0.9-0.5-1.4c-0.2-0.4-0.3-0.8-0.5-1.2c-0.2-0.5-0.4-0.9-0.5-1.4c-0.2-0.4-0.3-0.8-0.5-1.2c-0.2-0.5-0.4-0.9-0.5-1.3
		c-0.1-0.3-0.3-0.7-0.4-1c-0.2-0.5-0.4-0.9-0.6-1.3c-0.1-0.3-0.3-0.6-0.4-0.9c-0.2-0.5-0.4-0.9-0.6-1.4c-0.1-0.2-0.2-0.5-0.3-0.8
		c-0.3-0.6-0.5-1.1-0.8-1.7c-0.1-0.1-0.1-0.2-0.2-0.3c-0.3-0.6-0.6-1.3-0.9-1.9c1.6-0.3,3.2-0.8,4.9-1.3c3.2-0.9,6-1.8,8.2-2.8
		c0.2,0.1,0.4,0.3,0.7,0.4c1.5,1,2.7,1.8,3.9,2.6c4.7,3.4,9.3,7.4,13.6,12C111.8,30.2,107.1,31.8,101.6,33.3z M87.7,36.6
		c-0.5,0.1-0.9,0.2-1.4,0.3c-0.5,0.1-1,0.2-1.5,0.3c-0.7,0.1-1.4,0.2-2.2,0.4c-0.5,0.1-0.9,0.2-1.4,0.2c-0.8,0.1-1.7,0.3-2.5,0.4
		c-0.4,0.1-0.7,0.1-1.1,0.2c-1.2,0.2-2.4,0.3-3.6,0.5c-0.2,0-0.3,0-0.5,0.1c-1,0.1-2,0.2-3.1,0.3c-0.4,0-0.8,0.1-1.3,0.1
		c-0.8,0.1-1.5,0.1-2.3,0.2c-0.5,0-1,0.1-1.5,0.1c-0.7,0.1-1.4,0.1-2.1,0.2c-0.5,0-1,0.1-1.5,0.1c-0.5,0-0.9,0-1.3,0.1
		c0.1-0.4,0.1-0.8,0.2-1.2c0.1-0.3,0.1-0.6,0.2-0.9c0.1-0.5,0.2-1,0.3-1.5c1.2-5.9,2.6-11.3,4.3-16.1c0.1,0,0.1,0,0.2,0
		c1.2-0.1,2.3-0.1,3.4-0.2c0.1,0,0.2,0,0.2,0c4.4-0.4,8-0.9,11.3-1.5c0.1,0,0.3,0,0.4-0.1C83.1,23.3,85.4,29.4,87.7,36.6z
		 M59.3,28.6c0,0.1,0,0.2-0.1,0.2c-0.2,0.8-0.5,1.6-0.7,2.5c0,0.1-0.1,0.2-0.1,0.3c-0.5,1.9-1,3.8-1.4,5.8c-0.1,0.3-0.1,0.7-0.2,1
		c-0.1,0.5-0.2,1.1-0.4,1.6c-0.6,0-1.2,0-1.8,0c-0.3,0-0.7,0-1,0c-2.2,0-4.3,0-6.3-0.1c-0.2,0-0.4,0-0.6,0c-0.8,0-1.5-0.1-2.3-0.1
		c-0.3,0-0.6-0.1-0.9-0.1c-0.6-0.1-1.2-0.1-1.8-0.2c-0.3,0-0.7-0.1-1-0.1c-0.5-0.1-1.1-0.1-1.6-0.2c-0.3,0-0.7-0.1-1-0.2
		c-0.5-0.1-1-0.2-1.4-0.2c-0.3-0.1-0.6-0.1-0.9-0.2c-0.2,0-0.4-0.1-0.5-0.1c0.2-0.3,0.4-0.6,0.6-0.9c0.3-0.5,0.6-0.9,0.8-1.3
		c0.3-0.5,0.7-1,1-1.5c0.3-0.4,0.6-0.9,0.9-1.3c0.3-0.5,0.7-1,1-1.4c0.3-0.4,0.6-0.8,0.9-1.2c0.4-0.5,0.7-0.9,1.1-1.4
		c0.3-0.4,0.6-0.8,0.9-1.1c0.4-0.5,0.8-0.9,1.1-1.4c0.3-0.4,0.6-0.7,0.9-1.1c0.4-0.5,0.8-0.9,1.2-1.4c0.3-0.3,0.5-0.6,0.8-0.9
		c0.5-0.5,1-1,1.4-1.5c0.2-0.2,0.4-0.5,0.7-0.7c0.7-0.7,1.4-1.4,2.1-2.1c0.4,0.1,0.9,0.2,1.4,0.3c0.1,0,0.1,0,0.2,0
		c0.4,0.1,0.8,0.1,1.3,0.2c0.1,0,0.1,0,0.2,0c0.4,0.1,0.8,0.1,1.3,0.2c0.1,0,0.2,0,0.3,0c0.4,0,0.8,0.1,1.2,0.1c0.1,0,0.3,0,0.4,0
		c0.4,0,0.7,0,1.1,0.1c0.2,0,0.4,0,0.6,0c0.3,0,0.6,0,0.9,0c0.3,0,0.5,0,0.8,0c0.3,0,0.6,0,0.9,0c0.3,0,0.5,0,0.8,0c0,0,0.1,0,0.1,0
		C61.2,22.8,60.2,25.6,59.3,28.6z M46.9,43.8c0.2,0,0.3,0,0.5,0c0.8,0,1.7,0.1,2.6,0.1c0.4,0,0.7,0,1.1,0c0.7,0,1.3,0,2,0
		c0.6,0,1.2,0,1.8,0c0.3,0,0.6,0,0.9,0C54.5,51,53.6,58.7,53,66.7c0,0.4-0.1,0.8-0.1,1.2c0,0.6-0.1,1.2-0.1,1.8
		c-11.9,0.3-22.1-0.4-29.9-2.2c2.6-9,6.1-17.5,10.4-25.4C37.1,43,41.7,43.5,46.9,43.8z M52.6,73.9c-0.2,4-0.3,8.1-0.3,12.4
		c0,0.1,0,0.1,0,0.2c0,5.6,0.1,11.4,0.5,17.2h0l0,0c-14.3,0.4-26.5-0.5-35.4-2.6c0.5-10.1,2-20,4.4-29.5
		C29.6,73.5,40.2,74.3,52.6,73.9z M53,108.1c0.5,8.3,1.4,16.7,2.7,24.9c0.2,0.9,0.3,1.9,0.5,2.8c0.2,1.1,0.4,2.2,0.5,3.3
		c-14.3,0.4-27.2-0.6-36.7-2.8c-0.4-2.2-0.8-4.5-1.2-6.7c-1.1-8.1-1.6-16.2-1.5-24.2C26.3,107.5,38.6,108.5,53,108.1z M62.6,143.2
		c14.6-0.6,30.7-2.6,46.6-5.7c0.2,1.8,0.5,3.5,0.7,5.3c0.9,7.8,1.6,15.2,2.1,22.1c-0.1,0-0.1,0-0.2,0c-13.9,2.7-28.1,4.4-41.3,5.1
		c-0.5,0-1.1,0.1-1.6,0.1C66.5,162,64.4,152.9,62.6,143.2z M109.1,101.2c5.5-1.1,10.9-2.5,16.3-4c9.1-2.5,16.9-5.3,23.4-8.2
		c2,7.2,3.1,11.8,4,16.5c0.1,0.6,0.2,1.3,0.3,1.9c0.6,3.4,1.1,7.1,1.7,12c-6.7,3-14.9,5.9-24.3,8.5c-5,1.4-10.4,2.7-16.5,4
		c-0.3-2-0.5-4.1-0.9-6.2C112.1,118.1,110.7,109.8,109.1,101.2z M153.5,45.2c0.3,0.4,0.5,0.7,0.8,1.1c0.4,0.6,0.8,1.2,1.2,1.8
		c1.3,1.9,2.5,3.8,3.6,5.8c0.1,0.1,0.2,0.3,0.2,0.4c0.5,0.9,1,1.7,1.5,2.6c0.2,0.4,0.5,0.9,0.7,1.4c0.3,0.6,0.7,1.2,1,1.9
		c0.4,0.8,0.8,1.6,1.1,2.3c0.2,0.3,0.3,0.7,0.5,1c0.5,1.2,1.1,2.3,1.6,3.5c0.1,0.3,0.2,0.6,0.3,0.9c0.3,0.8,0.7,1.7,1,2.5
		c-1.5,4-7,8.4-15.5,12.6c-3.2-9.5-7.2-18.7-11.9-27.3c7-3.5,11.7-7.1,13.8-10.6C153.4,45.1,153.5,45.2,153.5,45.2z M132.2,19.2
		c0.2,0.2,0.5,0.4,0.7,0.5c1.4,1,2.7,2.1,3.8,3.1c0,0,0,0,0,0c2.2,2,3.7,3.4,4.9,4.6c0.1,0.1,0.3,0.3,0.4,0.4
		c0.1,0.1,0.1,0.1,0.2,0.2c-3.2-3.1-6.5-5.9-10-8.5C132.2,19.4,132.2,19.3,132.2,19.2z M131.4,22.2c3.5,2.6,6.8,5.5,10,8.6
		c0.4,0.4,0.7,0.7,1.1,1.1c0.4,0.4,0.8,0.8,1.2,1.3c2.5,2.6,4.9,5.4,7.2,8.4c0,0,0,0.1,0,0.1c0,0.1-0.1,0.2-0.1,0.3
		c-0.1,0.1-0.1,0.2-0.2,0.4c-0.1,0.1-0.1,0.2-0.2,0.3c-0.1,0.1-0.1,0.2-0.2,0.4c-0.1,0.1-0.1,0.2-0.2,0.3c-0.1,0.1-0.2,0.2-0.3,0.4
		c-0.1,0.1-0.2,0.2-0.2,0.3c-0.1,0.1-0.2,0.3-0.3,0.4c-0.1,0.1-0.2,0.2-0.3,0.3c-0.1,0.1-0.3,0.3-0.4,0.4c-0.1,0.1-0.2,0.2-0.3,0.3
		c-0.1,0.1-0.3,0.3-0.4,0.4c-0.1,0.1-0.2,0.2-0.3,0.3c-0.2,0.2-0.4,0.3-0.5,0.5c-0.1,0.1-0.2,0.2-0.3,0.2c-0.2,0.2-0.5,0.4-0.8,0.6
		c-0.1,0-0.1,0.1-0.2,0.1c-0.3,0.2-0.6,0.5-1,0.7c-0.1,0.1-0.2,0.1-0.3,0.2c-0.2,0.2-0.5,0.3-0.7,0.5c-0.1,0.1-0.3,0.2-0.5,0.3
		c-0.2,0.1-0.4,0.3-0.7,0.4c-0.2,0.1-0.4,0.2-0.5,0.3c-0.2,0.1-0.4,0.3-0.7,0.4c-0.2,0.1-0.4,0.2-0.6,0.3c-0.2,0.1-0.4,0.3-0.7,0.4
		c-0.2,0.1-0.4,0.2-0.6,0.3c-0.2,0.1-0.5,0.2-0.7,0.4c-0.2,0.1-0.5,0.2-0.7,0.3c-0.1,0-0.2,0.1-0.3,0.1c-4.7-8.1-10.1-15.5-16-22
		C126.7,27.4,130,24.8,131.4,22.2z M109,6.4l1.4,0.6c6.6,2.7,7.1,2.9,14,6.8l1.8,1.1l0.6,0.5c0.1,0.1,0.2,0.2,0.3,0.2
		c0.1,0.1,0.1,0.1,0.2,0.2c0.1,0.1,0.3,0.2,0.4,0.4c0,0,0,0,0,0c0.1,0.2,0.3,0.3,0.4,0.5c-7.3-4.8-15-8.4-22.7-10.7
		c0-0.3-0.1-0.5-0.2-0.8C106.5,5.6,107.8,6,109,6.4z M104.8,8.3c10.6,3.7,13.9,5.4,23.3,11.5c-1.1,2.2-4.4,4.7-9.4,7.2
		c-5.8-6-12-11-18.5-15C102.6,10.9,104.1,9.6,104.8,8.3z M99.1,3.8c0.5,0.2,1.2,0.5,1.7,0.9c-3.1-0.8-6.3-1.3-9.6-1.6
		C93.9,3.2,96.5,3.4,99.1,3.8z M95.5,6C95.5,6,95.5,6,95.5,6c1.1,0.2,2.1,0.4,3.2,0.7c0.1,0,0.2,0,0.2,0.1c0.7,0.2,1.3,0.3,2,0.5
		c-0.7,0.8-2,1.8-4.1,2.8c-4.3-2.3-8.7-4-13-5.2C87.7,4.9,91.6,5.3,95.5,6z M76.9,5.7c0.3,0,0.5,0.1,0.8,0.1
		c0.5,0.1,1.1,0.2,1.6,0.3c0.3,0.1,0.6,0.1,0.9,0.2c0.5,0.1,1.1,0.3,1.6,0.4c0.3,0.1,0.5,0.1,0.8,0.2c0.6,0.2,1.3,0.4,1.9,0.6
		c0.2,0.1,0.3,0.1,0.5,0.1c0.8,0.3,1.6,0.6,2.4,0.9c0.2,0.1,0.4,0.2,0.7,0.3c0.6,0.2,1.2,0.5,1.8,0.8c0.3,0.1,0.6,0.3,0.9,0.4
		c0.5,0.3,1.1,0.5,1.6,0.8c0.3,0.1,0.6,0.3,0.9,0.4c0.1,0,0.1,0.1,0.2,0.1c-1.8,0.7-3.8,1.4-5.9,2c-1.6,0.5-3.3,0.9-4.9,1.2
		c-2-3.7-4-6.7-5.9-8.9C76.8,5.7,76.9,5.7,76.9,5.7z M78.3,12.5c0.1,0.1,0.1,0.3,0.2,0.4c0.2,0.4,0.4,0.8,0.6,1.2
		c0.1,0.2,0.2,0.4,0.3,0.6c0.1,0.1,0.1,0.3,0.2,0.4l0,0l0,0.1c-4.1,0.8-8.4,1.3-12.8,1.5c2-4.8,4.4-8.6,7-11.1
		C75.2,7.3,76.7,9.5,78.3,12.5z M69.8,6.9c-1.5,1.8-2.8,3.8-4.1,6.2c-0.1,0.1-0.2,0.3-0.2,0.4c-0.3,0.5-0.6,1.1-0.9,1.7
		c0,0.1-0.1,0.2-0.1,0.2c-0.3,0.5-0.5,1-0.7,1.6h0l0,0c-3.7,0.1-6.9-0.1-9.5-0.6C59.1,12.4,64.3,9.2,69.8,6.9z M49.8,12.8
		c0.1-0.1,0.2-0.1,0.3-0.2c0.7-0.3,1.4-0.7,2-1c0.2-0.1,0.5-0.2,0.7-0.3c0.6-0.3,1.3-0.6,1.9-0.9c0.2-0.1,0.3-0.2,0.5-0.2
		c0.8-0.3,1.6-0.7,2.4-1C58,9.2,58.1,9.1,58.3,9c0.6-0.2,1.3-0.5,1.9-0.7c0.2-0.1,0.5-0.2,0.7-0.2c0.8-0.2,1.5-0.5,2.3-0.7
		c0.1,0,0.1,0,0.2,0c0,0,0,0,0,0c-0.5,0.3-1,0.6-1.6,0.9c-0.4,0.2-0.8,0.4-1.2,0.6c-0.5,0.3-1.1,0.6-1.6,0.9c-0.5,0.3-1,0.6-1.5,0.9
		c-0.5,0.3-0.9,0.6-1.4,0.9c-0.6,0.4-1.1,0.8-1.7,1.2c-0.4,0.3-0.8,0.6-1.2,0.9c-0.6,0.5-1.3,1-1.9,1.5c-0.2,0.2-0.4,0.3-0.6,0.5
		l0,0l-0.1,0.1c-0.2,0-0.3-0.1-0.4-0.1c-0.9-0.3-2.3-1-2.6-1.8C48.5,13.5,49.2,13.1,49.8,12.8z M44.5,15.9c0.4,0.9,1.4,1.8,3.2,2.6
		c-0.9,0.9-1.9,1.8-2.8,2.8C40.3,26,36,31.4,32.2,37.6c-0.1,0.1-0.1,0.2-0.2,0.2c-0.4-0.1-0.8-0.2-1.1-0.4c-2.1-0.7-5.4-2.3-5.6-4.7
		C31,26,37.4,20.4,44.5,15.9z M9.8,58.7C9.8,58.7,9.8,58.7,9.8,58.7C13,50.6,17.3,43,22.5,36.2c0.8,1.6,2.7,3.4,6.8,4.9
		c0.3,0.1,0.5,0.1,0.7,0.2c-3.1,5.5-5.8,11.4-8.1,17.7c-0.1,0.3-0.3,0.7-0.4,1c-0.2,0.6-0.4,1.2-0.6,1.7c-0.2,0.6-0.4,1.2-0.6,1.8
		c-0.2,0.5-0.3,1-0.5,1.6c-0.2,0.5-0.3,1-0.5,1.4l0,0l0,0.1c-0.1,0-0.2,0-0.2-0.1c-0.1,0-0.2-0.1-0.3-0.1c-0.3-0.1-0.6-0.2-1-0.3
		C12.2,64.2,9.5,61.7,9.8,58.7z M2.7,88.7L2.7,88.7c0.9-8.4,2.6-16.6,5.2-24.4c1.1,2,3.6,4.1,8.5,5.8c0.5,0.2,1,0.3,1.5,0.5
		c0,0,0.1,0,0.1,0c-0.4,1.5-0.8,3.1-1.1,4.6c-0.2,0.7-0.3,1.3-0.4,2c-0.1,0.3-0.1,0.5-0.2,0.8c-1.4,6.8-2.4,13.8-2.8,20.9
		c0,0.3,0,0.7-0.1,1c-0.6-0.2-1.2-0.4-1.7-0.6c-4.1-1.4-8.8-3.9-9.3-7.6C2.5,90.7,2.6,89.7,2.7,88.7z M4.9,127.7
		c-0.3-1.3-0.5-2.7-0.8-4.1l-0.4-1.9c-0.6-3.1-1.1-7.2-1.3-10.7c-0.1-1.6-0.4-5.5-0.4-8.4c0-1.4,0-2.9,0.1-4.3
		c1.6,1.8,4.3,3.7,8.7,5.2c0.8,0.3,1.6,0.6,2.4,0.8c0,0.4,0,0.9,0,1.3c0,0.5,0,1,0,1.5c0,0.6,0,1.2,0,1.7c0,0.5,0,1,0,1.4
		c0,0.6,0,1.2,0,1.8c0,0.5,0,0.9,0,1.4c0,0.6,0.1,1.2,0.1,1.8c0,0.5,0,0.9,0.1,1.4c0,0.6,0.1,1.3,0.1,1.9c0,0.4,0.1,0.9,0.1,1.3
		c0.1,0.7,0.1,1.3,0.2,2c0,0.4,0.1,0.8,0.1,1.2c0.1,0.7,0.2,1.5,0.3,2.2c0,0.3,0.1,0.7,0.1,1c0.1,1.1,0.3,2.1,0.4,3.2
		c0.2,1.1,0.3,2.2,0.5,3.2c0.1,0.3,0.1,0.7,0.2,1c0.1,0.5,0.2,1,0.3,1.5c-3-1-6.5-2.3-8.8-4.5c0,0-0.1-0.1-0.1-0.1
		c-0.1-0.1-0.1-0.1-0.2-0.2C5.7,129.4,5.2,128.5,4.9,127.7z M17,160.8l-0.1-0.2l0,0l-3.1-6c-0.2-0.5-0.4-0.9-0.6-1.3
		c-1-2.5-1.8-4.3-2.4-5.8c-1-2.5-1.8-5.1-3-8.7c-0.4-1.1-0.7-2.4-1.1-3.7c1.8,1.4,4.3,2.7,7.4,3.8c0.9,0.4,1.8,0.6,2.6,0.9
		c1.5,6.4,3.3,12.5,5.5,18.2c0.1,0.2,0.2,0.4,0.2,0.6c0.3,0.9,0.7,1.8,1.1,2.6c0.2,0.4,0.3,0.8,0.5,1.2c0.3,0.7,0.6,1.4,0.9,2.1
		c0.2,0.4,0.4,0.9,0.6,1.3c0.1,0.2,0.2,0.4,0.3,0.6c-0.2-0.1-0.4-0.1-0.6-0.2C20.9,164.6,18.2,162.8,17,160.8z M41,189.8
		c-0.4-0.2-0.7-0.3-1-0.5c-0.1,0-0.2-0.1-0.3-0.2c-0.2-0.1-0.5-0.2-0.7-0.4c-0.1-0.1-0.2-0.1-0.3-0.2c-0.2-0.2-0.5-0.3-0.7-0.5
		c-0.1-0.1-0.2-0.2-0.3-0.3c-0.2-0.1-0.3-0.2-0.4-0.4c-0.1-0.1-0.1-0.1-0.2-0.2c-0.6-0.7-1.3-1.4-2.1-2.2c-1.4-1.4-2.8-2.9-3.8-4.1
		c-3.2-3.9-4.8-5.9-6-7.5c-0.3-0.5-0.6-0.9-1-1.4c-0.4-0.6-0.9-1.3-1.3-1.9c-0.4-0.6-0.8-1.2-1.3-1.9l-0.2-0.3
		c1.2,0.7,2.6,1.3,4.2,1.9c0.8,0.3,1.6,0.5,2.4,0.8c2.6,4.9,5.6,9.4,8.7,13.6c0.1,0.1,0.2,0.2,0.2,0.3c0.6,0.8,1.2,1.6,1.9,2.4
		c0.1,0.1,0.2,0.3,0.4,0.4C39.8,188.4,40.4,189.1,41,189.8C41,189.9,41,189.8,41,189.8z M44.8,194.1c0.1,0,0.1,0,0.2,0
		c0.1,0,0.1,0,0.2,0.1c0.3,0.3,0.7,0.6,1,0.9C45.7,194.9,45.3,194.5,44.8,194.1z M45.5,190.5c-0.3-0.3-0.6-0.7-0.9-1
		c-0.4-0.4-0.7-0.8-1.1-1.2c-0.3-0.4-0.6-0.7-0.9-1.1c-0.3-0.4-0.7-0.8-1-1.3c-0.3-0.4-0.6-0.7-0.9-1.1c-0.3-0.4-0.6-0.9-1-1.3
		c-0.3-0.4-0.6-0.8-0.9-1.2c-0.3-0.5-0.6-0.9-1-1.4c-0.3-0.4-0.5-0.8-0.8-1.2c-0.3-0.5-0.6-1-1-1.5c-0.2-0.4-0.5-0.8-0.7-1.1
		c-0.3-0.5-0.7-1.1-1-1.7c-0.2-0.3-0.4-0.7-0.6-1c-0.5-0.9-1-1.8-1.5-2.8c0.5,0.1,1.1,0.2,1.7,0.3c0.2,0,0.3,0.1,0.5,0.1
		c0.4,0.1,0.8,0.1,1.2,0.2c0.2,0,0.3,0.1,0.5,0.1c0.4,0.1,0.9,0.1,1.3,0.2c0.1,0,0.3,0,0.4,0.1c0.5,0.1,0.9,0.1,1.4,0.2
		c0.1,0,0.2,0,0.3,0c0.5,0.1,1,0.1,1.6,0.2c0.1,0,0.2,0,0.2,0c0.6,0.1,1.2,0.1,1.7,0.2c0,0,0.1,0,0.1,0c0.6,0.1,1.3,0.1,1.9,0.2
		c0,0,0.1,0,0.1,0c0.7,0.1,1.3,0.1,2,0.1c0,0,0,0,0,0c0.7,0,1.4,0.1,2.1,0.1c0,0,0,0,0,0c0.7,0,1.4,0.1,2.2,0.1c0,0,0,0,0,0
		c0.7,0,1.4,0.1,2.2,0.1c0,0,0.1,0,0.1,0c0.7,0,1.4,0,2.1,0c0.1,0,0.2,0,0.2,0c0.7,0,1.3,0,2,0c0.2,0,0.3,0,0.5,0c0.6,0,1.2,0,1.8,0
		c0.3,0,0.5,0,0.8,0c0.5,0,1,0,1.5,0c0.4,0,0.8,0,1.2,0c0.3,0,0.5,0,0.8,0c1.6,4.8,3.4,9.4,5.2,13.5c0,0.1,0.1,0.2,0.1,0.3
		c0.3,0.7,0.6,1.4,0.9,2c0.1,0.3,0.3,0.6,0.4,0.9c0.2,0.5,0.5,1,0.7,1.5c0.2,0.3,0.3,0.7,0.5,1c0.1,0.1,0.1,0.3,0.2,0.4
		c-10.8,0.2-20-0.6-26.8-2.2C46.1,191.1,45.8,190.8,45.5,190.5z M67.3,206.6c-6-2.7-11.6-6.5-16.7-11.1c4.2,0.8,9.1,1.2,14.5,1.4
		c0.2,0,0.4,0,0.6,0c0.8,0,1.7,0,2.6,0.1c0.6,0,1.2,0,1.7,0c0.5,0,1.1,0,1.6,0c0.8,0,1.6,0,2.4,0c0.3,0,0.6,0,0.9,0
		c0.1,0.1,0.2,0.2,0.2,0.4c2.6,4.4,5.3,7.9,8.1,10.7h-0.1l0.1,0c0,0,0,0-0.1,0c0,0,0,0,0,0C76.8,208.1,71.4,207.6,67.3,206.6z
		 M85.5,211.3c-3.1-0.4-3.9-0.5-5.3-0.8c0,0,0.1,0,0.1,0c0.7,0,1.4,0,2.1,0c0.3,0,0.6,0,0.9,0c0.3,0,0.7,0,1.1,0c0.6,0,1.3,0,1.9,0
		c0.5,0.4,1,0.7,1.5,1C87,211.5,86.5,211.4,85.5,211.3z M109.9,208.2c-0.4,0.9-0.9,1.6-1.5,2c-0.3,0.2-0.7,0.3-1.1,0.3l0,0.1
		c-0.1,0-0.2,0-0.2,0.1l-0.5,0.1c-1.8,0.3-1.9,0.3-2.6,0.4c-0.2,0-0.4,0.1-0.6,0.1c-0.4,0-0.7,0.1-1,0.1c-2.3,0.3-4.2,0.4-5.6,0.5
		l0,0H96c-1.5-0.1-3.1-0.5-4.7-1.4C97.2,210.1,103.6,209.3,109.9,208.2C109.9,208.1,109.9,208.2,109.9,208.2z M112.6,192.8
		c0,0.5,0,0.9-0.1,1.4c-0.2,3.4-0.6,6.2-1,8.4c0,0,0,0.1,0,0.1c0,0.2-0.1,0.4-0.1,0.6c-0.1,0.3-0.1,0.5-0.2,0.8
		c0,0.2-0.1,0.4-0.1,0.6c0,0.2-0.1,0.3-0.1,0.5c-0.2,0-0.4,0.1-0.6,0.1c-6.5,1.2-13.2,2.1-19.4,2.5c-0.1,0-0.1,0-0.2,0
		c-0.5,0-1.1,0.1-1.6,0.1c-0.4,0-0.8,0-1.1,0.1c-2.9-2.6-5.7-6.3-8.4-11.1C90.2,196.3,101.6,194.8,112.6,192.8
		C112.6,192.7,112.6,192.7,112.6,192.8z M77.9,193.6c-0.2-0.3-0.3-0.6-0.5-0.9c-0.2-0.3-0.3-0.6-0.5-0.9c-0.2-0.4-0.4-0.8-0.6-1.3
		c-0.2-0.3-0.3-0.7-0.5-1c-0.2-0.4-0.4-0.9-0.6-1.3c-0.2-0.4-0.3-0.7-0.5-1.1c-0.2-0.4-0.4-0.9-0.6-1.3c-0.2-0.4-0.3-0.7-0.5-1.1
		c-0.2-0.5-0.4-0.9-0.6-1.4c-0.1-0.4-0.3-0.8-0.4-1.1c-0.2-0.5-0.4-1-0.6-1.5c-0.1-0.4-0.3-0.7-0.4-1.1c-0.2-0.6-0.4-1.2-0.6-1.8
		c-0.1-0.3-0.2-0.6-0.3-1c-0.3-0.9-0.6-1.9-0.9-2.8c1.8-0.1,3.5-0.2,5.3-0.3c0.7,0,1.3-0.1,2-0.1c1.1-0.1,2.3-0.2,3.4-0.3
		c0.7-0.1,1.5-0.1,2.2-0.2c1.1-0.1,2.1-0.2,3.2-0.3c0.8-0.1,1.6-0.2,2.4-0.3c1-0.1,2-0.2,3.1-0.3c0.8-0.1,1.6-0.2,2.4-0.3
		c1-0.1,2-0.3,3-0.4c0.8-0.1,1.6-0.2,2.4-0.4c1-0.1,2-0.3,3-0.5c0.8-0.1,1.6-0.3,2.4-0.4c1-0.2,2-0.3,2.9-0.5
		c0.8-0.1,1.6-0.3,2.4-0.5c0.8-0.1,1.5-0.3,2.3-0.4c0,0.4,0,0.8,0.1,1.3c0,0.4,0,0.9,0.1,1.3c0,0.6,0.1,1.2,0.1,1.8
		c0,0.4,0,0.8,0.1,1.2c0,0.6,0,1.3,0.1,1.9c0,0.3,0,0.7,0,1c0,0.9,0.1,1.7,0.1,2.6c0,0.1,0,0.3,0,0.4c0,0.8,0,1.6,0,2.4
		c0,0.4,0,0.7,0,1.1c0,0.4,0,0.8,0,1.2c0,1.6,0,3.1-0.1,4.5C101.2,191.7,89.1,193.1,77.9,193.6z M125,204.6
		C124.9,204.6,124.9,204.6,125,204.6c-1.2,0.5-2.2,1-3.1,1.4c-2.1,0.8-4.1,1.5-6.2,1.9l0.1,0.4c-0.9,0.3-1.8,0.6-2.8,0.9
		c0,0-0.1,0-0.1,0c0,0,0,0,0,0c0-0.1,0.1-0.2,0.1-0.2c0.3-0.5,0.6-1.1,0.9-1.7c0.2,0,0.4-0.1,0.6-0.1c0.9-0.2,1.7-0.4,2.5-0.6
		c0.5-0.1,1-0.3,1.5-0.4c1.2-0.3,2.3-0.6,3.3-0.9c1.6-0.4,3.1-0.9,4.5-1.3C125.9,204.1,125.4,204.4,125,204.6z M134,198.3
		c-3.6,1.6-7.6,3-12.1,4.3c-2,0.6-4.4,1.2-6.9,1.7c1-3.2,1.7-7.4,2.1-12.4c4.1-0.9,8.2-1.9,12.2-3c5.9-1.6,11.3-3.4,15.9-5.4
		C142.1,189.2,138.4,194.2,134,198.3z M154.4,180.2l-0.4,0.5c-5,6.1-5.4,6.6-9.8,10.8l-1.9,1.7c0.2-0.2,0.3-0.4,0.4-0.6
		c0.5-0.6,0.9-1.2,1.4-1.8c0.2-0.3,0.4-0.6,0.7-0.9c0.4-0.6,0.8-1.2,1.2-1.8c0.2-0.3,0.4-0.7,0.6-1c0.4-0.6,0.8-1.3,1.2-2
		c0.2-0.3,0.3-0.6,0.5-0.9c0.5-1,1.1-2,1.6-3c2.4-1.2,4.5-2.3,6.2-3.5C155.5,178.7,154.9,179.5,154.4,180.2z M170.7,147.5
		c-0.3,0.8-0.5,1.7-0.8,2.5c-0.8,2.2-1.4,3.9-1.9,5.3c-1.4,3.6-2.4,5.7-5.2,11.3c-0.2,0.4-0.4,0.8-0.6,1.1l0,0l-0.1,0.1l0.1,0.1
		l-0.6,1.1l0,0l-0.1,0.1c-1.4,2.3-4.7,5-9.5,7.6c2.9-6.8,5-14.3,6.3-22.2c5.7-2.8,10-5.7,12.8-8.5C171,146.6,170.9,147,170.7,147.5z
		 M173,138.4c-1.2,3.7-6.1,7.8-14.1,11.9c1.1-9,1.3-18.4,0.5-28.1c7.8-3.8,13-7.6,15.8-11.3C175.5,121.6,175.1,125.9,173,138.4z"/>
</g>
</svg>
