<svg id="Layer_1" data-name="Layer 1" xmlns="http://www.w3.org/2000/svg" xmlns:xlink="http://www.w3.org/1999/xlink" viewBox="0 0 107.9 170.8"><defs><style>.cls-1,.cls-7{fill:none;}.cls-2{fill:#efdbca;}.cls-3{fill:#eabc8f;stroke-linecap:round;stroke-linejoin:round;stroke-width:2px;}.cls-3,.cls-5,.cls-6,.cls-7{stroke:#0d2e42;}.cls-4{clip-path:url(#clip-path);}.cls-5{fill:#eebe84;}.cls-5,.cls-6,.cls-7{stroke-miterlimit:10;}.cls-6{fill:#0b2e42;}</style><clipPath id="clip-path"><path class="cls-1" d="M21.7,119.6c-.8-.7-1.9-1.6-2.7-2.4-1.3-1.3-2.9-3-4.1-4.4a46.3,46.3,0,0,1-4.8-6.8,57.68,57.68,0,0,1-4.5-9.1c-.6-1.5-1.3-3.5-1.8-5s-.9-3.2-1.3-4.6-.8-3.6-1.1-5.2S.9,78.4.7,76.8s-.3-3.5-.3-5,0-3.8.1-5.5.2-3.7.4-5.2A60.24,60.24,0,0,1,2.8,50.8c1.8-6.6,1.8-6.6,3.3-10.2a57.64,57.64,0,0,1,4.5-9.3A72.79,72.79,0,0,1,22.5,15.8l3.3-3c1.1-.9,2.7-2.1,3.9-3,1-.7,2.4-1.6,3.4-2.2,1.3-.7,2.9-1.7,4.3-2.3,1-.4,2.2-1,3.2-1.4A32.55,32.55,0,0,1,45,2.4c1.2-.3,2.8-.8,4.1-1C51,1.1,52.5.8,55,.6c1-.1,2.4-.1,3.5-.1a39.66,39.66,0,0,1,4.4.3,46.47,46.47,0,0,1,8.7,1.9,39.55,39.55,0,0,1,7.1,3.1c1.9,1.1,2.2,1.3,4.4,2.7,1,.7,2.3,1.7,3.2,2.4A35.69,35.69,0,0,0,65.2,2.8a34.45,34.45,0,0,1,21.1,8.1c.8.7,1.9,1.6,2.7,2.4,1.2,1.2,2.8,2.8,3.9,4.1a39.18,39.18,0,0,1,2.5,3.2c.9,1.3,2.1,3.1,3,4.5a66.5,66.5,0,0,1,7.2,18.1,72.69,72.69,0,0,1,1.9,20.5,79.3,79.3,0,0,1-1.2,10.8c-.6,3.1-1.7,7.2-2.5,10.2a60.52,60.52,0,0,1-3.6,9.2,65.83,65.83,0,0,1-4.9,8.9,77.26,77.26,0,0,1-5.9,7.9c-.9,1-2.1,2.4-3.1,3.3s-2.5,2.4-3.7,3.3a49.94,49.94,0,0,1-7.4,5.4c-1,.6-2.4,1.4-3.4,1.9l-4.4,2c-.9.4-2,.8-2.9,1.1a53.45,53.45,0,0,1-5.2,1.4,37.73,37.73,0,0,1-7.1.8,40.81,40.81,0,0,1-7.8-.4,37.86,37.86,0,0,1-7.7-1.8,21.39,21.39,0,0,1-3.8-1.5,34.48,34.48,0,0,1-3.3-1.6c-1.9-1.1-2.2-1.3-4.4-2.7A14.15,14.15,0,0,1,21.7,119.6Z"/></clipPath></defs><title>balloon2</title><path class="cls-2" d="M48.8,166.7l2.3-17.2-22.5-3-2.2,17.2a2,2,0,0,0-.4.8c-.3,2.1,4.7,4.4,11,5.3s11.7-.2,12-2.2A1.49,1.49,0,0,0,48.8,166.7Z"/><path class="cls-3" d="M28.2,143.9a.35.35,0,0,1-.2-.1L7.8,95.3c0-.1.1-.3.2-.3a.37.37,0,0,1,.3.1l20.3,48.4a.19.19,0,0,1-.1.3.37.37,0,0,1-.3.1Z"/><path class="cls-3" d="M52.7,148.9c-.1,0-.2-.2-.2-.3v-.1l39.1-46.4c.1-.1.2-.2.4-.1s.2.2.1.4a.1.1,0,0,1-.1.1L53,148.8C52.9,148.8,52.8,148.9,52.7,148.9Z"/><path class="cls-3" d="M39.6,150.6c-6.1-1.2-12.2-4.1-11.7-6.6s7.2-2.9,13.3-1.6,12.2,4.1,11.7,6.6S45.8,151.9,39.6,150.6Zm1.6-7.7c-7.2-1.4-12.4-.5-12.7,1.2s4.1,4.6,11.3,6,12.4.5,12.7-1.2S48.4,144.3,41.2,142.9Z"/><path class="cls-3" d="M35.4,169.1a28,28,0,0,1-6.9-2.3h0c-1.5-.7-3.2-1.5-4-3.1,0-.1,0-.3.2-.3a.37.37,0,0,1,.3.1c.8,1.4,2.4,2.2,3.8,2.9h0a31.36,31.36,0,0,0,10.8,2.8,26.21,26.21,0,0,0,5.6,0h.1c1.1-.1,2.7-.4,3.3-1.3a.37.37,0,0,1,.3-.1c.1.1.1.2.1.4-.8,1.1-2.4,1.4-3.7,1.5h-.1a27.15,27.15,0,0,1-5.7,0A27,27,0,0,1,35.4,169.1Z"/><path class="cls-3" d="M25,164.5c-.1,0-.2-.1-.2-.3l2.4-20c0-.1.1-.2.3-.2s.2.1.2.3h0l-2.4,20C25.2,164.4,25.1,164.5,25,164.5Z"/><path class="cls-3" d="M48.7,168.5h0c-.1,0-.2-.2-.2-.3L52.6,149l-.3-.1a.3.3,0,0,1,0-.6h.1l.5.1c.1,0,.2.2.2.3L49,168.3C48.9,168.4,48.8,168.5,48.7,168.5Z"/><path class="cls-3" d="M37.8,150a.22.22,0,0,1-.2-.2l-3.3-28.9c0-.1,0-.3.2-.3s.3,0,.3.2v.1l3.3,28.9a.37.37,0,0,1-.3.2Z"/><path class="cls-3" d="M46.3,144.1h0c-.2-.1-.2-.2-.2-.4l15.2-21c.1-.1.2-.2.3-.1s.2.2.1.3a.1.1,0,0,1-.1.1L46.4,144C46.4,144.1,46.4,144.2,46.3,144.1Z"/><ellipse class="cls-3" cx="39.96" cy="146.33" rx="4.1" ry="12.7" transform="translate(-110.35 166.78) rotate(-82.47)"/><g class="cls-4"><path class="cls-5" d="M71.7,2.8a18,18,0,0,1,2.1.8l2.4,1a14.81,14.81,0,0,1,2.9,1.7A35.45,35.45,0,0,0,65.6,2.8c-.1,0-.1-.1-.3-.1a11.5,11.5,0,0,1,6.4.1"/></g><g class="cls-4"><path class="cls-6" d="M71.7,2.8c.5.2.9.3,1.3.5-.4-.2-.8-.3-1.3-.5"/></g><g class="cls-4"><path class="cls-6" d="M73,3.3a10.57,10.57,0,0,0-7.5-.6c.1,0,.2.1.3.1A32.16,32.16,0,0,1,79.3,6.3l.1.1A38.18,38.18,0,0,0,65.1,2.8c3.2-.6,4.3-.9,7.9.5"/></g><g class="cls-4"><path class="cls-5" d="M64,.9l1.6.3a8.24,8.24,0,0,1,1.8.4,14.68,14.68,0,0,1,1.9.5,12.09,12.09,0,0,0,1.8.5,9.6,9.6,0,0,0-5.8.1c-.1,0-.2-.1-.4-.1-.1-1-.5-1.6-.9-1.7"/></g><g class="cls-4"><path class="cls-6" d="M64,.9a.9.9,0,0,0-.5.1c.2,0,.3-.1.5-.1"/></g><g class="cls-4"><path class="cls-6" d="M63.5,1.1c.7-.4,1.2.1,1.6,1.6a.6.6,0,0,1,.4.1,8.89,8.89,0,0,1,5.8-.1l.3.1.3.1a11.69,11.69,0,0,0-6.7,0c-.5-1.7-1-2.3-1.7-1.8"/></g><g class="cls-4"><path class="cls-5" d="M54.1.7c.5,0,1.1-.1,1.7-.1a23.35,23.35,0,0,1,3.8,0,12.22,12.22,0,0,1,2.2.1c.5.1,1.2.1,1.7.2s1.1.6,1.5,1.8h-.4A18.83,18.83,0,0,0,54.1.7"/></g><g class="cls-4"><path class="cls-6" d="M54.1.7a20.09,20.09,0,0,1,10.6,2A19.33,19.33,0,0,0,54.1.7"/></g><g class="cls-4"><path class="cls-6" d="M64.7,2.6h.4Q64.5.95,63.6.8h.5c.4.1.8.7,1.1,1.9a.4.4,0,0,1-.5-.1"/></g><g class="cls-4"><path class="cls-5" d="M48.9,2.2c.7-.7,2.3-1.3,4.6-1.5A22.72,22.72,0,0,1,64.6,2.6c-.1,0-.2,0-.2.1a42.64,42.64,0,0,0-15.5-.5"/></g><g class="cls-4"><path class="cls-6" d="M48.9,2.2a42.64,42.64,0,0,1,15.5.5,42.64,42.64,0,0,0-15.5-.5"/></g><g class="cls-4"><path class="cls-6" d="M64.4,2.7a.35.35,0,0,1,.2-.1A22.53,22.53,0,0,0,53.6.7h.5a20.56,20.56,0,0,1,11,2.2l-.7-.2"/></g><g class="cls-4"><path class="cls-5" d="M49.7,5.2c-1.3-1.1-1.5-2-.9-2.8a43.15,43.15,0,0,1,15.6.4v.1A39.34,39.34,0,0,0,49.7,5.2"/></g><g class="cls-4"><path class="cls-6" d="M49.7,5.2c6-1.8,8-2.3,14.8-2.3A39.54,39.54,0,0,0,49.7,5.2"/></g><g class="cls-4"><path class="cls-6" d="M64.5,2.8V2.7a43.2,43.2,0,0,0-15.6-.4l.1-.2c6.9-.7,8.8-.7,16.1.7h-.6"/></g><g class="cls-4"><path class="cls-5" d="M56.2,8.4a22.38,22.38,0,0,1-6.2-3A40.63,40.63,0,0,1,64.5,2.9c.1,0,.1.1.3.1a23.22,23.22,0,0,0-8.6,5.4"/></g><g class="cls-4"><path class="cls-6" d="M56.2,8.4A23.72,23.72,0,0,1,64.7,3a23.72,23.72,0,0,0-8.5,5.4"/></g><g class="cls-4"><path class="cls-6" d="M64.7,3c-.1,0-.2-.1-.3-.1A40.26,40.26,0,0,0,49.9,5.4l-.2-.1-.1-.1A42.7,42.7,0,0,1,65,2.9a.77.77,0,0,0-.3.1"/></g><g class="cls-4"><path class="cls-5" d="M65.6,10.6a72.93,72.93,0,0,1-8.9-2A23.26,23.26,0,0,1,64.8,3h.3a37.54,37.54,0,0,1,.5,7.6"/></g><g class="cls-4"><path class="cls-6" d="M65.6,10.6A46.74,46.74,0,0,0,65.1,3a37.54,37.54,0,0,1,.5,7.6"/></g><g class="cls-4"><path class="cls-6" d="M65.1,3h-.3a25.22,25.22,0,0,0-8.1,5.6c-.2-.1-.4-.1-.6-.2A23.85,23.85,0,0,1,65,2.8l.1.2"/></g><g class="cls-4"><path class="cls-5" d="M75,11.1c-1.2.1-2.6.1-4.1.1s-3.1-.2-4.6-.4a37.79,37.79,0,0,0-1.1-7.7h.4a30.44,30.44,0,0,1,9.4,8"/></g><g class="cls-4"><path class="cls-6" d="M75,11.1a29.66,29.66,0,0,0-9.5-8,29.66,29.66,0,0,1,9.5,8"/></g><g class="cls-4"><path class="cls-6" d="M65.5,3.1h-.4a26.91,26.91,0,0,1,1.1,7.7c-.2,0-.4-.1-.6-.1A37,37,0,0,0,65,2.9a.76.76,0,0,1,.5.2"/></g><g class="cls-4"><path class="cls-5" d="M80.2,9.5c-.7.7-2.3,1.3-4.6,1.5a32.7,32.7,0,0,0-10-8c.1,0,.2,0,.2-.1A48.23,48.23,0,0,1,80.2,9.5"/></g><g class="cls-4"><path class="cls-6" d="M80.2,9.5A44.64,44.64,0,0,0,65.8,3,45.63,45.63,0,0,1,80.2,9.5"/></g><g class="cls-4"><path class="cls-6" d="M65.7,3c-.1,0-.1,0-.2.1a31.28,31.28,0,0,1,10,8H75A30.68,30.68,0,0,0,65,2.9c.3,0,.5.1.7.1"/></g><g class="cls-4"><path class="cls-5" d="M79.4,6.5c1.3,1.1,1.5,2,.9,2.8A44.31,44.31,0,0,0,65.7,3V2.9A37,37,0,0,1,79.4,6.5"/></g><g class="cls-4"><path class="cls-6" d="M79.3,6.5h0A36,36,0,0,0,65.7,2.9V3A42.52,42.52,0,0,1,80.3,9.4l-.1.2A45.63,45.63,0,0,0,65.1,2.9,33.89,33.89,0,0,1,79.3,6.5"/></g><g class="cls-4"><path class="cls-5" d="M80.6,7a45.23,45.23,0,0,1,4.8,3.3A38.35,38.35,0,0,0,80,6.8a14.61,14.61,0,0,0-2.4-1.5c.9.5,2.1,1.1,3,1.7"/></g><g class="cls-4"><path class="cls-6" d="M76.8,4.9l.8.4A12,12,0,0,1,80,6.8a31.72,31.72,0,0,1,5.4,3.6l.7.6a38.16,38.16,0,0,0-6.8-4.5l-.1-.1a15.84,15.84,0,0,0-2.9-1.7l.5.2"/></g><g class="cls-4"><path class="cls-5" d="M52.5.8,54.3.6a2.77,2.77,0,0,0-.9.1,2.77,2.77,0,0,1-.9.1"/></g><g class="cls-4"><path class="cls-6" d="M52.5.8a23.23,23.23,0,0,0-9.3,3.8A25.79,25.79,0,0,1,52.5.8"/></g><g class="cls-4"><path class="cls-6" d="M43.1,4.7A24.46,24.46,0,0,1,53.3.7a2.77,2.77,0,0,0,.9-.1L55.6.5a9.7,9.7,0,0,0-1.7.1A24.86,24.86,0,0,0,43.1,4.7"/></g><g class="cls-4"><path class="cls-5" d="M33.4,7.6a7.3,7.3,0,0,1,1.3-.9A70.44,70.44,0,0,1,42.9,3a48.79,48.79,0,0,1,8.5-2A6.75,6.75,0,0,1,52.8.8c-2.4.2-4.1.8-4.9,1.6A45.9,45.9,0,0,0,33.4,7.6"/></g><g class="cls-4"><path class="cls-6" d="M33.4,7.6A45.9,45.9,0,0,1,47.9,2.4,45.9,45.9,0,0,0,33.4,7.6"/></g><g class="cls-4"><path class="cls-6" d="M47.9,2.4c.8-.8,2.5-1.3,4.9-1.6-.5.1-.9.1-1.4.2L52.5.9A8.75,8.75,0,0,1,54.1.7h-.5c-2.3.2-3.9.8-4.6,1.5a3.59,3.59,0,0,0-1.1.2"/></g><g class="cls-4"><path class="cls-5" d="M34.8,13.2c-2.4-2.1-2.8-3.9-1.6-5.3A48.56,48.56,0,0,1,47.8,2.5q-1.05,1.2.9,3a56.15,56.15,0,0,0-13.9,7.7"/></g><g class="cls-4"><path class="cls-6" d="M34.8,13.2A55.38,55.38,0,0,1,48.7,5.5a56.15,56.15,0,0,0-13.9,7.7"/></g><g class="cls-4"><path class="cls-6" d="M48.7,5.5c-1.3-1.1-1.6-2.2-.9-3A46,46,0,0,0,33.2,7.9l.3-.3A45,45,0,0,1,48.9,2.2l-.1.2c-.6.8-.4,1.7.9,2.8l-1,.3"/></g><g class="cls-4"><path class="cls-5" d="M47.1,19.4c-5-1.7-9.2-3.7-11.8-5.7A55.31,55.31,0,0,1,48.9,5.8,28,28,0,0,0,55.6,9a54.49,54.49,0,0,0-8.5,10.4"/></g><g class="cls-4"><path class="cls-6" d="M47.1,19.4A57.81,57.81,0,0,1,55.6,9a54.49,54.49,0,0,0-8.5,10.4"/></g><g class="cls-4"><path class="cls-6" d="M55.6,9A22.39,22.39,0,0,1,49,5.7a52.31,52.31,0,0,0-13.6,7.9c-.1-.1-.2-.2-.3-.2l-.2-.2A55.65,55.65,0,0,1,49.8,5.1l.1.1.2.1a22.38,22.38,0,0,0,6.2,3l-.7.7"/></g><g class="cls-4"><path class="cls-5" d="M65.1,23.6a104.63,104.63,0,0,1-16.9-3.9,63.63,63.63,0,0,1,8-10.6,66.1,66.1,0,0,0,9.5,2.2c-.1,3.4-.3,7.6-.6,12.3"/></g><g class="cls-4"><path class="cls-6" d="M65.1,23.6q.45-7,.6-12.3c-.1,3.4-.3,7.6-.6,12.3"/></g><g class="cls-4"><path class="cls-6" d="M65.6,11.3a53.58,53.58,0,0,1-9.5-2.2,63.63,63.63,0,0,0-8,10.6c-.4-.1-.7-.2-1-.3a61.22,61.22,0,0,1,9.1-11c.2.1.4.1.6.2a48.28,48.28,0,0,0,8.9,2,2,2,0,0,0-.1.7"/></g><g class="cls-4"><path class="cls-5" d="M82.9,24.4a67.14,67.14,0,0,1-7.9.1,85.22,85.22,0,0,1-8.7-.8c.2-4.7.2-8.9,0-12.3a40.45,40.45,0,0,0,4.9.4,31.19,31.19,0,0,0,4.4-.1,55.56,55.56,0,0,1,7.3,12.7"/></g><g class="cls-4"><path class="cls-6" d="M82.9,24.4a52.77,52.77,0,0,0-7.3-12.6,52.77,52.77,0,0,1,7.3,12.6"/></g><g class="cls-4"><path class="cls-6" d="M75.6,11.8c-1.3.1-2.8.1-4.4.1s-3.2-.2-4.9-.4c.2,3.4.2,7.6,0,12.3-.4-.1-.8-.1-1.2-.2.4-5,.6-9.4.6-13,.2,0,.4.1.6.1,1.5.2,3.1.3,4.6.4A27,27,0,0,0,75,11c.2.3.4.5.6.8"/></g><g class="cls-4"><path class="cls-5" d="M92.6,21.5c-1.4,1.4-4.4,2.4-8.8,2.8a53.61,53.61,0,0,0-7.7-12.6c2.4-.3,4.1-.8,4.9-1.6A52.24,52.24,0,0,1,92.6,21.5"/></g><g class="cls-4"><path class="cls-6" d="M92.6,21.5A53.76,53.76,0,0,0,81.1,10.2,51.3,51.3,0,0,1,92.6,21.5"/></g><g class="cls-4"><path class="cls-6" d="M81.1,10.1c-.8.8-2.5,1.3-4.9,1.6a57.16,57.16,0,0,1,7.7,12.6c-.3,0-.6.1-.9.1a52,52,0,0,0-7.9-13.3h.5c2.3-.2,3.9-.8,4.6-1.5l.9.5"/></g><g class="cls-4"><path class="cls-5" d="M86.9,11.6a50.81,50.81,0,0,1,5.3,5.3c1.4,1.6,1.5,3.1.6,4.2A50.87,50.87,0,0,0,81.2,10q1-1.2-.9-3a37.19,37.19,0,0,1,6.6,4.6"/></g><g class="cls-4"><path class="cls-6" d="M86.1,10.9l.8.7A37.94,37.94,0,0,0,80.2,7q2,1.8.9,3A49.26,49.26,0,0,1,92.7,21.2l-.3.3A54.2,54.2,0,0,0,80,9.5l.1-.2c.6-.8.4-1.7-.9-2.8l-.1-.1a38.14,38.14,0,0,1,7,4.5"/></g><g class="cls-4"><path class="cls-5" d="M21.8,16.5c1.4-1.3,3.2-3,4.6-4.1a64.6,64.6,0,0,1,7.3-5.1,12.49,12.49,0,0,0-1.2.9,49.64,49.64,0,0,0-10.7,8.3"/></g><g class="cls-4"><path class="cls-6" d="M21.8,16.5c-.6.6-1.2,1.2-1.8,1.9a16.18,16.18,0,0,1,1.8-1.9"/></g><g class="cls-4"><path class="cls-6" d="M20,18.4A57.08,57.08,0,0,1,32.5,8.2a6.23,6.23,0,0,1,1.2-.9l.5-.3.5-.3a7.3,7.3,0,0,0-1.3.9A52.63,52.63,0,0,0,20,18.4"/></g><g class="cls-4"><path class="cls-5" d="M21.9,26.1c-3.3-2.8-3.9-5.3-2.3-7.3A55.81,55.81,0,0,1,32.2,8.5C31,10,31.5,11.9,33.9,14a65.53,65.53,0,0,0-12,12.1"/></g><g class="cls-4"><path class="cls-6" d="M21.9,26.1a72.18,72.18,0,0,1,12-12.2,69.44,69.44,0,0,0-12,12.2"/></g><g class="cls-4"><path class="cls-6" d="M33.9,13.9c-2.4-2.1-2.9-4-1.7-5.5A55.81,55.81,0,0,0,19.6,18.7l.2-.2,2-2A51.78,51.78,0,0,1,33.5,7.6l-.3.3c-1.2,1.4-.7,3.3,1.6,5.3l-.9.7"/></g><g class="cls-4"><path class="cls-5" d="M38.8,34.5c-6.9-2.3-12.6-5-16.2-7.9A73.23,73.23,0,0,1,34.5,14.3c2.7,2.1,7,4.1,12.1,5.9a106.61,106.61,0,0,0-7.8,14.3"/></g><g class="cls-4"><path class="cls-6" d="M38.8,34.5a100.78,100.78,0,0,1,7.8-14.3,106.61,106.61,0,0,0-7.8,14.3"/></g><g class="cls-4"><path class="cls-6" d="M46.5,20.2a42.55,42.55,0,0,1-12.1-5.9A73.23,73.23,0,0,0,22.5,26.6c-.1-.1-.3-.2-.4-.3l-.3-.3A71.59,71.59,0,0,1,34.7,13.1l.2.2c.1.1.2.2.3.2,2.6,2.1,6.8,4,11.8,5.7a3.13,3.13,0,0,1-.5,1"/></g><g class="cls-4"><path class="cls-5" d="M63.5,40.3A142.3,142.3,0,0,1,40.2,35a113.5,113.5,0,0,1,7.4-14.4,108.37,108.37,0,0,0,17.4,4c-.3,4.7-.9,10-1.5,15.7"/></g><g class="cls-4"><path class="cls-6" d="M63.5,40.3c.6-5.7,1.2-11,1.5-15.8-.3,4.8-.9,10.1-1.5,15.8"/></g><g class="cls-4"><path class="cls-6" d="M65,24.6a108.37,108.37,0,0,1-17.4-4A120.69,120.69,0,0,0,40.2,35c-.5-.2-1-.3-1.4-.5a126.46,126.46,0,0,1,8.3-15.2c.3.1.7.2,1,.3A104.63,104.63,0,0,0,65,23.5a4.05,4.05,0,0,1,0,1.1"/></g><g class="cls-4"><path class="cls-5" d="M88,41.5a93.57,93.57,0,0,1-10.8.2c-3.9-.2-8-.5-12-1.1.5-5.7.9-11,1.1-15.8,3,.4,6,.7,9,.8a71,71,0,0,0,8.1-.1,88.49,88.49,0,0,1,4.6,16"/></g><g class="cls-4"><path class="cls-6" d="M88,41.5a81.07,81.07,0,0,0-4.7-16,81.07,81.07,0,0,1,4.7,16"/></g><g class="cls-4"><path class="cls-6" d="M83.3,25.4a71,71,0,0,1-8.1.1c-2.9-.1-6-.4-9-.8-.2,4.8-.6,10.1-1.1,15.8a9.85,9.85,0,0,0-1.7-.2c.7-6.1,1.2-11.7,1.6-16.7.4.1.8.1,1.2.2,2.9.4,5.9.7,8.7.8a67.49,67.49,0,0,0,7.9-.1,2.62,2.62,0,0,1,.5.9"/></g><g class="cls-4"><path class="cls-5" d="M101.3,37.4c-1.9,1.9-6.1,3.3-12,3.9a85.5,85.5,0,0,0-5-16c4.5-.5,7.6-1.5,9-2.9a69.35,69.35,0,0,1,8,15"/></g><g class="cls-4"><path class="cls-6" d="M101.3,37.4a67.1,67.1,0,0,0-8-15,69.35,69.35,0,0,1,8,15"/></g><g class="cls-4"><path class="cls-6" d="M93.3,22.4c-1.4,1.4-4.5,2.5-9,2.9a85.5,85.5,0,0,1,5,16c-.4,0-.8.1-1.3.1a82.58,82.58,0,0,0-5.1-17c.3,0,.6-.1.9-.1,4.3-.4,7.4-1.5,8.8-2.8a5.5,5.5,0,0,0,.7.9"/></g><g class="cls-4"><path class="cls-5" d="M98.1,25.2a62,62,0,0,1,4,8.1,3.49,3.49,0,0,1-.5,3.8,62.86,62.86,0,0,0-8.1-14.9c1-1.2.8-2.6-.5-4.2a39.71,39.71,0,0,1,5.1,7.2"/></g><g class="cls-4"><path class="cls-6" d="M92.7,17.4l.4.5c1.3,1.6,1.4,3,.5,4.2A64.87,64.87,0,0,1,101.7,37c-.1.1-.2.3-.4.4a62.67,62.67,0,0,0-8.7-15.9l.3-.3q1.5-1.8-.6-4.2l.4.4"/></g><g class="cls-4"><path class="cls-5" d="M11.9,42.7C8.5,39.8,7.5,37.2,8.6,35c1.3-2.5,3.2-5.8,4.7-8.2,1.2-1.6,2.7-3.8,3.9-5.3l1.6-1.9c-1.7,2-1,4.6,2.3,7.4a84,84,0,0,0-9.2,15.7"/></g><g class="cls-4"><path class="cls-6" d="M11.9,42.7A81.27,81.27,0,0,1,21.2,27a79.25,79.25,0,0,0-9.3,15.7"/></g><g class="cls-4"><path class="cls-6" d="M21.1,27c-3.3-2.9-3.9-5.4-2.3-7.4l-1.6,1.9L19.4,19l.4-.5-.2.2c-1.6,2-1,4.5,2.3,7.3l-.8,1"/></g><g class="cls-4"><path class="cls-5" d="M31.8,52.7c-8.1-2.7-14.9-6-19.1-9.3a79.65,79.65,0,0,1,9.2-15.8c3.6,2.9,9.5,5.6,16.4,8a155.86,155.86,0,0,0-6.5,17.1"/></g><g class="cls-4"><path class="cls-6" d="M31.8,52.7a155.86,155.86,0,0,1,6.5-17.1,155.86,155.86,0,0,0-6.5,17.1"/></g><g class="cls-4"><path class="cls-6" d="M38.3,35.6c-7-2.4-12.8-5.1-16.4-8a90.76,90.76,0,0,0-9.2,15.8c-.2-.1-.3-.3-.5-.4a1.38,1.38,0,0,0-.4-.3A79.49,79.49,0,0,1,21.8,26l.3.3c.1.1.3.2.4.3,3.6,2.8,9.3,5.5,16.2,7.9-.1.4-.3.7-.4,1.1"/></g><g class="cls-4"><path class="cls-5" d="M61,59.5a170.53,170.53,0,0,1-27.5-6.3A165.44,165.44,0,0,1,39.7,36a145.94,145.94,0,0,0,23.6,5.4c-.6,5.8-1.4,11.9-2.3,18.1"/></g><g class="cls-4"><path class="cls-6" d="M61,59.5c.9-6.3,1.7-12.3,2.4-18.1-.7,5.8-1.5,11.9-2.4,18.1"/></g><g class="cls-4"><path class="cls-6" d="M63.4,41.5a145.94,145.94,0,0,1-23.6-5.4,157.51,157.51,0,0,0-6.2,17.2c-.6-.2-1.1-.4-1.7-.6a149.7,149.7,0,0,1,7-18.2c.5.2.9.3,1.4.5a142.3,142.3,0,0,0,23.3,5.3,2.54,2.54,0,0,0-.2,1.2"/></g><g class="cls-4"><path class="cls-5" d="M89.9,60.9a104,104,0,0,1-12.7.2A141.36,141.36,0,0,1,63,59.8c.8-6.3,1.6-12.4,2.1-18.1,4.1.5,8.2.9,12.2,1.1a78,78,0,0,0,11-.2,135.36,135.36,0,0,1,1.6,18.3"/></g><g class="cls-4"><path class="cls-6" d="M89.9,60.9a107,107,0,0,0-1.7-18.2,118.3,118.3,0,0,1,1.7,18.2"/></g><g class="cls-4"><path class="cls-6" d="M88.2,42.6a96.64,96.64,0,0,1-11,.2c-4-.2-8.1-.5-12.2-1.1-.5,5.7-1.3,11.8-2.1,18.1l-2-.3c1-6.7,1.8-13.2,2.5-19.2a9.85,9.85,0,0,0,1.7.2c4,.5,8.1.9,12,1.1a75.43,75.43,0,0,0,10.8-.2c.1.5.2.8.3,1.2"/></g><g class="cls-4"><path class="cls-5" d="M105.6,56.1c-2.3,2.3-7.2,3.9-14.2,4.6a106.82,106.82,0,0,0-1.9-18.2c6.1-.6,10.3-2,12.2-4a78.9,78.9,0,0,1,3.9,17.6"/></g><g class="cls-4"><path class="cls-6" d="M105.6,56.1a72.65,72.65,0,0,0-3.9-17.6,78.9,78.9,0,0,1,3.9,17.6"/></g><g class="cls-4"><path class="cls-6" d="M101.7,38.6c-1.9,1.9-6.1,3.3-12.2,4a106.82,106.82,0,0,1,1.9,18.2c-.5,0-1,.1-1.5.1A110,110,0,0,0,88,41.5c.4,0,.8-.1,1.3-.1,6-.6,10.1-2,12-3.9a7.6,7.6,0,0,0,.4,1.1"/></g><g class="cls-4"><path class="cls-5" d="M105.4,43.3c.6,2.8,1.2,6.5,1.6,9.3a4,4,0,0,1-1,3.1,71.85,71.85,0,0,0-3.9-17.5,3.72,3.72,0,0,0,.6-3.8c.8,2.6,2,6.1,2.7,8.9"/></g><g class="cls-4"><path class="cls-6" d="M102.4,33.8l.2.6a3.72,3.72,0,0,1-.6,3.8,71.85,71.85,0,0,1,3.9,17.5c-.1.2-.3.3-.4.5a70.9,70.9,0,0,0-4.3-18.7l.4-.4a3.49,3.49,0,0,0,.5-3.8l.3.5"/></g><g class="cls-4"><path class="cls-5" d="M5.7,62.2c-3-2.6-4.2-5-3.8-7.1.7-2.9,1.6-6.8,2.5-9.7S6.9,38.9,8,36.2c-1,2.2,0,4.8,3.3,7.7A86.32,86.32,0,0,0,5.7,62.2"/></g><g class="cls-4"><path class="cls-6" d="M5.7,62.2a89,89,0,0,1,5.6-18.3A86.32,86.32,0,0,0,5.7,62.2"/></g><g class="cls-4"><path class="cls-6" d="M11.3,43.9C8,41,7,38.4,8,36.2l.3-.6.3-.6c-1.1,2.2-.1,4.8,3.3,7.7l-.6,1.2"/></g><g class="cls-4"><path class="cls-5" d="M26.8,72.8C18.2,69.9,11.1,66.5,6.6,63a84.58,84.58,0,0,1,5.6-18.3c4.3,3.4,11.1,6.6,19.2,9.4a170.37,170.37,0,0,0-4.6,18.7"/></g><g class="cls-4"><path class="cls-6" d="M26.8,72.8A178.06,178.06,0,0,1,31.4,54a178.06,178.06,0,0,0-4.6,18.8"/></g><g class="cls-4"><path class="cls-6" d="M31.4,54c-8.2-2.8-15-6-19.2-9.4A86.32,86.32,0,0,0,6.6,62.9c-.2-.1-.3-.3-.5-.4s-.3-.2-.4-.3a88.63,88.63,0,0,1,6.1-19.5,1.38,1.38,0,0,0,.4.3c.2.1.3.3.5.4,4.2,3.3,11,6.5,19.1,9.3-.1.4-.3.8-.4,1.3"/></g><g class="cls-4"><path class="cls-5" d="M57.7,80a188.3,188.3,0,0,1-29.1-6.6,184.2,184.2,0,0,1,4.5-18.8,170.61,170.61,0,0,0,27.7,6.3c-.9,6.2-2,12.7-3.1,19.1"/></g><g class="cls-4"><path class="cls-6" d="M57.7,80c1.1-6.4,2.2-12.9,3.1-19.2-.9,6.3-2,12.8-3.1,19.2"/></g><g class="cls-4"><path class="cls-6" d="M60.8,60.8a173.06,173.06,0,0,1-27.7-6.3,190.77,190.77,0,0,0-4.5,18.8l-1.8-.6a184.45,184.45,0,0,1,5-20.1c.6.2,1.1.4,1.7.6A168.1,168.1,0,0,0,61,59.5a6.88,6.88,0,0,0-.2,1.3"/></g><g class="cls-4"><path class="cls-2" d="M88.2,81.4a117.37,117.37,0,0,1-13.5.2c-4.9-.2-9.9-.7-15-1.3,1.1-6.4,2.1-12.9,3-19.2,4.8.6,9.6,1.1,14.3,1.3a105.3,105.3,0,0,0,12.8-.2,104.41,104.41,0,0,1-1.6,19.2"/></g><g class="cls-4"><path class="cls-6" d="M88.2,81.4a113.93,113.93,0,0,0,1.6-19.2,104.41,104.41,0,0,1-1.6,19.2"/></g><g class="cls-4"><path class="cls-6" d="M89.9,62.2a105.3,105.3,0,0,1-12.8.2,140.66,140.66,0,0,1-14.3-1.3q-1.35,9.45-3,19.2L57.7,80C58.9,73.1,60,66.2,61,59.5l2,.3c4.8.6,9.5,1.1,14.2,1.3a103.63,103.63,0,0,0,12.7-.2v1.3"/></g><g class="cls-4"><path class="cls-5" d="M104.8,76.4c-2.4,2.4-7.6,4.1-15,4.9a113.93,113.93,0,0,0,1.6-19.2c7.1-.7,12-2.4,14.3-4.6a75.63,75.63,0,0,1-.9,18.9"/></g><g class="cls-4"><path class="cls-6" d="M104.8,76.4a81.27,81.27,0,0,0,.9-19,76.2,76.2,0,0,1-.9,19"/></g><g class="cls-4"><path class="cls-6" d="M105.7,57.4c-2.3,2.3-7.2,3.9-14.3,4.6a113.93,113.93,0,0,1-1.6,19.2,8.08,8.08,0,0,1-1.6.1,110.29,110.29,0,0,0,1.6-20.5c.5,0,1-.1,1.5-.1,7-.7,11.9-2.4,14.2-4.6.1.5.1.9.2,1.3"/></g><g class="cls-4"><path class="cls-5" d="M107.3,63.8c-.2,3-.6,7-1,10a4.12,4.12,0,0,1-1,2.1,76.1,76.1,0,0,0,.8-19,4.21,4.21,0,0,0,1-3c.2,3,.3,6.9.2,9.9"/></g><g class="cls-4"><path class="cls-6" d="M107,53.3l.1.6a3.81,3.81,0,0,1-1,3,76.29,76.29,0,0,1-.8,19c-.1.2-.3.3-.5.5a73.16,73.16,0,0,0,.7-20.3,1.76,1.76,0,0,0,.4-.5,4,4,0,0,0,1-3.1l.1.8"/></g><g class="cls-4"><path class="cls-5" d="M4.5,82.1C2.1,80.1.9,78.2.8,76.5c-.2-3-.2-7.1-.2-10.2.2-2.9.6-6.8,1.1-9.7,0,1.7-.1,3.4,3.8,7a78,78,0,0,0-1,18.5"/></g><g class="cls-4"><path class="cls-6" d="M4.5,82.1a78,78,0,0,1,1-18.5,78,78,0,0,0-1,18.5"/></g><g class="cls-4"><path class="cls-6" d="M5.5,63.5c-2-1.9-4.2-4-3.8-7V56l.1-.8c-.4,2.1.8,4.5,3.8,7.1,0,.3-.1.5-.1.8v.4"/></g><g class="cls-4"><path class="cls-5" d="M24.6,92.1c-8.2-2.8-15-6-19.3-9.4A78.24,78.24,0,0,1,6.4,64.2C10.9,67.7,18,71.1,26.6,74a140.72,140.72,0,0,0-2,18.1"/></g><g class="cls-4"><path class="cls-6" d="M24.6,92.1a135.59,135.59,0,0,1,2-18,137.42,137.42,0,0,0-2,18"/></g><g class="cls-4"><path class="cls-6" d="M26.6,74.1C18,71.2,10.9,67.8,6.4,64.3A83.91,83.91,0,0,0,5.3,82.8c-.2-.1-.3-.3-.5-.4a1.38,1.38,0,0,0-.4-.3A83.52,83.52,0,0,1,5.6,63c0-.3.1-.5.1-.8a1.38,1.38,0,0,0,.4.3c.2.1.3.3.5.4,4.5,3.5,11.6,6.9,20.2,9.8,0,.3-.1.5-.1.8a1.27,1.27,0,0,0-.1.6"/></g><g class="cls-4"><path class="cls-5" d="M54,99a173.06,173.06,0,0,1-27.7-6.3,155.88,155.88,0,0,1,2.1-18,177.38,177.38,0,0,0,29.1,6.6C56.3,87.7,55.1,93.7,54,99"/></g><g class="cls-4"><path class="cls-6" d="M54,99c1.1-5.4,2.3-11.3,3.5-17.7C56.3,87.7,55.1,93.7,54,99"/></g><g class="cls-4"><path class="cls-6" d="M57.4,81.3a188.3,188.3,0,0,1-29.1-6.6,158.44,158.44,0,0,0-2.1,18c-.6-.2-1.1-.4-1.7-.6a130.78,130.78,0,0,1,2.1-18.6c0-.3.1-.5.1-.8l1.8.6a177.38,177.38,0,0,0,29.1,6.6c0,.3-.1.5-.1.8a1.08,1.08,0,0,1-.1.6"/></g><g class="cls-4"><path class="cls-5" d="M83.1,100.4a106.08,106.08,0,0,1-12.8.2A140.66,140.66,0,0,1,56,99.3q1.8-8.1,3.6-17.7c5,.7,10.1,1.1,15,1.3a117.78,117.78,0,0,0,13.5-.2,112.79,112.79,0,0,1-5,17.7"/></g><g class="cls-4"><path class="cls-6" d="M83.1,100.4A95.85,95.85,0,0,0,88,82.8a104.47,104.47,0,0,1-4.9,17.6"/></g><g class="cls-4"><path class="cls-6" d="M88,82.8a117.37,117.37,0,0,1-13.5.2c-4.9-.2-9.9-.7-15-1.3C58.4,88,57.2,94,56,99.3L54,99q1.8-8.25,3.6-18.3c0-.3.1-.5.1-.8l2.1.3c5,.7,10.1,1.1,15,1.3a117.78,117.78,0,0,0,13.5-.2c0,.3-.1.5-.1.8a2.54,2.54,0,0,0-.2.7"/></g><g class="cls-4"><path class="cls-5" d="M98.9,95.6c-2.3,2.3-7.2,3.9-14.3,4.7a95.78,95.78,0,0,0,5-17.6c7.5-.8,12.6-2.5,15-4.9a78.83,78.83,0,0,1-5.7,17.8"/></g><g class="cls-4"><path class="cls-6" d="M98.9,95.6a73.48,73.48,0,0,0,5.7-17.9,78.07,78.07,0,0,1-5.7,17.9"/></g><g class="cls-4"><path class="cls-6" d="M104.6,77.7c-2.4,2.4-7.6,4.1-15,4.9a95.78,95.78,0,0,1-5,17.6,7.57,7.57,0,0,1-1.5.1,102.54,102.54,0,0,0,5-18.2c0-.3.1-.5.1-.8.5,0,1.1-.1,1.6-.1,7.5-.8,12.6-2.5,15-4.9,0,.3-.1.5-.1.8s-.1.4-.1.6"/></g><g class="cls-4"><path class="cls-5" d="M102,89.4c-.6,1.4-1.4,3.3-2,4.7-.2.3-.4.7-.6,1a73.48,73.48,0,0,0,5.7-17.9,4.12,4.12,0,0,0,1-2.1A95.92,95.92,0,0,1,102,89.4"/></g><g class="cls-4"><path class="cls-6" d="M106.1,74.6l-.1.6a5,5,0,0,1-1,2.1,73.48,73.48,0,0,1-5.7,17.9c-.1.2-.3.3-.4.5a76.12,76.12,0,0,0,5.8-18.4c0-.3.1-.5.1-.8l.5-.5a5,5,0,0,0,1-2.1l-.2.7"/></g><g class="cls-4"><path class="cls-5" d="M8.1,99.6a9.18,9.18,0,0,1-2.9-3.7,75.17,75.17,0,0,1-2.8-9.1c-.5-2.7-1.2-6.4-1.5-9.1.2,1.7,1.4,3.5,3.7,5.5A64.46,64.46,0,0,0,8.1,99.6"/></g><g class="cls-4"><path class="cls-6" d="M8.1,99.6A63.18,63.18,0,0,1,4.6,83.3,64.62,64.62,0,0,0,8.1,99.6"/></g><g class="cls-4"><path class="cls-6" d="M4.6,83.3c-2.3-2-3.5-3.9-3.7-5.5l-.1-1v-.4C.9,78.1,2.1,80,4.5,82l.1,1.3"/></g><g class="cls-4"><path class="cls-5" d="M25.3,108.2c-7-2.4-12.8-5.1-16.5-8A62.9,62.9,0,0,1,5.4,84c4.2,3.3,11,6.5,19.1,9.3a86.44,86.44,0,0,0,.8,14.9"/></g><g class="cls-4"><path class="cls-6" d="M25.3,108.2a87.09,87.09,0,0,1-.7-14.9,78,78,0,0,0,.7,14.9"/></g><g class="cls-4"><path class="cls-6" d="M24.5,93.3c-8.1-2.7-14.9-6-19.1-9.3a62.9,62.9,0,0,0,3.4,16.2c-.1-.1-.3-.2-.4-.3l-.3-.3A64,64,0,0,1,4.5,82.1a1.38,1.38,0,0,0,.4.3c.2.1.3.3.5.4,4.3,3.4,11.1,6.6,19.3,9.4a3.6,3.6,0,0,0-.2,1.1"/></g><g class="cls-4"><path class="cls-5" d="M50.4,114.1a149.71,149.71,0,0,1-23.7-5.4,100.44,100.44,0,0,1-.5-14.9,170.53,170.53,0,0,0,27.5,6.3c-1.1,5.3-2.2,10-3.3,14"/></g><g class="cls-4"><path class="cls-6" d="M50.4,114.1c1.1-4,2.2-8.7,3.3-14-1.1,5.3-2.2,10-3.3,14"/></g><g class="cls-4"><path class="cls-6" d="M53.7,100.1a168.1,168.1,0,0,1-27.5-6.3,100.44,100.44,0,0,0,.5,14.9c-.5-.2-1-.3-1.5-.5a90.46,90.46,0,0,1-.7-16.1c.6.2,1.1.4,1.7.6A170.61,170.61,0,0,0,53.9,99a3.59,3.59,0,0,1-.2,1.1"/></g><g class="cls-4"><path class="cls-5" d="M75.3,115.3a96.64,96.64,0,0,1-11,.2c-4-.2-8.1-.5-12.2-1.1,1.2-4,2.4-8.7,3.6-13.9,4.8.6,9.5,1.1,14.2,1.3a105.7,105.7,0,0,0,12.8-.2,77,77,0,0,1-7.4,13.7"/></g><g class="cls-4"><path class="cls-6" d="M75.3,115.3a66.51,66.51,0,0,0,7.4-13.8,74.69,74.69,0,0,1-7.4,13.8"/></g><g class="cls-4"><path class="cls-6" d="M82.7,101.5a105.3,105.3,0,0,1-12.8.2,141.36,141.36,0,0,1-14.2-1.3c-1.2,5.3-2.4,10-3.6,13.9a9.85,9.85,0,0,0-1.7-.2c1.1-4.3,2.3-9.3,3.6-15.1l2,.3c4.8.6,9.6,1.1,14.3,1.3a105.3,105.3,0,0,0,12.8-.2,4.87,4.87,0,0,0-.4,1.1"/></g><g class="cls-4"><path class="cls-5" d="M88.8,111.2c-2,1.9-6.2,3.3-12.2,4a66.84,66.84,0,0,0,7.6-13.8c7.1-.7,12-2.4,14.2-4.6a69.48,69.48,0,0,1-9.6,14.4"/></g><g class="cls-4"><path class="cls-6" d="M88.8,111.2a66.11,66.11,0,0,0,9.6-14.5,67.63,67.63,0,0,1-9.6,14.5"/></g><g class="cls-4"><path class="cls-6" d="M98.4,96.7c-2.3,2.3-7.2,3.9-14.2,4.6a66.84,66.84,0,0,1-7.6,13.8c-.4,0-.8.1-1.3.1a67.27,67.27,0,0,0,7.8-14.9c.5,0,1-.1,1.5-.1,7.1-.7,12-2.4,14.3-4.7l-.5,1.2"/></g><g class="cls-4"><path class="cls-5" d="M97.6,98.8a67.47,67.47,0,0,1-5.5,8.4l-1.2,1.5a63.19,63.19,0,0,0,7.9-12.5l.6-.9-1.8,3.5"/></g><g class="cls-4"><path class="cls-6" d="M99.4,95.3a4.7,4.7,0,0,1-.6.9,66.24,66.24,0,0,1-7.9,12.5L89,110.9c-.1.1-.1.2-.2.2A65.41,65.41,0,0,0,98.9,95.5a1.76,1.76,0,0,0,.4-.5,2.07,2.07,0,0,0,.6-1l-.5,1.3"/></g><g class="cls-4"><path class="cls-5" d="M16,113.8a15.93,15.93,0,0,1-1.3-1.3A66.24,66.24,0,0,1,9.5,105c-1.2-2.3-2.8-5.5-3.9-7.9a10.46,10.46,0,0,0,2.8,3.5A50.09,50.09,0,0,0,16,113.8"/></g><g class="cls-4"><path class="cls-6" d="M16,113.8a48.11,48.11,0,0,1-7.5-13.1A48.11,48.11,0,0,0,16,113.8"/></g><g class="cls-4"><path class="cls-6" d="M8.5,100.7a9.33,9.33,0,0,1-2.8-3.5l-.3-.8L5.2,96a9.89,9.89,0,0,0,2.9,3.7,6.89,6.89,0,0,0,.4,1"/></g><g class="cls-4"><path class="cls-5" d="M28.6,120.1c-5.2-1.7-9.5-3.8-12.1-5.9a45.63,45.63,0,0,1-7.3-13c3.6,2.8,9.3,5.6,16.2,7.9a41.12,41.12,0,0,0,3.2,11"/></g><g class="cls-4"><path class="cls-6" d="M28.6,120.1a42.25,42.25,0,0,1-3.2-11,41.12,41.12,0,0,0,3.2,11"/></g><g class="cls-4"><path class="cls-6" d="M25.4,109.1c-6.9-2.3-12.6-5.1-16.2-7.9a48.17,48.17,0,0,0,7.3,13l-.3-.3c-.1-.1-.2-.1-.2-.2A49.51,49.51,0,0,1,8.1,99.6l.3.3c.1.1.3.2.4.3,3.7,2.9,9.5,5.6,16.5,8,0,.3.1.6.1.9"/></g><g class="cls-4"><path class="cls-5" d="M47.2,124.5a112.22,112.22,0,0,1-17.5-4,40.86,40.86,0,0,1-2.9-10.9,142.3,142.3,0,0,0,23.3,5.3,98,98,0,0,1-2.9,9.6"/></g><g class="cls-4"><path class="cls-6" d="M47.2,124.5c.9-2.4,1.9-5.6,3-9.5-1.1,3.8-2.1,7.1-3,9.5"/></g><g class="cls-4"><path class="cls-6" d="M50.2,114.9a153.43,153.43,0,0,1-23.3-5.3,40.86,40.86,0,0,0,2.9,10.9,4.87,4.87,0,0,1-1.1-.4,43.21,43.21,0,0,1-3.4-11.9c.5.2,1,.3,1.5.5a147.21,147.21,0,0,0,23.7,5.4,1.6,1.6,0,0,0-.3.8"/></g><g class="cls-4"><path class="cls-5" d="M65.6,125.3a71,71,0,0,1-8.1.1c-2.9-.1-6-.4-9-.8a81.64,81.64,0,0,0,3.4-9.5c4,.5,8.1.9,12,1.1a75.1,75.1,0,0,0,10.8-.2,40.33,40.33,0,0,1-9.1,9.3"/></g><g class="cls-4"><path class="cls-6" d="M65.6,125.3a39.77,39.77,0,0,0,9.1-9.2,41.84,41.84,0,0,1-9.1,9.2"/></g><g class="cls-4"><path class="cls-6" d="M74.7,116.1a93.57,93.57,0,0,1-10.8.2c-3.9-.2-8-.5-12-1.1a81.64,81.64,0,0,1-3.4,9.5c-.4-.1-.8-.1-1.3-.2a96.41,96.41,0,0,0,3.2-10.4,9.85,9.85,0,0,0,1.7.2c4.1.5,8.2.9,12.2,1.1a78,78,0,0,0,11-.2l-.6.9"/></g><g class="cls-4"><path class="cls-5" d="M86.2,113.9l-.6.6c-4.2,3.8-4.5,4.1-7.4,6.1-1.2.8-2.7,1.8-3.9,2.5a19,19,0,0,1-7.8,2,39.66,39.66,0,0,0,9.5-9.3c6-.6,10.1-2,12.1-3.9-.7.8-1.3,1.4-1.9,2"/></g><g class="cls-4"><path class="cls-6" d="M86.2,113.9a56.51,56.51,0,0,1-10.7,8.4,56.51,56.51,0,0,0,10.7-8.4"/></g><g class="cls-4"><path class="cls-6" d="M75.5,122.3A54.84,54.84,0,0,0,88,112c-1.9,2-6,3.3-12,4a41.64,41.64,0,0,1-9.5,9.3c-.3,0-.6.1-.9.1a42.11,42.11,0,0,0,9.7-10c.4,0,.9-.1,1.3-.1,6.1-.6,10.3-2,12.2-4a55.71,55.71,0,0,1-13.3,11"/></g><g class="cls-4"><path class="cls-6" d="M86.2,113.9c.9-.9,1.7-1.8,2.6-2.8l.2-.2-2.8,3"/></g><g class="cls-4"><path class="cls-5" d="M20.8,118.8c-3.4-3.2-3.6-3.3-5.3-5.4a11.41,11.41,0,0,0,1.1,1.1,57,57,0,0,0,4.2,4.3"/></g><g class="cls-4"><path class="cls-6" d="M20.8,118.8c4,3.1,4.1,3.2,6.7,4.6-4.3-2.6-4.4-2.6-6.7-4.6"/></g><g class="cls-4"><path class="cls-6" d="M27.5,123.5a37.12,37.12,0,0,1-10.9-8.9,11.41,11.41,0,0,1-1.1-1.1l-.5-.6-.3-.3a15.83,15.83,0,0,0,1.3,1.3,39.31,39.31,0,0,0,11.5,9.6"/></g><g class="cls-4"><path class="cls-5" d="M34.4,126.9a29.32,29.32,0,0,1-4.3-1.8l-2.9-1.6a45.57,45.57,0,0,1-4.7-3.3,33.84,33.84,0,0,1-5.4-5.3c2.6,2.1,6.8,4,11.8,5.7a14.46,14.46,0,0,0,5.5,6.3"/></g><g class="cls-4"><path class="cls-6" d="M34.4,126.9a14.68,14.68,0,0,1-5.5-6.2,14.73,14.73,0,0,0,5.5,6.2"/></g><g class="cls-4"><path class="cls-6" d="M28.9,120.7c-5-1.7-9.2-3.7-11.8-5.7a44.91,44.91,0,0,0,5.4,5.3l-.8-.6-.9-.8c-1.5-1.5-3.5-3.5-4.9-5.1l.2.2.3.3a42.55,42.55,0,0,0,12.1,5.9,1,1,0,0,1,.4.5"/></g><g class="cls-4"><path class="cls-5" d="M44.6,129.3a64.5,64.5,0,0,1-9.6-2.2,13.55,13.55,0,0,1-5-6.1,103.46,103.46,0,0,0,17,3.9c-.9,2.4-1.7,3.8-2.4,4.4"/></g><g class="cls-4"><path class="cls-6" d="M44.6,129.3c.7-.6,1.5-2.1,2.4-4.4-.9,2.4-1.7,3.8-2.4,4.4"/></g><g class="cls-4"><path class="cls-6" d="M47,125a103.46,103.46,0,0,1-17-3.9c1.4,2.8,3,4.9,5,6.1-.2-.1-.4-.1-.6-.2-2.3-1.3-4.2-3.7-5.8-6.8a4.87,4.87,0,0,1,1.1.4,109.65,109.65,0,0,0,17.5,4c-.1,0-.1.2-.2.4"/></g><g class="cls-4"><path class="cls-5" d="M54.8,129.8h-.3a30.77,30.77,0,0,1-4.3,0c-1.6-.1-3.3-.2-4.9-.4.9-.6,1.9-2,2.9-4.3a87.17,87.17,0,0,0,8.8.8,67.49,67.49,0,0,0,7.9-.1,24.9,24.9,0,0,1-10.1,4"/></g><g class="cls-4"><polyline class="cls-6" points="54.8 129.8 54.7 129.8 54.8 129.8"/></g><g class="cls-4"><path class="cls-6" d="M54.7,129.8a23.19,23.19,0,0,0,10.2-4,67.14,67.14,0,0,1-7.9.1c-2.9-.1-5.8-.4-8.8-.8a12.26,12.26,0,0,1-2.9,4.3c-.2,0-.5-.1-.7-.1.7-.6,1.6-2.3,2.6-4.9.4.1.8.1,1.3.2,3,.4,6.1.7,9,.8a71,71,0,0,0,8.1-.1,24.41,24.41,0,0,1-10.9,4.5"/></g><g class="cls-4"><path class="cls-5" d="M70.1,125.5a51.8,51.8,0,0,1-9.3,3.3,40.13,40.13,0,0,1-5,.9,25.06,25.06,0,0,0,10-4,20.28,20.28,0,0,0,7.5-1.9l-3.2,1.7"/></g><g class="cls-4"><path class="cls-6" d="M73.3,123.8a19.74,19.74,0,0,1-7.5,1.9,26.62,26.62,0,0,1-10,4l-1,.1a24.06,24.06,0,0,0,10.8-4.5c.3,0,.6-.1.9-.1a22.86,22.86,0,0,0,7.8-2l-1,.6"/></g><g class="cls-4"><path class="cls-5" d="M36.2,127.7a18,18,0,0,1-2.1-.8c-.8-.3-1.8-.8-2.6-1.1,1,.5,2.2.9,3.5,1.4a3.34,3.34,0,0,0,1.2.5"/></g><g class="cls-4"><path class="cls-6" d="M36.2,127.7a18,18,0,0,1-2.1-.8c-.8-.3-1.8-.8-2.6-1.1,1,.5,2.2.9,3.5,1.4a3.34,3.34,0,0,0,1.2.5m0,0a8.86,8.86,0,0,1-1.7-.8,29.32,29.32,0,0,1-4.3-1.8l1,.5c1.9.9,1.9.9,2.9,1.3a13.06,13.06,0,0,0,2.1.8"/></g><g class="cls-4"><path class="cls-5" d="M43.9,129.6c-.5-.1-1.2-.2-1.7-.3a8.24,8.24,0,0,1-1.8-.4,14.68,14.68,0,0,1-1.9-.5,9.47,9.47,0,0,0-1.8-.5,3.79,3.79,0,0,1-1.3-.6,59.31,59.31,0,0,0,9,2.1c-.1.2-.3.2-.5.2"/></g><g class="cls-4"><path class="cls-6" d="M43.9,129.6c-.5-.1-1.2-.2-1.7-.3a8.24,8.24,0,0,1-1.8-.4,14.68,14.68,0,0,1-1.9-.5,9.47,9.47,0,0,0-1.8-.5,3.79,3.79,0,0,1-1.3-.6,59.31,59.31,0,0,0,9,2.1c-.1.2-.3.2-.5.2m0,0a1.33,1.33,0,0,0,.7-.3,64.5,64.5,0,0,1-9.6-2.2c-.2-.1-.4-.1-.6-.2a13,13,0,0,0,1.7.8l.3.1,2.1.6a14.68,14.68,0,0,1,1.9.5,16.28,16.28,0,0,0,1.8.4c.5.1,1.2.2,1.7.3"/></g><g class="cls-4"><path class="cls-5" d="M48.3,130a20.84,20.84,0,0,1-2.2-.2c-.5-.1-1.2-.1-1.7-.2a1.7,1.7,0,0,0,.7-.1c1.6.2,3.1.3,4.6.4h3.1a32.64,32.64,0,0,1-4.5.1"/></g><g class="cls-4"><path class="cls-6" d="M48.3,130a20.84,20.84,0,0,1-2.2-.2c-.5-.1-1.2-.1-1.7-.2a1.7,1.7,0,0,0,.7-.1c1.6.2,3.1.3,4.6.4h3.1a32.64,32.64,0,0,1-4.5.1m0,0a42.36,42.36,0,0,0,6.1-.2,30.77,30.77,0,0,1-4.3,0c-1.6-.1-3.3-.2-4.9-.4-.2,0-.5-.1-.7-.1a1.08,1.08,0,0,1-.7.3H44a9.18,9.18,0,0,0,2,.2c1.3.1,1.7.2,2.3.2"/></g><path id="SVGID" class="cls-7" d="M21.7,119.6c-.8-.7-1.9-1.6-2.7-2.4-1.3-1.3-2.9-3-4.1-4.4a46.3,46.3,0,0,1-4.8-6.8,57.68,57.68,0,0,1-4.5-9.1c-.6-1.5-1.3-3.5-1.8-5s-.9-3.2-1.3-4.6-.8-3.6-1.1-5.2S.9,78.4.7,76.8s-.3-3.5-.3-5,0-3.8.1-5.5.2-3.7.4-5.2A60.24,60.24,0,0,1,2.8,50.8c1.8-6.6,1.8-6.6,3.3-10.2a57.64,57.64,0,0,1,4.5-9.3A72.79,72.79,0,0,1,22.5,15.8l3.3-3c1.1-.9,2.7-2.1,3.9-3,1-.7,2.4-1.6,3.4-2.2,1.3-.7,2.9-1.7,4.3-2.3,1-.4,2.2-1,3.2-1.4A32.55,32.55,0,0,1,45,2.4c1.2-.3,2.8-.8,4.1-1C51,1.1,52.5.8,55,.6c1-.1,2.4-.1,3.5-.1a39.66,39.66,0,0,1,4.4.3,46.47,46.47,0,0,1,8.7,1.9,39.55,39.55,0,0,1,7.1,3.1c1.9,1.1,2.2,1.3,4.4,2.7,1,.7,2.3,1.7,3.2,2.4A35.69,35.69,0,0,0,65.2,2.8a34.45,34.45,0,0,1,21.1,8.1c.8.7,1.9,1.6,2.7,2.4,1.2,1.2,2.8,2.8,3.9,4.1a39.18,39.18,0,0,1,2.5,3.2c.9,1.3,2.1,3.1,3,4.5a66.5,66.5,0,0,1,7.2,18.1,72.69,72.69,0,0,1,1.9,20.5,79.3,79.3,0,0,1-1.2,10.8c-.6,3.1-1.7,7.2-2.5,10.2a60.52,60.52,0,0,1-3.6,9.2,65.83,65.83,0,0,1-4.9,8.9,77.26,77.26,0,0,1-5.9,7.9c-.9,1-2.1,2.4-3.1,3.3s-2.5,2.4-3.7,3.3a49.94,49.94,0,0,1-7.4,5.4c-1,.6-2.4,1.4-3.4,1.9l-4.4,2c-.9.4-2,.8-2.9,1.1a53.45,53.45,0,0,1-5.2,1.4,37.73,37.73,0,0,1-7.1.8,40.81,40.81,0,0,1-7.8-.4,37.86,37.86,0,0,1-7.7-1.8,21.39,21.39,0,0,1-3.8-1.5,34.48,34.48,0,0,1-3.3-1.6c-1.9-1.1-2.2-1.3-4.4-2.7A14.15,14.15,0,0,1,21.7,119.6Z"/></svg>