<svg id="Layer_1" data-name="Layer 1" xmlns="http://www.w3.org/2000/svg" xmlns:xlink="http://www.w3.org/1999/xlink" viewBox="0 0 177.7 285.5"><defs><style>.cls-1,.cls-52{fill:none;}.cls-2,.cls-51{fill:#597e8e;}.cls-2,.cls-3{stroke:#0d2e42;stroke-linecap:round;stroke-linejoin:round;stroke-width:4px;}.cls-3{fill:#abcfdb;}.cls-4{isolation:isolate;}.cls-5{clip-path:url(#clip-path);}.cls-6{fill:#998c81;}.cls-10,.cls-11,.cls-12,.cls-13,.cls-14,.cls-15,.cls-16,.cls-17,.cls-18,.cls-19,.cls-20,.cls-21,.cls-22,.cls-23,.cls-24,.cls-25,.cls-26,.cls-27,.cls-28,.cls-29,.cls-30,.cls-31,.cls-32,.cls-33,.cls-34,.cls-35,.cls-36,.cls-37,.cls-38,.cls-39,.cls-40,.cls-41,.cls-42,.cls-43,.cls-44,.cls-45,.cls-46,.cls-47,.cls-48,.cls-49,.cls-50,.cls-51,.cls-52,.cls-6,.cls-7,.cls-8,.cls-9{stroke:#0b2e42;stroke-miterlimit:10;stroke-width:2px;}.cls-7{fill:#94887d;}.cls-8{fill:#8f8379;}.cls-9{fill:#8b7f75;}.cls-10{fill:#867b71;}.cls-11{fill:#81766d;}.cls-12{fill:#7c7269;}.cls-13{fill:#9e9185;}.cls-14{fill:#a39589;}.cls-15{fill:#a7998d;}.cls-16{fill:#ac9e91;}.cls-17{fill:#b1a295;}.cls-18{fill:#b6a69a;}.cls-19{fill:#baab9e;}.cls-20{fill:#bfafa2;}.cls-21{fill:#c4b4a6;}.cls-22{fill:#c9b8aa;}.cls-23{fill:#cebcae;}.cls-24{fill:#d2c1b2;}.cls-25{fill:#d7c5b6;}.cls-26{fill:#dcc9ba;}.cls-27{fill:#e1cebe;}.cls-28{fill:#e5d2c2;}.cls-29{fill:#ead7c6;}.cls-30{fill:#efdbca;}.cls-31{fill:#f1dfd0;}.cls-32{fill:#f2e1d3;}.cls-33{fill:#f2e2d5;}.cls-34{fill:#f3e4d7;}.cls-35{fill:#f3e5d8;}.cls-36{fill:#f4e6da;}.cls-37{fill:#f4e6db;}.cls-38{fill:#f4e7dc;}.cls-39{fill:#f5e8dd;}.cls-40{fill:#f5e9de;}.cls-41{fill:#f5e9df;}.cls-42{fill:#f6eae0;}.cls-43{fill:#f6ebe1;}.cls-44{fill:#f6ebe2;}.cls-45{fill:#f6ece3;}.cls-46{fill:#f7ece3;}.cls-47{fill:#f7ede4;}.cls-48{fill:#f7ede5;}.cls-49{fill:#f7eee6;}.cls-50{fill:#0b2e42;}.cls-53{clip-path:url(#clip-path-3);}</style><clipPath id="clip-path"><path class="cls-1" d="M2.4,119.6c-.4-2.7-.9-6.4-1-9.1-.1-2.5-.4-6-.4-8.5,0-2.7.1-6.2.2-8.9a87.45,87.45,0,0,1,.9-8.8c.8-4.7,1.9-11,3.2-15.7C6,66.2,7,62.9,7.9,60.5c.8-2.2,2-5,2.8-7.1a66.73,66.73,0,0,1,3.7-7.6,97.08,97.08,0,0,1,13-18.6,77.08,77.08,0,0,1,7-7,65.35,65.35,0,0,1,5.1-4.1c2-1.5,4.8-3.3,7-4.7a82.53,82.53,0,0,1,9.2-4.7C57,6.2,58.8,5.5,60.2,5c2.7-.9,3.4-1.1,6-1.8A79.45,79.45,0,0,1,76.8,1.3,70.2,70.2,0,0,1,87.4,1,73.67,73.67,0,0,1,99.1,2.5c1.8.4,4.1,1,5.9,1.5,1.3.4,3.1,1,4.4,1.4,27.5,9.8,49.7,39.9,55.6,80.1,8.3,56.7-19.1,112.2-61.2,124h0c42.1-11.8,69.5-67.3,61.2-124-5.9-40.2-28.1-70.3-55.6-80.1,3.1,1.2,7.2,2.9,10.1,4.4,2.1,1.1,4.8,2.7,6.8,3.9,1.7,1.1,4,2.6,5.6,3.9,1.9,1.5,4.4,3.5,6.2,5s3.8,3.5,5.3,5a135.49,135.49,0,0,1,10.2,12c1.4,2.1,3.3,4.8,4.6,6.9s2.8,4.8,4,6.9A108.87,108.87,0,0,1,169,68.8c.9,2.5,2,5.9,2.7,8.4s1.5,5.8,2.1,8.3c.6,2.7,1.2,6.2,1.6,8.9s.8,6.4,1,9.1a158.8,158.8,0,0,1,.1,16.9,115.87,115.87,0,0,1-2.2,16.7,109.16,109.16,0,0,1-10.8,30.3,94.61,94.61,0,0,1-8.4,13.1A90.4,90.4,0,0,1,144.7,192a59,59,0,0,1-4.6,3.9c-2.4,1.8-5.7,4.1-8.2,5.8-1.1.7-2.5,1.5-3.6,2.1l-2.6,1.3a48.29,48.29,0,0,1-5.2,2.3,67.44,67.44,0,0,1-9,2.9c-.9.2-2.9.7-4.8,1-2.6.4-3.5.6-5.9.8-.8.1-3.2.3-4.8.3-2.6.1-3.2,0-5.7,0-1.7-.1-3.9-.3-5-.4s-2.5-.3-3.6-.5a37.1,37.1,0,0,1-4.8-1c-1.3-.3-3-.8-4.3-1.1a74.12,74.12,0,0,1-7.9-2.8c-3.3-1.4-7.6-3.6-10.7-5.3-2.3-1.3-5.1-3.2-7.2-4.7a74.15,74.15,0,0,1-6.2-4.9c-1.6-1.5-3.8-3.4-5.3-4.9-1.7-1.7-3.9-4.1-5.5-5.9-3-3.5-6.6-8.5-9.2-12.3-1.4-2.1-3.1-5.1-4.3-7.3a76.94,76.94,0,0,1-3.8-7.6c-1.9-4.6-4.3-10.8-5.9-15.5-1-3-2-7.2-2.7-10.3C3.3,125.6,2.8,122.2,2.4,119.6Z"/></clipPath><clipPath id="clip-path-3"><path class="cls-1" d="M68.3,208.4c-1.6-.6-3.8-1.4-5.4-2.1-2.7-1.3-6.2-3.1-8.8-4.5a96.54,96.54,0,0,1-11.2-7.7A90.81,90.81,0,0,1,31,182.7c-1.7-1.9-3.9-4.6-5.5-6.7-1.4-1.9-3.1-4.4-4.5-6.3a125.47,125.47,0,0,1-8.1-14.6,124.1,124.1,0,0,1-6.1-16c-.9-2.6-1.7-6.1-2.3-8.7s-1.2-5.9-1.7-8.5a96.49,96.49,0,0,1-1.3-10.8c-.2-2.6-.4-6-.4-8.5,0-2.7.1-6.2.2-8.8A126.84,126.84,0,0,1,3.4,77.1,114.61,114.61,0,0,1,7.7,61.4,105.73,105.73,0,0,1,14,46.9c1-1.9,2.5-4.5,3.6-6.3,1.3-2,3.1-4.7,4.5-6.6,1.2-1.6,2.9-3.8,4.2-5.3A72.74,72.74,0,0,1,31.7,23,79.44,79.44,0,0,1,55.8,6.9,68.79,68.79,0,0,1,68,3c3.1-.7,4.7-.9,7.5-1.3,1.5-.2,4.4-.4,6.2-.5A23.68,23.68,0,0,1,85.2,1c1.6,0,1.6,0,4.5.2,2,.1,5.1.6,5.8.7,1.1.2,2.6.4,3.7.7l4.3,1c1.8.5,4.2,1.3,6,1.9A57.57,57.57,0,0,0,73.9,4.3a58.33,58.33,0,0,1,35.6,1.2,104.3,104.3,0,0,1,10.8,4.8,77.21,77.21,0,0,1,10.3,6.4c2.1,1.6,4.9,3.7,6.8,5.4a62.65,62.65,0,0,1,5.3,5,110.17,110.17,0,0,1,10.5,12.2c1.4,2.1,3.4,4.9,4.8,7s2.9,4.8,4,6.9a118.45,118.45,0,0,1,6.9,15.4c.9,2.5,2,5.9,2.8,8.4s1.6,5.8,2.1,8.3c.6,2.7,1.2,6.3,1.6,9s.9,6.3,1,9c.2,5.1.5,11.9.2,16.9a113.76,113.76,0,0,1-2.1,16.7,117,117,0,0,1-4.5,16.2,111,111,0,0,1-6.4,14.6,96.94,96.94,0,0,1-8.4,13.1c-1.2,1.6-2.8,3.6-4.1,5.1-1.8,2-4.3,4.6-6.3,6.4a88.39,88.39,0,0,1-12.2,9.3,74.29,74.29,0,0,1-13.6,6.7,70.7,70.7,0,0,1-12.2,3.4,71.54,71.54,0,0,1-12.3,1.2c-3.1,0-4.6-.1-6.4-.2-2.9-.2-5.7-.7-5.8-.7-1.1-.2-2.6-.4-3.7-.7l-4.3-1C72.5,209.8,70.1,209,68.3,208.4Z"/></clipPath></defs><title>balloon1</title><circle class="cls-2" cx="171.7" cy="140.7"/><path class="cls-2" d="M171.7,140.7c-.1.4-.3.8-.4,1.2h0l-.1.2a7.76,7.76,0,0,1-1.6,2.4l-.6,2.1a10.68,10.68,0,0,0,2-3.6h0l.7-2.3Z"/><path class="cls-2" d="M162.2,163.8c-.3.6-.7,1.2-1,1.8a9.06,9.06,0,0,0,1.1-1.6l1.1-2.1A5.16,5.16,0,0,1,162.2,163.8Z"/><path class="cls-2" d="M91.7,246.7a.6.6,0,0,1-.4-.1L33,181.4c-.2-.2-.1-.4,0-.6s.4-.1.6,0L92,246c.2.2.1.4,0,.6a.37.37,0,0,1-.3.1Z"/><path class="cls-2" d="M132.9,241.1a.51.51,0,0,1-.5-.4v-.2l36.3-94.2a.38.38,0,0,1,.7.3h0l-36.3,94.2C133.2,241,133.1,241.1,132.9,241.1Z"/><path class="cls-2" d="M113.3,251.1c-10.3,1.4-21.4.2-22-4.1s9.8-8.4,20.1-9.8,21.4-.2,22,4.1S123.7,249.7,113.3,251.1Zm-1.8-13c-12.1,1.6-19.8,5.9-19.4,8.8s8.9,5,21,3.4,19.8-5.9,19.4-8.8-8.8-5.1-21-3.4Z"/><path class="cls-2" d="M116.7,282.4a49.74,49.74,0,0,1-12.2.2h-.1c-2.7-.3-5.8-.7-8-2.7a.42.42,0,0,1,.6-.6h0c2,1.8,4.9,2.2,7.5,2.5h.1a55.58,55.58,0,0,0,18.6-1.4,45.68,45.68,0,0,0,8.8-3l.2-.1c1.7-.9,4-2,4.5-3.9.1-.2.3-.4.5-.3s.4.3.3.5c-.6,2.2-3.1,3.5-5,4.4l-.2.1a36.64,36.64,0,0,1-9,3A48.14,48.14,0,0,1,116.7,282.4Z"/><path class="cls-2" d="M96.4,279.7a.51.51,0,0,1-.5-.4h0L91,246.2a.51.51,0,0,1,.4-.5h0a.55.55,0,0,1,.5.3h0l4.9,33.2a.46.46,0,0,1-.4.5Z"/><path class="cls-2" d="M137.2,274.2h0a.51.51,0,0,1-.5-.4h0l-4-32.5-.5.1a.45.45,0,1,1-.1-.9h0l.9-.1a.51.51,0,0,1,.5.4h0l4,32.9A.35.35,0,0,1,137.2,274.2Z"/><path class="cls-2" d="M110.1,251c-.2,0-.4-.1-.4-.2L88.8,207.2a.45.45,0,1,1,.8-.4l20.9,43.6a.48.48,0,0,1-.2.6h-.2Z"/><path class="cls-2" d="M120.2,237.2a.51.51,0,0,1-.5-.4v-.2l12.5-41.3a.55.55,0,0,1,.5-.3c.2,0,.3.3.3.5h0l-12.5,41.3C120.5,237.1,120.3,237.2,120.2,237.2Z"/><path class="cls-3" d="M136.8,272l-4.1-31-40.6,5.5,4.2,31A4,4,0,0,0,96,279c.5,3.7,10.2,5.5,21.7,4s20.3-5.8,19.8-9.6A2.67,2.67,0,0,0,136.8,272Z"/><ellipse class="cls-2" cx="111.5" cy="244.11" rx="21.1" ry="6.8" transform="translate(-30.83 16.59) rotate(-7.48)"/><g class="cls-4"><g class="cls-4"><g class="cls-5"><g class="cls-4"><path class="cls-6" d="M2.4,119.6c2.2,13.5,5,22,6.9,26.8,5.2,12.8,8.3,18.4,15.7,28.9,7.3,10.2,22.1,24.6,39.8,31.7,20.6,8.3,37.8,6.3,48.5,3.2a79.32,79.32,0,0,0,41.9-29.4c15.6-21.1,18.8-40.8,20.5-51.5a124.36,124.36,0,0,0,.7-25.6,128.33,128.33,0,0,0-4.7-26.3c-3.2-12.3-11.5-30.5-22.8-43.6C133.5,16,120.9,10,109.4,5.5c27.5,9.8,49.7,39.9,55.6,80.1,8.3,56.7-19.1,112.2-61.2,124h0c42.1-11.8,69.5-67.3,61.2-124-5.9-40.2-28.1-70.3-55.6-80.1a76.69,76.69,0,0,0-22-4.4A71.12,71.12,0,0,0,66.2,3.2c-19.1,5-30.3,14.9-38.8,24C20,35.1,10.3,50,5.4,68a122.32,122.32,0,0,0-3,51.6"/><path class="cls-6" d="M165,85.6c7.2,49.3-12.6,97.8-45.5,117.3h0a46.66,46.66,0,0,1-8.9,4.4,53,53,0,0,1-6.7,2.3,53,53,0,0,0,6.7-2.3c.1-.1.2-.2.2-.3.6-.4,1.5-.9,2.1-1.3-16.1,4.9-54,16.5-88.8-31.6C1.1,142.3-3.3,97.8,13.5,68.3c30-52.6,101.7-22.4,123.7,52,10.2,34.4,3,67.6-17.7,82.6,33-19.5,52.8-68,45.5-117.3-5.9-40.2-28.1-70.3-55.6-80.1-1.3-.4-3.1-1-4.4-1.4-1.8-.5-4.1-1.1-5.9-1.5L95.9,2c-1.1-.2-2.5-.4-3.6-.5l-2.5-.2a19.48,19.48,0,0,1-2.5-.2l-2-.1H81.6a9.7,9.7,0,0,0-1.7.1l-1.6.1c-.5,0-1.1.1-1.5.1l-1.5.2c-.4.1-1,.1-1.5.2l-1.5.2c-.3.1-.9.2-1.3.3l-1.5.3-1.6.3-1.7.4a10.93,10.93,0,0,0-1.7.5l-2.1.6a82.82,82.82,0,0,0-8.9,3.4L50,9.5a89.73,89.73,0,0,0-11.1,7.1l-4.4,3.7c-2.2,2-5,4.8-7,7l-4.3,5.2c-1.5,2.1-3.6,5-5.1,7.2L14.4,46c-1.1,2.3-2.7,5.3-3.7,7.6L7.9,60.7C7.1,63,6,66.2,5.3,68.6L3.5,76.3c-.4,2.6-1.1,6-1.4,8.5L1.3,93c-.1,2.8-.3,6.3-.3,9l.4,8.5c.3,2.7.6,6.4,1,9.1l1.5,8.6c.8,3.1,1.8,7.2,2.7,10.3l2.7,7.9c1,2.4,2.3,5.6,3.4,8l3.6,7.2,4.3,7.3,4.4,6.4c1.6,1.9,3.6,4.6,5.2,6.5l5.1,5.4c1.8,1.7,4.2,4,6.1,5.6l5.5,4.3c2.1,1.4,5,3.4,7.2,4.7l5.3,2.9c2.6,1.2,6.2,2.8,8.9,3.8l4.4,1.4c1.8.5,4.1,1.1,5.9,1.5l3.3.6c1.1.2,2.5.4,3.6.5l2.5.2a19.48,19.48,0,0,1,2.5.2l2,.1h3.7a9.7,9.7,0,0,0,1.7-.1l1.6-.1c.5,0,1.1-.1,1.5-.1l1.5-.2c.4-.1,1-.1,1.5-.2l1.5-.2c.4-.1,1-.2,1.5-.3l1.5-.3,1.6-.3,1.7-.4a10.93,10.93,0,0,0,1.7-.5l2.3-.7a78.14,78.14,0,0,0,16.4-7.5l4.1-2.7a76.41,76.41,0,0,0,8.6-7l4.5-4.5c1.8-2.1,4.2-4.9,5.9-7l4-5.7c1.3-2.2,3.1-5.1,4.4-7.4l3.3-6.7c1-2.4,2.3-5.5,3.1-7.9l2.4-7.4c.6-2.5,1.5-5.8,2-8.3l1.3-8c.3-2.6.7-6.1.8-8.7l.2-8.4c-.1-2.7-.2-6.3-.4-9l-.9-8.6-.1-.4-1.5-8.6c-.7-2.6-1.4-6.1-2.2-8.7l-2.6-8c-1-2.4-2.2-5.7-3.3-8.1l-3.5-7.3c-1.3-2.2-2.9-5.2-4.2-7.4l-4.4-6.5c-1.5-2-3.5-4.6-5.1-6.5l-5-5.5c-1.8-1.7-4.2-4-6-5.7l-5.4-4.4c-2.1-1.5-4.9-3.4-7.1-4.8l-5.3-3c-3-1.4-7.1-3.2-10.1-4.4,27.2,9.8,49.5,39.9,55.3,80.1"/><path class="cls-7" d="M14.4,158C-17.5,91.8,20.1,20.5,76.2,40.6c57.7,20.7,89.4,113.7,53,155.5,27.1-22.6,42.4-66.1,35.9-110.5C159.2,45.4,137,15.3,109.5,5.5c-1.3-.4-3.1-1-4.4-1.4-1.8-.5-4.1-1.1-5.9-1.5L95.9,2c-1.1-.2-2.5-.4-3.6-.5l-2.5-.2a19.48,19.48,0,0,1-2.5-.2l-2-.1H81.6a9.7,9.7,0,0,0-1.7.1l-1.6.1c-.5,0-1.1.1-1.5.1l-1.5.2c-.4.1-1,.1-1.5.2l-1.5.2c-.3.1-.9.2-1.3.3l-1.5.3-1.6.3-1.7.4a10.93,10.93,0,0,0-1.7.5l-2.1.6a82.82,82.82,0,0,0-8.9,3.4L50,9.5a89.73,89.73,0,0,0-11.1,7.1l-4.4,3.7c-2.2,2-5,4.8-7,7l-4.3,5.2c-1.5,2.1-3.6,5-5.1,7.2L14.4,46c-1.1,2.3-2.7,5.3-3.7,7.6L7.9,60.7C7.1,63,6,66.2,5.3,68.6L3.5,76.3c-.4,2.6-1.1,6-1.4,8.5L1.3,93c-.1,2.8-.3,6.3-.3,9l.4,8.5c.3,2.7.6,6.4,1,9.1l1.5,8.6c.8,3.1,1.8,7.2,2.7,10.3l2.7,7.9c1,2.4,2.3,5.6,3.4,8l3.6,7.2,2,3.5-3.7-6.8c-.1-.1-.2-.2-.2-.3"/><path class="cls-7" d="M165,85.6c6.5,44.3-8.8,87.9-35.9,110.5h0c-7.8,8.3-10.7,9.6-19.5,11.6a56.18,56.18,0,0,1-5.8,1.9,56.18,56.18,0,0,0,5.8-1.9h0c-3.7-1.4-12.2,2.4-12.2,2.4-2.9,4-18.1,2.6-32.5-3,2.3.9,5.4,2,7.8,2.7,1.8.5,4.1,1.1,5.9,1.5l3.3.6c1.1.2,2.5.4,3.6.5l2.5.2a19.48,19.48,0,0,1,2.5.2l2,.1h3.7a9.7,9.7,0,0,0,1.7-.1l1.6-.1c.5,0,1.1-.1,1.5-.1l1.5-.2c.4-.1,1-.1,1.5-.2l1.5-.2c.4-.1,1-.2,1.5-.3l1.5-.3,1.6-.3,1.7-.4a10.93,10.93,0,0,0,1.7-.5l2.3-.7a78.14,78.14,0,0,0,16.4-7.5l4.1-2.7a76.41,76.41,0,0,0,8.6-7l4.5-4.5c1.8-2.1,4.2-4.9,5.9-7l4-5.7c1.3-2.2,3.1-5.1,4.4-7.4L167,161c1-2.4,2.3-5.5,3.1-7.9l2.4-7.4c.6-2.5,1.5-5.8,2-8.3l1.3-8c.3-2.6.7-6.1.8-8.7l.2-8.4c-.1-2.7-.2-6.3-.4-9l-.9-8.6-.1-.4-1.5-8.6c-.7-2.6-1.4-6.1-2.2-8.7l-2.6-8c-1-2.4-2.2-5.7-3.3-8.1l-3.5-7.3c-1.3-2.2-2.9-5.2-4.2-7.4l-4.4-6.5c-1.5-2-3.5-4.6-5.1-6.5l-5-5.5c-1.8-1.7-4.2-4-6-5.7l-5.4-4.4c-2.1-1.5-4.9-3.4-7.1-4.8l-5.3-3c-3-1.4-7.1-3.2-10.1-4.4,27.2,9.9,49.5,40,55.3,80.2"/><path class="cls-8" d="M7.3,140.6C-14.6,71.8,31.5,12.2,85.5,39.5c51.9,26.2,79.3,105.7,51.3,149.3C159,164.9,170.9,125.5,165,85.6c-5.9-40.2-28.1-70.3-55.6-80.1-1.3-.4-3.1-1-4.4-1.4-1.8-.5-4.1-1.1-5.9-1.5L95.9,2c-1.1-.2-2.5-.4-3.6-.5l-2.5-.2a19.48,19.48,0,0,1-2.5-.2l-2-.1H81.6a9.7,9.7,0,0,0-1.7.1l-1.6.1c-.5,0-1.1.1-1.5.1l-1.5.2c-.4.1-1,.1-1.5.2l-1.5.2c-.3.1-.9.2-1.3.3l-1.5.3-1.6.3-1.7.4a10.93,10.93,0,0,0-1.7.5l-2.1.6a82.82,82.82,0,0,0-8.9,3.4L50,9.5a89.73,89.73,0,0,0-11.1,7.1l-4.4,3.7c-2.2,2-5,4.8-7,7l-4.3,5.2c-1.5,2.1-3.6,5-5.1,7.2L14.4,46c-1.1,2.3-2.7,5.3-3.7,7.6L7.9,60.7C7.1,63,6,66.2,5.3,68.6L3.5,76.3c-.4,2.6-1.1,6-1.4,8.5L1.3,93c-.1,2.8-.3,6.3-.3,9l.4,8.5c.3,2.7.6,6.4,1,9.1l1.5,8.6c.8,3.1,1.8,7.2,2.7,10.3.4,1.2.9,2.9,1.3,4.1a15.19,15.19,0,0,1-.6-2"/><path class="cls-8" d="M165,85.6c5.8,39.9-6,79.3-28.2,103.2h0c-10.2,15.4-16.6,16.7-28.1,19.3-1.6.6-3.2,1.1-4.8,1.6,1.6-.5,3.2-1,4.8-1.6.1-.1.1-.2.2-.3-4.1-.4-11.5,1.8-10.9,3.3.1.4.8.4,1.2.5-3,.8-7.5,2-18.5.1l3.2.5,1.5.2,2.5.2a19.48,19.48,0,0,1,2.5.2l2,.1h3.7a9.7,9.7,0,0,0,1.7-.1l1.6-.1c.5,0,1.1-.1,1.5-.1l1.5-.2c.4-.1,1-.1,1.5-.2l1.5-.2c.4-.1,1-.2,1.5-.3l1.5-.3,1.6-.3,1.7-.4a10.93,10.93,0,0,0,1.7-.5l2.3-.7a78.14,78.14,0,0,0,16.4-7.5l4.1-2.7a76.41,76.41,0,0,0,8.6-7l4.5-4.5c1.8-2.1,4.2-4.9,5.9-7l4-5.7c1.3-2.2,3.1-5.1,4.4-7.4l3.3-6.7c1-2.4,2.3-5.5,3.1-7.9l2.4-7.4c.6-2.5,1.5-5.8,2-8.3l1.3-8c.3-2.6.7-6.1.8-8.7l.2-8.4c-.1-2.7-.2-6.3-.4-9l-.9-8.6-.1-.4-1.5-8.6c-.7-2.6-1.4-6.1-2.2-8.7L169,69c-1-2.4-2.2-5.7-3.3-8.1l-3.5-7.3c-1.3-2.2-2.9-5.2-4.2-7.4l-4.4-6.5c-1.5-2-3.5-4.6-5.1-6.5l-5-5.5c-1.8-1.7-4.2-4-6-5.7l-5.4-4.4c-2.1-1.5-4.9-3.4-7.1-4.8l-5.3-3c-3-1.4-7.1-3.2-10.1-4.4,27.3,9.9,49.6,40,55.4,80.2"/><path class="cls-9" d="M2.4,119.5C-5.8,44.4,50.1,3.6,103.9,45.5c30.8,24,61.8,84.3,39.8,134.9,17.7-24.1,26.6-59.3,21.4-94.9C159.2,45.3,137,15.2,109.5,5.4c-1.3-.4-3.1-1-4.4-1.4-1.8-.5-4.1-1.1-5.9-1.5L95.9,2c-1.1-.2-2.5-.4-3.6-.5l-2.5-.2a19.48,19.48,0,0,1-2.5-.2l-2-.1H81.6a9.7,9.7,0,0,0-1.7.1l-1.6.1c-.5,0-1.1.1-1.5.1l-1.5.2c-.4.1-1,.1-1.5.2l-1.5.2c-.3.1-.9.2-1.3.3l-1.5.3-1.6.3-1.7.4a10.93,10.93,0,0,0-1.7.5l-2.1.6a82.82,82.82,0,0,0-8.9,3.4L50,9.5a89.73,89.73,0,0,0-11.1,7.1l-4.4,3.7c-2.2,2-5,4.8-7,7l-4.3,5.2c-1.5,2.1-3.6,5-5.1,7.2L14.4,46c-1.1,2.3-2.7,5.3-3.7,7.6L7.9,60.7C7.1,63,6,66.2,5.3,68.6L3.5,76.3c-.4,2.6-1.1,6-1.4,8.5L1.3,93c-.1,2.8-.3,6.3-.3,9l.4,8.5c.3,2.7.6,6.4,1,9,.1.4.1.9.2,1.2a4.3,4.3,0,0,1-.2-1.2"/><path class="cls-9" d="M165,85.6c5.2,35.6-3.7,70.8-21.4,94.9h0c-10.7,23.9-30.8,29.5-32.6,28.8-.3-.1-.2-.8-.5-1-.7-.5-1.9,0-2.7.1-1.3.4-2.6.9-3.9,1.2l3.9-1.2.2-.2c-3.6-.2-9.3,1.3-8.7,2.7,0,0,.4.8,4.7.4-2.9,1.1-4.5,1.6-11.8,1.5h4a9.7,9.7,0,0,0,1.7-.1l1.6-.1c.5,0,1.1-.1,1.5-.1l1.5-.2c.4-.1,1-.1,1.5-.2l1.5-.2c.4-.1,1-.2,1.5-.3l1.5-.3,1.6-.3,1.7-.4a10.93,10.93,0,0,0,1.7-.5l2.3-.7a78.14,78.14,0,0,0,16.4-7.5l4.1-2.7a76.41,76.41,0,0,0,8.6-7l4.5-4.5c1.8-2.1,4.2-4.9,5.9-7l4-5.7c1.3-2.2,3.1-5.1,4.4-7.4l3.3-6.7c1-2.4,2.3-5.5,3.1-7.9l2.4-7.4c.6-2.5,1.5-5.8,2-8.3l1.3-8c.3-2.6.7-6.1.8-8.7l.2-8.4c-.1-2.7-.2-6.3-.4-9l-.9-8.6-.1-.4-1.5-8.6c-.7-2.6-1.4-6.1-2.2-8.7l-2.6-8c-1-2.4-2.2-5.7-3.3-8.1l-3.5-7.3c-1.3-2.2-2.9-5.2-4.2-7.4l-4.4-6.5c-1.5-2-3.5-4.6-5.1-6.5l-5-5.5c-1.8-1.7-4.2-4-6-5.7l-5.4-4.4c-2.1-1.5-4.9-3.4-7.1-4.8l-5.3-3c-3-1.4-7.1-3.2-10.1-4.4,27.2,10,49.5,40.1,55.3,80.3"/><path class="cls-10" d="M1,98.8C5.3,17.5,73.6,3.7,119.5,53.2,144,79.6,164,127.6,150.1,170.6c13.4-23.3,19.5-54,15-85C159.2,45.4,137,15.3,109.5,5.5c-1.3-.4-3.1-1-4.4-1.4-1.8-.5-4.1-1.1-5.9-1.5L95.9,2c-1.1-.2-2.5-.4-3.6-.5l-2.5-.2a19.48,19.48,0,0,1-2.5-.2l-2-.1H81.6a9.7,9.7,0,0,0-1.7.1l-1.6.1c-.5,0-1.1.1-1.5.1l-1.5.2c-.4.1-1,.1-1.5.2l-1.5.2c-.3.1-.9.2-1.3.3l-1.5.3-1.6.3-1.7.4a10.93,10.93,0,0,0-1.7.5l-2.1.6a82.82,82.82,0,0,0-8.9,3.4L50,9.5a89.73,89.73,0,0,0-11.1,7.1l-4.4,3.7c-2.2,2-5,4.8-7,7l-4.3,5.2c-1.5,2.1-3.6,5-5.1,7.2L14.4,46c-1.1,2.3-2.7,5.3-3.7,7.6L7.9,60.7C7.1,63,6,66.2,5.3,68.6L3.5,76.3c-.4,2.6-1.1,6-1.4,8.5L1.3,93,1,99.8v-1"/><path class="cls-10" d="M165,85.6c4.5,31-1.6,61.7-15,85h0c-9.7,30.2-30.7,39.3-46.5,41.6l1.8-.3c.4-.1,1-.2,1.5-.3l1.5-.3,1.6-.3,1.7-.4a10.93,10.93,0,0,0,1.7-.5l2.3-.7a78.14,78.14,0,0,0,16.4-7.5l4.1-2.7a76.41,76.41,0,0,0,8.6-7l4.5-4.5c1.8-2.1,4.2-4.9,5.9-7l4-5.7c1.3-2.2,3.1-5.1,4.4-7.4l3.3-6.7c1-2.4,2.3-5.5,3.1-7.9l2.4-7.4c.6-2.5,1.5-5.8,2-8.3l1.3-8c.3-2.6.7-6.1.8-8.7l.2-8.4c-.1-2.7-.2-6.3-.4-9l-.9-8.6-.1-.4-1.5-8.6c-.7-2.6-1.4-6.1-2.2-8.7l-2.6-8c-1-2.4-2.2-5.7-3.3-8.1l-3.5-7.3c-1.3-2.2-2.9-5.2-4.2-7.4l-4.4-6.5c-1.5-2-3.5-4.6-5.1-6.5l-5-5.5c-1.8-1.7-4.2-4-6-5.7L132,17.5c-2.1-1.5-4.9-3.4-7.1-4.8l-5.3-3c-3-1.4-7.1-3.2-10.1-4.4,27.4,10,49.7,40.1,55.5,80.3"/><path class="cls-11" d="M2.9,78.9C20.3,1.2,92.4,3.6,133.6,62.1,145.5,79,164.3,114,156.3,158a138.32,138.32,0,0,0,8.8-72.4C159.2,45.4,137,15.3,109.5,5.5c-1.3-.4-3.1-1-4.4-1.4-1.8-.5-4.1-1.1-5.9-1.5L95.9,2c-1.1-.2-2.5-.4-3.6-.5l-2.5-.2a19.48,19.48,0,0,1-2.5-.2l-2-.1H81.6a9.7,9.7,0,0,0-1.7.1l-1.6.1c-.5,0-1.1.1-1.5.1l-1.5.2c-.4.1-1,.1-1.5.2l-1.5.2c-.3.1-.9.2-1.3.3l-1.5.3-1.6.3-1.7.4a10.93,10.93,0,0,0-1.7.5l-2.1.6a82.82,82.82,0,0,0-8.9,3.4L50,9.5a89.73,89.73,0,0,0-11.1,7.1l-4.4,3.7c-2.2,2-5,4.8-7,7l-4.3,5.2c-1.5,2.1-3.6,5-5.1,7.2L14.4,46c-1.1,2.3-2.7,5.3-3.7,7.6L7.9,60.7C7.1,63,6,66.2,5.3,68.6L3.5,76.3,2.8,80l.1-1.1"/><path class="cls-11" d="M165,85.6c3.8,25.7.2,51.2-8.8,72.4h0c-3,19.9-15.6,44-42.1,51.9l2.4-.7A81.35,81.35,0,0,0,132,202l4.1-2.7a76.41,76.41,0,0,0,8.6-7l4.5-4.5c1.8-2.1,4.2-4.9,5.9-7l4-5.7c1.3-2.2,3.1-5.1,4.4-7.4l3.3-6.7c1-2.4,2.3-5.5,3.1-7.9l2.4-7.4c.6-2.5,1.5-5.8,2-8.3l1.3-8c.3-2.6.7-6.1.8-8.7l.2-8.4c-.1-2.7-.2-6.3-.4-9l-.9-8.6-.1-.4-1.5-8.6c-.7-2.6-1.4-6.1-2.2-8.7l-2.6-8c-1-2.4-2.2-5.7-3.3-8.1l-3.5-7.3c-1.3-2.2-2.9-5.2-4.2-7.4l-4.4-6.5c-1.5-2-3.5-4.6-5.1-6.5l-5-5.5c-1.8-1.7-4.2-4-6-5.7L132,17.6c-2.1-1.5-4.9-3.4-7.1-4.8l-5.3-3c-3-1.4-7.1-3.2-10.1-4.4,27.4,9.9,49.7,40,55.5,80.2"/><path class="cls-12" d="M12.1,50.6c35.1-67.7,119.6-32,144.1,42.5a121,121,0,0,1,6.1,47.1,139.9,139.9,0,0,0,2.8-54.6C159.2,45.4,137,15.3,109.5,5.5c-1.3-.4-3.1-1-4.4-1.4-1.8-.5-4.1-1.1-5.9-1.5L95.9,2c-1.1-.2-2.5-.4-3.6-.5l-2.5-.2a19.48,19.48,0,0,1-2.5-.2l-2-.1H81.6a9.7,9.7,0,0,0-1.7.1l-1.6.1c-.5,0-1.1.1-1.5.1l-1.5.2c-.4.1-1,.1-1.5.2l-1.5.2c-.3.1-.9.2-1.3.3l-1.5.3-1.6.3-1.7.4a10.93,10.93,0,0,0-1.7.5l-2.1.6a82.82,82.82,0,0,0-8.9,3.4L50,9.5a89.73,89.73,0,0,0-11.1,7.1l-4.4,3.7c-2.2,2-5,4.8-7,7l-4.3,5.2c-1.5,2.1-3.6,5-5.1,7.2L14.4,46c-1.1,2.3-2.7,5.3-3.7,7.6-.6,1.5-1.4,3.5-2,4.9.7-1.7,1.7-3.9,2.4-5.6.3-.8.7-1.7,1-2.3"/><path class="cls-12" d="M165,85.6a138.22,138.22,0,0,1-2.8,54.6h0c.5,23.4-11.2,54.1-38.1,66l2.6-1.3c3.5-1.8,3.5-1.9,5.2-2.9l4.1-2.7a76.41,76.41,0,0,0,8.6-7l4.5-4.5c1.8-2.1,4.2-4.9,5.9-7l4-5.7c1.3-2.2,3.1-5.1,4.4-7.4l3.3-6.7c1-2.4,2.3-5.5,3.1-7.9l2.4-7.4c.6-2.5,1.5-5.8,2-8.3l1.3-8c.3-2.6.7-6.1.8-8.7l.2-8.4c-.1-2.7-.2-6.3-.4-9l-.9-8.6-.1-.4-1.5-8.6c-.7-2.6-1.4-6.1-2.2-8.7l-2.6-8c-1-2.4-2.2-5.7-3.3-8.1L162,53.6c-1.3-2.2-2.9-5.2-4.2-7.4l-4.4-6.5c-1.5-2-3.5-4.6-5.1-6.5l-5-5.5c-1.8-1.7-4.2-4-6-5.7l-5.4-4.4c-2.1-1.5-4.9-3.4-7.1-4.8l-5.3-3c-3-1.4-7.1-3.2-10.1-4.4,27.5,9.9,49.8,40,55.6,80.2"/><path class="cls-13" d="M89.6,211.4c18.8-3.4,50.2-9.1,49.2-62.7-.3-15.3-10.5-65.2-52.2-93C43.7,27.1-6.7,63.5,6.5,132.8,17,188.1,67,215.5,89.6,211.4"/><path class="cls-14" d="M87.6,210.9c72.4-5.3,55.8-104.2,4.2-146.2C49.6,30.5,3,60.4,5.8,119.9c2.4,51.5,47,93.1,81.8,91"/><path class="cls-15" d="M79.2,209.7C142,217.5,148.9,135,104,82.1,66.1,37.6,14.8,50.2,7.7,105.8,1.6,153,37,204.5,79.2,209.7"/><path class="cls-16" d="M67.1,206.1c47.8,16.3,84-31.8,51.8-95C88.7,51.8,31.3,41.5,12.9,92.2c-15.5,42.9,11.3,99.3,54.2,113.9"/><path class="cls-17" d="M63.2,204c49.5,19.3,80.7-26.5,56.6-83.1C94.2,60.7,36.8,44.7,15.7,91.8-1.6,130.5,22.8,188.2,63.2,204"/><path class="cls-18" d="M58.2,200.8c49.7,24.6,79-20.3,62.1-70.4C102,76.1,44.6,45.8,19.3,91.5c-17.2,31.2-2.4,88.9,38.9,109.3"/><path class="cls-19" d="M63.6,202.4c47,18.2,73.7-25,50.1-81.2C94,74.4,40.4,53.6,20,97.6c-17.1,36.9,4.9,89.8,43.6,104.8"/><path class="cls-20" d="M56.4,197.9c43.5,24.3,73.1-13.3,61-58.1C100.7,77.8,45.7,61,23.7,97.3,7,125,18.8,176.9,56.4,197.9"/><path class="cls-21" d="M57.1,197c45.3,24.3,71.8-18.7,55.6-66.1C97.5,86.3,45,63.4,24.7,103.5c-15.6,30.8.2,76.2,32.4,93.5"/><path class="cls-22" d="M50.8,191.4c36.1,26,69,4.2,63.9-42.5-5.3-49.2-55.8-80.3-81.8-50.4-21.2,24.4-12.2,71.3,17.9,92.9"/><path class="cls-23" d="M51.8,190.4c36.8,26.4,65.7-1,61.2-41.4-4.5-41-49.7-80.6-79.2-45.1-17.2,20.9-12.3,64.8,18,86.5"/><path class="cls-24" d="M53.2,189.4c33.8,24.3,62.4-2.9,58.2-40.2-4.3-38.4-45.7-75.6-73.8-43.4C18.4,127.9,26.2,170,53.2,189.4"/><path class="cls-25" d="M54.8,188.3c31.9,22.2,58.8-4,54.9-38.9-4.5-39.3-42.4-65.4-65.5-45.1-22.8,20-17.1,64.7,10.6,84"/><path class="cls-26" d="M50.1,181.4c25.1,24.1,56.1,11.7,58.1-23.4,1.2-20.3-7.6-38-26.3-52.8-4.8-3.8-21.9-11.5-37.1,2.6-17.8,16.8-15.2,53.9,5.3,73.6"/><path class="cls-27" d="M52.3,180.2c23.2,21.7,52.6,9.8,54.3-22,2-37.4-35.4-72.6-60.9-46.8-14.2,14.3-14,49.6,6.6,68.8"/><path class="cls-28" d="M54.8,179c21.8,19.7,48.3,8.9,50.6-20.7,2.3-30.3-28.6-69.1-54.7-47.5-19.2,15.9-14,51.9,4.1,68.2"/><path class="cls-29" d="M57.3,177.9c22.8,19.5,49.5,3.6,46.8-28-2.9-33.8-37.4-58.7-56.9-32.1-11.7,15.9-6.7,45.7,10.1,60.1"/><path class="cls-30" d="M53.3,170.5c18.7,22.9,46.1,16.4,49.6-11.9,3.6-28.8-25.6-58.8-45.9-47.2-16.9,9.7-18.9,40.6-3.7,59.1"/><path class="cls-31" d="M55.2,169.7c18.3,20.8,42.5,15.1,46.4-10.9,3.8-25.5-23.3-58.3-44.2-45.3-3.9,2.4-12,13.6-12.3,20.9-.2,6.3-.8,22.8,10.1,35.3"/><path class="cls-32" d="M57.3,168.9c16.7,19.1,39.6,13.7,43.1-10,3.7-25.5-21.9-56.6-42.5-43.4-13.2,8.5-15.9,36-.6,53.4"/><path class="cls-33" d="M58.8,168.4c14.3,15.9,36.8,14.2,40.4-9.3,3.8-25.5-20.3-55-40.8-41.5-11.3,7.4-15.5,33.1.4,50.8"/><path class="cls-34" d="M60.2,167.9C74.8,183,96.6,180.3,98,157c1.1-18.5-7.6-28.9-11.4-32.6s-7.3-6.9-17.1-8.6c-3.3-.6-7.9,2-10.7,3.9A31.07,31.07,0,0,0,49.7,143c.2,9,6.3,20.6,10.5,24.9"/><path class="cls-10" d="M103.9,209.6c1-.3,2-.6,2.9-.9l.1-.1a.1.1,0,0,1,.1-.1c-3.8.1-7.3,1.4-6.6,2.2,1.2,1.2,9.1-.2,9-1.5,0-.1-.1-.9-2.6-.4-1,.2-1.9.5-2.9.8"/><path class="cls-35" d="M61.6,167.4c16.6,16.6,36.9,7.1,35.6-16.6-.9-17.5-13.7-27.8-15.1-28.9A22.73,22.73,0,0,0,70,117.6c-.8,0-10.7,3.9-10.7,3.9s-8.7,9.7-8.1,20.9c.7,14.3,8.1,22.8,10.4,25"/><path class="cls-36" d="M63.1,167c15.5,15.3,34.1,6.3,33.1-16-.8-16.9-13.6-27-13.7-27.1-3.1-2.3-8.3-4.6-12.3-4.6-3.4-.1-7.9,2.1-10.4,4.2C51,130.7,49,153.2,63.1,167"/><path class="cls-37" d="M64.6,166.5c.1,0,7.9,5.2,11.8,6.4a12.18,12.18,0,0,0,8-.5c7.5-3.8,11.1-10.9,10.7-21.3-.3-9.7-5.6-17.4-5.6-17.5-2-2.4-4.1-6.1-6.7-7.9-1.3-.8-12.2-4.9-12.3-4.9-3.4.1-8.3,1.9-10.3,4.5-2.6,3.3-4.7,5.9-6,16.3,0,0-1.6,13.3,10.4,24.9"/><path class="cls-38" d="M62.6,162.2c3.5,4.2,4.8,5.7,13.1,9.2,0,0,7.7-.3,8.2-.3.1,0,6.8-2.4,9.1-11,3.3-12.5-2.8-22.9-4.8-26.2-5.8-9.8-17.4-11.4-17.5-11.4-3.4.1-8.1,2.2-10.2,4.7-.8,1-2.9,3.6-5.1,14a32,32,0,0,0,7.2,21"/><path class="cls-11" d="M103.9,209.6c.7-.2,1.3-.4,2-.6l.1-.1v-.1c-2.5,0-4.9.9-4.4,1.5.8.8,6.1-.1,6-1,0-.1-.1-.6-1.8-.3-.6.2-1.3.4-1.9.6"/><path class="cls-39" d="M67.5,165.6a23.52,23.52,0,0,0,7.6,4.2c2.4.6,6.3,1.1,8.5-.1,2.4-1.3,5.6-3.7,6.8-6,2.7-5.2,2.7-11.6,2.7-12.3A32.3,32.3,0,0,0,87.2,134c-7.2-9.1-15.9-10-15.9-10a16.81,16.81,0,0,0-10.1,5C60,130.4,57,140.7,57,140.8c-.7,7.4,2.8,18.7,10.5,24.8"/><path class="cls-40" d="M62.5,158.1c4,6.2,7.7,8,11.9,10.1a13,13,0,0,0,8.7.2c.1,0,6.6-4.7,7.6-8,2-6.9,1.9-7.3-.3-17.6,0-.1-2.6-7.1-6.5-11-2.2-2.3-6.5-3.8-9.4-5.2-.9-.4-2-1.2-2.9-1.1s-9.1,4.5-9.9,5.4c-2,2.3-2.5,6.5-3.3,9.4-.2.6-.6,10.7,4.1,17.8"/><path class="cls-41" d="M63.7,157.8a27.09,27.09,0,0,0,10.1,8.8,12.43,12.43,0,0,0,8.9.4c.1,0,6.7-6.1,6.9-7,1.7-6,2.2-8-.2-17.1,0-.1-4.2-8.4-5.1-9.2-.3-.3-12-6.6-12.3-6.6-.6-.1-9.7,5.8-9.8,5.9-1.6,1.6-1.9,4.8-2.4,6.9-.2.9-.9,10.8,3.9,17.9"/><path class="cls-42" d="M64.9,157.4c0,.1,6.2,6.6,8.2,7.6a13.85,13.85,0,0,0,9.2.7c.9-.3,6-5.4,6.8-8.3,1-3.6,1.6-5.8-.7-14.3a21.06,21.06,0,0,0-5.3-8.5c-2.7-2.4-7-6-10.7-5.8-3.4.2-7,3.9-9.5,6.2-1,1-1.2,3.1-1.6,4.5-.4,1.2-1.3,10.9,3.6,17.9"/><path class="cls-12" d="M103.9,209.6c.3-.1.7-.2,1-.3h0c-1.3,0-2.5.5-2.2.7.4.4,3,0,3-.5,0-.1-.1-.3-.9-.2l-.9.3"/><path class="cls-43" d="M66.2,157.1c1.4,2.1,3.7,4.8,6.1,5.9s9.5,1.4,9.5,1.4c2.5-.9,6.6-9.4,6.6-9.7.3-1.1.9-3.6-1.2-11.3-1.9-7.1-13.8-12.7-14.6-12.7-3.4.2-6.7,4.3-9.3,6.5-.5.4-.6,1.4-.7,2,.1,0-2,9.9,3.6,17.9"/><path class="cls-44" d="M67.4,156.7a11.81,11.81,0,0,0,3.9,3.8c.9.4,9,2.8,10.1,2.4s6.3-10.6,6.3-10.7c.7-2.6-.7-6.2-1.4-8.8-1-3.7-11.5-11.2-13.1-11.1-.1,0-8.7,5.7-9,7a22.13,22.13,0,0,0,3.2,17.4"/><path class="cls-45" d="M68.7,156.4a4.62,4.62,0,0,0,1.7,1.7c3,1.2,7.4,4.4,10.5,3.2,2.9-1.1,4.2-5.8,4.8-8.6.5-2.6-.6-6.2-1.3-8.8-.5-1.9-9.3-9.8-10.8-9.6-.3-.1-15.7,6.4-4.9,22.1"/><path class="cls-46" d="M68.2,152.2c.6,1.2,1,3.1,2.2,3.8,2.6,1.5,6.9,4.3,9.8,3.3,2.1-.8,3.1-4.1,3.4-6.2.4-2.7-.6-6.2-1.3-8.8,0-.1-7.6-8.3-8.4-8.3-1.5.1-7.5,10.7-7.6,10.8-.5,1.6,1.2,3.8,1.9,5.4"/><path class="cls-47" d="M73.8,155.1c1.4,1.1,4.1,2.6,5.8,2,3.5-1.3,1.7-9.2.8-12.6-.6-2.3-3.3-6.1-5.8-5.9-3.1.3-5.4,5.4-5.5,8.3s2.5,6.5,4.7,8.2"/><path class="cls-48" d="M77.1,154.4a2.28,2.28,0,0,0,1.9.7,1.14,1.14,0,0,0,.6-1.2,44.22,44.22,0,0,0-1.1-8.9c-.3-1.2-1.7-3.2-3.1-3.1-1.6.2-2.8,2.8-2.9,4.4-.1,2.7,2.4,6.3,4.6,8.1"/><path class="cls-49" d="M76.8,147c-.1-.6.1-2.1-.5-2-.2,0-.3.3-.3.5-.1.5.5,1.1.8,1.5"/></g></g><g class="cls-5"><path class="cls-50" d="M122.1,12.6a79.33,79.33,0,0,1,19.1,19.6A111.21,111.21,0,0,1,155.1,60a139.23,139.23,0,0,1,5.8,24.3c.5,3.3.8,6.6,1.1,9.8a154.5,154.5,0,0,1-1.3,34.8,137.54,137.54,0,0,1-8.9,31.6,107.59,107.59,0,0,1-15.4,26,75,75,0,0,1-20.8,18,55.32,55.32,0,0,1-11.7,5.1h0c82.8-30.7,73.2-177.8,5-204.2-1.4-.5-3.3-1.1-4.7-1.6l-.7-.2a59.2,59.2,0,0,1,18.6,9"/><path class="cls-51" d="M84.5,1.4A68.76,68.76,0,0,1,95,1.8l-2.6-.4c-3.3-.3-3.3-.3-5-.4h-6c.9.1,2.2.3,3.1.4"/><path class="cls-50" d="M84.5,1.4a8,8,0,0,0-3.1-.3,16.28,16.28,0,0,1,3.1.3"/><path class="cls-51" d="M67.6,3.5a99,99,0,0,1,15.8-2,9.67,9.67,0,0,0-2.9-.4h-.7c-2.1.1-2.1.1-3.1.2a17.56,17.56,0,0,0-2.9.4C72,2,71.9,2,71,2.2l-1.6.3a6.37,6.37,0,0,0-1.8,1"/><path class="cls-50" d="M83.4,1.4h1a8,8,0,0,0-3.1-.3h-.9a9.56,9.56,0,0,1,3,.3"/><path class="cls-50" d="M67.6,3.5a10.42,10.42,0,0,1,1.8-1,6.37,6.37,0,0,0-1.8,1"/><path class="cls-51" d="M52.9,8a48.61,48.61,0,0,1,8.5-3c1.7-.5,3.4-.9,5.1-1.3a13.55,13.55,0,0,1,2.1-1l-.7.2a21.15,21.15,0,0,0-3.4.9,59.14,59.14,0,0,0-11.1,4L53,8c0-.1,0,0-.1,0"/><path class="cls-50" d="M66.5,3.7a4.25,4.25,0,0,1,1.1-.2,10.42,10.42,0,0,1,1.8-1l-.8.2a10,10,0,0,0-2.1,1"/><path class="cls-50" d="M52.9,8a.1.1,0,0,0,.1-.1h0a.1.1,0,0,1-.1.1"/><path class="cls-50" d="M52.9,8a.1.1,0,0,0,.1-.1l-.1.1h0"/><path class="cls-51" d="M95.5,9.7c9.4-.3,17.8.2,24,1.6a57.48,57.48,0,0,0-18.6-8.4l-1.7-.4-1.7-.3a64.7,64.7,0,0,0-12.3-.7c3.5,1.2,6.9,4,10.3,8.2"/><path class="cls-50" d="M122.1,12.6c-.5-.3-.9-.6-1.4-.9a11,11,0,0,1,1.4.9"/><path class="cls-50" d="M119.5,11.3l1.2.3a56,56,0,0,0-17.2-8L100.9,3a55.17,55.17,0,0,1,18.6,8.3"/><path class="cls-50" d="M95.5,9.7c-3.4-4.2-6.8-7-10.3-8.1,3.5,1.1,6.9,3.9,10.3,8.1"/><path class="cls-50" d="M85.2,1.6a51.91,51.91,0,0,1,12.3.7L95,1.8a58,58,0,0,0-10.5-.4c.2.1.5.1.7.2"/><path class="cls-51" d="M63.7,13.6A186.78,186.78,0,0,1,93.6,9.8c-3.1-4.2-6.3-7-9.5-8.2A126.39,126.39,0,0,0,67.3,3.7c-1.6,1.8-2.8,5.2-3.6,9.9"/><path class="cls-50" d="M63.7,13.6c1.2-5.6,1.6-7,3.6-9.8-1.6,1.7-2.8,5.1-3.6,9.8"/><path class="cls-50" d="M67.3,3.8A119.84,119.84,0,0,1,84.1,1.6c3.2,1.1,6.4,3.9,9.5,8.2.7,0,1.3-.1,1.9-.1-3.6-4.5-7.3-7.4-11-8.3h-1a99,99,0,0,0-15.8,2l-.4.4"/><path class="cls-51" d="M36,22.2a107.07,107.07,0,0,1,16-5.7c3.1-.9,6.4-1.7,9.6-2.4,1.1-4.8,2.6-8.2,4.5-10-1.8.4-3.7.9-5.4,1.3a60.93,60.93,0,0,0-9,3.2A46,46,0,0,0,36,22.2"/><path class="cls-50" d="M36,22.2A48,48,0,0,1,51.7,8.6,46,46,0,0,0,36,22.2"/><path class="cls-50" d="M51.7,8.6a60.93,60.93,0,0,1,9-3.2c1.8-.5,3.6-.9,5.4-1.3-1.9,1.8-3.4,5.2-4.5,10,.7-.1,1.4-.3,2.1-.4.9-5.1,2.2-8.6,3.9-10.2a4.25,4.25,0,0,1-1.1.2c-1.7.4-3.4.8-5.1,1.3a58.5,58.5,0,0,0-8.5,3l-1.2.6"/><path class="cls-51" d="M34.7,22.8A47.41,47.41,0,0,1,51,9h0a79.81,79.81,0,0,0-12,7.6A99.58,99.58,0,0,0,27.5,27.2L26,28.8q2.55-3,8.7-6"/><path class="cls-50" d="M51,9A49.7,49.7,0,0,0,34.7,22.8c.4-.2.8-.4,1.3-.6A46.76,46.76,0,0,1,53,8h-.1L51,9h0"/><path class="cls-51" d="M123.3,12.4a19.16,19.16,0,0,1,3.5,1.6L125,12.9c-7.7-4.3-7.9-4.4-15.5-7.4a68.44,68.44,0,0,1,13.8,6.9"/><path class="cls-51" d="M105.7,28.1c12.8-.5,24.2.2,32.7,2.2a79.38,79.38,0,0,0-17.6-18c-6.3-1.5-15-2-24.6-1.6a77.14,77.14,0,0,1,9.5,17.4"/><path class="cls-50" d="M141.2,32.2c-.4-.5-.7-1-1.1-1.5.4.5.7,1,1.1,1.5"/><path class="cls-50" d="M105.7,28.1a79.34,79.34,0,0,0-9.6-17.4,73.35,73.35,0,0,1,9.6,17.4"/><path class="cls-50" d="M96.2,10.6c9.6-.3,18.3.2,24.6,1.6a77.38,77.38,0,0,1,17.6,18c.6.1,1.1.3,1.7.4a79.29,79.29,0,0,0-18-18.1c-.5-.3-.9-.6-1.4-.9l-1.2-.3c-6.2-1.4-14.6-1.9-24-1.6.2.3.5.6.7.9"/><path class="cls-51" d="M62.4,33.4a268.36,268.36,0,0,1,40.7-5.2,88.51,88.51,0,0,0-8.9-17.5,209.66,209.66,0,0,0-30.7,3.9,124.13,124.13,0,0,0-1.1,18.8"/><path class="cls-50" d="M62.4,33.4a136.1,136.1,0,0,1,1.1-18.7,121.86,121.86,0,0,0-1.1,18.7"/><path class="cls-50" d="M63.5,14.6a209.66,209.66,0,0,1,30.7-3.9,83.23,83.23,0,0,1,8.9,17.5c.9,0,1.8-.1,2.7-.1A82.24,82.24,0,0,0,95.6,9.8c-.6,0-1.3.1-1.9.1a198.9,198.9,0,0,0-29.9,3.8c-.2.2-.2.6-.3.9"/><path class="cls-51" d="M24.6,45a141.09,141.09,0,0,1,21.8-7.8c4.3-1.2,8.7-2.3,13.1-3.3A115.41,115.41,0,0,1,61.3,15c-3.4.7-6.7,1.6-9.9,2.5A98.08,98.08,0,0,0,35,23.4,77.41,77.41,0,0,0,24.6,45"/><path class="cls-50" d="M24.6,45A73.64,73.64,0,0,1,35.1,23.4,74.89,74.89,0,0,0,24.6,45"/><path class="cls-50" d="M35,23.4a101.48,101.48,0,0,1,16.4-5.9c3.2-.9,6.5-1.7,9.9-2.5a105.31,105.31,0,0,0-1.8,18.9l2.8-.6a117.33,117.33,0,0,1,1.3-19.7c-.7.1-1.4.3-2.1.4q-4.95,1-9.6,2.4a107.07,107.07,0,0,0-16,5.7,14.63,14.63,0,0,1-.9,1.3"/><path class="cls-51" d="M22.8,45.9A76.73,76.73,0,0,1,33.7,24.1c-4.3,2.1-7.3,4.3-9,6.3-2.1,2.7-4.7,6.4-6.6,9.2-4.7,8.1-5,8.6-7.4,13.9L9.2,57c1.4-3.5,6.1-7.4,13.6-11.1"/><path class="cls-50" d="M33.7,24A76.73,76.73,0,0,0,22.8,45.8a13,13,0,0,1,1.7-.8A72.24,72.24,0,0,1,35.9,22.1c-.4.2-.9.4-1.3.6-4,2-6.9,4-8.6,6l-1.3,1.6c1.7-2,4.8-4.1,9-6.3"/><path class="cls-51" d="M143.6,31.7c3.6,1.3,6,2.8,7.3,4.5l-2.4-3c-6.6-7.2-6.8-7.5-11.1-11.2-2.6-2.1-6.2-4.9-9-6.9a13.46,13.46,0,0,0-3.8-1.8,86.91,86.91,0,0,1,19,18.4"/><path class="cls-50" d="M124.7,13.4a19.31,19.31,0,0,1,3.8,1.8l-1.7-1.1a16.47,16.47,0,0,0-3.5-1.6c.4.2.9.6,1.4.9"/><path class="cls-51" d="M114.3,54.9c14.9-.5,28.2.3,38,2.5a110.34,110.34,0,0,0-12.9-25.7c-8.5-2-20.2-2.7-33.1-2.2a181.82,181.82,0,0,1,8,25.4"/><path class="cls-50" d="M155,60c-.2-.7-.5-1.3-.7-2l.7,2"/><path class="cls-50" d="M114.3,54.9a173.7,173.7,0,0,0-8-25.4,181.82,181.82,0,0,1,8,25.4"/><path class="cls-50" d="M106.4,29.6c12.9-.5,24.6.2,33.1,2.2a110.34,110.34,0,0,1,12.9,25.7c.7.2,1.3.3,2,.5-4.7-11.8-6.2-15.1-13.2-25.8-.4-.5-.7-1-1.1-1.5-.6-.1-1.1-.3-1.7-.4-8.4-1.9-19.9-2.6-32.7-2.2a10.09,10.09,0,0,1,.7,1.5"/><path class="cls-51" d="M63.8,61.1a307.32,307.32,0,0,1,47.4-6,189.46,189.46,0,0,0-7.6-25.4A264,264,0,0,0,62.3,35c.2,7.6.6,16.4,1.5,26.1"/><path class="cls-50" d="M63.8,61.1c-1-12-1.2-15.3-1.5-26.2.2,7.7.6,16.5,1.5,26.2"/><path class="cls-50" d="M62.4,34.9a290.15,290.15,0,0,1,41.3-5.3A205.35,205.35,0,0,1,111.3,55c1,0,2.1-.1,3.1-.1A185.82,185.82,0,0,0,105.8,28c-.9,0-1.8.1-2.7.1a268.36,268.36,0,0,0-40.7,5.2v1.6"/><path class="cls-51" d="M19.9,74.7a162.08,162.08,0,0,1,25.4-9.1c5-1.4,10.1-2.7,15.3-3.8-.8-9.7-1.1-18.6-1-26.3-4.5,1-9,2.1-13.3,3.3a154,154,0,0,0-22.2,7.9,111.07,111.07,0,0,0-4.2,28"/><path class="cls-50" d="M19.9,74.7a114.19,114.19,0,0,1,4.2-27.9,109.58,109.58,0,0,0-4.2,27.9"/><path class="cls-50" d="M24.1,46.7a135,135,0,0,1,22.1-7.9c4.3-1.2,8.8-2.3,13.3-3.3-.1,7.7.2,16.5,1,26.3,1.1-.2,2.2-.5,3.3-.7-1-10.4-1.4-19.7-1.5-27.7l-2.8.6c-4.5,1-8.9,2.1-13.1,3.3a141.1,141.1,0,0,0-21.8,7.8,9.83,9.83,0,0,0-.5,1.6"/><path class="cls-51" d="M1.6,89.7c1.1-4.4,6.7-9.3,16.2-14a111.64,111.64,0,0,1,4.5-28.1C14.6,51.5,9.8,55.4,8.4,59c-1,2.9-2.3,6.7-3.1,9.6l-.9,3.7A108.91,108.91,0,0,0,1.6,89.7"/><path class="cls-50" d="M22.3,47.6a115.54,115.54,0,0,0-4.5,28.1c.7-.3,1.3-.7,2-1a116.12,116.12,0,0,1,4.7-29.6c-.6.3-1.2.6-1.7.8C15.3,49.6,10.6,53.5,9.2,57l-.8,2c1.4-3.6,6.2-7.5,13.9-11.4"/><path class="cls-50" d="M1.6,89.7A108.91,108.91,0,0,1,4.4,72.3,108.91,108.91,0,0,0,1.6,89.7"/><path class="cls-51" d="M1.4,90.6c.1-.7.1-1.4.2-2.1l-.2,2.2v-.1"/><path class="cls-50" d="M1.4,90.6a2.92,2.92,0,0,1,.2-.9A108.91,108.91,0,0,1,4.4,72.3C3.6,76.1,2.6,81.1,2,84.9l-.4,3.6c-.1.7-.1,1.4-.2,2.1"/><path class="cls-51" d="M158.4,59.2c5.4,1.9,8.6,4.4,9.6,7.1l-2.2-5.4c-4.7-9.6-4.8-9.8-7.8-14.6-1.7-2.5-3.9-5.9-5.7-8.3-1.3-1.8-3.8-3.3-7.5-4.7a109.43,109.43,0,0,1,13.6,25.9"/><path class="cls-50" d="M144.7,33.3c3.7,1.3,6.2,2.9,7.5,4.7l-1.3-1.7c-1.3-1.7-3.8-3.2-7.3-4.5.4.4.7,1,1.1,1.5"/><path class="cls-51" d="M120.4,88.7c15.4-.6,29.2.3,39.3,2.6q-.3-3.75-.9-7.5a146.47,146.47,0,0,0-5.7-24.3c-9.9-2.3-23.3-3.1-38.2-2.5,1.8,7.5,3.3,15.6,4.6,24.2l.9,7.5"/><path class="cls-50" d="M162,94.1c-.1-.8-.1-1.5-.2-2.3l.2,2.3"/><path class="cls-50" d="M120.4,88.7a301.7,301.7,0,0,0-5.6-31.8c1.8,7.5,3.3,15.6,4.6,24.2.4,2.6.7,5.1,1,7.6"/><path class="cls-50" d="M114.8,56.9c15-.5,28.4.3,38.2,2.5a139.22,139.22,0,0,1,5.7,24.3q.6,3.75.9,7.5l2,.5c-1.6-14-2.3-17.9-6.6-31.7-.2-.7-.5-1.3-.7-2-.6-.2-1.3-.3-2-.5-9.8-2.3-23.1-3.1-38-2.5l.5,1.9"/><path class="cls-51" d="M68.2,95.1a315.78,315.78,0,0,1,49-6.2c-.3-2.5-.7-5-1-7.6q-2-12.9-4.5-24.3A326.17,326.17,0,0,0,64,63.1c.7,7.6,1.7,15.8,3,24.4.4,2.6.8,5.1,1.2,7.6"/><path class="cls-50" d="M68.2,95.1,67,87.6c-1.3-8.6-2.3-16.8-3-24.4.7,7.6,1.7,15.8,3,24.4l1.2,7.5"/><path class="cls-50" d="M64,63.1A324.46,324.46,0,0,1,111.7,57q2.55,11.25,4.5,24.3c.4,2.5.7,5,1,7.6,1.1-.1,2.1-.1,3.2-.1-.3-2.5-.6-5-1-7.6-1.4-9.4-3.1-18.2-5-26.2-1,0-2.1.1-3.1.1a320.1,320.1,0,0,0-47.4,6c0,.7.1,1.3.1,2"/><path class="cls-51" d="M22.7,109.1A166.34,166.34,0,0,1,49,99.7c5.1-1.4,10.4-2.7,15.8-3.9l-1.2-7.5c-1.3-8.6-2.2-16.8-2.9-24.5-5.2,1.1-10.4,2.4-15.4,3.8a176.32,176.32,0,0,0-25.6,9.1,166.67,166.67,0,0,0,1.6,24.9c.5,2.6.9,5.1,1.4,7.5"/><path class="cls-50" d="M22.7,109.1c-.5-2.5-.9-5-1.3-7.5a143.11,143.11,0,0,1-1.6-24.9,166.67,166.67,0,0,0,1.6,24.9c.4,2.6.8,5.1,1.3,7.5"/><path class="cls-50" d="M19.8,76.8a161.46,161.46,0,0,1,25.6-9.1c5-1.4,10.2-2.7,15.4-3.8.7,7.6,1.6,15.8,2.9,24.5l1.2,7.5c1.1-.2,2.3-.5,3.4-.7l-1.2-7.5c-1.4-9.4-2.4-18.3-3.2-26.5-1.1.2-2.2.5-3.3.7-5.2,1.1-10.3,2.4-15.3,3.8a162.08,162.08,0,0,0-25.4,9.1,12.75,12.75,0,0,0-.1,2"/><path class="cls-51" d="M3.8,124.6c1.1-4.5,6.9-9.6,16.8-14.5-.5-2.5-.9-5-1.3-7.5a143.11,143.11,0,0,1-1.6-24.9C8.1,82.5,2.5,87.4,1.4,91.9a120.34,120.34,0,0,0,1.1,25.3c.4,2.5.8,5,1.3,7.4"/><path class="cls-50" d="M3.8,124.6C.9,107.9,1,103.9,1.4,91.8a120.34,120.34,0,0,0,1.1,25.3c.4,2.6.8,5.1,1.3,7.5"/><path class="cls-50" d="M1.4,91.9c1.1-4.4,6.7-9.3,16.3-14.1a143.11,143.11,0,0,0,1.6,24.9c.4,2.5.8,5,1.3,7.5.7-.3,1.4-.7,2.1-1-.5-2.5-.9-5-1.3-7.5a148,148,0,0,1-1.6-27c-.7.3-1.4.7-2,1-9.6,4.7-15.2,9.6-16.2,14l-.2,2.2"/><path class="cls-51" d="M3.7,125.6c-.5-2.5-1-4.9-1.3-7.5A121,121,0,0,1,1.3,92.7v.2C1.2,95.7,1,99.3,1,102c.5,11.3.5,11.5,1.4,17.6l1.4,7.8a10.87,10.87,0,0,1-.1-1.8"/><path class="cls-50" d="M1.3,92.8a121.57,121.57,0,0,0,1.1,25.4c.4,2.5.8,5,1.3,7.5a2.92,2.92,0,0,1,.2-.9c-.5-2.5-1-4.9-1.3-7.5a121.54,121.54,0,0,1-.9-27.5c-.1.3-.1.6-.2.9v.1L1.2,93a.31.31,0,0,0,.1-.2"/><path class="cls-51" d="M165,85.6q.6,3.75.9,7.5c6.8,2.8,9.3,4.5,10.3,9l-.9-7.9c-2-11.3-2.1-11.5-3.7-17.3-.8-2.6-1.9-6-2.8-8.6-1-2.8-4.2-5.2-9.7-7.2A127.12,127.12,0,0,1,165,85.6"/><path class="cls-50" d="M159.1,61.2c5.5,2,8.7,4.4,9.7,7.2l-.8-2.2c-1.1-2.7-4.2-5.1-9.6-7.1.2.8.5,1.4.7,2.1"/><path class="cls-51" d="M122.9,123.9c14.2-.5,26.9.3,36.2,2.4a154.64,154.64,0,0,0,.9-32.7c-10.1-2.3-23.9-3.2-39.2-2.6,1.2,11.2,1.9,22.2,2.1,32.9"/><path class="cls-50" d="M160.6,128.9c.1-.7.2-1.4.3-2.2-.1.8-.2,1.5-.3,2.2"/><path class="cls-50" d="M122.9,123.9A328.42,328.42,0,0,0,120.7,91h0c1.3,11.2,2,22.2,2.2,32.9"/><path class="cls-50" d="M120.7,91c15.3-.6,29.1.3,39.2,2.6a148.27,148.27,0,0,1-.9,32.7l1.9.5a147.12,147.12,0,0,0,1-32.6c-.1-.8-.1-1.5-.2-2.3-.7-.2-1.3-.3-2-.5-10.1-2.3-23.9-3.2-39.3-2.6l.3,2.2"/><path class="cls-51" d="M74.8,129.8a289.51,289.51,0,0,1,45.2-5.7c-.3-10.7-1.1-21.7-2.4-32.9a327.1,327.1,0,0,0-48.9,6.2c1.7,11.1,3.8,22,6.1,32.4"/><path class="cls-50" d="M74.8,129.8c-2.3-10.4-4.4-21.3-6.2-32.4,1.8,11.1,3.9,22,6.2,32.4"/><path class="cls-50" d="M68.6,97.4a330.79,330.79,0,0,1,48.9-6.2c1.3,11.1,2.1,22.2,2.4,32.9,1,0,2-.1,2.9-.1-.2-11.4-1-23.3-2.4-35.2-1.1,0-2.1.1-3.2.1a328.38,328.38,0,0,0-49,6.2,18.46,18.46,0,0,0,.4,2.3"/><path class="cls-51" d="M32.9,142.7A164.75,164.75,0,0,1,57.1,134c4.7-1.3,9.6-2.5,14.6-3.6-2.4-10.4-4.6-21.3-6.5-32.3-5.4,1.2-10.7,2.5-15.8,3.9a168.52,168.52,0,0,0-26.2,9.4,160.48,160.48,0,0,0,9.7,31.3"/><path class="cls-50" d="M32.9,142.7a175.39,175.39,0,0,1-9.7-31.3,160.48,160.48,0,0,0,9.7,31.3"/><path class="cls-50" d="M23.2,111.4A168.52,168.52,0,0,1,49.4,102c5.1-1.4,10.4-2.7,15.8-3.9,1.8,11.1,4,21.9,6.5,32.3,1-.2,2.1-.4,3.1-.7-2.4-11.1-4.7-22.8-6.6-34.7-1.1.2-2.3.5-3.4.7-5.4,1.3-10.7,2.6-15.8,4a166.34,166.34,0,0,0-26.3,9.4c.2.8.3,1.5.5,2.3"/><path class="cls-51" d="M15.5,157c1-4.2,6.4-8.8,15.5-13.3a167,167,0,0,1-9.9-31.2c-9.9,4.9-15.7,9.9-16.8,14.5a125.34,125.34,0,0,0,11.2,30"/><path class="cls-50" d="M15.5,157A123,123,0,0,1,4.3,126.9h0A124.51,124.51,0,0,0,15.5,157"/><path class="cls-50" d="M4.3,126.9c1.3-3.5,3.8-7.9,16.8-14.5A159.91,159.91,0,0,0,31,143.6c.6-.3,1.3-.6,1.9-.9a172.59,172.59,0,0,1-10.2-33.6c-.7.3-1.4.7-2.1,1-9.9,4.9-15.7,10-16.8,14.5.2.8.3,1.5.5,2.3"/><path class="cls-51" d="M15.3,157.8a123.76,123.76,0,0,1-11.2-30,6.73,6.73,0,0,0,.1,2c.7,2.6,1.5,6.1,2.3,8.7,3.5,10.4,3.6,10.6,6.1,15.9l3.4,6.7a5.36,5.36,0,0,1-.7-3.3"/><path class="cls-50" d="M4.1,127.8a120.73,120.73,0,0,0,11.2,30c0-.3.1-.6.1-.9A121.62,121.62,0,0,1,3.8,124.6c-.1.3-.1.6-.2.9a12.1,12.1,0,0,0,.1,1.9l.5,2.3a11.48,11.48,0,0,1-.1-1.9"/><path class="cls-51" d="M164.8,128c7.1,2.6,10.1,6,9.5,9.8.2-1.1.4-2.1.6-3.2.6-4.2,1.3-9.7,1.6-13.9.1-4.8.1-11.3,0-16.1-.9-4.2-3-6.1-10.3-9.1a140.48,140.48,0,0,1-1.4,32.5"/><path class="cls-50" d="M174.2,137.7v.2l.1-.6.5-2.8a16.47,16.47,0,0,1-.6,3.2"/><path class="cls-50" d="M166.1,95.4c7.3,3,9.4,4.9,10.3,9.1l-.1-1.3-.1-1.1c-1-4.2-3.1-6.1-10.3-9a19.52,19.52,0,0,1,.2,2.3"/><path class="cls-51" d="M121.6,156.3c11.5-.4,21.8.2,29.3,2a140.08,140.08,0,0,0,7.8-29.8c-9.3-2.1-21.8-2.9-35.9-2.4a265.52,265.52,0,0,1-1.2,30.2"/><path class="cls-50" d="M151.7,160.5c.3-.6.5-1.3.8-1.9l-.8,1.9"/><path class="cls-50" d="M121.6,156.3a289.84,289.84,0,0,0,1.3-30.2,289.84,289.84,0,0,1-1.3,30.2"/><path class="cls-50" d="M122.9,126.1c14-.5,26.6.3,35.9,2.4a141.67,141.67,0,0,1-7.8,29.8,8.33,8.33,0,0,1,1.5.4c4.4-12,5.5-15.6,8.1-29.7.1-.7.2-1.4.3-2.2-.6-.2-1.2-.3-1.9-.5-9.3-2.2-22-2.9-36.2-2.4a16.2,16.2,0,0,1,.1,2.2"/><path class="cls-51" d="M82.6,161.1a253.05,253.05,0,0,1,36.6-4.7,296,296,0,0,0,.7-30.2,295.64,295.64,0,0,0-44.7,5.7c2.3,10.3,4.9,20.2,7.4,29.2"/><path class="cls-50" d="M82.6,161.1c-2.6-9-5.1-18.8-7.4-29.2,2.3,10.3,4.9,20.2,7.4,29.2"/><path class="cls-50" d="M75.2,131.9a297.26,297.26,0,0,1,44.7-5.7c.2,10.6,0,20.8-.7,30.2.8,0,1.6-.1,2.4-.1a280.93,280.93,0,0,0,1.2-32.4c-1,0-2,.1-2.9.1a303.63,303.63,0,0,0-45.2,5.7,22.5,22.5,0,0,1,.5,2.2"/><path class="cls-51" d="M48.7,171.5a135.05,135.05,0,0,1,19.6-7c3.8-1.1,7.8-2.1,11.8-2.9-2.8-8.9-5.5-18.7-8-29q-7.35,1.65-14.4,3.6a162.26,162.26,0,0,0-24,8.6,152.59,152.59,0,0,0,15,26.7"/><path class="cls-50" d="M48.7,171.5a153.55,153.55,0,0,1-15-26.8,150,150,0,0,0,15,26.8"/><path class="cls-50" d="M33.7,144.7a158.18,158.18,0,0,1,24-8.6q7.05-2,14.4-3.6c2.5,10.3,5.2,20.1,8,29a22.12,22.12,0,0,1,2.5-.5c-2.8-9.6-5.4-20.2-7.9-31.3-1,.2-2.1.4-3.1.7-5,1.1-9.8,2.3-14.6,3.6a153.93,153.93,0,0,0-24.2,8.7,17.6,17.6,0,0,1,.9,2"/><path class="cls-51" d="M34.6,183.1c.8-3.4,5.2-7.2,12.5-10.8a147.4,147.4,0,0,1-15.3-26.7c-9,4.5-14.3,9.1-15.3,13.2a110.66,110.66,0,0,0,18.1,24.3"/><path class="cls-50" d="M34.6,183.1c-8.6-9.3-10.9-12.2-18.1-24.3h0a110.66,110.66,0,0,0,18.1,24.3"/><path class="cls-50" d="M16.5,158.9c1-4.1,6.3-8.7,15.3-13.2a147.4,147.4,0,0,0,15.3,26.7c.5-.3,1-.5,1.6-.8a155.64,155.64,0,0,1-15.8-28.8c-.7.3-1.3.6-1.9.9-9.1,4.5-14.5,9.2-15.5,13.3l1,1.9"/><path class="cls-51" d="M34.5,183.8a109.41,109.41,0,0,1-18.1-24.1,5.82,5.82,0,0,0,.7,3.4l3.5,5.8c5.9,8.5,6,8.6,9.7,12.8,1.8,1.9,4.1,4.5,6,6.3a4.67,4.67,0,0,1-1.8-4.2"/><path class="cls-50" d="M16.3,159.7a112.62,112.62,0,0,0,18.1,24.1c0-.2.1-.5.1-.7A111.84,111.84,0,0,1,15.4,157a2.77,2.77,0,0,0-.1.9,5.66,5.66,0,0,0,.7,3.3l1.1,2a6.42,6.42,0,0,1-.8-3.5"/><path class="cls-51" d="M163.1,168.2a3.79,3.79,0,0,1-.6,1.3l1.1-1.9c4.3-8.8,4.5-9.1,6.4-14.6l1.3-3.9c-1.5,4.2-3.4,9.9-5.5,13.9-.8,1.6-2,3.6-2.7,5.2"/><path class="cls-50" d="M163.1,168.2c4.7-9.3,4.9-9.7,8.2-19.1-3.6,10.2-3.7,10.5-8.2,19.1"/><path class="cls-51" d="M155.6,159.6c5.8,2.1,8.2,4.8,7.7,7.9a101.22,101.22,0,0,0,10.5-27.7c.7-3.8-2.3-7.2-9.4-9.7a127.82,127.82,0,0,1-8.8,29.5"/><path class="cls-50" d="M164.4,130.1c7.1,2.5,10,5.9,9.4,9.7a104.55,104.55,0,0,1-10.5,27.7,1.85,1.85,0,0,1-.2.7c4.7-9.3,4.9-9.7,8.2-19.1.9-3.4,2.2-7.8,2.9-11.2v-.2c.7-3.8-2.3-7.2-9.5-9.8a7.8,7.8,0,0,1-.3,2.2"/><path class="cls-51" d="M117,183.5c7.6-.3,14.4.1,19.5,1.3a110.08,110.08,0,0,0,13.7-24.6c-7.4-1.7-17.5-2.3-28.8-1.9a179.54,179.54,0,0,1-4.4,25.2"/><path class="cls-50" d="M136.3,186.5l1.2-1.5-1.2,1.5"/><path class="cls-50" d="M117,183.5a175,175,0,0,0,4.4-25.3h0a178.53,178.53,0,0,1-4.4,25.3"/><path class="cls-50" d="M121.4,158.2c11.3-.4,21.4.2,28.8,1.9a107.9,107.9,0,0,1-13.7,24.6,3.55,3.55,0,0,0,1,.2,104.83,104.83,0,0,0,14.2-24.5c.3-.6.5-1.3.8-1.9-.5-.1-1-.3-1.5-.4-7.6-1.7-17.9-2.4-29.3-2l-.3,2.1"/><path class="cls-51" d="M91.1,186.7a161.64,161.64,0,0,1,24.3-3.1,185.11,185.11,0,0,0,3.7-25.2A229.2,229.2,0,0,0,83.2,163c2.6,8.8,5.3,16.8,7.9,23.7"/><path class="cls-50" d="M91.1,186.7c-2.7-6.9-5.4-14.9-8-23.8,2.7,8.9,5.4,16.9,8,23.8"/><path class="cls-50" d="M83.2,162.9a241.74,241.74,0,0,1,35.9-4.6,185.11,185.11,0,0,1-3.7,25.2,8.6,8.6,0,0,0,1.6-.1,174.53,174.53,0,0,0,4.6-27.2c-.8,0-1.6.1-2.4.1A239.84,239.84,0,0,0,82.6,161c.2.7.4,1.3.6,1.9"/><path class="cls-51" d="M68.6,193.6a94.22,94.22,0,0,1,13-4.7c2.5-.7,5.2-1.4,7.8-1.9-3-6.8-5.9-14.8-8.8-23.6-3.9.9-7.8,1.8-11.6,2.9a118.78,118.78,0,0,0-19.2,6.9,115.85,115.85,0,0,0,18.8,20.4"/><path class="cls-50" d="M68.6,193.6a115.85,115.85,0,0,1-18.8-20.4,115.85,115.85,0,0,0,18.8,20.4"/><path class="cls-50" d="M49.9,173.2a133.47,133.47,0,0,1,19.2-6.9c3.8-1.1,7.6-2,11.6-2.9A238.11,238.11,0,0,0,89.5,187a10.46,10.46,0,0,0,1.7-.4c-2.9-7.3-5.7-16-8.5-25.6a22.12,22.12,0,0,1-2.5.5c-4,.9-8,1.9-11.8,2.9a135.05,135.05,0,0,0-19.6,7,10.81,10.81,0,0,0,1.1,1.8"/><path class="cls-51" d="M59.3,201.3c.5-2.2,3.4-4.7,8.3-7.2a106,106,0,0,1-19.2-20.2c-7.2,3.6-11.5,7.3-12.3,10.6a94,94,0,0,0,23.2,16.8"/><path class="cls-50" d="M59.3,201.3a93.56,93.56,0,0,1-23.2-16.7,96.2,96.2,0,0,0,23.2,16.7"/><path class="cls-50" d="M36,184.5c.8-3.3,5.1-7,12.3-10.6a116.07,116.07,0,0,0,19.2,20.2c.3-.2.7-.3,1-.5a112.43,112.43,0,0,1-19.9-22.1c-.5.3-1.1.5-1.6.8-7.4,3.7-11.7,7.4-12.5,10.8.6.5,1,1,1.5,1.4"/><path class="cls-51" d="M59.2,201.8a97.85,97.85,0,0,1-23.3-16.5,5,5,0,0,0,1.9,4.3l3.6,3.2c7.1,5.6,7.6,5.9,12.6,8.9,2.7,1.5,6.4,3.4,9.2,4.7-2.9-1.3-4.2-2.9-4-4.6"/><path class="cls-50" d="M35.9,185.2a92.5,92.5,0,0,0,23.3,16.5.9.9,0,0,1,.1-.5A95.54,95.54,0,0,1,34.6,183a1.7,1.7,0,0,0-.1.7,4.93,4.93,0,0,0,1.8,4.3l1.5,1.5a5.2,5.2,0,0,1-1.9-4.3"/><path class="cls-51" d="M144.5,191.4a8.93,8.93,0,0,1-2.7,3.5l3-2.6c6-6,6.4-6.3,10.4-11.5,1.9-2.8,4.5-6.5,6.3-9.4a10.09,10.09,0,0,0,.7-1.5,86.55,86.55,0,0,1-17.7,21.5"/><path class="cls-50" d="M144.5,191.4c8.4-8,10.6-10.5,17.6-21.5h0a84.07,84.07,0,0,1-17.6,21.5"/><path class="cls-50" d="M162.1,169.9a10.09,10.09,0,0,1-.7,1.5l1.1-1.9a4.88,4.88,0,0,0,.6-1.3l-1,1.7"/><path class="cls-51" d="M139.6,185.7c3.8,1.4,5.4,3.2,5.1,5.3a86.81,86.81,0,0,0,17.6-21.7c.5-3-1.8-5.8-7.5-7.8a109.17,109.17,0,0,1-15.2,24.2"/><path class="cls-50" d="M154.8,161.5c5.7,2,8.1,4.7,7.5,7.8A89.07,89.07,0,0,1,144.7,191c0,.2-.1.3-.1.5a88.38,88.38,0,0,0,18.6-23.2c.1-.2.1-.5.2-.7.6-3.1-1.9-5.9-7.7-7.9a7.56,7.56,0,0,0-.9,1.8"/><path class="cls-51" d="M109.3,203a31.27,31.27,0,0,1,7.3.5,74.27,74.27,0,0,0,18.7-17.3,74.76,74.76,0,0,0-18.7-1.2c-2,7.3-4.4,13.4-7.3,18"/><path class="cls-50" d="M115.6,204.5l1.5-.9-1.5.9"/><path class="cls-50" d="M109.3,203c2.9-4.6,5.3-10.8,7.3-18-2,7.3-4.4,13.4-7.3,18"/><path class="cls-50" d="M116.6,185a74.76,74.76,0,0,1,18.7,1.2,76.16,76.16,0,0,1-18.7,17.3c.1,0,.3.1.4.1,8.8-5.9,11.2-7.9,19.3-17.1l1.2-1.5a3.55,3.55,0,0,0-1-.2c-5-1.2-11.9-1.6-19.5-1.3-.1.5-.3,1-.4,1.5"/><path class="cls-51" d="M99.6,204.2a74.84,74.84,0,0,1,9.2-1.2,73.09,73.09,0,0,0,6.4-18,163,163,0,0,0-23.4,3,91.28,91.28,0,0,0,7.8,16.2"/><path class="cls-50" d="M99.6,204.2A106.9,106.9,0,0,1,91.7,188a98.18,98.18,0,0,0,7.9,16.2"/><path class="cls-50" d="M91.7,188.1a161.21,161.21,0,0,1,23.4-3c-1.7,7.2-3.8,13.4-6.4,18h.6a76.83,76.83,0,0,0,7.7-19.5,8.6,8.6,0,0,0-1.6.1,161.64,161.64,0,0,0-24.3,3.1,8.09,8.09,0,0,1,.6,1.3"/><path class="cls-51" d="M91.1,206.8A43.66,43.66,0,0,1,96,205a26.35,26.35,0,0,1,3-.7,81.79,81.79,0,0,1-8.8-16c-2.6.6-5.1,1.2-7.5,1.9a76.58,76.58,0,0,0-12.5,4.5,65.39,65.39,0,0,0,20.9,12.1"/><path class="cls-50" d="M91.1,206.8A73.07,73.07,0,0,1,70,194.7a68.46,68.46,0,0,0,21.1,12.1"/><path class="cls-50" d="M70,194.7a76.58,76.58,0,0,1,12.5-4.5c2.5-.7,5-1.3,7.5-1.9a97.92,97.92,0,0,0,8.8,16c.2,0,.4-.1.6-.1A100.85,100.85,0,0,1,91,186.6a10.46,10.46,0,0,0-1.7.4c-2.7.6-5.3,1.2-7.8,1.9a73.73,73.73,0,0,0-13,4.7c.6.4,1,.8,1.5,1.1"/><path class="cls-51" d="M87.5,209.7c.2-.8,1.3-1.8,3.1-2.7a74.7,74.7,0,0,1-21.7-11.8c-4.7,2.3-7.5,4.7-8,6.9a79.3,79.3,0,0,0,26.6,7.6"/><path class="cls-50" d="M87.5,209.7a78.64,78.64,0,0,1-26.6-7.6,79.3,79.3,0,0,0,26.6,7.6"/><path class="cls-50" d="M61,202.1c.5-2.2,3.3-4.6,8-6.9A72.24,72.24,0,0,0,90.7,207c.1-.1.3-.1.4-.2a72.1,72.1,0,0,1-22.4-13.2,9.29,9.29,0,0,0-1,.5c-4.9,2.4-7.8,4.9-8.3,7.2a6,6,0,0,0,1.6.8"/><path class="cls-51" d="M90,212c-.2-.1-.4-.1-.6-.2-1.4-.5-2-1.2-1.9-1.9a79.83,79.83,0,0,1-26.6-7.3c-.2,1.8,1.2,3.4,4.3,4.6l3,1.2c1.4.4,3.2,1.1,4.5,1.5A56.61,56.61,0,0,0,90,212"/><path class="cls-50" d="M60.9,202.6a77.53,77.53,0,0,0,26.6,7.3v-.2a81.74,81.74,0,0,1-28.3-8.4c0,.2-.1.3-.1.5-.2,1.8,1.2,3.4,4.1,4.6l1.9.8c-3-1.2-4.4-2.8-4.2-4.6"/><path class="cls-50" d="M90,212a52.49,52.49,0,0,1-17.2-2.2A52.83,52.83,0,0,0,90,212"/><path class="cls-51" d="M97.6,212.6a30.37,30.37,0,0,1-7.2-.5,52.8,52.8,0,0,1-14.9-1.5l3.1.7c4.3.8,4.4.8,6.8,1.1,3.3.3,3.3.3,5,.4,2.7.1,2.7.1,4,.1h1.4l1.8-.3"/><path class="cls-50" d="M90.4,212.1c-.1,0-.3-.1-.4-.1a52.49,52.49,0,0,1-17.2-2.2l2.6.7a50.43,50.43,0,0,0,15,1.6"/><path class="cls-50" d="M97.6,212.6a11,11,0,0,1-1.8.2h0a11,11,0,0,0,1.8-.2"/><path class="cls-51" d="M107.3,211.5a59.35,59.35,0,0,1-9.1,1.1,7.72,7.72,0,0,1-1.5.2l1.1-.1c2.1-.1,2.1-.1,3.1-.2a17.56,17.56,0,0,0,2.9-.4c1.9-.3,1.9-.3,2.9-.5l1.2-.2a1.27,1.27,0,0,1-.6.1"/><path class="cls-50" d="M98.2,212.6h-.6a11,11,0,0,1-1.8.2h.9a7.72,7.72,0,0,0,1.5-.2"/><path class="cls-50" d="M107.3,211.5a1.27,1.27,0,0,0,.6-.1h0a1.27,1.27,0,0,1-.6.1"/><path class="cls-51" d="M116,208.9a40.54,40.54,0,0,1-4.7,1.7c-1.1.3-2.2.6-3.3.8a1.48,1.48,0,0,0,.7-.1l1.1-.3a21.15,21.15,0,0,0,3.4-.9,75.82,75.82,0,0,0,12.2-4.6,34.09,34.09,0,0,1-9.4,3.4"/><path class="cls-50" d="M108,211.4c-.2,0-.4.1-.6.1a1.76,1.76,0,0,0,.6-.1l.7-.1c-.2,0-.5.1-.7.1"/><path class="cls-50" d="M116,208.9a36,36,0,0,0,9.5-3.4,36,36,0,0,1-9.5,3.4"/><path class="cls-51" d="M119.7,206q-.45,1.35-3.3,2.7a39,39,0,0,0,10.5-3.9c1.6-.8,3.6-2,5.1-2.9,2.5-1.6,5.7-3.9,8.1-5.7,1.6-1.3,2.7-2.5,3-3.7A72.23,72.23,0,0,1,119.7,206"/><path class="cls-50" d="M116.4,208.7c-.1.1-.3.1-.4.2a36,36,0,0,0,9.5-3.4l1.4-.7a41.71,41.71,0,0,1-10.5,3.9"/><path class="cls-50" d="M119.7,206c10.6-4.3,13.5-5.8,23.4-13.4h0A73.81,73.81,0,0,1,119.7,206"/><path class="cls-50" d="M143.1,192.6a8.72,8.72,0,0,1-3,3.7l1.7-1.4a7.36,7.36,0,0,0,2.7-3.5l-1.4,1.2"/><path class="cls-51" d="M117.8,203.9c1.4.5,2.1,1.2,1.9,2a75.11,75.11,0,0,0,23.5-13.7c.4-2-1.2-3.7-4.9-5.1a77.6,77.6,0,0,1-20.5,16.8"/><path class="cls-50" d="M138.3,187.1c3.7,1.3,5.2,3.1,4.9,5.1a77.09,77.09,0,0,1-23.5,13.7v.2a74.88,74.88,0,0,0,24.8-14.6c0-.2.1-.3.1-.5.4-2.1-1.2-3.9-5.1-5.3-.4.5-.8.9-1.2,1.4"/><path class="cls-51" d="M103.9,209.6h0c7.6-3,7.6-3,11.3-5.2a25.69,25.69,0,0,0-6.5-.4c-3,4.1-3.1,4.1-4.8,5.6"/><path class="cls-50" d="M103.9,209.6h0c7.6-3,7.6-3,11.3-5.2a25.69,25.69,0,0,0-6.5-.4c-3,4.1-3.1,4.1-4.8,5.6m0,0a26.19,26.19,0,0,0,5.4-6.6,31.27,31.27,0,0,1,7.3.5c.1,0,.3.1.4.1l-1.5.9a62.9,62.9,0,0,1-11.6,5.1h0"/><path class="cls-51" d="M103.9,209.6h0c2.9-3.3,2.9-3.3,4.3-5.6a57.77,57.77,0,0,0-8.1,1,23.8,23.8,0,0,0,3.8,4.6"/><path class="cls-50" d="M103.9,209.6h0c2.9-3.3,2.9-3.3,4.3-5.6a57.77,57.77,0,0,0-8.1,1,23.8,23.8,0,0,0,3.8,4.6m0,0a23.73,23.73,0,0,1-4.3-5.4,74.84,74.84,0,0,1,9.2-1.2h.6a29.11,29.11,0,0,1-5.5,6.6h0"/><path class="cls-51" d="M103.9,209.6h0a23.61,23.61,0,0,1-4.4-4.5c-.9.2-1.8.4-2.6.6a23,23,0,0,0-4.3,1.6,49.32,49.32,0,0,0,11.3,2.3"/><path class="cls-50" d="M103.9,209.6h0a23.61,23.61,0,0,1-4.4-4.5c-.9.2-1.8.4-2.6.6a23,23,0,0,0-4.3,1.6,49.32,49.32,0,0,0,11.3,2.3m0,0a48.16,48.16,0,0,1-12.8-2.8A43.66,43.66,0,0,1,96,205a26.35,26.35,0,0,1,3-.7c.2,0,.4-.1.6-.1,2.5,3.6,2.6,3.9,4.3,5.4h0"/><path class="cls-51" d="M103.9,209.6h0a53.33,53.33,0,0,1-11.7-2.1c-1.6.8-2.6,1.6-2.8,2.4,9.6.3,9.6.3,14.5-.3"/><path class="cls-50" d="M103.9,209.6h0a53.33,53.33,0,0,1-11.7-2.1c-1.6.8-2.6,1.6-2.8,2.4,9.6.3,9.6.3,14.5-.3m0,0a68.43,68.43,0,0,1-16.3.1c.2-.8,1.3-1.8,3.1-2.7.1-.1.3-.1.4-.2a48.16,48.16,0,0,0,12.8,2.8h0"/><path class="cls-51" d="M103.9,209.6h0a78.47,78.47,0,0,1-14.5.5c-.1.7.5,1.2,1.7,1.7.2.1.3.1.5.2a59.42,59.42,0,0,0,12.3-2.4"/><path class="cls-50" d="M103.9,209.6h0a78.47,78.47,0,0,1-14.5.5c-.1.7.5,1.2,1.7,1.7.2.1.3.1.5.2a59.42,59.42,0,0,0,12.3-2.4m0,0A56.3,56.3,0,0,1,90,212c-.2-.1-.4-.1-.6-.2-1.4-.5-2-1.2-1.9-1.9v-.2a69.24,69.24,0,0,0,16.4-.1h0"/><path class="cls-51" d="M103.9,209.6h0A51.31,51.31,0,0,1,92,212a24,24,0,0,0,6.4.5,14.69,14.69,0,0,0,5.5-2.9"/><path class="cls-50" d="M103.9,209.6h0A51.31,51.31,0,0,1,92,212a24,24,0,0,0,6.4.5,14.69,14.69,0,0,0,5.5-2.9m0,0a14.59,14.59,0,0,1-6.3,3,30.37,30.37,0,0,1-7.2-.5c-.1,0-.3-.1-.4-.1a57.11,57.11,0,0,0,13.9-2.4h0"/><path class="cls-51" d="M103.9,209.6h0a12,12,0,0,1-5,2.8,46,46,0,0,0,8.1-1c-2-.7-2-.7-3.1-1.8"/><path class="cls-50" d="M103.9,209.6h0a12,12,0,0,1-5,2.8,46,46,0,0,0,8.1-1c-2-.7-2-.7-3.1-1.8m0,0c2.2,1.7,2.2,1.8,3.5,1.9a59.35,59.35,0,0,1-9.1,1.1h-.6a15.38,15.38,0,0,0,6.2-3h0"/><path class="cls-51" d="M103.9,209.6h0a7.46,7.46,0,0,0,3.7,1.8,24.6,24.6,0,0,0,2.9-.7,36.77,36.77,0,0,0,4.1-1.5,42.13,42.13,0,0,1-10.7.4"/><path class="cls-50" d="M103.9,209.6h0a7.46,7.46,0,0,0,3.7,1.8,24.6,24.6,0,0,0,2.9-.7,36.77,36.77,0,0,0,4.1-1.5,42.13,42.13,0,0,1-10.7.4m0,0a40.51,40.51,0,0,0,12.1-.7,40.54,40.54,0,0,1-4.7,1.7c-1.1.3-2.2.6-3.3.8-.2,0-.4.1-.6.1a5.33,5.33,0,0,1-3.5-1.9h0"/><path class="cls-51" d="M103.9,209.6h0A41,41,0,0,0,115,209c1.7-.8,2.7-1.6,2.9-2.4a72.65,72.65,0,0,1-14,3"/><path class="cls-50" d="M103.9,209.6h0A41,41,0,0,0,115,209c1.7-.8,2.7-1.6,2.9-2.4a72.65,72.65,0,0,1-14,3m0,0a68.56,68.56,0,0,0,15.8-3.6q-.45,1.35-3.3,2.7c-.1.1-.3.1-.4.2a40.51,40.51,0,0,1-12.1.7h0"/><path class="cls-51" d="M103.9,209.6h0a72.29,72.29,0,0,0,14.1-3.2c.1-.7-.4-1.3-1.7-1.8a57.51,57.51,0,0,1-12.4,5"/><path class="cls-50" d="M103.9,209.6h0a72.29,72.29,0,0,0,14.1-3.2c.1-.7-.4-1.3-1.7-1.8a57.51,57.51,0,0,1-12.4,5m0,0a64.89,64.89,0,0,0,13.9-5.8c1.4.5,2.1,1.2,1.9,2v.2a69.77,69.77,0,0,1-15.8,3.6h0"/></g><path id="SVGID" class="cls-52" d="M2.4,119.6c-.4-2.7-.9-6.4-1-9.1-.1-2.5-.4-6-.4-8.5,0-2.7.1-6.2.2-8.9a87.45,87.45,0,0,1,.9-8.8c.8-4.7,1.9-11,3.2-15.7C6,66.2,7,62.9,7.9,60.5c.8-2.2,2-5,2.8-7.1a66.73,66.73,0,0,1,3.7-7.6,97.08,97.08,0,0,1,13-18.6,77.08,77.08,0,0,1,7-7,65.35,65.35,0,0,1,5.1-4.1c2-1.5,4.8-3.3,7-4.7a82.53,82.53,0,0,1,9.2-4.7C57,6.2,58.8,5.5,60.2,5c2.7-.9,3.4-1.1,6-1.8A79.45,79.45,0,0,1,76.8,1.3,70.2,70.2,0,0,1,87.4,1,73.67,73.67,0,0,1,99.1,2.5c1.8.4,4.1,1,5.9,1.5,1.3.4,3.1,1,4.4,1.4,27.5,9.8,49.7,39.9,55.6,80.1,8.3,56.7-19.1,112.2-61.2,124h0c42.1-11.8,69.5-67.3,61.2-124-5.9-40.2-28.1-70.3-55.6-80.1,3.1,1.2,7.2,2.9,10.1,4.4,2.1,1.1,4.8,2.7,6.8,3.9,1.7,1.1,4,2.6,5.6,3.9,1.9,1.5,4.4,3.5,6.2,5s3.8,3.5,5.3,5a135.49,135.49,0,0,1,10.2,12c1.4,2.1,3.3,4.8,4.6,6.9s2.8,4.8,4,6.9A108.87,108.87,0,0,1,169,68.8c.9,2.5,2,5.9,2.7,8.4s1.5,5.8,2.1,8.3c.6,2.7,1.2,6.2,1.6,8.9s.8,6.4,1,9.1a158.8,158.8,0,0,1,.1,16.9,115.87,115.87,0,0,1-2.2,16.7,109.16,109.16,0,0,1-10.8,30.3,94.61,94.61,0,0,1-8.4,13.1A90.4,90.4,0,0,1,144.7,192a59,59,0,0,1-4.6,3.9c-2.4,1.8-5.7,4.1-8.2,5.8-1.1.7-2.5,1.5-3.6,2.1l-2.6,1.3a48.29,48.29,0,0,1-5.2,2.3,67.44,67.44,0,0,1-9,2.9c-.9.2-2.9.7-4.8,1-2.6.4-3.5.6-5.9.8-.8.1-3.2.3-4.8.3-2.6.1-3.2,0-5.7,0-1.7-.1-3.9-.3-5-.4s-2.5-.3-3.6-.5a37.1,37.1,0,0,1-4.8-1c-1.3-.3-3-.8-4.3-1.1a74.12,74.12,0,0,1-7.9-2.8c-3.3-1.4-7.6-3.6-10.7-5.3-2.3-1.3-5.1-3.2-7.2-4.7a74.15,74.15,0,0,1-6.2-4.9c-1.6-1.5-3.8-3.4-5.3-4.9-1.7-1.7-3.9-4.1-5.5-5.9-3-3.5-6.6-8.5-9.2-12.3-1.4-2.1-3.1-5.1-4.3-7.3a76.94,76.94,0,0,1-3.8-7.6c-1.9-4.6-4.3-10.8-5.9-15.5-1-3-2-7.2-2.7-10.3C3.3,125.6,2.8,122.2,2.4,119.6Z"/></g><g class="cls-4"><g class="cls-53"><g class="cls-4"><path class="cls-13" d="M68.3,208.4a91.34,91.34,0,0,1-25.4-14.5C32,185,26.5,177.6,21,169.5,10.5,154.2,2.6,130.7,1.4,111,.8,101.2-.8,75.1,13.9,46.8c5.6-10.7,18.4-30.1,41.8-40C72.8-.5,90.9-.9,109.4,5.6A57.57,57.57,0,0,0,73.8,4.4a58.33,58.33,0,0,1,35.6,1.2,104.3,104.3,0,0,1,10.8,4.8,77.21,77.21,0,0,1,10.3,6.4c7.6,5.8,7.9,6.1,12.2,10.4a101,101,0,0,1,10.5,12.2c4.7,6.9,10.6,15.5,15.7,29.3a129.53,129.53,0,0,1,7.5,34.3c.5,9.9.9,19.3-1.9,33.9A112.55,112.55,0,0,1,164,167c-4.2,7.6-16.8,30.8-45,41.4-22.9,8.5-43.1,2.8-50.7,0"/><path class="cls-13" d="M109.4,5.5a94.64,94.64,0,0,1,15.5,7.4l5.7,3.8c2.1,1.6,4.9,3.7,6.8,5.4l5.3,5c1.7,1.9,4.1,4.3,5.7,6.2l4.7,6c1.4,2.1,3.4,4.9,4.8,7l4,6.9c1.1,2.3,2.7,5.4,3.8,7.8l3.1,7.6c.8,2.5,2,5.9,2.8,8.4l2.1,8.3c.5,2.7,1.2,6.3,1.6,9l1,8.6v.4l.4,8.5c-.1,2.7-.1,6.2-.2,8.8l-.8,8.2c-.4,2.5-.9,6-1.4,8.5l-1.8,7.7c-.7,2.4-1.7,5.6-2.5,8l-2.8,7.1c-1.1,2.3-2.5,5.3-3.6,7.5l-3.6,6.2c-1.4,2.1-3.3,4.9-4.8,6.9l-4.1,5.1c-1.8,2-4.3,4.6-6.3,6.4l-4,3.4a65.82,65.82,0,0,1-8.8,6.2l-2.6,1.5a76.14,76.14,0,0,1-16.1,6.7l-1.7.5c-.5.1-1.2.3-1.7.4l-1.6.3c-.5.1-1.1.2-1.5.3l-1.5.3a6.8,6.8,0,0,1-1.5.2l-1.5.2a8.88,8.88,0,0,0-1.5.2l-1.5.1c-.5,0-1.1.1-1.6.1l-1.7.1H92.4a15.48,15.48,0,0,1-2.1-.1l-2.4-.1-2.6-.3-3.1-.4-3.7-.7-4.3-1c-1.8-.5-4.2-1.3-6-1.9l-5.4-2.1c-2.7-1.3-6.2-3.1-8.8-4.5L48.3,198c-2.1-1.6-4.9-3.7-7-5.3l-5.4-4.9c-1.8-1.8-4.1-4.2-5.8-6.1l-4.8-5.9c-1.5-2.1-3.5-4.8-4.9-6.9l-4.1-6.8c-1.2-2.3-2.8-5.3-3.9-7.7l-3.2-7.6c-.9-2.5-2.1-5.8-2.9-8.4l-2.2-8.2c-.6-3.2-1.5-7.4-2-10.6l-1-8.6c-.1-2.7-.4-6.3-.4-9l.2-8.4c.5-2.6.8-6.1,1.1-8.7l1.3-8c.6-2.5,1.3-5.8,2-8.3l2.3-7.4c.9-2.3,2.1-5.5,3.1-7.8l3.2-6.7c1.2-2.2,2.8-5.1,4.2-7.2L22,33.8c1.6-2,3.7-4.7,5.5-6.7l4.2-4.3c2.1-1.9,5-4.5,7.3-6.3L42.4,14A82.7,82.7,0,0,1,53.5,7.7l2.3-1a69.82,69.82,0,0,1,8.8-3.1l1.7-.5c.5-.1,1.2-.3,1.7-.4l1.6-.3c.5-.1,1.1-.2,1.5-.3l1.5-.3a6.8,6.8,0,0,1,1.5-.2l1.5-.2a8.87,8.87,0,0,0,1.5-.2l1.5-.1c.5,0,1.1-.1,1.6-.1h5a15.48,15.48,0,0,1,2.1.1l2.4.1,2.6.3,3.1.4,3.7.7,4.3,1c1.8.6,4.3,1.2,6,1.9A57.57,57.57,0,0,0,73.8,4.3a.35.35,0,0,1-.2.1c-69.2,28-23.5,143.7,32.5,161.1,53.4,16.6,86.4-52.8,54.2-114.2-5-9.6-32.9-57.1-86.6-46.9a57.12,57.12,0,0,1,35.7,1.1"/><path class="cls-6" d="M109.4,5.5a94.64,94.64,0,0,1,15.5,7.4l5.7,3.8c2.1,1.6,4.9,3.7,6.8,5.4l5.3,5c1.7,1.9,4.1,4.3,5.7,6.2l4.7,6c1.4,2.1,3.4,4.9,4.8,7l4,6.9c1.1,2.3,2.7,5.4,3.8,7.8l3.1,7.6c.8,2.5,2,5.9,2.8,8.4l2.1,8.3c.5,2.7,1.2,6.3,1.6,9l1,8.6v.4l.4,8.5c-.1,2.7-.1,6.2-.2,8.8l-.8,8.2c-.4,2.5-.9,6-1.4,8.5l-1.8,7.7c-.7,2.4-1.7,5.6-2.5,8l-2.8,7.1c-1.1,2.3-2.5,5.3-3.6,7.5l-3.6,6.2c-1.4,2.1-3.3,4.9-4.8,6.9l-4.1,5.1c-1.8,2-4.3,4.6-6.3,6.4l-4,3.4a65.82,65.82,0,0,1-8.8,6.2l-2.6,1.5a76.14,76.14,0,0,1-16.1,6.7l-1.7.5c-.5.1-1.2.3-1.7.4l-1.6.3c-.5.1-1.1.2-1.5.3l-1.5.3a6.8,6.8,0,0,1-1.5.2l-1.5.2a8.88,8.88,0,0,0-1.5.2l-1.5.1c-.5,0-1.1.1-1.6.1l-1.7.1H92.4a15.48,15.48,0,0,1-2.1-.1l-2.4-.1-2.6-.3-3.1-.4-3.7-.7-4.3-1c-1.8-.5-4.2-1.3-6-1.9l-5.4-2.1c-2.7-1.3-6.2-3.1-8.8-4.5L48.3,198c-2.1-1.6-4.9-3.7-7-5.3l-5.4-4.9c-1.8-1.8-4.1-4.2-5.8-6.1l-4.8-5.9c-1.5-2.1-3.5-4.8-4.9-6.9l-4.1-6.8c-1.2-2.3-2.8-5.3-3.9-7.7l-3.2-7.6c-.9-2.5-2.1-5.8-2.9-8.4l-2.2-8.2c-.6-3.2-1.5-7.4-2-10.6l-1-8.6c-.1-2.7-.4-6.3-.4-9l.2-8.4c.5-2.6.8-6.1,1.1-8.7l1.3-8c.6-2.5,1.3-5.8,2-8.3l2.3-7.4c.9-2.3,2.1-5.5,3.1-7.8l3.2-6.7c1.2-2.2,2.8-5.1,4.2-7.2L22,33.8c1.6-2,3.7-4.7,5.5-6.7l4.2-4.3c2.1-1.9,5-4.5,7.3-6.3L42.4,14A82.7,82.7,0,0,1,53.5,7.7l2.3-1a69.82,69.82,0,0,1,8.8-3.1l1.7-.5c.5-.1,1.2-.3,1.7-.4l1.6-.3c.5-.1,1.1-.2,1.5-.3l1.5-.3a6.8,6.8,0,0,1,1.5-.2l1.5-.2a8.87,8.87,0,0,0,1.5-.2l1.5-.1c.5,0,1.1-.1,1.6-.1h5a15.48,15.48,0,0,1,2.1.1l2.4.1,2.6.3,3.1.4,3.7.7,4.3,1c1.8.6,4.3,1.2,6,1.9a55.06,55.06,0,0,0-12.6-3,4.25,4.25,0,0,1-1.1-.2c-68.1-6.2-77,82.6-29.3,139.8,41.6,49.9,99.9,35.1,107.5-27.3,6.3-51.5-30.4-105.1-77-112.3a55.5,55.5,0,0,1,12.5,3"/><path class="cls-7" d="M165.8,60.9C169.9,71,170,71.2,171.7,77l2.1,8.3c.5,2.7,1.2,6.3,1.6,9l1,8.6v.4l.4,8.5c-.1,2.7-.1,6.2-.2,8.8l-.8,8.2c-.4,2.5-.9,6-1.4,8.5l-1.8,7.7c-.7,2.4-1.7,5.6-2.5,8l-2.8,7.1c-1.1,2.3-2.5,5.3-3.6,7.5l-3.6,6.2c-1.4,2.1-3.3,4.9-4.8,6.9l-4.1,5.1c-1.8,2-4.3,4.6-6.3,6.4l-4,3.4a65.82,65.82,0,0,1-8.8,6.2l-2.6,1.5a76.14,76.14,0,0,1-16.1,6.7l-1.7.5c-.5.1-1.2.3-1.7.4l-1.6.3c-.5.1-1.1.2-1.5.3l-1.5.3a6.8,6.8,0,0,1-1.5.2l-1.5.2a8.88,8.88,0,0,0-1.5.2l-1.5.1c-.5,0-1.1.1-1.6.1l-1.7.1H92.5a15.48,15.48,0,0,1-2.1-.1l-2.4-.1-2.6-.3-3.1-.4-3.7-.7-4.3-1c-1.8-.5-4.2-1.3-6-1.9l-5.4-2.1c-2.7-1.3-6.2-3.1-8.8-4.5L48.4,198c-2.1-1.6-4.9-3.7-7-5.3L36,187.8c-1.8-1.8-4.1-4.2-5.8-6.1l-4.8-5.9c-1.5-2.1-3.5-4.8-4.9-6.9l-4.1-6.8c-1.2-2.3-2.8-5.3-3.9-7.7l-3.2-7.6c-.9-2.5-2.1-5.8-2.9-8.4l-2.2-8.2c-.6-3.2-1.5-7.4-2-10.6l-1-8.6c-.1-2.7-.4-6.3-.4-9L1,93.6c.4-2.6.7-6.1,1-8.7l1.3-8c.6-2.5,1.3-5.8,2-8.3l2.3-7.4c.9-2.3,2.1-5.5,3.1-7.8l3.2-6.7c1.2-2.2,2.8-5.1,4.2-7.2L22,33.8c1.6-2,3.7-4.7,5.5-6.7l4.2-4.3c2.1-1.9,5-4.5,7.3-6.3L42.4,14A82.7,82.7,0,0,1,53.5,7.7l2.3-1a69.82,69.82,0,0,1,8.8-3.1l1.7-.5c.5-.1,1.2-.3,1.7-.4l1.6-.3c.5-.1,1.1-.2,1.5-.3l1.5-.3a6.8,6.8,0,0,1,1.5-.2l1.5-.2a8.87,8.87,0,0,0,1.5-.2l1.5-.1c.5,0,1.1-.1,1.6-.1h5a15.48,15.48,0,0,1,2.1.1l2.4.1,2.6.3,3.1.4,3.7.7,4.3,1c1.8.5,4.2,1.3,6,1.9a8.8,8.8,0,0,0-1.5-.5c-1.6-.5-3.8-1.1-5.4-1.6C32.1-11.2,13.4,69.3,54.2,132.8c37.9,59,100.6,58.6,117.6-.7,7.6-26.3,2.9-57.5-12.3-83.4l3.8,7,2.5,5.2"/><path class="cls-7" d="M109.4,5.5c1.3.5,3,1.2,4.3,1.7-1.1-.4-2.5-1-3.5-1.4L107.9,5a8.8,8.8,0,0,1,1.5.5"/><path class="cls-8" d="M171.6,77a119.55,119.55,0,0,1,3.7,17.3l1,8.6v.4l.4,8.5c-.1,2.7-.1,6.2-.2,8.8l-.8,8.2c-.4,2.5-.9,6-1.4,8.5l-1.8,7.7c-.7,2.4-1.7,5.6-2.5,8l-2.8,7.1c-1.1,2.3-2.5,5.3-3.6,7.5l-3.6,6.2c-1.4,2.1-3.3,4.9-4.8,6.9l-4.1,5.1c-1.8,2-4.3,4.6-6.3,6.4l-4,3.4a65.82,65.82,0,0,1-8.8,6.2l-2.6,1.5a76.14,76.14,0,0,1-16.1,6.7l-1.7.5c-.5.1-1.2.3-1.7.4l-1.6.3c-.5.1-1.1.2-1.5.3l-1.5.3a6.8,6.8,0,0,1-1.5.2l-1.5.2a8.88,8.88,0,0,0-1.5.2l-1.5.1c-.5,0-1.1.1-1.6.1l-1.7.1H92.4a15.48,15.48,0,0,1-2.1-.1l-2.4-.1-2.6-.3-3.1-.4-3.7-.7-4.3-1c-1.8-.5-4.2-1.3-6-1.9l-5.4-2.1c-2.7-1.3-6.2-3.1-8.8-4.5L48.3,198c-2.1-1.6-4.9-3.7-7-5.3l-5.4-4.9c-1.8-1.8-4.1-4.2-5.8-6.1l-4.8-5.9c-1.5-2.1-3.5-4.8-4.9-6.9l-4.1-6.8c-1.2-2.3-2.8-5.3-3.9-7.7l-3.2-7.6c-.9-2.5-2.1-5.8-2.9-8.4l-2.2-8.2c-.6-3.2-1.5-7.4-2-10.6l-1-8.6c-.1-2.7-.4-6.3-.4-9l.2-8.4c.5-2.6.8-6.1,1.1-8.7l1.3-8c.6-2.5,1.3-5.8,2-8.3l2.3-7.4c.9-2.3,2.1-5.5,3.1-7.8l3.2-6.7c1.2-2.2,2.8-5.1,4.2-7.2L22,33.8c1.6-2,3.7-4.7,5.5-6.7l4.2-4.3c2.1-1.9,5-4.5,7.3-6.3L42.4,14A82.7,82.7,0,0,1,53.5,7.7l2.3-1a69.82,69.82,0,0,1,8.8-3.1l1.7-.5c.5-.1,1.2-.3,1.7-.4l1.6-.3c.5-.1,1.1-.2,1.5-.3l1.5-.3a6.8,6.8,0,0,1,1.5-.2l1.5-.2a8.87,8.87,0,0,0,1.5-.2l1.5-.1c.5,0,1.1-.1,1.6-.1h5a15.48,15.48,0,0,1,2.1.1l2.4.1,2.6.3,3.1.4,1.6.3-4.3-.6C19.3-6.2,10.4,93.4,63,151.7c49.2,54.5,106.9,26.7,112.5-33a115.22,115.22,0,0,0-5.7-47.4c.6,1.7,1.3,3.9,1.8,5.7"/><path class="cls-9" d="M175.4,94.2c.4,2.7.8,6.3,1,9l.4,8.5c-.1,2.7-.1,6.2-.2,8.8l-.8,8.2c-.4,2.5-.9,6-1.4,8.5l-1.8,7.7c-.7,2.4-1.7,5.6-2.5,8l-2.8,7.1c-1.1,2.3-2.5,5.3-3.6,7.5l-3.6,6.2c-1.4,2.1-3.3,4.9-4.8,6.9l-4.1,5.1c-1.8,2-4.3,4.6-6.3,6.4l-4,3.4a65.82,65.82,0,0,1-8.8,6.2l-2.6,1.5a76.14,76.14,0,0,1-16.1,6.7l-1.7.5c-.5.1-1.2.3-1.7.4l-1.6.3c-.5.1-1.1.2-1.5.3l-1.5.3a6.8,6.8,0,0,1-1.5.2l-1.5.2a8.88,8.88,0,0,0-1.5.2l-1.5.1c-.5,0-1.1.1-1.6.1l-1.7.1H92.5a15.48,15.48,0,0,1-2.1-.1l-2.4-.1-2.6-.3-3.1-.4-3.7-.7-4.3-1c-1.8-.5-4.2-1.3-6-1.9L62.9,206c-2.7-1.3-6.2-3.1-8.8-4.5l-5.7-3.6c-2.1-1.6-4.9-3.7-7-5.3L36,187.7c-1.8-1.8-4.1-4.2-5.8-6.1l-4.8-5.9c-1.5-2.1-3.5-4.8-4.9-6.9L16.4,162c-1.2-2.3-2.8-5.3-3.9-7.7l-3.2-7.6c-.9-2.5-2.1-5.8-2.9-8.4l-2.2-8.2c-.6-3.2-1.5-7.4-2-10.6l-1-8.6c-.1-2.7-.4-6.3-.4-9L1,93.5c.4-2.5.7-6,1-8.6l1.3-8c.6-2.5,1.3-5.8,2-8.3l2.3-7.4c.9-2.3,2.1-5.5,3.1-7.8l3.2-6.7c1.2-2.2,2.8-5.1,4.2-7.2L22,33.8c1.6-2,3.7-4.7,5.5-6.7l4.2-4.3c2.1-1.9,5-4.5,7.3-6.3L42.4,14A82.7,82.7,0,0,1,53.5,7.7l2.3-1a69.82,69.82,0,0,1,8.8-3.1l1.7-.5c.5-.1,1.2-.3,1.7-.4l1.6-.3c.5-.1,1.1-.2,1.5-.3l1.5-.3a6.8,6.8,0,0,1,1.5-.2l1.5-.2a8.87,8.87,0,0,0,1.5-.2l1.5-.1c.5,0,1.1-.1,1.6-.1h5.1C13,1,10,106.9,65,160.4c53.3,51.9,111.1,15.6,111.6-49.1A117.11,117.11,0,0,0,175.2,93c.1.5.1.9.2,1.2"/><path class="cls-10" d="M176.5,120.6a132.48,132.48,0,0,1-2.2,16.7l-1.8,7.7c-.7,2.4-1.7,5.6-2.5,8l-2.8,7.1c-1.1,2.3-2.5,5.3-3.6,7.5l-3.6,6.2c-1.4,2.1-3.3,4.9-4.8,6.9l-4.1,5.1c-1.8,2-4.3,4.6-6.3,6.4l-4,3.4a65.82,65.82,0,0,1-8.8,6.2l-2.6,1.5a76.14,76.14,0,0,1-16.1,6.7l-1.7.5c-.5.1-1.2.3-1.7.4l-1.6.3c-.5.1-1.1.2-1.5.3l-1.5.3a6.8,6.8,0,0,1-1.5.2l-1.5.2a8.88,8.88,0,0,0-1.5.2l-1.5.1c-.5,0-1.1.1-1.6.1l-1.7.1H92.4a15.48,15.48,0,0,1-2.1-.1l-2.4-.1-2.6-.3-3.1-.4-3.7-.7-4.3-1c-1.8-.5-4.2-1.3-6-1.9l-5.4-2.1c-2.7-1.3-6.2-3.1-8.8-4.5L48.3,198c-2.1-1.6-4.9-3.7-7-5.3l-5.4-4.9c-1.8-1.8-4.1-4.2-5.8-6.1l-4.8-5.9c-1.5-2.1-3.5-4.8-4.9-6.9l-4.1-6.8c-1.2-2.3-2.8-5.3-3.9-7.7l-3.2-7.6c-.9-2.5-2.1-5.8-2.9-8.4l-2.2-8.2c-.6-3.2-1.5-7.4-2-10.6l-1-8.6c-.1-2.7-.4-6.3-.4-9l.2-8.4c.5-2.6.8-6.1,1.1-8.7l1.3-8c.6-2.5,1.3-5.8,2-8.3l2.3-7.4c.9-2.3,2.1-5.5,3.1-7.8l3.2-6.7c1.2-2.2,2.8-5.1,4.2-7.2L22,33.8c1.6-2,3.7-4.7,5.5-6.7l4.2-4.3c2.1-1.9,5-4.5,7.3-6.3L42.4,14A82.7,82.7,0,0,1,53.5,7.7l2.3-1a69.82,69.82,0,0,1,8.8-3.1l1.7-.5c.5-.1,1.2-.3,1.7-.4l1.6-.3c.5-.1,1.1-.2,1.5-.3l1.5-.3a6.8,6.8,0,0,1,1.5-.2h.1C.1,12.9,13,133.3,76,175.9c53.2,36.1,99.9-3.9,100.8-61.8-.1,1.9-.2,4.5-.3,6.5"/><path class="cls-11" d="M174.3,137.3a110.16,110.16,0,0,1-4.4,15.8l-2.8,7.1c-1.1,2.3-2.5,5.3-3.6,7.5l-3.6,6.2c-1.4,2.1-3.3,4.9-4.8,6.9l-4.1,5.1c-1.8,2-4.3,4.6-6.3,6.4l-4,3.4a65.82,65.82,0,0,1-8.8,6.2l-2.6,1.5a76.14,76.14,0,0,1-16.1,6.7l-1.7.5c-.5.1-1.2.3-1.7.4l-1.6.3c-.5.1-1.1.2-1.5.3l-1.5.3a6.8,6.8,0,0,1-1.5.2l-1.5.2a8.88,8.88,0,0,0-1.5.2l-1.5.1c-.5,0-1.1.1-1.6.1l-1.7.1H92.3a15.48,15.48,0,0,1-2.1-.1l-2.4-.1-2.6-.3-3.1-.4-3.7-.7-4.3-1c-1.8-.5-4.2-1.3-6-1.9l-5.4-2.1c-2.7-1.3-6.2-3.1-8.8-4.5l-5.7-3.6c-2.1-1.6-4.9-3.7-7-5.3l-5.4-4.9c-1.8-1.8-4.1-4.2-5.8-6.1l-4.8-5.9c-1.5-2.1-3.5-4.8-4.9-6.9l-4.1-6.8c-1.2-2.3-2.8-5.3-3.9-7.7l-3.2-7.6c-.9-2.5-2.1-5.8-2.9-8.4L4,130.3c-.6-3.2-1.5-7.4-2-10.6l-1-8.6c-.1-2.7-.4-6.3-.4-9l.2-8.4c.6-2.7.9-6.2,1.2-8.8l1.3-8c.6-2.5,1.3-5.8,2-8.3l2.3-7.4c.9-2.3,2.1-5.5,3.1-7.8l3.2-6.7c1.2-2.2,2.8-5.1,4.2-7.2L22,33.8c1.6-2,3.7-4.7,5.5-6.7l4.2-4.3c2.1-1.9,5-4.5,7.3-6.3L42.4,14A82.7,82.7,0,0,1,53.5,7.7l2.3-1a81.51,81.51,0,0,1,7.7-2.8l-.6.2C-7.2,26.6,10,152.4,88.1,188.6c34.2,15.9,77.2-.6,86.9-54.8-.2,1.1-.4,2.5-.7,3.5"/><path class="cls-12" d="M163.6,167.6c-4.7,8.1-5,8.5-8.4,13.1l-4.1,5.1c-1.8,2-4.3,4.6-6.3,6.4l-4,3.4a65.82,65.82,0,0,1-8.8,6.2l-2.6,1.5a76.14,76.14,0,0,1-16.1,6.7l-1.7.5c-.5.1-1.2.3-1.7.4l-1.6.3c-.5.1-1.1.2-1.5.3l-1.5.3a6.8,6.8,0,0,1-1.5.2l-1.5.2a8.88,8.88,0,0,0-1.5.2l-1.5.1c-.5,0-1.1.1-1.6.1l-1.7.1H92.4a15.48,15.48,0,0,1-2.1-.1l-2.4-.1-2.6-.3-3.1-.4-3.7-.7-4.3-1c-1.8-.5-4.2-1.3-6-1.9l-5.4-2.1c-2.7-1.3-6.2-3.1-8.8-4.5L48.3,198c-2.1-1.6-4.9-3.7-7-5.3l-5.4-4.9c-1.8-1.8-4.1-4.2-5.8-6.1l-4.8-5.9c-1.5-2.1-3.5-4.8-4.9-6.9l-4.1-6.8c-1.2-2.3-2.8-5.3-3.9-7.7l-3.2-7.6c-.9-2.5-2.1-5.8-2.9-8.4l-2.2-8.2c-.6-3.2-1.5-7.4-2-10.6l-1-8.6c-.1-2.7-.4-6.3-.4-9l.2-8.4c.5-2.6.8-6.1,1.1-8.7l1.3-8c.6-2.5,1.3-5.8,2-8.3l2.3-7.4c.9-2.3,2.1-5.5,3.1-7.8l3.2-6.7c1.2-2.2,2.8-5.1,4.2-7.2L22,33.8c1.6-2,3.7-4.7,5.5-6.7l4.2-4.3c2.1-1.9,5-4.5,7.3-6.3L42.4,14a80.57,80.57,0,0,1,9-5.3l-1.2.6C-18,47.1,22.2,175.4,91.8,196.2c33.7,10,63.3-5.6,77.3-40.8l-2.9,7-2.6,5.2"/><path class="cls-14" d="M105.8,5.1c72.7,21.1,87.2,128.5,35.6,154.1C91.2,184.1,24.9,98,45.6,34.6,53.7,9.7,79-2.7,105.8,5.1"/><path class="cls-15" d="M114.1,8.4c66.6,28.4,73.3,130.4,23.5,148.2C79.9,177.2,24.9,75.5,51.4,26.8,66.1-.3,94.3,0,114.1,8.4"/><path class="cls-16" d="M118,10.7c62.5,29.8,66.5,124.2,19.7,141.2C83.8,171.5,29,72.6,53.7,26.9,68.6-.6,97.6,1,118,10.7"/><path class="cls-17" d="M129.3,18.1c55.3,40.7,45.2,127.7-2.2,131.4C72.3,153.9,25.6,53.8,64.6,15.6,79.7.9,107.5,2,129.3,18.1"/><path class="cls-18" d="M125.3,16.3c56.8,36.2,48.7,124.9,1.5,128.5C70.8,149,32.5,54.1,63.1,20.2c23.7-26.3,56-7.9,62.2-3.9"/><path class="cls-19" d="M128.9,19.7C180.5,58.6,171.3,136,126.4,140,77.8,144.3,34.9,60.8,65.2,20.8c13.3-17.5,41.3-18,63.7-1.1"/><path class="cls-20" d="M135.2,26.2c39.1,36.7,33.3,105-9.2,109.2-51.5,5-86.3-81.2-57.8-114.7,15.2-17.9,44.6-15.5,67,5.5"/><path class="cls-21" d="M134.5,27.1c39.3,38.4,29.4,104.4-15.6,103.7-48.8-.7-75.8-82-47.5-110.5,20.2-20.2,49.4-6.6,63.1,6.8"/><path class="cls-22" d="M139.6,34.6c34.5,43.2,11.7,98.8-26.4,92C67.7,118.5,43.6,41.5,78.9,16.9c16.4-11.6,43.7-3.6,60.7,17.7"/><path class="cls-23" d="M138.4,35.7c31.1,40.6,9.8,92.2-25.7,87.6-38.4-5-68.4-76.2-33.3-104,17.3-13.8,44.5-2.6,59,16.4"/><path class="cls-24" d="M137,36.7c30.6,40.9,5.4,87.1-24.8,83.3-37.1-4.6-64.8-70-31.9-98.4C96.8,7.4,122.9,17.9,137,36.7"/><path class="cls-25" d="M135.3,37.9c27.7,38.1,4,82.1-23.7,79C74.5,112.8,53.3,48.8,81,24.3c16.2-14.3,41.2-4.5,54.3,13.6"/><path class="cls-26" d="M138.1,46.7c20.9,41.6-8.6,78.6-39.3,64C67,95.5,55.9,34.2,90.8,21.4c16.1-5.9,37.3,5.4,47.3,25.3"/><path class="cls-27" d="M135.8,47.9c18,36.6-6.3,76-37.1,60.2C66,91.4,61.4,32.9,92.1,23.6c15.7-4.8,34.5,5.6,43.7,24.3"/><path class="cls-28" d="M133.5,49c16.7,34.9-6.2,71.6-35.5,56.9-4.7-2.4-24.1-17.3-25.5-41.8C70.7,32.2,91,26.2,93.4,25.6c16.8-4.1,33.2,9,40.1,23.4"/><path class="cls-29" d="M131,50.1c16.6,32.8-5.2,67.9-33.4,53.6-24.7-12.5-37.3-68.9-3-75.9,7.9-1.6,25.6,1,36.4,22.3"/><path class="cls-30" d="M132.8,59.2c8.1,28-9.5,55.6-35.5,42.4C73.7,89.7,64.8,42.8,89.6,31.3c15.6-7.2,37,6.6,43.2,27.9"/><path class="cls-31" d="M130.9,60c7.3,27.4-9.1,52.5-34,39.6-3.6-1.9-18.8-14.2-21-35.9-.8-7.5,1.7-24.9,14.3-30.7,14.2-6.6,35.5,7.5,40.7,27"/><path class="cls-32" d="M128.9,60.7c8.1,31-12.7,48.7-32.3,36.8-20.9-12.6-27.9-53-5.8-63,13.6-6.1,33.2,7.4,38.1,26.2"/><path class="cls-33" d="M127.6,61.2c6,19.5-3.2,29.6-8.2,35.1-2.2,2.5-7.4,3.7-10.8,3.6-.6,0-11.6-3.8-12.3-4.2C76.7,84,70.4,45.3,91.4,36.3c9-4,28.9,1.1,36.2,24.9"/><path class="cls-34" d="M126.4,61.6c3.7,12.5,1.2,23.5-7.4,32.6-2.3,2.4-7.3,3.9-10.7,3.9-.5,0-11.7-3.9-12.3-4.3A42.7,42.7,0,0,1,79.4,63.3c0-.2-1.3-20.2,12.5-25.7,9.8-3.9,28.5,3.7,34.5,24"/><path class="cls-35" d="M125.1,62c4.9,17.5-4.7,28.3-6.7,30.3-.2.2-10.3,4-10.6,4-4-.1-9-2.4-12.3-4.4-.1-.1-14-10.4-15.1-28.7-.4-6.6,1.5-20.3,11.8-24.3,12.7-5,28.9,8.8,32.9,23.1"/><path class="cls-36" d="M123.8,62.5c3.8,14.5-3.1,25.3-5.8,28-2.4,2.3-7.1,4.3-10.4,4.2-4-.1-8.9-2.6-12.3-4.6-1.5-.9-13-11.8-13.7-27.1C80.9,50.6,87,42.5,92.8,40.2c10.1-4,26.7,5.7,31,22.3"/><path class="cls-37" d="M122.6,62.9c2.8,11.2-1,19.2-1.5,20.1-.9,1.8-1.9,4.4-3.5,5.6-2.7,2-6.9,4.4-10.3,4.5-.5,0-11.9-4.6-12.3-4.9-5.7-5.3-6-6-10.7-16.6-1.8-4-2.7-17.8,2.4-24.7,10-13.8,31.5-1.6,35.9,16"/><path class="cls-38" d="M121.2,63.3a28.71,28.71,0,0,1-2.1,20.2c-.5,1-1.1,2.6-2.1,3.3-2.8,1.8-6.8,4.6-10.2,4.7-1.4,0-11-4.2-12.3-5.4C90.1,82,90.1,82,85.2,71.4c-1.7-3.7-2.6-17.1,1.7-22.9,11.5-15.3,30.8.5,34.3,14.8"/><path class="cls-39" d="M119.9,63.7c.9,3.8,2.4,10.1-2.8,20.3-1.2,2.3-10.6,5.9-10.6,5.9-1.3.1-10.8-4.4-12.4-5.8C91,81.3,91,81.3,86.2,71.2c-1.4-2.9-2.7-16,1.1-21.1,1.6-2.2,4.3-5,6.8-6a13.71,13.71,0,0,1,8.5-.1c12.2,5.1,16.1,14.5,17.3,19.7"/><path class="cls-40" d="M119.4,73.5c-.4,2.9-1.3,7.1-3.3,9.4-.7.8-9,5.3-9.9,5.4s-10.9-5-12.4-6.3c-2.5-2.1-4.1-6.3-5.6-9.2-4.3-8.5-1.7-19.4-.5-21,1.6-2.3,4.2-5.4,6.9-6.4,2.4-.9,6.4-1,8.7.2,5.4,2.7,5.4,2.7,11.9,10.1,1.8,2,5.1,11.3,4.2,17.8"/><path class="cls-41" d="M117.9,73.9c-.4,2.2-.9,5.3-2.4,6.9-.3.3-9.5,5.9-9.6,5.9S93.8,80.3,93.5,80c-1-.9-5-9.1-5.1-9.2-1.8-6.7-2.3-9.8-.2-17.1.2-.9,6.9-7,6.9-7a13.56,13.56,0,0,1,8.9.4c2.6,1.3,4.4,2.2,10.1,8.8,4.6,5.7,4.1,16.6,3.8,18"/><path class="cls-42" d="M116.5,74.3c-.2,1.4-.5,3.4-1.6,4.5-2.4,2.3-6,6.1-9.5,6.2-3.7.2-8-3.4-10.7-5.8-2.3-2-4.1-5.7-5.3-8.5,0-.1-4.2-10.7,1.4-18,1.2-1.6,2.8-3.9,4.7-4.6a13.9,13.9,0,0,1,9.2.7c2.4,1.1,8.1,7.5,8.2,7.6,5.4,6.8,3.6,17.8,3.6,17.9"/><path class="cls-43" d="M115,74.7c-.1.6-.2,1.6-.7,2-2.6,2.2-5.8,6.3-9.3,6.5-.1,0-11.1-3.8-14.6-12.7-3.7-9.6,0-14.6,2.7-18.2.7-1,1.7-2.4,2.8-2.8.5-.2,7.5.4,9.5,1.4,2.4,1.1,4.6,3.9,6.1,5.9,5,6.5,4.1,14.7,3.5,17.9"/><path class="cls-44" d="M113.6,74.4c-.4,1.4-8.9,7-9,7-2,.1-4.2-1.8-5.7-3-.1-.1-7.3-7.7-7.4-8-.8-2.6-2-6.2-1.4-8.8.7-3.2,3.4-7,5.4-9.7a3.18,3.18,0,0,1,1-1c1.2-.4,10,2.4,10.1,2.4,1.5.7,2.9,2.5,3.9,3.8a20.71,20.71,0,0,1,3.1,17.3"/><path class="cls-45" d="M112.5,70.8c-1,3.4-4.6,8.7-8.3,8.9-1.1.1-2.4-1-3.2-1.7-2.5-2.2-6.7-4.8-7.6-7.9-.7-2.6-1.9-6.2-1.3-8.8.6-2.9,2-7.5,4.8-8.6,3.1-1.2,7.4,2,10.5,3.2.7.3,1.2,1.1,1.7,1.7,0-.1,5.1,7.6,3.4,13.2"/><path class="cls-46" d="M111.3,67.1c0,.1-6,10.7-7.6,10.8-.8.1-8.4-8.2-8.4-8.3-.7-2.6-1.6-6.2-1.3-8.8.3-2.1,1.4-5.4,3.4-6.2,2.9-1.1,7.5,1.2,9.8,3.3.2.1,4.7,7.3,4.1,9.2"/><path class="cls-47" d="M103.1,75.1c-2.6.2-5.2-3.5-5.8-5.9a29.87,29.87,0,0,1-1.2-8.9c.1-1.2.8-3.2,2-3.7,1.8-.7,4.5.7,5.8,2,2,2,4.7,5.3,4.6,8.1,0,3-2.3,8.2-5.4,8.4"/><path class="cls-48" d="M102.3,72c-1.3.1-2.7-1.8-3.1-3.1A44.22,44.22,0,0,1,98.1,60a1.74,1.74,0,0,1,.6-1.2,2,2,0,0,1,1.9.7c1.7,2.3,4.7,5.3,4.6,8.1,0,1.5-1.3,4.2-2.9,4.4"/><path class="cls-49" d="M101.5,68.8c-.7.1-.5-1.4-.5-2,.3.5.9,1,.8,1.5,0,.2-.1.5-.3.5"/></g></g><g class="cls-53"><path class="cls-50" d="M99.4,2.7c1.4.3,2.7.6,4.1,1l.7.2C96.9,2.2,87.7.2,73.9,4.3A50.57,50.57,0,0,1,99.4,2.7"/><path class="cls-51" d="M81.4,1h1.9c2.5,0,2.6,0,4,.1,3.1.2,3.3.2,5,.4l2.7.3c.8.1,1.5.3,2.2.4A49.65,49.65,0,0,0,74.7,4h-.5c3.3-2.2,4.1-2.7,7.2-3"/><path class="cls-50" d="M99.4,2.7l-1.5-.3h0c.4.1,1,.2,1.5.3"/><path class="cls-50" d="M81.4,1a17.09,17.09,0,0,1,3.1.3c-.9,0-2.2-.3-3.1-.3"/><path class="cls-50" d="M84.5,1.4C81,.5,77.6,1.3,74.2,3.9h.5A48.23,48.23,0,0,1,97.2,2.2l.7.2a51.91,51.91,0,0,0-24,1.9c3.4-3,7-3.8,10.6-2.9"/><path class="cls-51" d="M69.4,2.5,71,2.2c1.9-.3,1.9-.3,2.9-.5,1.9-.2,1.9-.3,2.9-.4a21.64,21.64,0,0,1,3.1-.2h.7A10.06,10.06,0,0,0,74.2,4h-.6c-2.3-1.5-2.5-1.6-4.2-1.5"/><path class="cls-50" d="M69.4,2.5h0a16.18,16.18,0,0,0-1.8,1,6.37,6.37,0,0,1,1.8-1"/><path class="cls-50" d="M67.6,3.5c1.6-1.5,3.6-1.4,6,.6.2-.1.4-.1.6-.2A10.61,10.61,0,0,1,80.6,1h.9a12.35,12.35,0,0,0-7.6,3.2c-2.5-2.1-4.6-2.3-6.3-.7"/><path class="cls-51" d="M53.1,7.9l.4-.2a98.12,98.12,0,0,1,11-4.1l3.4-.9.7-.2c2.4-.1,2.6-.1,5,1.4h-.2c-.1,0-.2.1-.3.1a43.91,43.91,0,0,0-20,3.9"/><path class="cls-50" d="M53.1,7.9h0A.1.1,0,0,0,53,8a.1.1,0,0,1,.1-.1"/><path class="cls-50" d="M52.9,8A40.88,40.88,0,0,1,73,4.2c.1,0,.2-.1.3-.1h.2c-2.8-1.5-2.9-1.6-5-1.4l.8-.2c2.1,0,2.2,0,4.5,1.8h0A40.69,40.69,0,0,0,52.9,8"/><path class="cls-51" d="M46.8,13c.4-1.5,2.2-3.1,5.4-4.7A43.41,43.41,0,0,1,72.9,4.2c-.1.1-.2.1-.2.2A73.33,73.33,0,0,0,46.8,13"/><path class="cls-50" d="M46.8,13c11-5.4,14.1-6.5,26-8.6a73.18,73.18,0,0,0-26,8.6"/><path class="cls-50" d="M72.8,4.4c0-.1.1-.1.2-.2A43.17,43.17,0,0,0,52.3,8.3l.6-.3.2-.1A40.13,40.13,0,0,1,73.9,4.2c-.4.1-.8.1-1.1.2"/><path class="cls-51" d="M51.1,16.9c-.4-.1-.7-.2-1-.3q-3.6-1.35-3.3-3.3a73,73,0,0,1,26-8.9.1.1,0,0,0,.1.1h0A66.09,66.09,0,0,0,51.1,16.9"/><path class="cls-50" d="M51.1,16.9A65.54,65.54,0,0,1,73,4.5,65.54,65.54,0,0,0,51.1,16.9"/><path class="cls-50" d="M73,4.5h0a.35.35,0,0,1-.2-.1,73,73,0,0,0-26,8.9.37.37,0,0,1,.1-.3c7.5-3.7,14.5-7.2,27-8.7h0a2.92,2.92,0,0,0-.9.2"/><path class="cls-51" d="M64.3,18a50.48,50.48,0,0,1-12.5-1A62.83,62.83,0,0,1,73,4.5h.5c-3.5,3-6.6,7.6-9.2,13.5"/><path class="cls-50" d="M64.3,18C66.9,12.1,70,7.5,73.5,4.6,70,7.5,66.9,12.1,64.3,18"/><path class="cls-50" d="M73.5,4.6H73A62.83,62.83,0,0,0,51.8,17.1c-.2-.1-.4-.1-.6-.2A62.86,62.86,0,0,1,73.9,4.3a1.38,1.38,0,0,0-.4.3"/><path class="cls-51" d="M81.1,16a98.54,98.54,0,0,1-15.8,1.9C67.6,12,70.4,7.4,73.5,4.5a1.27,1.27,0,0,0,.6-.1c2.2,2.4,4.5,6.3,7,11.6"/><path class="cls-50" d="M81.1,16c-2.4-5.3-4.8-9.3-7-11.5,2.2,2.3,4.5,6.2,7,11.5"/><path class="cls-50" d="M74.1,4.5c-.2,0-.4.1-.6.1-3.1,2.9-5.9,7.5-8.2,13.4h-1c2.7-6.1,6-10.8,9.6-13.8,0,.1.1.2.2.3"/><path class="cls-51" d="M96,11.6a56.94,56.94,0,0,1-8.1,2.9c-1.8.5-3.8,1-5.7,1.4-2.8-5.3-5.5-9.1-8-11.3.1,0,.1,0,.2-.1s.2-.1.3-.1A53.37,53.37,0,0,1,96,11.6"/><path class="cls-50" d="M96,11.6A52.87,52.87,0,0,0,74.7,4.4,53.37,53.37,0,0,1,96,11.6"/><path class="cls-50" d="M74.7,4.3c-.1,0-.2.1-.3.1s-.1,0-.2.1c2.6,2.2,5.3,6.1,8,11.3a4.25,4.25,0,0,1-1.1.2c-2.5-5.5-5-9.6-7.2-11.8a2,2,0,0,0,.8.1"/><path class="cls-51" d="M102.4,6.6C102,8,100,9.7,96.7,11.2a55.79,55.79,0,0,0-22-6.9c.1-.1.2-.1.2-.2a74.71,74.71,0,0,1,27.5,2.5"/><path class="cls-50" d="M102.4,6.6A74.87,74.87,0,0,0,74.9,4.2a72.61,72.61,0,0,1,27.5,2.4"/><path class="cls-50" d="M74.9,4.1c0,.1-.1.1-.2.2a59.25,59.25,0,0,1,22,6.9c-.2.1-.5.2-.7.3A53.92,53.92,0,0,0,73.9,4.2l1-.1"/><path class="cls-51" d="M99.2,2.8c2.5.9,3.6,2.1,3.3,3.4A75.14,75.14,0,0,0,74.9,4.1c0-.1,0-.1-.1-.1A57.86,57.86,0,0,1,99.2,2.8"/><path class="cls-50" d="M74.8,4a.1.1,0,0,1,.1.1,77.35,77.35,0,0,1,27.6,2.1.37.37,0,0,1-.1.3C94.1,4.6,86.3,2.8,73.8,4.2a3,3,0,0,0,1-.2"/><path class="cls-51" d="M99.2,2.6l1.7.4c-.7-.2-1.5-.3-2.2-.5a5,5,0,0,0-1.2-.2l1.7.3"/><path class="cls-50" d="M97.5,2.3a5,5,0,0,0,1.2.2,17.42,17.42,0,0,1,2.2.5l2.6.7c-1.4-.4-2.7-.7-4.1-1l-1.5-.3a6.37,6.37,0,0,0-.7-.2A14.35,14.35,0,0,0,95,1.8l2.5.5"/><path class="cls-51" d="M24.4,31.6A6.72,6.72,0,0,1,26,28.8l1.4-1.6c5.8-6,6-6.3,11.5-10.6A78.32,78.32,0,0,1,50.9,9c-2.4,1.3-5.1,2.8-5.7,4.9A81.55,81.55,0,0,0,24.4,31.6"/><path class="cls-50" d="M24.4,31.6c8-8.7,10.4-11,20.8-17.7h0A81.55,81.55,0,0,0,24.4,31.6"/><path class="cls-50" d="M45.2,13.9c.4-1,.9-2.5,5.7-4.9l1.9-1-.6.3C49,9.9,47.1,11.5,46.8,13l-1.6.9"/><path class="cls-51" d="M32.5,39c-.7-.2-1.3-.4-1.9-.6-4.5-1.6-6.5-3.8-6.3-6.2a82.77,82.77,0,0,1,20.8-18c-.1,1.4,1,2.6,3.5,3.5.3.1.7.2,1.1.3A97.1,97.1,0,0,0,32.5,39"/><path class="cls-50" d="M32.5,39A88.94,88.94,0,0,1,49.7,18.1,94.13,94.13,0,0,0,32.5,39"/><path class="cls-50" d="M49.8,18.1l-1.1-.3c-2.5-.9-3.7-2.1-3.5-3.5a82.77,82.77,0,0,0-20.8,18c0-.2.1-.4.1-.6A78.07,78.07,0,0,1,46.8,13a.37.37,0,0,1-.1.3c-.1,1.3.9,2.4,3.3,3.3.3.1.7.2,1,.3a13.58,13.58,0,0,1-1.2,1.2"/><path class="cls-51" d="M57.3,41.1c-9.3.3-17.6-.3-23.6-1.8A93.14,93.14,0,0,1,50.4,18.2a51.7,51.7,0,0,0,13.3,1,114.8,114.8,0,0,0-6.4,21.9"/><path class="cls-50" d="M57.3,41.1a111.54,111.54,0,0,1,6.4-21.8,111.54,111.54,0,0,0-6.4,21.8"/><path class="cls-50" d="M63.7,19.2a52.1,52.1,0,0,1-13.3-1A93.14,93.14,0,0,0,33.7,39.3L32.5,39A91.68,91.68,0,0,1,51.1,16.9c.2.1.4.1.6.2a50.48,50.48,0,0,0,12.5,1,9.74,9.74,0,0,1-.5,1.1"/><path class="cls-51" d="M89.1,37.4A198.25,198.25,0,0,1,59.3,41a125.57,125.57,0,0,1,5.5-21.8,112.83,112.83,0,0,0,16.8-2,207.51,207.51,0,0,1,7.5,20.2"/><path class="cls-50" d="M89.1,37.4a207.5,207.5,0,0,0-7.5-20.2,207.5,207.5,0,0,1,7.5,20.2"/><path class="cls-50" d="M81.6,17.2a110.39,110.39,0,0,1-16.8,2A119.21,119.21,0,0,0,59.3,41a12.1,12.1,0,0,0-1.9.1A113.6,113.6,0,0,1,64.3,18h1a111.4,111.4,0,0,0,15.8-1.9,11.73,11.73,0,0,1,.5,1.1"/><path class="cls-51" d="M117.2,28.9a106.36,106.36,0,0,1-15.3,5.4c-3.5,1-7.1,1.9-10.8,2.6a168,168,0,0,0-8.4-20,60.35,60.35,0,0,0,6.1-1.5,60.22,60.22,0,0,0,8.6-3,93.84,93.84,0,0,1,19.8,16.5"/><path class="cls-50" d="M117.2,28.9c-8.1-8.3-10.5-10.4-19.8-16.5a93.84,93.84,0,0,1,19.8,16.5"/><path class="cls-50" d="M97.4,12.4a50,50,0,0,1-8.6,3c-2,.6-4,1-6.1,1.5a168,168,0,0,1,8.4,20c-.7.1-1.4.3-2.1.4a203,203,0,0,0-8-21.4c.4-.1.7-.1,1.1-.2,1.9-.4,3.9-.9,5.7-1.4a56.94,56.94,0,0,0,8.1-2.9l1.5,1"/><path class="cls-51" d="M129.4,19.5c-.9,2.8-4.6,5.9-10.8,8.9A92.46,92.46,0,0,0,98.2,12.1c3.5-1.7,5.6-3.4,6.1-5a86.42,86.42,0,0,1,25.1,12.4"/><path class="cls-50" d="M129.4,19.5c-10.2-6.6-13.2-8.3-25.1-12.4a86.42,86.42,0,0,1,25.1,12.4"/><path class="cls-50" d="M104.2,7.1c-.5,1.6-2.6,3.3-6.1,5a92.46,92.46,0,0,1,20.4,16.3c-.4.2-.9.4-1.3.6A91.62,91.62,0,0,0,96,11.6c.2-.1.5-.2.7-.3,3.3-1.6,5.3-3.2,5.7-4.7l1.8.5"/><path class="cls-51" d="M109.4,5.5c7.9,3.2,8.1,3.2,15.5,7.4l1.8,1.1c2.2,1.4,3.1,3.1,2.8,4.8A84.86,84.86,0,0,0,104.3,6.7c.3-1.4-.9-2.7-3.5-3.6a64.55,64.55,0,0,1,8.6,2.4"/><path class="cls-50" d="M100.8,3.1c2.7,1,3.8,2.2,3.5,3.6a88.64,88.64,0,0,1,25.2,12.1c0,.2-.1.4-.1.6A86.6,86.6,0,0,0,102.5,6.5c0-.1.1-.2.1-.3.2-1.3-.8-2.5-3.3-3.4.4.1,1,.2,1.5.3"/><path class="cls-51" d="M8.9,57.9l.3-.9,1.5-3.6c4.2-8.8,4.4-9.1,7.4-13.9,1.9-2.8,4.5-6.5,6.6-9.2A6.13,6.13,0,0,0,23.2,33,98.52,98.52,0,0,0,8.9,57.9"/><path class="cls-50" d="M8.9,57.9c5-11.4,6.6-14.5,14.3-24.8h0A96.2,96.2,0,0,0,8.9,57.9"/><path class="cls-50" d="M23.2,33.1a6.13,6.13,0,0,1,1.5-2.7L26,28.8a7.39,7.39,0,0,0-1.6,2.8l-1.2,1.5"/><path class="cls-51" d="M19.9,67.9c-.9-.3-1.8-.5-2.6-.8-6.2-2.2-8.9-5.1-8.6-8.4a96.49,96.49,0,0,1,14.4-25c-.2,2.5,1.8,4.7,6.5,6.3.6.2,1.3.4,2,.6A121.48,121.48,0,0,0,19.9,67.9"/><path class="cls-50" d="M19.9,67.9A126,126,0,0,1,31.5,40.6,126,126,0,0,0,19.9,67.9"/><path class="cls-50" d="M31.5,40.7c-.7-.2-1.3-.4-2-.6-4.6-1.7-6.7-3.9-6.5-6.3a97.71,97.71,0,0,0-14.4,25c0-.3.1-.5.1-.8A95.57,95.57,0,0,1,24.2,31.7c0,.2-.1.4-.1.6-.2,2.4,1.8,4.6,6.3,6.2.6.2,1.2.4,1.9.6a5.9,5.9,0,0,1-.8,1.6"/><path class="cls-51" d="M53.7,70.8c-12.7.4-24-.4-32.2-2.4A123.94,123.94,0,0,1,32.7,41c6.2,1.5,14.7,2.1,24.2,1.8a248.57,248.57,0,0,0-3.2,28"/><path class="cls-50" d="M53.7,70.8a226.63,226.63,0,0,1,3.3-28,226.63,226.63,0,0,0-3.3,28"/><path class="cls-50" d="M57,42.8c-9.5.3-18-.3-24.2-1.8A129,129,0,0,0,21.6,68.4c-.6-.1-1.1-.3-1.7-.4A122.83,122.83,0,0,1,32.5,39l1.2.3c6,1.5,14.3,2.1,23.6,1.8-.1.6-.2,1.1-.3,1.7"/><path class="cls-51" d="M97,65.8a268.75,268.75,0,0,1-40.6,4.9,254.55,254.55,0,0,1,2.6-28A209,209,0,0,0,89.6,39c2.5,8.1,5,17.1,7.4,26.8"/><path class="cls-50" d="M97,65.8c-2.4-9.7-4.9-18.7-7.4-26.7,2.5,8,5,17,7.4,26.7"/><path class="cls-50" d="M89.6,39A196.24,196.24,0,0,1,59,42.7a252.24,252.24,0,0,0-2.6,28c-.9,0-1.8.1-2.6.1a211.82,211.82,0,0,1,3.6-29.7,12.1,12.1,0,0,0,1.9-.1,198.25,198.25,0,0,0,29.8-3.6c.2.5.3,1.1.5,1.6"/><path class="cls-51" d="M135.3,54.3a144.34,144.34,0,0,1-20.8,7.4q-7.2,1.95-14.7,3.6c-2.6-9.7-5.3-18.6-8.1-26.6q5.7-1.2,11.1-2.7a112.39,112.39,0,0,0,15.7-5.5,130.81,130.81,0,0,1,16.8,23.8"/><path class="cls-50" d="M135.3,54.3a139.06,139.06,0,0,0-16.8-23.9,135.27,135.27,0,0,1,16.8,23.9"/><path class="cls-50" d="M118.5,30.4a112.39,112.39,0,0,1-15.7,5.5q-5.4,1.5-11.1,2.7c2.8,8,5.5,16.9,8.1,26.6l-2.8.6c-2.6-10.4-5.2-20-7.9-28.4.7-.1,1.4-.3,2.1-.4,3.7-.8,7.3-1.7,10.8-2.6A110.92,110.92,0,0,0,117.3,29c.3.4.8.9,1.2,1.4"/><path class="cls-51" d="M151.9,41.3c-1.2,3.8-6.3,8-14.8,12.1a133.91,133.91,0,0,0-17.3-23.7c6.4-3.1,10.2-6.2,11.1-9.1a102.88,102.88,0,0,1,21,20.7"/><path class="cls-50" d="M151.9,41.3A105,105,0,0,0,131,20.6a105,105,0,0,1,20.9,20.7"/><path class="cls-50" d="M131,20.6c-.9,2.9-4.7,6-11.1,9.1a130.35,130.35,0,0,1,17.3,23.7,14.17,14.17,0,0,1-1.8.8,139.71,139.71,0,0,0-18.1-25.3c.5-.2.9-.4,1.3-.6,6.2-3,10-6.1,10.8-8.9a9.55,9.55,0,0,0,1.6,1.2"/><path class="cls-51" d="M137.4,22.1c6.9,6.4,7.3,6.8,11.1,11.2l2.4,3a5.08,5.08,0,0,1,1.2,4.3,101.78,101.78,0,0,0-21-20.5c.3-1.8-.5-3.4-2.7-4.8a84.92,84.92,0,0,1,9,6.8"/><path class="cls-50" d="M128.4,15.2c2.1,1.4,3,3.1,2.7,4.8a104.31,104.31,0,0,1,21,20.5,2.35,2.35,0,0,1-.2.8,105.87,105.87,0,0,0-22.5-21.9,1.27,1.27,0,0,0,.1-.6c.3-1.8-.6-3.4-2.8-4.8l1.7,1.2"/><path class="cls-51" d="M4.3,72.3l.9-3.7c.9-2.9,2.1-6.8,3.1-9.6a2.35,2.35,0,0,0-.2.8c-1.4,4-2.7,8.2-3.8,12.5"/><path class="cls-50" d="M4.3,72.3A121.46,121.46,0,0,0,1.6,89.7,121.46,121.46,0,0,1,4.3,72.3"/><path class="cls-50" d="M1.6,89.7A112.21,112.21,0,0,1,8.2,59.8c.1-.3.1-.5.2-.8l.8-2-.3.9A109.44,109.44,0,0,0,1.6,89.7"/><path class="cls-51" d="M14.4,101.3a21.08,21.08,0,0,1-3-1c-7.1-2.5-10.3-5.9-10-9.7l.2-2.2A114.69,114.69,0,0,1,8,60.5c-.3,3.3,2.4,6.3,8.7,8.5a19.75,19.75,0,0,0,2.6.8,148.9,148.9,0,0,0-4.9,31.5"/><path class="cls-50" d="M14.4,101.3a146,146,0,0,1,4.9-31.4,147,147,0,0,0-4.9,31.4"/><path class="cls-50" d="M19.4,70c-.9-.3-1.8-.5-2.6-.8-6.3-2.2-9-5.2-8.7-8.5A114.69,114.69,0,0,0,1.7,88.6L2,84.9c.6-3.8,1.5-8.8,2.3-12.6A96.74,96.74,0,0,1,8.9,57.9a2.2,2.2,0,0,0-.1.8c-.3,3.3,2.4,6.2,8.6,8.4a19.75,19.75,0,0,0,2.6.8,8.3,8.3,0,0,0-.6,2.1"/><path class="cls-3" d="M53.8,104.7c-14.8.4-27.9-.5-37.4-2.8a139.12,139.12,0,0,1,4.7-31.4c8.3,2.1,19.8,2.9,32.6,2.5a279.94,279.94,0,0,0,.1,31.7"/><path class="cls-50" d="M53.8,104.7a308.1,308.1,0,0,1-.2-31.8,308.1,308.1,0,0,0,.2,31.8"/><path class="cls-50" d="M53.6,72.9c-12.8.4-24.3-.4-32.6-2.5a153.45,153.45,0,0,0-4.7,31.4c-.7-.2-1.3-.3-1.9-.5a139.67,139.67,0,0,1,5.5-33.4,8.47,8.47,0,0,0,1.7.4c8.2,2,19.5,2.8,32.2,2.4-.1.8-.1,1.5-.2,2.2"/><path class="cls-51" d="M104.2,98.8a321.1,321.1,0,0,1-47.3,5.8c-.7-11-.9-21.7-.6-31.8a264.29,264.29,0,0,0,41.2-5c2.4,9.8,4.6,20.2,6.7,31"/><path class="cls-50" d="M104.2,98.8c-2-10.8-4.3-21.3-6.7-31,2.4,9.8,4.6,20.2,6.7,31"/><path class="cls-50" d="M97.5,67.8a264.29,264.29,0,0,1-41.2,5c-.3,10.1-.1,20.8.6,31.8-1,0-2.1.1-3.1.1a273.78,273.78,0,0,1,0-33.9c.9,0,1.7-.1,2.6-.1A265.73,265.73,0,0,0,97,65.8c.2.6.3,1.3.5,2"/><path class="cls-51" d="M148.8,85.4A171.69,171.69,0,0,1,124.5,94c-5.5,1.6-11.3,2.9-17.1,4.2-2.1-10.8-4.5-21.2-7.1-31,5.1-1.1,10-2.3,14.9-3.6a144.24,144.24,0,0,0,21.1-7.5,160.44,160.44,0,0,1,12.5,29.3"/><path class="cls-50" d="M148.8,85.4c-4.5-13-5.9-16.6-12.4-29.3h0a167.45,167.45,0,0,1,12.4,29.3"/><path class="cls-50" d="M136.4,56.1a157,157,0,0,1-21.1,7.5c-4.8,1.4-9.8,2.6-14.9,3.6,2.6,9.8,5,20.2,7.1,31-1.1.2-2.2.5-3.3.7C102,87.3,99.6,76.1,97,65.8l2.8-.6q7.5-1.65,14.7-3.6a140.09,140.09,0,0,0,20.8-7.4l1.1,1.9"/><path class="cls-51" d="M168.1,70.4c-1.4,4.4-7.3,9.3-17.2,14.1a167.19,167.19,0,0,0-12.7-29.2c8.6-4.1,13.7-8.4,15-12.2a117.58,117.58,0,0,1,14.9,27.3"/><path class="cls-50" d="M168.1,70.4A120.37,120.37,0,0,0,153.2,43a120.37,120.37,0,0,1,14.9,27.4"/><path class="cls-50" d="M153.2,43c-1.2,3.9-6.4,8.1-15,12.2a167.19,167.19,0,0,1,12.7,29.2c-.7.3-1.4.7-2.1,1a165.08,165.08,0,0,0-13.5-31.2,14.17,14.17,0,0,1,1.8-.8c8.5-4.1,13.6-8.3,14.8-12.1a10.92,10.92,0,0,0,1.3,1.7"/><path class="cls-51" d="M158,46.3c5.2,9,5.4,9.3,7.8,14.6l2.2,5.4a5.79,5.79,0,0,1,.3,3.2,116.23,116.23,0,0,0-15-27.3,5.26,5.26,0,0,0-1.1-4.3c1.8,2.5,4.2,5.8,5.8,8.4"/><path class="cls-50" d="M152.2,37.9a5.26,5.26,0,0,1,1.1,4.3,117.87,117.87,0,0,1,15,27.3c-.1.3-.1.6-.2.9a113.57,113.57,0,0,0-16.2-29c.1-.3.1-.5.2-.8a5,5,0,0,0-1.2-4.3l1.3,1.6"/><path class="cls-51" d="M17.1,136.7c-5-1.6-11.9-3.9-13.4-9.3l-1.4-7.8C1.1,108.3,1.1,108,1,102c.1-2.7.1-6.3.2-9-.2,3.7,3,7.1,10.1,9.6,1,.3,2,.7,3,1a139.61,139.61,0,0,0,1.5,25.7c.4,2.5.8,5,1.3,7.4"/><path class="cls-50" d="M17.1,136.7c-.5-2.4-.9-4.9-1.3-7.4a148.38,148.38,0,0,1-1.5-25.7,139.61,139.61,0,0,0,1.5,25.7c.4,2.5.8,5,1.3,7.4"/><path class="cls-50" d="M14.3,103.6a21.08,21.08,0,0,1-3-1C4.2,100.1,1,96.7,1.2,93l.2-2.3c-.3,3.8,2.9,7.1,10,9.7,1,.3,2,.7,3,1a17,17,0,0,1-.1,2.2"/><path class="cls-51" d="M57.8,140.2c-15.3.4-28.8-.5-38.7-2.9-.5-2.4-.9-4.9-1.3-7.4a139.11,139.11,0,0,1-1.5-25.7c9.6,2.4,22.8,3.3,37.6,2.9.5,8.5,1.4,17.2,2.7,25.8.4,2.4.8,4.8,1.2,7.3"/><path class="cls-50" d="M57.8,140.2c-.4-2.4-.8-4.9-1.2-7.4-1.3-8.6-2.2-17.3-2.7-25.8.5,8.5,1.4,17.2,2.7,25.8.4,2.5.8,4.9,1.2,7.4"/><path class="cls-50" d="M53.9,107c-14.8.4-28.1-.5-37.6-2.9a159,159,0,0,0,1.5,25.7c.4,2.5.8,5,1.3,7.4-.7-.2-1.3-.3-2-.5-.5-2.4-.9-4.9-1.3-7.4a146.23,146.23,0,0,1-1.4-27.9c.6.2,1.3.3,1.9.5,9.5,2.4,22.7,3.3,37.4,2.8a16.41,16.41,0,0,1,.2,2.3"/><path class="cls-51" d="M109.9,134.1A317.61,317.61,0,0,1,61,140c-.4-2.4-.8-4.9-1.2-7.4-1.3-8.6-2.2-17.3-2.8-25.8a310.41,310.41,0,0,0,47.6-5.8c1.6,8.4,3,17,4.3,25.6.3,2.6.7,5.1,1,7.5"/><path class="cls-50" d="M109.9,134.1c-.3-2.4-.7-4.9-1-7.4-1.3-8.6-2.7-17.2-4.3-25.6,1.6,8.4,3,17,4.3,25.6.3,2.5.7,5,1,7.4"/><path class="cls-50" d="M104.6,101.1A310.41,310.41,0,0,1,57,106.9c.6,8.5,1.5,17.2,2.8,25.8.4,2.5.8,5,1.2,7.4-1.1,0-2.1.1-3.2.1-.4-2.4-.8-4.9-1.2-7.4-1.4-9.4-2.3-18.8-2.8-28.1,1,0,2-.1,3.1-.1a306.68,306.68,0,0,0,47.3-5.8c.1.8.3,1.5.4,2.3"/><path class="cls-3" d="M156,120.2a178.38,178.38,0,0,1-25.1,8.9c-5.7,1.6-11.6,3-17.7,4.3-.3-2.4-.7-4.9-1-7.4-1.3-8.6-2.7-17.2-4.4-25.6,5.8-1.2,11.6-2.6,17.2-4.2a173.43,173.43,0,0,0,24.4-8.6,161.51,161.51,0,0,1,5.6,25.2,65.51,65.51,0,0,1,1,7.4"/><path class="cls-50" d="M156,120.2c-1.8-14-2.5-18-6.6-32.7a161.51,161.51,0,0,1,5.6,25.2,70.45,70.45,0,0,1,1,7.5"/><path class="cls-50" d="M149.5,87.6a173.43,173.43,0,0,1-24.4,8.6c-5.6,1.6-11.3,3-17.2,4.2,1.6,8.4,3.1,17,4.4,25.6.4,2.5.7,5,1,7.4-1.1.2-2.3.5-3.4.7-.3-2.4-.7-4.9-1-7.4-1.4-9.4-3-18.7-4.7-27.8,1.1-.2,2.2-.4,3.3-.7q8.7-1.8,17.1-4.2a176.33,176.33,0,0,0,24.3-8.6l.6,2.2"/><path class="cls-51" d="M176,104.7c-1.5,4.6-7.6,9.6-17.8,14.5q-.3-3.75-.9-7.5a174,174,0,0,0-5.7-25.2c9.9-4.8,15.9-9.7,17.3-14.1a117.59,117.59,0,0,1,6.2,24.7c.4,2.6.7,5.1.9,7.6"/><path class="cls-50" d="M176,104.7q-.3-3.75-.9-7.5a131.34,131.34,0,0,0-6.2-24.7,117.59,117.59,0,0,1,6.2,24.7q.6,3.75.9,7.5"/><path class="cls-50" d="M168.9,72.5c-1.4,4.5-7.4,9.4-17.3,14.1a171,171,0,0,1,5.7,25.2q.6,3.75.9,7.5c-.7.3-1.4.7-2.2,1-.2-2.5-.6-5-.9-7.5a176.06,176.06,0,0,0-6.3-27.4c.7-.3,1.4-.7,2.1-1,9.9-4.7,15.8-9.6,17.2-14.1a14.28,14.28,0,0,0,.8,2.2"/><path class="cls-51" d="M171.6,77c2.8,11,2.8,11.2,3.7,17.3l.9,7.9a8.6,8.6,0,0,1-.1,1.6q-.3-3.75-.9-7.5A131.34,131.34,0,0,0,169,71.6a5.44,5.44,0,0,0-.3-3.1,85.09,85.09,0,0,1,2.9,8.5"/><path class="cls-50" d="M168.8,68.4a5.53,5.53,0,0,1,.3,3.1,117.59,117.59,0,0,1,6.2,24.7q.6,3.75.9,7.5c-.1.3-.1.6-.2.9q-.3-3.75-.9-7.5a128.59,128.59,0,0,0-7-26.8,2.92,2.92,0,0,0,.2-.9,5.79,5.79,0,0,0-.3-3.2l.8,2.2"/><path class="cls-51" d="M27.7,168.1c-1-.3-2-.6-2.9-.9-4.7-1.7-7.6-3.7-8.8-6l-3.4-6.7c-4.2-10-4.3-10.2-6.1-15.9-.7-2.6-1.7-6.1-2.3-8.7.7,3.1,4,5.9,10.2,8.1a28.12,28.12,0,0,0,3.1,1,126.36,126.36,0,0,0,10.2,29.1"/><path class="cls-50" d="M27.7,168.1a121,121,0,0,1-10.1-29.2,121,121,0,0,0,10.1,29.2"/><path class="cls-50" d="M17.6,138.9a28.12,28.12,0,0,1-3.1-1c-6.2-2.2-9.5-5-10.2-8.1l-.5-2.3c.9,2.5,2.2,5.9,13.4,9.3a19.14,19.14,0,0,0,.4,2.1"/><path class="cls-51" d="M65.2,171.3c-14,.4-26.6-.5-35.7-2.7a126.17,126.17,0,0,1-10-29.1c9.8,2.4,23.4,3.4,38.6,2.9a254.87,254.87,0,0,0,7.1,28.9"/><path class="cls-50" d="M65.2,171.3a235.88,235.88,0,0,1-7-28.9h0a235.88,235.88,0,0,0,7,28.9"/><path class="cls-50" d="M58.2,142.4c-15,.3-26.7-.1-38.6-2.9a124.55,124.55,0,0,0,10,29.1c-.6-.2-1.2-.3-1.8-.5a123.4,123.4,0,0,1-10.6-31.4,11.7,11.7,0,0,0,2,.5c9.9,2.4,23.5,3.4,38.7,2.9a18.1,18.1,0,0,0,.3,2.3"/><path class="cls-51" d="M113.2,165.7a303,303,0,0,1-45.1,5.5,257.54,257.54,0,0,1-6.8-28.9,327.58,327.58,0,0,0,48.8-5.9c1.5,10.6,2.5,20.5,3.1,29.3"/><path class="cls-50" d="M113.2,165.7c-.6-8.8-1.6-18.7-3-29.4,1.4,10.7,2.4,20.6,3,29.4"/><path class="cls-50" d="M110.2,136.3a314.91,314.91,0,0,1-48.8,5.9,257.54,257.54,0,0,0,6.8,28.9c-1,0-2,.1-2.9.1a241.67,241.67,0,0,1-7.4-31.1c1,0,2.1-.1,3.2-.1a327.29,327.29,0,0,0,48.9-5.9,16.35,16.35,0,0,0,.2,2.2"/><path class="cls-51" d="M155.7,152.9a177.12,177.12,0,0,1-23.1,8.2c-5.3,1.5-10.7,2.8-16.3,4q-.75-13.35-2.7-29.4c6-1.3,11.9-2.7,17.6-4.3a196.65,196.65,0,0,0,25-8.8,138.1,138.1,0,0,1-.5,30.3"/><path class="cls-50" d="M155.7,152.9a138.63,138.63,0,0,0,.6-30.4,145.11,145.11,0,0,1-.6,30.4"/><path class="cls-50" d="M156.2,122.5c-8.9,3.8-20.3,8.3-42.7,13.1,1.4,10.7,2.3,20.6,2.7,29.4l-3.1.6c-.6-9.4-1.7-20.1-3.3-31.6,1.1-.2,2.3-.5,3.4-.7,6-1.3,11.9-2.7,17.7-4.3a178.38,178.38,0,0,0,25.1-8.9,21.16,21.16,0,0,1,.2,2.4"/><path class="cls-51" d="M174,138.6c-1.3,4.2-7,8.9-16.4,13.4a127.91,127.91,0,0,0,.7-30.5c10.2-4.9,16.3-9.9,17.7-14.5a110.08,110.08,0,0,1-2,31.6"/><path class="cls-50" d="M174,138.6c2.3-13.7,2.6-17.6,2.1-31.6h0a113.73,113.73,0,0,1-2.1,31.6"/><path class="cls-50" d="M176.1,107c-1.4,4.6-7.6,9.6-17.7,14.5a139.29,139.29,0,0,1-.7,30.5c-.6.3-1.3.6-2,.9a141.69,141.69,0,0,0,.4-32.7c.7-.3,1.5-.7,2.2-1,10.2-4.9,16.3-10,17.8-14.5V107"/><path class="cls-51" d="M176.5,120.6c-.4,4.2-1,9.7-1.6,13.9a116.75,116.75,0,0,0,1.5-28.5l.1-1.5c.1,4.8.3,11.3,0,16.1"/><path class="cls-50" d="M176.4,103.2l.1,1.3-.1,1.5a116.75,116.75,0,0,1-1.5,28.5l-.5,2.8-.1.6a1.85,1.85,0,0,1-.2.7,118.56,118.56,0,0,0,1.9-33.9,2.92,2.92,0,0,0,.2-.9,9.15,9.15,0,0,0,.1-1.6l.1,1"/><path class="cls-51" d="M44.5,192.1c-.8-.2-1.6-.5-2.3-.7a17.64,17.64,0,0,1-5.9-3.3c-1.8-1.9-4.3-4.4-6-6.3-6.3-7.7-6.5-8-9.7-12.8l-3.5-5.8c1.3,2.2,4.1,4.2,8.7,5.9.9.3,1.8.6,2.8.9a99.14,99.14,0,0,0,15.9,22.1"/><path class="cls-50" d="M44.5,192.1a96,96,0,0,1-15.9-22.3,96,96,0,0,0,15.9,22.3"/><path class="cls-50" d="M28.6,169.9c-1-.3-1.9-.6-2.8-.9-4.6-1.6-7.4-3.6-8.7-5.9l-1.1-2c1.2,2.3,4.1,4.3,8.8,6,.9.3,1.9.6,2.9.9.3.7.6,1.3.9,1.9"/><path class="cls-51" d="M74.9,194.7c-11.4.3-21.5-.4-28.9-2.2a94.53,94.53,0,0,1-15.6-22.2c9,2.2,21.4,3.1,35.3,2.7a128.63,128.63,0,0,0,9.2,21.7"/><path class="cls-50" d="M74.9,194.7A121.17,121.17,0,0,1,65.8,173a121.17,121.17,0,0,0,9.1,21.7"/><path class="cls-50" d="M65.7,173c-13.9.4-26.3-.5-35.3-2.7A94.53,94.53,0,0,0,46,192.5c-.5-.1-1-.3-1.5-.4a97.73,97.73,0,0,1-16.8-24c.6.2,1.2.3,1.8.5,9.1,2.3,21.6,3.1,35.7,2.7a10.93,10.93,0,0,1,.5,1.7"/><path class="cls-51" d="M113.8,190.2a226.77,226.77,0,0,1-36.5,4.4,134.3,134.3,0,0,1-8.6-21.7,296.11,296.11,0,0,0,44.6-5.4c.5,8.7.7,16.3.5,22.7"/><path class="cls-50" d="M113.8,190.2c.2-6.4.1-14-.5-22.7.5,8.7.7,16.3.5,22.7"/><path class="cls-50" d="M113.3,167.5a296.11,296.11,0,0,1-44.6,5.4,134.3,134.3,0,0,0,8.6,21.7c-.8,0-1.6.1-2.4.1a134.37,134.37,0,0,1-9.7-23.4c1,0,1.9-.1,2.9-.1a290.34,290.34,0,0,0,45.1-5.5c0,.6.1,1.2.1,1.8"/><path class="cls-51" d="M148.2,179.8a141.71,141.71,0,0,1-18.7,6.6c-4.3,1.2-8.7,2.3-13.2,3.2a212.84,212.84,0,0,0,.1-22.8c5.5-1.2,10.9-2.5,16.1-3.9a160.9,160.9,0,0,0,22.9-8.1,95.12,95.12,0,0,1-7.2,25"/><path class="cls-50" d="M148.2,179.8c4-9.7,4.9-12.6,7.2-25h0a95.12,95.12,0,0,1-7.2,25"/><path class="cls-50" d="M155.4,154.8a160.9,160.9,0,0,1-22.9,8.1c-5.2,1.5-10.6,2.8-16.1,3.9a189.49,189.49,0,0,1-.1,22.8,22.12,22.12,0,0,1-2.5.5c.2-6.8,0-15.1-.6-24.5l3.1-.6c5.5-1.2,11-2.5,16.3-4a151.82,151.82,0,0,0,23.1-8.2l-.3,2"/><path class="cls-51" d="M171.3,149.2l-1.3,3.9c-3.6,9.2-3.8,9.6-6.4,14.6l-1.1,1.9c-1.7,3-6,6.3-12.7,9.5a93,93,0,0,0,7.5-25.2c9.3-4.5,14.9-9.1,16.2-13.3-.6,2.6-1.4,6-2.2,8.6"/><path class="cls-50" d="M171.3,149.2c-3.6,10.1-3.7,10.5-8.2,19.1,4.7-9.4,4.9-9.7,8.2-19.1"/><path class="cls-50" d="M163.1,168.2a102.57,102.57,0,0,0,10.5-27.6c-1.3,4.2-6.9,8.8-16.2,13.3a97.83,97.83,0,0,1-7.5,25.2c-.5.3-1.1.5-1.6.8a96.27,96.27,0,0,0,7.5-26.9c.7-.3,1.3-.6,2-.9,9.4-4.5,15-9.2,16.4-13.4a109.76,109.76,0,0,1-11.1,29.5"/><path class="cls-50" d="M171.3,149.2c.9-3.2,2-7.4,2.7-10.6.1-.2.1-.5.2-.7-.8,3.4-1.9,7.9-2.9,11.3"/><path class="cls-51" d="M65.8,207.3c-.5-.2-1.1-.3-1.5-.5a4.18,4.18,0,0,1-1-.4c-2.8-1.3-6.5-3.2-9.2-4.7-7.5-4.8-7.9-5.1-12.6-8.9l-3.6-3.2a15.82,15.82,0,0,0,5.7,3.1,15.46,15.46,0,0,0,2.3.7,67.66,67.66,0,0,0,19.9,13.9"/><path class="cls-50" d="M65.8,207.3a68.49,68.49,0,0,1-20.1-13.9,71.2,71.2,0,0,0,20.1,13.9"/><path class="cls-50" d="M45.8,193.4c-.8-.2-1.6-.5-2.3-.7a18.65,18.65,0,0,1-5.7-3.1l-1.5-1.5a17.64,17.64,0,0,0,5.9,3.3,15.46,15.46,0,0,0,2.3.7,15.93,15.93,0,0,0,1.3,1.3"/><path class="cls-51" d="M86,209c-7.6.2-14.3-.2-19.2-1.5a65.5,65.5,0,0,1-19.6-13.8c7.2,1.8,17.2,2.5,28.3,2.2,3.4,5.8,6.9,10.2,10.5,13.1"/><path class="cls-50" d="M86,209c-3.6-2.9-7.1-7.3-10.4-13.1,3.3,5.8,6.8,10.2,10.4,13.1"/><path class="cls-50" d="M75.6,195.9c-11.2.3-21.1-.4-28.3-2.2a67.35,67.35,0,0,0,19.6,13.8c-.3-.1-.7-.2-1-.3A66.93,66.93,0,0,1,44.6,192c.5.1,1,.3,1.5.4,7.4,1.8,17.5,2.5,28.9,2.2a3.1,3.1,0,0,0,.6,1.3"/><path class="cls-51" d="M111.8,206a162.53,162.53,0,0,1-24.2,2.9c-3.3-2.9-6.6-7.3-9.7-13.1a228.55,228.55,0,0,0,35.8-4.4,60.88,60.88,0,0,1-1.9,14.6"/><path class="cls-50" d="M111.8,206a60.68,60.68,0,0,0,1.9-14.5,60.68,60.68,0,0,1-1.9,14.5"/><path class="cls-50" d="M113.7,191.5a242.74,242.74,0,0,1-35.8,4.4c3.1,5.8,6.4,10.2,9.7,13.1a8.6,8.6,0,0,0-1.6.1c-3.8-3.1-7.6-7.9-11.1-14.3.8,0,1.6-.1,2.4-.1a250.19,250.19,0,0,0,36.5-4.4c0,.3-.1.7-.1,1.2"/><path class="cls-51" d="M134.6,199.1a96.36,96.36,0,0,1-12.4,4.4c-2.8.8-5.8,1.5-8.7,2.1q2-5.25,2.7-14.7c4.4-.9,8.7-2,12.9-3.2a124.45,124.45,0,0,0,18.4-6.5,55.33,55.33,0,0,1-12.9,17.9"/><path class="cls-50" d="M134.6,199.1a57.54,57.54,0,0,0,12.9-17.8,56,56,0,0,1-12.9,17.8"/><path class="cls-50" d="M147.5,181.3a120.44,120.44,0,0,1-18.4,6.5c-4.2,1.2-8.5,2.2-12.9,3.2-.5,6.2-1.4,11.2-2.7,14.7l-1.7.3c1.1-3.6,1.7-9,2-15.8.8-.2,1.7-.3,2.5-.5,4.5-.9,8.9-2,13.2-3.2a136.7,136.7,0,0,0,18.7-6.6c-.2.4-.5.9-.7,1.4"/><path class="cls-51" d="M155.2,180.8c-5.5,6.7-5.8,7.1-10.4,11.5l-3,2.6a29.56,29.56,0,0,1-6.1,3.7,59.23,59.23,0,0,0,13.4-18c6.4-3.1,10.6-6.2,12.3-9.2-1.8,2.9-4.2,6.7-6.2,9.4"/><path class="cls-50" d="M161.4,171.4c-1.8,2.9-6,6.1-12.3,9.2a59.23,59.23,0,0,1-13.4,18,11.73,11.73,0,0,1-1.1.5,60.73,60.73,0,0,0,13.6-19.3c.6-.3,1.1-.5,1.6-.8,6.6-3.2,11-6.5,12.7-9.5l-1.1,1.9"/><path class="cls-51" d="M72.8,209.8c-1.4-.4-3.2-1-4.5-1.5l-3-1.2c.2.1.4.1.6.2.5.2,1,.3,1.5.5a35,35,0,0,0,5.4,2"/><path class="cls-50" d="M72.8,209.8h0A55.3,55.3,0,0,0,90,212a52.83,52.83,0,0,1-17.2-2.2"/><path class="cls-50" d="M90,212a53.51,53.51,0,0,1-22.7-4.1,8.8,8.8,0,0,1-1.5-.5c-.2-.1-.4-.1-.6-.2l-1.9-.8a10.37,10.37,0,0,0,1,.4c.5.2,1,.3,1.5.5A54.77,54.77,0,0,0,90,212"/><path class="cls-51" d="M95.8,212.8H94.4c-2.5,0-2.6,0-4-.1-3.1-.2-3.3-.2-5-.4a64.36,64.36,0,0,1-6.8-1.1l-3.1-.7a50.66,50.66,0,0,1-7.2-2.4c4.7,1.2,11.2,1.6,18.5,1.4a14,14,0,0,0,9,3.3"/><path class="cls-50" d="M95.8,212.8h0a11,11,0,0,0,1.8-.2,11,11,0,0,1-1.8.2"/><path class="cls-50" d="M97.6,212.6c-3.6.7-7.3-.4-10.9-3.1-7.3.2-13.8-.2-18.5-1.4a46.78,46.78,0,0,0,7.2,2.4l-2.6-.7a58.87,58.87,0,0,1-7-2.6c.3.1.6.2,1,.3,4.9,1.2,11.6,1.7,19.2,1.5,3.8,3,7.8,4.4,11.6,3.6"/><path class="cls-51" d="M107.9,211.5l-1.2.2c-1.9.3-1.9.3-2.9.5-1.9.2-1.9.3-2.9.4a21.64,21.64,0,0,1-3.1.2l-1.1.1a12.75,12.75,0,0,1-8.5-3.3,160.68,160.68,0,0,0,23.3-2.8c-.9,2.7-2.1,4.3-3.6,4.7"/><path class="cls-50" d="M107.9,211.5h0c-.2,0-.4.1-.6.1a1.27,1.27,0,0,1,.6-.1"/><path class="cls-50" d="M107.3,211.5q2.7,0,4.2-4.8a149.29,149.29,0,0,1-23.3,2.8,12.75,12.75,0,0,0,8.5,3.3h-.9c-3.3.1-6.6-1.2-9.8-3.8a9.15,9.15,0,0,0,1.6-.1,159.47,159.47,0,0,0,24.2-2.9c-1.1,3.6-2.6,5.6-4.5,5.5"/><path class="cls-51" d="M125.4,205.5a73.53,73.53,0,0,1-12.2,4.6l-3.4.9-1.1.3c1.8-.4,3.3-2.1,4.5-5q4.35-.9,8.4-2.1a96.3,96.3,0,0,0,12-4.2,39.23,39.23,0,0,1-8.2,5.5"/><path class="cls-50" d="M125.4,205.5h0a39.88,39.88,0,0,1-9.5,3.4,33.59,33.59,0,0,0,9.5-3.4"/><path class="cls-50" d="M116,208.9a39.29,39.29,0,0,0,17.6-8.9,78.37,78.37,0,0,1-12,4.2c-2.7.8-5.6,1.5-8.4,2.1-1.2,2.9-2.7,4.6-4.5,5l-.8.2c1.6-.3,2.9-2.2,3.9-5.5l1.7-.3q4.5-.9,8.7-2.1a91.17,91.17,0,0,0,12.4-4.4,40.25,40.25,0,0,1-18.6,9.7"/><path class="cls-51" d="M132,202c-1.5.9-3.6,2-5.1,2.9a48.81,48.81,0,0,0,7.8-5.3,42.46,42.46,0,0,0,5.5-3.2c-2.5,1.7-5.7,4-8.2,5.6"/><path class="cls-50" d="M140.1,196.3a25,25,0,0,1-5.5,3.2,41.24,41.24,0,0,1-7.8,5.3l-1.4.7a41.06,41.06,0,0,0,9.2-6.4c.4-.2.7-.3,1.1-.5a32.55,32.55,0,0,0,6.1-3.7l-1.7,1.4"/></g><path id="SVGID-2" data-name="SVGID" class="cls-52" d="M68.3,208.4c-1.6-.6-3.8-1.4-5.4-2.1-2.7-1.3-6.2-3.1-8.8-4.5a96.54,96.54,0,0,1-11.2-7.7A90.81,90.81,0,0,1,31,182.7c-1.7-1.9-3.9-4.6-5.5-6.7-1.4-1.9-3.1-4.4-4.5-6.3a125.47,125.47,0,0,1-8.1-14.6,124.1,124.1,0,0,1-6.1-16c-.9-2.6-1.7-6.1-2.3-8.7s-1.2-5.9-1.7-8.5a96.49,96.49,0,0,1-1.3-10.8c-.2-2.6-.4-6-.4-8.5,0-2.7.1-6.2.2-8.8A126.84,126.84,0,0,1,3.4,77.1,114.61,114.61,0,0,1,7.7,61.4,105.73,105.73,0,0,1,14,46.9c1-1.9,2.5-4.5,3.6-6.3,1.3-2,3.1-4.7,4.5-6.6,1.2-1.6,2.9-3.8,4.2-5.3A72.74,72.74,0,0,1,31.7,23,79.44,79.44,0,0,1,55.8,6.9,68.79,68.79,0,0,1,68,3c3.1-.7,4.7-.9,7.5-1.3,1.5-.2,4.4-.4,6.2-.5A23.68,23.68,0,0,1,85.2,1c1.6,0,1.6,0,4.5.2,2,.1,5.1.6,5.8.7,1.1.2,2.6.4,3.7.7l4.3,1c1.8.5,4.2,1.3,6,1.9A57.57,57.57,0,0,0,73.9,4.3a58.33,58.33,0,0,1,35.6,1.2,104.3,104.3,0,0,1,10.8,4.8,77.21,77.21,0,0,1,10.3,6.4c2.1,1.6,4.9,3.7,6.8,5.4a62.65,62.65,0,0,1,5.3,5,110.17,110.17,0,0,1,10.5,12.2c1.4,2.1,3.4,4.9,4.8,7s2.9,4.8,4,6.9a118.45,118.45,0,0,1,6.9,15.4c.9,2.5,2,5.9,2.8,8.4s1.6,5.8,2.1,8.3c.6,2.7,1.2,6.3,1.6,9s.9,6.3,1,9c.2,5.1.5,11.9.2,16.9a113.76,113.76,0,0,1-2.1,16.7,117,117,0,0,1-4.5,16.2,111,111,0,0,1-6.4,14.6,96.94,96.94,0,0,1-8.4,13.1c-1.2,1.6-2.8,3.6-4.1,5.1-1.8,2-4.3,4.6-6.3,6.4a88.39,88.39,0,0,1-12.2,9.3,74.29,74.29,0,0,1-13.6,6.7,70.7,70.7,0,0,1-12.2,3.4,71.54,71.54,0,0,1-12.3,1.2c-3.1,0-4.6-.1-6.4-.2-2.9-.2-5.7-.7-5.8-.7-1.1-.2-2.6-.4-3.7-.7l-4.3-1C72.5,209.8,70.1,209,68.3,208.4Z"/></g></g></svg>