<?xml version="1.0" encoding="utf-8"?>
<!-- Generator: Adobe Illustrator 25.2.3, SVG Export Plug-In . SVG Version: 6.00 Build 0)  -->
<svg version="1.1" id="Layer_1" xmlns="http://www.w3.org/2000/svg" xmlns:xlink="http://www.w3.org/1999/xlink" x="0px" y="0px"
	 viewBox="0 0 1788 467" style="enable-background:new 0 0 1788 467;" xml:space="preserve">
<style type="text/css">
	.st0{fill:#414042;}
	.st1{fill:#FFFFFF;}
	.st2{fill:#3551FF;}
	.st3{fill:#FFAA29;}
	.st4{fill:#643A96;}
	.st5{fill:#EE3435;}
	.st6{fill:#231F20;}
</style>
<g>
	<g>
		<g>
			<g>
				<g>
					<path class="st0" d="M1336.2,153.8c0-0.1-0.1-0.1-0.1-0.2c0-0.3,0-0.6,0.1-0.9c0,0,0,0-0.1,0l0,0c0-0.2,0.1-0.3,0.1-0.5
						c0-0.4,0.1-0.8,0.4-1.1c0-0.1,0.1-0.2,0.7,0c0.7,0.2,1.1,0.3,1,0.4c-0.1,0.2-0.3,0.4-0.2,0.6c0.1,0.3,0,0.6,0,0.9
						c0,0.3,0,0.5,0,0.8c0.1,0.3,0.2,0.5,0.3,0.7c0,0.2-0.1,0.5-0.1,0.7c0,0.1,0,0.1,0.2,0.1l0,0c-0.3,0.1,0.3,0.1-0.1,0.2l0,0
						c0,0,0,0.1,0,0.1c0.1,0.1-0.1,0.2-0.8,0.3c-0.2,0-0.4,0.1-0.5,0.1l0,0l0,0c-0.5,0.1-0.3-0.1-0.3-0.2c-0.2-0.4-0.3-0.8-0.3-1.2
						c-0.1-0.3,0-0.5-0.2-0.8C1336.3,153.9,1336.2,153.8,1336.2,153.8L1336.2,153.8z"/>
				</g>
			</g>
		</g>
		<g>
			<g>
				<g>
					<path class="st0" d="M1313.2,165.2c0,0.3,0,0.5,0,0.8c0,1-0.2,2-0.4,3.1c0,0.1,0,0.1,0,0.2l0,0c-0.2,0.7-0.4,1.3-0.7,1.9
						c-0.6,1.4-1.5,2.6-2.5,3.6c-0.2,0.2-0.4,0.5-0.9,0c-0.6-0.4-0.7-0.9-0.5-1.2c0.6-0.7,1.3-1.3,1.6-2.2c0.5-1.2,1-2.2,1.2-3.5
						c0.1-1.1,0.2-2.3,0.2-3.5c0-1.1-0.1-2.3,0-3.4c0.1-1,0.3-1.9,0.4-2.9c0-0.2,0.1-0.5-0.2-0.7l0,0c0.3-0.2-0.2-0.6,0.2-0.8l0,0
						c0-0.1,0.1-0.2,0-0.3c-0.1-0.4,0.2-0.5,0.9-0.3c0.2,0,0.4,0,0.5,0.1l0,0l0,0c0.5,0.3,0.2,0.6,0.2,0.9c0,1.5-0.1,3-0.2,4.5
						c0,0.9-0.1,1.8-0.1,2.8C1313.2,164.7,1313.3,164.9,1313.2,165.2L1313.2,165.2z"/>
				</g>
			</g>
		</g>
		<g>
			<g>
				<g>
					<path class="st0" d="M1313.7,148.4c0,0.1,0.1,0.2,0.1,0.2l0,0.9c0,0,0,0,0.1,0l0,0c0,0.2,0,0.4,0,0.6c0,0.4,0,0.9-0.2,1.3
						c0,0.1,0,0.2-0.7,0.2c-0.7,0-1.1-0.1-1.1-0.2c0.1-0.3,0.2-0.6,0.1-0.8c-0.2-0.4-0.1-0.8-0.1-1.2c0-0.4,0-0.7-0.1-1.1
						c0-0.3-0.2-0.7-0.2-1c0-0.3,0.2-0.6,0.2-0.9c0-0.1,0-0.1-0.2-0.2l0,0c0.3-0.1-0.3-0.2,0.2-0.3l0,0c0,0,0.1-0.1,0-0.1
						c-0.1-0.1,0.1-0.2,0.9-0.1c0.2,0,0.4,0,0.5,0l0,0l0,0c0.5,0.1,0.3,0.2,0.3,0.3c0.1,0.5,0.1,0.9,0.1,1.4c0,0.3,0,0.6,0.1,0.8
						C1313.7,148.3,1313.8,148.3,1313.7,148.4L1313.7,148.4z"/>
				</g>
			</g>
		</g>
		<g>
			<g>
				<g>
					<path class="st0" d="M1300.2,176.2c-0.2,0-0.4-0.1-0.7-0.1c-0.8-0.3-1.6-0.6-2.3-1.1c0,0-0.1,0-0.1,0l0,0
						c-0.4-0.3-0.9-0.6-1.3-0.9c-1-0.7-1.9-1.5-2.4-2.7c-0.1-0.2-0.2-0.5,0.3-0.8c0.6-0.3,1.1-0.4,1.2-0.2c0.3,0.5,0.6,1.2,1.2,1.5
						c0.8,0.5,1.6,1.1,2.4,1.5c0.8,0.4,1.6,0.7,2.4,0.9c0.8,0.2,1.6,0.1,2.4,0.2c0.7,0,1.4,0.2,2.1,0.1c0.2,0,0.3,0,0.4-0.3l0,0
						c0.2,0.3,0.3-0.3,0.6,0.1l0,0c0.1,0,0.1,0,0.2,0c0.2-0.2,0.4,0,0.5,0.8c0,0.2,0.1,0.4,0.1,0.5l0,0l0,0
						c-0.1,0.6-0.4,0.4-0.7,0.5c-1.2,0.3-2.5,0.4-3.7,0.4c-0.8,0-1.5-0.2-2.3-0.3C1300.6,176.3,1300.4,176.3,1300.2,176.2
						L1300.2,176.2z"/>
				</g>
			</g>
		</g>
		<g>
			<g>
				<g>
					<path class="st0" d="M1299.7,179.5c0,0.1-0.1,0.2-0.2,0.3l-0.8,1.2c0,0,0,0.1,0,0.1l0,0c-0.2,0.2-0.3,0.5-0.5,0.7
						c-0.3,0.6-0.7,1.1-1.2,1.6c-0.1,0.1-0.2,0.2-0.8-0.1c-0.6-0.4-0.9-0.7-0.8-0.8c0.3-0.4,0.6-0.6,0.8-1.1
						c0.2-0.6,0.6-1.1,0.9-1.7c0.3-0.5,0.6-1,0.9-1.5c0.3-0.5,0.5-1,0.8-1.4c0.3-0.4,0.7-0.7,1-1c0.1-0.1,0.2-0.2,0-0.4l0,0
						c0.3,0.1,0-0.4,0.4-0.2l0,0c0,0,0.1,0,0.1-0.1c0-0.2,0.3-0.1,0.8,0.4c0.1,0.1,0.3,0.2,0.4,0.3l0,0l0,0c0.3,0.4,0,0.4,0,0.5
						c-0.4,0.6-0.8,1.2-1.2,1.7c-0.2,0.4-0.5,0.7-0.7,1.1C1299.8,179.3,1299.8,179.5,1299.7,179.5L1299.7,179.5z"/>
				</g>
			</g>
		</g>
		<g>
			<g>
				<g>
					<path class="st0" d="M1309.4,157.4c0,0.1,0.1,0.1,0.1,0.2l0.2,0.9c0,0,0,0,0.1,0l0,0c0,0.2,0,0.3,0.1,0.5
						c0.1,0.4,0.2,0.8,0.1,1.2c0,0.1,0,0.2-0.6,0.4c-0.7,0.2-1.1,0.2-1.1,0.1c0-0.3,0.1-0.6-0.1-0.8c-0.3-0.3-0.3-0.8-0.4-1.1
						c-0.1-0.3-0.2-0.7-0.3-1.1c-0.1-0.3-0.3-0.6-0.4-1c-0.1-0.3,0.1-0.6,0.1-0.9c0-0.1,0-0.1-0.2-0.2l0,0c0.3-0.1-0.3-0.1,0.1-0.3
						l0,0c0,0,0-0.1,0-0.1c-0.1-0.1,0.1-0.2,0.9-0.3c0.2,0,0.4-0.1,0.5-0.1l0,0l0,0c0.5,0,0.3,0.1,0.3,0.2c0.1,0.4,0.2,0.8,0.3,1.3
						c0.1,0.3,0.1,0.5,0.2,0.8C1309.3,157.2,1309.4,157.3,1309.4,157.4L1309.4,157.4z"/>
				</g>
			</g>
		</g>
		<g>
			<g>
				<g>
					<path class="st0" d="M1306.7,167.5c-0.1,0-0.2,0.1-0.3,0.1c-0.4,0-0.7-0.1-1.1-0.1c0,0,0,0-0.1,0.1l0,0c-0.2,0-0.4-0.1-0.7-0.1
						c-0.5-0.1-1-0.3-1.4-0.7c-0.1-0.1-0.2-0.1,0.1-0.7c0.3-0.6,0.6-1,0.6-0.9c0.2,0.2,0.4,0.4,0.7,0.4c0.4-0.1,0.7,0.1,1.1,0.1
						c0.3,0,0.7,0,1,0c0.3,0,0.7-0.2,1-0.2c0.3,0,0.6,0.1,0.9,0.1c0.1,0,0.2,0,0.2-0.2l0,0c0.1,0.3,0.1-0.3,0.3,0.2l0,0
						c0,0,0.1,0,0.1,0c0.1-0.1,0.2,0.1,0.2,0.9c0,0.2,0.1,0.4,0,0.5l0,0l0,0c0,0.5-0.2,0.3-0.3,0.3c-0.5,0.1-1,0.2-1.4,0.2
						c-0.3,0-0.6,0-0.9,0.1C1306.8,167.4,1306.8,167.5,1306.7,167.5L1306.7,167.5z"/>
				</g>
			</g>
		</g>
		<g>
			<g>
				<g>
					<path class="st0" d="M1287,157c0,0.2,0.1,0.4,0.1,0.6c0.1,0.8,0.2,1.5,0.5,2.2c0,0,0.1,0.1,0.1,0.1l0,0
						c0.2,0.4,0.3,0.9,0.5,1.1c0.1,0.1,0.2,0.2,0.3,0.2c0.1,0.1,0.3,0.1,0.5,0.2c0.4,0.1,0.9,0.1,1.4,0.1c0.2,0,0.4-0.1,0.6,0.6
						c0.2,0.7,0.1,1.1-0.2,1.2c-0.5,0.1-0.9,0.1-1.4,0c-0.5,0-0.9-0.1-1.4-0.2c-0.4-0.1-0.8-0.3-1.1-0.6c-0.3-0.3-0.5-0.6-0.7-0.9
						c-0.3-0.6-0.5-1.1-0.7-1.7c-0.4-1.1-0.5-2.2-0.5-3.3c0-0.5,0-1.1,0-1.6c0-0.3,0-0.5,0.1-0.8l0.1-0.4l0.1-0.2
						c0-0.1,0.1-0.2,0.1-0.3c0.1-0.2,0.2-0.5,0.4-0.6c0.5-0.5,1.2-0.6,1.9-0.5c0.3,0.1,0.5,0.2,0.8,0.3c0.2,0.1,0.4,0.3,0.6,0.4
						c0.2,0.1,0.4,0.3,0.7,0.3l0,0c0,0.4,0.6,0.2,0.5,0.8l0,0c0,0.1,0.1,0.2,0.1,0.2c0.3,0.3,0.2,0.5-0.6,0.8
						c-0.2,0.1-0.3,0.2-0.5,0.2l0,0l0,0c-0.5,0.1-0.5-0.2-0.6-0.3c-0.3-0.3-0.7-0.6-1-0.7c-0.1,0-0.2,0-0.2-0.1c0,0-0.1,0-0.1,0
						c-0.1,0-0.1,0-0.1,0.1c0,0,0,0,0,0.1l0,0.2c-0.2,0.7-0.3,1.4-0.2,2.1C1286.9,156.6,1287,156.8,1287,157L1287,157z"/>
				</g>
			</g>
		</g>
		<g>
			<g>
				<g>
					<path class="st0" d="M1314.6,140.9c-0.4,0.2-0.9,0.5-1.3,0.7c-1.6,0.9-3,2.2-4.6,3.6c-0.1,0.1-0.1,0.2-0.2,0.2l0,0
						c-1,0.8-2.2,1.5-3.5,2c-2.9,1.1-6.1,1-8.9,0.3c-0.4-0.1-1.2-0.3-1-0.9c0.2-0.7,0.7-1,1.4-0.8c1.7,0.4,3.6,0.6,5.3,0.3
						c1.3-0.3,2.5-0.6,3.6-1.2c1.1-0.6,2.1-1.4,3.1-2.3c0.9-0.8,1.8-1.7,2.9-2.4c1.1-0.7,2.2-1.3,3.4-1.8c1.1-0.4,2.4-0.7,3.6-0.8
						c0.6,0,1.2-0.1,2,0.1c0.4,0.1,0.8,0.2,1.2,0.5c0.4,0.3,0.7,0.7,0.9,1.1c0.3,0.7,0.4,1.4,0.4,1.9c0,0.6-0.1,1.1-0.2,1.7
						c-0.1,0.5-0.3,1.1-0.7,1.7c-0.3,0.5-0.8,1-1.3,1.3c-0.5,0.3-1,0.5-1.4,1l0,0c-0.7-0.1-1.2,0.6-1.8,0.3l0,0
						c-0.2,0-0.4,0-0.6,0.1c-0.8,0.2-1.1,0-0.9-0.8c0-0.2-0.1-0.4,0.1-0.5l0,0l0,0c0.5-0.6,1.1-0.4,1.7-0.6c1.3-0.4,2.4-1,2.7-2.1
						c0.3-1.1,0.4-2.9-0.2-3.3c-0.3-0.3-1.2-0.3-2-0.3c-0.8,0.1-1.7,0.2-2.5,0.5C1315.4,140.5,1315,140.8,1314.6,140.9L1314.6,140.9
						z"/>
				</g>
			</g>
		</g>
		<g>
			<g>
				<g>
					<path class="st0" d="M1303.7,140.8c-0.3,0.1-0.5,0.3-0.8,0.4l-3.2,1.1c-0.1,0-0.1,0.1-0.1,0.1l0,0c-0.6,0.2-1.2,0.5-1.7,0.8
						c-1.2,0.7-2,1.7-2.4,2.8c-0.1,0.2-0.1,0.5-0.7,0.5c-0.7,0-1.1-0.3-1-0.8c0.3-1.3,1.1-2.2,1.9-3.1c1.2-1.3,2.8-1.8,4.2-2.4
						l3.8-1.4c1.2-0.5,2.4-1,3.7-1.3c1.1-0.2,2.3-0.2,3.5-0.2c0.3,0,0.6,0.1,0.8-0.2l0,0c0.3,0.3,0.7-0.2,1,0.3l0,0
						c0.1,0,0.2,0.1,0.3,0.1c0.5,0,0.6,0.2,0.3,1c-0.1,0.2-0.1,0.4-0.2,0.5l0,0l0,0c-0.4,0.5-0.7,0.2-1,0.1
						c-1.5-0.1-3.1,0.1-4.7,0.5c-1,0.2-1.9,0.5-2.8,0.9C1304.2,140.6,1304,140.8,1303.7,140.8L1303.7,140.8z"/>
				</g>
			</g>
		</g>
		<g>
			<g>
				<g>
					<path class="st0" d="M1292.5,133.8c-0.6,0.2-1.1,0.5-1.6,0.8c-2,1-3.9,2.4-5.3,4.2c-0.1,0.1-0.1,0.2-0.2,0.3l0,0
						c-0.8,1.1-1.5,2.2-2,3.5c-1.1,2.9-1.3,6.2-0.6,9.3c0.1,0.5,0.4,1.3-0.2,1.5c-0.6,0.2-1.3-0.2-1.5-1.1c-0.6-2.3-0.5-4.7-0.3-7
						c0.3-3.4,2.1-6.6,4.5-9c2.1-2.2,4.9-3.7,7.8-4.7c2.7-0.9,5.7-1.1,8.4-1c1.2,0,2.5,0.2,3.8,0.7c1.2,0.5,2.2,1.3,3.2,2.1
						c0.4,0.4,0.9,0.8,1.5,1l0,0c0.3,0.7,1.2,0.9,1.3,1.7v0c0.1,0.2,0.2,0.4,0.4,0.6c0.7,0.8,0.6,1.1-0.2,1.3
						c-0.2,0-0.3,0.2-0.5,0.1l0,0l0,0c-0.8-0.2-1-1-1.5-1.5c-1.1-1.2-2.5-2.4-4-3.1c-0.7-0.4-1.5-0.6-2.3-0.7
						c-0.8-0.1-1.7-0.1-2.6-0.1c-2.2,0-4.3,0-6.3,0.7C1293.6,133.4,1293.1,133.7,1292.5,133.8L1292.5,133.8z"/>
				</g>
			</g>
		</g>
		<g>
			<g>
				<g>
					<path class="st0" d="M1289.9,151.3c-0.1,0.1-0.3,0.2-0.4,0.3l-1.7,0.7c0,0,0,0.1-0.1,0.1l0,0c-0.3,0.1-0.7,0.3-1,0.4
						c-0.8,0.4-1.5,0.7-2.4,0.9c-0.1,0-0.3,0.1-0.6-0.5c-0.3-0.6-0.4-1.1-0.1-1.1c0.5-0.2,1.1-0.3,1.6-0.6c0.7-0.5,1.4-0.8,2.1-1.2
						c0.6-0.3,1.3-0.6,2-1c0.6-0.3,1.2-0.8,1.8-1c0.5-0.2,1.1-0.4,1.7-0.6c0.1,0,0.3-0.1,0.3-0.4l0,0c0.3,0.2,0.3-0.4,0.6,0l0,0
						c0.1,0,0.1,0,0.2,0c0.2-0.2,0.4,0,0.5,0.8c0,0.2,0.1,0.4,0.1,0.5l0,0l0,0c0,0.5-0.2,0.4-0.4,0.4c-0.7,0.3-1.5,0.8-2.3,1.2
						c-0.5,0.3-1,0.5-1.5,0.8C1290.1,151.2,1290,151.3,1289.9,151.3L1289.9,151.3z"/>
				</g>
			</g>
		</g>
		<g>
			<g>
				<g>
					<path class="st0" d="M1286.3,166.2c0,0.1,0,0.2-0.1,0.2c-0.2,0.2-0.4,0.4-0.5,0.6c0,0,0,0,0,0.1l0,0c-0.1,0.1-0.2,0.2-0.4,0.4
						c-0.2,0.3-0.5,0.6-1,0.7c-0.1,0-0.2,0.1-0.6-0.4c-0.4-0.6-0.7-0.9-0.6-0.9c0.2-0.1,0.5-0.1,0.5-0.4c0.1-0.4,0.4-0.5,0.5-0.8
						c0.2-0.2,0.4-0.5,0.5-0.7c0.1-0.2,0.2-0.6,0.3-0.8c0.1-0.2,0.4-0.3,0.6-0.5c0,0,0.1-0.1-0.1-0.2l0,0c0.3,0.1-0.2-0.2,0.2-0.1
						l0,0c0,0,0.1,0,0.1,0c-0.1-0.1,0.2-0.1,0.9,0.3c0.2,0.1,0.4,0.1,0.5,0.2l0,0l0,0c0.5,0.3,0.2,0.3,0.2,0.4
						c-0.1,0.4-0.3,0.8-0.5,1.1c-0.1,0.2-0.3,0.4-0.4,0.7C1286.3,166.1,1286.3,166.2,1286.3,166.2L1286.3,166.2z"/>
				</g>
			</g>
		</g>
		<g>
			<g>
				<g>
					<path class="st0" d="M1289.2,176.3c-0.3-0.3-0.7-0.6-1-0.9c-1.2-1.2-2.3-2.4-3.4-3.7c-0.1-0.1-0.1-0.1-0.2-0.2l0,0
						c-0.7-0.8-1.3-1.6-1.9-2.4l-0.9-1.2l-0.3-0.4c0,0,0,0,0,0c0,0,0,0,0,0l-0.7,0.5c-0.5,0.4-1.1,0.8-1.6,1.2
						c-0.3,0.2-0.8,0.6-1.2,0.1c-0.4-0.5-0.4-1.1,0.1-1.5l1.5-1.2l0.4-0.3l0.5-0.4c0.4-0.4,0.8-0.6,1.3-0.6c0.4,0.1,0.6,0.3,0.9,0.6
						c0.4,0.5,0.8,1,1.2,1.4l1,1.3c0.7,0.8,1.4,1.7,2.1,2.5c1.3,1.4,2.7,2.9,4.1,4.3c1.3,1.3,2.7,2.6,4,4.1c0.5,0.6,1,1.3,1.4,2
						c0.5,0.7,0.7,1.3,1.5,2.6l0.2,0.4c0,0.1,0.1,0.1,0.1,0.2l-0.2,0.2c-0.2,0.2-0.5,0.5-0.6,0.8l0,0c-0.2,0.1-0.5,0.2-0.5,0.3
						c-0.1,0.1-0.2,0.2-0.2,0.3c-0.2,0.2-0.3,0.4-0.6,0.3l0,0c-0.1,0.1-0.3,0.1-0.4,0.3c-0.4,0.5-0.7,0.4-1-0.3
						c-0.1-0.2-0.3-0.3-0.2-0.5l0,0l0,0c0-0.7,0.6-0.8,1-1.2l0.4-0.3l0.1-0.1l0.1-0.1c0,0,0-0.1-0.1-0.1l-0.2-0.3l-0.5-0.7
						c-0.7-1-1.4-1.9-2.2-2.8c-1-1.1-2-2.2-3.1-3.3C1289.8,176.8,1289.5,176.6,1289.2,176.3L1289.2,176.3z"/>
				</g>
			</g>
		</g>
		<g>
			<g>
				<g>
					<path class="st0" d="M1296.3,190.9c0.3,0.8,0.6,1.5,0.9,2.3c1.2,2.9,2.7,5.8,4,8.7c0.1,0.1,0.2,0.3,0.3,0.4l0,0
						c0.8,1.7,1.7,3.5,2.6,5.1c2.1,3.9,4.4,7.7,7,11.2c0.4,0.6,1.1,1.5,0.6,1.9c-0.5,0.4-1.4,0.1-2.1-0.9c-1.8-2.4-3.3-5-5-7.5
						c-2.4-3.6-4.2-7.5-6.1-11.4c-0.8-1.7-1.7-3.5-2.5-5.2c-0.4-0.9-0.8-1.8-1.2-2.7c-0.4-0.9-0.6-1.9-0.9-2.8l-0.8-2.6
						c-0.3-0.8-0.6-1.6-1-2.4c-0.7-1.6-1.6-3.1-2.6-4.5c-1.7-2.5-3.6-4.8-6-6.7c-0.5-0.4-1.2-0.9-1.8-0.9l0,0
						c-0.3-0.3-0.7-0.4-1.1-0.5c-0.4-0.1-0.7-0.1-1.1-0.4l0,0c-0.2,0-0.5-0.1-0.7,0c-0.5,0.1-0.8,0.2-1,0.1
						c-0.2-0.1-0.3-0.3-0.2-0.8c0-0.2-0.2-0.4,0.1-0.6l0,0l0,0c0.4-0.4,1-0.5,1.6-0.5c0.6,0,1.2,0.2,1.7,0.3c1.3,0.4,2.4,1,3.4,1.7
						c1,0.7,1.9,1.5,2.8,2.4c1.8,1.7,3.3,3.6,4.6,5.7c0.8,1.3,1.5,2.6,2.1,4c0.3,0.7,0.6,1.4,0.8,2.1l0.7,2.1
						C1295.9,189.4,1296.2,190.1,1296.3,190.9L1296.3,190.9z"/>
				</g>
			</g>
		</g>
		<g>
			<g>
				<g>
					<path class="st0" d="M1304.4,228.5c-0.2,0.2-0.4,0.4-0.6,0.5c-0.9,0.6-1.9,1-2.8,1.4c0,0-0.1,0.1-0.1,0.1l0,0
						c-0.6,0.2-1.1,0.4-1.6,0.7c-1.2,0.6-2.5,1.1-3.8,1.4c-0.2,0.1-0.5,0.2-0.8-0.4c-0.3-0.7-0.2-1.1,0.1-1.2c0.9-0.3,1.7-0.5,2.5-1
						c1.1-0.7,2.4-1.1,3.5-1.6c0.5-0.2,1-0.5,1.5-0.8c0.5-0.3,0.9-0.6,1.4-1c0.8-0.6,1.7-1.4,2.5-2.1c0.8-0.6,1.6-1,2.4-1.5
						c0.2-0.1,0.4-0.2,0.4-0.6l0,0c0.4,0.1,0.3-0.5,0.8-0.3l0,0c0.1,0,0.2-0.1,0.2-0.1c0.2-0.3,0.5-0.2,0.8,0.5
						c0.1,0.2,0.2,0.3,0.2,0.5l0,0l0,0c0.1,0.6-0.3,0.6-0.5,0.8c-1.1,0.9-2.3,1.8-3.5,2.6c-0.7,0.5-1.4,1-2.1,1.6
						C1304.8,228.2,1304.6,228.4,1304.4,228.5L1304.4,228.5z"/>
				</g>
			</g>
		</g>
		<g>
			<g>
				<g>
					<path class="st0" d="M1327.4,235.3l1.3,1c1.6,1.2,3.4,2.4,5.1,3.7c0.1,0.1,0.2,0.1,0.3,0.1l0,0l3.1,2.2
						c2.4,1.7,4.9,3.4,7.2,5.2c0.4,0.3,1,0.7,0.6,1.3c-0.4,0.6-1.1,0.6-1.7,0.1c-1.6-1.2-3.1-2.4-4.7-3.4c-2.4-1.5-4.7-3.2-7.1-4.7
						c-2.1-1.4-4.2-2.9-6.2-4.6c-1-0.8-1.8-1.7-2.7-2.3c-0.8-0.7-1.8-1.2-2.9-1.8c-1.9-1.1-3.5-2.7-4.9-4.3c-0.3-0.4-0.7-0.8-1.2-1
						l0,0c-0.1-0.6-1-0.8-1-1.5l0,0c-0.1-0.2-0.2-0.3-0.3-0.5c-0.6-0.6-0.6-0.9,0.2-1.2c0.2-0.1,0.3-0.3,0.5-0.2l0,0l0,0
						c0.8,0.1,1,0.8,1.4,1.3c1,1.2,2.1,2.3,3.2,3.3c1.1,1,2.3,1.8,3.7,2.6c0.8,0.5,1.7,1,2.5,1.7c0.8,0.7,1.5,1.4,2.2,1.9
						C1326.6,234.7,1327.1,234.9,1327.4,235.3L1327.4,235.3z"/>
				</g>
			</g>
		</g>
		<g>
			<g>
				<g>
					<path class="st0" d="M1357,249.4c0.3,0,0.5,0,0.8,0c1,0.1,2,0.2,3,0.4c0.1,0,0.1,0,0.2,0l0,0l1.8,0.3c0.7,0.1,1.6,0.2,2.4,0.7
						c0.8,0.5,1.3,1.3,1.6,2c0.1,0.2,0.3,0.5-0.3,0.9c-0.6,0.4-1.1,0.3-1.3,0c-0.4-0.8-0.7-1.4-1.5-1.5c-0.5-0.1-1.1-0.2-1.8-0.2
						c-0.7-0.1-1.3-0.2-2-0.2c-1.2-0.1-2.4-0.3-3.5-0.3c-1.1-0.1-2.2,0-3.3-0.1c-1-0.1-1.9-0.3-2.9-0.4c-0.2,0-0.5-0.1-0.7,0.2l0,0
						c-0.2-0.3-0.6,0.2-0.8-0.2l0,0c-0.1,0-0.2-0.1-0.3,0c-0.4,0.1-0.5-0.1-0.3-0.9c0-0.2,0-0.4,0.1-0.5l0,0l0,0
						c0.3-0.5,0.6-0.3,0.9-0.3c1.5,0,3,0.1,4.5,0.2c0.9,0,1.8,0.2,2.7,0.1C1356.5,249.4,1356.7,249.3,1357,249.4L1357,249.4z"/>
				</g>
			</g>
		</g>
		<g>
			<g>
				<g>
					<path class="st0" d="M1366.1,262.6c0,0.2,0.1,0.3,0,0.6c0,0.3-0.2,0.8-0.4,1.1c-0.2,0.3-0.7,0.6-1,0.7
						c-0.3,0.1-0.5,0.2-0.7,0.3c0,0,0,0.1-0.1,0.1l0,0c-0.4,0.1-0.7,0.2-1.1,0.4c-0.8,0.3-1.7,0.6-2.6,0.7c-0.1,0-0.4,0.1-0.6-0.5
						c-0.2-0.7-0.2-1.1,0-1.2c0.6-0.1,1.2-0.2,1.7-0.5c0.8-0.5,1.6-0.7,2.4-1c0.3-0.1,0.2-0.1,0.3-0.2c0,0,0,0,0-0.1
						c0,0,0-0.1,0-0.2l0-0.7c0-0.8-0.1-1.5,0.1-2.3c0.1-0.7,0.4-1.3,0.6-1.9c0.1-0.1,0.1-0.3-0.1-0.5l0,0c0.3-0.1-0.2-0.5,0.3-0.5
						l0,0c0-0.1,0.1-0.1,0.1-0.2c0-0.3,0.2-0.3,0.9,0c0.2,0.1,0.4,0.1,0.5,0.2l0,0l0,0c0.4,0.3,0.1,0.4,0.1,0.6
						c-0.2,0.9-0.4,1.8-0.5,2.7c-0.1,0.6-0.2,1.1-0.1,1.7C1366,262.3,1366.1,262.4,1366.1,262.6L1366.1,262.6z"/>
				</g>
			</g>
		</g>
		<g>
			<g>
				<g>
					<path class="st0" d="M1325.5,251.6c-0.8,0.1-1.7,0.1-2.6,0c-0.8-0.1-1.7-0.3-2.5-0.6c-0.8-0.3-1.6-0.8-2.3-1.5
						c-0.7-0.7-1.1-1.5-1.4-2.2c-0.2-0.4-0.3-0.8-0.4-1.1l-0.1-0.3c0-0.1,0-0.1,0-0.1c0-0.1-0.1-0.1-0.1-0.2c-0.1,0-0.1-0.1-0.2-0.1
						l0,0c-0.5-0.3-1.4-0.5-2.4-0.8c-0.3-0.1-0.5-0.2-0.8-0.4c-0.3-0.2-0.4-0.3-0.6-0.4c-0.4-0.3-0.8-0.5-1.2-0.8
						c-3.6-2.7-6.3-6.2-8.6-9.7c-0.4-0.6-1-1.5-0.5-1.9c0.6-0.4,1.4,0,2,0.9c1.6,2.3,3.2,4.6,5.1,6.4c1.5,1.4,3,2.6,4.6,3.6
						c0.6,0.4,1.6,0.5,2.7,1c0.5,0.2,1.2,0.6,1.6,1.3c0.2,0.4,0.3,0.6,0.4,0.8l0.3,0.7c0.3,0.8,0.7,1.5,1.2,2c0.5,0.5,1.2,0.8,2,1
						c1.6,0.4,3.4,0.4,5.1,0.2c0.3,0,1-0.1,1.5,0c0.5,0.1,1,0.3,1.5,0.5c0.9,0.4,1.6,1,2.3,1.4c0.3,0.2,0.7,0.4,1,0.5l1.2,0.4
						l2.4,0.9c2.8,1,5.5,2.1,8.3,3.4c0.6,0.3,1.3,0.7,2,0.8l0,0c0.6,0.7,1.7,0.7,2.1,1.5l0,0c0.2,0.2,0.4,0.4,0.7,0.5
						c1.1,0.7,1.2,1.1,0.4,1.4c-0.2,0.1-0.2,0.3-0.5,0.2l0,0l0,0c-0.9-0.1-1.6-0.8-2.4-1.3c-3.8-2.2-8.1-3.5-12.3-5.1
						c-0.7-0.2-1.3-0.5-2-0.8c-0.3-0.1-0.6-0.3-1-0.4c-0.4-0.2-0.7-0.4-1-0.6c-1.2-0.8-2.3-1.6-3.2-1.5c-0.2,0-0.7,0.1-1,0.1
						C1326.2,251.6,1325.8,251.6,1325.5,251.6L1325.5,251.6z"/>
				</g>
			</g>
		</g>
		<g>
			<g>
				<g>
					<path class="st0" d="M1282.3,220.5c-0.3-0.3-0.6-0.5-0.9-0.8c-1-1.1-2-2.2-3-3.3c-0.1-0.1-0.1-0.1-0.2-0.1l0,0l-1.8-2
						c-1.4-1.5-2.8-3.1-4-4.8c-0.2-0.3-0.5-0.7,0-1.1c0.5-0.5,1.1-0.4,1.4,0c0.8,1.1,1.6,2.2,2.6,3.1c1.4,1.3,2.7,2.9,4.1,4.3
						c1.2,1.3,2.4,2.6,3.7,3.8c1.2,1.2,2.5,2.2,3.6,3.4c1,1,1.9,2.1,2.9,3.2c0.2,0.2,0.5,0.5,0.9,0.6l0,0c0.1,0.5,0.8,0.4,0.8,1v0
						c0.1,0.1,0.2,0.2,0.3,0.3c0.5,0.3,0.4,0.6-0.2,1c-0.1,0.1-0.3,0.3-0.4,0.3l0,0l0,0c-0.7,0.1-0.8-0.4-1.2-0.7
						c-1.6-1.5-3.2-3-4.8-4.6c-1-0.9-1.9-1.9-2.9-2.8C1282.8,221,1282.5,220.8,1282.3,220.5L1282.3,220.5z"/>
				</g>
			</g>
		</g>
		<g>
			<g>
				<g>
					<path class="st0" d="M1282.7,232.1c-0.1,0.2-0.2,0.4-0.3,0.6c-0.5,0.8-0.9,1.5-1.4,2.3c0,0,0,0.1,0,0.1l0,0
						c-0.3,0.5-0.5,1-0.8,1.5c-0.5,1.2-1,2.3-1.8,3.4c-0.1,0.2-0.3,0.5-0.9,0.2c-0.6-0.3-0.9-0.7-0.8-1c0.4-0.8,0.9-1.5,1.1-2.3
						c0.4-1.2,1-2.3,1.6-3.4c0.5-1,1.1-2,1.7-2.9c0.5-0.9,1-1.8,1.5-2.7c0.5-0.7,1-1.4,1.4-2.1c0.1-0.2,0.2-0.4,0-0.6l0,0
						c0.4-0.1-0.1-0.5,0.4-0.6l0,0c0-0.1,0.1-0.1,0.1-0.2c0-0.4,0.3-0.4,1-0.1c0.2,0.1,0.4,0.1,0.5,0.2l0,0l0,0
						c0.4,0.4,0.1,0.7,0,0.9c-0.5,1.4-1.2,2.7-1.9,3.8c-0.4,0.7-0.9,1.4-1.3,2.2C1282.9,231.7,1282.8,232,1282.7,232.1L1282.7,232.1
						z"/>
				</g>
			</g>
		</g>
		<g>
			<g>
				<g>
					<path class="st0" d="M1258.1,195.3c-0.3,0.9-0.5,1.7-0.9,2.6c-1.2,3.2-2.4,6.4-3.6,9.6c-0.1,0.2-0.1,0.3-0.1,0.5l0,0l-2.3,5.7
						c-1.8,4.4-3.6,8.8-5.7,13.1c-0.3,0.7-0.8,1.8-1.4,1.5c-0.6-0.3-0.7-1.2-0.1-2.4c1.3-2.8,2.7-5.7,3.7-8.6
						c1.6-4.3,3.3-8.5,4.9-12.7c1.4-3.8,2.9-7.6,4.2-11.5c0.6-1.8,1.2-3.6,1.8-5.5c0.6-1.8,1.2-3.7,2.2-5.5c0.8-1.5,1.8-3,3.1-4.2
						c1.3-1.2,2.8-2.1,4.2-3c0.7-0.4,1.4-0.8,1.8-1.4l0,0c0.9-0.2,1.4-1.3,2.3-1.5l0,0c0.2-0.2,0.5-0.3,0.6-0.6
						c0.8-1,1.2-1.1,1.5-0.3c0.1,0.2,0.3,0.2,0.2,0.6l0,0l0,0c-0.2,1.1-1.3,1.7-2.2,2.4c-2.1,1.6-4.3,2.8-6.2,4.3
						c-1.8,1.5-3.1,3.6-4.1,5.8c-1.2,2.7-2.1,5.7-3.1,8.7C1258.6,193.7,1258.5,194.5,1258.1,195.3L1258.1,195.3z"/>
				</g>
			</g>
		</g>
		<g>
			<g>
				<g>
					<path class="st1" d="M1260.6,280.1c2.3,0.6,4.7,1,6.9,0.6c2.1-0.2,3.5-1.6,4.3-3.6c0.8-2,1.1-4.3,1.6-6.7
						c1.1-4.6,2-9.2,2.8-13.9c0.1-0.5,0.1-1,0.2-1.4l0,0l0.6-3.8c0.2-1.3,0.4-2.5,0.4-3.7c0.1-1.2,0-2.4-0.3-3.4
						c0-0.1-0.1-0.3-0.1-0.4c0-0.1-0.1-0.3-0.1-0.3l0,0l-0.1-0.1l-0.4-0.3l-1.3-1.1l-1.5-0.3c-6.5-1.5-12.9-3.4-19.2-5.5
						c-3.1-1.1-6.3-2.2-9.3-3.5c-3.1-1.2-6.1-2.5-9.2-3.3c-0.9-0.3-2.1-0.4-3.1-0.2c-1,0.1-1.8,0.4-1.9,0.1
						c-0.1-0.3,0.3-0.9,1.3-1.4c0.5-0.2,1.2-0.4,2-0.4c0.8,0,1.8,0.1,2.6,0.4c4.3,1.2,8.3,3.1,12.3,4.6c4.1,1.5,8.2,2.9,12.3,4.1
						c2.4,0.7,4.7,1.3,7.1,2l3.6,0.9l3.8,0.9l1.3,1.1l0.6,0.5l0.3,0.2c0.2,0.1,0.4,0.3,0.4,0.5l0.2,0.5l0.1,0.4
						c0.1,0.3,0.2,0.5,0.2,0.8c0.1,0.5,0.2,1,0.3,1.6c0.2,2.1-0.2,4.1-0.4,6c-0.6,3.8-1.2,7.7-2,11.5c-0.5,2.8-1.2,5.6-1.7,8.3
						c-0.3,1.4-0.5,2.8-0.9,4.2c-0.4,1.4-0.9,2.9-1.9,4.2c-0.9,1.3-2.4,2.3-4,2.6c-1.6,0.4-3.1,0.3-4.6,0.2c-3-0.3-5.7-1.3-8.4-2.3
						c-2.5-0.9-5-1.9-7.5-2.6c-2.6-0.6-5.2-1.4-7.8-2.2c-2.5-0.8-5.1-1.8-7.6-2.6c-2.4-0.8-5.1-1.3-7.7-2.1
						c-2.2-0.7-4.5-1.5-6.6-3.1c-0.5-0.4-1-0.9-1.4-1.5c-0.4-0.6-0.7-1.3-0.8-2c-0.2-1.3,0-2.7,0.3-3.9c0.7-2.4,1.8-4.5,2.7-6.5
						c0.5-1,0.8-2,1.1-3.1l1-3.3c0.7-2.1,1.4-4.3,1.8-6.3l0,0c1.1-2.3,1.5-5.3,2.8-7.4l0,0c0.3-0.9,0.8-1.7,1.3-2.4
						c1.1-1.8,2.3-2.5,2.9-2.7c0.6-0.2,0.6,0.1,0.3,0.7c-0.1,0.3,0.2,0.3-0.4,0.9l-0.1,0l0,0c-0.8,1-1.5,2-2,3.3
						c-0.3,0.6-0.5,1.3-0.8,2c-0.3,0.7-0.5,1.4-0.7,2c-1.1,3.3-2.2,6.7-3.2,10l-1.5,5.1c-0.6,1.8-1.4,3.4-2.1,5
						c-0.7,1.6-1.3,3.2-1.5,4.7c0,0.4,0,0.8,0,1.2l0.1,0.6c0.1,0.2,0.1,0.3,0.2,0.5c0.2,0.6,0.8,1.2,1.4,1.7c1.2,1,2.8,1.7,4.4,2.2
						c1.6,0.6,3.3,1,5,1.5c1,0.3,2.1,0.5,3.1,0.8c0.5,0.2,1.1,0.3,1.6,0.5l1.5,0.6c2,0.7,4.1,1.5,6.1,2.1c2,0.7,4.1,1.3,6.2,1.8
						c2.2,0.5,4.2,1.3,6.3,2C1256.2,278.7,1258.4,279.5,1260.6,280.1L1260.6,280.1z"/>
				</g>
			</g>
			<path class="st1" d="M1230.9,229.2c-1,0.6-1.9,1.4-2.6,2.3c-0.6,0.8-1.1,1.7-1.4,2.7c-2.2,6-4.1,12.1-5.9,18.3
				c-1.1,3.5-4.4,8-3.6,11.9c1,4.9,12.2,6.4,16.1,7.9c4.7,1.7,9.5,3.5,14.3,4.7c6.1,1.5,13.1,5.8,19.6,5.1c6.1-0.7,6.2-7.3,7.3-12
				c1.5-6.4,2.6-12.8,3.6-19.3c0.4-2.6,0.7-5.3-0.5-7.6l-2.1-1.8c-10.1-2.3-20.1-5.4-29.8-9.2c-3.2-1.3-6.4-2.6-9.8-3.4
				C1234.1,228.1,1232.3,228.4,1230.9,229.2"/>
		</g>
		<g>
			<g>
				<g>
					<path class="st0" d="M1247.5,210c-0.3,0.4-0.6,0.9-0.9,1.3c-1.2,1.6-2.5,3.1-3.7,4.7c-0.1,0.1-0.1,0.2-0.1,0.3l0,0l-2.3,2.8
						c-1.7,2.2-3.5,4.3-5.5,6.3c-0.3,0.3-0.8,0.9-1.3,0.4c-0.5-0.5-0.5-1.1,0-1.7c1.2-1.4,2.5-2.7,3.6-4.1c1.6-2.2,3.3-4.2,4.9-6.3
						c1.4-1.9,2.9-3.8,4.3-5.7c1.3-1.8,2.5-3.7,3.8-5.5c1.1-1.6,2.4-3,3.6-4.6c0.3-0.4,0.6-0.7,0.6-1.2l0,0c0.6-0.3,0.4-1.1,1.1-1.3
						l0,0c0.1-0.1,0.3-0.3,0.3-0.4c0.4-0.7,0.7-0.8,1.2-0.1c0.1,0.1,0.3,0.2,0.3,0.4l0,0l0,0c0.1,0.7-0.5,1.1-0.8,1.7
						c-1.6,2.5-3.4,4.9-5.1,7.3c-1.1,1.5-2.2,2.9-3.2,4.4C1248.1,209.1,1247.8,209.6,1247.5,210L1247.5,210z"/>
				</g>
			</g>
		</g>
		<g>
			<g>
				<g>
					<path class="st0" d="M1285.7,238.7c-0.1,0.3-0.1,0.6-0.2,0.9c-0.1,0.5-0.2,1-0.1,1.5c0.1,0.5,0.2,1,0.4,1.5
						c0,0.1,0.1,0.1,0.1,0.1l0,0l0.5,1c0.2,0.4,0.4,0.9,0.3,1.7c0,0.4-0.2,0.8-0.4,1.1c-0.2,0.3-0.3,0.5-0.5,0.6l-0.8,1
						c-0.6,0.7-1.1,1.3-1.7,2c-0.2,0.2-0.5,0.6-1,0.1c-0.6-0.4-0.7-0.9-0.4-1.3c0.8-0.9,1.6-1.7,2.2-2.7c0.2-0.4,0.5-0.7,0.6-0.9
						c0-0.1,0-0.2-0.1-0.5c-0.1-0.3-0.3-0.6-0.5-1.1c-0.2-0.4-0.4-0.8-0.5-1.3c-0.3-0.8-0.4-1.7-0.3-2.6c0.1-0.9,0.3-1.7,0.6-2.4
						c0.4-1.4,0.7-2.7,1.2-4.1c0.4-1.2,1-2.2,1.4-3.4c0.1-0.3,0.2-0.5,0.1-0.9l0,0c0.4-0.2,0-0.8,0.5-0.9l0,0c0-0.1,0.1-0.2,0.1-0.3
						c0.1-0.5,0.3-0.6,1-0.1c0.1,0.1,0.4,0.1,0.4,0.3l0,0l0,0c0.4,0.5,0,0.8-0.1,1.2c-0.6,1.8-1.2,3.5-1.7,5.3
						c-0.4,1.1-0.8,2.2-1,3.3C1285.8,238.2,1285.8,238.5,1285.7,238.7L1285.7,238.7z"/>
				</g>
			</g>
		</g>
		<g>
			<g>
				<g>
					<path class="st0" d="M1284.1,253.2c0.1,0.1,0.2,0.1,0.3,0.3c0.3,0.4,0.8,0.8,1.2,1.5c0,0,0.1,0,0.1,0.1l0,0
						c0.3,0.4,0.4,1.2,0.2,1.8c-0.1,0.4-0.3,0.7-0.5,1c-0.2,0.2-0.4,0.4-0.6,0.5c-0.4,0.3-0.6,0.4-0.8,0.5c0,0-0.1,0-0.7-0.1
						c-0.7-0.2-1-0.6-0.8-0.9c0.6-0.7,1.2-0.8,1.4-1.1c0.1-0.3,0.1-0.3,0.1-0.4c0-0.1-0.1-0.3-0.3-0.5c-0.4-0.4-0.9-0.9-1.4-1.6
						c-0.2-0.3-0.5-0.8-0.6-1.4c0-0.3,0-0.6,0.1-0.9c0.1-0.3,0.3-0.5,0.4-0.7c0.3-0.3,0.5-0.5,0.8-0.7c0.3-0.2,0.5-0.3,0.8-0.5
						c0.1-0.1,0.3-0.1,0.2-0.4l0,0c0.3,0.2,0.2-0.4,0.6-0.1l0,0c0.1,0,0.1,0,0.2-0.1c0.2-0.2,0.3,0,0.6,0.7c0.1,0.2,0.2,0.3,0.2,0.5
						l0,0l0,0c0.1,0.5-0.1,0.4-0.3,0.5c-0.3,0.2-0.6,0.5-0.9,0.7c-0.3,0.3-0.6,0.6-0.7,0.8c-0.1,0.2-0.1,0.3,0.1,0.5
						C1284,253.1,1284.1,253.1,1284.1,253.2L1284.1,253.2z"/>
				</g>
			</g>
		</g>
		<g>
			<g>
				<g>
					<path class="st0" d="M1286.6,259.3c0.2,0,0.5,0.1,0.7,0.1c0.8,0.3,1.6,0.6,2.3,1c0,0,0.1,0,0.1,0l0,0c0.4,0.2,0.8,0.4,1.3,0.6
						c1,0.5,2,0.9,2.9,1.6c0.1,0.1,0.4,0.2,0.1,0.8c-0.3,0.6-0.7,0.9-0.9,0.8c-0.6-0.4-1.2-0.8-1.9-1c-1-0.3-1.9-0.8-2.9-1.2
						c-0.8-0.3-1.6-0.7-2.5-0.8c-0.8-0.1-1.5,0-2.3,0.1c-0.7,0.1-1.4,0-2.2,0.1c-0.2,0-0.4,0-0.5,0.3l0,0c-0.3-0.3-0.4,0.3-0.7-0.1
						l0,0c-0.1,0-0.2,0-0.2,0c-0.3,0.2-0.4-0.1-0.4-0.9c0-0.2-0.1-0.4,0-0.5l0,0l0,0c0.1-0.5,0.4-0.3,0.6-0.4
						c1.1-0.2,2.3-0.5,3.5-0.6c0.8-0.1,1.6,0,2.4,0C1286.1,259.2,1286.4,259.2,1286.6,259.3L1286.6,259.3z"/>
				</g>
			</g>
		</g>
		<g>
			<g>
				<g>
					<path class="st0" d="M1314.2,272.9c0.5,0.2,1.1,0.5,1.6,0.7l5.9,3c0.1,0.1,0.2,0.1,0.3,0.1l0,0l3.5,1.8l2.1,1
						c0.7,0.4,1.4,0.8,2.1,1.4c0.3,0.3,0.7,0.7,0.9,1.1c0.3,0.4,0.4,0.9,0.5,1.3c0.2,0.9,0.2,1.6,0.4,2.2c0.1,0.4,0.4,0.8-0.1,1.2
						c-0.2,0.2-0.6,0.3-0.9,0.2c-0.3-0.1-0.6-0.5-0.8-1c-0.3-1.1-0.3-2.1-0.6-2.8c-0.3-0.7-1-1.3-1.9-1.7c-2.6-1.2-5.2-2.5-7.9-3.8
						l-7.1-3.5c-2.2-1.1-4.5-2-6.7-3.1c-1.9-0.9-3.7-2.1-5.6-3.1c-0.4-0.2-0.9-0.5-1.4-0.5l0,0c-0.4-0.5-1.2-0.3-1.5-1l0,0
						c-0.2-0.1-0.3-0.2-0.5-0.3c-0.8-0.3-0.9-0.6-0.3-1.2c0.1-0.1,0.2-0.4,0.4-0.4l0,0l0,0c0.8-0.2,1.3,0.3,1.9,0.6l8.8,4.3
						c1.8,0.9,3.6,1.8,5.4,2.6C1313.2,272.4,1313.7,272.6,1314.2,272.9L1314.2,272.9z"/>
				</g>
			</g>
		</g>
		<g>
			<g>
				<g>
					<path class="st0" d="M1330,327.5c-0.1,1-0.2,2.1-0.4,3.1c-0.3,2-0.7,3.9-1.1,5.9c-0.4,1.9-0.7,3.9-1.2,5.8
						c-0.1,0.2-0.1,0.4-0.1,0.6l0,0c-0.6,2.3-1.2,4.6-1.9,6.9c-1.5,5.3-3,10.6-4.6,15.8c-0.3,0.8-0.7,2.2-1.3,2
						c-0.7-0.2-0.8-1.3-0.4-2.7c1-3.5,2.2-6.9,3-10.4c0.6-2.6,1.3-5.1,2-7.6c0.7-2.5,1.4-5,1.9-7.6l1.3-6.9c0.4-2.3,0.7-4.7,1-7
						l0.8-6.6c0.2-2.2,0.4-4.4,0.5-6.6c0.3-3.8,0.6-7.6,0.7-11.4c0-0.9,0-1.9-0.2-2.7l0,0c0.3-1-0.3-2.2,0.1-3.3l0,0
						c0-0.4,0-0.7,0-1.1c-0.2-1.6,0-2,0.8-1.5c0.2,0.1,0.4,0,0.5,0.3l0,0l0,0c0.6,1,0.4,2.4,0.4,3.6c0.2,5.9,0,11.8-0.4,17.6
						c-0.2,3.6-0.8,7.2-1.2,10.8C1330.3,325.5,1330.2,326.5,1330,327.5L1330,327.5z"/>
				</g>
			</g>
		</g>
		<g>
			<g>
				<g>
					<path class="st0" d="M1265.3,287.2c0.9,0.3,1.8,0.5,2.6,0.9l9.6,3.7c0.2,0.1,0.3,0.1,0.5,0.1l0,0l5.8,2.2
						c4.5,1.7,9.1,3.3,13.3,5.8c0.7,0.4,1.8,1.1,1.4,1.6c-0.4,0.6-1.3,0.5-2.4-0.1c-2.7-1.5-5.5-2.9-8.5-3.9
						c-4.3-1.5-8.6-3.2-12.9-4.8c-3.9-1.4-7.7-3-11.6-4.3c-3.6-1.4-7.4-1.9-11.2-3c-1.6-0.5-3.3-1-4.8-1.8c-1.6-0.7-3-1.7-4.4-2.6
						c-0.7-0.5-1.3-1-2.1-1.2l0,0c-0.6-0.8-1.8-1-2.2-1.9l0,0c-0.2-0.2-0.5-0.4-0.7-0.6c-1.1-0.8-1.3-1.2-0.4-1.5
						c0.2-0.1,0.2-0.3,0.6-0.2l0,0l0,0c1.1,0.2,1.8,1.1,2.6,1.7c2,1.5,4.1,3,6.3,4.1c2.2,1.1,4.6,1.8,7,2.5c3,0.8,6.1,1.4,9.1,2.5
						C1263.7,286.7,1264.5,286.8,1265.3,287.2L1265.3,287.2z"/>
				</g>
			</g>
		</g>
		<g>
			<g>
				<g>
					<path class="st0" d="M1304.5,298.9c0.1,0,0.2,0,0.2,0l0,0l0.8,0.2c0.7,0.2,1.3,0.4,2,0.6c0.1,0,0.1,0,0.2,0l0,0
						c0.8,0.3,1.6,0.6,2.3,0.9c1.8,0.7,3.5,1.7,5,2.9c0.2,0.2,0.6,0.5,0.2,1c-0.4,0.6-0.9,0.7-1.3,0.4c-0.9-0.7-1.9-1.5-3-1.9
						c-1.6-0.6-3.2-1.4-4.9-1.8c-0.4-0.1-0.8-0.2-1.1-0.3l-0.6-0.1c-0.1,0-0.3-0.1-0.5-0.1l-0.5-0.1l-0.5-0.1l-0.3-0.1l-0.2-0.1
						l-0.7-0.3c-0.4-0.2-0.6-0.5-0.8-1c-0.1-0.3,0-0.5,0.1-0.7c0-1.1,4-2,4.8-2c1.4-0.1,2.8,0.2,4.1,0.5c0.3,0.1,0.6,0.1,1-0.1l0,0
						c0.3,0.4,0.8-0.1,1.1,0.4l0,0c0.1,0,0.2,0.1,0.3,0.1c0.5,0,0.6,0.3,0.3,1c-0.1,0.2-0.1,0.4-0.2,0.5l0,0l0,0
						c-0.5,0.4-0.8,0.1-1.2,0.1c-1.9-0.3-3.8-0.5-5.7-0.3l-0.4,0.1c-0.1,0-0.3,0.1-0.3,0c0,0-0.1,0-0.2,0c-0.1,0-0.2,0.1-0.2,0.1
						c0,0,0,0,0,0C1304.3,298.9,1304.6,298.8,1304.5,298.9L1304.5,298.9z"/>
				</g>
			</g>
		</g>
		<g>
			<g>
				<g>
					<path class="st0" d="M1306.2,305.6c-0.1,0-0.3,0-0.4-0.1l-1.3-0.5c0,0-0.1,0-0.1,0l0,0c-0.3-0.1-0.5-0.2-0.8-0.3
						c-0.6-0.2-1.2-0.4-1.8-0.8c-0.1-0.1-0.3-0.1,0-0.8c0.2-0.7,0.5-1,0.6-0.9c0.4,0.2,0.8,0.5,1.2,0.5c0.7,0,1.2,0.4,1.9,0.5
						c0.6,0.2,1.1,0.4,1.6,0.6c0.5,0.2,1.1,0.2,1.6,0.5c0.4,0.2,0.8,0.5,1.2,0.8c0.1,0.1,0.2,0.1,0.4-0.1l0,0c0,0.3,0.4-0.1,0.3,0.3
						l0,0c0,0,0.1,0.1,0.1,0.1c0.2,0,0.2,0.2-0.2,0.9c-0.1,0.1-0.2,0.4-0.3,0.4l0,0l0,0c-0.3,0.4-0.4,0.1-0.5,0.1
						c-0.7-0.3-1.3-0.5-2-0.8c-0.4-0.2-0.8-0.3-1.2-0.4C1306.4,305.7,1306.3,305.7,1306.2,305.6L1306.2,305.6z"/>
				</g>
			</g>
		</g>
		<g>
			<g>
				<g>
					<path class="st0" d="M1306.6,332.1c0,0.7,0.1,1.5,0.1,2.2l0,8.5c0,0.1,0,0.3,0.1,0.4l0,0l0.1,5.1c0.1,4,0.2,7.9,0.1,11.9
						c0,0.6,0,1.7-0.7,1.7c-0.7,0-1.1-0.7-1.1-1.8c0-2.6,0.1-5.2-0.1-7.8c-0.3-3.8-0.2-7.6-0.3-11.4l-0.1-10.2
						c-0.1-3.2-0.2-6.4-0.2-9.6c0-2.8,0.2-5.5,0.3-8.3c0-0.6,0.1-1.3-0.2-2l0,0c0.3-0.7-0.3-1.6,0.2-2.4l0,0c0-0.3,0.1-0.5,0-0.8
						c-0.1-1.1,0.1-1.4,0.9-1c0.2,0.1,0.4,0,0.5,0.3l0,0l0,0c0.5,0.8,0.3,1.7,0.3,2.6l0,12.6c0,2.6,0,5.2,0.1,7.7
						C1306.5,330.7,1306.6,331.4,1306.6,332.1L1306.6,332.1z"/>
				</g>
			</g>
		</g>
		<g>
			<g>
				<g>
					<path class="st0" d="M1312.2,366.9c-0.2,0-0.3,0-0.5-0.1c-0.6-0.2-1.2-0.5-1.8-0.8c0,0-0.1,0-0.1,0l0,0l-1-0.5
						c-0.8-0.4-1.6-0.8-2.3-1.4c-0.1-0.1-0.3-0.2,0-0.8c0.4-0.6,0.7-0.9,0.9-0.7c0.4,0.3,0.9,0.7,1.4,0.9c0.8,0.2,1.5,0.6,2.2,0.9
						c0.7,0.3,1.3,0.5,2,0.7c0.7,0.2,1.3,0.2,2,0.4c0.6,0.2,1.1,0.5,1.7,0.6c0.1,0,0.3,0.1,0.4-0.1l0,0c0.1,0.3,0.4-0.2,0.5,0.3v0
						c0.1,0,0.1,0.1,0.2,0.1c0.3-0.1,0.3,0.2,0.1,0.9c0,0.2-0.1,0.4-0.1,0.5l0,0l0,0c-0.3,0.5-0.4,0.2-0.6,0.2
						c-0.9-0.1-1.9-0.3-2.8-0.6c-0.6-0.1-1.1-0.3-1.7-0.4C1312.5,367,1312.3,367,1312.2,366.9L1312.2,366.9z"/>
				</g>
			</g>
		</g>
		<g>
			<g>
				<g>
					<path class="st0" d="M1308.5,373.1c0,0.2,0.1,0.4,0,0.6c-0.1,0.7-0.2,1.5-0.3,2.2c0,0,0,0.1,0,0.1l0,0l-0.3,1.3
						c-0.2,1-0.5,1.9-1,2.8c-0.1,0.1-0.2,0.4-0.8,0.2c-0.7-0.2-1-0.5-0.9-0.7c0.2-0.6,0.6-1.1,0.6-1.8c0.1-0.9,0.4-1.8,0.5-2.6
						c0.1-0.8,0.2-1.6,0.2-2.3c0-0.7-0.2-1.4-0.3-2.1c-0.1-0.6-0.1-1.4-0.1-2.1c0-0.2,0-0.4-0.2-0.5l0,0c0.3-0.2-0.3-0.5,0.2-0.7
						l0,0c0-0.1,0.1-0.1,0.1-0.2c-0.1-0.3,0.2-0.4,0.9-0.2c0.2,0,0.4,0.1,0.5,0.1l0,0l0,0c0.5,0.2,0.2,0.4,0.2,0.6
						c0,0.9,0.2,1.8,0.4,2.9c0.1,0.7,0.1,1.3,0.2,2C1308.5,372.7,1308.6,372.9,1308.5,373.1L1308.5,373.1z"/>
				</g>
			</g>
		</g>
		<g>
			<g>
				<g>
					<path class="st0" d="M1319,373.4c0,0.1,0.1,0.2,0.1,0.2c0,0.3,0,0.6,0.1,0.9c0,0,0,0,0.1,0l0,0c0,0.2,0,0.4,0.1,0.5
						c0.1,0.4,0.2,0.8,0.2,1.3c0,0.1,0,0.2-0.6,0.4c-0.7,0.3-1.1,0.3-1.1,0.2c-0.1-0.3,0-0.7-0.2-1c-0.3-0.4-0.3-0.9-0.4-1.4
						c-0.1-0.4-0.1-0.9-0.1-1.3c0-0.4-0.2-0.8-0.2-1.2c0-0.4,0.3-0.7,0.4-1c0-0.1,0.1-0.2-0.2-0.3l0,0c0.3,0-0.2-0.3,0.2-0.3l0,0
						c0,0,0.1-0.1,0.1-0.1c-0.1-0.2,0.2-0.1,0.9,0.1c0.2,0,0.4,0.1,0.5,0.1l0,0l0,0c0.5,0.2,0.2,0.2,0.2,0.3c0,0.5-0.1,0.9-0.1,1.4
						c0,0.3,0,0.6,0.1,0.8C1319,373.2,1319.1,373.3,1319,373.4L1319,373.4z"/>
				</g>
			</g>
		</g>
		<g>
			<g>
				<g>
					<path class="st0" d="M1313.6,382.1c-0.2,0.1-0.3,0.2-0.5,0.3c-0.7,0.2-1.4,0.4-2.1,0.6c0,0-0.1,0.1-0.1,0.1l0,0
						c-0.4,0.1-0.9,0.1-1.3,0.2c-1,0.2-2.2,0.1-3.2-0.2c-0.2-0.1-0.4-0.1-0.3-0.8c0.2-0.7,0.4-1.1,0.6-1c0.5,0.2,1.1,0.4,1.7,0.2
						c0.8-0.2,1.7-0.3,2.5-0.5c0.7-0.2,1.5-0.5,2.2-0.8c0.7-0.3,1.3-0.8,2-1.1c0.6-0.3,1.3-0.4,1.9-0.6c0.1-0.1,0.3-0.1,0.3-0.4l0,0
						c0.3,0.2,0.1-0.4,0.5-0.1l0,0c0,0,0.1,0,0.1-0.1c0.1-0.2,0.3-0.1,0.8,0.6c0.1,0.1,0.3,0.3,0.3,0.4l0,0l0,0
						c0.2,0.5-0.2,0.5-0.4,0.6c-1,0.7-1.9,1.1-2.8,1.5c-0.6,0.3-1.2,0.5-1.7,0.8C1313.9,382,1313.8,382.1,1313.6,382.1L1313.6,382.1
						z"/>
				</g>
			</g>
		</g>
		<g>
			<g>
				<g>
					<path class="st0" d="M1335.3,382.9c0.4,0.1,0.8,0.1,1.2,0.2c1.4,0.3,2.9,0.6,4.3,0.7c0.1,0,0.2,0,0.2,0l0,0
						c0.9,0.1,1.8,0.2,2.8,0.4c1.1,0.2,2.4,0.6,3.3,1.6c0.9,0.9,1.6,2.2,1.5,3.6c0,0.4-0.3,1.2-0.9,0.9c-0.6-0.3-0.9-0.7-0.9-1
						c0.1-0.9-0.6-2.2-1.6-2.6c-1.6-0.7-3.6-0.7-5.6-1c-1.8-0.2-3.6-0.6-5.4-1c-1.7-0.4-3.4-0.7-5-1.3c-1.4-0.5-2.7-1.3-4-2
						c-0.3-0.2-0.6-0.4-1-0.3l0,0c-0.2-0.5-0.9-0.2-1-0.8v0c-0.1-0.1-0.2-0.2-0.3-0.2c-0.6-0.2-0.6-0.5-0.1-1.1
						c0.1-0.1,0.2-0.3,0.4-0.4l0,0l0,0c0.6-0.3,0.9,0.2,1.3,0.4c2,1,4,1.8,6.1,2.5c1.3,0.4,2.6,0.9,3.9,1.1
						C1334.6,382.8,1335,382.8,1335.3,382.9L1335.3,382.9z"/>
				</g>
			</g>
		</g>
		<g>
			<g>
				<g>
					<path class="st0" d="M1327,395.3c-0.5,0.1-1.1,0.1-1.6,0.1c-2,0.1-4,0.1-6,0.1c-0.1,0-0.2,0-0.3,0.1l0,0l-3.6-0.1
						c-1.4,0-2.8-0.1-4.3-0.3c-1.4-0.2-2.9-0.7-4.2-1.5c-0.4-0.3-1.1-0.7-0.7-1.3c0.4-0.6,1-0.6,1.6-0.3c1.4,0.8,3.2,1.3,4.9,1.4
						c2.6,0,5.3,0.1,7.9,0c2.4-0.1,4.7-0.1,7.1-0.3c2.2-0.2,4.4-0.5,6.6-0.8c1.9-0.2,3.8-0.3,5.8-0.5c0.5,0,0.9-0.1,1.3-0.4l0,0
						c0.6,0.2,1.1-0.4,1.6-0.1l0,0c0.2,0,0.4,0,0.5-0.1c0.8-0.2,1,0,0.9,0.8c0,0.2,0.1,0.4-0.1,0.5l0,0l0,0
						c-0.4,0.6-1.1,0.5-1.7,0.6c-2.9,0.5-5.9,0.9-8.8,1.3c-1.8,0.2-3.6,0.3-5.4,0.5C1328,395.2,1327.5,395.3,1327,395.3L1327,395.3z
						"/>
				</g>
			</g>
		</g>
		<g>
			<g>
				<g>
					<path class="st0" d="M1306.4,386.8c0,0.1,0.1,0.2,0.1,0.3l0,1c0,0,0,0,0.1,0l0,0c0,0.2,0,0.4,0,0.6c0,0.5,0,0.9-0.2,1.4
						c0,0.1,0,0.2-0.7,0.2c-0.7,0-1.1,0-1.1-0.2c0.1-0.3,0.2-0.6,0.1-0.9c-0.2-0.4-0.1-0.9-0.1-1.4c0-0.4,0-0.8,0-1.2
						c0-0.4-0.2-0.8-0.2-1.2c0-0.3,0.2-0.7,0.2-1c0-0.1,0.1-0.2-0.2-0.2l0,0c0.3-0.1-0.3-0.2,0.2-0.3l0,0c0,0,0.1-0.1,0-0.1
						c-0.1-0.1,0.1-0.2,0.9-0.1c0.2,0,0.4,0,0.5,0l0,0l0,0c0.5,0.1,0.3,0.2,0.3,0.3c0.1,0.5,0.1,1,0.1,1.5c0,0.3,0,0.6,0.1,0.9
						C1306.3,386.6,1306.4,386.7,1306.4,386.8L1306.4,386.8z"/>
				</g>
			</g>
		</g>
		<g>
			<g>
				<g>
					<path class="st0" d="M1240.8,286c0.4,0.1,0.8,0.2,1.1,0.3c1.4,0.4,2.9,0.6,4.5,0.8c0.1,0,0.2,0,0.2,0l0,0
						c0.9,0.1,1.9,0.1,2.8,0.1c2.1,0,4.3-0.3,6.4-0.5c0.3,0,0.9-0.2,1,0.5c0.2,0.7-0.2,1.2-0.8,1.3c-1.5,0.2-3,0.3-4.4,0.5
						c-2.2,0.3-4.3,0.2-6.5,0c-2-0.2-3.9-0.6-5.8-1.4c-1.8-0.7-3.6-1.7-4.7-3.5c-1-1.5-1.4-3.2-1.4-5c0-0.4,0.1-0.8-0.1-1.3l0,0
						c0.2-0.2,0.2-0.5,0.2-0.8c0-0.3,0.1-0.5,0.4-0.7l0,0c0.1-0.1,0.2-0.3,0.3-0.4c0.3-0.7,0.6-0.7,1.1-0.1c0.1,0.1,0.3,0.2,0.3,0.4
						l0,0l0,0c0.2,0.6-0.2,0.8-0.3,1.2c-0.6,1.9,0.1,4.2,1.4,5.8c0.8,1,1.9,1.8,3.2,2.3C1240.1,285.7,1240.5,285.8,1240.8,286
						L1240.8,286z"/>
				</g>
			</g>
		</g>
		<g>
			<g>
				<g>
					<path class="st0" d="M1264,298.3c0.1,0.3,0.2,0.5,0.3,0.8l0.9,3c0,0.1,0.1,0.1,0.1,0.1l0,0c0.2,0.6,0.3,1.2,0.5,1.8
						c0.4,1.4,0.9,2.8,1.1,4.3c0,0.2,0.1,0.6-0.5,0.8c-0.7,0.2-1.1,0.1-1.2-0.3c-0.2-0.9-0.4-1.9-0.8-2.8c-0.6-1.3-0.9-2.7-1.4-4
						c-0.4-1.2-0.7-2.4-1.1-3.6c-0.4-1.1-0.9-2.2-1.2-3.4c-0.3-1-0.4-2-0.7-3c-0.1-0.2-0.1-0.5-0.4-0.6l0,0c0.2-0.4-0.4-0.5-0.1-0.9
						l0,0c0-0.1,0-0.2-0.1-0.3c-0.2-0.4,0-0.5,0.8-0.6c0.2,0,0.4-0.1,0.5-0.1l0,0l0,0c0.6,0.1,0.4,0.5,0.6,0.8c0.5,1.5,1,3,1.5,4.5
						c0.3,0.9,0.5,1.8,0.9,2.7C1263.8,297.9,1264,298.1,1264,298.3L1264,298.3z"/>
				</g>
			</g>
		</g>
		<g>
			<g>
				<g>
					<path class="st0" d="M1313.4,185.7c0.4,0,0.8,0,1.2,0.1c1.5,0.2,3,0.4,4.6,0.6c0.1,0,0.2,0,0.2,0l0,0c0.9,0.1,1.8,0.2,2.7,0.3
						c2.1,0.1,4.2,0.2,6.3,0.2c0.3,0,0.9,0,0.9,0.6c0.1,0.7-0.3,1.1-0.9,1.2c-1.5,0-2.9-0.1-4.3,0c-2.1,0.1-4.2-0.2-6.3-0.4
						c-1.9-0.2-3.7-0.5-5.5-0.7c-1.7-0.2-3.5-0.3-5.2-0.5c-1.5-0.2-3-0.6-4.4-0.9c-0.3-0.1-0.7-0.2-1.1,0.1l0,0
						c-0.4-0.4-0.9,0.1-1.2-0.4l0,0c-0.1,0-0.3-0.1-0.4-0.1c-0.6,0-0.8-0.2-0.4-1c0.1-0.2,0-0.4,0.2-0.5l0,0l0,0
						c0.5-0.5,1-0.1,1.4-0.1l6.8,0.9c1.4,0.2,2.8,0.4,4.2,0.5C1312.7,185.6,1313,185.5,1313.4,185.7L1313.4,185.7z"/>
				</g>
			</g>
		</g>
		<g>
			<g>
				<g>
					<path class="st0" d="M1329.5,197.2c0,0.2,0,0.4,0,0.6c-0.1,0.8-0.2,1.5-0.3,2.3c0,0,0,0.1,0,0.1l0,0c-0.1,0.5-0.1,0.9-0.2,1.4
						c-0.1,1.1-0.2,2.1-0.5,3.2c-0.1,0.2-0.1,0.4-0.8,0.4c-0.7-0.1-1.1-0.3-1-0.6c0.1-0.7,0.4-1.4,0.3-2.1c-0.1-1,0.1-2.1,0.2-3.1
						c0.1-0.9,0.2-1.8,0.2-2.8c0.1-0.9,0-1.7,0.1-2.6c0.1-0.7,0.3-1.5,0.5-2.2c0-0.2,0.1-0.4-0.2-0.5l0,0c0.3-0.2-0.2-0.5,0.3-0.6
						l0,0c0-0.1,0.1-0.1,0.1-0.2c-0.1-0.3,0.2-0.4,0.9-0.2c0.2,0,0.4,0,0.5,0.1c0,0,0,0,0,0l0,0c0.5,0.3,0.2,0.5,0.2,0.7
						c-0.1,1.1-0.2,2.3-0.3,3.4c-0.1,0.7-0.2,1.4-0.1,2.1C1329.5,196.9,1329.6,197.1,1329.5,197.2L1329.5,197.2z"/>
				</g>
			</g>
		</g>
		<g>
			<g>
				<g>
					<path class="st0" d="M1316.6,207.3c-0.3,0-0.7,0.1-1,0c-1.2,0-2.5-0.1-3.7-0.2c-0.1,0-0.1,0-0.2,0l0,0l-2.3-0.2
						c-1.7-0.1-3.5-0.4-5.2-1c-0.3-0.1-0.7-0.2-0.5-0.9c0.2-0.7,0.6-1,1-0.9c1.1,0.3,2.1,0.7,3.2,0.7c1.6,0,3.2,0.3,4.8,0.3
						c1.5,0,2.9,0.1,4.4,0.1c1.4,0,2.8,0,4.2,0.1c1.2,0.1,2.4,0.4,3.6,0.5c0.3,0,0.6,0.1,0.9-0.2l0,0c0.3,0.3,0.7-0.2,1,0.2l0,0
						c0.1,0,0.2,0.1,0.3,0c0.5-0.1,0.6,0.2,0.4,0.9c0,0.2,0,0.4-0.1,0.5l0,0l0,0c-0.4,0.5-0.8,0.2-1.1,0.2c-1.8-0.1-3.7-0.2-5.5-0.3
						c-1.1-0.1-2.2-0.2-3.3-0.1C1317.2,207.2,1316.9,207.3,1316.6,207.3L1316.6,207.3z"/>
				</g>
			</g>
		</g>
		<g>
			<g>
				<g>
					<path class="st0" d="M1334.5,178.6c-0.2-0.5-0.5-1-0.7-1.6c-0.7-2-1.3-4.1-1.8-6.1c0-0.1-0.1-0.2-0.1-0.3l0,0
						c-0.3-1.2-0.6-2.5-0.9-3.7c-0.8-2.8-1.6-5.5-2.7-8.1c-0.2-0.4-0.5-1.1,0.1-1.4c0.6-0.3,1.2,0,1.6,0.7c0.8,1.8,1.3,3.7,2,5.5
						c1,2.7,1.6,5.4,2.3,8.1c0.7,2.4,1.4,4.7,2.4,7c0.9,2.2,2,4.3,2.7,6.7c0.2,0.6,0.3,1.2,0.4,1.8c0,0.2,0,0.3,0.1,0.5l0.1,0.6
						c0.1,0.6-0.1,1.1-0.4,1.5c-0.3,0.3-0.6,0.4-1,0.5c-0.2,0-0.4,0-0.6,0.1l-0.4,0l-1.3,0c-0.5,0-1,0-1.4,0.3l0,0
						c-0.6-0.3-1.2,0.3-1.7-0.1l0,0c-0.2,0-0.4,0-0.6,0c-0.8,0.2-1.1-0.1-0.8-0.9c0.1-0.2,0-0.4,0.2-0.5l0,0l0,0
						c0.5-0.6,1.2-0.4,1.9-0.4l2.5-0.2l1.2-0.1l0.3,0c0,0,0.1,0,0.1-0.1c0.1-0.1,0-0.2,0-0.3c-0.1-0.3-0.1-0.7-0.2-1
						c-0.2-0.7-0.3-1.4-0.5-2c-0.6-1.8-1.3-3.5-2.1-5.2C1334.9,179.5,1334.6,179.1,1334.5,178.6L1334.5,178.6z"/>
				</g>
			</g>
		</g>
		<g>
			<g>
				<g>
					<path class="st0" d="M1345.9,175.5c0.2,0.5,0.5,1.1,0.7,1.6l2.5,6.2c0,0.1,0.1,0.2,0.2,0.3l0,0c0.5,1.3,1,2.5,1.6,3.8
						c0.6,1.4,1.3,2.8,1.8,4.5c0.5,1.6,0.6,3.6-0.3,5.3c-0.2,0.5-0.9,1.4-1.4,0.9c-0.5-0.5-0.5-1.1-0.2-1.7c0.7-1.5,0.4-3.6-0.5-5.4
						c-1.3-2.7-2.4-5.5-3.6-8.3c-1.1-2.5-2-5-3.1-7.5c-1-2.3-2-4.7-2.9-7c-0.8-2-1.4-4.2-2.1-6.2c-0.2-0.5-0.3-1-0.7-1.4l0,0
						c0.1-0.7-0.7-1.1-0.5-1.8l0,0c-0.1-0.2-0.1-0.4-0.2-0.6c-0.4-0.8-0.3-1.1,0.6-1.1c0.2,0,0.4-0.1,0.6,0l0,0l0,0
						c0.7,0.4,0.7,1.2,1,1.8l3.6,9.3c0.7,1.9,1.5,3.8,2.3,5.7C1345.4,174.4,1345.7,174.9,1345.9,175.5L1345.9,175.5z"/>
				</g>
			</g>
		</g>
		<g>
			<g>
				<g>
					<path class="st0" d="M1340.7,201.8c-0.3,0.1-0.5,0.2-0.8,0.2c-1,0.2-2,0.3-2.9,0.4c0,0-0.1,0.1-0.1,0.1l0,0
						c-0.6,0.1-1.2,0.2-1.8,0.3c-1.4,0.2-2.7,0.5-4.1,0.5c-0.2,0-0.6,0.1-0.7-0.6c-0.1-0.7,0.1-1.1,0.4-1.2c0.9-0.1,1.8-0.1,2.7-0.3
						c1.3-0.4,2.6-0.5,3.9-0.8c1.2-0.2,2.4-0.4,3.5-0.6c1.1-0.2,2.2-0.5,3.3-0.7c1-0.1,1.9-0.1,2.9-0.2c0.2,0,0.5,0,0.6-0.3l0,0
						c0.3,0.3,0.5-0.4,0.8,0.1l0,0c0.1,0,0.2,0,0.3,0c0.4-0.2,0.5,0,0.5,0.8c0,0.2,0.1,0.4,0,0.5c0,0,0,0,0,0l0,0
						c-0.2,0.6-0.5,0.4-0.8,0.4c-1.4,0.3-2.9,0.5-4.4,0.8c-0.9,0.2-1.8,0.3-2.7,0.5C1341.1,201.7,1340.9,201.8,1340.7,201.8
						L1340.7,201.8z"/>
				</g>
			</g>
		</g>
		<g>
			<g>
				<g>
					<path class="st0" d="M1323.1,155.5c-0.1,0-0.2,0-0.3-0.1l-0.6-0.3c-0.1-0.1-0.2-0.1-0.4-0.2c-0.2-0.1-0.3-0.2-0.5-0.4
						c0,0-0.1,0-0.1-0.1l0,0c-0.3-0.4-0.5-0.9-0.5-1.4c0-0.7,0-1.2,0.2-1.8c0-0.1,0-0.2,0.7-0.2c0.7,0,1.1,0.1,1.1,0.3
						c-0.1,0.4-0.2,0.8-0.1,1.1c0.1,0.3,0.1,0.6,0.1,0.6c0,0.1,0,0.1,0.1,0.1l0.5,0.2c0.2,0.1,0.5,0.2,0.7,0.3
						c0.4,0.2,0.9,0.2,1.4,0.4c0.4,0.2,0.7,0.5,1,0.7c0.1,0.1,0.2,0.1,0.3-0.1l0,0c0,0.3,0.3-0.1,0.2,0.3l0,0c0,0,0,0.1,0.1,0.1
						c0.2,0,0.1,0.2-0.2,0.9c-0.1,0.2-0.2,0.4-0.2,0.5l0,0l0,0c-0.3,0.4-0.3,0.1-0.5,0.1c-0.6-0.2-1.1-0.4-1.7-0.7
						c-0.4-0.1-0.7-0.3-1.1-0.4C1323.3,155.5,1323.1,155.6,1323.1,155.5L1323.1,155.5z"/>
				</g>
			</g>
		</g>
		<g>
			<g>
				<g>
					<path class="st2" d="M1354.8,146.7C1354.9,146.7,1354.8,146.7,1354.8,146.7c-0.1-0.1-0.1-0.1-0.1-0.1c0,0,0.1,0-0.2-0.1
						l-10.8-4.2c-0.2-0.1-0.4-0.1-0.6-0.2l0,0l-4.1-1.6l-0.6-0.1c-0.5-0.1-0.3-0.1-0.4-0.1c-0.1,0-0.5,0.1-0.9,0.2
						c-2.6,0.8-5,1.7-7.5,2.8l-0.9,0.4l-0.4,0.2l0,0l-0.1,0.1l-0.2,0.1l-1.7,1.1c-1.1,0.7-2.3,1.5-3.3,2.2c-0.3,0.2-0.8,0.6-1.1,0.8
						c0,0-0.1,0-0.1,0l0,0c0,0-0.1-0.1-0.2-0.1c-0.1,0-0.2-0.1-0.3-0.1c0,0-0.1,0-0.1,0c0,0,0,0,0.1-0.1c0-0.1,0-0.1,0-0.2
						c0,0,0,0,0-0.1c0,0,0,0,0,0l0,0.1c0,0.1,0,0.1,0,0.2c0,0.2,0,0.4-0.2,0.5c-0.1,0-0.1,0.1-0.3,0c-0.2-0.1-0.2-0.3-0.2-0.5
						c0-0.1,0-0.2,0-0.3c0-0.1,0-0.1,0.1-0.2c0.2-0.6,0.7-1,1.3-1.5c1.5-1.1,3-2.1,4.5-3l0.6-0.4c0.1-0.1,0.2-0.1,0.3-0.2l0.3-0.2
						l1.2-0.6l2.5-1.1c1.2-0.6,2.5-1,3.8-1.5c0.7-0.2,1.2-0.4,2-0.6c0.4-0.1,0.9-0.2,1.4,0c0.1,0,0.1,0,0.2,0.1c0,0,0,0,0,0l0.2,0
						l0.5,0.1l7.2,2.8l6.5,2.5l1.6,0.6l0.4,0.2c0.1,0.1,0.5,0.2,0.7,0.3c0.5,0.3,0.8,0.6,1.1,1c0.4,0.7,0.9,1.8-0.1,2l-0.5,0.3
						c-0.2,0.1-0.5,0.1-0.7,0.2l-0.7,0.2c-0.1,0-0.3,0.1-0.4,0.1c-4.5,0.9-9,0.6-13.4,0.3c-3.7-0.3-7.5-0.5-11.2-0.5
						c-0.9,0-1.8,0-2.7,0.3l0,0c-1-0.3-2.2,0.4-3.2,0l0,0c-0.3,0-0.7,0-1,0.1c-1.5,0.3-2,0.1-1.5-0.8c0.1-0.2-0.1-0.4,0.3-0.5l0,0
						l0,0c1-0.6,2.3-0.5,3.5-0.6c5.8-0.5,11.7-0.4,17.5,0.1c3.5,0.2,7,0.5,10.4-0.1c0.5-0.1,0.9-0.2,1.4-0.3
						C1354.8,146.7,1354.7,146.7,1354.8,146.7L1354.8,146.7z"/>
				</g>
			</g>
			<path class="st2" d="M1321.4,148.3c6.1-0.6,12.3-0.8,18.4-0.4c5.6,0.4,11.4,1.1,16.9-0.6c-0.2-1-1.2-1.5-2-1.9
				c-5.1-2-10.2-3.9-15.4-5.9l-0.8-0.2c-0.5-0.2-1-0.1-1.5,0c-3.2,0.9-6.3,2.1-9.3,3.7C1327.8,143.1,1319.4,148.5,1321.4,148.3z"/>
		</g>
		<g>
			<g>
				<g>
					<path class="st3" d="M1335.9,142.1c0.2,0,0.4,0,0.7,0.1l2.5,0.6c0,0,0.1,0,0.1,0l0,0c0.5,0.1,1,0.3,1.5,0.4
						c1.2,0.2,2.3,0.5,3.4,1c0.2,0.1,0.5,0.2,0.3,0.8c-0.2,0.7-0.5,1-0.8,0.9c-0.7-0.2-1.5-0.6-2.2-0.6c-1.1-0.1-2.2-0.4-3.4-0.6
						c-1-0.2-2-0.5-3-0.7c-0.9-0.2-1.9-0.3-2.9-0.6c-0.8-0.2-1.6-0.7-2.3-1c-0.2-0.1-0.4-0.2-0.6,0v0c-0.1-0.4-0.6,0.1-0.6-0.5v0
						c-0.1,0-0.1-0.1-0.2-0.1c-0.4,0-0.4-0.3,0.1-1c0.1-0.1,0.2-0.4,0.3-0.4l0,0l0,0c0.4-0.4,0.6,0,0.8,0c1.1,0.4,2.3,0.8,3.5,1.1
						c0.7,0.2,1.5,0.4,2.2,0.5C1335.5,142,1335.7,142,1335.9,142.1L1335.9,142.1z"/>
				</g>
			</g>
		</g>
		<g>
			<g>
				<g>
					<path class="st2" d="M1345.6,148.2c0.6-0.2,1.2-0.4,1.8-0.5l2.3-0.5l0.2,2.2l-4.8-0.1c-0.1,0-0.2,0-0.4,0l0,0l-4.3-0.1
						c-3.3-0.1-6.6-0.1-10-0.4c-0.5,0-1.4-0.1-1.4-0.7c0-0.7,0.6-1.1,1.5-1.1c2.2,0.1,4.4,0.3,6.6,0.3c3.2-0.1,6.4,0.1,9.5,0.1
						l3.2,0.1l7.3,0.1l-7.1,1.7l-5.3,1.3c-2.6,0.6-5.2,1.3-7.9,1.8c-1.1,0.2-2.3,0.4-3.4,0.5l-3.7,0.5c-0.5,0-0.9-0.1-1.2-0.4
						c-0.3-0.3-0.5-0.7-0.6-1.2l0,0c0-0.4,0.1-0.5,0.1-0.7c0-0.2,0-0.4-0.1-0.5c-0.1-0.4-0.1-0.7,0.2-1l0,0c0-0.2,0.1-0.4,0.1-0.7
						c0-1,0.3-1.2,1-0.8c0.2,0.1,0.4,0,0.5,0.3l0,0l0,0c0.5,0.7,0.2,1.4,0.2,2.1l0,0.6l0,0.3l0,0.1c0,0.1,0.1,0.2,0.2,0.2l2.3-0.4
						c1.7-0.3,3.5-0.6,5.2-1c2.1-0.4,4.2-0.8,6.3-1.4C1344.4,148.5,1345,148.3,1345.6,148.2L1345.6,148.2z"/>
				</g>
			</g>
		</g>
		<g>
			<g>
				<g>
					<path class="st0" d="M1363.7,272.8c-0.4,0.2-0.7,0.3-1.1,0.5c-0.5,0.1-1,0.3-1.5,0.4c-0.5,0.1-0.8,0.2-0.7,0.2c0,0,0,0,0,0
						c0,0.1,0,0.2,0,0.3c0,0,0.1,0.1,0.1,0.1l0,0c0.1,0.3,0.2,0.8,0.3,1.2l0.4,1.2c0.6,1.9,1.1,3.8,1.5,5.8c0.1,0.3,0.2,0.8-0.5,1
						c-0.7,0.2-1.2,0-1.3-0.6c-0.3-1.3-0.5-2.6-1-3.8c-0.4-0.9-0.6-1.8-0.9-2.7l-0.4-1.4c-0.1-0.5-0.3-1.1,0-2
						c0.1-0.2,0.2-0.4,0.4-0.6c0.2-0.3,0.6-0.5,0.9-0.6c0.3-0.1,0.5-0.1,0.7-0.2c0.4-0.1,0.7-0.1,1.1-0.2c0.7-0.2,1.4-0.4,2.1-0.8
						c1.4-0.7,2.5-1.6,3.6-2.6c0.2-0.2,0.5-0.4,0.6-0.6c0.2-0.2,0.3-0.3,0.3-0.5c0.1-0.3,0.1-1,0-1.7c0-0.3-0.1-0.7-0.4-0.9l0,0
						c0.2-0.4-0.4-0.8,0-1.2l0,0c0-0.1,0-0.3,0-0.4c-0.2-0.5,0-0.7,0.8-0.7c0.2,0,0.4-0.1,0.5,0l0,0l0,0c0.6,0.3,0.4,0.8,0.5,1.2
						l0.3,1.6c0.1,0.5,0.2,1,0.2,1.7c0,0.3,0,0.7-0.2,1.1c-0.1,0.4-0.3,0.7-0.5,0.9c-0.4,0.5-0.8,0.8-1.2,1.2
						c-1,0.9-2.2,1.7-3.4,2.3C1364.4,272.5,1364,272.7,1363.7,272.8L1363.7,272.8z"/>
				</g>
			</g>
		</g>
		<g>
			<g>
				<g>
					<path class="st0" d="M1373.8,299c0.2,0.5,0.4,1,0.6,1.6l2,6.1c0,0.1,0.1,0.2,0.2,0.3l0,0l1.2,3.7l0.9,2.6l0.4,1.3
						c0.1,0.2,0.2,0.4,0.2,0.9c0.1,0.4,0,0.9-0.2,1.3c-0.1,0.2-0.3,0.5-0.5,0.6c-0.1,0.1-0.2,0.2-0.3,0.2l-0.2,0.1
						c-0.3,0.1-0.6,0.3-0.9,0.4c-0.6,0.2-1.2,0.4-1.8,0.5c-0.5,0.1-1.3,0.2-1.4-0.5c-0.1-0.7,0.4-1.2,1.1-1.3c0.5-0.1,1-0.3,1.5-0.4
						c0.2-0.1,0.5-0.2,0.7-0.3l0.2-0.1c0,0,0.1-0.1,0.1-0.1c0.1-0.1,0.1-0.2-0.1-0.6c-0.1-0.4-0.3-0.8-0.4-1.2
						c-1.1-2.6-1.9-5.4-2.8-8.1l-2.4-7.3c-0.8-2.3-1.7-4.5-2.4-6.8c-0.3-1-0.6-2-0.9-3c-0.3-1-0.6-1.8-1.1-2.6
						c-0.2-0.3-0.5-0.6-1-0.6l0,0c-0.1-0.2-0.3-0.3-0.6-0.3c-0.2,0-0.4,0-0.6-0.3l0,0c-0.1,0-0.3-0.1-0.4,0c-0.3,0.1-0.4,0.1-0.6,0
						c-0.1-0.1-0.3-0.3-0.3-0.7c0-0.2-0.2-0.4,0-0.6l0,0l0,0c0.2-0.4,0.7-0.5,1.1-0.5c0.4,0,0.8,0.2,1.2,0.3
						c0.9,0.3,1.7,0.9,2.3,1.6c0.6,0.7,1,1.5,1.3,2.3c0.6,1.6,1,3,1.6,4.5c0.6,1.8,1.2,3.7,1.9,5.5
						C1373.4,298,1373.7,298.5,1373.8,299L1373.8,299z"/>
				</g>
			</g>
		</g>
		<g>
			<g>
				<g>
					<path class="st0" d="M1352.6,296.4c-0.4,0.2-0.8,0.4-1.2,0.5c-1.6,0.6-3.2,1.2-4.8,1.9c-0.1,0-0.1,0.1-0.2,0.2l0,0
						c-1,0.4-1.9,0.8-2.9,1.2c-2.2,1-4.4,2-6.6,2.8c-0.4,0.1-0.9,0.4-1.2-0.2c-0.3-0.6-0.1-1.2,0.5-1.5c1.5-0.6,3-1.2,4.4-1.9
						c2-1.1,4.2-2,6.4-2.9c1.9-0.8,3.9-1.5,5.8-2.3c1.8-0.7,3.6-1.5,5.5-2.1c0.4-0.1,0.6-0.2,0.7-0.3c0.1-0.1,0.2-0.2,0.2-0.4
						c0.1-0.4-0.2-1.2-0.5-1.9c-0.2-0.4-0.4-0.8-0.7-1.2l0,0c0.1-0.3-0.1-0.6-0.2-0.9c-0.1-0.3-0.1-0.7,0.2-1l0,0
						c0-0.2,0.2-0.4,0.2-0.7c0.2-0.5,0.6-0.8,0.8-0.7c0.2,0,0.3,0.3,0.4,0.7c0.1,0.2,0.2,0.3,0.2,0.5l0,0l0,0
						c0.1,0.3,0.1,0.4,0.1,0.5c0,0.1-0.1,0.3-0.1,0.5c0.1,0.5,0.3,1,0.5,1.5c0.3,0.6,0.7,1.2,0.8,2c0.1,0.4,0.1,0.8,0,1.3
						c-0.1,0.5-0.3,1-0.7,1.3c-0.7,0.7-1.5,0.8-2.1,1c-1.5,0.5-3,1-4.4,1.6C1353.4,296.1,1353.1,296.3,1352.6,296.4L1352.6,296.4z"
						/>
				</g>
			</g>
		</g>
		<g>
			<g>
				<g>
					<path class="st0" d="M1347.1,321.2c-0.4,0.6-0.8,1.2-1.2,1.8c-1.6,2.2-3.2,4.3-4.9,6.5c-0.1,0.1-0.1,0.2-0.2,0.4l0,0
						c-1,1.3-2,2.6-2.9,3.9c-2.2,3.1-4.5,6.1-6.9,9c-0.4,0.5-1,1.3-1.5,0.8c-0.6-0.4-0.5-1.2,0.1-2c1.5-2,3.2-3.9,4.5-5.9
						c2-3,4.2-5.9,6.4-8.8c1.9-2.6,3.9-5.2,5.8-7.9c1.8-2.5,3.5-5,5.3-7.5c1.6-2.1,3.3-4.1,4.9-6.2c0.4-0.5,0.8-1,0.9-1.6l0,0
						c0.7-0.4,0.7-1.4,1.5-1.7l0,0c0.2-0.2,0.3-0.4,0.5-0.6c0.6-0.9,0.9-1,1.3-0.3c0.1,0.2,0.3,0.2,0.3,0.5c0,0,0,0,0,0l0,0
						c0,0.9-0.8,1.5-1.2,2.1c-2.4,3.3-4.7,6.5-7.1,9.7c-1.5,2-3,4-4.3,6C1347.8,320.1,1347.5,320.7,1347.1,321.2L1347.1,321.2z"/>
				</g>
			</g>
		</g>
		<g>
			<g>
				<g>
					<path class="st0" d="M1349.4,309c0.6-0.7,1.1-1.4,1.7-2l3.1-3.4c0.5-0.6,0.9-1.1,1.1-1.7c0.1-0.3,0.2-0.6,0.2-0.8
						c0,0,0,0,0-0.1c0,0,0,0,0,0c0,0,0,0,0,0.1l0,0l-5,1.8c-4.3,1.6-8.6,3.2-12.9,4.6c-0.7,0.2-1.8,0.6-2,0
						c-0.2-0.7,0.4-1.3,1.6-1.7c2.8-1,5.7-1.9,8.5-3c1.8-0.7,3.5-1.4,5.3-2.1l2.7-1l1.4-0.5c0.8-0.3,1.7-0.3,2.2,0.4
						c0.3,0.4,0.4,0.9,0.4,1.4c0,0.6-0.1,0.9-0.2,1.2c-0.3,1.2-1,2.1-1.7,2.8c-0.7,0.8-1.3,1.5-2,2.2c-1.3,1.5-2.6,2.9-3.9,4.4
						c-2.4,2.8-4.6,5.7-6.8,8.6c-1.9,2.5-4,4.9-5.8,7.5c-0.4,0.6-0.9,1.2-1.1,2l0,0c-0.7,0.5-0.8,1.7-1.6,2.2l0,0
						c-0.2,0.2-0.4,0.5-0.5,0.7c-0.6,1.2-1,1.3-1.4,0.5c-0.1-0.2-0.3-0.2-0.3-0.5l0,0l0,0c0-1,0.8-1.8,1.4-2.7
						c2.6-4.1,5.5-8.1,8.5-11.9c1.8-2.4,3.8-4.7,5.6-7C1348.3,310.3,1348.8,309.6,1349.4,309L1349.4,309z"/>
				</g>
			</g>
		</g>
		<g>
			<g>
				<g>
					<path class="st0" d="M1286.1,321.1c-0.6,0.2-1.1,0.4-1.7,0.6c-2.1,0.7-4.2,1.3-6.4,1.9c-0.1,0-0.2,0.1-0.3,0.1l0,0
						c-0.7,0.2-1.6,0.3-2.5,0.1c-1-0.2-1.8-1-2.2-1.7c-0.5-0.9-0.7-1.7-0.9-2.4l-0.6-2.2c-0.4-1.5-0.7-3-1.1-4.5
						c-0.1-0.5-0.3-1.3,0.3-1.4c0.7-0.2,1.2,0.2,1.4,1.1c0.5,2,0.9,4,1.5,5.9c0.5,1.4,0.8,2.9,1.6,3.3c0.8,0.5,2.2,0,3.6-0.4
						c2.5-0.8,5.1-1.5,7.6-2.4c2.3-0.8,4.6-1.8,6.9-2.7c2-0.8,4-1.4,6-2.2c0.5-0.2,1-0.4,1.3-0.8l0,0c0.7,0,1-0.8,1.7-0.6l0,0
						c0.2-0.1,0.4-0.1,0.5-0.2c0.7-0.5,1.1-0.4,1.1,0.5c0,0.2,0.2,0.4,0,0.5l0,0l0,0c-0.3,0.7-1.1,0.8-1.7,1.1c-3,1.4-6,2.7-9.1,3.9
						c-1.9,0.7-3.8,1.4-5.7,2.1C1287.2,320.7,1286.7,320.9,1286.1,321.1L1286.1,321.1z"/>
				</g>
			</g>
		</g>
		<g>
			<g>
				<g>
					<path class="st0" d="M1289.6,324c-0.4,0.2-0.8,0.3-1.2,0.5l-4.6,1.5c-0.1,0-0.1,0.1-0.2,0.1l0,0c-0.9,0.3-1.9,0.6-2.8,0.9
						c-1.1,0.4-2,0.7-2.5,1.3c-0.2,0.2-0.3,0.5-0.3,0.7c0,0.3,0.1,0.7,0.4,1.1c0.1,0.3,0.5,0.7,0,1.1c-0.6,0.4-1.1,0.4-1.5-0.2
						c-0.2-0.4-0.4-0.8-0.5-1.3c-0.1-0.5-0.1-1,0-1.5c0.3-1,1.1-1.7,1.8-2.2c0.5-0.4,1.1-0.6,1.6-0.8l1.5-0.6l3.1-1.1l5.5-1.9
						c1.7-0.6,3.4-1.4,5.1-2c1.5-0.5,3.1-0.9,4.6-1.3c0.4-0.1,0.7-0.2,1-0.6l0,0c0.5,0.2,0.8-0.6,1.3-0.3l0,0c0.1,0,0.3,0,0.4-0.1
						c0.6-0.3,0.8-0.1,0.9,0.7c0,0.2,0.1,0.4,0,0.5l0,0l0,0c-0.2,0.6-0.8,0.6-1.3,0.7l-6.8,2.4c-1.4,0.5-2.8,0.9-4.2,1.5
						C1290.3,323.7,1290,323.9,1289.6,324L1289.6,324z"/>
				</g>
			</g>
		</g>
		<g>
			<g>
				<g>
					<path class="st0" d="M1284.7,352.4c0.2,0.5,0.4,1,0.5,1.5l1.7,5.8c0,0.1,0.1,0.2,0.1,0.3l0,0l1,3.5c0.8,2.7,1.7,5.4,2.3,8.1
						c0.1,0.4,0.3,1.1-0.3,1.3c-0.7,0.2-1.2-0.1-1.4-0.9c-0.5-1.8-0.9-3.6-1.5-5.3c-1-2.5-1.7-5.1-2.5-7.7l-2.2-6.9
						c-0.7-2.2-1.5-4.3-2.2-6.5c-0.6-1.9-1-3.8-1.5-5.7c-0.1-0.4-0.2-0.9-0.6-1.3l0,0c0.1-0.6-0.6-1-0.3-1.7l0,0
						c0-0.2-0.1-0.4-0.1-0.5c-0.3-0.7-0.2-1,0.7-1c0.2,0,0.4-0.1,0.5,0l0,0l0,0c0.7,0.4,0.6,1.1,0.8,1.7l2.7,8.6
						c0.6,1.7,1.1,3.5,1.7,5.2C1284.4,351.4,1284.6,351.9,1284.7,352.4L1284.7,352.4z"/>
				</g>
			</g>
		</g>
		<g>
			<g>
				<g>
					<path class="st0" d="M1277.2,391.7c0.1,1.1,0.2,2.1,0.5,3.1c0.9,3.9,3.5,7.4,7,9.4c0.2,0.1,0.4,0.2,0.6,0.3l0,0
						c2.1,1.1,4.5,1.8,7,1.8c2.8,0,5.6-0.8,8-2.2c2.4-1.5,4.4-3.6,5.8-6c0.4-0.8,0.9-2.2,1.6-2c0.6,0.2,0.7,1.4-0.1,3
						c-2,3.7-5.4,6.5-9.2,8.1c-1.4,0.6-2.9,1-4.4,1.1c-0.8,0.1-1.5,0.1-2.3,0.1c-0.4,0-0.8,0-1.1-0.1l-1.1-0.2
						c-0.8-0.1-1.5-0.3-2.2-0.5c-0.7-0.3-1.4-0.5-2.1-0.9c-1.4-0.6-2.6-1.5-3.8-2.5c-2.1-1.8-3.7-4-4.7-6.6c-1-2.5-1.4-5.3-1.1-8.1
						c0.5-5.1,3.3-10.1,7.8-12.8c3.8-2.4,8.6-3.1,12.9-2c1,0.2,2.1,0.6,3.1,0.8l0,0c1,0.7,2.5,0.9,3.2,2l0,0
						c0.3,0.2,0.6,0.5,0.9,0.8c0.7,0.5,1.1,1,1.2,1.3c0.1,0.3-0.1,0.4-0.6,0.5c-0.2,0-0.3,0.3-0.6,0.1l0,0l0,0
						c-1.2-0.4-2.1-1.4-3.2-2c-5.3-3.1-12.4-2.5-17.1,1.3c-2.9,2.3-5,5.7-5.5,9.4C1277.2,389.7,1277.3,390.7,1277.2,391.7
						L1277.2,391.7z"/>
				</g>
			</g>
		</g>
		<g>
			<g>
				<g>
					<path class="st0" d="M1437.1,438.8c4.4-1.7,8.7-4,12.6-6.7c7.4-5.1,13.5-12.1,17.7-20c2.1-4,3.7-8.2,4.9-12.6
						c1.1-4.4,1.7-8.9,1.7-13.4c0-0.9-0.1-1.8-0.1-2.8l0,0.1c-0.4-10.9-3.9-21.6-10.2-30.5c-7.2-10.3-18-18.1-30-21.8
						c-6-1.8-12.3-2.7-18.6-2.5c-6.3,0.2-12.6,1.4-18.5,3.7c-1.8,0.7-4.3,1.8-6.2,2.7c-1.9,0.9-3.4,1.7-3.6,1.3
						c-0.2-0.6,3.4-3.6,10.1-6.1c16.2-5.9,34.9-4.1,49.6,4.4c10.9,6.1,19.6,15.9,24.6,27.4c5,11.4,6.2,24.5,3.4,36.6
						c-2.5,10.9-8.2,21.1-16.2,28.9c-8,7.9-18.3,13.4-29.3,15.6c-10.3,2.1-21.2,1.5-31.2-1.9c-10-3.4-19-9.5-25.8-17.6
						c-3-3.5-5.5-7.3-7.5-11.4c-2.1-4.1-3.6-8.4-4.7-12.8c-2.1-8.9-2.1-18.2-0.1-27c1-4.2,2.5-8.5,4-12.2l0,0.1
						c2.4-4.3,5-9.6,8.5-12.9l0,0c0.6-0.6,1.1-1.2,1.7-1.9c0.6-0.6,1.2-1.2,1.7-1.8c0.3-0.3,0.6-0.7,0.9-1c0.3-0.3,0.6-0.6,0.9-0.8
						c0.6-0.5,1.1-1,1.5-1.4c0.9-0.7,1.6-1.2,2.1-1.5c1-0.6,1-0.3,0.3,0.8c-0.3,0.5,0.3,0.3-1,1.5c0,0-0.1,0.1-0.1,0.1l0,0
						c-3.5,3.5-7.7,7.8-10.8,12.4c-7.5,11.2-10.8,25.1-9.2,38.5c1.5,13.4,8.1,26.1,18,35.2c6.1,5.6,13.4,9.9,21.2,12.4
						c7.8,2.6,16.3,3.3,24.4,2.2C1428.5,441.5,1432.9,440.4,1437.1,438.8L1437.1,438.8z"/>
				</g>
			</g>
		</g>
		<g>
			<g>
				<g>
					<path class="st0" d="M1435.8,435.4c2.1-0.7,4.1-1.8,6.1-2.7c0.5-0.2,1-0.5,1.5-0.8l1.4-0.9l1.4-0.9c0.2-0.1,0.5-0.3,0.7-0.4
						l0.7-0.5c6.9-4.9,12.7-11.3,16.6-18.8c3.9-7.5,6-15.8,6.2-24.3c0.1-0.9-0.1-1.7-0.1-2.6l0,0.1c-0.1-1.3-0.1-2.5-0.2-3.8
						l-0.6-3.8c-0.1-1.3-0.5-2.5-0.8-3.7c-0.3-1.2-0.6-2.5-1.1-3.7l-1.3-3.6c-0.5-1.2-1.1-2.3-1.6-3.5c-0.3-0.6-0.5-1.2-0.9-1.7
						l-1-1.6l-1-1.6l-0.5-0.8l-0.6-0.8c-3.3-4.9-7.6-9.1-12.4-12.5c-4.8-3.5-10.1-6.1-15.7-7.9c-5.6-1.8-11.6-2.4-17.4-2.3
						c-5.9,0.2-11.8,1.3-17.3,3.4c-1.7,0.6-4,1.7-5.8,2.5c-1.8,0.9-3.2,1.6-3.3,1.2c-0.3-0.6,3.1-3.5,9.4-5.8
						c7.6-2.7,15.8-3.8,23.8-3c1,0,2,0.2,3,0.4l3,0.5c2,0.4,3.9,1,5.8,1.5l2.8,1c0.9,0.4,1.9,0.6,2.8,1.1l2.7,1.3l1.4,0.6l1.3,0.8
						c1.2,0.8,2.5,1.5,3.7,2.3l3.5,2.6c2.2,1.9,4.4,3.8,6.3,6.1c3.9,4.4,7.2,9.3,9.5,14.7c2.3,5.4,3.7,11.1,4.3,16.9
						c0.5,5.8,0.1,11.7-1.2,17.4l-1,3.8c-0.4,1.3-0.9,2.5-1.3,3.7c-0.2,0.6-0.4,1.2-0.7,1.8l-0.9,1.8l-0.9,1.8
						c-0.3,0.6-0.6,1.2-0.9,1.7l-2,3.4c-0.7,1.1-1.5,2.1-2.3,3.2l-1.2,1.6l-1.3,1.5c-0.9,1-1.7,2-2.7,2.9c-3.8,3.7-8.1,6.7-12.7,9.3
						c-4.7,2.5-9.7,4.2-14.8,5.4l-3.7,0.6l-1.8,0.3l-1.8,0.1l-3.7,0.2c-1.2,0-2.5-0.1-3.7-0.2l-1.9-0.1c-0.6,0-1.2-0.2-1.8-0.2
						l-3.7-0.5c-1.2-0.3-2.4-0.6-3.6-0.9l-1.8-0.5c-0.6-0.2-1.2-0.4-1.7-0.6l-3.5-1.3l-3.4-1.6c-0.6-0.3-1.1-0.5-1.7-0.8l-1.6-1
						c-1.1-0.7-2.1-1.2-3.2-2c-2-1.5-4-2.9-5.8-4.6l-1.4-1.2l-0.7-0.6l-0.6-0.7l-2.5-2.7c-5.6-6.5-9.4-14.4-11.4-22.7
						c-2-8.3-2-17-0.1-25.3c0.9-3.9,2.3-7.9,3.8-11.5l0,0.1c2.2-4,4.7-9,8-12.1l0,0c0.5-0.6,1.1-1.2,1.6-1.7
						c0.5-0.6,1.1-1.1,1.6-1.7c0.6-0.6,1.2-1.2,1.7-1.7c0.5-0.5,1-0.9,1.4-1.3c0.9-0.7,1.5-1.2,2-1.4c0.9-0.5,1-0.3,0.3,0.8
						c-0.3,0.4,0.3,0.3-0.9,1.4l-0.1,0.1l0,0c-3.2,3.3-7.2,7.3-10.1,11.6c-7,10.5-10.1,23.5-8.6,36c1.4,12.5,7.6,24.4,16.8,32.9
						c5.7,5.2,12.5,9.2,19.8,11.6c7.3,2.4,15.2,3,22.9,2.1c2.1-0.4,4.2-0.6,6.2-1.2c1-0.3,2-0.5,3.1-0.8
						C1433.9,436.1,1434.9,435.7,1435.8,435.4L1435.8,435.4z"/>
				</g>
			</g>
		</g>
		<g>
			<g>
				<g>
					<path class="st0" d="M1424.7,395.4c0.8-0.6,1.4-1.3,2-2c2.3-2.8,3.3-6.6,2.6-10.2c0-0.2-0.1-0.4-0.2-0.5l0,0
						c-0.2-1.1-0.7-2.1-1.1-3.1c-0.5-0.9-1.2-1.9-1.9-2.6c-0.9-0.9-1.9-1.7-3-2.3c-1.1-0.6-2.3-1-3.5-1.3c-0.6-0.1-1.2-0.2-1.9-0.2
						c-0.6-0.1-1.3,0-1.9,0c-1.3,0.1-2.5,0.4-3.7,0.9c-0.8,0.3-1.9,1-2.3,0.4c-0.4-0.6,0.2-1.6,1.8-2.2c3.6-1.5,7.7-1.3,11.3,0.1
						c1.3,0.5,2.5,1.3,3.6,2.1c1.1,0.9,2,2,2.8,3.1c1.5,2.4,2.3,5.2,2.3,8c0,5.1-2.9,10-7.4,12.5c-2.1,1.2-4.4,1.8-6.8,1.9
						c-2.4,0.1-4.8-0.5-7-1.6c-3.7-1.9-6.3-5.6-7.2-9.6c-0.2-0.9-0.3-2-0.6-2.9l0,0c0.2-1.1-0.2-2.5,0.5-3.5l0,0
						c0.1-0.4,0.2-0.7,0.3-1.1c0.4-1.7,0.9-1.9,1.4-1.1c0.1,0.2,0.4,0.1,0.3,0.5l0,0l0,0c0.1,1.1-0.4,2.2-0.5,3.4
						c-0.2,2.7,0.4,5.6,1.9,7.9c1.4,2.4,3.7,4.2,6.2,5.2c3.1,1.2,6.8,1.1,9.8-0.4c0.4-0.2,0.8-0.4,1.2-0.7
						C1423.9,396,1424.3,395.7,1424.7,395.4L1424.7,395.4z"/>
				</g>
			</g>
		</g>
		<g>
			<g>
				<g>
					<path class="st0" d="M1169.6,417.8c2,2.8,4.2,5.4,6.6,7.8c4.6,4.6,9.9,8.4,15.7,11.2c5.8,2.8,12.1,4.6,18.6,5.3
						c0.7,0.1,1.3,0.1,2,0.1l-0.1,0c7.8,0.5,15.7-0.5,23.1-3.1c0.5-0.2,1.1-0.3,1.6-0.6l1.6-0.7c1-0.5,2.1-0.9,3.1-1.4
						c2-1.1,4-2.1,5.9-3.4c3.8-2.4,7.2-5.4,10.4-8.6l2.3-2.5l0.6-0.6l0.5-0.7l1-1.4c1.4-1.8,2.5-3.7,3.7-5.6
						c2.2-3.9,4.1-8.1,5.3-12.4c0.2-0.7,0.4-1.5,0.7-2.3c0.2-0.8,0.4-1.7,0.6-2.4c0.4-1.5,0.8-2.6,1.1-2.5c0.3,0.1,0.5,1,0.4,2.5
						c0,0.7-0.1,1.6-0.3,2.7c-0.2,1-0.5,2.1-0.9,3.3c-3.6,11.8-11,22.4-20.7,29.8c-0.4,0.3-0.9,0.7-1.3,1l-1.4,0.9
						c-0.9,0.6-1.8,1.3-2.8,1.9l-2.9,1.6l-1.5,0.8l-1.5,0.7l-3.1,1.3c-1.1,0.4-2.1,0.7-3.2,1.1c-2.1,0.8-4.3,1.2-6.5,1.7
						c-8.8,1.7-18,1.5-26.6-0.8c-7.8-2-15.1-5.7-21.4-10.7c-6.3-5-11.6-11.3-15.4-18.4c-3.6-6.6-5.9-14-6.7-21.5
						c-0.4-3.8-0.5-7.6-0.1-11.3c0.3-3.8,1-7.5,2.1-11.2c3.7-12.6,11.9-23.6,22.4-31.2c2.5-1.8,5.3-3.4,7.7-5.1l0,0
						c0.8-0.3,1.7-0.7,2.5-1.1c0.9-0.4,1.7-0.9,2.6-1.2c0.9-0.4,1.8-0.7,2.7-1c0.4-0.2,0.9-0.3,1.3-0.4c0.4-0.1,0.9-0.2,1.3-0.2l0,0
						c1.2-0.3,2.4-0.6,3.5-0.9c5.2-1.1,6.7-1,5,0c-0.4,0.2,0.1,0.4-1.1,0.7l-0.1,0l0,0c-0.8,0.3-1.8,0.5-2.7,0.7
						c-0.9,0.2-1.9,0.6-2.9,0.8c-1,0.3-2,0.5-2.9,0.8c-1,0.3-1.9,0.7-2.8,1c-0.6,0.2-1.1,0.4-1.7,0.7l-1.6,0.8
						c-1.1,0.5-2.2,1-3.2,1.6l-3.1,1.8c-0.5,0.3-1,0.6-1.5,1l-1.5,1l-1.5,1c-0.5,0.3-0.9,0.8-1.4,1.2l-2.8,2.3
						c-1.7,1.7-3.5,3.4-5,5.3l-1.2,1.4l-0.6,0.7l-0.5,0.7l-2.1,3c-0.7,1-1.2,2.1-1.8,3.1l-0.9,1.6l-0.8,1.6c-2.2,4.3-3.6,9-4.6,13.7
						c-2.3,11.6-0.8,24,4.3,34.6C1166.1,412.4,1167.8,415.1,1169.6,417.8L1169.6,417.8z"/>
				</g>
			</g>
		</g>
		<g>
			<g>
				<g>
					<path class="st0" d="M1236.9,332.4c-0.6-0.2-1.2-0.3-1.7-0.6c-2.1-0.7-4.3-1.4-6.6-1.9c-0.1,0-0.2,0-0.4,0l0,0
						c-1.3-0.3-2.7-0.5-4.1-0.7c-3.2-0.4-6.3-0.6-9.5-0.7c-0.5,0-1.3,0-1.4-0.7c0-0.7,0.5-1.1,1.4-1.1l1.6,0l1.6,0.1
						c1.1,0,2.2,0.1,3.2,0.2c3.2,0.1,6.3,0.7,9.3,1.4c2.8,0.6,5.4,1.6,8.1,2.6c2.5,1,4.9,2,7.3,3.4c2,1.1,3.8,2.6,5.6,4
						c0.4,0.3,0.8,0.7,1.4,0.8l0,0c0.3,0.6,1.2,0.6,1.4,1.4v0c0.2,0.1,0.3,0.3,0.5,0.4c0.8,0.5,0.8,0.9,0.1,1.2
						c-0.2,0.1-0.3,0.3-0.5,0.2l0,0l0,0c-0.8,0-1.2-0.7-1.8-1.1c-2.7-2.1-5.5-4-8.5-5.7c-1.8-1-3.7-2-5.7-2.7
						C1238,332.8,1237.4,332.7,1236.9,332.4L1236.9,332.4z"/>
				</g>
			</g>
		</g>
		<g>
			<g>
				<g>
					<path class="st0" d="M1269.1,363.8c-0.2-0.5-0.5-1-0.7-1.5c-0.8-1.9-1.7-3.7-2.8-5.5c-0.1-0.1-0.1-0.2-0.2-0.2l0,0
						c-0.6-1.1-1.3-2.1-2-3.2c-1.6-2.4-3.4-4.6-5.2-6.8c-0.3-0.4-0.8-0.9-0.3-1.4c0.5-0.5,1.2-0.4,1.7,0.2c1.3,1.5,2.4,3.1,3.7,4.5
						c1.9,2.2,3.3,4.6,4.7,7.1c1.3,2.2,2.3,4.6,3.3,6.9c0.9,2.2,1.8,4.5,2.4,6.8c0.2,1,0.4,2,0.6,3.1c0.1,1,0.3,2.1,0.4,3.1
						c0.1,0.5,0.1,1,0.4,1.4l0,0c-0.2,0.6,0.4,1.2,0,1.8l0,0c0,0.2,0,0.4,0,0.6c0.2,0.8,0,1.1-0.8,0.8c-0.2,0-0.4,0-0.5-0.2l0,0l0,0
						c-0.6-0.5-0.4-1.2-0.5-1.8c-0.4-3-1-6.1-1.8-9c-0.2-0.9-0.5-1.8-0.8-2.7c-0.3-0.9-0.6-1.8-1-2.6
						C1269.5,364.7,1269.2,364.2,1269.1,363.8L1269.1,363.8z"/>
				</g>
			</g>
		</g>
		<g>
			<g>
				<g>
					<path class="st0" d="M1204.1,386.9c0.1,0.4,0.1,0.8,0.2,1.2c0.1,0.4,0.2,0.8,0.3,1.2c0.9,3,3.1,5.6,5.9,7.1
						c0.1,0.1,0.3,0.1,0.5,0.2l0,0c1.7,0.8,3.6,1.3,5.5,1.3c2.2,0,4.4-0.6,6.3-1.7c1.9-1.1,3.5-2.7,4.7-4.6c0.4-0.6,0.8-1.7,1.4-1.4
						c0.6,0.2,0.7,1.3,0,2.5c-1.7,2.9-4.5,5-7.6,6.3c-4.5,1.9-10,0.9-13.8-2.1c-3.5-2.7-5.6-7.1-5.5-11.5c0-1.1,0.2-2.1,0.4-3.1
						c0.1-0.5,0.2-1,0.4-1.5c0.1-0.5,0.3-0.9,0.5-1.5c0.8-2.1,2.2-3.7,3.8-5c2.8-2.3,6.5-3.4,10-3.2c0.8,0,1.7,0.2,2.5,0.1l0,0
						c0.9,0.5,2.2,0.3,2.8,1.1l0,0c0.3,0.1,0.6,0.3,0.9,0.5c1.3,0.6,1.5,1.1,0.7,1.5c-0.2,0.1-0.2,0.3-0.5,0.3l0,0l0,0
						c-1,0-1.8-0.7-2.8-1c-2.3-0.8-4.8-0.9-7.1-0.3c-2.3,0.5-4.5,1.8-6.2,3.5c-1,1-1.9,2.2-2.4,3.5c-0.5,1.4-0.9,2.9-1,4.3
						C1203.9,385.4,1204.1,386.1,1204.1,386.9L1204.1,386.9z"/>
				</g>
			</g>
		</g>
		<g>
			<g>
				<g>
					<path class="st0" d="M1227.7,380.2c0,0-0.1-0.1-0.1-0.1l-0.2-0.6c0,0,0,0-0.1,0l0,0c0-0.1-0.1-0.2-0.2-0.3
						c-0.2-0.2-0.3-0.5-0.3-0.8c0-0.1,0-0.1,0.5-0.5c0.6-0.4,0.9-0.6,1-0.5c0.1,0.2,0,0.5,0.3,0.6c0.3,0.2,0.4,0.5,0.6,0.7
						c0.2,0.2,0.3,0.5,0.4,0.7c0.1,0.2,0.4,0.4,0.5,0.7c0.1,0.2,0,0.5,0,0.7c0,0.1,0,0.1,0.2,0.1l0,0c-0.3,0.2,0.3,0-0.1,0.2l0,0
						c0,0,0,0.1,0,0.1c0.1,0.1-0.1,0.1-0.8,0.3c-0.2,0-0.4,0.1-0.5,0.1l0,0l0,0c-0.5,0.1-0.3,0-0.3-0.1c-0.1-0.3-0.3-0.6-0.4-0.8
						c-0.1-0.2-0.1-0.4-0.3-0.5C1227.8,380.3,1227.7,380.3,1227.7,380.2L1227.7,380.2z"/>
				</g>
			</g>
		</g>
		<g>
			<g>
				<g>
					<path class="st0" d="M1392.5,352.9c0.5,0.9,1,1.9,1.4,2.8c1.7,3.6,3.4,7.2,5.4,10.6c0.1,0.2,0.2,0.3,0.4,0.5l0,0
						c1.3,2,2.6,3.9,4.2,5.7c1.8,2,3.9,3.8,6.1,5.6c2.1,1.8,4.2,3.6,6.4,5.3c0.2,0.1,0.4,0.3,0.6,0.4c0.1,0.1,0.2,0.2,0.3,0.2
						c0,0,0.1,0.1,0.1,0.1c0,0,0.1,0.1,0.1,0.1c0,0.2,0.1,0.3,0.1,0.4c0,0,0,0,0,0c0,0,0.1,0,0.2,0c0.2,0,0.3,0.1,0.3,0.4
						c-0.1,0.3-0.5,0.5-0.8,0.5c-0.2,0-0.4,0-0.6-0.1c-0.1,0-0.2-0.1-0.3-0.1l-0.2-0.1c-0.3-0.1-0.6-0.3-0.9-0.6
						c-3-2.3-5.7-4.8-8.6-7c-2.1-1.7-4.1-3.6-5.8-5.8c-1.7-2.2-3.1-4.5-4.5-6.8c-2.4-4.3-4.3-8.7-6.4-13c-1.9-4.1-3.9-8.2-5.6-12.4
						c-1.5-3.6-2.8-7.3-4.2-11c-0.3-0.9-0.6-1.8-1.2-2.5l0,0c-0.1-1.1-1.1-2.1-1-3.2l0,0c-0.1-0.3-0.2-0.7-0.3-1
						c-0.7-1.5-0.6-1.9,0.3-1.7c0.2,0.1,0.4-0.2,0.6,0.2l0,0l0,0c0.9,0.8,1.1,2.2,1.5,3.3c2.1,5.5,4.3,11.1,6.7,16.5
						c1.4,3.4,2.9,6.7,4.5,10C1391.6,351.1,1392.1,351.9,1392.5,352.9L1392.5,352.9z"/>
				</g>
			</g>
		</g>
		<g>
			<g>
				<g>
					<path class="st0" d="M1368.7,308.6c0.1,0.2,0.3,0.4,0.4,0.6c0.4,0.8,0.8,1.6,1.1,2.5c0,0,0.1,0.1,0.1,0.1l0,0l0.6,1.5
						c0.5,1.2,1,2.3,1.2,3.6c0,0.2,0.1,0.5-0.5,0.7c-0.7,0.2-1.1,0.2-1.2-0.2c-0.2-0.8-0.4-1.6-0.8-2.3c-0.6-1-1-2.1-1.5-3.2
						c-0.5-1-0.9-1.9-1.4-2.9c-0.5-0.9-1.1-1.7-1.5-2.6c-0.4-0.8-0.6-1.6-1-2.2c-0.1-0.1-0.2-0.3-0.5-0.2l0,0c0-0.2-0.1-0.2-0.2-0.1
						c-0.1,0-0.1,0-0.1-0.2v0c0,0-0.1-0.1-0.1-0.1c-0.2,0.1-0.3-0.2-0.2-0.9c0-0.2,0-0.4,0.1-0.5l0,0l0,0c0.4-0.5,0.8-0.1,1.1,0
						c0.8,0.4,1.3,1.1,1.7,1.7c0.4,0.6,0.7,1.2,1,1.8c0.4,0.7,0.7,1.5,1.2,2.2C1368.4,308.2,1368.6,308.4,1368.7,308.6L1368.7,308.6
						z"/>
				</g>
			</g>
		</g>
		<g>
			<g>
				<g>
					<path class="st0" d="M1267,317.5c0.1,0.2,0.2,0.4,0.3,0.6c0.3,0.8,0.5,1.6,0.6,2.4c0,0,0.1,0.1,0.1,0.1l0,0l0.3,1.5
						c0.3,1.1,0.4,2.3,0.3,3.4c0,0.2,0,0.5-0.7,0.5c-0.7,0.1-1.1-0.1-1.1-0.4c0-0.7,0-1.5-0.2-2.2c-0.4-1-0.5-2-0.8-3
						c-0.3-0.9-0.5-1.8-0.9-2.7c-0.3-0.8-0.8-1.6-1.2-2.4c-0.1-0.3-0.3-0.7-0.4-1.1c-0.1-0.4-0.3-0.8-0.4-1.4c0-0.3,0-0.6-0.2-1l0,0
						c0.2-0.2,0.2-0.4,0.3-0.6c0.1-0.2,0.2-0.4,0.5-0.4l0,0c0.1-0.1,0.3-0.1,0.4-0.2c0.3-0.2,0.6-0.2,0.7,0c0.1,0.1,0,0.4,0,0.8
						c0,0.2,0,0.4,0,0.5l0,0l0,0c0,0.2,0,0.1,0,0.2c0,0,0,0.1,0.1,0.1c0.1,0.1,0,0,0,0c0,0.1,0,0.1,0,0.3c0,0.2,0.1,0.4,0.3,0.6
						c0.3,0.5,0.5,1.1,0.8,1.6c0.3,0.7,0.6,1.4,0.9,2.1C1266.8,317.1,1267,317.3,1267,317.5L1267,317.5z"/>
				</g>
			</g>
		</g>
		<g>
			<g>
				<g>
					<path class="st0" d="M1246.7,355.7c-0.7,0.8-1.3,1.5-2,2.2l-7.8,8.2c-0.1,0.1-0.2,0.3-0.4,0.5l0,0l-4.8,4.9
						c-3.7,3.8-7.4,7.6-11.3,11.1c-0.6,0.6-1.6,1.5-2.1,1c-0.5-0.5-0.1-1.5,1-2.5c2.5-2.4,5.1-4.7,7.4-7.3c3.4-3.7,7-7.3,10.5-11
						c3.1-3.3,6.3-6.6,9.3-9.9c2.8-3.2,5.6-6.4,8.5-9.6c2.5-2.7,5.1-5.3,7.6-8c0.6-0.6,1.2-1.3,1.6-2.1l0,0c0.9-0.5,1.3-1.8,2.3-2.2
						l0,0c0.2-0.2,0.5-0.5,0.7-0.7c0.9-1.2,1.4-1.3,1.6-0.4c0.1,0.2,0.3,0.2,0.1,0.6l0,0l0,0c-0.3,1.1-1.3,1.9-2.1,2.7l-11.3,12.5
						c-2.3,2.6-4.7,5.1-6.9,7.7C1247.9,354.3,1247.4,355.1,1246.7,355.7L1246.7,355.7z"/>
				</g>
			</g>
		</g>
		<g>
			<g>
				<g>
					<path class="st0" d="M1245.4,383.1c0.7,0,1.4,0,2,0l7.7,0.3c0.1,0,0.3,0,0.4,0l0,0l4.7,0.2c3.6,0.1,7.2,0.2,10.8,0.5
						c0.6,0.1,1.5,0.1,1.5,0.8c0,0.7-0.7,1.1-1.7,1c-2.4-0.1-4.8-0.4-7.1-0.3c-3.5,0.1-6.9-0.1-10.4-0.2l-9.3-0.2
						c-2.9,0-5.8,0-8.8-0.1c-2.5-0.1-5-0.3-7.5-0.5c-0.6,0-1.2-0.1-1.8,0.2l0,0c-0.7-0.3-1.5,0.2-2.1-0.3l0,0
						c-0.2,0-0.5-0.1-0.7-0.1c-1,0.1-1.3-0.2-0.9-0.9c0.1-0.2,0-0.4,0.3-0.5l0,0l0,0c0.7-0.5,1.6-0.2,2.4-0.2l11.5,0.3
						c2.4,0.1,4.7,0.2,7.1,0.1C1244.2,383.1,1244.8,383,1245.4,383.1L1245.4,383.1z"/>
				</g>
			</g>
		</g>
		<g>
			<g>
				<g>
					<path class="st0" d="M1244.8,388.2c0.7,0,1.5,0,2.2,0.1c2.7,0.2,5.5,0.5,8.2,0.7c0.1,0,0.3,0,0.4,0l0,0c1.7,0.1,3.3,0.3,5,0.4
						c3.8,0.3,7.7,0.6,11.5,1.1c0.6,0.1,1.6,0.2,1.5,0.8c-0.1,0.7-0.8,1.1-1.8,1c-2.5-0.3-5.1-0.6-7.6-0.7
						c-3.7-0.1-7.4-0.5-11.1-0.7c-3.3-0.2-6.6-0.5-9.9-0.7c-3.1-0.2-6.2-0.3-9.3-0.5c-2.7-0.2-5.3-0.6-8-0.9
						c-0.6-0.1-1.3-0.2-1.9,0.1l0,0c-0.7-0.4-1.6,0.1-2.3-0.4l0,0c-0.2,0-0.5-0.1-0.7-0.1c-1.1,0-1.4-0.2-1-1c0.1-0.2,0-0.4,0.3-0.5
						c0,0,0,0,0,0l0,0c0.8-0.5,1.7-0.1,2.5-0.1c4.1,0.3,8.2,0.6,12.3,0.9c2.5,0.2,5,0.4,7.5,0.5
						C1243.4,388.2,1244.1,388.1,1244.8,388.2L1244.8,388.2z"/>
				</g>
			</g>
		</g>
		<g>
			<g>
				<g>
					<path class="st0" d="M1258.8,317.4c-0.2,0-0.4,0.1-0.6,0c-0.8,0-1.6-0.1-2.3-0.1c0,0-0.1,0-0.1,0.1l0,0c-0.5,0-0.9,0-1.4,0
						c-1.1,0-2.2,0.1-3.3-0.1c-0.2,0-0.5,0-0.5-0.7c0-0.7,0.1-1.1,0.4-1.1c0.7,0,1.5,0.1,2.2,0c1.1-0.2,2.1-0.1,3.2-0.2
						c1,0,1.9,0,2.9,0.1c0.9,0,1.8-0.1,2.7,0c0.8,0.1,1.5,0.3,2.3,0.5c0.2,0,0.4,0.1,0.6-0.1l0,0c0.2,0.3,0.5-0.2,0.6,0.3l0,0
						c0.1,0,0.1,0.1,0.2,0.1c0.3-0.1,0.4,0.2,0.2,0.9c0,0.2-0.1,0.4-0.1,0.5l0,0l0,0c-0.3,0.5-0.5,0.2-0.7,0.2
						c-1.2-0.1-2.3-0.2-3.5-0.3c-0.7,0-1.4-0.1-2.1-0.1C1259.2,317.3,1259,317.4,1258.8,317.4L1258.8,317.4z"/>
				</g>
			</g>
		</g>
		<g>
			<g>
				<g>
					<path class="st0" d="M1249.2,317.7l0-2.8l0-0.8l0-0.4l0,0c0,0,0,0,0,0l0,0l-0.2,0l-23.8,0c-0.4,0-0.8,0-1.2,0.1l0,0l-14.4,0
						c-10.2,0-20.4,0-30.4-0.1c-0.1,0-0.2,0-0.2,0.1c0,0,0,0,0,0.1l0,0.3l0,0.7c0,0.9,0,2-0.1,3c-0.1,0.1,0,0.3,0,0.4
						c0.1,0.1,0.2,0.3,0.2,0.4c0,0.2-0.1,0.4-0.5,0.4c-0.3,0-0.9-0.2-1.1-0.9c-0.1-0.4-0.1-0.6-0.2-0.8c0-0.3-0.1-0.5-0.1-0.9
						c0-0.6-0.1-1.3-0.1-2.1l0-0.6c0-0.3,0.1-0.7,0.2-1c0.3-0.6,1-1,1.7-1c6.6,0.1,13.1,0.2,19.6,0.1c10.6-0.2,21.2-0.1,31.8-0.1
						l14.3,0l3.6,0l0.4,0l0.2,0c0.1,0,0.3,0,0.4,0c0.5,0.1,1,0.4,1.3,0.8c0.2,0.2,0.3,0.5,0.3,0.7c0.1,0.2,0,0.6,0.1,0.7l0,0.9
						l0,1.8l0,0.9c0,0.1,0,0.4,0,0.7c-0.1,0.3-0.2,0.5-0.3,0.7c-0.3,0.4-0.8,0.7-1.3,0.8c-0.1,0-0.3,0-0.4,0l-0.2,0l-0.4,0l-1.8,0
						c-9,0-17.9,0.2-26.8,0.2c-7.7,0-15.4-0.2-23.2-0.2c-1.8,0-3.8-0.1-5.5,0.2l0,0c-2.1-0.3-4.6,0.3-6.6-0.2l0,0
						c-0.7,0-1.4-0.1-2.1,0c-3.2,0.1-4-0.1-2.9-0.9c0.2-0.2,0-0.4,0.7-0.5l0.1,0l0,0c2.1-0.5,4.8-0.3,7.2-0.3l35.4-0.1
						c7.2,0,14.5,0,21.7-0.1c1,0,2,0,3-0.1l1.5,0C1249.2,317.8,1249.1,317.7,1249.2,317.7L1249.2,317.7z"/>
				</g>
			</g>
		</g>
		<g>
			<g>
				<g>
					<path class="st0" d="M1214.2,349.1c0.1,0.9,0.2,1.8,0.3,2.7c0.3,3.4,0.5,6.7,0.8,10.1c0,0.2,0.1,0.3,0.1,0.5l0,0
						c0.2,2,0.3,4.1,0.5,6.1c0.4,4.7,0.8,9.4,1,14.1c0,0.7,0.1,2-0.5,2c-0.7,0-1.2-0.8-1.3-2c-0.2-3.1-0.3-6.2-0.7-9.3
						c-0.6-4.5-0.9-9-1.3-13.5c-0.4-4-0.7-8.1-1.1-12.1c-0.4-3.8-0.8-7.6-1.2-11.4c-0.3-3.3-0.4-6.6-0.6-9.9
						c-0.1-0.8-0.1-1.6-0.4-2.3l0,0c0.2-0.9-0.4-1.9-0.1-2.8l0,0c0-0.3,0-0.6,0-0.9c-0.2-1.3,0-1.7,0.8-1.3c0.2,0.1,0.4,0,0.5,0.3
						c0,0,0,0,0,0l0,0c0.6,0.9,0.4,2,0.5,3c0.5,5,0.9,10,1.4,15c0.3,3.1,0.5,6.2,0.9,9.2C1214,347.4,1214.2,348.2,1214.2,349.1
						L1214.2,349.1z"/>
				</g>
			</g>
		</g>
		<g>
			<g>
				<g>
					<path class="st0" d="M1172.7,415.7c1,1.3,1.9,2.6,2.9,3.8l3.2,3.5c8.5,8.5,20,14.1,32,15.4c0.6,0.1,1.2,0,1.8,0.1l-0.1,0
						c7.3,0.6,14.7-0.4,21.5-2.8c0.5-0.2,1-0.3,1.5-0.5l1.5-0.6c1-0.4,1.9-0.8,2.9-1.3c1.8-1,3.8-1.9,5.5-3.2
						c3.6-2.2,6.7-5.1,9.7-8.1l2.1-2.4l0.5-0.6l0.5-0.6l0.9-1.3c1.3-1.6,2.4-3.5,3.5-5.3c2-3.7,3.9-7.5,5-11.6
						c0.2-0.6,0.4-1.4,0.6-2.1c0.2-0.8,0.3-1.6,0.5-2.3c0.4-1.4,0.7-2.5,1.1-2.4c0.3,0.1,0.5,0.9,0.4,2.3c0,0.7-0.1,1.5-0.3,2.5
						c-0.2,0.9-0.5,2-0.8,3.1c-3.4,11-10.3,20.9-19.4,27.9c-0.4,0.3-0.8,0.7-1.2,1l-1.3,0.9c-0.9,0.6-1.7,1.2-2.6,1.7l-2.8,1.5
						l-1.4,0.8l-1.4,0.6l-2.9,1.3c-1,0.4-2,0.7-3,1c-2,0.7-4,1.1-6.1,1.6c-1,0.3-2.1,0.3-3.1,0.5c-1,0.1-2.1,0.3-3.1,0.4l-3.1,0.1
						c-0.5,0-1,0.1-1.6,0.1l-1.6-0.1l-3.1-0.2l-0.8,0l-0.8-0.1l-1.6-0.2l-3.1-0.5l-3-0.8c-14.6-3.8-27.4-13.9-34.5-27.2
						c-3.4-6.2-5.6-13.1-6.3-20.1c-0.8-7-0.2-14.2,1.8-21.1c3.5-11.8,11.1-22.1,21-29.2c2.3-1.7,5-3.2,7.2-4.7l0,0
						c0.8-0.3,1.6-0.6,2.4-1c0.8-0.4,1.6-0.8,2.4-1.1c0.8-0.3,1.7-0.7,2.5-1c0.4-0.1,0.8-0.3,1.2-0.4c0.4-0.1,0.8-0.2,1.2-0.2l0,0
						c1.1-0.3,2.2-0.5,3.3-0.8c4.9-1,6.2-1,4.7,0.1c-0.3,0.2,0.1,0.4-1,0.7l-0.1,0l0,0c-0.8,0.3-1.6,0.5-2.5,0.7
						c-0.9,0.2-1.8,0.5-2.7,0.8c-0.9,0.3-1.8,0.4-2.7,0.8c-0.9,0.3-1.8,0.6-2.6,1c-0.5,0.2-1.1,0.4-1.6,0.6l-1.5,0.7
						c-1,0.5-2.1,0.9-3,1.5l-2.9,1.7c-1,0.6-1.9,1.3-2.8,1.9l-1.4,1c-0.5,0.3-0.9,0.7-1.3,1.1l-2.6,2.2c-1.6,1.6-3.3,3.1-4.6,4.9
						l-1.1,1.3l-0.5,0.6l-0.5,0.7l-1.9,2.8c-0.6,0.9-1.1,1.9-1.7,2.9l-0.8,1.5l-0.7,1.5c-2.1,4-3.3,8.4-4.3,12.8
						c-2.2,10.8-0.7,22.4,4,32.3C1169.4,410.6,1171.1,413.1,1172.7,415.7L1172.7,415.7z"/>
				</g>
			</g>
		</g>
		<g>
			<g>
				<g>
					<path class="st0" d="M1235.6,335.9c-0.5-0.2-1.1-0.3-1.6-0.5c-2-0.7-4-1.3-6.1-1.8c-0.1,0-0.2,0-0.3,0l0,0
						c-1.2-0.3-2.5-0.5-3.8-0.7c-2.9-0.4-5.9-0.5-8.9-0.6c-0.5,0-1.3,0-1.3-0.7c0-0.7,0.5-1.1,1.3-1.1l1.5,0l1.5,0.1
						c1,0,2,0.1,3,0.1c3,0.1,5.9,0.6,8.7,1.3c2.6,0.6,5.1,1.5,7.6,2.4c2.3,0.9,4.6,1.9,6.8,3.1c1.9,1.1,3.6,2.4,5.3,3.7
						c0.4,0.3,0.8,0.7,1.3,0.8l0,0c0.3,0.6,1.2,0.6,1.3,1.3v0c0.1,0.1,0.3,0.3,0.4,0.4c0.7,0.5,0.8,0.8,0,1.2
						c-0.2,0.1-0.3,0.3-0.5,0.3l0,0l0,0c-0.8,0-1.2-0.6-1.7-1c-2.5-2-5.1-3.8-7.9-5.3c-1.7-0.9-3.5-1.8-5.3-2.5
						C1236.6,336.3,1236,336.2,1235.6,335.9L1235.6,335.9z"/>
				</g>
			</g>
		</g>
		<g>
			<g>
				<g>
					<path class="st0" d="M1265.6,365.2c-0.2-0.5-0.5-0.9-0.7-1.4c-0.8-1.7-1.6-3.5-2.6-5.1c0-0.1-0.1-0.1-0.2-0.2l0,0
						c-0.6-1-1.2-2-1.8-2.9c-1.5-2.2-3.2-4.3-4.9-6.4c-0.3-0.3-0.7-0.9-0.2-1.3c0.5-0.5,1.1-0.4,1.6,0.2c1.2,1.4,2.2,2.9,3.5,4.3
						c1.7,2,3.1,4.3,4.5,6.6c1.2,2.1,2.2,4.3,3.1,6.5c0.9,2.1,1.7,4.2,2.3,6.4c0.2,0.9,0.4,1.9,0.6,2.9c0.1,1,0.3,1.9,0.4,2.9
						c0,0.5,0.1,0.9,0.4,1.3l0,0c-0.2,0.6,0.4,1.1,0,1.7l0,0c0,0.2,0,0.4,0,0.5c0.2,0.8,0,1-0.8,0.8c-0.2,0-0.4,0-0.5-0.1l0,0l0,0
						c-0.6-0.5-0.4-1.1-0.4-1.7c-0.4-2.8-0.9-5.7-1.7-8.4c-0.2-0.8-0.5-1.7-0.8-2.5c-0.3-0.8-0.6-1.7-0.9-2.5
						C1266,366.1,1265.7,365.6,1265.6,365.2L1265.6,365.2z"/>
				</g>
			</g>
		</g>
		<g>
			<g>
				<g>
					<path class="st0" d="M1303.6,155.5c0,0.1-0.1,0.2-0.2,0.3c-0.3,0.3-0.8,0.5-1.4,0.4c0,0-0.1,0-0.1,0l0,0
						c-0.4-0.1-0.6-0.4-0.8-0.7c-0.2-0.3-0.2-0.6-0.1-0.9c0.1-0.3,0.3-0.6,0.7-0.8c0.1,0,0.3-0.1,0.5,0.5c0.1,0.2,0.1,0.3,0.2,0.4
						c0,0,0,0,0,0s0,0,0,0c0,0,0.2,0.1,0.1,0.1c0,0-0.1,0-0.1,0.1c0,0,0,0,0,0c0-0.1-0.1-0.2,0-0.1c0.1,0,0.1,0,0.1,0.1
						c-0.1,0.1,0,0.1,0,0.1c0,0,0,0,0,0l0,0c0,0,0,0,0,0c0,0,0,0,0,0l0,0c-0.1,0-0.1-0.1-0.3-0.2c-0.1-0.1-0.3-0.2-0.4-0.3l0,0l0,0
						c-0.4-0.4,0-0.4,0.1-0.4c0.5-0.4,1.1-0.4,1.6,0.1c0.3,0.3,0.4,0.9,0.4,1.3C1303.7,155.3,1303.8,155.4,1303.6,155.5
						L1303.6,155.5z"/>
				</g>
			</g>
		</g>
		<g>
			<g>
				<g>
					<path class="st0" d="M1312.8,154.6c0,0.1-0.1,0.2-0.2,0.3c-0.3,0.3-0.8,0.5-1.4,0.4c0,0-0.1,0-0.1,0l0,0
						c-0.4-0.1-0.6-0.4-0.8-0.7c-0.2-0.3-0.2-0.6-0.1-0.9c0.1-0.3,0.3-0.6,0.7-0.8c0.1,0,0.3-0.1,0.5,0.5c0.1,0.2,0.1,0.3,0.2,0.4
						l0,0c0,0,0,0,0,0c0,0,0.2,0.1,0.1,0.1c0,0-0.1,0-0.1,0.1c0,0,0,0,0,0c0-0.1-0.1-0.2,0-0.1c0.1,0,0.1,0,0.1,0.1
						c-0.1,0.1,0,0.1,0,0.1c0,0,0,0,0,0l0,0c0,0,0,0,0,0c0,0,0,0,0,0l0,0c-0.1,0-0.1-0.1-0.3-0.2c-0.1-0.1-0.3-0.2-0.4-0.3l0,0l0,0
						c-0.4-0.4,0-0.4,0.1-0.4c0.5-0.4,1.1-0.4,1.6,0.1c0.3,0.3,0.4,0.9,0.4,1.3C1312.9,154.4,1312.9,154.6,1312.8,154.6
						L1312.8,154.6z"/>
				</g>
			</g>
		</g>
		<g>
			<g>
				<g>
					<path class="st0" d="M1277.4,302.3c0.4,0.3,0.8,0.6,1.1,1c0.7,0.7,1.4,1.3,2,2l1,1c0.3,0.4,0.6,0.6,1,1.1
						c0.1,0.1,0.2,0.2,0.3,0.3l0,0c0.2,0.3,0.4,0.8,0.5,1.3c0,0.5-0.1,0.9-0.2,1.3c-0.3,0.7-0.5,1.2-0.8,1.7c-1.2,2.4-2.3,4.8-3.7,7
						c-0.2,0.4-0.5,1-1.1,0.7c-0.6-0.3-0.8-0.9-0.4-1.6c0.8-1.5,1.8-3,2.4-4.6c0.5-1.2,1-2.3,1.6-3.4c0.2-0.5,0.3-0.9,0.2-1.1
						c-0.1-0.3-0.6-0.7-1-1.2c-1.6-1.6-3.2-3.2-4.9-4.7c-1.6-1.4-3.3-2.7-4.9-4.1c-1.4-1.2-2.7-2.5-4.1-3.7
						c-0.3-0.3-0.7-0.6-1.2-0.6l0,0c-0.2-0.5-1-0.4-1.1-1.1v0c-0.1-0.1-0.2-0.2-0.4-0.3c-0.7-0.4-0.7-0.7,0-1.1
						c0.1-0.1,0.2-0.3,0.4-0.3l0,0l0,0c0.7-0.1,1.1,0.5,1.6,0.8c2.3,1.7,4.5,3.4,6.7,5.3c1.3,1.1,2.6,2.3,3.9,3.4
						C1276.6,301.7,1277.1,301.9,1277.4,302.3L1277.4,302.3z"/>
				</g>
			</g>
		</g>
		<g>
			<g>
				<g>
					<path class="st0" d="M1293.8,338.2c-0.2,0.3-0.4,0.6-0.6,0.9l-2.3,3.1c0,0.1,0,0.1-0.1,0.2l0,0c-0.5,0.6-0.9,1.3-1.4,1.9
						c-1,1.5-2,3-3.2,4.4c-0.2,0.2-0.4,0.6-1,0.2c-0.6-0.4-0.8-0.9-0.5-1.3c0.7-1,1.5-1.9,2.1-2.9c0.8-1.5,1.9-2.9,2.9-4.3
						c0.9-1.3,1.8-2.5,2.8-3.8c0.9-1.2,1.6-2.4,2.6-3.6c0.8-1,1.7-1.9,2.6-2.8c0.2-0.2,0.4-0.4,0.4-0.8l0,0c0.5-0.1,0.3-0.7,0.8-0.7
						l0,0c0.1-0.1,0.2-0.1,0.3-0.2c0.2-0.5,0.5-0.4,1,0.2c0.1,0.1,0.3,0.3,0.3,0.4l0,0l0,0c0.2,0.6-0.3,0.8-0.5,1.1
						c-1.2,1.5-2.4,3-3.6,4.5c-0.7,0.9-1.5,1.8-2.1,2.8C1294.2,337.6,1294.1,337.9,1293.8,338.2L1293.8,338.2z"/>
				</g>
			</g>
		</g>
		<g>
			<g>
				<g>
					<path class="st0" d="M1278.2,357.4c-0.1,0.1-0.1,0.2-0.2,0.3l-1,0.9c0,0,0,0.1,0,0.1l0,0c-0.2,0.2-0.4,0.4-0.6,0.6
						c-0.4,0.5-0.9,1-1.5,1.3c-0.1,0.1-0.2,0.2-0.7-0.3c-0.5-0.5-0.8-0.8-0.6-1c0.3-0.3,0.8-0.5,1-0.9c0.3-0.6,0.9-1,1.3-1.5
						c0.4-0.4,0.9-0.8,1.3-1.2c0.4-0.4,0.7-0.9,1.1-1.2c0.4-0.3,0.8-0.4,1.1-0.7c0.1-0.1,0.2-0.1,0-0.3l0,0c0.3,0.1-0.1-0.3,0.3-0.1
						l0,0c0,0,0.1,0,0.1-0.1c-0.1-0.1,0.2-0.1,0.9,0.3c0.1,0.1,0.4,0.2,0.4,0.3l0,0l0,0c0.4,0.4,0.1,0.5,0,0.6
						c-0.5,0.8-1.2,1.2-1.7,1.7c-0.3,0.3-0.7,0.5-0.9,0.9C1278.4,357.2,1278.4,357.4,1278.2,357.4L1278.2,357.4z"/>
				</g>
			</g>
		</g>
		<g>
			<g>
				<g>
					<path class="st0" d="M1271.3,339.7c-0.1,0.2-0.1,0.3-0.2,0.5l-0.9,1.6c0,0,0,0.1,0,0.1l0,0c-0.2,0.3-0.4,0.6-0.5,0.9
						c-0.4,0.8-0.8,1.5-1.3,2.1c-0.1,0.1-0.2,0.3-0.8,0c-0.6-0.4-0.9-0.7-0.8-0.9c0.3-0.5,0.7-0.9,0.9-1.4c0.2-0.8,0.7-1.4,1-2.2
						c0.3-0.6,0.7-1.3,1-1.9c0.3-0.6,0.5-1.3,0.8-1.9c0.3-0.5,0.7-0.9,1-1.4c0.1-0.1,0.2-0.2,0-0.5l0,0c0.3,0-0.1-0.4,0.4-0.4l0,0
						c0,0,0.1-0.1,0.1-0.1c0-0.3,0.3-0.2,0.9,0.2c0.1,0.1,0.4,0.2,0.4,0.3l0,0l0,0c0.4,0.4,0.1,0.4,0,0.6c-0.4,0.8-0.8,1.6-1.2,2.4
						c-0.2,0.5-0.5,1-0.7,1.5C1271.4,339.4,1271.4,339.6,1271.3,339.7L1271.3,339.7z"/>
				</g>
			</g>
		</g>
		<g>
			<g>
				<g>
					<path class="st0" d="M1258.1,364c-0.1,0.1-0.1,0.2-0.2,0.3c-0.3,0.3-0.6,0.6-0.9,0.8c0,0,0,0.1,0,0.1l0,0
						c-0.2,0.2-0.4,0.3-0.6,0.5c-0.4,0.4-0.9,0.8-1.5,1c-0.1,0-0.2,0.1-0.6-0.4c-0.4-0.6-0.6-0.9-0.5-1c0.3-0.2,0.7-0.3,0.9-0.6
						c0.3-0.5,0.7-0.8,1.1-1.2c0.3-0.4,0.7-0.7,1-1c0.3-0.3,0.5-0.8,0.8-1.1c0.3-0.3,0.6-0.5,0.9-0.7c0.1-0.1,0.2-0.1,0-0.3l0,0
						c0.3,0.1-0.1-0.3,0.4-0.1l0,0c0,0,0.1,0,0.1-0.1c0-0.2,0.2-0.1,0.8,0.4c0.1,0.1,0.3,0.2,0.4,0.3l0,0l0,0c0.3,0.4,0.1,0.4,0,0.5
						c-0.4,0.5-0.8,1-1.2,1.5c-0.2,0.3-0.5,0.6-0.7,0.9C1258.2,363.8,1258.2,363.9,1258.1,364L1258.1,364z"/>
				</g>
			</g>
		</g>
		<g>
			<g>
				<g>
					<path class="st0" d="M1258.9,369c0.1,0,0.3,0,0.4,0c0.5,0.1,1,0.2,1.4,0.2c0,0,0,0,0.1-0.1l0,0c0.3,0,0.6,0,0.9-0.1
						c0.7-0.1,1.2-0.3,1.9-0.5c0.1,0,0.2-0.1,0.6,0.4c0.4,0.6,0.5,1,0.3,1.1c-0.6,0.3-1.1,0.3-1.7,0.6c-0.8,0.4-1.6,0.4-2.4,0.4
						c-0.7,0-1.5-0.1-2.2-0.3c-0.7-0.1-1.4-0.2-2-0.4c-0.5-0.2-1-0.6-1.5-0.9c-0.1-0.1-0.2-0.2-0.4,0l0,0c0-0.3-0.4,0.1-0.3-0.4l0,0
						c0,0-0.1-0.1-0.1-0.1c-0.3,0-0.2-0.2,0.2-0.9c0.1-0.1,0.2-0.4,0.3-0.4l0,0l0,0c0.4-0.4,0.4-0.1,0.6,0c0.8,0.3,1.5,0.6,2.2,0.9
						c0.5,0.2,0.9,0.3,1.4,0.4C1258.6,369,1258.8,368.9,1258.9,369L1258.9,369z"/>
				</g>
			</g>
		</g>
		<g>
			<g>
				<g>
					<path class="st0" d="M1251.8,371.8c0,0.1,0,0.2-0.1,0.3l-0.6,0.9c0,0,0,0,0,0.1l0,0c-0.1,0.2-0.2,0.4-0.3,0.5
						c-0.2,0.4-0.5,0.9-0.9,1.2c-0.1,0.1-0.1,0.2-0.7-0.1c-0.6-0.3-0.9-0.6-0.9-0.7c0.2-0.3,0.5-0.5,0.6-0.8
						c0.1-0.5,0.4-0.9,0.6-1.3c0.2-0.4,0.4-0.8,0.6-1.2c0.2-0.4,0.3-0.8,0.5-1.2c0.2-0.3,0.5-0.5,0.8-0.8c0.1-0.1,0.1-0.1,0-0.4l0,0
						c0.3,0.1,0.1-0.5,0.5-0.3l0,0c0.1,0,0.1,0,0.2-0.1c0.2-0.2,0.3,0,0.6,0.7c0.1,0.1,0.2,0.3,0.2,0.4l0,0l0,0
						c0.2,0.4,0.1,0.2,0,0.3c0,0-0.2,0.3-0.3,0.5l-0.4,0.7c-0.2,0.3-0.4,0.5-0.4,0.9C1251.9,371.6,1251.9,371.7,1251.8,371.8
						L1251.8,371.8z"/>
				</g>
			</g>
		</g>
		<g>
			<g>
				<g>
					<path class="st0" d="M1257.7,378.7c0.2,0.1,0.5,0.1,0.7,0.2c0.9,0.3,1.7,0.7,2.6,1.1c0,0,0.1,0,0.2,0l0,0l1.5,0.7
						c1.2,0.5,2.4,1,3.4,1.8c0.2,0.1,0.5,0.3,0.2,0.9c-0.3,0.6-0.7,0.9-1,0.7c-0.7-0.4-1.4-0.9-2.2-1.1c-1.2-0.3-2.3-0.9-3.4-1.3
						c-1-0.4-2-0.8-3.1-1.1c-1-0.3-2-0.5-2.9-0.8c-0.8-0.3-1.6-0.7-2.4-1c-0.2-0.1-0.4-0.2-0.7,0l0,0c-0.1-0.4-0.6,0.1-0.7-0.4v0
						c-0.1,0-0.1-0.1-0.2-0.1c-0.4,0-0.4-0.3-0.1-1c0.1-0.2,0.1-0.4,0.2-0.5l0,0l0,0c0.4-0.4,0.6-0.1,0.9,0c1.3,0.3,2.6,0.7,3.9,1.2
						c0.8,0.3,1.6,0.6,2.4,0.8C1257.2,378.6,1257.5,378.6,1257.7,378.7L1257.7,378.7z"/>
				</g>
			</g>
		</g>
		<g>
			<g>
				<g>
					<path class="st3" d="M1241.9,253.2c1-0.2,1.9-0.4,2.9-0.6c3.7-0.7,7.3-1.7,10.9-2.8c0.2-0.1,0.4-0.1,0.5-0.2l0,0
						c2.2-0.6,4.4-1.3,6.6-2c5-1.6,10.1-3.3,15.2-4.8c0.8-0.2,2.1-0.6,2.3,0c0.2,0.7-0.6,1.4-2,1.8c-3.3,1-6.7,2-10,3.2
						c-4.8,1.8-9.6,3.2-14.5,4.7c-2.2,0.6-4.4,1.2-6.7,1.7c-2.2,0.5-4.5,1-6.9,1.2c-0.5,0.1-1.1,0.1-1.7,0.1c-0.7,0-1.4-0.1-2-0.4
						c-0.7-0.3-1.2-0.8-1.6-1.3c-0.4-0.5-0.7-1.1-0.9-1.6c-0.4-1.1-0.7-2.2-0.9-3.2c-0.3-1-0.5-2.1-0.8-3.1
						c-0.4-1.8-0.8-3.6-1.2-5.5c-0.3-1.8-0.6-3.7-0.9-5.5c-0.1-0.9-0.3-1.8-0.6-2.6l0,0c0.1-1-0.6-2.1-0.3-3.2l0,0
						c0-0.3,0-0.7-0.1-1c-0.3-1.5-0.1-1.9,0.7-1.5c0.2,0.1,0.4-0.1,0.5,0.3l0,0l0,0c0.6,1,0.6,2.2,0.7,3.4c0.4,2.8,0.9,5.5,1.5,8.3
						c0.6,2.8,1.3,5.5,1.9,8.2l0.6,2.5c0.2,0.8,0.4,1.6,0.7,2.3c0.3,0.7,0.7,1.3,1.2,1.6c0.2,0.2,0.5,0.2,0.8,0.3c0.2,0,0.3,0,0.5,0
						l0.6,0C1240.1,253.4,1241,253.2,1241.9,253.2L1241.9,253.2z"/>
				</g>
			</g>
		</g>
		<g>
			<g>
				<g>
					<path class="st3" d="M1257.2,269.7c-0.2-0.4-0.4-0.8-0.5-1.3c-0.6-1.6-1.2-3.3-1.9-4.8c0-0.1-0.1-0.1-0.2-0.2l0,0
						c-0.2-0.5-0.4-0.9-0.7-1.4l-0.7-1.4c-1.2-2.2-2.3-4.4-3.3-6.7c-0.1-0.4-0.5-0.9,0.2-1.2c0.6-0.3,1.2-0.1,1.5,0.5
						c0.7,1.5,1.3,3,2.2,4.4c0.6,1,1.2,2,1.8,3.1c0.6,1.1,1.1,2.2,1.6,3.3c0.9,2,1.6,4,2.3,6c0.7,1.9,1.4,3.8,1.9,5.8
						c0.4,1.7,0.6,3.5,0.8,5.2c0,0.4,0,0.9,0.3,1.2l0,0c-0.3,0.5,0.3,1.1-0.1,1.6l0,0c0,0.2-0.1,0.3,0,0.5c0.1,0.8-0.2,0.9-0.9,0.6
						c-0.2-0.1-0.4,0-0.5-0.2l0,0l0,0c-0.5-0.5-0.2-1-0.3-1.5c-0.2-2.5-0.8-5.1-1.5-7.6c-0.4-1.5-0.9-3.1-1.5-4.6
						C1257.6,270.5,1257.3,270.1,1257.2,269.7L1257.2,269.7z"/>
				</g>
			</g>
		</g>
		<g>
			<g>
				<g>
					<path class="st3" d="M1225.2,253.3c-0.3,0.2-0.5,0.4-0.8,0.5l-3,1.7c-0.1,0-0.1,0.1-0.1,0.1l0,0c-0.6,0.3-1.2,0.7-1.8,1
						c-1.4,0.8-2.7,1.7-4.2,2.4c-0.2,0.1-0.6,0.3-1-0.2c-0.4-0.6-0.4-1.1,0-1.3c0.9-0.5,1.9-1,2.8-1.6c1.2-1,2.6-1.7,4-2.5
						c1.2-0.7,2.4-1.4,3.6-2.1c1.1-0.7,2.2-1.5,3.3-2.1c1-0.6,2-1,3-1.6c0.2-0.1,0.5-0.3,0.5-0.6l0,0c0.4,0.1,0.4-0.6,0.9-0.4l0,0
						c0.1,0,0.2-0.1,0.3-0.1c0.3-0.4,0.5-0.2,0.9,0.5c0.1,0.2,0.2,0.3,0.2,0.5l0,0l0,0c0,0.6-0.4,0.6-0.7,0.8
						c-1.4,1-2.9,1.9-4.4,2.8c-0.9,0.6-1.8,1.1-2.7,1.7C1225.7,253,1225.5,253.2,1225.2,253.3L1225.2,253.3z"/>
				</g>
			</g>
		</g>
	</g>
	<g>
		<path class="st2" d="M500.5,128.9c-0.2-0.2-0.5-0.3-0.7-0.4c-0.3,0-0.7-0.1-0.8,0l-0.6,0.1l-0.5,0.1l-1.9,0.4l-3.9,1l0,0
			c-1.3,0.3-2.5,0.6-3.7,0.9c-4.5,1.1-9,2.2-13.5,3.2l-9.1,2.1l-4.5,1.1l-2.8,0.7c-0.4,0.1-0.6,0.2-0.7,0.3
			c-0.1,0.1-0.2,0.2-0.3,0.4c0,0.1,0,0.3,0,0.3c0,0.1,0.1,0.1,0.1,0.2c0.1,0.1,0.2,0.3,0.5,0.5l4.2,2c1.3,0.6,2.7,1.4,4,1.7l3.2-1.3
			c1.5-0.6,3.1-1.2,4.6-1.9c0.4-0.2,0.8-0.4,1.2-0.6l0,0c0.4-0.2,0.9-0.4,1.3-0.6l5.1-2c0.1,0,0.2-0.1,0.2-0.1l0,0l3.1-1.2
			c2.3-1,4.7-1.9,7.1-2.8c0.4-0.1,1-0.4,1.2,0.1c0.2,0.5-0.1,0.9-0.8,1.2c-1.6,0.6-3.2,1.1-4.7,1.8c-2.2,1-4.5,1.9-6.7,2.8l-6.1,2.5
			c-1.9,0.8-3.7,1.7-5.6,2.4c-0.5,0.2-1,0.4-1.6,0.6c0.5,0.4,1.3,0.9,1.9,1.2l9.2,5.4l1.2,0.7l0.6,0.3c0.2,0.1,0.3,0.2,0.8,0.4
			c0.4,0.1,0.7,0.1,1.1-0.1c0.2-0.1,0.4-0.2,0.6-0.3c0.1-0.1,0.2-0.2,0.2-0.2l0.1-0.1l0.9-1l3.4-4.1l6-7l0,0
			c0.2-0.2,0.3-0.4,0.5-0.6l4.9-5.8c0.4-0.5,0.8-1,1.2-1.6c0.2-0.3,0.4-0.5,0.6-1.1C500.8,130,500.9,129.4,500.5,128.9z"/>
		<g>
			<g>
				<g>
					<path class="st2" d="M468.5,150.2C468.5,150.2,468.6,150.2,468.5,150.2C468.6,150.2,468.6,150.3,468.5,150.2
						C468.6,150.2,468.6,150.2,468.5,150.2L468.5,150.2C468.6,150.2,468.6,150.2,468.5,150.2l0.1,0l0.2-0.1c0.6-0.5,1.2-0.9,2-1.2
						c0.1,0,0.3-0.2,0.7,0.4c0.4,0.6,0.5,1,0.4,1.1c-0.4,0.2-1,0.4-1.3,0.8c-0.1,0.1-0.3,0.3-0.4,0.4l-0.2,0.2l-0.3,0.2l-0.8,0.6
						c-0.3,0.2-0.5,0.2-0.7,0.3c-0.4,0.1-1-0.1-1.2-0.5c-0.1-0.2-0.2-0.3-0.3-0.6c-0.1-0.3-0.1-0.6-0.1-0.9c0-0.2-0.1-0.7-0.1-0.7
						l-0.1-0.5c-0.1-0.3-0.1-0.6-0.1-0.9c0-0.5,0.1-1.1,0.2-1.6c0-0.1,0-0.3-0.2-0.4l0,0c0.3-0.2-0.3-0.3,0.2-0.5l0,0
						c0,0,0.1-0.1,0-0.1c-0.1-0.2,0.1-0.3,0.9-0.2c0.2,0,0.4,0,0.5,0l0,0l0,0c0.5,0.1,0.3,0.3,0.3,0.5c0.1,0.8,0.1,1.6,0.2,2.5
						l0,0.8l0,0.4L468.5,150.2C468.4,150.2,468.4,150.2,468.5,150.2C468.5,150.2,468.6,150.2,468.5,150.2L468.5,150.2z"/>
				</g>
			</g>
		</g>
	</g>
	<g>
		<path class="st4" d="M760,352.8c-0.1-0.4-0.4-0.6-0.6-0.9c-0.3-0.2-0.6-0.4-0.8-0.5l-0.6-0.2l-0.5-0.1l-1.9-0.4l-3.9-0.7l0,0
			c-1.2-0.3-2.4-0.5-3.5-0.7c-4.1-0.8-7.9-1.6-11.5-2.4l-6.8-1.4l-3.2-0.7l-1.9-0.4c-0.2-0.1-0.4,0-0.6,0c-0.1,0.1-0.2,0.1-0.4,0.3
			c-0.1,0.1-0.2,0.2-0.2,0.3c0,0.1,0,0.1,0,0.2c0,0.2-0.1,0.4,0,0.6l1.2,3.7c0.4,1.2,0.7,2.7,1.3,3.7l2.8,0c1.4,0,2.7,0,4.1,0
			c0.4,0,0.8-0.1,1.2-0.1l0,0c0.4,0,0.8-0.1,1.2-0.1l4.8,0.1c0.1,0,0.2,0,0.3-0.1l0,0l3,0c2.3,0,4.7,0,7.2,0.2c0.4,0,1,0,1,0.7
			c0,0.7-0.4,1.1-1.1,1.1c-1.6-0.1-3.3-0.3-4.9-0.2c-2.3,0.1-4.5,0-6.8,0l-5.8,0c-1.8,0-3.5,0.1-5.2,0.1c-0.5,0-0.9,0-1.4-0.1
			c0.1,0.7,0.3,1.7,0.5,2.4l3.2,13.8l0.5,2l0.3,1.1c0.1,0.3,0.1,0.7,0.4,1.4c0.3,0.5,0.6,0.7,1,0.8c0.2,0.1,0.4,0.1,0.7-0.1
			c0.1,0,0.3-0.1,0.3-0.2l0.2-0.1l1.4-1.1l5.5-4.4l9.1-7.1l0,0c0.2-0.2,0.5-0.4,0.7-0.6l7-5.4c0.6-0.4,1.2-0.9,1.7-1.5
			c0.3-0.3,0.5-0.5,0.9-1.1C760.1,354.4,760.3,353.6,760,352.8z"/>
	</g>
	<g>
		<g>
			<path class="st1" d="M945.7,82.3c0.9-2.8,1.2-5.9,2.3-8.6c1.5-3.7,3.3-7.4,4.7-11.2c0.1-0.4,0.3-0.8,0.7-0.9
				c0.4-0.2,0.9,0,1.3,0.3c6.8,3.7,13.6,7.5,20.2,11.5c5.3,3.2,10.7,6.3,16.1,9.3c0.6,0.4,1.3,0.7,1.8,1.3c2.5,2.7-1.5,3.1-3.3,3.2
				c-2.3,0-4.6,0.1-6.9,0.1c-4.5,0.1-9,0.1-13.4,0.2c-9,0.1-17.9,0.3-26.9,0.4C943.6,87.8,944.8,85.3,945.7,82.3z"/>
		</g>
		<g>
			<g>
				<g>
					<path class="st3" d="M959.2,75c0.4,0.1,0.8,0.1,1.2,0.2l4.6,1.1c0.1,0,0.2,0,0.2,0l0,0l2.8,0.7c2.1,0.5,4.3,1.1,6.3,2
						c0.3,0.2,0.9,0.4,0.6,1c-0.3,0.7-0.8,0.9-1.3,0.7c-1.3-0.5-2.6-1.1-4.1-1.3c-2.1-0.4-4.1-1-6.1-1.4c-1.8-0.4-3.6-0.9-5.5-1.3
						c-1.7-0.4-3.5-0.6-5.2-1c-1.5-0.3-2.9-0.9-4.4-1.3c-0.3-0.1-0.7-0.2-1.1,0l0,0c-0.3-0.4-0.9,0.1-1.2-0.5l0,0
						c-0.1,0-0.3-0.1-0.4-0.1c-0.6,0-0.7-0.3-0.4-1c0.1-0.2,0.1-0.4,0.3-0.5l0,0l0,0c0.5-0.4,1-0.1,1.4,0l6.8,1.5
						c1.4,0.3,2.8,0.7,4.2,0.9C958.4,74.8,958.8,74.8,959.2,75L959.2,75z"/>
				</g>
			</g>
		</g>
	</g>
	<g>
		<g>
			<g>
				<path class="st5" d="M1461.5,87.6c-2.3-1.9-5-3.4-7.1-5.5c-2.9-2.9-5.5-5.9-8.5-8.7c-0.3-0.3-0.6-0.6-0.6-1
					c0-0.5,0.4-0.8,0.7-1.1c6-4.8,12.2-9.6,18.4-14.1c5-3.6,9.9-7.4,14.9-11.1c0.6-0.5,1.2-0.9,1.9-1.2c3.5-1.2,2.3,2.6,1.6,4.3
					c-0.9,2.1-1.7,4.3-2.6,6.4c-1.7,4.2-3.4,8.3-5,12.5c-3.4,8.3-6.7,16.6-10.1,24.9C1465.8,91.6,1463.9,89.6,1461.5,87.6z"/>
			</g>
			<g>
				<g>
					<g>
						<path class="st3" d="M1460,72.3c0.2-0.3,0.4-0.7,0.7-1l2.8-3.8c0-0.1,0.1-0.1,0.1-0.2l0,0l1.7-2.3c1.3-1.8,2.7-3.5,4.3-5
							c0.3-0.2,0.7-0.7,1.2-0.2c0.5,0.5,0.5,1.1,0.1,1.5c-1,1-2,2-2.8,3.2c-1.1,1.7-2.5,3.4-3.7,5.1c-1.1,1.5-2.2,3-3.3,4.6
							c-1,1.4-1.9,3-3,4.4c-0.9,1.2-1.9,2.4-2.9,3.6c-0.2,0.3-0.5,0.6-0.5,1l0,0c-0.5,0.2-0.3,0.9-0.9,0.9h0
							c-0.1,0.1-0.2,0.2-0.3,0.3c-0.3,0.6-0.6,0.6-1.1-0.1c-0.1-0.1-0.3-0.2-0.3-0.4l0,0l0,0c-0.2-0.7,0.3-0.9,0.6-1.3l4-5.7
							c0.8-1.2,1.7-2.3,2.4-3.5C1459.6,73,1459.7,72.6,1460,72.3L1460,72.3z"/>
					</g>
				</g>
			</g>
		</g>
		<g>
			<g>
				<g>
					<path class="st5" d="M1456.1,90.5C1456.2,90.5,1456.2,90.4,1456.1,90.5L1456.1,90.5c0.1,0,0.1,0.1,0.1,0.1
						C1456.2,90.5,1456.2,90.5,1456.1,90.5L1456.1,90.5C1456.2,90.4,1456.2,90.5,1456.1,90.5c0.5-0.7,0.7-1.5,1.1-2.3
						c0.1-0.1,0.1-0.4,0.8-0.3c0.7,0.1,1.1,0.3,1,0.6c-0.2,0.7-0.5,1.3-0.7,1.9c0,0.2-0.1,0.5-0.2,0.7l-0.1,0.2l-0.1,0.2l-0.3,0.6
						c-0.2,0.4-0.4,0.8-0.6,1c-0.2,0.2-0.4,0.3-0.7,0.4c-0.5,0.1-0.8-0.2-1.2-0.5c-0.2-0.3-0.4-0.6-0.6-1l-0.4-1
						c-0.3-0.7-0.7-1.4-1-2.2c-0.2-0.7-0.2-1.4-0.3-2c0-0.2,0-0.3-0.3-0.4l0,0c0.3-0.3-0.4-0.3,0.1-0.6l0,0c0-0.1,0-0.1,0-0.2
						c-0.2-0.2,0.1-0.4,0.8-0.4c0.2,0,0.4-0.1,0.5,0l0,0l0,0c0.6,0.1,0.4,0.3,0.4,0.5c0.3,1,0.5,1.9,0.9,2.8
						c0.2,0.6,0.4,1.1,0.7,1.7C1456,90.2,1456.1,90.3,1456.1,90.5L1456.1,90.5z"/>
				</g>
			</g>
		</g>
	</g>
	<g>
		<g>
			<g>
				<path class="st6" d="M175.6,231.9c0.1-2.9-0.4-6-0.1-9c0.4-4,1.2-8,1.5-12c0-0.4,0.1-0.8,0.4-1.1c0.4-0.3,0.9-0.2,1.3-0.1
					c7.6,1.7,15.1,3.5,22.6,5.5c6,1.7,12,3.1,18,4.6c0.7,0.2,1.5,0.4,2.1,0.8c3.1,1.9-0.5,3.4-2.3,3.9c-2.2,0.7-4.4,1.3-6.6,2
					c-4.3,1.3-8.6,2.6-12.9,3.9c-8.6,2.6-17.1,5.2-25.7,7.8C175.1,237.8,175.5,235,175.6,231.9z"/>
			</g>
			<g>
				<g>
					<g>
						<path class="st3" d="M186.6,221.2c0.4,0,0.8-0.1,1.2-0.1l4.7-0.1c0.1,0,0.2,0,0.2-0.1l0,0l2.8-0.1c2.2-0.1,4.4-0.1,6.6,0.2
							c0.4,0.1,1,0.1,0.9,0.8c-0.1,0.7-0.5,1.1-1.1,1c-1.4-0.1-2.8-0.3-4.3-0.1c-2.1,0.2-4.2,0.2-6.2,0.3c-1.9,0.1-3.7,0.1-5.6,0.3
							c-1.8,0.1-3.5,0.4-5.3,0.4c-1.5,0.1-3,0-4.6,0c-0.4,0-0.7,0-1.1,0.3l0,0c-0.4-0.3-0.9,0.3-1.3-0.1l0,0c-0.1,0-0.3,0-0.4,0
							c-0.6,0.1-0.8-0.1-0.6-0.9c0-0.2,0-0.4,0.1-0.5l0,0l0,0c0.4-0.5,0.9-0.3,1.4-0.4l7-0.5c1.4-0.1,2.9-0.1,4.3-0.3
							C185.8,221.2,186.2,221.1,186.6,221.2L186.6,221.2z"/>
					</g>
				</g>
			</g>
		</g>
		<g>
			<g>
				<g>
					<path class="st6" d="M170,229.5C170,229.5,170,229.5,170,229.5c0,0.1,0,0.1,0,0.1C170,229.6,170,229.6,170,229.5L170,229.5
						C170.1,229.6,170,229.6,170,229.5c0.9-0.1,1.7-0.4,2.5-0.6c0.1,0,0.3-0.1,0.7,0.4c0.4,0.6,0.4,1.1,0.1,1.2
						c-0.6,0.3-1.3,0.4-1.9,0.7c-0.2,0.1-0.5,0.2-0.7,0.3l-0.2,0l-0.2,0.1l-0.6,0.1c-0.4,0.1-0.9,0.2-1.2,0.1
						c-0.3,0-0.5-0.1-0.8-0.3c-0.2-0.2-0.3-0.5-0.4-0.7c0-0.2,0-0.5,0.1-0.8c0.1-0.3,0.3-0.6,0.5-1l0.4-0.7c0.4-0.7,0.6-1.5,1.1-2.1
						c0.4-0.6,0.9-1,1.4-1.5c0.1-0.1,0.2-0.2,0.1-0.5l0,0c0.4,0,0-0.5,0.5-0.3l0,0c0,0,0.1-0.1,0.1-0.1c0.1-0.3,0.3-0.2,0.9,0.4
						c0.1,0.1,0.3,0.2,0.4,0.4l0,0l0,0c0.3,0.5,0,0.5-0.2,0.7c-0.6,0.8-1.2,1.6-1.7,2.5c-0.3,0.5-0.6,1-0.9,1.6
						C170.1,229.2,170.1,229.4,170,229.5L170,229.5z"/>
				</g>
			</g>
		</g>
	</g>
	<g>
		<g>
			<g>
				<path class="st0" d="M1538.2,437.7c2.4,0,4.8-0.1,7.3-0.1c9.1,0,18.3,0,27.4,0c0.5,0,0.9,0,1.4-0.1l0,0c5.5,0,11.1,0,16.6,0
					c12.8,0,25.6,0,38.4,0.2c2,0,5.4,0,5.3,0.7c-0.1,0.7-2.3,1.1-5.8,1.1c-8.4-0.1-16.9-0.2-25.3-0.1c-12.3,0.2-24.5,0.1-36.7,0.1
					c-11,0-22,0-33,0c-10.3,0-20.6,0.2-31,0.2c-8.9,0-17.8-0.2-26.7-0.2c-2.1,0-4.3-0.1-6.3,0.2l0,0c-2.4-0.3-5.3,0.3-7.6-0.2l0,0
					c-0.8,0-1.7-0.1-2.5,0c-3.7,0.1-4.6-0.1-3.4-0.9c0.3-0.2,0-0.4,0.8-0.5c0,0,0.1,0,0.1,0l0,0c2.5-0.5,5.5-0.3,8.3-0.3
					c13.6-0.1,27.2-0.1,40.8-0.1c8.4,0,16.7,0,25.1-0.1C1533.6,437.8,1535.9,437.7,1538.2,437.7L1538.2,437.7z"/>
			</g>
		</g>
	</g>
	<g>
		<g>
			<g>
				<path class="st0" d="M1313.1,437.7c1.6,0,3.2-0.1,4.9-0.1c6.1,0,12.3,0,18.4,0c0.3,0,0.6,0,0.9-0.1l0,0c3.7,0,7.4,0,11.1,0
					c8.6,0,17.2,0,25.7,0.2c1.3,0,3.6,0,3.6,0.7c0,0.7-1.6,1.1-3.9,1.1c-5.7-0.1-11.3-0.2-17-0.1c-8.2,0.2-16.4,0.1-24.7,0.1
					c-7.4,0-14.8,0-22.1,0c-6.9,0-13.9,0.2-20.8,0.2c-6,0-12-0.2-17.9-0.2c-1.4,0-2.9-0.1-4.2,0.2l0,0c-1.6-0.3-3.5,0.3-5.1-0.2l0,0
					c-0.5,0-1.1-0.1-1.6,0c-2.5,0.1-3.1-0.1-2.3-0.9c0.2-0.2,0-0.4,0.6-0.5c0,0,0,0,0,0l0,0c1.7-0.5,3.7-0.3,5.6-0.3
					c9.1-0.1,18.3-0.1,27.4-0.1c5.6,0,11.2,0,16.8-0.1C1310.1,437.8,1311.6,437.7,1313.1,437.7L1313.1,437.7z"/>
			</g>
		</g>
	</g>
	<g>
		<g>
			<g>
				<path class="st0" d="M626,437.7c13.9,0,27.7-0.1,41.6-0.1c52.4,0,104.8,0,157.3,0c2.7,0,5.3,0,8-0.1l-0.2,0
					c31.7,0,63.4,0,95.1,0c73.3,0,146.7,0,219.8,0.2c11.4,0,30.9,0,30.5,0.7c-0.4,0.7-13.4,1.1-33.4,1.1
					c-48.3-0.1-96.8-0.2-144.8-0.1c-70.2,0.2-140.4,0.1-210.6,0.1c-63,0-126.1,0-189.1,0c-59.2,0-118.4,0.2-177.5,0.2
					c-51.1,0-102.1-0.2-153.2-0.2c-12,0-24.8-0.1-36.2,0.2l0.2,0c-13.9-0.3-30.1,0.3-43.6-0.2l0,0c-4.7,0-9.5-0.1-14.1,0
					c-21,0.1-26.5-0.1-19.5-0.9c1.5-0.2-0.2-0.4,4.8-0.5c0,0,0.4,0,0.4,0l-0.1,0c14.2-0.5,31.7-0.3,47.6-0.3
					c78-0.1,156.1-0.1,234.1-0.1c47.9,0,95.8,0,143.6-0.1c13.1,0,26.2-0.1,39.5-0.1L626,437.7z"/>
			</g>
		</g>
	</g>
</g>
</svg>
