<svg id="Layer_1" data-name="Layer 1" xmlns="http://www.w3.org/2000/svg" viewBox="0 0 560.08 322.56"><defs><style>.cls-1{fill:#597e8e;}.cls-1,.cls-6{stroke:#0d2e42;stroke-linecap:round;stroke-linejoin:round;stroke-width:4px;}.cls-10,.cls-2,.cls-9{fill:none;}.cls-3{fill:#f6f6f6;}.cls-4{fill:#c6c6c6;}.cls-5{fill:#0d2e42;}.cls-6,.cls-8{fill:#eabc8f;}.cls-7{fill:#5d7785;}.cls-9{stroke:#838e91;stroke-width:4.08px;}.cls-10,.cls-9{stroke-miterlimit:10;}.cls-10{stroke:#5d7785;stroke-width:3px;}</style></defs><title>Untitled-3</title><path class="cls-1" d="M557.75,131.34v-.08c0-.28,0-.58.06-.87l.05-.84c.06-1,.11-1.87.14-2.76v-.08c0-.09,0-.6,0-1.42s0-1.48,0-2.44c0-.24,0-.48,0-.75v-.63c0-1.38-.06-2.11-.16-3.69v-.25h0c-.06-.94-.14-1.92-.23-2.91-.07-.73-.12-1.17-.12-1.2-.09-.81-.18-1.54-.26-2.17s-.18-1.41-.3-2.07c-.19-1.22-.72-4.45-1.66-8.21-.13-.58-.3-1.25-.51-2-.11-.42-.23-.82-.38-1.31l-.15-.49-.27-.9c-.29-1-.5-1.64-.83-2.59-.18-.53-.29-.83-.29-.83-.31-.94-.95-2.67-1.78-4.7-.39-1-.79-1.9-1.23-2.88l-.34-.73-.11-.24h0c-.87-1.88-1.21-2.62-2.14-4.32s-1.33-2.53-2.36-4.28l-.09-.16h0l0,0-.7.45.69-.5c-.28-.49-.61-1-.95-1.58-.67-1.1-1.28-2-2-3.07l-.41-.62c-.43-.64-.94-1.37-1.45-2.08-.26-.38-.53-.77-.81-1.15l-.88-1.19c-1.22-1.7-3.06-4-4.7-5.86l-.88-1c-.87-1-2-2.2-3.26-3.54-.61-.65-1.21-1.27-1.76-1.83-1.07-1.08-3.82-3.82-6.19-5.84l-.55.64.46-.72c-1-.89-2-1.75-2.9-2.48l-.86-.71c-1.44-1.18-3.06-2.44-5.58-4.33l-.9-.68c-2.54-1.89-6.16-4.32-9-6.06l-2.13-1.28c-1.52-.94-3.06-1.84-4.59-2.69-.8-.44-1.6-.88-2.4-1.3-3.87-2.12-7.49-3.93-10.44-5.23s-6.23-2.7-9.72-4.08c-4.66-1.86-9-3.44-12.52-4.57-1.82-.6-3.63-1.16-5.51-1.7l-.89-.26C448.42,10.63,442.7,9.19,437,8c-1.83-.4-3.54-.74-5.07-1l-.27-.05a255.86,255.86,0,0,0-30-4l-.61-.05c-4.33-.44-10.24-.73-15-.75-4.4-.09-9-.09-13.8,0h-.13l-3.52.1c-5.42,0-12.36.58-17,1.05q-2.64.22-5.88.58h-.14c-3.61.39-7.31.87-11,1.41-4.78.69-9.5,1.45-13.64,2.21-4.3.71-10.25,2-17.7,3.75-5.62,1.34-12,2.91-17.1,4.39-5.68,1.51-12.71,3.71-17.5,5.24-5.46,1.74-13.38,4.3-19.2,6.48l-.4.15-2.32.83c-3.45,1.25-7.53,2.8-12.11,4.61l-4.52,1.71-6.76,2.83-5.24,2.16c-2.08.85-4.1,1.68-6,2.48-1.34.56-2.74,1.16-4.16,1.79-6.09,2.65-12.77,5.82-16.2,7.47-3,1.44-6.49,3.18-10.37,5.16l-7,3.48c-3.81,1.89-8.28,4.36-12.6,6.75-1.92,1.06-3.78,2.09-5.47,3-9.07,4.9-20.72,12-30.4,18.52-1.68,1.11-3.09,2.07-4.31,2.94l-.92.65c-4.18,2.89-9.39,6.49-13.21,9.44-1.18.89-2.56,2-4.2,3.25-3.41,2.6-6.25,4.85-8.66,6.89-2.83,2.32-5.26,4.42-7.22,6.22l-1.09,1-.31.28-1.42,1.3-.65.59-.93.86c-3.45,3.21-6.7,6.44-9.64,9.61l-1,1c-1.37,1.41-2.92,3.15-4.72,5.31l-.67.75c-1.38,1.52-2.94,3.46-4.91,6.1-.48.62-.92,1.21-1.33,1.77l-.15.19A84.48,84.48,0,0,0,53.1,157.8c-.34.59-.74,1.31-1.2,2.18-.63,1.14-1.34,2.44-1.84,3.56l-.38.8c-.54,1.06-1.15,2.46-2,4.47l-.09.21-.32.8c-.25.62-1.08,2.78-1.59,4.53-.36,1.16-.78,2.64-1.08,3.79-.12.46-.22.86-.31,1.28-.17.72-.28,1.26-.42,2l-.05.25c0,.24-.09.48-.14.73l.09,0a8.91,8.91,0,0,1,.9,0h.13l.15,0,.45.06.08-.42.06-.3c.13-.7.23-1.22.4-1.92.09-.41.18-.79.31-1.27.28-1.1.69-2.55,1.06-3.75s.89-2.74,1.55-4.39l.29-.74.11-.27c.75-1.87,1.37-3.27,1.88-4.28l.42-.87c.48-1.06,1.17-2.33,1.79-3.45.46-.86.84-1.56,1.19-2.16a82.84,82.84,0,0,1,7.31-11.14l.13-.17c.42-.57.86-1.16,1.34-1.78,1.94-2.61,3.47-4.51,4.82-6l.69-.77c1.8-2.15,3.32-3.87,4.66-5.24l1-1c2.93-3.15,6.15-6.36,9.57-9.54l.92-.85.66-.61,1.41-1.29.31-.28,1.09-1c1.94-1.78,4.35-3.86,7.17-6.17,2.4-2,5.21-4.27,8.61-6.86,1.64-1.3,3-2.35,4.19-3.24,3.8-2.92,9-6.51,13.15-9.39l.94-.66c1.21-.86,2.6-1.81,4.27-2.91,9.65-6.49,21.24-13.56,30.27-18.44,1.7-.92,3.56-1.95,5.49-3,4.31-2.38,8.76-4.85,12.54-6.72l7-3.49c3.87-2,7.35-3.7,10.34-5.14,3.43-1.65,10.08-4.8,16.15-7.45,1.41-.62,2.8-1.22,4.13-1.78,1.89-.79,3.9-1.62,6-2.47L224,39.09l6.74-2.82,4.5-1.7c4.58-1.81,8.64-3.35,12.08-4.6l2.32-.83L250,29c5.78-2.17,13.68-4.73,19.12-6.46,4.77-1.52,11.77-3.71,17.44-5.22,5-1.47,11.44-3,17-4.37,7.41-1.77,13.32-3,17.6-3.73s8.83-1.52,13.59-2.2c3.67-.54,7.34-1,10.94-1.4l.2,0c2.08-.23,4-.42,5.79-.57,4.65-.48,11.52-1,16.89-1h.12l3.43-.1h.12c4.74-.11,9.36-.12,13.75,0,4.76,0,10.6.3,14.9.74l.49,0h.15a256.57,256.57,0,0,1,29.78,3.93l.27.05c1.52.28,3.21.62,5,1,5.64,1.2,11.32,2.64,16.87,4.26l.88.26c1.87.54,3.65,1.09,5.46,1.69,3.49,1.12,7.79,2.69,12.41,4.54,3.47,1.37,6.81,2.77,9.66,4s6.48,3.07,10.32,5.18c.8.42,1.6.85,2.38,1.29,1.51.84,3,1.73,4.54,2.66l2.12,1.28c2.8,1.72,6.37,4.12,8.87,6l.89.67c2.5,1.88,4.1,3.12,5.53,4.29l.85.7c.88.73,1.87,1.58,2.86,2.45l.11.09c2.32,2,5,4.67,6.08,5.74.54.55,1.13,1.16,1.73,1.8,1.27,1.33,2.35,2.5,3.2,3.49l.89,1c1.6,1.82,3.4,4.07,4.59,5.72l.89,1.21c.26.36.52.73.78,1.11.51.72,1,1.42,1.43,2.05l.41.62c.68,1,1.28,1.94,1.93,3,.33.54.64,1.06.92,1.54l.11.19c1.05,1.79,1.49,2.56,2.35,4.26s1.23,2.36,2.1,4.25l.77-.35-.74.42.06.13.35.76c.43,1,.83,1.88,1.21,2.82.82,2,1.44,3.69,1.75,4.62,0,0,.11.31.29.82.32.93.52,1.54.81,2.53l.27.9.15.49c.14.47.25.86.36,1.27.19.67.36,1.33.5,1.94.93,3.71,1.45,6.88,1.63,8.1.11.64.21,1.4.29,2s.17,1.34.26,2.15c0,0,.05.46.12,1.17.1,1,.18,2,.23,2.92v.14l0,.06c.1,1.53.14,2.25.15,3.58v.61c0,.26,0,.52,0,.77,0,.83,0,1.45,0,2.37s0,1.29,0,1.43c0,.92-.08,1.81-.14,2.76l-.05.81c0,.3,0,.58-.06.86v.08c-.09,1.19-.26,2.85-.46,4.46,0,.29-.07.58-.11.84h0c-.27,2-.4,2.91-.77,4.73l0,.2c-.3,1.83-.81,4.16-1.27,5.83-.49,2.21-1.37,5.12-2,7.1-.27.81-.57,1.7-.89,2.63-.17.51-.34,1-.53,1.51l-.48,1.28c-.37,1.05-.88,2.32-1.55,3.89-.76,1.85-1.28,3.07-2,4.59-.32.69-.64,1.35-1,2l-.49,1c-1.07,2.24-1.93,3.78-3.62,6.76-.9,1.59-2.12,3.61-3.45,5.69l-.15.24a174.78,174.78,0,0,1-12.61,17c-1.54,1.89-3.53,4-5.1,5.73q-1.43,1.57-3.1,3.29a180.18,180.18,0,0,1-14.52,13.52,166.49,166.49,0,0,1-16.82,12.82l-1.67,1.1-3.07,2.11c-3.59,2.43-8.44,5.31-12.34,7.62l-.32.19c-1,.61-2.11,1.23-3.24,1.87l-1.17.65-.74.41c-7.26,4-15.73,8.13-22.65,11.07-1.48.63-3.16,1.32-5,2.07l-4,1.7-2.52.94c-2.57,1-4.9,1.9-6.9,2.61-1.55.55-3.19,1.12-4.9,1.69l-1.19.42c-2.52.89-5.54,1.8-7.9,2.5q-2.16.67-4.22,1.27l-3.39,1-.61.18c-5.49,1.67-13.07,3.47-22.52,5.36-1.62.33-3.19.64-4.63.9-3,.57-6.45,1.16-10.25,1.74-1.63.26-3.27.51-4.94.74l-4.13.56-.59.08c-11.23,1.6-25.68,2.74-34.65,3.23l-1.94.1-2.07.12c-1.85.1-4.05.19-6.73.28s-5.17.17-7.75.23l-5.85.17c-6.59.21-14.75.18-24.27-.08-6.49-.15-13.89-.47-21.42-.92-8-.47-23.35-1.49-36-3.16-5.87-.68-11.17-1.39-15.75-2.1-2.3-.33-4.22-.63-5.86-.91l-1.55-.28c-4.92-.79-10-1.64-14.15-2.48-5.46-1.11-10.33-2.15-14.9-3.18l-3.58-.77c-7.56-1.65-17.58-4.41-26.79-7.37l-1.35-.44c-4.8-1.56-9.34-3.16-13.15-4.63-2.59-1-4.84-1.86-6.72-2.66a140,140,0,0,1-15-6.93l-1-.54-1.29-.7-1-.54c-1.28-.67-2.74-1.48-4.23-2.34L84,248.47c-1.56-.93-3-1.83-4.19-2.62-.82-.55-1.7-1.15-2.62-1.79-1.3-.86-2.35-1.58-3.19-2.19a86.2,86.2,0,0,1-6.84-5.41l-.22-.19c-1.34-1.13-2.33-2.06-3.57-3.28l-.18-.18-.55-.55-.41-.41c-1-1-2.31-2.4-3.35-3.59-.47-.52-1.05-1.21-1.73-2.06q-.8-1-1.34-1.72c-.81-1.06-1.56-2.12-2.06-2.89s-1.3-2-1.83-2.89l-.73.43.68-.51,0-.08-.36-.62c-.32-.55-.54-.94-.85-1.55l-.16-.3-.52-1-.14-.28c-.19-.39-.37-.78-.59-1.25-.34-.72-.65-1.45-1-2.31,0,0-.37-.87-.86-2.3l-.15-.42c-.18-.53-.3-.87-.46-1.43l-.13-.43c-.2-.66-.36-1.27-.5-1.82h-.24a3.74,3.74,0,0,1-.94.42c-.13.08-.27.15-.41.21.13.51.28,1.07.46,1.66l.14.46c.17.58.29.94.48,1.49l.15.43c.51,1.48.9,2.4.92,2.43.33.82.66,1.58,1,2.35.2.44.39.85.6,1.29l.15.31c.15.31.32.63.54,1l.75-.4L49,217l.07.13c.34.66.57,1.08.89,1.62l.41.7.05.09c.54.91,1.3,2.08,1.86,2.94.74,1.15,1.74,2.48,2.13,3s.84,1.11,1.38,1.77c.69.87,1.3,1.59,1.78,2.12,1,1.2,2.39,2.64,3.42,3.67l.41.4L62,234l.18.17c1.27,1.25,2.28,2.2,3.65,3.35l.2.18a88,88,0,0,0,7,5.52c.86.62,1.93,1.35,3.24,2.22.91.63,1.8,1.24,2.63,1.79,1.2.8,2.68,1.73,4.26,2.66l1.17.69c1.5.87,3,1.69,4.29,2.38l1,.53,1.29.7,1,.52a141.46,141.46,0,0,0,15.19,7c1.88.8,4.16,1.7,6.76,2.67,3.83,1.48,8.4,3.09,13.23,4.66l1.36.44c9.26,3,19.34,5.75,26.95,7.41l3.58.77c4.57,1,9.46,2.08,14.93,3.19,4.14.84,9.28,1.69,14.21,2.49l1.54.27c1.66.29,3.6.59,5.91.92,4.59.71,9.91,1.42,15.79,2.11,6.24.82,13.13,1.49,19.49,2,6.55.54,12.52.92,16.61,1.16,7.54.45,15,.77,21.47.92,9.55.26,17.75.29,24.37.08l5.83-.17c2.58-.06,5.2-.13,7.77-.23s4.9-.18,6.76-.28l2.07-.12,1.94-.1c9-.49,23.51-1.64,34.79-3.25l.58-.08,4.13-.56q2.51-.36,5-.75c3.81-.59,7.28-1.18,10.3-1.75,1.44-.26,3-.57,4.65-.91,9.51-1.9,17.13-3.71,22.68-5.4l.59-.18,3.4-1q2.08-.61,4.24-1.27c2.37-.7,5.42-1.62,8-2.53l1.18-.42c1.71-.57,3.36-1.14,4.92-1.7,2-.72,4.37-1.61,6.94-2.63l2.53-1,4.06-1.71c1.86-.75,3.55-1.44,5-2.07,7-3,15.5-7.12,22.8-11.14l.75-.42,1.18-.66c1.13-.64,2.23-1.27,3.27-1.89l.32-.19c3.92-2.32,8.8-5.22,12.43-7.67l3.07-2.11,1.65-1.08a168.23,168.23,0,0,0,17-13,181.87,181.87,0,0,0,14.67-13.66c1.09-1.12,2.13-2.23,3.09-3.28,1.58-1.69,3.6-3.88,5.17-5.8a176.59,176.59,0,0,0,12.74-17.18l.14-.23c1.34-2.1,2.58-4.15,3.49-5.76,1.71-3,2.58-4.57,3.67-6.85l.48-1c.32-.62.65-1.31,1-2,.75-1.54,1.28-2.78,2-4.66.68-1.59,1.19-2.89,1.6-4l.45-1.2c.19-.52.37-1,.54-1.55.32-.93.63-1.83.9-2.64.67-2,1.56-5,2.06-7.22.47-1.68,1-4.08,1.3-6l0-.17c.37-1.83.51-2.79.78-4.81h0c0-.27.08-.57.11-.86C557.49,134.25,557.67,132.55,557.75,131.34Z"/><path class="cls-1" d="M556.16,130.91C544.74,238.1,398.74,294.41,285.64,290.77-2.88,281.49,28.73,186,64.11,140.64,98.11,97.1,248.53.64,386.64,2,484.22,3,563.44,62.59,556.16,130.91Z"/><circle class="cls-2" cx="56.7" cy="174.02" transform="translate(-99.43 78.52) rotate(-40.5)"/><path class="cls-2" d="M73.63,137.13h0l-.4.45Z"/><path class="cls-2" d="M550.61,94.24q-.08-.24-.17-.47v0Z"/><circle class="cls-2" cx="45.81" cy="185.87"/><circle class="cls-2" cx="49.39" cy="182.67" transform="translate(-136.59 217.58) rotate(-85.5)"/><path class="cls-2" d="M72.95,137.89l.05-.06-.05.06Z"/><path class="cls-2" d="M53.76,228.43h0v0h0Z"/><path class="cls-2" d="M321.13,282h0Z"/><path class="cls-2" d="M63.21,237.84h0l.73.51h0Z"/><path class="cls-2" d="M78.32,245.83q1.26.51,2.57,1h0q-1.31-.5-2.57-1Z"/><path class="cls-2" d="M327,281.83h0l-3.45.13Z"/><path class="cls-2" d="M525.71,163.59l-.69.35.69-.35Z"/><path class="cls-3" d="M94.32,117.48l-.07.06,1.33-1.1Z"/><path class="cls-3" d="M501.66,38.22l-.06,0-.18-.11Z"/><path class="cls-3" d="M537.58,70.71l-.15-.21-.06-.08Z"/><path class="cls-3" d="M133.44,184l-4.32.91Z"/><path class="cls-3" d="M98.95,191.4l-3.67.81Z"/><path class="cls-3" d="M153.56,179.79l-4.56.94Z"/><path class="cls-3" d="M112.49,188.45l-4,.86Z"/><path class="cls-3" d="M540.69,113c-5.42.5-12.1,1.25-19.86,2.23C528.07,114.29,534.72,113.54,540.69,113Z"/><path class="cls-3" d="M116.54,187.58l-4.05.87Z"/><path class="cls-3" d="M89.95,193.39l-3.43.77Z"/><path class="cls-3" d="M124.86,185.8l-4.19.89Z"/><polygon class="cls-3" points="514.55 216.51 515.01 216.07 515.01 216.07 514.55 216.51 514.55 216.51"/><path class="cls-3" d="M87.9,256.71l.85.47.73.38-1-.55Z"/><path class="cls-3" d="M91,258.38l.79.43,8,3.88,1.78.73C98,261.82,94.3,260,91,258.38Z"/><path class="cls-3" d="M315,293.55q-3.71.2-7.35.35c3-.11,5.9-.24,8.63-.39q2.86-.17,5.68-.36C319.76,293.3,317.43,293.43,315,293.55Z"/><path class="cls-3" d="M82.35,253.56l1.91,1.13-1.91-1.13Z"/><path class="cls-3" d="M76.87,250h0l-.06,0Z"/><path class="cls-3" d="M53.77,228.45l.19.3h0l-.19-.3Z"/><path class="cls-4" d="M520.83,115.18c7.76-1,14.44-1.73,19.86-2.23-93.94,2.55-354.62,50-457,77.71a3.37,3.37,0,0,1-.51,2.08,32.24,32.24,0,0,1-6.78,7.3l4.26-.84,6.57-1.29,3.44-.68,10.92-2.14,3.82-.75,33.3-6.46,8.94-1.73,16.08-3.1,4.68-.9c33.63-6.47,69.54-13.33,101.4-19.36C377.14,142.47,498.43,120.15,540.69,113,534.72,113.54,528.07,114.29,520.83,115.18Z"/><path class="cls-4" d="M149,180.74l4.56-.94Z"/><path class="cls-4" d="M129.12,184.9l4.32-.91Z"/><path class="cls-4" d="M120.66,186.7l4.19-.89Z"/><path class="cls-4" d="M112.49,188.45l-4,.86,4-.86,4.05-.87Z"/><path class="cls-4" d="M95.27,192.21l3.67-.81Z"/><path class="cls-4" d="M86.52,194.16l3.43-.77Z"/><path class="cls-4" d="M53.77,228.45l.19.3.73,1-.94-1.34Z"/><path class="cls-4" d="M76.58,249.82l.23.16.06,0c1.85,1.21,3.77,2.43,5.37,3.47l.1.07,1.91,1.13C82,253.25,79.16,251.5,76.58,249.82Z"/><path class="cls-4" d="M342.21,291.29q5.49-.59,10.78-1.3l1.54-.23c-1.81.24-3.72.47-5.68.71Q345.57,290.91,342.21,291.29Z"/><path class="cls-4" d="M499.25,230.22q2.68-2.11,5.22-4.29l2.16-1.92C504.37,225.94,501.8,228.11,499.25,230.22Z"/><path class="cls-4" d="M549,166.25l-1.52,3.44Q548.26,168,549,166.25Z"/><path class="cls-4" d="M549.58,91.65c2.36,5.59-.37,12.73-8.89,21.3,9.79-9.65,10.89-12.77,9.76-19.14v0l-.87-2.14h0Z"/><path class="cls-4" d="M535.79,68.33q-1-1.32-2.2-2.59C534.37,66.64,535.11,67.52,535.79,68.33Z"/><path class="cls-4" d="M490.81,32q-1.24-.63-2.5-1.24c1.13.57,2.26,1.13,3.34,1.69Z"/><path class="cls-4" d="M328.23,11.4l-2.67.42-.36.07Z"/><path class="cls-4" d="M69.3,141.8l3-3.24.64-.67.05-.06.23-.25.4-.45q1.45-1.6,3-3.19c-1.08,1.07-2.12,2.12-3.11,3.14q-1.89,2-3.65,4.1Z"/><path class="cls-4" d="M47.69,175.68q-.57,1.5-1,3c.34-1.07.69-2.11,1-3Z"/><path class="cls-4" d="M266.78,97.94c-24,4.55-50.25,11-76,18.5l-4.68,1.38q-8.18,2.44-16.25,5l-4.59,1.48c-22.12,7.21-43.19,15.1-61.39,23.17q-3.76,1.67-7.36,3.35l-1.79.84-3.5,1.68-1.72.84q-4.26,2.1-8.21,4.2l-3.1,1.68q-1.52.84-3,1.68-2.94,1.67-5.65,3.34-1.35.83-2.65,1.66t-2.52,1.66q-1.84,1.24-3.54,2.47-1.13.82-2.2,1.64T56.7,174h0l-.15.12-1,.81q-2.4,2-4.36,4l-.76.79-.78.85-.5.57a29.61,29.61,0,0,0-3.37,4.7l-.3.56c-.21.41-.41.81-.58,1.22l.6.08.29-.49a27.44,27.44,0,0,1,2.84-3.76l.67-.73.08-.08h0a54.13,54.13,0,0,1,5.25-4.82h0l.41-.34,1-.76q2.46-1.91,5.35-3.85l1.17-.78q2.24-1.47,4.71-3h0l1.62-1,1.36-.79c3.67-2.11,7.65-4.24,11.91-6.38l1.61-.8,3.3-1.6c5-2.41,10.39-4.82,16-7.22l3.8-1.6,1.93-.8,3.92-1.59q3-1.19,6-2.38l1.51-.58h0q5.38-2.07,11-4.12,3.19-1.16,6.44-2.32l4.36-1.53q7.68-2.67,15.62-5.25l4.55-1.47a913.76,913.76,0,0,1,104.09-26.66C373.68,82.78,496.52,87.18,540.69,113,496.78,84.32,374.14,77.6,266.78,97.94Z"/><path class="cls-3" d="M515.92,215.2l1-1.06h0l-1,1.06Z"/><path class="cls-3" d="M332.53,292.3h0l-6.06.5C328.56,292.63,330.6,292.47,332.53,292.3Z"/><path class="cls-3" d="M335.24,292q3.52-.35,7-.75t6.64-.82c2-.23,3.87-.47,5.68-.71l1.18-.18C349.41,290.38,341.61,291.38,335.24,292Z"/><path class="cls-4" d="M47.86,218.15c10.51,22,143.93,14.18,237.48-3.54C392.7,194.27,507,148.76,540.69,113c-34.81,33.07-150.06,76.37-257.43,96.7-94.05,17.82-227.71,27.25-236,7.08l.51,1.21c0-.08-.06-.16-.09-.23Z"/><path class="cls-4" d="M309.43,255.34C416.79,235,520.33,171.25,540.69,113,518.78,169.26,414,231.39,306.61,251.73c-34,6.43-74.09,10-112.4,10h-4.78c-16.69-.12-33-.91-48.16-2.42l-4.31-.45c-7.13-.79-14-1.74-20.55-2.86l-3.88-.69-1.91-.36-3.76-.75q-1.86-.39-3.67-.8-3.62-.82-7.06-1.72c-4-1.05-7.81-2.19-11.39-3.41q-1.76-.6-3.45-1.24h0l-.4-.15h0q-1.31-.5-2.57-1a77.13,77.13,0,0,1-14.38-7.49l-.73-.51h0l-.33-.23h0a38.27,38.27,0,0,1-7.33-6.73h0l-.63-.8h0l0-.06.15.2.67.85c.21.27.42.55.64.82.36.44.74.88,1.13,1.31C89,268,220.71,272.14,309.43,255.34Z"/><path class="cls-4" d="M193.87,286.65l1.74.21-.41-.07c40.42,4.18,83.9,2.55,125.94-4.74h.21l2.21-.07,3.45-.13q7.25-1.37,14.39-3l-5.06.29c43.32-9,84.49-24.15,118.43-45.22l.36-.11q5.49-3.42,10.7-7l-.35.12C488.52,211,507.62,192,520.93,170.12l1.42-.71q1.76-2.88,3.36-5.82l-.69.35-.73.36a140.4,140.4,0,0,0,12.91-32.48C518.57,197,433.61,260.51,335.69,279.06c-76.18,14.43-189.75,8.26-247.2-22l1,.55.86.47.69.35c3.27,1.65,7,3.43,10.55,5l1.64.74q7.81,3.39,16.13,6.31C142,278.42,167.24,283.8,193.87,286.65Z"/><path class="cls-4" d="M84.26,254.69c1.19.68,2.41,1.35,3.65,2l.58.31Z"/><path class="cls-4" d="M537.2,131.82a101.29,101.29,0,0,0,2.55-11.31l.22-.06c.19-1.45.35-2.91.48-4.37l-.08,0q.18-1.57.31-3.14A139.08,139.08,0,0,1,537.2,131.82Z"/><path class="cls-4" d="M540.69,113c7.56,61-44.52,163.69-216.26,180l-2,.15c-5.27.28-11.62.62-18.93.87,4.08-.1,7.93-.25,11.52-.42,2.45-.12,4.78-.25,7-.4l1.6-.11h0l2.94-.24h0l6.06-.5h0l.83-.07.24,0,.31,0,1.27-.13c6.38-.66,14.17-1.66,20.47-2.45l.72-.09c1.9-.27,3.78-.56,5.63-.85,2.92-.47,5.8-1,8.6-1.5l.13,0C478.09,266.75,554.14,188.79,540.69,113Z"/><path class="cls-4" d="M532.4,194.77l1-1.52q1.42-2.29,2.7-4.62.86-1.55,1.65-3.11c.32-.63.63-1.27.94-1.9h0l.59-1.24q1.47-3.15,2.68-6.35.61-1.6,1.15-3.21A82.31,82.31,0,0,0,540.69,113c14.4,36.26,3.27,73.47-26.14,103.56l.46-.44.91-.87h0l1-1.06,3.07-3.28A123.24,123.24,0,0,0,532.4,194.77Z"/><path class="cls-4" d="M514.55,216.51l-6.94,6.67q2.88-2.6,5.56-5.27l.78-.76,1.06-1.08-.46.44Z"/><path class="cls-4" d="M551.66,158.55c4.17-15.05.91-30.65-11-45.59,13.07,17.58,15.26,35.93,8.27,53.3l.65-1.65.6-1.62.11-.31-.16.43C550.64,161.7,551.15,160.14,551.66,158.55Z"/><path class="cls-4" d="M554.76,125.4a19.23,19.23,0,0,0-1.22-2q-.46-.65-1-1.29c-2.63-3.21-6.57-6.29-11.87-9.2a42.53,42.53,0,0,1,11.39,9.69q.56.72,1,1.44t.9,1.45a19.52,19.52,0,0,1,1.63,3.68q.12.37.22.74a16.74,16.74,0,0,1,.6,4.5q0,.38,0,.76t-.05.76h0l0-.2h0l.08-1.06.06-.74h0v-.35l0-.56A14.67,14.67,0,0,0,554.76,125.4Z"/><path class="cls-4" d="M555.42,111.74c-.42-.41-5.18,0-14.73,1.21,10.08-.55,14.94-.16,15.1,1l-.17-1.09-.18-1.07s0,0,0,0Z"/><path class="cls-4" d="M540.69,113c6.41-15.63,5.52-29.1-1.48-39.93l-.54-.81-1.09-1.5-.22-.3.06.08-.31-.42-.45-.61-.88-1.14C545.06,80.14,547.22,95.24,540.69,113Z"/><path class="cls-4" d="M500.1,37.29c27.37,17.26,42.81,43.44,40.59,75.66,2.8-29.44-9.65-53.72-32.86-70.58q-2.91-2.12-6-4.07l-.12-.08-.24-.15.18.11q-1.23-.77-2.5-1.51c-1.08-.64-2.21-1.3-3.37-2Z"/><path class="cls-4" d="M370.17,7.35C457.76,5.83,530,48.17,540.69,113c-4.09-29.06-20.57-53.62-45.36-71.74q-2.66-1.94-5.44-3.78t-5.68-3.58q-2.9-1.74-5.92-3.38Q473.76,28,469,25.79q-5.55-2.58-11.42-4.81h0q-3.57-1.37-7.26-2.61h0c-1.6-.54-3.22-1.07-4.85-1.57q-5.3-1.63-10.79-3a226.55,226.55,0,0,0-34.54-5.74q-2-.18-4-.33-7.1-.52-14.4-.62l-3,0C376,7.2,373.1,7.26,370.17,7.35Z"/><path class="cls-4" d="M351.29,8.35l9.43-.63h0l6.47-.43h0q-2.46.1-4.95.25-3.28.19-6.58.47l-2.36.17-2,.17-.47,0-1,.1Z"/><path class="cls-4" d="M345,9H345l4.9-.5Q347.45,8.7,345,9Z"/><path class="cls-4" d="M91.12,120.3c51.14-43.44,138.45-81.65,204.34-94.13C402.83,5.84,512.62,44.69,540.69,113,514,43.38,405.39,3.46,298,23.8c-62,11.74-143.34,46.61-195.88,87.38l-1.41,1.1c-1.58,1.25-3.19,2.54-4.78,3.84l-.38.32-1.33,1.1-.32.27-.44.39q-1.44,1.25-3,2.61-2.18,1.86-4.26,3.74l-1.33,1.26Z"/><path class="cls-4" d="M275.8,58c107.37-20.34,226,4.26,264.89,54.95-38-52.9-155.92-79.3-263.29-59C191.85,70.19,75.13,122.15,50.48,169.35q-.89,1.7-1.61,3.39l-.31.77-.16.37-.16.41-.06.14C67.58,127.87,187.9,74.65,275.8,58Z"/><path class="cls-4" d="M48,174.84l-.21.51-.11.28C47.81,175.37,47.91,175.11,48,174.84Z"/><path class="cls-4" d="M48,174.84l.17-.41Z"/><path class="cls-4" d="M557.34,134.86v-.08c0-.28,0-.58.06-.87l.05-.84c.06-1,.1-1.87.13-2.76v-.08c0-.09,0-.6,0-1.42s0-1.48,0-2.44c0-.24,0-.48,0-.75V125c0-1.38-.06-2.11-.17-3.69l0-.25h0c-.06-.94-.14-1.92-.24-2.91-.07-.73-.12-1.17-.13-1.2-.09-.81-.19-1.54-.27-2.17s-.18-1.41-.3-2.07c-.19-1.22-.73-4.45-1.69-8.21-.13-.58-.31-1.25-.52-2-.11-.42-.23-.82-.38-1.3l-.15-.49-.27-.9c-.3-1-.51-1.64-.84-2.59-.18-.53-.29-.83-.29-.83-.32-.94-1-2.66-1.8-4.7-.39-1-.8-1.9-1.24-2.88l-.34-.73-.11-.24h0c-.87-1.88-1.22-2.61-2.15-4.32s-1.34-2.53-2.38-4.27l-.09-.16h0l0,0-.7.45.69-.5c-.28-.49-.61-1-1-1.58-.67-1.1-1.29-2-2-3.07l-.42-.62c-.43-.64-.94-1.36-1.46-2.07-.26-.38-.53-.76-.81-1.15l-.88-1.19c-1.22-1.7-3.08-4-4.72-5.84l-.89-1c-.87-1-2-2.19-3.27-3.53-.61-.65-1.21-1.27-1.76-1.82-1.08-1.08-3.84-3.81-6.21-5.82l-.55.65.46-.72c-1-.88-2-1.74-2.91-2.47l-.87-.71c-1.45-1.18-3.07-2.43-5.59-4.31l-.91-.68c-2.55-1.88-6.17-4.3-9-6l-2.13-1.28c-1.52-.93-3.07-1.83-4.6-2.68-.8-.44-1.61-.87-2.41-1.29-3.88-2.11-7.5-3.91-10.45-5.2s-6.24-2.68-9.73-4c-4.67-1.84-9-3.41-12.53-4.53-1.83-.59-3.63-1.15-5.52-1.68l-.89-.25c-5.6-1.61-11.32-3-17-4.23-1.84-.39-3.54-.73-5.08-1l-.27,0a255.93,255.93,0,0,0-30-3.86l-.61-.05c-4.33-.43-10.25-.7-15-.7-4.4-.08-9-.06-13.8.07h-.13l-3.52.11c-5.42.06-12.36.62-17,1.11q-2.64.23-5.88.6h-.14c-3.61.4-7.31.89-11,1.45-4.77.7-9.49,1.48-13.63,2.25-4.3.72-10.25,2-17.69,3.81-5.62,1.36-12,3-17.09,4.44-5.68,1.53-12.7,3.76-17.48,5.3-5.45,1.76-13.37,4.34-19.18,6.55l-.4.15-2.32.84c-3.45,1.26-7.52,2.83-12.1,4.65l-4.51,1.72-6.75,2.86-5.23,2.18c-2.08.86-4.09,1.7-6,2.5-1.34.57-2.73,1.17-4.15,1.8-6.08,2.67-12.75,5.86-16.18,7.53-3,1.45-6.48,3.2-10.35,5.19l-7,3.51c-3.8,1.9-8.26,4.39-12.58,6.79-1.92,1.07-3.78,2.1-5.46,3C146.59,79.61,135,86.75,125.3,93.3c-1.68,1.11-3.08,2.08-4.31,3l-.92.65c-4.17,2.91-9.37,6.52-13.18,9.48-1.18.89-2.55,2-4.19,3.26-3.41,2.61-6.23,4.87-8.64,6.92-2.82,2.33-5.25,4.43-7.2,6.24l-1.09,1-.31.28-1.41,1.31-.65.6-.93.86c-3.44,3.22-6.68,6.47-9.61,9.64l-1,1c-1.37,1.41-2.91,3.16-4.71,5.33l-.67.75c-1.37,1.52-2.93,3.47-4.89,6.12-.48.62-.92,1.22-1.32,1.77l-.15.19A84.48,84.48,0,0,0,52.77,163c-.34.59-.73,1.31-1.19,2.18-.62,1.14-1.33,2.44-1.83,3.57l-.38.8c-.53,1.07-1.14,2.47-1.95,4.47l-.08.21L47,175c-.24.62-1.07,2.78-1.58,4.54-.36,1.16-.77,2.64-1.06,3.8-.12.46-.22.86-.31,1.28-.17.72-.28,1.27-.41,2l0,.25c0,.24-.09.48-.14.73l.09,0a8.88,8.88,0,0,1,.9,0h.13l.15,0,.45.06.08-.42.06-.3c.12-.71.23-1.22.39-1.92.09-.41.18-.79.31-1.27.28-1.1.68-2.55,1.05-3.75s.88-2.74,1.53-4.4l.29-.75.11-.27c.75-1.88,1.36-3.28,1.86-4.28l.42-.87c.47-1.07,1.16-2.34,1.78-3.46.45-.87.84-1.56,1.18-2.16a82.84,82.84,0,0,1,7.27-11.16l.13-.17c.42-.58.86-1.16,1.33-1.78,1.94-2.62,3.46-4.52,4.8-6l.69-.77c1.79-2.16,3.31-3.88,4.64-5.26l1-1c2.92-3.16,6.12-6.38,9.53-9.57l.92-.85.66-.61,1.4-1.3.31-.28,1.09-1c1.94-1.79,4.34-3.87,7.15-6.19,2.39-2,5.19-4.29,8.59-6.88,1.64-1.3,3-2.36,4.18-3.25,3.79-2.94,9-6.54,13.12-9.44l.94-.67c1.2-.86,2.59-1.82,4.26-2.92,9.62-6.53,21.2-13.63,30.21-18.54,1.69-.92,3.55-2,5.48-3,4.3-2.4,8.75-4.88,12.51-6.76l7-3.51c3.86-2,7.34-3.73,10.32-5.18,3.42-1.66,10.06-4.84,16.12-7.5,1.41-.63,2.79-1.23,4.12-1.79,1.89-.8,3.89-1.63,6-2.49l5.24-2.18L230,40.88l4.49-1.72c4.57-1.82,8.63-3.38,12.06-4.64l2.32-.84.41-.16c5.78-2.19,13.67-4.77,19.1-6.52,4.77-1.53,11.76-3.75,17.42-5.28,5-1.48,11.43-3.07,17-4.43,7.4-1.79,13.31-3.07,17.58-3.79S329.23,12,334,11.27c3.66-.56,7.34-1,10.93-1.44l.2,0c2.08-.24,4-.44,5.79-.59,4.64-.49,11.52-1,16.88-1.1h.12L371.34,8h.12c4.74-.13,9.36-.15,13.75-.07,4.76,0,10.6.27,14.9.69l.49,0h.15a256.57,256.57,0,0,1,29.8,3.83l.27,0c1.52.28,3.21.61,5,1,5.65,1.19,11.33,2.6,16.88,4.2l.88.25c1.87.53,3.66,1.08,5.47,1.67,3.5,1.11,7.8,2.66,12.43,4.49,3.47,1.36,6.82,2.74,9.67,4s6.49,3.05,10.34,5.14c.8.42,1.6.85,2.39,1.28,1.51.83,3,1.72,4.54,2.65l2.13,1.27c2.8,1.71,6.38,4.1,8.89,6l.89.67c2.51,1.87,4.11,3.11,5.54,4.27l.86.7c.88.73,1.87,1.57,2.87,2.44l.11.09c2.32,2,5,4.66,6.1,5.72.54.54,1.13,1.16,1.74,1.8,1.28,1.32,2.36,2.49,3.22,3.47l.9,1c1.61,1.81,3.42,4.05,4.61,5.71l.9,1.21c.26.36.52.73.79,1.11.52.71,1,1.42,1.44,2l.42.62c.68,1,1.28,1.93,1.94,3,.33.54.65,1.06.92,1.54l.11.19c1.06,1.78,1.5,2.56,2.37,4.25s1.24,2.36,2.12,4.24l.77-.36-.74.43.06.13.35.76c.44,1,.83,1.88,1.22,2.82.83,2,1.45,3.69,1.77,4.62,0,0,.11.31.29.82.32.93.53,1.54.82,2.53l.27.9.15.49c.14.47.26.86.37,1.26.19.67.36,1.33.5,1.94.94,3.71,1.47,6.88,1.66,8.09.12.64.22,1.4.29,2s.18,1.34.27,2.15c0,0,.05.46.12,1.17.1,1,.18,2,.24,2.92v.14l0,.06c.1,1.53.15,2.25.16,3.58v.61c0,.26,0,.52,0,.77,0,.83,0,1.45,0,2.37s0,1.29,0,1.43c0,.92-.07,1.81-.13,2.76l0,.81c0,.3,0,.58-.06.86v.08c-.08,1.19-.25,2.86-.45,4.46,0,.29-.07.58-.11.84h0c-.26,2-.39,2.91-.75,4.73l0,.2c-.3,1.83-.79,4.16-1.25,5.84-.49,2.21-1.35,5.12-2,7.11-.26.81-.56,1.7-.88,2.63-.17.51-.34,1-.52,1.51l-.47,1.28c-.37,1.05-.87,2.32-1.53,3.89-.76,1.86-1.27,3.07-2,4.59-.32.69-.63,1.35-.95,2l-.48,1c-1.07,2.25-1.92,3.79-3.6,6.77-.9,1.59-2.11,3.62-3.43,5.7l-.15.24a174.79,174.79,0,0,1-12.56,17c-1.53,1.89-3.52,4.06-5.08,5.74q-1.43,1.58-3.09,3.3a180.15,180.15,0,0,1-14.48,13.56A166.49,166.49,0,0,1,485.05,240l-1.67,1.1-3.06,2.12c-3.58,2.44-8.42,5.34-12.32,7.66l-.32.19c-1,.61-2.11,1.24-3.23,1.88l-1.16.66-.74.41c-7.25,4-15.7,8.18-22.61,11.14-1.47.63-3.15,1.33-5,2.09l-4,1.71-2.51,1c-2.57,1-4.89,1.91-6.89,2.64-1.54.56-3.19,1.13-4.9,1.71l-1.19.43c-2.52.9-5.54,1.82-7.9,2.53q-2.15.67-4.22,1.28l-3.39,1-.61.19c-5.48,1.69-13.05,3.51-22.5,5.43-1.62.34-3.18.65-4.62.92-3,.58-6.45,1.18-10.24,1.78-1.63.26-3.27.52-4.93.76l-4.12.58-.59.09c-11.23,1.63-25.67,2.82-34.63,3.35l-1.94.11-2.07.12c-1.85.1-4,.2-6.73.3s-5.17.19-7.75.25l-5.85.19c-6.59.23-14.75.23-24.27,0-6.49-.13-13.89-.43-21.42-.85-8-.44-23.35-1.42-36-3-5.87-.66-11.17-1.35-15.76-2-2.3-.32-4.22-.61-5.87-.9l-1.55-.27c-4.92-.78-10-1.61-14.16-2.43-5.46-1.09-10.34-2.11-14.91-3.13l-3.58-.76c-7.57-1.63-17.59-4.35-26.82-7.28l-1.35-.43c-4.8-1.54-9.35-3.13-13.16-4.59-2.59-1-4.85-1.85-6.72-2.63a140,140,0,0,1-15-6.88l-1-.53-1.29-.69-1-.53c-1.28-.67-2.75-1.47-4.23-2.33L84,253.57c-1.56-.92-3-1.82-4.19-2.61-.82-.55-1.7-1.14-2.63-1.78-1.31-.86-2.35-1.57-3.2-2.18a86.2,86.2,0,0,1-6.85-5.39l-.22-.19c-1.35-1.13-2.33-2.05-3.58-3.27l-.18-.18-.56-.55-.41-.41c-1-1-2.32-2.39-3.36-3.58-.48-.52-1.06-1.2-1.74-2q-.8-1-1.35-1.71c-.81-1.06-1.57-2.11-2.07-2.89s-1.31-2-1.84-2.88l-.73.44.68-.51,0-.08-.36-.61c-.32-.55-.54-.94-.85-1.54l-.16-.3-.52-1-.14-.28c-.2-.39-.38-.78-.59-1.25-.34-.72-.66-1.45-1-2.3,0,0-.37-.87-.87-2.3l-.15-.42c-.19-.53-.3-.87-.46-1.43l-.13-.43c-.2-.66-.36-1.26-.51-1.81h-.24a3.73,3.73,0,0,1-.94.42c-.13.08-.27.15-.41.21.13.51.29,1.07.47,1.66l.14.46c.17.58.29.94.48,1.49l.15.43c.52,1.48.91,2.39.92,2.43.33.82.66,1.58,1,2.35.2.44.39.84.61,1.29l.15.31c.16.31.32.63.54,1l.75-.4-.69.5.07.13c.34.66.58,1.08.89,1.61l.41.7.05.09c.55.91,1.31,2.08,1.87,2.93.75,1.15,1.75,2.47,2.14,3s.84,1.1,1.39,1.77c.7.87,1.3,1.58,1.79,2.11,1,1.2,2.39,2.63,3.43,3.66l.41.4.57.56.18.17c1.28,1.24,2.29,2.19,3.66,3.34l.2.17a87.9,87.9,0,0,0,7,5.49c.87.62,1.93,1.35,3.24,2.21.92.63,1.81,1.23,2.64,1.78,1.21.8,2.68,1.72,4.26,2.65l1.17.68c1.51.87,3,1.68,4.3,2.36l1,.53,1.3.7,1,.51a141.4,141.4,0,0,0,15.21,7c1.89.79,4.17,1.68,6.77,2.65,3.83,1.47,8.41,3.06,13.24,4.62l1.36.43c9.27,2.95,19.36,5.69,27,7.32l3.58.76c4.58,1,9.46,2,14.94,3.14,4.14.82,9.29,1.66,14.21,2.44l1.55.27c1.66.29,3.6.58,5.91.9,4.59.7,9.91,1.39,15.8,2.05,6.24.8,13.14,1.44,19.49,1.94,6.55.52,12.53.88,16.61,1.1,7.55.42,15,.72,21.48.85,9.55.23,17.75.23,24.37,0l5.83-.19c2.58-.06,5.2-.15,7.77-.25s4.9-.2,6.76-.3l2.07-.12,1.94-.11c9-.52,23.5-1.72,34.78-3.36l.58-.08,4.13-.58q2.51-.37,5-.76c3.81-.6,7.27-1.2,10.29-1.79,1.44-.27,3-.58,4.65-.92,9.5-1.93,17.12-3.77,22.66-5.47l.59-.18,3.39-1q2.08-.61,4.23-1.29c2.37-.71,5.41-1.64,8-2.55l1.18-.42c1.71-.58,3.36-1.15,4.91-1.71,2-.73,4.36-1.62,6.93-2.65l2.53-1,4.05-1.72c1.85-.75,3.54-1.46,5-2.09,7-3,15.47-7.17,22.76-11.21l.75-.42,1.18-.66c1.13-.64,2.22-1.28,3.26-1.9l.32-.19c3.91-2.34,8.78-5.25,12.4-7.72l3.06-2.12,1.65-1.09a168.26,168.26,0,0,0,17-13,181.85,181.85,0,0,0,14.62-13.71c1.09-1.13,2.13-2.24,3.08-3.29,1.58-1.7,3.59-3.89,5.15-5.81a176.55,176.55,0,0,0,12.69-17.22l.14-.23c1.33-2.1,2.56-4.15,3.47-5.77,1.7-3,2.56-4.58,3.65-6.86l.48-1c.32-.63.65-1.31,1-2,.74-1.54,1.27-2.79,2-4.66.67-1.59,1.18-2.9,1.59-4l.44-1.2c.19-.52.37-1,.54-1.56.32-.93.62-1.83.89-2.65.66-2,1.54-5,2-7.23.46-1.69,1-4.09,1.28-6l0-.17c.36-1.83.5-2.79.76-4.81h0c0-.27.08-.57.11-.86C557.08,137.77,557.25,136.07,557.34,134.86Z"/><path class="cls-5" d="M437,267.73a43.32,43.32,0,0,1-1.5,23.33,48.49,48.49,0,0,1-15.26,21.35L364.7,320a72.3,72.3,0,0,1-29.35-5.34,64.65,64.65,0,0,1-26.65-20.23s42.19-.64,68.8-7.55S437,267.73,437,267.73Z"/><path class="cls-6" d="M109.35,104.13s-2-12.21-3-20.71c-1.7-13.94-.54-18-.54-18a88.12,88.12,0,0,1,14.66-12.26,93.11,93.11,0,0,1,15.79-8.36,112.11,112.11,0,0,1,17-5.74s14.94,18.52,11.68,28.79c-.27.84-1,2.37-1,2.37Z"/><path class="cls-5" d="M.17,204.37c-.5-5,21.93-10.91,28.39-12.63,15.36-4.07,52.43-12,55.61-3.88,1.82,4.66-8.07,13.11-14.78,17s-12.67,4.45-24.88,5.73c-15.54,1.63-25.06.18-29.31-.61C8.12,208.65.45,207.21.17,204.37Z"/><path class="cls-7" d="M445.39,202.7c-3.68,1.79-9.33,4.49-16.26,7.67-27.16,12.45-50.4,21.32-60.86,25-61.4,21.79-131.53,25.26-151.15,26.13-24.85,1.09-45.32.52-58.88-.16A156.36,156.36,0,0,1,139.66,231a158.34,158.34,0,0,1-11.35-34.57c-7.88-36.45-2.16-72.25,1-87.89a546.13,546.13,0,0,1,71-30.2C226.82,69.13,269,54.94,325.33,51.61a415.07,415.07,0,0,1,84,3.62q7.17,35.94,16.51,74.36Q435.14,167.71,445.39,202.7Z"/><path class="cls-3" d="M260.17,148.05l7.92,31.85,34.61-26.7Z"/><path class="cls-8" d="M445.39,202.7a484.68,484.68,0,0,1-84,35.14c-38.83,12.09-69.44,16.26-90.21,19a626.12,626.12,0,0,1-113.67,4.47,68.71,68.71,0,0,1-11.25-18,552.67,552.67,0,0,0,122.95.73c21.15-2.26,51.28-5.64,89.35-17.57a413.38,413.38,0,0,0,83.4-36.68q.76,3.32,1.7,6.84Q444.49,199.76,445.39,202.7Z"/><path class="cls-9" d="M331.35,101.12a632.89,632.89,0,0,1,64.24-4.47"/><path class="cls-9" d="M211.15,122c28.63-6.3,58.22-12.92,87.47-16.72"/><path class="cls-9" d="M142.6,141.53c18.08-6,37.19-11.91,56.52-16.52"/><path class="cls-9" d="M362,149c14.85-3,29.7-6,44.37-9.72"/><path class="cls-9" d="M319.08,158.18c9.81-2.41,19.7-4.51,29.6-6.53"/><path class="cls-9" d="M175.17,184.78c24.42-3.66,47.92-8.52,71.28-12.53"/><path class="cls-9" d="M338.9,202.69c24.32-7.2,48.72-14.22,72.57-23.53"/><path class="cls-9" d="M241.58,221.15q28.84-3.36,57.34-9.13"/><path class="cls-9" d="M160,226.08c23.33.73,45.91-2,68.3-3.48"/><path class="cls-9" d="M144.79,189.41q8.86-1.25,17.7-2.62"/><path class="cls-10" d="M414.1,211.63c6.67-3.37,12.42-6.55,17.16-9.29"/><path class="cls-10" d="M385.91,224.29q3.25-1.27,6.56-2.64c5.63-2.33,10.89-4.69,15.75-7"/><path class="cls-10" d="M202.31,255.51a547.19,547.19,0,0,0,93-7.59,547.13,547.13,0,0,0,83.83-21"/><path class="cls-10" d="M163.44,252.94q13.6,1.26,26.34,1.84"/><path class="cls-6" d="M436.37,268.66A43.32,43.32,0,0,1,434.74,292a48.49,48.49,0,0,1-15.39,21.27l-55.54,7.3A72.3,72.3,0,0,1,334.49,315,64.65,64.65,0,0,1,308,294.65l64.19-8.34Z"/><circle class="cls-5" cx="56.64" cy="173.28" transform="translate(-98.65 77.79) rotate(-40.31)"/><path class="cls-5" d="M73.7,136.44h0l-.41.44Z"/><path class="cls-5" d="M550.81,95.14q-.08-.24-.17-.47v0Z"/><circle class="cls-5" cx="45.71" cy="185.09"/><circle class="cls-5" cx="49.31" cy="181.9" transform="translate(-136.02 216.17) rotate(-85.31)"/><path class="cls-5" d="M73,137.2l.05-.06-.05.06Z"/><path class="cls-5" d="M53.52,227.68h0v0h0Z"/><path class="cls-5" d="M320.71,282.18h0Z"/><path class="cls-5" d="M62.93,237.12h0l.73.51h0Z"/><path class="cls-5" d="M78,245.16q1.26.52,2.57,1h0q-1.31-.5-2.57-1Z"/><path class="cls-5" d="M326.58,282h0l-3.45.12Z"/><path class="cls-5" d="M525.68,164.41l-.69.35.69-.35Z"/><path class="cls-5" d="M94.45,116.86l-.07.06,1.33-1.1Z"/><path class="cls-5" d="M502.05,39l-.06,0-.18-.11Z"/><path class="cls-5" d="M537.86,71.57l-.15-.21-.06-.08Z"/><path class="cls-5" d="M133.35,183.5l-4.33.9Z"/><path class="cls-5" d="M98.83,190.8l-3.67.8Z"/><path class="cls-5" d="M153.48,179.37l-4.56.93Z"/><path class="cls-5" d="M112.38,187.89l-4,.85Z"/><path class="cls-5" d="M540.83,113.82c-5.42.48-12.11,1.21-19.87,2.16C528.21,115.12,534.86,114.39,540.83,113.82Z"/><path class="cls-5" d="M116.43,187l-4.05.86Z"/><path class="cls-5" d="M89.82,192.76l-3.43.76Z"/><path class="cls-5" d="M124.76,185.29l-4.2.88Z"/><polygon class="cls-5" points="514.35 217.29 514.81 216.86 514.81 216.85 514.35 217.29 514.35 217.29"/><path class="cls-5" d="M87.57,256.07l.85.47.73.39-1-.55Z"/><path class="cls-5" d="M90.69,257.76l.79.43,8,3.9,1.78.74C97.7,261.21,94,259.42,90.69,257.76Z"/><path class="cls-5" d="M314.52,293.67q-3.71.19-7.35.33c3-.1,5.91-.22,8.63-.36q2.86-.16,5.68-.34C319.3,293.43,317,293.56,314.52,293.67Z"/><path class="cls-5" d="M82,252.9,83.93,254,82,252.9Z"/><path class="cls-5" d="M76.56,249.35h0l-.06,0Z"/><path class="cls-5" d="M53.53,227.69l.19.3h0l-.19-.3Z"/><path class="cls-5" d="M521,116c7.76-.95,14.45-1.68,19.87-2.16C446.88,116.06,186,162.66,83.52,190a3.37,3.37,0,0,1-.52,2.08,32.24,32.24,0,0,1-6.8,7.28l4.26-.83L87,197.28l3.45-.66,10.92-2.1,3.82-.73,33.32-6.35,8.95-1.7,16.09-3,4.68-.88c33.65-6.36,69.58-13.09,101.47-19,107.43-20,228.8-41.9,271.08-49C534.86,114.39,528.21,115.12,521,116Z"/><path class="cls-5" d="M148.92,180.3l4.56-.93Z"/><path class="cls-5" d="M129,184.4l4.33-.9Z"/><path class="cls-5" d="M120.56,186.17l4.2-.88Z"/><path class="cls-5" d="M112.38,187.89l-4,.85,4-.85,4.05-.86Z"/><path class="cls-5" d="M95.15,191.59l3.67-.8Z"/><path class="cls-5" d="M86.39,193.52l3.43-.76Z"/><path class="cls-5" d="M53.53,227.69l.19.3.73,1-.93-1.34Z"/><path class="cls-5" d="M76.27,249.14l.23.16.06,0c1.84,1.22,3.77,2.44,5.36,3.49l.1.07L83.93,254C81.66,252.59,78.84,250.83,76.27,249.14Z"/><path class="cls-5" d="M341.76,291.5q5.49-.57,10.78-1.27l1.54-.22c-1.81.23-3.72.46-5.68.69Q345.12,291.12,341.76,291.5Z"/><path class="cls-5" d="M499,231q2.68-2.1,5.23-4.27l2.17-1.91C504.13,226.69,501.56,228.85,499,231Z"/><path class="cls-5" d="M548.92,167.15l-1.53,3.44Q548.22,168.87,548.92,167.15Z"/><path class="cls-5" d="M549.79,92.55c2.34,5.59-.41,12.73-9,21.27,9.82-9.62,10.94-12.73,9.82-19.11v0l-.86-2.15h0Z"/><path class="cls-5" d="M536.08,69.18q-1-1.33-2.19-2.6C534.66,67.49,535.4,68.37,536.08,69.18Z"/><path class="cls-5" d="M491.22,32.72q-1.24-.64-2.5-1.25c1.13.57,2.26,1.14,3.33,1.7Z"/><path class="cls-5" d="M328.71,11.56,326,12l-.36.07Z"/><path class="cls-5" d="M69.35,141.1l3-3.23.64-.67.05-.06.23-.25.41-.44q1.46-1.59,3-3.18c-1.08,1.07-2.13,2.12-3.13,3.13q-1.9,2-3.67,4.09Z"/><path class="cls-5" d="M47.62,174.91q-.57,1.5-1,3c.35-1.07.69-2.1,1-3Z"/><path class="cls-5" d="M267,97.89c-24,4.47-50.29,10.8-76.09,18.25l-4.69,1.37q-8.19,2.41-16.27,5l-4.6,1.47c-22.14,7.14-43.24,15-61.46,23q-3.77,1.66-7.37,3.32l-1.79.83-3.51,1.67-1.72.83q-4.27,2.09-8.22,4.17l-3.11,1.67q-1.53.83-3,1.67-2.94,1.66-5.66,3.32-1.36.83-2.65,1.65t-2.53,1.65q-1.85,1.23-3.55,2.46-1.14.82-2.2,1.63t-1.91,1.5h0l-.15.12-1,.81q-2.41,2-4.37,4l-.76.79-.78.85-.5.57a29.61,29.61,0,0,0-3.38,4.69l-.31.56c-.22.41-.41.81-.59,1.22l.6.08.29-.48a27.44,27.44,0,0,1,2.85-3.75l.67-.73.08-.08h0a54.13,54.13,0,0,1,5.27-4.81h0l.41-.33,1-.76q2.47-1.9,5.36-3.84l1.17-.77q2.25-1.46,4.72-2.94h0l1.62-1,1.36-.79c3.67-2.1,7.66-4.21,11.93-6.34l1.61-.8L87.06,158c5-2.39,10.4-4.78,16.05-7.16l3.81-1.59,1.93-.79,3.92-1.58q3-1.18,6-2.36l1.51-.58h0q5.38-2.05,11-4.08,3.19-1.15,6.45-2.3l4.37-1.52q7.68-2.64,15.64-5.2l4.56-1.45a913.76,913.76,0,0,1,104.18-26.31c107.43-20,230.26-15.17,274.34,10.75C497,85,374.4,77.91,267,97.89Z"/><path class="cls-5" d="M515.72,216l1-1.06h0l-1,1.06Z"/><path class="cls-5" d="M332.07,292.47h0l-6.06.48C328.1,292.8,330.14,292.64,332.07,292.47Z"/><path class="cls-5" d="M334.78,292.22q3.52-.34,7-.72t6.65-.8c2-.23,3.87-.46,5.68-.69l1.18-.17C349,290.61,341.16,291.58,334.78,292.22Z"/><path class="cls-5" d="M47.65,217.38c10.44,22,143.88,14.65,237.49-2.75,107.43-20,221.91-65.11,255.69-100.81-34.92,33-150.32,75.87-257.75,95.85C189,227.17,55.28,236.15,47,216l.5,1.21c0-.08-.06-.16-.09-.23Z"/><path class="cls-5" d="M309.1,255.44c107.43-20,211.18-83.39,231.73-141.62-22.1,56.23-127.11,118-234.54,138-34,6.32-74.12,9.71-112.43,9.61l-4.78,0c-16.69-.17-33-1-48.15-2.58l-4.31-.47c-7.13-.81-14-1.78-20.54-2.93l-3.88-.71-1.91-.37-3.76-.77q-1.86-.39-3.67-.81-3.62-.83-7.06-1.74c-4-1.06-7.8-2.21-11.38-3.45Q82.67,247,81,246.33h0l-.4-.15h0q-1.31-.5-2.57-1a77.13,77.13,0,0,1-14.36-7.53l-.73-.51h0l-.33-.24h0a38.27,38.27,0,0,1-7.31-6.75h0l-.63-.8h0l0-.06.15.2.66.85c.21.27.42.55.64.82.36.44.74.88,1.13,1.31C88.67,267.38,220.33,271.95,309.1,255.44Z"/><path class="cls-5" d="M193.43,286.36l1.74.21-.41-.07c40.4,4.32,83.89,2.83,126-4.33h.21l2.21-.06,3.45-.12q7.25-1.35,14.4-2.93l-5.06.27c43.35-8.87,84.57-23.87,118.58-44.82l.36-.11q5.5-3.4,10.72-7l-.35.12c23.11-15.86,42.27-34.75,55.65-56.6l1.42-.71q1.77-2.88,3.38-5.81l-.69.35-.73.36a140.4,140.4,0,0,0,13-32.44c-18.84,65.13-104,128.34-202,146.57C259,293.42,145.5,286.88,88.15,256.38l1,.55.85.47.69.35c3.26,1.66,7,3.46,10.53,5.07l1.64.74q7.79,3.41,16.1,6.36C141.56,278,166.81,283.43,193.43,286.36Z"/><path class="cls-5" d="M83.93,254c1.18.69,2.4,1.36,3.64,2l.58.31Z"/><path class="cls-5" d="M537.27,132.68a101.29,101.29,0,0,0,2.59-11.31l.22-.06c.19-1.45.36-2.91.5-4.37l-.08,0q.19-1.57.32-3.14A139.08,139.08,0,0,1,537.27,132.68Z"/><path class="cls-5" d="M540.83,113.82c7.35,61-45.06,163.54-216.86,179.28l-2,.14c-5.27.27-11.62.58-18.93.81,4.08-.09,7.93-.22,11.52-.38,2.45-.11,4.78-.24,7-.38l1.6-.11h0L326,293h0l6.06-.48h0l.83-.07.24,0,.31,0,1.27-.13c6.38-.64,14.17-1.62,20.48-2.38l.72-.09c1.9-.27,3.78-.54,5.63-.83,2.93-.46,5.8-.95,8.61-1.47l.13,0C477.72,267.41,554,189.7,540.83,113.82Z"/><path class="cls-5" d="M532.27,195.61l1-1.52q1.43-2.29,2.72-4.61.86-1.55,1.66-3.11c.32-.63.64-1.26.94-1.9h0l.59-1.24q1.48-3.15,2.7-6.34.61-1.6,1.16-3.21a82.31,82.31,0,0,0-2.19-59.87c14.27,36.31,3,73.48-26.48,103.47l.46-.44.91-.87h0l1-1.06,3.08-3.27A123.24,123.24,0,0,0,532.27,195.61Z"/><path class="cls-5" d="M514.35,217.29l-7,6.64q2.89-2.59,5.58-5.26l.78-.75,1.07-1.07-.46.44Z"/><path class="cls-5" d="M551.65,159.45c4.22-15,1-30.64-10.82-45.63,13,17.63,15.15,36,8.09,53.33l.65-1.64.61-1.62.11-.31-.16.43C550.62,162.61,551.14,161,551.65,159.45Z"/><path class="cls-5" d="M554.86,126.31a19.23,19.23,0,0,0-1.21-2q-.45-.65-1-1.29c-2.62-3.21-6.54-6.31-11.84-9.24a42.53,42.53,0,0,1,11.36,9.73q.55.72,1,1.44t.89,1.46a19.52,19.52,0,0,1,1.62,3.68q.12.37.22.74a16.74,16.74,0,0,1,.58,4.5q0,.38,0,.76t-.06.76h0l0-.2h0l.08-1.06.06-.74h0v-.35l0-.56A14.67,14.67,0,0,0,554.86,126.31Z"/><path class="cls-5" d="M555.56,112.66c-.42-.41-5.18-.06-14.73,1.16,10.08-.51,14.94-.11,15.1,1.05l-.16-1.09-.17-1.07s0,0,0,0Z"/><path class="cls-5" d="M540.83,113.82c6.46-15.61,5.62-29.08-1.35-39.93l-.53-.81-1.09-1.5-.22-.3.06.08-.3-.42-.45-.61-.87-1.14C545.31,81,547.42,96.13,540.83,113.82Z"/><path class="cls-5" d="M500.49,38c27.32,17.35,42.67,43.58,40.34,75.79,2.9-29.43-9.47-53.75-32.62-70.69q-2.9-2.13-6-4.09l-.12-.08-.24-.15.18.11q-1.23-.77-2.5-1.52c-1.08-.65-2.21-1.31-3.36-2Z"/><path class="cls-5" d="M370.67,7.65C458.26,6.43,530.35,49,540.83,113.82c-4-29.07-20.39-53.69-45.12-71.9q-2.65-2-5.42-3.8t-5.67-3.6q-2.9-1.75-5.91-3.4-4.52-2.47-9.29-4.7-5.54-2.59-11.4-4.85h0q-3.57-1.38-7.25-2.63h0c-1.6-.55-3.21-1.08-4.85-1.59q-5.29-1.65-10.78-3a226.55,226.55,0,0,0-34.52-5.86q-2-.19-4-.34-7.1-.54-14.4-.67l-3,0C376.49,7.52,373.59,7.57,370.67,7.65Z"/><path class="cls-5" d="M351.78,8.58,361.21,8h0l6.47-.41h0q-2.47.09-4.95.23-3.28.18-6.58.45l-2.36.16-2,.16-.47,0-1,.1Z"/><path class="cls-5" d="M345.51,9.18h-.08l4.91-.48Q347.94,8.92,345.51,9.18Z"/><path class="cls-5" d="M91.24,119.68C142.52,76.41,230,38.49,295.89,26.23c107.43-20,217.1,19.24,244.94,87.6C514.41,44.16,405.9,3.88,298.47,23.86,236.42,35.4,155,70,102.3,110.59l-1.42,1.1c-1.59,1.25-3.2,2.53-4.79,3.82l-.38.31-1.33,1.1-.32.27-.44.39q-1.45,1.25-3,2.6-2.18,1.85-4.27,3.72L85,125.17Z"/><path class="cls-5" d="M276.12,58c107.43-20,225.95,5,264.71,55.83C503,60.79,385.17,34,277.74,54,192.13,69.9,75.24,121.47,50.44,168.59q-.89,1.7-1.62,3.38l-.31.76-.16.37-.16.41-.06.14C67.67,127.16,188.17,74.35,276.12,58Z"/><path class="cls-5" d="M48,174.07l-.21.51-.11.28C47.74,174.6,47.85,174.34,48,174.07Z"/><path class="cls-5" d="M48,174.07l.17-.41Z"/><path class="cls-5" d="M557.4,135.78v-.08c0-.28,0-.58.06-.87l.05-.84c.06-1,.11-1.87.14-2.76v-.08c0-.09,0-.6,0-1.42s0-1.48,0-2.44c0-.24,0-.48,0-.75v-.63c0-1.38-.06-2.12-.16-3.69V122h0c-.06-.94-.14-1.92-.23-2.91-.07-.73-.12-1.17-.12-1.2-.09-.81-.18-1.54-.26-2.17s-.18-1.41-.3-2.07c-.19-1.22-.72-4.45-1.66-8.21-.13-.58-.3-1.25-.51-2-.11-.42-.23-.82-.38-1.31l-.15-.49-.27-.9c-.29-1-.5-1.64-.83-2.59-.18-.53-.29-.83-.29-.83-.31-.94-.95-2.67-1.78-4.7-.39-1-.79-1.9-1.23-2.88l-.34-.73-.11-.24h0c-.87-1.88-1.21-2.62-2.14-4.32s-1.33-2.53-2.36-4.28l-.09-.16h0l0,0-.7.45.69-.5c-.28-.49-.61-1-.94-1.58-.67-1.1-1.28-2-2-3.07l-.41-.62c-.43-.64-.94-1.37-1.45-2.08-.26-.38-.53-.77-.81-1.15L538,70.26c-1.22-1.7-3.06-4-4.7-5.86l-.88-1c-.87-1-2-2.2-3.26-3.54-.61-.65-1.21-1.27-1.76-1.83-1.07-1.08-3.82-3.82-6.19-5.84l-.55.64.46-.72c-1-.89-2-1.75-2.9-2.48l-.86-.71c-1.44-1.18-3.06-2.44-5.58-4.33l-.9-.68c-2.54-1.89-6.16-4.32-9-6.06l-2.13-1.28c-1.52-.94-3.06-1.84-4.59-2.69-.8-.44-1.6-.88-2.4-1.3-3.87-2.12-7.49-3.93-10.44-5.23s-6.23-2.7-9.72-4.08c-4.66-1.86-9-3.44-12.51-4.57-1.82-.6-3.63-1.16-5.51-1.7l-.89-.26c-5.59-1.63-11.31-3.08-17-4.29-1.83-.4-3.54-.74-5.07-1l-.27-.05a255.93,255.93,0,0,0-30-4l-.61-.05c-4.33-.44-10.24-.73-15-.75-4.4-.09-9-.09-13.8,0h-.13l-3.52.1c-5.42,0-12.36.58-17,1.05q-2.64.22-5.88.58h-.14c-3.61.39-7.31.87-11,1.41-4.78.69-9.5,1.45-13.64,2.21-4.3.71-10.25,2-17.7,3.75-5.62,1.34-12,2.91-17.1,4.39-5.68,1.51-12.71,3.71-17.5,5.24-5.46,1.74-13.38,4.3-19.2,6.48l-.4.15-2.32.83c-3.45,1.25-7.53,2.8-12.11,4.61l-4.52,1.71L223,42l-5.24,2.16c-2.08.85-4.1,1.68-6,2.48-1.34.56-2.74,1.16-4.16,1.79-6.09,2.65-12.77,5.82-16.2,7.47-3,1.44-6.49,3.18-10.37,5.16l-7,3.48c-3.81,1.89-8.28,4.36-12.6,6.75-1.92,1.06-3.78,2.09-5.47,3-9.07,4.9-20.72,12-30.4,18.52-1.68,1.11-3.09,2.07-4.31,2.94l-.92.65c-4.18,2.89-9.39,6.49-13.21,9.44-1.18.89-2.56,2-4.2,3.25-3.41,2.6-6.25,4.85-8.66,6.89-2.83,2.32-5.26,4.42-7.22,6.21l-1.09,1-.31.28-1.42,1.3-.65.59-.93.86c-3.45,3.21-6.7,6.44-9.64,9.61l-1,1c-1.37,1.41-2.92,3.15-4.72,5.31l-.67.75c-1.38,1.52-2.94,3.46-4.91,6.1-.48.62-.92,1.21-1.33,1.77l-.15.19a84.48,84.48,0,0,0-7.43,11.33c-.34.59-.74,1.31-1.2,2.18-.63,1.14-1.34,2.44-1.84,3.56l-.38.8c-.54,1.06-1.15,2.46-2,4.47l-.09.21-.32.8c-.25.62-1.08,2.78-1.59,4.53-.36,1.16-.78,2.64-1.08,3.79-.12.46-.22.86-.31,1.28-.17.72-.28,1.26-.42,2l-.05.25c0,.24-.09.48-.14.73l.09,0a8.88,8.88,0,0,1,.9,0h.13l.15,0,.45.06.08-.42.06-.3c.13-.7.23-1.22.4-1.92.09-.41.18-.79.31-1.27.28-1.1.69-2.55,1.06-3.75s.89-2.74,1.55-4.39l.29-.74.11-.27c.75-1.87,1.37-3.27,1.88-4.28l.42-.87c.48-1.06,1.17-2.33,1.79-3.45.46-.86.84-1.56,1.19-2.16a82.84,82.84,0,0,1,7.31-11.14l.13-.17c.42-.57.86-1.16,1.34-1.78,1.94-2.61,3.47-4.51,4.82-6l.69-.77c1.8-2.15,3.32-3.87,4.66-5.24l1-1c2.93-3.15,6.15-6.36,9.57-9.54l.92-.85.66-.61,1.41-1.29.31-.28,1.09-1c1.94-1.78,4.35-3.86,7.17-6.17,2.4-2,5.21-4.27,8.61-6.86,1.64-1.3,3-2.35,4.19-3.24,3.8-2.92,9-6.51,13.15-9.39l.94-.66c1.21-.86,2.6-1.81,4.27-2.91,9.65-6.49,21.24-13.56,30.27-18.44,1.7-.92,3.56-1.95,5.49-3,4.31-2.38,8.76-4.85,12.54-6.72l7-3.49c3.87-2,7.35-3.7,10.34-5.14,3.43-1.65,10.08-4.8,16.15-7.45,1.41-.62,2.8-1.22,4.13-1.78,1.89-.79,3.9-1.62,6-2.47l5.25-2.16,6.74-2.82,4.5-1.7c4.58-1.81,8.64-3.35,12.08-4.6l2.32-.83.41-.15c5.78-2.17,13.68-4.73,19.12-6.46,4.77-1.52,11.77-3.71,17.44-5.22,5-1.47,11.44-3,17-4.37,7.41-1.77,13.32-3,17.6-3.73s8.83-1.52,13.59-2.2c3.67-.54,7.34-1,10.94-1.4l.2,0c2.08-.23,4-.42,5.79-.57,4.65-.48,11.52-1,16.89-1h.12l3.43-.1h.12c4.74-.11,9.36-.12,13.75,0,4.76,0,10.6.3,14.9.74l.49,0h.15A256.57,256.57,0,0,1,431,13l.27.05c1.52.28,3.21.62,5,1,5.64,1.2,11.32,2.64,16.87,4.26l.88.26c1.87.54,3.65,1.09,5.46,1.69,3.49,1.12,7.79,2.69,12.41,4.54,3.47,1.37,6.81,2.77,9.66,4s6.48,3.07,10.32,5.18c.8.42,1.6.85,2.38,1.29,1.51.84,3,1.73,4.54,2.66L501,39.27c2.8,1.72,6.36,4.12,8.87,6l.89.67c2.5,1.88,4.1,3.12,5.53,4.29l.85.7c.88.73,1.87,1.58,2.86,2.45l.11.09c2.32,2,5,4.67,6.08,5.74.54.55,1.13,1.16,1.73,1.8,1.27,1.33,2.35,2.5,3.2,3.49l.89,1c1.6,1.82,3.4,4.07,4.59,5.72l.89,1.21c.26.36.52.73.78,1.11.51.72,1,1.42,1.43,2.05l.41.62c.68,1,1.28,1.94,1.93,3,.33.54.64,1.06.92,1.54l.11.19c1.05,1.79,1.49,2.56,2.35,4.26s1.23,2.36,2.1,4.25l.77-.35-.74.42.06.13.35.76c.43,1,.83,1.88,1.21,2.82.82,2,1.44,3.69,1.75,4.62,0,0,.11.31.29.82.32.93.52,1.54.81,2.53l.27.9.15.49c.14.47.25.86.36,1.27.19.67.36,1.33.5,1.94.93,3.71,1.45,6.88,1.63,8.1.11.64.21,1.4.29,2s.17,1.34.26,2.15c0,0,.05.46.12,1.17.1,1,.18,2,.23,2.92v.14l0,.06c.1,1.53.14,2.25.15,3.58v.61c0,.26,0,.52,0,.77,0,.83,0,1.45,0,2.37s0,1.29,0,1.43c0,.92-.08,1.81-.14,2.76l-.05.81c0,.3,0,.58-.06.86v.08c-.09,1.19-.26,2.85-.46,4.46,0,.29-.07.58-.11.84h0c-.27,2-.4,2.91-.77,4.73l0,.2c-.3,1.83-.81,4.16-1.27,5.83-.49,2.21-1.37,5.12-2,7.1-.27.81-.57,1.7-.89,2.63-.17.51-.34,1-.53,1.51l-.48,1.28c-.37,1.05-.88,2.32-1.55,3.89-.76,1.85-1.28,3.07-2,4.59-.32.69-.64,1.35-1,2l-.49,1c-1.07,2.24-1.93,3.78-3.62,6.76-.9,1.59-2.12,3.61-3.45,5.69l-.15.24a174.79,174.79,0,0,1-12.61,17c-1.54,1.89-3.53,4-5.1,5.73q-1.43,1.57-3.1,3.29a180.15,180.15,0,0,1-14.52,13.52,166.49,166.49,0,0,1-16.82,12.82l-1.67,1.1L480,243.91c-3.59,2.43-8.44,5.31-12.34,7.62l-.32.19c-1,.61-2.11,1.23-3.24,1.87l-1.17.65-.74.41c-7.26,4-15.73,8.13-22.65,11.07-1.48.63-3.16,1.32-5,2.07l-4,1.7-2.52.94c-2.57,1-4.9,1.9-6.9,2.61-1.55.55-3.19,1.12-4.9,1.69l-1.19.42c-2.52.89-5.54,1.8-7.9,2.5q-2.16.67-4.22,1.27l-3.39,1-.61.18c-5.49,1.67-13.07,3.47-22.52,5.36-1.62.33-3.19.64-4.63.9-3,.57-6.45,1.16-10.25,1.74-1.63.26-3.27.51-4.94.74l-4.13.56-.59.08c-11.23,1.6-25.68,2.74-34.65,3.23l-1.94.1-2.07.12c-1.85.1-4.05.19-6.73.28s-5.17.17-7.75.23l-5.85.17c-6.59.21-14.75.18-24.27-.08-6.49-.15-13.89-.47-21.42-.92-8-.47-23.35-1.49-36-3.16-5.87-.68-11.17-1.39-15.75-2.1-2.3-.33-4.22-.63-5.86-.92l-1.55-.28c-4.92-.79-10-1.64-14.15-2.48-5.46-1.11-10.33-2.15-14.9-3.18l-3.58-.77c-7.56-1.65-17.58-4.41-26.79-7.37l-1.35-.44c-4.8-1.56-9.34-3.16-13.15-4.63-2.59-1-4.84-1.86-6.72-2.66a140,140,0,0,1-15-6.93l-1-.54-1.29-.7-1-.54c-1.28-.67-2.74-1.48-4.23-2.34l-1.15-.68c-1.56-.93-3-1.83-4.19-2.62-.82-.55-1.7-1.15-2.62-1.79-1.3-.86-2.35-1.58-3.19-2.19a86.2,86.2,0,0,1-6.84-5.41l-.22-.19c-1.34-1.13-2.33-2.06-3.57-3.28l-.18-.18-.55-.55-.41-.41c-1-1-2.31-2.4-3.35-3.59-.47-.52-1.05-1.21-1.73-2.06q-.8-1-1.34-1.72c-.81-1.06-1.56-2.12-2.06-2.89s-1.3-2-1.83-2.89l-.73.43.68-.51,0-.08-.36-.62c-.32-.55-.54-.94-.85-1.55l-.16-.3-.52-1-.14-.28c-.19-.39-.37-.78-.59-1.25-.34-.72-.65-1.45-1-2.31,0,0-.37-.87-.86-2.3l-.15-.42c-.18-.53-.3-.87-.46-1.43l-.13-.43c-.2-.66-.36-1.27-.5-1.82h-.24a3.73,3.73,0,0,1-.94.42c-.13.08-.27.15-.41.21.13.51.28,1.07.46,1.66l.14.46c.17.58.29.94.48,1.49l.15.43c.51,1.48.9,2.4.92,2.43.33.82.66,1.58,1,2.35.2.44.39.85.6,1.29l.15.31c.15.31.32.63.54,1l.75-.4-.69.5.07.13c.34.66.57,1.08.89,1.62l.41.7.05.09c.54.91,1.3,2.08,1.86,2.94.74,1.15,1.74,2.48,2.13,3s.84,1.1,1.38,1.77c.69.87,1.3,1.59,1.78,2.12,1,1.2,2.39,2.64,3.42,3.67l.41.4.57.56.18.17c1.27,1.25,2.28,2.2,3.65,3.35l.2.18a87.9,87.9,0,0,0,7,5.52c.86.62,1.93,1.35,3.24,2.22.91.63,1.8,1.24,2.63,1.79,1.2.8,2.68,1.73,4.26,2.66l1.17.69c1.5.87,3,1.69,4.29,2.38l1,.53,1.29.7,1,.52a141.4,141.4,0,0,0,15.19,7c1.88.8,4.16,1.7,6.76,2.67,3.83,1.48,8.4,3.09,13.23,4.66l1.36.44c9.26,3,19.34,5.75,26.95,7.41l3.58.77c4.57,1,9.46,2.08,14.93,3.19,4.14.84,9.28,1.69,14.21,2.49l1.54.27c1.66.29,3.6.59,5.91.92,4.59.71,9.91,1.42,15.79,2.11,6.24.82,13.13,1.49,19.49,2,6.55.54,12.52.92,16.61,1.16,7.54.45,15,.77,21.47.92,9.55.26,17.75.29,24.37.08l5.83-.17c2.58-.06,5.2-.13,7.77-.23s4.9-.18,6.76-.28l2.07-.12,1.94-.1c9-.49,23.51-1.64,34.79-3.25l.58-.08,4.13-.56q2.51-.36,5-.75c3.81-.59,7.28-1.18,10.3-1.75,1.44-.26,3-.57,4.65-.91,9.51-1.9,17.13-3.71,22.68-5.4l.59-.18,3.4-1q2.08-.6,4.24-1.27c2.37-.7,5.42-1.62,8-2.53l1.18-.42c1.71-.57,3.36-1.14,4.92-1.7,2-.72,4.37-1.61,6.94-2.63l2.53-1,4.06-1.71c1.86-.75,3.55-1.44,5-2.07,7-3,15.5-7.12,22.8-11.14l.75-.42,1.18-.66c1.13-.64,2.23-1.27,3.27-1.89l.32-.19c3.92-2.32,8.8-5.22,12.43-7.67l3.07-2.11,1.65-1.08a168.26,168.26,0,0,0,17-13,181.85,181.85,0,0,0,14.67-13.66c1.09-1.12,2.13-2.23,3.09-3.28,1.58-1.69,3.6-3.88,5.17-5.8a176.55,176.55,0,0,0,12.74-17.18l.14-.23c1.34-2.1,2.58-4.15,3.49-5.76,1.71-3,2.58-4.57,3.67-6.85l.48-1c.32-.62.65-1.31,1-2,.75-1.54,1.28-2.78,2-4.66.68-1.59,1.19-2.89,1.6-4l.45-1.2c.19-.52.37-1,.54-1.55.32-.93.63-1.83.9-2.64.67-2,1.56-5,2.06-7.22.47-1.68,1-4.08,1.3-6l0-.17c.37-1.83.51-2.79.78-4.81h0c0-.27.08-.57.11-.86C557.14,138.69,557.32,137,557.4,135.78Z"/><path class="cls-5" d="M109.72,103.16s-1.9-12.22-2.89-20.73c-1.62-13.95-.44-18-.44-18a88.12,88.12,0,0,1,14.73-12.18A93.11,93.11,0,0,1,137,43.95a112.11,112.11,0,0,1,17-5.64s14.83,18.61,11.51,28.86c-.27.84-1,2.37-1,2.37Z"/><path class="cls-5" d="M0,203.44c-.48-5,22-10.84,28.43-12.53,15.37-4,52.47-11.84,55.62-3.7,1.81,4.67-8.12,13.08-14.83,16.95s-12.68,4.4-24.9,5.65c-15.55,1.58-25.07.1-29.31-.71C7.94,207.74.28,206.28,0,203.44Z"/><path class="cls-6" d="M445.24,203.25c-3.69,1.77-9.34,4.46-16.28,7.61C401.75,223.22,378.48,232,368,235.69c-61.47,21.58-131.61,24.82-151.24,25.62-24.86,1-45.32.37-58.88-.36a156.36,156.36,0,0,1-18.47-30.47,158.34,158.34,0,0,1-11.24-34.61c-7.75-36.47-1.92-72.26,1.25-87.89a546.13,546.13,0,0,1,71.06-30c26.62-9.07,68.8-23.12,125.19-26.27a415.07,415.07,0,0,1,83.94,3.9q7,36,16.27,74.41Q435.1,168.23,445.24,203.25Z"/><path class="cls-3" d="M260.19,148,268,179.86l34.7-26.58Z"/><path class="cls-5" d="M445.24,203.25a484.68,484.68,0,0,1-84.14,34.86c-38.87,12-69.49,16-90.27,18.69a626.12,626.12,0,0,1-113.68,4.1A68.71,68.71,0,0,1,146,242.83,552.67,552.67,0,0,0,268.9,244c21.15-2.19,51.3-5.47,89.41-17.27a413.38,413.38,0,0,0,83.52-36.4q.75,3.33,1.68,6.85Q444.34,200.3,445.24,203.25Z"/><path class="cls-10" d="M413.92,212.08c6.68-3.35,12.44-6.51,17.19-9.24"/><path class="cls-10" d="M385.68,224.64q3.25-1.26,6.56-2.62c5.63-2.31,10.9-4.65,15.77-6.95"/><path class="cls-10" d="M202,255.25A547.19,547.19,0,0,0,295,248a547.13,547.13,0,0,0,83.9-20.76"/><path class="cls-10" d="M163.11,252.55q13.59,1.31,26.34,1.93"/></svg>