<svg id="Layer_1" data-name="Layer 1" xmlns="http://www.w3.org/2000/svg" viewBox="0 0 257.28 110.23"><defs><style>.cls-1{fill:#e5e5e5;}</style></defs><title>Untitled-3</title><path class="cls-1" d="M22.13,110.23C9.91,110.23,0,102,0,91.93s9.91-18.3,22.13-18.3a26.11,26.11,0,0,1,8.5,1.4c4-11.5,16.82-19.92,32-19.92a40.29,40.29,0,0,1,6,.46c0-.15,0-.31,0-.46C68.68,24.68,98.51,0,135.32,0c28.56,0,52.93,14.86,62.41,35.75a55,55,0,0,1,13.51-1.67c25.43,0,46,17,46,38.08s-20.61,38.08-46,38.08Z"/><path class="cls-1" d="M190.41,51.43c-.3-15.74-11.9-30.54-28.25-38.6S125,3.66,107.09,9.05A76.07,76.07,0,0,0,81.84,22.22C94,8.74,113.42,0,135.32,0c28.56,0,52.93,14.86,62.41,35.75a55,55,0,0,1,13.51-1.67c17.7,0,33.06,8.27,40.77,20.39a40.06,40.06,0,0,0-18.19-11.6C219,38.31,201.11,41.84,190.41,51.43Z"/><path class="cls-1" d="M0,91.93c0-10.11,9.91-18.3,22.13-18.3a26.11,26.11,0,0,1,8.5,1.4c4-11.5,16.82-19.92,32-19.92a39.77,39.77,0,0,1,4,.21c7.67,2.33,14.44,6.7,18.74,12.45C76.67,62.35,64.81,61.09,54.5,64S35.9,74.29,33.07,83c-5.24-3.34-12.46-3.3-18.47-1S4.22,89.13,3,94.51a15.56,15.56,0,0,0,0,6.61A15.88,15.88,0,0,1,0,91.93Z"/><path class="cls-1" d="M160.53,51.5c7-7.25,19.69-10.39,30.39-7.53s18.75,11.52,19.32,20.81C205,58.35,197.18,54.53,188.38,51.9A54.68,54.68,0,0,0,160.53,51.5Z"/><path class="cls-1" d="M74,78.12C73.19,71.65,77.57,64.93,84.57,62s16.15-2,22,2.39c-6.42-1-12.58.28-18.5,2.58A30,30,0,0,0,74,78.12Z"/></svg>