<svg id="Layer_1" data-name="Layer 1" xmlns="http://www.w3.org/2000/svg" viewBox="0 0 268.4 115"><defs><style>.cls-1{fill:#f1f1f1;}</style></defs><title>Untitled-3</title><path class="cls-1" d="M245.32,115c12.75,0,23.08-8.55,23.08-19.09s-10.33-19.09-23.08-19.09a27.24,27.24,0,0,0-8.87,1.46c-4.18-12-17.54-20.78-33.4-20.78a42,42,0,0,0-6.3.48c0-.16,0-.32,0-.48,0-31.76-31.13-57.5-69.52-57.5C97.43,0,72,15.51,62.13,37.3A57.34,57.34,0,0,0,48,35.55C21.5,35.55,0,53.34,0,75.28S21.5,115,48,115Z"/><path class="cls-1" d="M69.76,53.66c.31-16.42,12.42-31.87,29.48-40.27S138,3.81,156.68,9.44A79.36,79.36,0,0,1,183,23.18C170.35,9.11,150.08,0,127.23,0,97.43,0,72,15.51,62.13,37.3A57.34,57.34,0,0,0,48,35.55c-18.47,0-34.49,8.63-42.53,21.27a41.79,41.79,0,0,1,19-12.1C39.9,40,58.59,43.65,69.76,53.66Z"/><path class="cls-1" d="M268.4,95.91c0-10.54-10.33-19.09-23.08-19.09a27.24,27.24,0,0,0-8.87,1.46c-4.18-12-17.54-20.78-33.4-20.78a41.49,41.49,0,0,0-4.15.22c-8,2.43-15.07,7-19.55,13,9.07-5.66,21.45-7,32.2-3.93S231,77.5,233.91,86.58c5.46-3.49,13-3.45,19.27-1.07S264,93,265.27,98.59a16.23,16.23,0,0,1,0,6.9A16.56,16.56,0,0,0,268.4,95.91Z"/><path class="cls-1" d="M100.93,53.72c-7.34-7.57-20.54-10.84-31.7-7.86s-19.56,12-20.16,21.71c5.45-6.7,13.63-10.68,22.81-13.43A57,57,0,0,1,100.93,53.72Z"/><path class="cls-1" d="M191.16,81.5c.89-6.74-3.68-13.76-11-16.85s-16.85-2.05-22.94,2.49c6.7-1.08,13.12.29,19.3,2.69A31.32,31.32,0,0,1,191.16,81.5Z"/></svg>