<svg id="Layer_1" data-name="Layer 1" xmlns="http://www.w3.org/2000/svg" viewBox="0 0 137.8 67.26"><defs><style>.cls-1{fill:#e5e5e5;}</style></defs><title>Untitled-3</title><path class="cls-1" d="M4.33,36.54l.05-.06a20.86,20.86,0,0,1,2-2l0,0q.5-.44,1-.86l.08-.06A23.33,23.33,0,0,1,9.81,32l.18-.11c.39-.23.78-.44,1.18-.65l0,0q.64-.32,1.3-.61l.2-.08q.56-.24,1.13-.45l.27-.1c.45-.16.91-.32,1.37-.46h0c.45-.14.91-.26,1.37-.37l.36-.08,1.17-.24.28-.05q.71-.12,1.44-.21l.33,0,1.18-.1.42,0c.5,0,1,0,1.51,0a28.31,28.31,0,0,1,4.74.41c0-.18,0-.36,0-.54C28.27,12.62,43.9,0,63.18,0c16.1,0,29.64,8.8,33.68,20.76a28.52,28.52,0,0,1,3.85-.26c12.71,0,23,8.32,23,18.58a15.19,15.19,0,0,1-.3,3c8.05.52,14.39,6,14.39,12.58,0,7-7,12.63-15.64,12.63-.37,0-.73,0-1.09,0s-.54,0-.81,0H23.55C10.54,67.26,0,58.54,0,47.79A17.2,17.2,0,0,1,4.33,36.54Z"/></svg>