<svg id="Layer_1" data-name="Layer 1" xmlns="http://www.w3.org/2000/svg" viewBox="0 0 230 112.26"><defs><style>.cls-1{fill:#e5e5e5;}</style></defs><title>Untitled-3</title><path class="cls-1" d="M222.78,61l-.08-.1a34.81,34.81,0,0,0-3.26-3.3l-.07-.06q-.84-.74-1.73-1.43l-.13-.1a38.93,38.93,0,0,0-3.88-2.63l-.3-.18c-.64-.38-1.3-.74-2-1.08l-.08,0q-1.06-.54-2.17-1l-.33-.14q-.93-.4-1.89-.76l-.46-.17c-.75-.27-1.51-.53-2.29-.76h0c-.75-.23-1.51-.43-2.28-.61l-.6-.14q-1-.22-2-.41l-.47-.09q-1.19-.21-2.41-.35l-.55-.06q-1-.11-2-.17l-.7,0c-.83,0-1.67-.07-2.51-.07a47.25,47.25,0,0,0-7.91.68c0-.3,0-.59,0-.89,0-26-26.09-47-58.27-47C97.69,0,75.08,14.69,68.34,34.65a47.61,47.61,0,0,0-6.42-.44c-21.21,0-38.4,13.88-38.4,31a25.35,25.35,0,0,0,.49,5c-13.44.86-24,9.93-24,21,0,11.64,11.69,21.08,26.11,21.08.61,0,1.22,0,1.82-.06.45,0,.9.06,1.35.06H190.7c21.7,0,39.3-14.55,39.3-32.5A28.71,28.71,0,0,0,222.78,61Z"/></svg>