<svg id="Layer_1" data-name="Layer 1" xmlns="http://www.w3.org/2000/svg" viewBox="0 0 205.41 88.01"><defs><style>.cls-1{fill:#e5e5e5;}</style></defs><title>Untitled-3</title><path class="cls-1" d="M17.67,88C7.91,88,0,81.47,0,73.4S7.91,58.79,17.67,58.79a20.85,20.85,0,0,1,6.79,1.12C27.65,50.72,37.88,44,50,44a32.16,32.16,0,0,1,4.82.37c0-.12,0-.24,0-.37C54.83,19.7,78.65,0,108,0c22.81,0,42.26,11.87,49.82,28.54a43.88,43.88,0,0,1,10.79-1.33c20.3,0,36.76,13.61,36.76,30.4S188.95,88,168.65,88Z"/><path class="cls-1" d="M152,41.06c-.24-12.57-9.5-24.39-22.56-30.82s-29.69-7.32-44-3A60.73,60.73,0,0,0,65.34,17.74C75,7,90.55,0,108,0c22.81,0,42.26,11.87,49.82,28.54a43.88,43.88,0,0,1,10.79-1.33c14.13,0,26.4,6.6,32.55,16.28a32,32,0,0,0-14.52-9.26C174.87,30.58,160.56,33.41,152,41.06Z"/><path class="cls-1" d="M0,73.4c0-8.07,7.91-14.61,17.67-14.61a20.85,20.85,0,0,1,6.79,1.12C27.65,50.72,37.88,44,50,44a31.75,31.75,0,0,1,3.18.17,29.27,29.27,0,0,1,15,9.94c-6.94-4.33-16.41-5.34-24.64-3S28.66,59.31,26.4,66.26c-4.18-2.67-9.94-2.64-14.75-.82a14.59,14.59,0,0,0-9.25,10,12.42,12.42,0,0,0,0,5.28A12.68,12.68,0,0,1,0,73.4Z"/><path class="cls-1" d="M128.16,41.11c5.62-5.79,15.72-8.29,24.26-6s15,9.2,15.43,16.61c-4.17-5.13-10.43-8.18-17.46-10.28A43.66,43.66,0,0,0,128.16,41.11Z"/><path class="cls-1" d="M59.12,62.37c-.68-5.16,2.81-10.53,8.4-12.89s12.9-1.57,17.56,1.9c-5.13-.83-10,.22-14.77,2.06A24,24,0,0,0,59.12,62.37Z"/></svg>