<?xml version="1.0" encoding="utf-8"?>
<!-- Generator: Adobe Illustrator 25.2.3, SVG Export Plug-In . SVG Version: 6.00 Build 0)  -->
<svg version="1.1" id="Layer_1" xmlns="http://www.w3.org/2000/svg" xmlns:xlink="http://www.w3.org/1999/xlink" x="0px" y="0px"
	 viewBox="0 0 200 100" style="enable-background:new 0 0 200 100;" xml:space="preserve">
<style type="text/css">
	.st0{fill:#9B9C9C;}
</style>
<g>
	<path class="st0" d="M16.92,74.35c0.02-6.91,0.04-13.82,0.05-20.73c0-2.17-0.76-2.96-3.01-3.01c-2.12-0.04-4.24-0.01-6.36-0.01
		c-0.49,0-0.98,0-1.58,0c0-2.02,0-3.93,0-6.09c1.13,0,2.27,0,3.42,0c0.54,0,1.09,0.04,1.62-0.01c2.33-0.23,4.45,0.02,5.54,2.66
		c1.03-2.49-0.78-5.41-3.16-5.45c-2.43-0.04-4.87-0.03-7.31-0.04c-0.09,0-0.17-0.05-0.37-0.11c0-3.12,0-6.28,0-9.67
		c1.35,0,2.72,0,4.1,0c0.63,0,1.26,0,1.89,0c4.85,0,8.05,3.18,8.05,8.01c0,10.41,0,20.82,0,31.24c0,0.4-0.07,0.83,0.04,1.2
		c0.08,0.27,0.46,0.66,0.64,0.63c0.3-0.05,0.74-0.38,0.78-0.63c0.1-0.75,0.03-1.52,0.03-2.28c0-10.05,0.02-20.11-0.01-30.16
		c-0.01-3.36,1.75-5.63,4.31-7.48c0.35-0.25,0.82-0.48,1.24-0.49c2.83-0.04,5.66-0.02,8.57-0.02c0,3.3,0,6.45,0,9.8
		c-2.4,0-4.73,0-7.06,0c-2.94,0-4.68,2.26-4,5.18c0.04,0,0.12,0.02,0.13,0.01c1.4-2.51,3.73-2.57,6.19-2.41
		c1.43,0.09,2.88,0.02,4.44,0.02c0,2.03,0,3.97,0,6.09c-1.96,0-3.88,0-5.81,0c-0.81,0-1.63-0.04-2.43,0.02
		c-2,0.15-2.7,0.92-2.7,2.91c0,5.92,0.03,11.85-0.03,17.77c-0.01,1.31,0.3,1.79,1.72,1.79c55.25-0.03,110.5-0.03,165.74-0.03
		c0.4,0,0.81-0.03,1.21-0.05c0,0.45,0,0.9,0,1.35C134.18,74.35,75.55,74.35,16.92,74.35z"/>
	<path class="st0" d="M192.82,67.35c-2.83,0-5.66,0-8.49,0c-0.05-0.17-0.09-0.33-0.14-0.5c0.5-0.17,1-0.33,1.69-0.56
		c-0.56-3.08-1.13-6.19-1.72-9.38c-1.69,0-3.33,0-5.08,0c-0.48,2.6-0.95,5.19-1.43,7.78c-0.18,0.96,0.15,1.56,1.16,1.76
		c0.27,0.05,0.5,0.31,0.74,0.47c-0.04,0.11-0.08,0.21-0.12,0.32c-1.53,0-3.06,0-4.82,0c0.25-0.34,0.37-0.68,0.56-0.74
		c1.16-0.32,1.48-1.23,1.67-2.23c2-10.25,3.99-20.5,5.99-30.75c0.12-0.6-0.03-1.37,1.04-1.4c1.14-0.04,1.03,0.73,1.16,1.42
		c1.97,10.44,3.94,20.87,5.92,31.31c0.1,0.52,0.23,1.04,0.37,1.61c0.53,0.03,1.02,0.06,1.51,0.09
		C192.82,66.81,192.82,67.08,192.82,67.35z M183.93,55.75c-0.77-3.95-1.51-7.76-2.25-11.57c-0.09,0-0.18,0.01-0.26,0.01
		c-0.71,3.82-1.42,7.64-2.14,11.56C180.83,55.75,182.29,55.75,183.93,55.75z"/>
	<path class="st0" d="M156.79,53.36c1.26-7.05,2.53-14.09,3.78-21.1c3.95-0.51,6.84-0.21,7.04,0.76c-0.48,0.05-0.96,0.11-1.52,0.17
		c0,11.06,0,22.11,0,33.15c0.59,0.17,1.11,0.32,1.63,0.48c-0.04,0.15-0.08,0.29-0.12,0.44c-2.84,0-5.69,0-8.6,0
		c0.23-1.23,1.22-0.47,1.81-0.94c0-10.28,0-20.67,0-31.06c-0.04-0.01-0.08-0.02-0.12-0.03c-0.48,2.73-0.95,5.46-1.43,8.18
		c-1.33,7.64-2.68,15.27-3.98,22.92c-0.15,0.85-0.41,1.22-1.39,0.89c-1.9-10.8-3.8-21.64-5.71-32.48c-0.07,0.01-0.14,0.01-0.21,0.02
		c-0.01,0.2-0.03,0.41-0.03,0.61c0,9.15,0,18.31,0,27.46c0,0.58,0.08,1.16,0.13,1.74c0.08,0.89,0.29,1.68,1.35,1.93
		c0.19,0.05,0.31,0.38,0.59,0.77c-1.75,0-3.22,0-4.93,0c0.22-0.35,0.33-0.72,0.5-0.75c1.24-0.23,1.35-1.19,1.44-2.14
		c0.08-0.85,0.09-1.7,0.09-2.55c0.01-9.24,0-18.49,0-27.73c0-0.26,0-0.53,0-0.89c-0.53-0.06-1-0.12-1.99-0.23
		c0.52-0.43,0.78-0.82,1.05-0.83c2.16-0.05,4.31-0.03,6.54-0.03c1.28,7.15,2.55,14.19,3.81,21.24
		C156.61,53.37,156.7,53.37,156.79,53.36z"/>
	<path class="st0" d="M101.36,49.08c0,5.83,0,11.56,0,17.24c0.15,0.08,0.22,0.13,0.3,0.16c0.45,0.17,0.9,0.33,1.35,0.49
		c-0.47,0.13-0.93,0.37-1.4,0.38c-2.42,0.04-4.83,0.02-7.25,0.02c-0.04-0.18-0.08-0.36-0.11-0.54c0.48-0.15,0.97-0.3,1.6-0.5
		c0-10.93,0-21.98,0-33.15c-0.45-0.03-0.93-0.07-1.4-0.1c-0.07-0.11-0.15-0.23-0.22-0.34c0.28-0.2,0.56-0.58,0.83-0.57
		c3.47,0.03,6.95-0.03,10.4,0.22c3.15,0.23,5.33,2.45,5.93,5.56c1.06,5.49-1.21,9.06-6.65,10.43c-0.21,0.05-0.43,0.11-0.68,0.17
		c0.07,0.1,0.1,0.18,0.15,0.19c4.13,0.87,5.67,2.52,6.04,6.73c0.21,2.41,0.18,4.84,0.28,7.26c0.03,0.76,0.09,1.52,0.19,2.27
		c0.14,1.05,0.68,1.53,1.83,1c0.08,0.09,0.16,0.18,0.24,0.27c-0.22,0.34-0.37,0.88-0.68,1c-2.64,1.02-5.55,0.93-6.41-2.82
		c-0.5-2.2-0.49-4.53-0.64-6.8c-0.12-1.74-0.07-3.5-0.2-5.24C104.68,50.1,103.63,49.12,101.36,49.08z M101.35,47.96
		c2.56-0.01,3.88-0.81,4.12-3.13c0.3-2.91,0.33-5.89,0.09-8.81c-0.19-2.31-1.82-3.17-4.21-2.72
		C101.35,38.15,101.35,43.02,101.35,47.96z"/>
	<path class="st0" d="M44.41,66.82c0.51-0.15,1.02-0.31,1.62-0.49c0-10.97,0-21.99,0-33.1c-0.47-0.06-0.94-0.11-1.41-0.17
		c-0.08-0.1-0.16-0.2-0.24-0.3c0.27-0.21,0.55-0.59,0.82-0.59c4.59-0.04,9.18-0.03,13.99-0.03c0,3.5,0,6.89,0,10.28
		c-0.09,0.03-0.17,0.06-0.26,0.09c-0.11-0.4-0.24-0.8-0.33-1.2c-0.36-1.61-0.53-3.29-1.11-4.82c-0.98-2.57-3.17-3.65-6.03-3.23
		c0,5.08,0,10.17,0,15.25c1.65,0.07,2.63-0.62,3.04-2.28c0.32-1.33,0.45-2.7,0.94-4.05c0,4.78,0,9.56,0,14.34
		c-0.98-2.46,0.13-6.01-3.93-7c0,5.7,0,11.26,0,16.83c0.68,0.14,1.32,0.27,1.97,0.41c-0.02,0.15-0.05,0.3-0.07,0.45
		c-2.96,0-5.92,0-8.88,0C44.5,67.08,44.46,66.95,44.41,66.82z"/>
	<path class="st0" d="M69.94,33.2c-0.65-0.05-1.14-0.09-1.63-0.12c-0.08-0.1-0.16-0.2-0.24-0.3c0.27-0.21,0.54-0.6,0.82-0.6
		c2.48-0.05,4.96-0.04,7.44,0c0.26,0,0.51,0.39,1.06,0.83c-1,0.1-1.52,0.16-2.19,0.22c0,0.48,0,0.92,0,1.36
		c0,8.66-0.03,17.32,0.03,25.98c0.01,1.32,0.31,2.66,0.65,3.95c0.31,1.17,1.18,1.9,2.43,2.04c1.28,0.14,2.44-0.27,2.99-1.4
		c0.62-1.26,1.3-2.67,1.33-4.02c0.14-8.7,0.11-17.4,0.13-26.1c0-0.99-0.21-1.79-1.41-1.92c-0.17-0.02-0.31-0.32-0.46-0.49
		c0.18-0.16,0.36-0.44,0.54-0.45c1.17-0.04,2.34-0.03,3.52,0.01c0.15,0,0.43,0.27,0.41,0.38c-0.03,0.2-0.21,0.53-0.37,0.55
		c-1.34,0.18-1.29,1.15-1.29,2.13c0,7.81,0.04,15.62-0.03,23.43c-0.02,1.73-0.26,3.5-0.71,5.17c-0.74,2.75-2.57,4.04-5.55,4.28
		c-2.86,0.23-5.28-0.93-6.27-3.47c-0.68-1.75-1.11-3.72-1.14-5.6c-0.12-8.08-0.05-16.16-0.05-24.23
		C69.94,34.31,69.94,33.82,69.94,33.2z"/>
	<path class="st0" d="M124.03,56.83c-0.51,2.82-1.06,5.58-1.46,8.36c-0.05,0.35,0.62,0.82,1,1.19c0.25,0.24,0.58,0.4,0.87,0.6
		c-0.05,0.1-0.1,0.2-0.15,0.3c-1.47,0-2.93,0-4.59,0c0.13-0.31,0.19-0.72,0.34-0.76c1.36-0.35,1.6-1.46,1.81-2.58
		c1.37-7.03,2.73-14.07,4.1-21.1c0.61-3.12,1.27-6.23,1.79-9.37c0.19-1.15,0.61-1.61,1.97-1.22c0.44,2.27,0.92,4.66,1.37,7.07
		c1.64,8.71,3.28,17.43,4.91,26.15c0.12,0.63,0.26,1.12,1.07,1.07c0.22-0.01,0.45,0.28,0.54,0.72c-2.76,0-5.53,0-8.29,0
		c-0.05-0.14-0.1-0.27-0.14-0.41c0.5-0.17,1-0.34,1.65-0.57c-0.53-2.9-1.05-5.88-1.65-8.84c-0.05-0.25-0.53-0.58-0.82-0.6
		C126.95,56.79,125.56,56.83,124.03,56.83z M128.86,55.76c-0.76-3.92-1.5-7.73-2.24-11.54c-0.1,0.01-0.2,0.02-0.3,0.04
		c-0.7,3.8-1.39,7.61-2.1,11.5C125.85,55.76,127.27,55.76,128.86,55.76z"/>
</g>
</svg>
