<?xml version="1.0" encoding="utf-8"?>
<!-- Generator: Adobe Illustrator 25.2.3, SVG Export Plug-In . SVG Version: 6.00 Build 0)  -->
<svg version="1.1" id="Layer_1" xmlns="http://www.w3.org/2000/svg" xmlns:xlink="http://www.w3.org/1999/xlink" x="0px" y="0px"
	 viewBox="0 0 200 100" style="enable-background:new 0 0 200 100;" xml:space="preserve">
<style type="text/css">
	.st0{fill:#989898;}
	.st1{fill:#666666;}
	.st2{fill:#F2F2F2;}
	.st3{fill:#FEFEFE;}
</style>
<g id="cALvF0_4_">
	<g>
		<path class="st0" d="M31.92,58.56c-2.31,0-4.61-0.04-6.92,0.02c-0.98,0.03-1.8-0.22-2.58-0.77c-2.7-1.9-5-4.16-6.73-7
			c-1.74-2.86-2.1-5.89-1.28-9.08c0.9-3.52,2.87-6.24,6.2-7.88C23.95,32.2,27,32.83,29.83,35c1.46,1.12,2.39,2.58,2.58,4.47
			c0.3,3.1-2.01,6.3-5.32,6.46c-1.68,0.08-3.41-1.37-3.84-3.13c-0.26-1.06-0.17-2.08,0.32-3.06c0.83-1.64,2.59-2.14,4.16-1.19
			c0.11,0.06,0.22,0.11,0.34,0.16c0.02-0.14,0.06-0.28,0.04-0.41c-0.26-1.8-2.22-3.32-4.1-3.16c-4.06,0.34-6.51,2.77-8,6.29
			c-1.05,2.49-1.02,5.08-0.01,7.6c0.69,1.74,2.04,2.92,3.61,3.86c0.25,0.15,0.64,0.13,0.96,0.13c7.47,0.01,14.94,0.01,22.41,0.01
			c0.2,0,0.4,0.01,0.59,0c0.55-0.04,0.69,0.19,0.57,0.71c-0.42,1.76-1.38,3.17-2.81,4.23c-0.47,0.35-1.17,0.54-1.77,0.55
			C37.01,58.6,34.46,58.56,31.92,58.56z"/>
		<path class="st1" d="M163.02,60.97c-1.13,0.93-2.38,1.33-3.75,1.26c-1.2-0.06-2.31-0.38-3.24-1.2c-1.51-1.33-1.23-3.39,0.64-4.52
			c1.12-0.68,2.41-0.72,3.64-0.98c0.59-0.12,1.2-0.26,1.73-0.54c1.19-0.63,1.43-1.82,0.59-2.86c-1.51-1.86-4.74-1.77-5.96,0.32
			c-0.15,0.25-0.15,0.59-0.29,0.85c-0.11,0.2-0.32,0.33-0.49,0.5c-0.1-0.19-0.29-0.4-0.27-0.58c0.09-1.04,0.62-1.82,1.48-2.41
			c1.95-1.34,4.95-0.99,6.2,0.93c0.35,0.53,0.56,1.25,0.58,1.89c0.07,2.16,0.02,4.33,0.03,6.5c0,0.47,0.12,0.95,0.12,1.42
			c0,0.22-0.15,0.44-0.23,0.66c-0.17-0.13-0.39-0.23-0.5-0.4C163.17,61.6,163.13,61.32,163.02,60.97z"/>
		<path class="st1" d="M52.79,51.63c0.85-0.46,1.65-1.05,2.55-1.35c2.67-0.9,5.48,0.52,6.28,3.08c0.13,0.43,0.23,0.89,0.23,1.34
			c0.02,2.25,0.01,4.51,0.01,6.76c0,0.11,0.03,0.25-0.02,0.32c-0.12,0.16-0.32,0.44-0.41,0.41c-0.19-0.05-0.37-0.26-0.47-0.44
			c-0.07-0.14-0.02-0.34-0.02-0.52c0-2.21-0.04-4.42,0.01-6.63c0.03-1.34-0.53-2.33-1.59-3.03c-2.38-1.59-5.69-0.62-6.51,2.17
			c-0.07,0.25-0.07,0.52-0.07,0.78c-0.01,2.25,0,4.51,0,6.76c0,0.17,0.05,0.38-0.03,0.52c-0.09,0.17-0.29,0.28-0.44,0.42
			c-0.11-0.16-0.23-0.31-0.33-0.48c-0.03-0.05-0.01-0.13-0.01-0.19c0-5.28,0-10.55,0-15.83c0-0.3-0.07-0.68,0.39-0.69
			c0.46-0.01,0.4,0.37,0.41,0.67c0,1.79,0,3.59,0,5.38C52.77,51.31,52.79,51.52,52.79,51.63z"/>
		<path class="st1" d="M129.07,56.22c-1.34,0-2.68,0.02-4.02-0.01c-0.48-0.01-0.63,0.19-0.56,0.62c0.38,2.15,1.68,4.08,4.03,4.52
			c1.48,0.27,2.69-0.25,3.78-1.19c0.3-0.26,0.58-0.88,1.05-0.39c0.43,0.45-0.19,0.7-0.44,0.95c-1.94,1.93-4.86,1.99-7.01,0.27
			c-2.87-2.3-2.93-7.09-0.36-9.6c1.71-1.66,4.59-1.88,6.42-0.37c1.07,0.89,1.46,2.18,1.61,3.54c0.02,0.19,0.01,0.39,0.02,0.59
			c0.08,1.08,0.08,1.08-1.04,1.08C131.4,56.22,130.23,56.22,129.07,56.22z"/>
		<path class="st1" d="M69.16,56.22c-1.27,0-2.55,0-3.82,0c-0.84,0-0.84,0-0.72,0.83c0.33,2.23,1.81,3.87,3.97,4.31
			c1.33,0.27,2.5-0.15,3.52-1.01c0.13-0.11,0.25-0.24,0.37-0.37c0.27-0.27,0.55-0.6,0.93-0.2c0.4,0.42-0.13,0.57-0.31,0.75
			c-3.05,3.14-7.63,1.63-9-2.18c-0.86-2.41-0.44-4.68,1.16-6.63c1.81-2.21,5.37-2.24,7.01-0.45c0.79,0.87,1.15,1.94,1.32,3.07
			c0.06,0.41,0.08,0.82,0.14,1.23c0.06,0.48-0.11,0.66-0.62,0.65C71.8,56.2,70.48,56.22,69.16,56.22z"/>
		<path class="st1" d="M183.8,56.22c-1.34,0-2.68,0.01-4.02,0c-0.41,0-0.64,0.13-0.56,0.57c0.39,2.2,1.7,4.14,4.05,4.58
			c1.58,0.29,2.87-0.29,3.96-1.39c0.12-0.12,0.25-0.32,0.39-0.32c0.19-0.01,0.41,0.1,0.55,0.22c0.05,0.04-0.06,0.34-0.17,0.46
			c-1.44,1.57-3.22,2.27-5.31,1.72c-2.08-0.55-3.42-2.01-4.01-4.04c-0.71-2.43-0.24-4.71,1.54-6.54c1.29-1.33,2.98-1.75,4.83-1.3
			c1.8,0.44,2.65,1.74,3.07,3.39c0.18,0.69,0.2,1.42,0.29,2.13c0.05,0.41-0.15,0.53-0.54,0.52
			C186.52,56.21,185.16,56.22,183.8,56.22C183.8,56.22,183.8,56.22,183.8,56.22z"/>
		<path class="st1" d="M99.92,56.22c-1.32,0-2.64,0.02-3.95-0.01c-0.52-0.01-0.72,0.06-0.64,0.69c0.29,2.48,2.46,4.59,4.8,4.54
			c1.29-0.03,2.37-0.58,3.24-1.51c0.26-0.28,0.51-0.49,0.78-0.13c0.08,0.11-0.07,0.49-0.22,0.66c-1.43,1.53-3.21,2.15-5.23,1.58
			c-2.09-0.59-3.48-2.06-3.96-4.16c-0.65-2.84,0.02-5.51,2.41-7.08c2.43-1.59,6.54-1.03,7.18,3.31c0.08,0.56,0.09,1.13,0.14,1.69
			c0.03,0.34-0.09,0.43-0.44,0.42C102.65,56.21,101.29,56.23,99.92,56.22C99.92,56.22,99.92,56.22,99.92,56.22z"/>
		<path class="st1" d="M171.82,62.27c-2-0.11-3.49-0.5-4.43-1.99c-0.18-0.28-0.28-0.64-0.32-0.97c-0.02-0.19,0.16-0.39,0.25-0.59
			c0.17,0.14,0.45,0.27,0.48,0.43c0.13,0.88,0.72,1.35,1.42,1.76c1.49,0.86,3.83,0.64,5.11-0.49c0.94-0.83,0.84-2.21-0.21-2.99
			c-0.88-0.66-1.93-0.74-2.95-0.98c-0.9-0.21-1.82-0.46-2.66-0.84c-1.44-0.65-1.69-2.53-0.72-3.88c1.7-2.34,5.75-2.23,7.29,0.2
			c0.24,0.37,0.38,0.83,0.46,1.27c0.03,0.18-0.2,0.4-0.31,0.61c-0.17-0.13-0.45-0.23-0.51-0.4c-0.85-2.59-3.73-3.45-5.85-1.69
			c-0.59,0.49-0.92,1.15-0.83,1.96c0.1,0.9,0.69,1.35,1.47,1.55c1.07,0.28,2.18,0.44,3.25,0.71c1.06,0.27,2,0.76,2.64,1.69
			c0.9,1.3,0.19,3.34-1.49,4.05C173.15,62.01,172.3,62.14,171.82,62.27z"/>
		<path class="st1" d="M147.82,60.77c0.79-1.9,1.52-3.66,2.26-5.42c0.68-1.62,1.35-3.25,2.06-4.86c0.09-0.2,0.43-0.45,0.58-0.41
			c0.37,0.1,0.32,0.41,0.18,0.74c-1.55,3.66-3.07,7.34-4.63,11c-0.08,0.18-0.33,0.38-0.5,0.39c-0.15,0-0.38-0.24-0.45-0.42
			c-1.29-3.04-2.57-6.09-3.85-9.13c-0.25-0.6-0.53-1.19-0.77-1.8c-0.12-0.28-0.24-0.6,0.15-0.78c0.41-0.18,0.53,0.13,0.65,0.42
			c1.22,2.93,2.44,5.86,3.66,8.79C147.35,59.74,147.56,60.18,147.82,60.77z"/>
		<path class="st1" d="M87.17,60.76c1.27-3.04,2.48-5.92,3.68-8.8c0.22-0.52,0.41-1.06,0.67-1.56c0.09-0.17,0.38-0.23,0.57-0.34
			c0.07,0.22,0.25,0.49,0.18,0.65c-1.35,3.28-2.73,6.54-4.11,9.8c-0.19,0.46-0.38,0.93-0.61,1.37c-0.08,0.15-0.3,0.31-0.46,0.32
			c-0.13,0.01-0.35-0.17-0.41-0.31c-1.21-2.89-2.41-5.78-3.61-8.67c-0.33-0.78-0.68-1.56-1-2.34c-0.12-0.3-0.28-0.65,0.16-0.82
			c0.42-0.17,0.52,0.19,0.64,0.46c1.31,3.15,2.61,6.31,3.92,9.46C86.89,60.2,87,60.41,87.17,60.76z"/>
		<path class="st1" d="M116.4,60.72c0.71-1.71,1.36-3.29,2.02-4.87c0.76-1.81,1.53-3.61,2.27-5.42c0.13-0.31,0.31-0.55,0.61-0.35
			c0.15,0.1,0.22,0.51,0.14,0.71c-1.52,3.7-3.07,7.39-4.63,11.08c-0.07,0.16-0.3,0.34-0.45,0.35c-0.15,0-0.38-0.18-0.45-0.34
			c-1.54-3.62-3.07-7.26-4.59-10.89c-0.04-0.1-0.11-0.21-0.1-0.31c0.04-0.21,0.12-0.41,0.18-0.62c0.2,0.11,0.51,0.18,0.59,0.35
			c0.5,1.11,0.95,2.24,1.42,3.37c0.91,2.19,1.83,4.38,2.75,6.56C116.2,60.43,116.27,60.51,116.4,60.72z"/>
		<path class="st1" d="M136.98,55.58c0-1.36-0.01-2.71,0.01-4.07c0.01-0.49-0.13-0.72-0.67-0.71c-0.2,0-0.4-0.24-0.6-0.37
			c0.2-0.13,0.4-0.38,0.6-0.38c0.54,0.01,0.7-0.22,0.67-0.71c-0.03-0.5-0.04-1.01,0.01-1.51c0.02-0.22,0.22-0.42,0.35-0.62
			c0.15,0.2,0.4,0.39,0.43,0.61c0.06,0.52,0.05,1.05,0.01,1.57c-0.03,0.48,0.12,0.67,0.62,0.65c0.88-0.04,1.76-0.03,2.64,0.01
			c0.19,0.01,0.37,0.24,0.56,0.37c-0.18,0.13-0.36,0.38-0.54,0.39c-0.92,0.04-1.84,0.03-2.77,0.02c-0.36-0.01-0.51,0.11-0.5,0.49
			c0.01,2.8-0.04,5.6,0.03,8.41c0.04,1.41,1.17,1.88,2.63,1.7c0.41-0.05,1.01-0.53,1.11,0.2c0.08,0.55-0.61,0.45-1.01,0.54
			c-1.06,0.23-2.11,0.15-2.82-0.73c-0.38-0.47-0.65-1.15-0.7-1.76c-0.1-1.35-0.03-2.71-0.03-4.07
			C137,55.58,136.99,55.58,136.98,55.58z"/>
		<path class="st1" d="M108.42,53.57c0,2.63,0,5.25-0.01,7.88c0,0.29,0.14,0.77-0.37,0.73c-0.16-0.01-0.42-0.48-0.42-0.73
			c-0.02-5.25-0.02-10.51-0.01-15.76c0-0.2,0.06-0.43,0.17-0.6c0.06-0.09,0.26-0.15,0.39-0.13c0.09,0.01,0.19,0.17,0.22,0.28
			c0.04,0.19,0.03,0.39,0.03,0.59C108.42,48.41,108.42,50.99,108.42,53.57z"/>
		<path class="st1" d="M76.63,57.18c0-1.25,0.01-2.49-0.01-3.74c-0.01-0.5-0.08-0.99-0.16-1.49c-0.07-0.45,0.23-0.65,0.51-0.46
			c0.42,0.29,0.52-0.02,0.69-0.21c0.7-0.77,1.61-1.1,2.6-1.23c0.21-0.03,0.45,0.22,0.68,0.34c-0.19,0.14-0.36,0.37-0.58,0.41
			c-2.05,0.44-2.95,1.53-2.95,3.61c0,2.25,0,4.51,0,6.76c0,0.15,0.05,0.33-0.01,0.45c-0.1,0.21-0.27,0.38-0.41,0.57
			c-0.12-0.19-0.34-0.37-0.35-0.56c-0.04-1.03-0.02-2.06-0.02-3.08C76.63,58.1,76.63,57.64,76.63,57.18z"/>
		<path class="st2" d="M32.96,60.96c0.04,0.84,0.08,1.69,0.14,2.53c0.02,0.26,0.1,0.51,0.17,0.76c0.05,0.21,0.12,0.41,0.18,0.61
			c-0.19-0.19-0.47-0.34-0.56-0.56c-0.15-0.37-0.23-0.79-0.25-1.19c-0.04-0.73-0.02-1.47-0.01-2.21c0-0.16,0.11-0.32,0.16-0.48
			c0.11,0.16,0.22,0.32,0.33,0.49C33.07,60.93,33.01,60.94,32.96,60.96z"/>
		<path class="st0" d="M30.22,58.96c1.25,1.03,1.25,5.34,0.08,6C31.14,62.98,31.17,61.01,30.22,58.96z"/>
		<path class="st0" d="M29.43,64.96c1.35-1.65,1.34-4.31-0.1-5.91c0.88,0.11,1.29,1.4,1.27,2.66C30.58,62.9,30.7,64.21,29.43,64.96z
			"/>
		<path class="st3" d="M163.1,57.36c0,0.41-0.01,0.83,0,1.24c0.05,1.09-0.5,1.82-1.43,2.3c-1.77,0.92-4.01,0.63-5.24-0.64
			c-0.86-0.89-0.75-2.09,0.25-2.83c0.86-0.64,1.86-0.8,2.88-0.98c0.79-0.13,1.58-0.32,2.36-0.5c0.17-0.04,0.33-0.12,0.48-0.2
			c0.2-0.11,0.39-0.25,0.58-0.38c0.04,0.25,0.09,0.5,0.1,0.74C163.12,56.53,163.1,56.95,163.1,57.36z"/>
		<path class="st3" d="M128.67,55.51c-1.18,0-2.37-0.01-3.55,0c-0.49,0.01-0.66-0.11-0.53-0.65c0.48-2.03,1.54-3.55,3.67-3.97
			c1.87-0.37,3.67,0.43,4.25,2.63c0.13,0.48,0.17,0.98,0.27,1.47c0.08,0.41-0.11,0.53-0.5,0.52
			C131.09,55.5,129.88,55.51,128.67,55.51z"/>
		<path class="st3" d="M68.67,55.51c-1.18,0-2.37-0.01-3.55,0c-0.41,0-0.57-0.08-0.51-0.57c0.38-2.91,3.14-4.77,5.8-3.87
			c1.61,0.55,2.13,1.9,2.36,3.39c0.18,1.17,0.26,1.02-0.95,1.04C70.78,55.52,69.73,55.51,68.67,55.51z"/>
		<path class="st3" d="M183.4,55.51c-1.19,0-2.37-0.01-3.56,0.01c-0.44,0.01-0.58-0.13-0.51-0.57c0.47-2.94,3.14-4.83,5.81-3.88
			c1.31,0.47,2.26,1.84,2.36,3.48c0.06,0.96,0.06,0.96-0.94,0.96C185.51,55.51,184.45,55.51,183.4,55.51z"/>
		<path class="st3" d="M99.47,55.51c-1.21,0-2.41-0.01-3.62,0c-0.35,0-0.55-0.1-0.48-0.49c0.42-2.31,2.03-4.19,4.46-4.2
			c1.95,0,3.46,1.39,3.69,3.38c0.15,1.3,0.15,1.3-1.21,1.3C101.36,55.51,100.41,55.51,99.47,55.51z"/>
	</g>
</g>
</svg>
