<?xml version="1.0" encoding="utf-8"?>
<!-- Generator: Adobe Illustrator 25.2.3, SVG Export Plug-In . SVG Version: 6.00 Build 0)  -->
<svg version="1.1" id="Layer_1" xmlns="http://www.w3.org/2000/svg" xmlns:xlink="http://www.w3.org/1999/xlink" x="0px" y="0px"
	 viewBox="0 0 802.1 467" style="enable-background:new 0 0 802.1 467;" xml:space="preserve">
<style type="text/css">
	.st0{clip-path:url(#SVGID_2_);}
	.st1{fill:#414042;}
	.st2{fill:#FFFFFF;}
	.st3{fill:#3551FF;}
	.st4{fill:#FFAA29;}
	.st5{fill:#643A96;}
	.st6{fill:#EE3435;}
	.st7{fill:#231F20;}
</style>
<g>
	<defs>
		<rect id="SVGID_1_" x="81" y="-270.9" width="640" height="1052.7"/>
	</defs>
	<clipPath id="SVGID_2_">
		<use xlink:href="#SVGID_1_"  style="overflow:visible;"/>
	</clipPath>
	<g class="st0">
		<g>
			<g>
				<g>
					<g>
						<path class="st1" d="M609.1,118.5c0-0.1-0.1-0.2-0.1-0.2c0-0.3,0-0.6,0.1-0.9c0,0,0,0-0.1-0.1l0,0c0-0.2,0.1-0.4,0.1-0.6
							c0-0.4,0.1-0.9,0.4-1.3c0-0.1,0.1-0.2,0.7,0c0.7,0.2,1.1,0.3,1,0.4c-0.1,0.2-0.3,0.4-0.2,0.7c0.1,0.4,0,0.7,0,1.1
							c0,0.3,0,0.6,0,0.9c0.1,0.3,0.2,0.6,0.3,0.8c0,0.2-0.1,0.5-0.1,0.8c0,0.1,0,0.1,0.2,0.1l0,0c-0.3,0.1,0.3,0.1-0.1,0.3l0,0
							c0,0,0,0.1,0,0.1c0.1,0.1-0.1,0.2-0.8,0.4c-0.2,0-0.4,0.1-0.5,0.1l0,0l0,0c-0.5,0.1-0.3-0.1-0.3-0.2c-0.2-0.4-0.3-0.9-0.4-1.3
							c-0.1-0.3-0.1-0.6-0.2-0.8C609.1,118.7,609,118.6,609.1,118.5L609.1,118.5z"/>
					</g>
				</g>
			</g>
			<g>
				<g>
					<g>
						<path class="st1" d="M583,131.3c0,0.3,0,0.6,0,0.9c0,1.1-0.2,2.3-0.4,3.5c0,0.1,0,0.1,0,0.2l0,0c-0.2,0.7-0.5,1.4-0.8,2.1
							c-0.7,1.6-1.7,2.9-2.8,4.1c-0.2,0.2-0.4,0.5-1,0.1c-0.6-0.4-0.7-0.9-0.4-1.2c0.7-0.8,1.4-1.5,1.8-2.4c0.6-1.3,1.2-2.5,1.3-3.9
							c0.2-1.3,0.2-2.6,0.3-4c0-1.3-0.1-2.5,0-3.8c0.1-1.1,0.3-2.2,0.4-3.3c0-0.3,0.1-0.5-0.2-0.8l0,0c0.3-0.3-0.2-0.7,0.2-0.9l0,0
							c0-0.1,0.1-0.2,0-0.3c-0.1-0.5,0.2-0.6,0.9-0.4c0.2,0,0.4,0,0.5,0.1l0,0l0,0c0.5,0.3,0.2,0.7,0.2,1c0,1.7-0.1,3.4-0.2,5
							c0,1-0.1,2.1-0.1,3.1C583,130.8,583.1,131.1,583,131.3L583,131.3z"/>
					</g>
				</g>
			</g>
			<g>
				<g>
					<g>
						<path class="st1" d="M583.6,112.6c0,0.1,0.1,0.2,0.1,0.3l0,1c0,0,0,0,0.1,0.1l0,0c0,0.2,0,0.4,0,0.6c0,0.5,0,1-0.2,1.4
							c0,0.1,0,0.2-0.7,0.2c-0.7,0-1.1-0.1-1.1-0.2c0.1-0.3,0.2-0.6,0.1-0.9c-0.2-0.5-0.1-0.9-0.1-1.4c0-0.4,0-0.8-0.1-1.2
							c0-0.4-0.2-0.8-0.2-1.1c0-0.3,0.2-0.7,0.2-1c0-0.1,0-0.2-0.2-0.2l0,0c0.3-0.1-0.3-0.2,0.2-0.3l0,0c0,0,0.1-0.1,0-0.1
							c-0.1-0.1,0.1-0.2,0.9-0.2c0.2,0,0.4,0,0.5,0l0,0l0,0c0.5,0.1,0.3,0.2,0.3,0.3c0.1,0.5,0.1,1,0.1,1.5c0,0.3,0,0.6,0.1,0.9
							C583.6,112.4,583.7,112.5,583.6,112.6L583.6,112.6z"/>
					</g>
				</g>
			</g>
			<g>
				<g>
					<g>
						<path class="st1" d="M568.6,143.6c-0.2,0-0.5-0.1-0.7-0.2c-0.9-0.3-1.7-0.7-2.6-1.2c0,0-0.1,0-0.2,0l0,0c-0.5-0.3-1-0.6-1.4-1
							c-1.1-0.8-2.1-1.7-2.7-3c-0.1-0.2-0.3-0.5,0.3-0.8c0.6-0.3,1.1-0.4,1.2-0.1c0.3,0.6,0.7,1.3,1.4,1.7c0.9,0.6,1.8,1.3,2.8,1.8
							c0.9,0.4,1.8,0.8,2.8,1c0.9,0.2,1.8,0.2,2.7,0.2c0.8,0,1.6,0.2,2.4,0.1c0.2,0,0.4,0,0.5-0.3l0,0c0.3,0.3,0.4-0.3,0.7,0l0,0
							c0.1,0,0.2,0,0.2,0c0.3-0.2,0.4,0,0.5,0.8c0,0.2,0.1,0.4,0.1,0.5l0,0l0,0c-0.1,0.6-0.5,0.4-0.7,0.5c-1.3,0.3-2.7,0.5-4.1,0.4
							c-0.8,0-1.7-0.2-2.5-0.3C569.1,143.7,568.8,143.7,568.6,143.6L568.6,143.6z"/>
					</g>
				</g>
			</g>
			<g>
				<g>
					<g>
						<path class="st1" d="M567.9,147.4c-0.1,0.1-0.1,0.3-0.2,0.4l-0.9,1.3c0,0,0,0.1,0,0.1l0,0c-0.2,0.3-0.4,0.5-0.5,0.8
							c-0.4,0.6-0.7,1.3-1.3,1.8c-0.1,0.1-0.2,0.2-0.8-0.1c-0.6-0.4-0.9-0.7-0.8-0.8c0.3-0.4,0.7-0.7,0.8-1.2c0.2-0.7,0.7-1.3,1-1.9
							c0.3-0.6,0.7-1.1,1-1.6c0.3-0.5,0.5-1.1,0.9-1.6c0.3-0.4,0.8-0.7,1.1-1.1c0.1-0.1,0.2-0.2,0.1-0.4l0,0c0.3,0.1,0-0.4,0.4-0.2
							l0,0c0,0,0.1,0,0.1-0.1c0-0.2,0.3-0.1,0.8,0.4c0.1,0.1,0.3,0.2,0.4,0.3l0,0l0,0c0.3,0.4,0,0.4-0.1,0.6
							c-0.4,0.7-0.9,1.3-1.3,1.9c-0.3,0.4-0.6,0.8-0.8,1.2C568,147.2,568,147.3,567.9,147.4L567.9,147.4z"/>
					</g>
				</g>
			</g>
			<g>
				<g>
					<g>
						<path class="st1" d="M578.7,122.6c0,0.1,0.1,0.2,0.1,0.2l0.2,1c0,0,0,0,0.1,0l0,0c0,0.2,0.1,0.4,0.1,0.6
							c0.1,0.4,0.2,0.9,0.2,1.4c0,0.1,0,0.2-0.6,0.4c-0.7,0.2-1.1,0.2-1.1,0.1c0-0.3,0.1-0.7-0.1-0.9c-0.3-0.4-0.3-0.9-0.4-1.3
							c-0.1-0.4-0.2-0.8-0.3-1.2c-0.1-0.4-0.3-0.7-0.4-1.1c-0.1-0.3,0.1-0.7,0.1-1c0-0.1,0-0.2-0.2-0.2l0,0c0.3-0.1-0.3-0.1,0.1-0.3
							l0,0c0,0,0-0.1,0-0.1c-0.1-0.1,0.1-0.2,0.9-0.3c0.2,0,0.4-0.1,0.5-0.1l0,0l0,0c0.5,0,0.3,0.2,0.3,0.2c0.1,0.5,0.2,0.9,0.3,1.4
							c0.1,0.3,0.1,0.6,0.3,0.9C578.7,122.5,578.8,122.5,578.7,122.6L578.7,122.6z"/>
					</g>
				</g>
			</g>
			<g>
				<g>
					<g>
						<path class="st1" d="M575.8,133.8c-0.1,0-0.2,0.1-0.3,0.1c-0.4,0-0.8-0.1-1.2-0.1c0,0,0,0-0.1,0l0,0c-0.2,0-0.5-0.1-0.7-0.1
							c-0.6-0.1-1.1-0.3-1.6-0.7c-0.1-0.1-0.2-0.1,0.1-0.7c0.3-0.6,0.6-1,0.7-0.9c0.2,0.2,0.5,0.4,0.8,0.4c0.5-0.1,0.8,0.1,1.3,0.1
							c0.4,0,0.8,0,1.2,0c0.4,0,0.7-0.2,1.1-0.3c0.3,0,0.7,0.1,1,0.1c0.1,0,0.2,0,0.2-0.2l0,0c0.1,0.3,0.2-0.3,0.3,0.1l0,0
							c0,0,0.1,0,0.1,0c0.1-0.1,0.2,0.1,0.3,0.9c0,0.2,0.1,0.4,0,0.5l0,0l0,0c0,0.5-0.2,0.3-0.3,0.3c-0.5,0.1-1.1,0.2-1.6,0.3
							c-0.3,0-0.7,0-1,0.1C576,133.8,575.9,133.9,575.8,133.8L575.8,133.8z"/>
					</g>
				</g>
			</g>
			<g>
				<g>
					<g>
						<path class="st1" d="M553.6,122.2c0,0.2,0.1,0.5,0.1,0.7c0.1,0.9,0.3,1.7,0.5,2.5c0,0,0.1,0.1,0.1,0.1l0,0
							c0.2,0.5,0.4,1,0.6,1.3c0.1,0.2,0.2,0.2,0.4,0.3c0.2,0.1,0.4,0.1,0.6,0.2c0.5,0.1,1.1,0.1,1.6,0.1c0.2,0,0.5-0.1,0.7,0.5
							c0.2,0.7,0.1,1.2-0.3,1.2c-0.5,0.1-1,0.1-1.5,0c-0.5,0-1-0.1-1.6-0.2c-0.4-0.1-0.8-0.3-1.2-0.6c-0.3-0.3-0.6-0.7-0.7-1
							c-0.3-0.6-0.6-1.3-0.8-1.9c-0.4-1.2-0.5-2.4-0.6-3.7c0-0.6,0-1.2,0-1.8c0-0.3,0.1-0.6,0.1-0.9c0.1-0.3,0.1-0.5,0.2-0.9
							c0.1-0.3,0.3-0.6,0.5-0.8c0.3-0.3,0.6-0.5,1-0.5c0.4-0.1,0.8-0.1,1,0c0.6,0.1,1,0.4,1.4,0.7c0.2,0.2,0.4,0.3,0.8,0.3l0,0
							c0,0.4,0.7,0.3,0.5,0.8l0,0c0.1,0.1,0.1,0.2,0.2,0.3c0.4,0.3,0.2,0.5-0.5,0.8c-0.2,0.1-0.3,0.2-0.5,0.2l0,0l0,0
							c-0.6,0.1-0.5-0.2-0.7-0.4c-0.3-0.3-0.8-0.6-1.1-0.8c-0.2-0.1-0.4-0.1-0.5-0.1c-0.1,0-0.1,0-0.2,0.1c0,0,0,0.1,0,0.1
							c0,0-0.1,0.2-0.1,0.3c-0.2,0.8-0.3,1.6-0.3,2.4C553.6,121.8,553.7,122,553.6,122.2L553.6,122.2z"/>
					</g>
				</g>
			</g>
			<g>
				<g>
					<g>
						<path class="st1" d="M584.7,104c-0.5,0.2-1,0.5-1.5,0.8c-1.9,1-3.3,2.5-5.2,4.1c-0.1,0.1-0.2,0.2-0.2,0.3l0,0
							c-1.1,0.9-2.5,1.7-3.9,2.2c-3.2,1.2-6.7,1.1-9.9,0.4c-0.5-0.1-1.3-0.3-1.2-1c0.2-0.7,0.8-1,1.6-0.8c2,0.4,4,0.7,6,0.3
							c1.4-0.3,2.8-0.7,4-1.3c1.2-0.6,2.3-1.5,3.5-2.6c1-0.9,2-1.9,3.2-2.7c1.2-0.8,2.5-1.5,3.8-2c1.3-0.5,2.6-0.8,4-0.9
							c0.7,0,1.4-0.1,2.2,0.1c0.4,0.1,0.9,0.3,1.3,0.6c0.4,0.3,0.7,0.7,0.9,1.1c0.4,0.7,0.4,1.5,0.4,2.1c0,0.7-0.1,1.2-0.2,1.8
							c-0.1,0.6-0.4,1.2-0.7,1.8c-0.4,0.6-0.9,1.1-1.4,1.5c-0.5,0.4-1.1,0.6-1.5,1l0,0c-0.7,0-1.3,0.7-2,0.4l0,0
							c-0.2,0-0.4,0-0.6,0.1c-0.9,0.3-1.2,0-1-0.8c0-0.2-0.1-0.4,0.1-0.5l0,0l0,0c0.5-0.6,1.3-0.5,1.9-0.6c1.5-0.4,2.8-1.2,3.2-2.5
							c0.4-1.3,0.5-3.3-0.2-3.8c-0.4-0.4-1.4-0.4-2.4-0.3c-1,0.1-1.9,0.3-2.8,0.6C585.6,103.6,585.2,103.8,584.7,104L584.7,104z"/>
					</g>
				</g>
			</g>
			<g>
				<g>
					<g>
						<path class="st1" d="M572.4,103.9c-0.3,0.1-0.6,0.3-0.9,0.4l-3.6,1.2c-0.1,0-0.1,0.1-0.2,0.1l0,0c-0.7,0.3-1.3,0.5-1.9,0.9
							c-1.3,0.8-2.3,1.9-2.8,3.2c-0.1,0.2-0.1,0.6-0.7,0.6c-0.7,0-1.1-0.3-1-0.9c0.3-1.4,1.2-2.4,2-3.4c1.3-1.4,3.1-2,4.7-2.6
							l4.3-1.6c1.3-0.5,2.7-1.1,4.2-1.4c1.3-0.3,2.6-0.3,3.9-0.2c0.3,0,0.6,0.1,0.9-0.2l0,0c0.3,0.3,0.8-0.2,1.1,0.3l0,0
							c0.1,0,0.2,0.1,0.4,0.1c0.6,0,0.6,0.2,0.3,1c-0.1,0.2-0.1,0.4-0.2,0.5l0,0l0,0c-0.4,0.5-0.7,0.1-1.1,0.1
							c-1.7-0.1-3.5,0.1-5.3,0.6c-1.1,0.3-2.2,0.6-3.2,1C573,103.6,572.8,103.8,572.4,103.9L572.4,103.9z"/>
					</g>
				</g>
			</g>
			<g>
				<g>
					<g>
						<path class="st1" d="M559.9,96.1c-0.6,0.3-1.2,0.6-1.8,0.9c-2.3,1.1-4.3,2.7-6,4.7c-0.1,0.1-0.1,0.2-0.2,0.3l0,0
							c-0.9,1.2-1.7,2.5-2.3,4c-1.3,3.3-1.5,7-0.7,10.5c0.1,0.6,0.5,1.4-0.2,1.7c-0.6,0.2-1.3-0.3-1.6-1.3c-0.7-2.6-0.6-5.2-0.3-7.8
							c0.4-3.8,2.3-7.3,5-10c2.4-2.4,5.4-4.2,8.6-5.2c3.1-1,6.3-1.2,9.4-1.1c1.3,0,2.8,0.2,4.2,0.8c1.4,0.6,2.5,1.4,3.5,2.3
							c0.5,0.4,1,0.9,1.6,1.2l0,0c0.3,0.7,1.3,1,1.4,1.9v0c0.1,0.2,0.3,0.4,0.4,0.6c0.8,0.9,0.7,1.3-0.2,1.4c-0.2,0-0.3,0.2-0.6,0.1
							l0,0l0,0c-0.8-0.3-1.1-1.1-1.6-1.7c-1.3-1.4-2.8-2.7-4.5-3.5c-0.8-0.4-1.7-0.7-2.6-0.8c-0.9-0.1-1.9-0.1-2.9-0.1
							c-2.4-0.1-4.8,0-7.1,0.7C561.1,95.6,560.5,95.9,559.9,96.1L559.9,96.1z"/>
					</g>
				</g>
			</g>
			<g>
				<g>
					<g>
						<path class="st1" d="M556.9,115.7c-0.2,0.1-0.3,0.2-0.5,0.3l-1.9,0.8c0,0,0,0.1-0.1,0.1l0,0c-0.4,0.2-0.8,0.3-1.1,0.5
							c-0.9,0.4-1.7,0.8-2.7,1.1c-0.1,0-0.4,0.1-0.7-0.5c-0.3-0.6-0.4-1.1-0.1-1.2c0.6-0.2,1.2-0.3,1.7-0.7c0.7-0.6,1.6-0.9,2.4-1.3
							c0.7-0.4,1.5-0.7,2.2-1.1c0.7-0.4,1.3-0.8,2-1.2c0.6-0.3,1.3-0.4,1.9-0.7c0.2-0.1,0.3-0.1,0.4-0.4l0,0
							c0.3,0.2,0.3-0.4,0.7-0.1l0,0c0.1,0,0.1,0,0.2,0c0.3-0.2,0.4,0,0.5,0.8c0,0.2,0.1,0.4,0.1,0.5l0,0l0,0c0,0.5-0.3,0.4-0.4,0.4
							c-0.8,0.4-1.7,0.9-2.6,1.3c-0.6,0.3-1.1,0.5-1.7,0.9C557.2,115.5,557.1,115.7,556.9,115.7L556.9,115.7z"/>
					</g>
				</g>
			</g>
			<g>
				<g>
					<g>
						<path class="st1" d="M552.8,132.5c0,0.1,0,0.2-0.1,0.2c-0.2,0.2-0.4,0.5-0.6,0.7c0,0,0,0,0,0.1l0,0c-0.1,0.1-0.3,0.3-0.4,0.4
							c-0.3,0.3-0.6,0.7-1.1,0.8c-0.1,0-0.2,0.1-0.6-0.4c-0.4-0.6-0.7-0.9-0.6-0.9c0.2-0.1,0.5-0.2,0.6-0.4c0.1-0.4,0.4-0.6,0.6-0.9
							c0.2-0.3,0.4-0.5,0.6-0.8c0.1-0.3,0.2-0.6,0.4-0.9c0.1-0.2,0.4-0.4,0.6-0.6c0,0,0.1-0.1-0.1-0.3l0,0c0.3,0.1-0.2-0.2,0.3-0.1
							l0,0c0,0,0.1,0,0.1,0c-0.1-0.1,0.2-0.1,0.9,0.3c0.2,0.1,0.4,0.1,0.5,0.2l0,0l0,0c0.5,0.3,0.2,0.3,0.1,0.4
							c-0.2,0.5-0.4,0.9-0.6,1.3c-0.1,0.2-0.3,0.5-0.4,0.7C552.9,132.3,552.9,132.4,552.8,132.5L552.8,132.5z"/>
					</g>
				</g>
			</g>
			<g>
				<g>
					<g>
						<path class="st1" d="M556.4,143.7c-0.4-0.3-0.7-0.7-1.1-1c-1.3-1.3-2.6-2.7-3.8-4.1c-0.1-0.1-0.2-0.1-0.2-0.2l0,0
							c-0.7-0.9-1.5-1.8-2.1-2.7l-1.2-1.6l-0.2-0.3c0,0,0,0,0,0c0,0,0,0,0,0l0,0l-0.3,0.3l-0.8,0.6c-0.5,0.4-1,0.8-1.6,1.2
							c-0.3,0.2-0.9,0.7-1.3,0.2c-0.4-0.5-0.4-1.2,0.2-1.6l2-1.6l0.5-0.4c0.3-0.2,0.5-0.5,0.8-0.6c0.3-0.1,0.6-0.2,0.9-0.1
							c0.3,0.1,0.5,0.3,0.8,0.6l0.7,0.8l0.6,0.7l1.1,1.5c0.8,1,1.5,1.9,2.4,2.8c1.5,1.6,3,3.2,4.6,4.8c1.5,1.5,3.1,2.9,4.4,4.6
							c0.6,0.7,1.1,1.5,1.6,2.3c0.3,0.4,0.5,0.8,0.7,1.2c0.1,0.2,0.2,0.4,0.3,0.6l0.5,1c0.1,0.2,0.2,0.3,0.3,0.5
							c0,0.1,0.1,0.2,0.1,0.2l-0.2,0.2c-0.3,0.2-0.5,0.5-0.7,0.8l0,0c-0.1,0-0.2,0.1-0.3,0.2c-0.1,0-0.1,0.1-0.2,0.1
							c-0.1,0.1-0.2,0.2-0.3,0.3c-0.2,0.2-0.4,0.4-0.7,0.4l0,0c-0.1,0.1-0.3,0.2-0.4,0.3c-0.5,0.6-0.8,0.5-1.1-0.3
							c-0.1-0.2-0.3-0.3-0.2-0.5l0,0l0,0c0.1-0.7,0.7-0.9,1.1-1.3c0.3-0.2,0.6-0.5,0.6-0.5l0.1-0.1c0,0,0-0.1,0-0.1l-0.1-0.1
							l-0.2-0.4l-0.6-0.8c-0.8-1.1-1.6-2.2-2.5-3.2c-1.1-1.3-2.2-2.5-3.4-3.7C557,144.3,556.6,144.1,556.4,143.7L556.4,143.7z"/>
					</g>
				</g>
			</g>
			<g>
				<g>
					<g>
						<path class="st1" d="M564.1,160.3c0.3,0.9,0.7,1.7,1,2.6c0.7,1.6,1.5,3.2,2.2,4.9l2.3,4.9c0.1,0.2,0.2,0.3,0.3,0.5l0,0
							c0.9,1.9,1.9,3.9,2.9,5.8c2.4,4.4,5,8.6,7.9,12.6c0.5,0.6,1.3,1.6,0.8,2.1c-0.5,0.4-1.5,0-2.3-1.1c-2-2.7-3.8-5.6-5.6-8.3
							c-2.6-4.1-4.7-8.5-6.9-12.8c-1-1.9-1.9-3.9-2.8-5.9c-0.9-2-1.7-4.1-2.3-6.2c-0.6-2-1.1-3.8-2-5.6c-0.8-1.8-1.8-3.5-2.9-5.1
							c-1.9-2.8-4.1-5.4-6.8-7.5c-0.6-0.5-1.3-1-2.1-1l0,0c-0.3-0.3-0.8-0.5-1.2-0.5c-0.4-0.1-0.9-0.1-1.2-0.4l0,0
							c-0.3,0-0.5-0.1-0.8,0c-0.6,0.1-0.9,0.2-1.1,0.1c-0.2-0.1-0.3-0.3-0.2-0.8c0-0.2-0.2-0.4,0.2-0.6l0,0l0,0
							c0.5-0.4,1.1-0.6,1.8-0.5c0.6,0,1.3,0.2,1.8,0.4c1.4,0.4,2.7,1.1,3.8,1.9c1.1,0.8,2.2,1.7,3.2,2.6c2,1.9,3.7,4,5.2,6.4
							c1.8,2.8,3.1,6.1,4,9.2C563.6,158.6,563.9,159.4,564.1,160.3L564.1,160.3z"/>
					</g>
				</g>
			</g>
			<g>
				<g>
					<g>
						<path class="st1" d="M573.2,202.3c-0.2,0.2-0.5,0.4-0.7,0.6c-1,0.7-2.1,1.1-3.1,1.5c-0.1,0-0.1,0.1-0.1,0.1l0,0
							c-0.6,0.3-1.2,0.5-1.8,0.8c-1.4,0.6-2.8,1.2-4.3,1.6c-0.2,0.1-0.6,0.2-0.9-0.4c-0.3-0.7-0.2-1.1,0.2-1.3
							c1-0.3,1.9-0.6,2.8-1.1c1.3-0.7,2.7-1.2,4-1.8c0.6-0.3,1.1-0.6,1.7-0.9c0.5-0.3,1-0.7,1.6-1.1c1-0.7,1.9-1.6,2.9-2.3
							c0.9-0.6,1.8-1.1,2.7-1.7c0.2-0.1,0.4-0.3,0.5-0.6l0,0c0.4,0.1,0.3-0.6,0.8-0.4l0,0c0.1,0,0.2-0.1,0.3-0.1
							c0.3-0.4,0.5-0.2,0.9,0.5c0.1,0.2,0.2,0.3,0.2,0.5l0,0l0,0c0.1,0.6-0.4,0.6-0.6,0.8c-1.3,1-2.6,2-3.9,3
							c-0.8,0.6-1.6,1.2-2.4,1.8C573.7,201.9,573.5,202.2,573.2,202.3L573.2,202.3z"/>
					</g>
				</g>
			</g>
			<g>
				<g>
					<g>
						<path class="st1" d="M599,210.1l1.5,1.1c1.9,1.4,3.8,2.7,5.8,4.1c0.1,0.1,0.2,0.1,0.3,0.2l0,0l3.5,2.5
							c2.7,1.9,5.5,3.8,8.1,5.8c0.4,0.3,1.1,0.8,0.7,1.4c-0.4,0.6-1.1,0.6-1.9,0c-1.8-1.3-3.5-2.7-5.3-3.8c-2.7-1.7-5.3-3.6-7.9-5.3
							c-2.4-1.6-4.7-3.2-7-5.2c-1.1-0.9-2-1.9-3-2.6c-1-0.8-2.1-1.3-3.3-2c-2.1-1.2-3.9-3-5.4-4.7c-0.4-0.4-0.7-0.9-1.3-1.1l0,0
							c-0.2-0.7-1.1-0.9-1.2-1.6v0c-0.1-0.2-0.2-0.4-0.4-0.5c-0.7-0.7-0.7-1,0.1-1.3c0.2-0.1,0.3-0.3,0.5-0.2l0,0l0,0
							c0.8,0.2,1.1,0.9,1.6,1.5c1.2,1.3,2.3,2.6,3.6,3.7c1.3,1.2,2.6,2.1,4.2,2.9c0.9,0.5,1.9,1.2,2.8,1.9c0.9,0.7,1.6,1.5,2.5,2.2
							C598.1,209.4,598.6,209.7,599,210.1L599,210.1z"/>
					</g>
				</g>
			</g>
			<g>
				<g>
					<g>
						<path class="st1" d="M632.2,225.9c0.3,0,0.6,0,0.9,0c1.1,0.1,2.2,0.3,3.3,0.4c0.1,0,0.1,0,0.2,0l0,0l2,0.3
							c0.8,0.1,1.7,0.3,2.6,0.8c0.9,0.6,1.5,1.4,1.8,2.2c0.1,0.2,0.3,0.6-0.3,0.9c-0.6,0.4-1.1,0.3-1.3,0c-0.4-0.8-0.9-1.5-1.8-1.7
							c-0.6-0.1-1.3-0.2-2-0.3c-0.7-0.1-1.5-0.2-2.2-0.3c-1.3-0.1-2.6-0.3-4-0.4c-1.2-0.1-2.5,0-3.7-0.1c-1.1-0.1-2.1-0.3-3.2-0.4
							c-0.3,0-0.5-0.1-0.8,0.2l0,0c-0.3-0.3-0.6,0.2-0.9-0.2l0,0c-0.1,0-0.2-0.1-0.3,0c-0.4,0.1-0.6-0.1-0.4-0.9
							c0-0.2,0-0.4,0.1-0.5l0,0l0,0c0.3-0.5,0.7-0.3,1-0.2c1.7,0,3.3,0.1,5,0.2c1,0.1,2,0.2,3.1,0.2
							C631.7,225.9,632,225.8,632.2,225.9L632.2,225.9z"/>
					</g>
				</g>
			</g>
			<g>
				<g>
					<g>
						<path class="st1" d="M642.3,240.6c0,0.2,0.1,0.4,0,0.7c0,0.3-0.2,0.8-0.4,1.2c-0.3,0.4-0.8,0.7-1,0.8
							c-0.3,0.1-0.5,0.2-0.8,0.3c0,0-0.1,0.1-0.1,0.1l0,0c-0.4,0.1-0.8,0.3-1.2,0.4c-0.9,0.4-1.9,0.7-2.9,0.8
							c-0.2,0-0.4,0.1-0.6-0.5c-0.2-0.7-0.2-1.1,0.1-1.2c0.7-0.2,1.3-0.2,1.9-0.6c0.8-0.5,1.8-0.7,2.7-1.1c0.1-0.1,0.2-0.1,0.3-0.1
							c0.1,0,0.1,0,0.1-0.1c0,0,0,0,0-0.1c0-0.1,0-0.1,0-0.2l0-0.8c0-0.8,0-1.7,0.1-2.6c0.1-0.7,0.4-1.4,0.7-2.1
							c0.1-0.2,0.1-0.3-0.1-0.6l0,0c0.3-0.1-0.1-0.5,0.4-0.6l0,0c0-0.1,0.1-0.1,0.1-0.2c0-0.3,0.2-0.3,0.9,0
							c0.2,0.1,0.4,0.1,0.5,0.2l0,0l0,0c0.4,0.3,0.1,0.5,0.1,0.7c-0.2,1-0.5,2-0.6,3.1c-0.1,0.6-0.2,1.3-0.1,1.9
							C642.3,240.2,642.4,240.4,642.3,240.6L642.3,240.6z"/>
					</g>
				</g>
			</g>
			<g>
				<g>
					<g>
						<path class="st1" d="M596.9,228.1c-0.9,0.1-1.9,0.1-2.8,0c-0.9-0.1-1.8-0.3-2.8-0.6c-0.9-0.4-1.8-0.9-2.5-1.6
							c-0.7-0.7-1.2-1.6-1.6-2.5c-0.2-0.4-0.3-0.8-0.5-1.2l-0.1-0.3c0-0.1,0-0.1-0.1-0.1c0-0.1-0.1-0.1-0.2-0.2
							c-0.1-0.1-0.2-0.1-0.3-0.1l0,0c-0.6-0.4-1.6-0.6-2.7-1c-0.3-0.1-0.6-0.2-0.9-0.4c-0.3-0.2-0.5-0.3-0.7-0.5
							c-0.5-0.3-0.9-0.6-1.3-0.9c-4-3-7-6.9-9.6-10.8c-0.4-0.6-1.1-1.6-0.6-2c0.6-0.4,1.4,0.1,2.2,1.1c1.8,2.5,3.6,5.1,5.8,7.2
							c1.6,1.5,3.3,2.9,5.2,4.1c0.7,0.5,1.9,0.6,3.1,1.1c0.6,0.2,1.3,0.6,1.8,1.4c0.2,0.4,0.3,0.7,0.4,0.9l0.3,0.8
							c0.4,0.9,0.8,1.7,1.4,2.2c0.6,0.6,1.4,1,2.3,1.2c1.8,0.4,3.8,0.4,5.8,0.2c0.4,0,1.1-0.1,1.7,0c0.6,0.1,1.1,0.3,1.6,0.6
							c1,0.5,1.8,1.1,2.5,1.5c0.4,0.2,0.8,0.4,1.1,0.6l1.3,0.5l2.7,1c3.1,1.1,6.2,2.3,9.3,3.8c0.7,0.3,1.5,0.8,2.2,0.9l0,0
							c0.7,0.7,1.9,0.8,2.4,1.7l0,0c0.3,0.2,0.5,0.4,0.8,0.6c1.2,0.8,1.3,1.2,0.5,1.5c-0.2,0.1-0.2,0.3-0.6,0.2l0,0l0,0
							c-1-0.1-1.8-1-2.6-1.5c-4.2-2.5-9.1-4-13.9-5.7c-0.7-0.3-1.5-0.5-2.2-0.8c-0.4-0.1-0.7-0.3-1.1-0.5c-0.4-0.2-0.7-0.4-1.1-0.6
							c-1.3-0.9-2.6-1.8-3.7-1.8c-0.2,0-0.8,0.1-1.2,0.2C597.8,228.1,597.3,228.2,596.9,228.1L596.9,228.1z"/>
					</g>
				</g>
			</g>
			<g>
				<g>
					<g>
						<path class="st1" d="M548.5,193.3c-0.3-0.3-0.7-0.6-1-0.9c-1.1-1.2-2.3-2.4-3.4-3.7c-0.1-0.1-0.1-0.1-0.2-0.1l0,0l-2-2.2
							c-1.6-1.7-3.1-3.4-4.5-5.3c-0.2-0.3-0.6-0.8-0.1-1.2c0.5-0.5,1.1-0.4,1.5,0.1c0.9,1.2,1.8,2.4,2.9,3.5c1.6,1.5,3,3.2,4.5,4.8
							c1.4,1.4,2.7,2.9,4.1,4.3c1.3,1.3,2.7,2.5,4,3.8c1.1,1.1,2.2,2.4,3.3,3.6c0.3,0.3,0.5,0.6,1,0.6l0,0c0.1,0.5,0.9,0.5,0.9,1.1
							l0,0c0.1,0.1,0.2,0.2,0.3,0.3c0.6,0.4,0.5,0.7-0.2,1.1c-0.2,0.1-0.3,0.3-0.5,0.3l0,0l0,0c-0.7,0.1-0.9-0.5-1.3-0.8
							c-1.8-1.7-3.6-3.4-5.3-5.1c-1.1-1.1-2.1-2.2-3.2-3.2C549.1,193.9,548.8,193.7,548.5,193.3L548.5,193.3z"/>
					</g>
				</g>
			</g>
			<g>
				<g>
					<g>
						<path class="st1" d="M548.8,206.4c-0.1,0.2-0.2,0.5-0.4,0.7c-0.5,0.8-1.1,1.7-1.5,2.6c0,0,0,0.1,0,0.2l0,0
							c-0.3,0.5-0.6,1.1-0.8,1.6c-0.6,1.3-1.2,2.6-1.9,3.8c-0.1,0.2-0.3,0.5-0.9,0.3c-0.6-0.3-0.9-0.7-0.7-1c0.4-0.8,1-1.7,1.3-2.6
							c0.4-1.3,1.1-2.6,1.8-3.8c0.6-1.1,1.3-2.2,1.9-3.3c0.6-1,1.1-2,1.7-3c0.5-0.8,1.1-1.6,1.6-2.4c0.1-0.2,0.2-0.4,0.1-0.7l0,0
							c0.4-0.1-0.1-0.6,0.5-0.7l0,0c0-0.1,0.1-0.1,0.1-0.2c0-0.4,0.3-0.4,1-0.1c0.2,0.1,0.4,0.1,0.5,0.2l0,0l0,0
							c0.4,0.4,0.1,0.7,0,1c-0.5,1.5-1.3,3-2.1,4.3c-0.5,0.8-1.1,1.6-1.5,2.4C549.1,205.9,549,206.2,548.8,206.4L548.8,206.4z"/>
					</g>
				</g>
			</g>
			<g>
				<g>
					<g>
						<path class="st1" d="M521.3,165.1c-0.3,1-0.6,1.9-1,2.9c-1.3,3.6-2.7,7.2-4.1,10.7c-0.1,0.2-0.1,0.4-0.2,0.6l0,0l-2.6,6.4
							c-2,5-4,9.9-6.3,14.7c-0.4,0.8-0.9,2-1.5,1.8c-0.6-0.3-0.6-1.3,0-2.7c1.4-3.2,3-6.4,4.2-9.6c1.8-4.8,3.7-9.5,5.5-14.3
							c1.6-4.3,3.2-8.6,4.7-12.9c0.7-2,1.4-4.1,2-6.1c0.7-2.1,1.4-4.1,2.4-6.1c0.9-1.7,2.1-3.4,3.5-4.7c1.5-1.4,3.1-2.4,4.7-3.4
							c0.7-0.5,1.5-0.9,2.1-1.6l0,0c1-0.3,1.6-1.4,2.6-1.7l0,0c0.2-0.2,0.5-0.4,0.7-0.6c0.9-1.1,1.3-1.3,1.6-0.4
							c0.1,0.2,0.3,0.2,0.2,0.6l0,0l0,0c-0.3,1.2-1.5,1.9-2.5,2.6c-2.3,1.8-4.8,3.1-6.9,4.9c-2.1,1.7-3.6,4-4.7,6.5
							c-1.4,3.1-2.4,6.4-3.5,9.7C521.9,163.3,521.6,164.2,521.3,165.1L521.3,165.1z"/>
					</g>
				</g>
			</g>
			<g>
				<g>
					<g>
						<path class="st2" d="M524.1,260.2c2.6,0.7,5.3,1.1,7.8,0.7c2.3-0.3,4-1.8,4.8-4.1c0.9-2.2,1.3-4.8,1.8-7.5
							c1.2-5.2,2.2-10.3,3.1-15.6c0.1-0.5,0.1-1.1,0.2-1.6l0,0l0.7-4.2c0.2-1.4,0.4-2.8,0.5-4.2c0.1-1.3,0-2.7-0.4-3.8
							c0-0.1-0.1-0.3-0.2-0.4c0-0.1-0.2-0.3-0.1-0.3l0,0l-0.1-0.1l-0.4-0.3l-1.4-1.2l-1.7-0.4c-7.3-1.7-14.4-3.8-21.5-6.2
							c-3.5-1.2-7-2.5-10.5-3.9c-3.4-1.4-6.8-2.8-10.3-3.8c-1-0.3-2.4-0.4-3.5-0.3c-1.1,0.1-2,0.4-2.1,0.1c-0.2-0.3,0.3-1,1.5-1.6
							c0.6-0.3,1.4-0.5,2.3-0.5c0.9,0,2,0.1,2.9,0.4c4.9,1.3,9.3,3.5,13.8,5.2c4.6,1.7,9.2,3.3,13.8,4.6c2.7,0.8,5.3,1.5,8,2.2l4,1
							l4.3,1l1.4,1.2l0.6,0.5l0.3,0.3c0.2,0.2,0.4,0.3,0.5,0.5l0.2,0.5l0.2,0.4c0.1,0.3,0.2,0.6,0.3,0.9c0.2,0.6,0.2,1.2,0.3,1.8
							c0.2,2.4-0.2,4.6-0.5,6.7c-0.6,4.3-1.4,8.6-2.2,12.9c-0.6,3.1-1.3,6.3-2,9.4c-0.3,1.5-0.6,3.1-1,4.8c-0.4,1.6-1,3.2-2.1,4.7
							c-0.5,0.7-1.2,1.4-2,1.9c-0.4,0.2-0.8,0.5-1.2,0.7c-0.4,0.1-0.9,0.3-1.3,0.4c-1.8,0.4-3.4,0.4-5.1,0.2
							c-3.3-0.4-6.4-1.5-9.5-2.6c-2.8-1-5.6-2.2-8.4-2.9c-2.9-0.7-5.9-1.5-8.7-2.5c-2.9-0.9-5.7-2-8.5-2.9c-2.7-0.8-5.7-1.5-8.6-2.4
							c-2.5-0.8-5.1-1.7-7.4-3.5c-0.6-0.5-1.1-1-1.6-1.7c-0.5-0.6-0.8-1.5-0.9-2.3c-0.3-1.5,0-3,0.3-4.3c0.7-2.7,2.1-5,3.1-7.3
							c0.3-0.6,0.5-1.1,0.7-1.7c0.2-0.6,0.4-1.2,0.6-1.8l1.2-3.7c0.7-2.3,1.5-4.8,2-7.1l0,0c1.2-2.6,1.7-5.9,3.1-8.3l0,0
							c0.4-1,0.9-1.9,1.4-2.7c1.2-2,2.6-2.8,3.3-3.1c0.7-0.2,0.7,0.1,0.3,0.8c-0.1,0.3,0.3,0.3-0.4,1l-0.1,0l0,0
							c-0.8,1.1-1.6,2.3-2.3,3.7c-0.3,0.7-0.6,1.5-0.9,2.2c-0.3,0.8-0.6,1.5-0.8,2.3c-1.3,3.7-2.5,7.5-3.6,11.2l-1.7,5.7
							c-0.6,2-1.6,3.8-2.4,5.6c-0.8,1.8-1.5,3.6-1.6,5.3c0,0.4,0,0.9,0,1.3l0.1,0.6c0.1,0.2,0.1,0.4,0.2,0.5
							c0.3,0.7,0.9,1.3,1.5,1.9c1.4,1.1,3.2,1.9,5,2.5c1.8,0.6,3.7,1.2,5.6,1.7c1.2,0.3,2.3,0.6,3.5,0.9c0.6,0.2,1.2,0.4,1.8,0.6
							l1.7,0.6c2.3,0.8,4.5,1.6,6.8,2.4c2.3,0.7,4.6,1.4,6.9,2c2.4,0.6,4.8,1.4,7,2.3C519.2,258.6,521.7,259.5,524.1,260.2
							L524.1,260.2z"/>
					</g>
				</g>
				<path class="st2" d="M490.8,203.1c-1.1,0.6-2.1,1.5-2.9,2.6c-0.6,0.9-1.2,1.9-1.6,3c-2.5,6.7-4.6,13.6-6.6,20.5
					c-1.2,4-4.9,9-4,13.3c1.1,5.4,13.6,7.2,18.1,8.8c5.3,1.9,10.6,3.9,16.1,5.2c6.9,1.7,14.7,6.5,21.9,5.7c6.8-0.8,7-8.2,8.2-13.5
					c1.6-7.2,3-14.4,4-21.6c0.4-2.9,0.7-5.9-0.5-8.5l-2.4-2c-11.4-2.6-22.6-6.1-33.4-10.3c-3.6-1.4-7.2-2.9-11-3.8
					C494.4,201.9,492.5,202.2,490.8,203.1"/>
			</g>
			<g>
				<g>
					<g>
						<path class="st1" d="M509.4,181.5c-0.3,0.5-0.7,1-1,1.5c-1.4,1.8-2.8,3.5-4.2,5.3c-0.1,0.1-0.1,0.2-0.2,0.3l0,0l-2.6,3.2
							c-2,2.4-4,4.9-6.1,7.1c-0.3,0.4-0.9,1-1.4,0.5c-0.5-0.5-0.5-1.2,0.1-1.8c1.4-1.5,2.8-3,4-4.7c1.8-2.4,3.7-4.7,5.5-7
							c1.6-2.1,3.3-4.2,4.9-6.4c1.5-2,2.9-4.1,4.3-6.2c1.3-1.8,2.7-3.4,4-5.2c0.3-0.4,0.6-0.8,0.7-1.4l0,0c0.6-0.3,0.5-1.2,1.2-1.4
							l0,0c0.1-0.2,0.3-0.3,0.4-0.5c0.4-0.8,0.7-0.9,1.2-0.2c0.1,0.2,0.3,0.2,0.3,0.5l0,0l0,0c0.1,0.8-0.5,1.3-0.9,1.8
							c-1.9,2.8-3.8,5.5-5.7,8.2c-1.2,1.7-2.4,3.3-3.6,5C510,180.6,509.8,181.1,509.4,181.5L509.4,181.5z"/>
					</g>
				</g>
			</g>
			<g>
				<g>
					<g>
						<path class="st1" d="M552.2,213.8c-0.1,0.3-0.1,0.7-0.2,1c-0.1,0.6-0.2,1.1-0.1,1.7c0.1,0.6,0.2,1.2,0.5,1.7
							c0,0.1,0.1,0.1,0.1,0.2l0,0c0.2,0.4,0.3,0.7,0.5,1.1c0.2,0.4,0.4,1,0.4,1.8c0,0.4-0.2,0.9-0.4,1.2c-0.2,0.3-0.4,0.5-0.5,0.7
							l-0.9,1.2c-0.6,0.8-1.3,1.5-1.9,2.2c-0.2,0.2-0.5,0.6-1.1,0.2c-0.6-0.4-0.7-1-0.3-1.4c0.8-1,1.8-1.9,2.4-3
							c0.2-0.4,0.6-0.8,0.6-1c0.1-0.2,0.1-0.3-0.1-0.7c-0.1-0.3-0.3-0.7-0.6-1.2c-0.2-0.5-0.4-0.9-0.6-1.4c-0.3-0.9-0.4-1.9-0.3-2.9
							c0.1-1,0.4-1.8,0.6-2.7c0.5-1.5,0.9-3.1,1.4-4.6c0.4-1.3,1.1-2.5,1.6-3.8c0.1-0.3,0.3-0.6,0.1-1l0,0c0.4-0.3,0-0.8,0.6-1l0,0
							c0.1-0.1,0.1-0.2,0.2-0.3c0.1-0.6,0.4-0.6,1-0.2c0.1,0.1,0.4,0.1,0.4,0.3l0,0l0,0c0.4,0.5,0,0.9-0.1,1.3c-0.6,2-1.3,4-2,6
							c-0.4,1.2-0.8,2.4-1.2,3.7C552.3,213.2,552.3,213.5,552.2,213.8L552.2,213.8z"/>
					</g>
				</g>
			</g>
			<g>
				<g>
					<g>
						<path class="st1" d="M550.5,230.2c0.1,0.1,0.2,0.2,0.3,0.3c0.4,0.5,0.9,0.9,1.3,1.7c0,0,0.1,0.1,0.1,0.1l0,0
							c0.3,0.5,0.5,1.3,0.3,2c-0.1,0.4-0.3,0.8-0.5,1c-0.2,0.3-0.5,0.4-0.7,0.6c-0.4,0.3-0.7,0.5-0.9,0.6c-0.1,0-0.1,0.1-0.7-0.1
							c-0.7-0.2-1-0.6-0.8-0.9c0.6-0.7,1.3-0.8,1.5-1.3c0.2-0.3,0.1-0.4,0.2-0.5c0-0.1-0.1-0.4-0.3-0.7c-0.4-0.5-1-1-1.6-1.8
							c-0.3-0.4-0.6-0.8-0.6-1.5c0-0.3,0-0.7,0.1-1c0.1-0.3,0.3-0.6,0.4-0.8c0.3-0.3,0.6-0.5,0.9-0.7c0.3-0.2,0.6-0.4,0.9-0.6
							c0.1-0.1,0.3-0.2,0.3-0.5l0,0c0.3,0.1,0.2-0.5,0.6-0.2l0,0c0.1,0,0.1,0,0.2-0.1c0.2-0.2,0.4-0.1,0.7,0.7
							c0.1,0.2,0.2,0.3,0.2,0.5l0,0l0,0c0.1,0.5-0.2,0.4-0.3,0.5c-0.4,0.3-0.7,0.5-1,0.8c-0.3,0.3-0.7,0.7-0.8,0.9
							c-0.1,0.2-0.1,0.4,0.1,0.7C550.3,230,550.4,230,550.5,230.2L550.5,230.2z"/>
					</g>
				</g>
			</g>
			<g>
				<g>
					<g>
						<path class="st1" d="M553.3,237c0.3,0,0.5,0.1,0.7,0.1c0.9,0.3,1.7,0.7,2.5,1.1c0,0,0.1,0,0.1,0l0,0c0.5,0.2,0.9,0.5,1.4,0.7
							c1.1,0.5,2.2,1,3.2,1.8c0.2,0.1,0.4,0.3,0.1,0.9c-0.3,0.6-0.7,0.9-1,0.7c-0.7-0.4-1.4-0.9-2.1-1.1c-1.1-0.3-2.2-1-3.2-1.4
							c-0.9-0.4-1.9-0.8-2.8-0.9c-0.9-0.1-1.7,0-2.7,0.1c-0.8,0.1-1.6,0-2.5,0.1c-0.2,0-0.4,0-0.6,0.3l0,0c-0.3-0.3-0.5,0.4-0.8-0.1
							l0,0c-0.1,0-0.2,0-0.2,0c-0.3,0.2-0.5-0.1-0.5-0.9c0-0.2-0.1-0.4,0-0.5l0,0l0,0c0.2-0.6,0.5-0.3,0.7-0.4
							c1.2-0.3,2.5-0.5,3.9-0.7c0.8-0.1,1.7,0,2.6,0.1C552.8,237,553,236.9,553.3,237L553.3,237z"/>
					</g>
				</g>
			</g>
			<g>
				<g>
					<g>
						<path class="st1" d="M584.2,252.3c0.6,0.3,1.2,0.5,1.8,0.8l6.6,3.3c0.1,0.1,0.2,0.1,0.4,0.1l0,0l4,2l2.3,1.1
							c0.8,0.4,1.6,0.9,2.4,1.6c0.4,0.3,0.7,0.8,1,1.2c0.3,0.5,0.5,1,0.6,1.5c0.2,0.9,0.3,1.8,0.4,2.5c0.1,0.5,0.5,0.9,0,1.4
							c-0.2,0.2-0.6,0.3-0.9,0.2c-0.4-0.2-0.7-0.6-0.8-1.1c-0.3-1.3-0.3-2.4-0.7-3.2c-0.4-0.8-1.2-1.5-2.1-1.9
							c-2.9-1.3-5.9-2.8-8.8-4.3l-7.9-3.9c-2.5-1.2-5-2.3-7.5-3.5c-2.1-1.1-4.2-2.3-6.3-3.4c-0.5-0.3-1-0.6-1.6-0.6l0,0
							c-0.4-0.6-1.4-0.4-1.7-1.1l0,0c-0.2-0.1-0.4-0.2-0.6-0.3c-0.9-0.3-1.1-0.7-0.4-1.2c0.1-0.1,0.2-0.4,0.4-0.4l0,0l0,0
							c0.8-0.2,1.4,0.4,2.1,0.7l9.8,4.8c2,1,4,2,6,2.9C583.1,251.7,583.7,251.9,584.2,252.3L584.2,252.3z"/>
					</g>
				</g>
			</g>
			<g>
				<g>
					<g>
						<path class="st1" d="M601.9,313.4c-0.1,1.2-0.2,2.3-0.4,3.5c-0.3,2.2-0.8,4.4-1.2,6.6c-0.4,2.2-0.7,4.4-1.4,6.5
							c-0.1,0.2-0.1,0.4-0.1,0.7l0,0c-0.7,2.6-1.4,5.2-2.1,7.8c-1.6,5.9-3.3,11.9-5.2,17.8c-0.3,0.9-0.7,2.5-1.4,2.3
							c-0.7-0.2-0.8-1.4-0.3-3c1.2-3.9,2.4-7.8,3.4-11.7c0.7-2.9,1.5-5.7,2.3-8.6l1.1-4.3c0.4-1.4,0.8-2.8,1.1-4.3l1.4-7.8
							c0.5-2.6,0.7-5.2,1.1-7.8l0.9-7.4c0.3-2.5,0.4-4.9,0.6-7.4c0.3-4.3,0.6-8.5,0.7-12.8c0-1,0-2.1-0.2-3l0,0
							c0.3-1.2-0.3-2.5,0.1-3.7l0,0c0-0.4,0-0.8,0-1.2c-0.2-1.7,0-2.2,0.8-1.7c0.2,0.1,0.4,0,0.5,0.4l0,0l0,0c0.6,1.2,0.4,2.7,0.4,4
							c0.2,6.6,0,13.2-0.5,19.8c-0.2,2-0.3,4-0.6,6c-0.3,2-0.5,4-0.8,6C602.2,311.2,602.1,312.3,601.9,313.4L601.9,313.4z"/>
					</g>
				</g>
			</g>
			<g>
				<g>
					<g>
						<path class="st1" d="M529.4,268.3c1,0.3,2,0.6,2.9,1l10.8,4.1c0.2,0.1,0.4,0.1,0.6,0.2l0,0l6.5,2.5c5,1.9,10.1,3.7,14.9,6.5
							c0.7,0.4,2,1.2,1.6,1.7c-0.4,0.6-1.4,0.4-2.6-0.3c-3-1.7-6.2-3.2-9.6-4.3c-4.9-1.7-9.6-3.6-14.5-5.4c-4.3-1.6-8.6-3.3-13-4.8
							c-4-1.6-8.3-2.1-12.5-3.3c-1.8-0.5-3.7-1.2-5.4-2c-1.8-0.8-3.4-1.9-5-2.9c-0.7-0.5-1.5-1.1-2.3-1.4l0,0
							c-0.6-0.9-1.9-1.1-2.4-2.1l0,0c-0.3-0.2-0.5-0.5-0.8-0.7c-1.3-0.9-1.4-1.3-0.5-1.6c0.2-0.1,0.2-0.3,0.6-0.2l0,0l0,0
							c1.1,0.2,2,1.2,2.9,1.9c2.3,1.7,4.6,3.3,7,4.6c2.5,1.2,5.2,2.1,7.9,2.8c3.3,0.9,6.9,1.6,10.2,2.8
							C527.6,267.7,528.5,267.9,529.4,268.3L529.4,268.3z"/>
					</g>
				</g>
			</g>
			<g>
				<g>
					<g>
						<path class="st1" d="M572.8,281.3c0.1,0,0.1,0,0.1,0l0,0l0,0l0.1,0l0.3,0.1l1.1,0.3c0.7,0.2,1.5,0.4,2.2,0.7
							c0.1,0,0.2,0,0.2,0l0,0c0.9,0.3,1.7,0.7,2.6,1c2,0.8,3.9,1.9,5.6,3.3c0.3,0.2,0.7,0.5,0.3,1.1c-0.4,0.6-1,0.7-1.4,0.4
							c-1.1-0.8-2.2-1.6-3.4-2.1c-1.8-0.7-3.6-1.5-5.5-2.1c-0.8-0.2-1.7-0.5-2.5-0.6c-0.3-0.1-0.8-0.1-1.1-0.2l-1-0.3
							c-0.4-0.1-0.5-0.3-0.7-0.4c-0.2-0.2-0.3-0.4-0.4-0.7c-0.1-0.3,0-0.6,0.1-0.7c0.1-0.3,0.6-0.6,0.9-1c0.6-0.2,1.2-0.5,1.9-0.7
							l0.4-0.1c0.1,0,0.2,0,0.3-0.1c0.2,0,0.4-0.1,0.6-0.1c0.4-0.1,0.8-0.1,1.2-0.1c1.6-0.1,3.1,0.2,4.5,0.5c0.3,0.1,0.7,0.2,1.1,0
							l0,0c0.3,0.4,0.9-0.1,1.2,0.4l0,0c0.1,0,0.3,0.1,0.4,0.1c0.6,0,0.7,0.3,0.4,1c-0.1,0.2-0.1,0.4-0.2,0.5l0,0l0,0
							c-0.5,0.4-0.9,0.1-1.4,0c-2.2-0.3-4.3-0.6-6.4-0.4c-0.3,0-0.6,0.1-0.9,0.1c-0.1,0-0.3,0-0.4,0.1l-0.1,0
							c-0.1,0-0.2,0.1-0.2,0.2c0,0,0,0,0,0C572.6,281.3,572.9,281.2,572.8,281.3L572.8,281.3z"/>
					</g>
				</g>
			</g>
			<g>
				<g>
					<g>
						<path class="st1" d="M575.3,288.8c-0.1,0-0.3,0-0.4-0.1l-1.5-0.6c0,0-0.1,0-0.1,0l0,0c-0.3-0.1-0.6-0.3-0.9-0.4
							c-0.7-0.2-1.4-0.5-2-0.9c-0.1-0.1-0.3-0.1-0.1-0.8c0.2-0.7,0.5-1,0.7-0.9c0.5,0.2,0.9,0.5,1.4,0.6c0.7,0.1,1.4,0.4,2.1,0.6
							c0.6,0.2,1.2,0.5,1.8,0.7c0.6,0.2,1.2,0.3,1.8,0.5c0.5,0.2,0.9,0.6,1.4,0.9c0.1,0.1,0.2,0.2,0.4,0l0,0c0,0.3,0.4-0.1,0.3,0.4
							l0,0c0,0,0.1,0.1,0.1,0.1c0.2,0,0.2,0.2-0.2,0.9c-0.1,0.1-0.2,0.4-0.3,0.4l0,0l0,0c-0.3,0.4-0.4,0.1-0.6,0.1
							c-0.7-0.3-1.5-0.6-2.2-0.9c-0.5-0.2-0.9-0.4-1.4-0.5C575.6,288.8,575.4,288.9,575.3,288.8L575.3,288.8z"/>
					</g>
				</g>
			</g>
			<g>
				<g>
					<g>
						<path class="st1" d="M575.6,318.6c0,0.8,0.1,1.7,0.1,2.5l0.1,9.5c0,0.2,0,0.3,0.1,0.5l0,0l0.1,5.7c0.1,4.4,0.2,8.9,0.1,13.3
							c0,0.7,0,1.9-0.7,1.9c-0.7,0-1.1-0.8-1.1-2c0-2.9,0.1-5.9-0.1-8.8c-0.3-4.2-0.2-8.5-0.3-12.7l-0.1-11.4
							c-0.1-3.6-0.2-7.2-0.2-10.7c0-3.1,0.2-6.2,0.3-9.3c0-0.7,0.1-1.5-0.2-2.2l0,0c0.3-0.8-0.3-1.8,0.2-2.6l0,0
							c0-0.3,0.1-0.6,0-0.9c-0.1-1.3,0.1-1.6,0.9-1.2c0.2,0.1,0.4,0,0.5,0.3l0,0l0,0c0.5,0.9,0.3,1.9,0.3,2.9l0,14.2
							c0,2.9,0,5.8,0.1,8.7C575.5,317,575.6,317.8,575.6,318.6L575.6,318.6z"/>
					</g>
				</g>
			</g>
			<g>
				<g>
					<g>
						<path class="st1" d="M582.1,357.5c-0.2,0-0.4-0.1-0.6-0.1c-0.7-0.3-1.3-0.5-2-0.8c0,0-0.1,0-0.1,0l0,0l-1.2-0.6
							c-0.9-0.4-1.8-0.9-2.6-1.6c-0.1-0.1-0.3-0.2,0-0.8c0.4-0.6,0.7-0.9,0.9-0.7c0.5,0.4,1,0.8,1.6,1c0.9,0.3,1.7,0.7,2.5,1
							c0.8,0.3,1.5,0.6,2.3,0.8c0.7,0.2,1.5,0.3,2.2,0.5c0.6,0.2,1.2,0.5,1.9,0.7c0.1,0,0.3,0.1,0.5-0.1l0,0
							c0.1,0.3,0.4-0.2,0.5,0.3l0,0c0.1,0,0.1,0.1,0.2,0.1c0.3-0.1,0.3,0.2,0.1,0.9c0,0.2-0.1,0.4-0.1,0.5l0,0l0,0
							c-0.3,0.5-0.5,0.2-0.7,0.2c-1.1-0.1-2.1-0.4-3.1-0.6c-0.6-0.2-1.2-0.4-1.9-0.5C582.4,357.6,582.2,357.6,582.1,357.5
							L582.1,357.5z"/>
					</g>
				</g>
			</g>
			<g>
				<g>
					<g>
						<path class="st1" d="M577.8,364.5c0,0.2,0.1,0.4,0,0.7c-0.1,0.8-0.2,1.6-0.4,2.4c0,0,0,0.1,0,0.1l0,0l-0.3,1.4
							c-0.3,1.1-0.6,2.1-1.1,3.1c-0.1,0.2-0.2,0.4-0.8,0.2c-0.7-0.2-1-0.5-0.9-0.8c0.3-0.7,0.6-1.3,0.7-2c0.1-1,0.4-2,0.6-3
							c0.1-0.9,0.3-1.8,0.2-2.6c0-0.8-0.2-1.6-0.4-2.4c-0.1-0.7-0.1-1.5-0.1-2.3c0-0.2,0-0.4-0.2-0.6l0,0c0.3-0.2-0.3-0.5,0.2-0.7
							l0,0c0-0.1,0.1-0.2,0.1-0.2c-0.1-0.4,0.2-0.4,0.9-0.2c0.2,0,0.4,0.1,0.5,0.1l0,0l0,0c0.5,0.3,0.2,0.4,0.2,0.6
							c0,1,0.3,2.1,0.5,3.3c0.1,0.7,0.2,1.5,0.2,2.2C577.8,364.1,577.9,364.3,577.8,364.5L577.8,364.5z"/>
					</g>
				</g>
			</g>
			<g>
				<g>
					<g>
						<path class="st1" d="M589.5,364.9c0,0.1,0.1,0.2,0.1,0.3c0,0.3,0,0.7,0.1,1c0,0,0,0,0.1,0l0,0c0,0.2,0,0.4,0.1,0.6
							c0.1,0.5,0.3,0.9,0.2,1.4c0,0.1,0,0.2-0.6,0.4c-0.7,0.3-1.1,0.3-1.1,0.2c-0.1-0.4,0-0.8-0.2-1.1c-0.3-0.5-0.3-1-0.4-1.5
							c-0.1-0.5-0.1-1-0.2-1.4c0-0.5-0.2-0.9-0.1-1.4c0-0.4,0.3-0.8,0.4-1.1c0-0.1,0.1-0.2-0.2-0.3l0,0c0.3,0-0.2-0.3,0.3-0.3l0,0
							c0,0,0.1-0.1,0.1-0.1c-0.1-0.2,0.2-0.2,0.9,0.1c0.2,0.1,0.4,0.1,0.5,0.2l0,0l0,0c0.5,0.2,0.2,0.3,0.2,0.4
							c-0.1,0.5-0.1,1-0.1,1.5c0,0.3,0,0.6,0.1,0.9C589.5,364.7,589.6,364.8,589.5,364.9L589.5,364.9z"/>
					</g>
				</g>
			</g>
			<g>
				<g>
					<g>
						<path class="st1" d="M583.6,374.5c-0.2,0.1-0.4,0.2-0.6,0.3c-0.8,0.3-1.6,0.5-2.4,0.6c0,0-0.1,0.1-0.1,0.1l0,0
							c-0.5,0.1-1,0.2-1.5,0.2c-1.2,0.2-2.4,0.2-3.5-0.3c-0.2-0.1-0.5-0.1-0.3-0.8c0.2-0.7,0.4-1.1,0.7-1c0.6,0.2,1.3,0.4,2,0.2
							c1-0.2,1.9-0.3,2.9-0.6c0.8-0.3,1.7-0.5,2.5-0.9c0.8-0.3,1.5-0.8,2.3-1.2c0.7-0.3,1.4-0.5,2.1-0.7c0.2-0.1,0.3-0.1,0.3-0.4
							l0,0c0.3,0.2,0.2-0.4,0.6-0.2l0,0c0.1,0,0.1,0,0.2-0.1c0.1-0.3,0.3-0.1,0.8,0.5c0.1,0.1,0.3,0.3,0.3,0.4l0,0l0,0
							c0.2,0.6-0.3,0.5-0.5,0.7c-1.1,0.7-2.1,1.2-3.2,1.7c-0.6,0.3-1.3,0.6-2,0.9C583.9,374.3,583.8,374.5,583.6,374.5L583.6,374.5z
							"/>
					</g>
				</g>
			</g>
			<g>
				<g>
					<g>
						<path class="st1" d="M607.9,375.6c0.4,0.1,0.9,0.1,1.3,0.2c1.6,0.3,3.2,0.6,4.9,0.8c0.1,0,0.2,0,0.3,0l0,0
							c1,0.1,2,0.2,3.1,0.4c1.3,0.3,2.6,0.7,3.7,1.7c1,1,1.8,2.4,1.6,4c0,0.5-0.3,1.3-0.9,1c-0.6-0.3-0.9-0.7-0.9-1.1
							c0.1-1.1-0.7-2.5-1.9-3c-1.8-0.8-4-0.8-6.3-1.1c-2-0.2-4.1-0.7-6.1-1.1c-1.9-0.4-3.8-0.9-5.6-1.5c-1.6-0.6-3.1-1.4-4.5-2.2
							c-0.3-0.2-0.7-0.4-1.2-0.3l0,0c-0.3-0.5-1-0.2-1.2-0.8l0,0c-0.1-0.1-0.2-0.2-0.4-0.2c-0.7-0.2-0.7-0.5-0.1-1.1
							c0.1-0.1,0.2-0.3,0.4-0.4l0,0l0,0c0.7-0.2,1,0.2,1.5,0.5c2.2,1.1,4.5,2.1,6.8,2.9c1.4,0.5,2.9,1,4.4,1.2
							C607.1,375.5,607.5,375.5,607.9,375.6L607.9,375.6z"/>
					</g>
				</g>
			</g>
			<g>
				<g>
					<g>
						<path class="st1" d="M598.6,389.3c-0.6,0.1-1.2,0.1-1.8,0.2c-2.2,0.1-4.5,0.1-6.7,0.1c-0.1,0-0.2,0-0.3,0.1l0,0l-4.1-0.1
							c-1.6,0-3.2-0.1-4.8-0.3c-1.6-0.3-3.3-0.8-4.7-1.7c-0.5-0.3-1.2-0.8-0.8-1.3c0.5-0.6,1.1-0.6,1.7-0.2c1.6,0.9,3.6,1.5,5.6,1.5
							c2.9,0,5.9,0.1,8.9,0c2.7-0.1,5.3-0.1,8-0.4c2.5-0.2,5-0.6,7.5-0.8c2.1-0.2,4.3-0.3,6.5-0.6c0.5-0.1,1-0.1,1.5-0.4l0,0
							c0.6,0.2,1.2-0.5,1.8-0.1l0,0c0.2,0,0.4,0,0.6-0.1c0.9-0.3,1.1-0.1,1,0.8c0,0.2,0.1,0.4-0.1,0.5l0,0l0,0
							c-0.5,0.6-1.3,0.5-2,0.6c-3.3,0.6-6.6,1-9.9,1.4c-2,0.2-4.1,0.4-6.1,0.6C599.8,389.2,599.2,389.3,598.6,389.3L598.6,389.3z"/>
					</g>
				</g>
			</g>
			<g>
				<g>
					<g>
						<path class="st1" d="M575.3,379.9c0,0.1,0.1,0.2,0.1,0.3l0,1.1c0,0,0,0,0.1,0.1l0,0c0,0.2,0,0.5,0,0.7c0,0.5,0.1,1-0.1,1.6
							c0,0.1,0,0.2-0.7,0.3c-0.7,0-1.1,0-1.1-0.2c0-0.4,0.2-0.7,0.1-1.1c-0.2-0.5-0.1-1-0.2-1.5c0-0.5,0-0.9-0.1-1.4
							c0-0.4-0.2-0.9-0.2-1.3c0-0.4,0.2-0.7,0.3-1.1c0-0.1,0.1-0.2-0.2-0.3l0,0c0.3-0.1-0.3-0.2,0.2-0.3l0,0c0,0,0.1-0.1,0-0.1
							c-0.1-0.2,0.1-0.2,0.9-0.1c0.2,0,0.4,0,0.5,0.1l0,0l0,0c0.5,0.1,0.3,0.2,0.3,0.3c0,0.6,0,1.1,0,1.7c0,0.3,0,0.7,0.1,1
							C575.2,379.7,575.3,379.8,575.3,379.9L575.3,379.9z"/>
					</g>
				</g>
			</g>
			<g>
				<g>
					<g>
						<path class="st1" d="M502,266.9c0.4,0.1,0.9,0.2,1.3,0.3c1.6,0.5,3.3,0.7,5,0.8c0.1,0,0.2,0,0.3,0l0,0c1,0.1,2.1,0.1,3.1,0.1
							c2.4-0.1,4.8-0.3,7.2-0.6c0.4,0,1-0.2,1.1,0.5c0.1,0.7-0.2,1.2-0.9,1.3c-1.7,0.3-3.3,0.3-5,0.6c-2.4,0.4-4.9,0.2-7.3,0
							c-2.2-0.2-4.4-0.7-6.5-1.5c-2-0.8-3.9-1.9-5.3-3.9c-1.1-1.6-1.6-3.6-1.5-5.5c0-0.5,0.1-0.9-0.1-1.4l0,0
							c0.2-0.2,0.2-0.5,0.2-0.8c0.1-0.3,0.1-0.6,0.4-0.7l0,0c0.1-0.2,0.2-0.3,0.3-0.5c0.3-0.8,0.7-0.8,1.1-0.1
							c0.1,0.1,0.3,0.2,0.3,0.4l0,0l0,0c0.2,0.6-0.2,0.9-0.4,1.4c-0.7,2.2,0.1,4.8,1.6,6.6c0.9,1.1,2.2,2,3.6,2.6
							C501.2,266.7,501.6,266.7,502,266.9L502,266.9z"/>
					</g>
				</g>
			</g>
			<g>
				<g>
					<g>
						<path class="st1" d="M527.9,280.7c0.1,0.3,0.2,0.6,0.3,0.9l1,3.4c0,0.1,0.1,0.1,0.1,0.2l0,0c0.2,0.7,0.4,1.4,0.6,2.1
							c0.5,1.6,1,3.2,1.3,4.8c0,0.3,0.2,0.7-0.5,0.9c-0.7,0.2-1.2,0-1.3-0.4c-0.3-1.1-0.4-2.2-0.9-3.2c-0.6-1.5-1-3-1.5-4.5
							l-1.3-4.1c-0.4-1.3-1-2.5-1.3-3.8c-0.3-1.1-0.5-2.3-0.8-3.4c-0.1-0.3-0.1-0.6-0.4-0.7l0,0c0.2-0.4-0.5-0.6-0.1-1l0,0
							c0-0.1,0-0.2-0.1-0.3c-0.2-0.4,0-0.6,0.7-0.7c0.2,0,0.4-0.1,0.5,0l0,0l0,0c0.6,0.2,0.5,0.6,0.6,0.9c0.6,1.7,1.1,3.3,1.6,5
							c0.3,1,0.6,2.1,1,3.1C527.7,280.2,527.8,280.4,527.9,280.7L527.9,280.7z"/>
					</g>
				</g>
			</g>
			<g>
				<g>
					<g>
						<path class="st1" d="M583.4,154.4c0.5,0,0.9,0.1,1.4,0.1c1.7,0.2,3.4,0.5,5.1,0.7c0.1,0,0.2,0,0.3,0l0,0
							c1,0.1,2.1,0.2,3.1,0.3c2.4,0.2,4.7,0.2,7.1,0.2c0.4,0,1,0,1.1,0.6c0.1,0.7-0.3,1.2-1,1.2c-1.6,0.1-3.3-0.1-4.9,0
							c-2.4,0.1-4.7-0.2-7-0.5c-2.1-0.2-4.1-0.6-6.2-0.8c-1.9-0.2-3.9-0.4-5.8-0.6c-1.7-0.2-3.3-0.7-5-0.9c-0.4-0.1-0.8-0.2-1.2,0
							l0,0c-0.4-0.4-1,0.1-1.4-0.4l0,0c-0.2,0-0.3-0.1-0.5-0.1c-0.7,0-0.8-0.3-0.5-1c0.1-0.2,0-0.4,0.2-0.5l0,0l0,0
							c0.5-0.5,1.1-0.1,1.6-0.1l7.7,1c1.6,0.2,3.1,0.5,4.7,0.6C582.5,154.4,583,154.3,583.4,154.4L583.4,154.4z"/>
					</g>
				</g>
			</g>
			<g>
				<g>
					<g>
						<path class="st1" d="M601.3,167.3c0,0.2,0,0.5,0,0.7c-0.1,0.9-0.2,1.7-0.3,2.6c0,0,0,0.1,0,0.1l0,0c-0.1,0.5-0.1,1-0.2,1.6
							c-0.1,1.2-0.2,2.4-0.6,3.6c-0.1,0.2-0.1,0.5-0.8,0.4c-0.7-0.1-1.1-0.3-1-0.7c0.1-0.8,0.4-1.6,0.3-2.4
							c-0.1-1.2,0.1-2.3,0.2-3.5c0.1-1,0.2-2.1,0.3-3.1c0.1-1,0-2,0.1-2.9c0.1-0.8,0.3-1.7,0.5-2.5c0-0.2,0.1-0.4-0.1-0.6l0,0
							c0.3-0.2-0.2-0.5,0.3-0.7l0,0c0-0.1,0.1-0.1,0.1-0.2c-0.1-0.4,0.2-0.4,0.9-0.2c0.2,0,0.4,0,0.5,0.1c0,0,0,0,0,0l0,0
							c0.5,0.3,0.2,0.5,0.2,0.8c-0.1,1.3-0.2,2.6-0.3,3.8c-0.1,0.8-0.2,1.6-0.2,2.4C601.3,166.9,601.4,167.1,601.3,167.3
							L601.3,167.3z"/>
					</g>
				</g>
			</g>
			<g>
				<g>
					<g>
						<path class="st1" d="M587,178.4c-0.4,0-0.7,0-1.1,0c-1.4,0-2.8-0.1-4.2-0.2c-0.1,0-0.1,0-0.2,0l0,0l-2.5-0.2
							c-2-0.2-3.9-0.5-5.8-1.1c-0.3-0.1-0.8-0.2-0.6-0.9c0.2-0.7,0.6-1,1.1-0.9c1.2,0.3,2.4,0.7,3.6,0.8c1.8,0.1,3.6,0.3,5.4,0.3
							c1.6,0,3.3,0.1,5,0.1c1.6,0,3.1,0,4.7,0.1c1.3,0.1,2.7,0.4,4,0.5c0.3,0,0.6,0.1,1-0.1l0,0c0.3,0.3,0.8-0.2,1.1,0.3l0,0
							c0.1,0,0.2,0.1,0.4,0.1c0.5-0.1,0.7,0.2,0.5,0.9c0,0.2,0,0.4-0.1,0.5l0,0l0,0c-0.4,0.5-0.9,0.2-1.3,0.2
							c-2.1-0.1-4.1-0.2-6.1-0.3c-1.3-0.1-2.5-0.2-3.7-0.2C587.6,178.4,587.3,178.5,587,178.4L587,178.4z"/>
					</g>
				</g>
			</g>
			<g>
				<g>
					<g>
						<path class="st1" d="M607.1,146.3c-0.3-0.6-0.5-1.2-0.7-1.8c-0.8-2.3-1.4-4.5-2-6.8c0-0.1-0.1-0.2-0.1-0.3l0,0
							c-0.4-1.4-0.7-2.7-1.1-4.1c-0.9-3.1-1.8-6.2-3-9.1c-0.2-0.5-0.6-1.2,0-1.5c0.6-0.3,1.3,0,1.7,0.8c0.9,2,1.5,4.1,2.3,6.2
							c1.1,3,1.8,6.1,2.6,9.1c0.8,2.7,1.6,5.3,2.7,7.9c1,2.4,2.3,4.8,3,7.5c0.2,0.7,0.3,1.3,0.4,2c0.1,0.4,0.1,0.7,0.1,1.1
							c0.1,0.6,0,1.3-0.4,1.7c-0.3,0.3-0.7,0.5-1.1,0.6c-0.1,0-0.2,0-0.3,0l-0.3,0l-0.4,0l-1.4,0c-0.5,0-1.1,0-1.6,0.3l0,0
							c-0.6-0.3-1.3,0.4-2-0.1l0,0c-0.2,0-0.4,0-0.6,0c-0.9,0.2-1.2-0.1-0.9-0.8c0.1-0.2,0-0.4,0.2-0.5l0,0l0,0
							c0.6-0.6,1.4-0.4,2.1-0.4l2.8-0.2l1.4-0.1l0.5,0c0.1,0,0.1,0,0.1-0.1c0,0,0-0.1,0-0.1c0-0.1,0,0,0-0.3
							c-0.1-0.4-0.1-0.8-0.2-1.1c-0.2-0.8-0.4-1.5-0.6-2.3c-0.6-2-1.4-3.9-2.3-5.9C607.6,147.4,607.3,146.9,607.1,146.3L607.1,146.3
							z"/>
					</g>
				</g>
			</g>
			<g>
				<g>
					<g>
						<path class="st1" d="M619.7,142.9c0.3,0.6,0.6,1.2,0.8,1.8l2.8,7c0,0.1,0.1,0.2,0.2,0.3l0,0c0.6,1.4,1.1,2.8,1.7,4.2
							c0.7,1.6,1.5,3.2,2,5c0.5,1.8,0.7,4-0.3,5.8c-0.3,0.6-1,1.5-1.5,1c-0.5-0.5-0.4-1.1-0.1-1.8c0.4-0.9,0.5-1.9,0.4-3
							c-0.1-1.1-0.5-2.1-0.9-3.1c-1.5-3-2.7-6.2-4-9.3c-1.2-2.8-2.3-5.6-3.4-8.4c-1.1-2.6-2.3-5.2-3.3-7.9c-0.9-2.3-1.6-4.7-2.4-7
							c-0.2-0.5-0.4-1.1-0.8-1.6l0,0c0.1-0.7-0.8-1.3-0.5-2l0,0c-0.1-0.2-0.1-0.4-0.2-0.6c-0.5-0.9-0.3-1.2,0.5-1.2
							c0.2,0,0.4-0.1,0.6,0l0,0l0,0c0.7,0.5,0.8,1.3,1,2l4,10.5c0.8,2.1,1.6,4.3,2.6,6.4C619.2,141.8,619.5,142.3,619.7,142.9
							L619.7,142.9z"/>
					</g>
				</g>
			</g>
			<g>
				<g>
					<g>
						<path class="st1" d="M613.9,172.3c-0.3,0.1-0.6,0.2-0.9,0.2c-1.1,0.2-2.2,0.3-3.3,0.5c-0.1,0-0.1,0.1-0.2,0.1l0,0
							c-0.7,0.1-1.3,0.2-2,0.3c-1.5,0.3-3.1,0.5-4.6,0.6c-0.2,0-0.7,0.1-0.8-0.6c-0.1-0.7,0.1-1.1,0.5-1.2c1-0.1,2.1-0.1,3-0.4
							c1.4-0.4,2.9-0.6,4.4-0.8c1.3-0.2,2.6-0.4,3.9-0.7c1.2-0.2,2.4-0.6,3.7-0.8c1.1-0.2,2.2-0.2,3.2-0.3c0.3,0,0.5,0,0.7-0.3l0,0
							c0.3,0.3,0.6-0.4,0.9,0l0,0c0.1,0,0.2,0,0.3,0c0.4-0.2,0.6,0,0.6,0.8c0,0.2,0.1,0.4,0,0.5c0,0,0,0,0,0l0,0
							c-0.2,0.6-0.6,0.4-1,0.4c-1.6,0.3-3.3,0.6-4.9,0.9c-1,0.2-2,0.3-3,0.6C614.5,172.2,614.2,172.3,613.9,172.3L613.9,172.3z"/>
					</g>
				</g>
			</g>
			<g>
				<g>
					<g>
						<path class="st1" d="M594.3,120.4c-0.1,0-0.3,0-0.4-0.1c-0.4-0.2-0.8-0.3-1.5-0.9c0,0-0.1,0-0.1-0.1l0,0
							c-0.2-0.2-0.3-0.5-0.4-0.7c-0.1-0.3-0.1-0.6-0.1-0.7c0-0.8,0-1.3,0.2-2c0-0.1,0-0.3,0.7-0.3c0.7,0,1.1,0.1,1.1,0.3
							c-0.1,0.4-0.2,0.9-0.1,1.3c0.1,0.3,0.1,0.7,0.1,0.7c0,0.1,0,0.1,0.1,0.2c0.1,0.1,0.4,0.2,0.6,0.3c0.3,0.1,0.5,0.2,0.8,0.3
							c0.5,0.2,1,0.3,1.5,0.5c0.4,0.2,0.7,0.5,1.1,0.8c0.1,0.1,0.2,0.1,0.4-0.1l0,0c0,0.3,0.4-0.1,0.3,0.3l0,0c0,0,0.1,0.1,0.1,0.1
							c0.2,0,0.2,0.2-0.2,0.9c-0.1,0.2-0.2,0.4-0.2,0.4l0,0l0,0c-0.3,0.4-0.4,0.1-0.5,0.1c-0.7-0.2-1.3-0.5-1.9-0.8
							c-0.4-0.2-0.8-0.4-1.2-0.4C594.5,120.4,594.4,120.5,594.3,120.4L594.3,120.4z"/>
					</g>
				</g>
			</g>
			<g>
				<g>
					<g>
						<path class="st3" d="M629.8,110.7C629.9,110.7,629.8,110.6,629.8,110.7c-0.1-0.1-0.1-0.1-0.1-0.1l0,0c0,0,0,0,0,0l-0.2-0.1
							l-12.2-4.7c-0.2-0.1-0.4-0.1-0.6-0.2l0,0l-4.6-1.8l-0.6-0.1c-0.6-0.2-0.4-0.1-0.5-0.1c-0.1,0-0.5,0.1-1,0.2
							c-2.9,0.8-5.6,1.9-8.4,3.2l-1,0.5l-0.5,0.2l0,0l-0.1,0.1l-0.2,0.2l-1.9,1.2c-1.3,0.8-2.5,1.6-3.7,2.5
							c-0.4,0.3-0.9,0.7-1.2,0.9c0,0-0.1,0.1-0.1,0.1c-0.1,0,0,0.1-0.2-0.1c-0.1-0.1-0.3-0.1-0.3-0.1c0,0-0.1,0-0.2,0
							c0,0,0,0,0.1-0.2c0-0.1,0-0.1,0-0.2c0,0,0-0.1,0-0.1c0,0,0,0,0,0l0,0.1c0,0.1,0,0.2,0.1,0.3c0,0.2,0,0.4-0.3,0.5
							c0,0-0.1,0-0.1,0c0,0-0.1,0-0.2-0.1c-0.2-0.1-0.2-0.3-0.2-0.5c0-0.2,0-0.2,0-0.4c0-0.1,0-0.2,0.1-0.3c0.2-0.6,0.7-1.2,1.4-1.7
							c1.7-1.2,3.4-2.3,5.1-3.4l0.6-0.4c0.1-0.1,0.2-0.1,0.4-0.2l0.4-0.2l1.4-0.7l2.8-1.3c1.4-0.6,2.8-1.2,4.2-1.7
							c0.7-0.2,1.4-0.5,2.2-0.7c0.4-0.1,1-0.2,1.6,0c0.1,0,0.2,0,0.2,0.1c0,0,0,0,0.1,0l0.2,0l0.6,0.1l8.1,3.1l7.3,2.8l1.8,0.7
							l0.5,0.2c0.2,0.1,0.5,0.2,0.8,0.4c0.5,0.3,0.9,0.7,1.2,1.1c0.5,0.7,1,2-0.1,2.2l-0.6,0.3c-0.2,0.1-0.5,0.2-0.8,0.2l-0.9,0.2
							c-0.2,0-0.3,0.1-0.5,0.1c-5,1-10.1,0.7-15,0.3c-4.2-0.3-8.4-0.6-12.6-0.6c-1,0-2.1,0-3,0.4l0,0c-1.2-0.3-2.5,0.4-3.6,0l0,0
							c-0.4,0-0.8,0-1.2,0.1c-1.7,0.3-2.2,0.1-1.7-0.9c0.1-0.2-0.1-0.4,0.3-0.6l0,0l0,0c1.1-0.7,2.6-0.5,3.9-0.6
							c6.5-0.5,13.1-0.5,19.6,0.1c4,0.3,7.9,0.5,11.7-0.1c0.5-0.1,1-0.2,1.5-0.4C629.7,110.7,629.7,110.7,629.8,110.7L629.8,110.7z"
							/>
					</g>
				</g>
				<path class="st3" d="M592.4,112.4c6.9-0.7,13.8-0.9,20.7-0.5c6.3,0.4,12.8,1.3,19-0.6c-0.2-1.2-1.3-1.7-2.3-2.1
					c-5.7-2.2-11.5-4.4-17.2-6.6l-0.8-0.2c-0.5-0.3-1.1-0.1-1.7,0.1c-3.6,1-7.1,2.4-10.4,4.1C599.5,106.6,590.1,112.6,592.4,112.4z"
					/>
			</g>
			<g>
				<g>
					<g>
						<path class="st4" d="M608.6,105.6c0.2,0,0.5,0.1,0.7,0.1l2.8,0.7c0,0,0.1,0,0.2,0l0,0c0.6,0.1,1.1,0.3,1.7,0.4
							c1.3,0.3,2.6,0.6,3.9,1.1c0.2,0.1,0.5,0.2,0.4,0.8c-0.2,0.7-0.5,1-0.8,0.9c-0.8-0.3-1.7-0.6-2.5-0.7c-1.3-0.1-2.5-0.5-3.8-0.7
							c-1.1-0.2-2.2-0.5-3.4-0.8c-1.1-0.2-2.2-0.4-3.2-0.7c-0.9-0.3-1.8-0.7-2.6-1.1c-0.2-0.1-0.4-0.2-0.7-0.1l0,0
							c-0.1-0.4-0.6,0-0.7-0.5v0c-0.1,0-0.1-0.1-0.2-0.1c-0.4-0.1-0.4-0.3,0.1-1c0.1-0.1,0.2-0.4,0.3-0.4l0,0l0,0
							c0.5-0.4,0.6,0,0.9,0.1c1.3,0.5,2.6,0.9,4,1.3c0.8,0.2,1.7,0.5,2.5,0.6C608.2,105.5,608.4,105.5,608.6,105.6L608.6,105.6z"/>
					</g>
				</g>
			</g>
			<g>
				<g>
					<g>
						<path class="st3" d="M619.5,112.3c0.7-0.2,1.3-0.4,2-0.6l2.5-0.6l0.3,2.5l-5.4-0.2c-0.1,0-0.3,0-0.4,0.1l0,0l-4.8-0.1
							c-3.7-0.1-7.5-0.1-11.2-0.5c-0.6-0.1-1.6-0.1-1.5-0.8c0-0.8,0.7-1.2,1.7-1.2c2.5,0.1,4.9,0.4,7.4,0.3
							c3.6-0.1,7.1,0.1,10.7,0.1l3.6,0.1l8.2,0.1l-8,1.9l-5.9,1.4c-2.9,0.7-5.9,1.5-8.8,2.1c-1.3,0.2-2.6,0.4-3.9,0.6l-4.2,0.5
							c-0.5,0-1-0.1-1.4-0.5c-0.4-0.3-0.5-0.8-0.7-1.4l0,0c0.1-0.4,0.1-0.6,0.1-0.8c0-0.2-0.1-0.4-0.1-0.6c-0.1-0.4-0.1-0.8,0.2-1.2
							l0,0c0-0.3,0.1-0.5,0.1-0.7c0-1.1,0.3-1.4,1.1-0.9c0.2,0.1,0.4,0,0.5,0.3l0,0l0,0c0.5,0.8,0.2,1.6,0.2,2.3c0,0.3,0,0.7,0.1,1
							c0,0.1,0,0.2,0.1,0.3c0.1,0.1,0.2,0,0.3,0l1.1-0.2l2.4-0.4c1.6-0.3,3.2-0.6,4.8-0.9c2.4-0.5,4.8-0.9,7.1-1.6
							C618.2,112.7,618.8,112.4,619.5,112.3L619.5,112.3z"/>
					</g>
				</g>
			</g>
			<g>
				<g>
					<g>
						<path class="st1" d="M639.7,252c-0.4,0.2-0.8,0.4-1.3,0.5c-0.4,0.1-0.8,0.2-1.2,0.3c-0.4,0.1-0.9,0.2-1.1,0.2
							c-0.3,0.1-0.3,0.1-0.3,0.1c0,0-0.1,0.2,0,0.5c0,0.1,0.1,0.1,0.1,0.2l0,0c0.1,0.3,0.2,0.9,0.4,1.3l0.4,1.4
							c0.7,2.1,1.3,4.3,1.7,6.5c0.1,0.3,0.2,0.9-0.4,1.1c-0.7,0.2-1.2-0.1-1.3-0.7c-0.4-1.4-0.6-2.9-1.1-4.3c-0.4-1-0.7-2-1-3
							l-0.5-1.6c-0.1-0.6-0.3-1.3,0-2.1c0.1-0.4,0.4-0.8,0.8-1c0.3-0.2,0.7-0.3,1-0.4c0.6-0.1,0.9-0.2,1.4-0.3
							c0.9-0.2,1.7-0.5,2.5-0.9c1.5-0.7,2.9-1.8,4.1-2.9c0.3-0.2,0.5-0.5,0.7-0.7c0.2-0.2,0.3-0.4,0.4-0.6c0.2-0.4,0.1-1.1,0-1.9
							c0-0.4-0.1-0.8-0.4-1.1l0,0c0.2-0.5-0.4-0.9,0-1.3l0,0c0-0.1,0-0.3,0-0.4c-0.2-0.6,0-0.8,0.8-0.7c0.2,0,0.4-0.1,0.5,0.1l0,0
							l0,0c0.6,0.3,0.4,0.9,0.5,1.4l0.3,1.8c0.1,0.6,0.2,1.2,0.2,1.9c0,0.4-0.1,0.8-0.2,1.2c-0.1,0.4-0.4,0.7-0.6,1
							c-0.5,0.5-0.9,0.9-1.3,1.4c-1.2,1-2.5,1.9-3.8,2.6C640.5,251.6,640.1,251.9,639.7,252L639.7,252z"/>
					</g>
				</g>
			</g>
			<g>
				<g>
					<g>
						<path class="st1" d="M651,281.4c0.2,0.6,0.5,1.2,0.7,1.8l2.2,6.8c0,0.1,0.1,0.2,0.2,0.3l0,0l1.3,4.1l1,2.9l0.5,1.5
							c0.1,0.2,0.2,0.5,0.2,0.9c0.1,0.4,0,1-0.2,1.4c-0.1,0.3-0.4,0.5-0.6,0.7c-0.3,0.2-0.4,0.3-0.6,0.3c-0.3,0.2-0.6,0.3-1,0.4
							c-0.7,0.3-1.3,0.4-2,0.6c-0.5,0.1-1.5,0.3-1.6-0.4c-0.1-0.7,0.4-1.2,1.2-1.4c0.6-0.1,1.1-0.3,1.7-0.5c0.3-0.1,0.5-0.2,0.8-0.3
							c0.3-0.1,0.3-0.2,0.4-0.2c0-0.1,0.1-0.1,0-0.2c0-0.1-0.1-0.3-0.2-0.6c-0.2-0.4-0.3-0.9-0.5-1.3c-1.2-3-2.1-6-3.1-9l-2.7-8.1
							c-0.9-2.5-1.9-5-2.7-7.6c-0.4-1.1-0.7-2.2-1-3.3c-0.3-1.1-0.7-2.1-1.3-2.9c-0.3-0.4-0.6-0.7-1.1-0.7l0,0
							c-0.1-0.3-0.4-0.3-0.7-0.4c-0.3,0-0.5-0.1-0.7-0.3l0,0c-0.2,0-0.3-0.1-0.5,0c-0.3,0.1-0.5,0.1-0.7,0.1
							c-0.2-0.1-0.3-0.3-0.3-0.7c0-0.2-0.2-0.4,0-0.6l0,0l0,0c0.3-0.4,0.8-0.5,1.2-0.5c0.5,0,0.9,0.2,1.3,0.3c1,0.3,1.9,1,2.5,1.8
							c0.6,0.8,1.1,1.7,1.4,2.5c0.7,1.7,1.2,3.4,1.8,5.1c0.7,2.1,1.4,4.1,2.1,6.2C650.6,280.3,650.8,280.9,651,281.4L651,281.4z"/>
					</g>
				</g>
			</g>
			<g>
				<g>
					<g>
						<path class="st1" d="M627.3,278.4c-0.5,0.2-0.9,0.4-1.4,0.6c-1.8,0.7-3.6,1.4-5.4,2.1c-0.1,0-0.2,0.1-0.2,0.2l0,0
							c-1.1,0.4-2.2,0.9-3.2,1.4c-2.5,1.1-4.9,2.2-7.4,3.2c-0.4,0.2-1,0.5-1.3-0.1c-0.3-0.6,0-1.2,0.6-1.5c1.6-0.7,3.3-1.3,4.9-2.2
							c2.3-1.2,4.7-2.2,7.1-3.2c2.2-0.9,4.3-1.7,6.5-2.6c2-0.8,4.1-1.7,6.1-2.3c0.4-0.1,0.7-0.3,0.8-0.4c0.1-0.1,0.2-0.3,0.3-0.5
							c0.1-0.6-0.2-1.4-0.6-2.2c-0.2-0.4-0.4-0.9-0.8-1.3l0,0c0.1-0.3-0.1-0.6-0.2-1c-0.1-0.3-0.1-0.8,0.2-1.1l0,0
							c0.1-0.2,0.2-0.5,0.3-0.7c0.2-0.6,0.6-0.8,0.8-0.8c0.2,0,0.3,0.3,0.4,0.7c0.1,0.2,0.2,0.3,0.2,0.5l0,0l0,0
							c0.1,0.3,0.1,0.4,0,0.6c0,0.2-0.1,0.4-0.1,0.6c0.1,0.6,0.3,1.2,0.6,1.7c0.4,0.7,0.7,1.3,0.9,2.2c0.1,0.4,0.1,0.9,0,1.4
							c-0.1,0.5-0.4,1-0.8,1.4c-0.8,0.7-1.6,0.9-2.3,1.1c-1.7,0.6-3.3,1.1-5,1.8C628.2,278,627.8,278.3,627.3,278.4L627.3,278.4z"/>
					</g>
				</g>
			</g>
			<g>
				<g>
					<g>
						<path class="st1" d="M621,306.2c-0.5,0.7-0.9,1.3-1.4,2c-1.8,2.4-3.6,4.9-5.4,7.3c-0.1,0.1-0.2,0.3-0.2,0.4l0,0
							c-1.1,1.5-2.2,2.9-3.3,4.4c-2.5,3.4-5,6.8-7.7,10.1c-0.4,0.5-1.1,1.4-1.6,1c-0.6-0.4-0.4-1.3,0.3-2.2c1.7-2.2,3.5-4.4,5.1-6.7
							c2.3-3.4,4.8-6.6,7.1-9.9c2.1-2.9,4.3-5.9,6.5-8.8c2-2.8,3.9-5.6,6-8.4c1.8-2.4,3.7-4.6,5.5-7c0.4-0.6,0.9-1.1,1.1-1.8l0,0
							c0.7-0.5,0.8-1.6,1.7-1.9l0,0c0.2-0.2,0.4-0.4,0.5-0.6c0.6-1,1-1.2,1.4-0.4c0.1,0.2,0.3,0.2,0.2,0.5c0,0,0,0,0,0l0,0
							c-0.1,1-0.9,1.6-1.4,2.4c-2.6,3.7-5.3,7.3-8,10.9c-1.6,2.2-3.3,4.4-4.9,6.7C621.9,305,621.5,305.7,621,306.2L621,306.2z"/>
					</g>
				</g>
			</g>
			<g>
				<g>
					<g>
						<path class="st1" d="M623.8,292.7c0.6-0.7,1.2-1.5,1.9-2.2l3.5-3.9c0.5-0.6,1-1.3,1.3-1.9c0.1-0.3,0.2-0.6,0.3-1
							c0-0.1,0-0.2,0-0.2l0,0c0,0,0,0,0,0c0,0,0,0,0,0c0,0,0,0,0,0.1l0,0l-5.8,2.1c-4.8,1.8-9.6,3.6-14.5,5.2
							c-0.8,0.2-2,0.7-2.2,0.1c-0.2-0.7,0.5-1.4,1.8-1.8c3.2-1.1,6.4-2.1,9.5-3.4c2-0.8,3.9-1.6,5.9-2.3l3-1.1l1.5-0.6l0.3-0.1
							c0.1,0,0.2-0.1,0.3-0.1c0.2,0,0.5-0.1,0.7-0.1c0.4,0,0.9,0.2,1.1,0.6c0.2,0.2,0.3,0.5,0.3,0.7c0,0.3,0.1,0.6,0.1,0.9
							c0,0.4-0.1,0.8-0.2,1.2c-0.4,1.3-1.1,2.3-1.9,3.2c-0.8,0.9-1.5,1.7-2.2,2.5c-1.5,1.6-2.9,3.3-4.3,4.9
							c-2.7,3.1-5.2,6.4-7.7,9.7c-2.2,2.8-4.4,5.6-6.5,8.4c-0.5,0.7-1,1.4-1.2,2.2l0,0c-0.8,0.6-0.9,1.9-1.8,2.4l0,0
							c-0.2,0.3-0.4,0.5-0.5,0.8c-0.7,1.3-1.1,1.5-1.5,0.7c-0.1-0.2-0.3-0.2-0.3-0.6l0,0l0,0c0.1-1.1,1-2,1.6-3
							c2.9-4.6,6.2-9.1,9.5-13.4c2.1-2.6,4.2-5.2,6.3-7.8C622.7,294.1,623.2,293.4,623.8,292.7L623.8,292.7z"/>
					</g>
				</g>
			</g>
			<g>
				<g>
					<g>
						<path class="st1" d="M552.8,306c-0.6,0.2-1.2,0.5-1.9,0.7c-2.4,0.7-4.8,1.4-7.2,2.1c-0.1,0-0.3,0.1-0.4,0.2l0,0
							c-0.8,0.2-1.7,0.3-2.7,0.1c-1-0.2-1.9-1.1-2.4-1.9c-0.6-0.9-0.8-1.9-1-2.7l-0.7-2.5c-0.4-1.7-0.8-3.4-1.2-5.1
							c-0.1-0.5-0.4-1.4,0.3-1.6c0.7-0.2,1.2,0.3,1.5,1.2c0.5,2.2,1,4.5,1.7,6.6c0.3,0.8,0.5,1.6,0.8,2.3c0.3,0.7,0.6,1.2,1.1,1.5
							c0.9,0.5,2.6,0,4.1-0.5c2.8-0.8,5.7-1.7,8.5-2.7c2.6-0.9,5.2-2,7.8-3c2.2-0.9,4.5-1.6,6.8-2.5c0.5-0.2,1.1-0.4,1.5-0.9l0,0
							c0.7,0,1.2-0.8,1.9-0.7l0,0c0.2-0.1,0.4-0.1,0.6-0.2c0.8-0.5,1.2-0.4,1.2,0.4c0,0.2,0.2,0.4,0,0.6l0,0l0,0
							c-0.4,0.8-1.3,0.9-1.9,1.2c-3.4,1.6-6.8,3-10.2,4.4l-6.4,2.4C553.9,305.6,553.4,305.9,552.8,306L552.8,306z"/>
					</g>
				</g>
			</g>
			<g>
				<g>
					<g>
						<path class="st1" d="M556.6,309.3c-0.4,0.2-0.9,0.4-1.3,0.5l-5.2,1.7c-0.1,0-0.2,0.1-0.2,0.1l0,0l-3.1,1
							c-0.6,0.2-1.2,0.4-1.7,0.6c-0.5,0.2-0.9,0.5-1.2,0.8c-0.3,0.3-0.4,0.6-0.4,0.9c0,0.4,0.2,0.8,0.4,1.3c0.2,0.3,0.6,0.8,0,1.2
							c-0.6,0.4-1.2,0.4-1.6-0.3c-0.2-0.4-0.5-0.9-0.6-1.4c-0.1-0.5-0.2-1.1,0-1.7c0.3-1.1,1.2-1.8,2-2.4c0.6-0.4,1.2-0.7,1.8-0.9
							l1.7-0.6l3.5-1.2l6.2-2.2c1.9-0.7,3.8-1.5,5.8-2.2c1.7-0.6,3.4-1,5.1-1.5c0.4-0.1,0.8-0.2,1.1-0.6l0,0
							c0.6,0.1,0.9-0.6,1.5-0.3l0,0c0.2,0,0.3-0.1,0.5-0.1c0.7-0.3,0.9-0.2,0.9,0.6c0,0.2,0.1,0.4,0,0.5l0,0l0,0
							c-0.3,0.7-1,0.6-1.5,0.8l-7.7,2.7c-1.6,0.6-3.2,1.1-4.7,1.7C557.4,309,557.1,309.2,556.6,309.3L556.6,309.3z"/>
					</g>
				</g>
			</g>
			<g>
				<g>
					<g>
						<path class="st1" d="M551.1,341.3c0.2,0.6,0.4,1.1,0.6,1.7l1.9,6.5c0,0.1,0.1,0.2,0.2,0.3l0,0l1.2,3.9c0.9,3,1.9,6,2.6,9.1
							c0.1,0.5,0.4,1.3-0.3,1.5c-0.7,0.2-1.2-0.2-1.5-1c-0.5-2-1-4.1-1.7-6c-1.1-2.8-1.8-5.8-2.8-8.6l-2.4-7.8
							c-0.8-2.4-1.7-4.8-2.4-7.3c-0.6-2.1-1.1-4.3-1.7-6.4c-0.1-0.5-0.3-1-0.7-1.4l0,0c0.1-0.7-0.6-1.2-0.4-1.8l0,0
							c0-0.2-0.1-0.4-0.1-0.6c-0.4-0.8-0.2-1.1,0.6-1.1c0.2,0,0.4-0.1,0.6,0.1l0,0l0,0c0.7,0.4,0.7,1.2,0.9,1.9l3,9.6
							c0.6,2,1.2,3.9,1.9,5.9C550.7,340.3,551,340.8,551.1,341.3L551.1,341.3z"/>
					</g>
				</g>
			</g>
			<g>
				<g>
					<g>
						<path class="st1" d="M542.7,385.4c0.1,1.2,0.2,2.4,0.5,3.5c1,4.4,3.9,8.3,7.9,10.6c0.2,0.1,0.4,0.2,0.6,0.3l0,0
							c2.4,1.3,5.1,2,7.9,2c3.2,0,6.3-0.9,9-2.5c2.7-1.7,5-4,6.5-6.8c0.5-0.9,1-2.5,1.7-2.3c0.6,0.2,0.7,1.6-0.2,3.3
							c-2.2,4.1-6,7.3-10.2,9c-1.6,0.6-3.2,1.1-4.9,1.2c-0.8,0.1-1.7,0.1-2.5,0.1c-0.4,0-0.8,0-1.3-0.1l-1.3-0.2
							c-0.4,0-0.8-0.2-1.2-0.3c-0.4-0.1-0.8-0.2-1.2-0.3c-0.8-0.3-1.6-0.6-2.4-1c-1.5-0.7-3-1.7-4.3-2.8c-2.3-2-4.2-4.5-5.3-7.4
							c-1.1-2.8-1.5-5.9-1.3-9c0.6-5.7,3.7-11.2,8.7-14.3c4.2-2.7,9.5-3.4,14.3-2.3c1.1,0.3,2.3,0.7,3.4,0.9l0,0
							c1.1,0.8,2.8,1.1,3.6,2.2l0,0c0.4,0.3,0.7,0.6,1.1,0.9c0.8,0.6,1.2,1.1,1.4,1.4c0.1,0.3-0.1,0.5-0.6,0.5
							c-0.2,0-0.3,0.3-0.7,0.1l0,0l0,0c-1.3-0.5-2.3-1.6-3.5-2.3c-3-1.7-6.5-2.5-9.9-2.2c-3.4,0.2-6.7,1.5-9.4,3.7
							c-3.3,2.6-5.6,6.4-6.2,10.6C542.7,383.1,542.7,384.2,542.7,385.4L542.7,385.4z"/>
					</g>
				</g>
			</g>
			<g>
				<g>
					<g>
						<path class="st1" d="M722.2,438.4c5-1.9,9.8-4.4,14.1-7.5c8.3-5.8,15.2-13.6,19.9-22.5c2.4-4.5,4.2-9.2,5.4-14.1
							c1.2-4.9,1.9-10,1.9-15c0-1-0.1-2.1-0.1-3.1l0,0.1c-0.4-12.2-4.4-24.3-11.5-34.3c-8.1-11.6-20.2-20.4-33.7-24.5
							c-6.8-2.1-13.9-3-20.9-2.8c-7.1,0.2-14.1,1.6-20.7,4.1c-2.1,0.8-4.8,2-7,3.1c-2.2,1.1-3.8,1.9-4,1.6c-0.2-0.6,3.9-4,11.4-6.7
							c18.1-6.6,39-4.7,55.6,4.9c12.2,6.9,21.9,17.8,27.5,30.6c5.7,12.8,6.9,27.4,3.8,41c-2.7,12.2-9.2,23.6-18.1,32.4
							c-9,8.8-20.5,15-32.8,17.5c-11.5,2.3-23.7,1.7-34.9-2.2c-11.2-3.8-21.3-10.7-28.9-19.7c-3.3-3.9-6.1-8.2-8.4-12.7
							c-2.3-4.5-4.1-9.4-5.2-14.3c-2.4-9.9-2.4-20.3-0.1-30.3c1.1-4.7,2.8-9.5,4.5-13.7l0,0.1c2.6-4.9,5.6-10.7,9.5-14.5l0,0
							c0.6-0.7,1.3-1.4,1.9-2.1c0.6-0.7,1.3-1.3,1.9-2c0.4-0.4,0.7-0.7,1-1.1c0.4-0.3,0.7-0.6,1-0.9c0.6-0.6,1.2-1.1,1.7-1.5
							c1.1-0.8,1.8-1.4,2.4-1.7c1.1-0.7,1.1-0.4,0.3,0.8c-0.4,0.5,0.3,0.3-1.2,1.6c0,0-0.1,0.1-0.1,0.1l0.1,0
							c-4,3.9-8.7,8.8-12.1,13.9c-8.5,12.6-12.1,28.2-10.3,43.2c1.7,15,9.1,29.3,20.2,39.5c6.8,6.3,15,11.1,23.8,13.9
							c8.8,2.9,18.3,3.7,27.4,2.5C712.5,441.4,717.5,440.1,722.2,438.4L722.2,438.4z"/>
					</g>
				</g>
			</g>
			<g>
				<g>
					<g>
						<path class="st1" d="M720.8,434.5c4.7-1.8,9.1-4.2,13.2-7.1c7.8-5.4,14.2-12.7,18.6-21.1c2.2-4.2,3.9-8.6,5.1-13.2
							c1.1-4.6,1.8-9.3,1.8-14.1c0-1-0.1-1.9-0.1-2.9l0,0.1c-0.4-11.4-4.1-22.8-10.7-32.1c-7.6-10.9-18.9-19.1-31.6-22.9
							c-6.3-1.9-13-2.8-19.6-2.6c-6.6,0.2-13.2,1.5-19.4,3.9c-1.9,0.7-4.5,1.9-6.5,2.9c-2,1-3.6,1.8-3.7,1.4
							c-0.2-0.6,3.6-3.8,10.6-6.4c17-6.2,36.6-4.4,52.1,4.6c11.4,6.4,20.6,16.7,25.8,28.7c5.3,12,6.5,25.7,3.6,38.5
							c-2.6,11.5-8.6,22.2-17,30.4c-8.4,8.3-19.2,14-30.7,16.4c-10.8,2.2-22.3,1.6-32.8-2c-10.5-3.6-20-10-27.1-18.5
							c-3.1-3.6-5.7-7.7-7.9-11.9c-2.2-4.3-3.8-8.8-4.9-13.4c-2.2-9.3-2.2-19.1-0.1-28.4c1-4.4,2.6-8.9,4.2-12.8l0,0.1
							c2.5-4.5,5.3-10,9-13.6l0,0c0.6-0.6,1.2-1.3,1.8-2c0.6-0.7,1.2-1.2,1.8-1.9c0.3-0.4,0.7-0.7,1-1c0.3-0.3,0.6-0.6,0.9-0.9
							c0.6-0.5,1.1-1,1.6-1.4c1-0.8,1.7-1.3,2.2-1.6c1-0.6,1-0.3,0.3,0.8c-0.3,0.5,0.3,0.3-1.1,1.5c0,0-0.1,0.1-0.1,0.1l0,0
							c-3.7,3.7-8.1,8.2-11.4,13c-7.9,11.8-11.4,26.4-9.6,40.5c1.6,14.1,8.5,27.4,18.9,37c6.4,5.9,14.1,10.4,22.3,13
							c8.3,2.7,17.1,3.4,25.7,2.4C711.7,437.4,716.3,436.2,720.8,434.5L720.8,434.5z"/>
					</g>
				</g>
			</g>
			<g>
				<g>
					<g>
						<path class="st1" d="M708.2,389.7c0.9-0.7,1.6-1.5,2.3-2.3c2.6-3.2,3.7-7.5,3-11.5c0-0.2-0.1-0.4-0.2-0.6l0,0
							c-0.2-1.2-0.7-2.4-1.3-3.5c-0.6-1.1-1.3-2.1-2.2-3c-1-1-2.1-1.9-3.4-2.6c-1.3-0.7-2.6-1.2-4-1.5c-0.7-0.1-1.4-0.2-2.1-0.3
							c-0.7-0.1-1.4,0-2.2,0c-1.4,0.1-2.9,0.5-4.2,1c-0.9,0.3-2.2,1.1-2.5,0.6c-0.4-0.6,0.3-1.6,2-2.3c4-1.6,8.6-1.5,12.6,0.1
							c1.5,0.6,2.8,1.4,4,2.4c1.2,1,2.2,2.2,3.1,3.5c1.7,2.6,2.6,5.8,2.6,8.9c0,5.7-3.3,11.2-8.2,13.9c-2.3,1.3-5,2-7.6,2.1
							c-2.7,0.1-5.4-0.6-7.7-1.8c-4.1-2.1-7.1-6.3-8-10.7c-0.2-1.1-0.3-2.2-0.6-3.2l0,0c0.2-1.2-0.2-2.8,0.5-3.9l0,0
							c0.1-0.4,0.3-0.8,0.3-1.2c0.5-1.8,1-2.1,1.4-1.3c0.1,0.2,0.4,0.1,0.3,0.6l0,0l0,0c0.1,1.2-0.5,2.5-0.6,3.8
							c-0.3,3.1,0.4,6.3,2.1,8.9c0.8,1.3,1.8,2.5,3,3.5c1.2,1,2.6,1.8,4,2.3c3.5,1.4,7.7,1.3,11.1-0.4c0.5-0.2,0.9-0.5,1.3-0.8
							l0.7-0.4C707.8,390,708,389.8,708.2,389.7L708.2,389.7z"/>
					</g>
				</g>
			</g>
			<g>
				<g>
					<g>
						<path class="st1" d="M422,414.7c2.2,3.1,4.7,6.1,7.4,8.8c5.1,5.1,11.1,9.4,17.7,12.6c6.5,3.1,13.6,5.1,20.8,5.9
							c0.7,0.1,1.5,0.1,2.2,0.1l-0.1,0c8.8,0.6,17.6-0.5,25.9-3.5c0.6-0.2,1.2-0.4,1.8-0.6l1.7-0.8c1.2-0.5,2.3-1,3.5-1.5
							c2.2-1.3,4.5-2.3,6.6-3.8c4.3-2.7,8.1-6.1,11.7-9.7l2.5-2.8l0.6-0.7l0.6-0.8l1.1-1.5l1.1-1.5c0.2-0.3,0.4-0.5,0.6-0.8l0.5-0.8
							l2-3.2c2.4-4.4,4.6-9.1,6-14c0.2-0.8,0.5-1.7,0.8-2.6c0.2-0.9,0.4-1.9,0.6-2.7c0.4-1.7,0.8-3,1.2-2.9c0.3,0.1,0.4,1.1,0.3,2.7
							c-0.1,0.8-0.2,1.8-0.4,3c-0.2,1.1-0.6,2.4-1,3.7c-4,13.2-12.3,25.1-23.2,33.4c-0.5,0.4-1,0.8-1.5,1.2l-1.6,1.1
							c-1,0.7-2.1,1.4-3.1,2.1l-3.3,1.8l-1.6,0.9l-1.7,0.8l-3.4,1.5c-1.2,0.4-2.4,0.8-3.6,1.2c-2.3,0.9-4.8,1.3-7.3,1.9
							c-9.8,1.9-20.1,1.6-29.8-0.9c-8.7-2.3-16.9-6.4-24-12c-7.1-5.6-13-12.6-17.2-20.6c-4-7.4-6.6-15.7-7.5-24.1
							c-0.5-4.2-0.5-8.5-0.1-12.7c0.3-4.2,1.2-8.4,2.3-12.5c4.1-14.1,13.2-26.5,25-35c2.8-2.1,5.9-3.9,8.7-5.6l-0.1,0
							c0.9-0.4,1.9-0.8,2.8-1.2c1-0.4,1.9-1,2.9-1.3c1-0.4,2-0.8,3-1.1c0.5-0.2,1-0.3,1.5-0.5c0.5-0.1,1-0.2,1.5-0.3l0,0
							c1.3-0.3,2.6-0.7,3.9-1c5.9-1.2,7.5-1.2,5.6-0.1c-0.4,0.2,0.1,0.4-1.3,0.7l-0.1,0l0,0c-1,0.3-2,0.6-3,0.8
							c-1.1,0.3-2.1,0.6-3.2,0.9c-1.1,0.3-2.2,0.5-3.3,0.9c-1.1,0.4-2.1,0.8-3.2,1.1c-0.6,0.2-1.3,0.4-1.9,0.7l-1.8,0.9l-1.8,0.9
							c-0.6,0.3-1.2,0.6-1.8,0.9l-3.5,2.1c-0.6,0.3-1.1,0.7-1.7,1.1l-1.7,1.2l-1.7,1.2c-0.6,0.4-1,0.9-1.6,1.3l-3.1,2.6
							c-1.9,1.9-3.9,3.8-5.6,5.9l-1.3,1.6l-0.7,0.8l-0.6,0.8l-2.3,3.3c-0.8,1.1-1.4,2.3-2.1,3.5l-1,1.8l-0.9,1.8
							c-2.5,4.8-4,10.1-5.2,15.4c-2.6,13-0.9,26.9,4.8,38.9C418.1,408.6,420,411.7,422,414.7L422,414.7z"/>
					</g>
				</g>
			</g>
			<g>
				<g>
					<g>
						<path class="st1" d="M497.7,318.8c-0.6-0.2-1.3-0.4-1.9-0.6c-2.4-0.8-4.9-1.6-7.4-2.1c-0.1,0-0.3,0-0.4,0l0,0
							c-1.5-0.4-3-0.6-4.6-0.8c-3.5-0.5-7.1-0.6-10.7-0.7c-0.6,0-1.5,0-1.5-0.7c0-0.7,0.6-1.1,1.6-1.1l1.8,0l1.8,0.1
							c1.2,0,2.4,0.1,3.6,0.2c3.5,0.1,7,0.8,10.5,1.6c3.1,0.7,6.1,1.8,9.1,2.9c2.8,1.1,5.5,2.3,8.1,3.8c2.3,1.3,4.3,2.9,6.3,4.4
							c0.5,0.4,1,0.8,1.6,1l0,0c0.4,0.7,1.4,0.7,1.6,1.5l0,0c0.2,0.2,0.3,0.4,0.5,0.5c0.9,0.6,0.9,1,0.1,1.3
							c-0.2,0.1-0.3,0.3-0.5,0.2l0,0l0,0c-0.9-0.1-1.4-0.8-2-1.3c-3-2.4-6.2-4.5-9.5-6.4c-2.1-1.1-4.2-2.2-6.4-3
							C498.9,319.2,498.2,319.1,497.7,318.8L497.7,318.8z"/>
					</g>
				</g>
			</g>
			<g>
				<g>
					<g>
						<path class="st1" d="M533.8,354c-0.3-0.6-0.5-1.1-0.8-1.7c-1-2.1-2-4.2-3.1-6.1c-0.1-0.1-0.2-0.2-0.2-0.3l0,0
							c-0.7-1.2-1.4-2.4-2.2-3.5c-1.8-2.6-3.9-5.1-5.9-7.6c-0.3-0.4-0.9-1-0.4-1.5c0.5-0.5,1.2-0.3,1.8,0.3c1.5,1.6,2.7,3.4,4.1,5.1
							c2.1,2.4,3.7,5.2,5.3,7.9c1.4,2.5,2.6,5.1,3.7,7.7c1,2.5,2,5,2.7,7.6c0.3,1.1,0.5,2.3,0.7,3.4c0.1,1.2,0.3,2.3,0.4,3.4
							c0.1,0.5,0.1,1.1,0.4,1.6l0,0c-0.2,0.7,0.4,1.3,0,2l0,0c0,0.2,0,0.4,0,0.6c0.2,0.9,0,1.2-0.8,0.9c-0.2-0.1-0.4,0-0.5-0.2l0,0
							l0,0c-0.6-0.6-0.4-1.4-0.5-2.1c-0.4-3.4-1.1-6.8-2-10.1c-0.3-1-0.6-2-0.9-3c-0.3-1-0.7-2-1.1-3
							C534.2,355,533.9,354.5,533.8,354L533.8,354z"/>
					</g>
				</g>
			</g>
			<g>
				<g>
					<g>
						<path class="st1" d="M460.7,380.1c0.1,0.5,0.2,0.9,0.3,1.4c0.1,0.5,0.2,0.9,0.4,1.4c1.1,3.4,3.5,6.3,6.6,8.1
							c0.2,0.1,0.3,0.1,0.5,0.2l0,0c1.9,1,4.1,1.5,6.2,1.5c2.5,0,5-0.7,7.1-1.9c2.2-1.3,4-3.1,5.3-5.2c0.4-0.7,0.9-1.9,1.6-1.7
							c0.6,0.3,0.7,1.4-0.1,2.7c-1.9,3.2-5,5.6-8.5,7c-5.1,2.1-11.2,1-15.4-2.4c-3.9-3-6.2-7.9-6.1-12.8c0-1.2,0.2-2.3,0.5-3.4
							c0.1-0.6,0.3-1.1,0.4-1.6c0.2-0.5,0.3-1,0.5-1.6c0.9-2.3,2.5-4.1,4.2-5.6c3.1-2.6,7.2-3.8,11.1-3.5c0.9,0.1,1.9,0.2,2.8,0.2
							l0,0c1,0.5,2.4,0.4,3.2,1.3l0,0c0.3,0.2,0.6,0.4,1,0.5c1.5,0.7,1.7,1.2,0.8,1.5c-0.2,0.1-0.2,0.3-0.6,0.2l0,0l0,0
							c-1.1-0.1-2.1-0.8-3.1-1.2c-2.6-0.9-5.4-1-8-0.4c-2.6,0.6-5,2-7,3.9c-1.2,1.2-2.2,2.5-2.7,4c-0.5,1.6-1,3.3-1.2,4.9
							C460.5,378.3,460.7,379.2,460.7,380.1L460.7,380.1z"/>
					</g>
				</g>
			</g>
			<g>
				<g>
					<g>
						<path class="st1" d="M487.4,372.4c0,0-0.1-0.1-0.1-0.1l-0.3-0.6c0,0,0,0-0.1,0l0,0c-0.1-0.1-0.1-0.3-0.2-0.4
							c-0.2-0.3-0.3-0.5-0.4-0.9c0-0.1,0-0.1,0.5-0.5c0.6-0.4,1-0.6,1-0.5c0.1,0.2,0.1,0.5,0.3,0.7c0.3,0.2,0.4,0.6,0.6,0.8
							c0.2,0.3,0.3,0.6,0.5,0.8c0.2,0.3,0.4,0.5,0.5,0.7c0.1,0.2,0,0.5,0,0.8c0,0.1,0,0.1,0.3,0.1l0,0c-0.3,0.2,0.3,0.1-0.1,0.3l0,0
							c0,0,0,0.1,0,0.1c0.1,0.1-0.1,0.2-0.8,0.4c-0.2,0-0.4,0.1-0.5,0.1l0,0l0,0c-0.5,0.1-0.3-0.1-0.3-0.1c-0.1-0.3-0.3-0.6-0.4-0.9
							c-0.1-0.2-0.1-0.4-0.3-0.5C487.5,372.5,487.4,372.5,487.4,372.4L487.4,372.4z"/>
					</g>
				</g>
			</g>
			<g>
				<g>
					<g>
						<path class="st1" d="M672,341.9c0.5,1.1,1.1,2.1,1.6,3.2c1.9,4,3.8,8.1,6.1,11.9c0.1,0.2,0.3,0.4,0.4,0.5l0,0
							c1.4,2.3,2.9,4.4,4.7,6.4c2,2.3,4.4,4.2,6.8,6.2c2.4,2,4.8,4,7.2,5.9c0.2,0.1,0.4,0.3,0.6,0.5c0.1,0.1,0.3,0.2,0.3,0.2
							c0,0,0.1,0.1,0.2,0.1c0.1,0,0.1,0.1,0.1,0.1l0,0l0,0.1c0,0,0,0.1,0,0.1c0,0.1,0,0.1,0.1,0.1c0,0,0,0-0.1,0c0,0,0.1,0,0.2,0
							c0.2,0,0.3,0.2,0.3,0.4c-0.1,0.3-0.5,0.5-0.9,0.5c-0.2,0-0.4,0-0.6-0.1c-0.1,0-0.2-0.1-0.3-0.1c-0.1,0-0.2-0.1-0.2-0.1
							c-0.3-0.2-0.6-0.4-1-0.6c-3.3-2.5-6.4-5.3-9.7-7.9c-2.4-1.9-4.6-4-6.5-6.5c-1.9-2.4-3.5-5-5-7.7c-2.6-4.8-4.8-9.7-7.2-14.6
							c-2.1-4.6-4.3-9.2-6.3-13.9c-1.7-4-3.2-8.2-4.7-12.3c-0.4-1-0.7-2-1.3-2.8l0,0c-0.1-1.2-1.2-2.3-1.1-3.6l0,0
							c-0.1-0.4-0.2-0.8-0.4-1.1c-0.7-1.7-0.7-2.2,0.3-1.9c0.2,0.1,0.4-0.2,0.6,0.2l0,0l0,0c0.9,1,1.2,2.5,1.7,3.7
							c2.4,6.2,4.9,12.4,7.5,18.6c1.6,3.8,3.2,7.5,5,11.2C671,339.9,671.6,340.8,672,341.9L672,341.9z"/>
					</g>
				</g>
			</g>
			<g>
				<g>
					<g>
						<path class="st1" d="M645.2,292.3c0.1,0.2,0.3,0.4,0.4,0.7c0.4,0.9,0.9,1.8,1.3,2.8c0,0,0.1,0.1,0.1,0.1l0,0l0.7,1.7
							c0.6,1.3,1.1,2.6,1.4,4c0,0.2,0.2,0.6-0.5,0.8c-0.7,0.2-1.1,0.1-1.2-0.2c-0.2-0.9-0.4-1.8-0.9-2.6c-0.7-1.2-1.1-2.4-1.7-3.6
							c-0.5-1.1-1-2.2-1.6-3.2c-0.5-1-1.2-1.9-1.7-2.9c-0.5-0.9-0.7-1.8-1.2-2.4c-0.1-0.2-0.2-0.3-0.5-0.2l0,0
							c0-0.2-0.1-0.2-0.2-0.2c-0.1,0-0.2,0-0.2-0.2v0c0,0-0.1-0.1-0.1-0.1c-0.2,0.1-0.3-0.2-0.2-0.9c0-0.2,0-0.4,0.1-0.5l0,0l0,0
							c0.4-0.5,0.9-0.1,1.2,0.1c0.9,0.5,1.4,1.2,1.9,1.9c0.4,0.7,0.8,1.4,1.1,2c0.4,0.8,0.8,1.6,1.3,2.4
							C645,291.8,645.2,292,645.2,292.3L645.2,292.3z"/>
					</g>
				</g>
			</g>
			<g>
				<g>
					<g>
						<path class="st1" d="M531.2,302.2c0.1,0.2,0.2,0.4,0.3,0.7c0.3,0.9,0.5,1.8,0.7,2.7c0,0,0.1,0.1,0.1,0.1l0,0l0.3,1.6
							c0.3,1.3,0.5,2.5,0.4,3.8c0,0.2,0,0.5-0.7,0.6c-0.7,0.1-1.1-0.1-1.1-0.5c0-0.8,0-1.6-0.2-2.4c-0.4-1.1-0.5-2.3-0.9-3.4
							c-0.3-1-0.6-2-1-3c-0.4-0.9-0.9-1.8-1.3-2.7c-0.2-0.4-0.3-0.8-0.5-1.2c-0.1-0.4-0.3-0.9-0.4-1.5c0-0.3,0-0.6-0.2-1l0,0
							c0.2-0.2,0.2-0.4,0.3-0.6c0.1-0.2,0.2-0.5,0.6-0.4l0,0c0.1-0.1,0.3-0.1,0.4-0.2c0.3-0.2,0.5-0.2,0.6-0.1
							c0.1,0.1,0.1,0.4,0.1,0.8c0,0.2,0.1,0.4,0.1,0.5l0,0l0,0c0.1,0.5,0,0.3-0.1,0.4c-0.1,0.1-0.1,0.2,0,0.4c0,0.2,0.1,0.4,0.3,0.7
							c0.3,0.6,0.6,1.2,0.9,1.8c0.3,0.8,0.6,1.6,1,2.3C531,301.8,531.2,302,531.2,302.2L531.2,302.2z"/>
					</g>
				</g>
			</g>
			<g>
				<g>
					<g>
						<path class="st1" d="M508.5,345c-0.7,0.8-1.5,1.7-2.2,2.5c-2.9,3.1-5.8,6.1-8.8,9.2c-0.1,0.2-0.3,0.3-0.4,0.5l0,0l-5.4,5.5
							c-4.1,4.3-8.3,8.5-12.7,12.5c-0.7,0.6-1.8,1.7-2.3,1.2c-0.5-0.5,0-1.6,1.2-2.7c2.8-2.7,5.7-5.3,8.3-8.2
							c3.9-4.2,7.9-8.2,11.8-12.3c3.5-3.7,7-7.4,10.4-11.2c3.2-3.6,6.3-7.2,9.5-10.7c2.8-3,5.7-6,8.5-9c0.7-0.7,1.4-1.4,1.8-2.3l0,0
							c1-0.6,1.4-2,2.5-2.5l0,0c0.3-0.3,0.6-0.5,0.8-0.8c1.1-1.3,1.5-1.5,1.7-0.6c0,0.2,0.3,0.2,0.1,0.6l0,0l0,0
							c-0.4,1.2-1.5,2.1-2.4,3l-12.7,14c-2.6,2.9-5.2,5.7-7.8,8.6C509.9,343.4,509.3,344.2,508.5,345L508.5,345z"/>
					</g>
				</g>
			</g>
			<g>
				<g>
					<g>
						<path class="st1" d="M507.2,375.9c0.8,0,1.5,0,2.3,0l8.7,0.3c0.1,0,0.3,0,0.4,0l0,0l5.3,0.2c4.1,0.1,8.1,0.2,12.1,0.6
							c0.6,0.1,1.7,0.1,1.7,0.8c0,0.7-0.8,1.1-1.9,1c-2.7-0.1-5.3-0.4-8-0.3c-3.9,0.1-7.8-0.1-11.6-0.2l-10.4-0.3
							c-3.3-0.1-6.5,0-9.8-0.1c-2.8-0.1-5.6-0.3-8.5-0.5c-0.7,0-1.4-0.1-2,0.1l0,0c-0.8-0.3-1.7,0.2-2.4-0.3l0,0
							c-0.3,0-0.5-0.1-0.8-0.1c-1.2,0.1-1.5-0.2-1.1-0.9c0.1-0.2,0-0.4,0.3-0.5l0,0l0,0c0.8-0.5,1.8-0.2,2.6-0.2l12.9,0.3
							c2.6,0.1,5.3,0.2,7.9,0.2C505.7,375.9,506.5,375.8,507.2,375.9L507.2,375.9z"/>
					</g>
				</g>
			</g>
			<g>
				<g>
					<g>
						<path class="st1" d="M506.5,381.6c0.8,0,1.6,0.1,2.5,0.1c3.1,0.2,6.2,0.5,9.2,0.8c0.2,0,0.3,0,0.5,0l0,0
							c1.9,0.2,3.7,0.3,5.6,0.5c4.3,0.3,8.6,0.7,12.9,1.2c0.7,0.1,1.8,0.2,1.7,0.9c-0.1,0.7-0.9,1.1-2,0.9c-2.8-0.3-5.7-0.7-8.5-0.8
							c-4.1-0.1-8.3-0.6-12.4-0.8c-3.7-0.3-7.4-0.6-11.1-0.8c-3.5-0.2-7-0.4-10.5-0.6c-3-0.2-6-0.6-9-0.9c-0.7-0.1-1.5-0.2-2.1,0
							l0,0c-0.8-0.4-1.8,0.1-2.5-0.4l0,0c-0.3,0-0.6-0.1-0.8-0.1c-1.2,0-1.5-0.3-1.1-1c0.1-0.2,0-0.4,0.3-0.5c0,0,0,0,0,0l0,0
							c0.9-0.5,1.9-0.1,2.8-0.1c4.6,0.3,9.2,0.7,13.8,1c2.8,0.2,5.6,0.5,8.5,0.6C504.9,381.5,505.7,381.5,506.5,381.6L506.5,381.6z"
							/>
					</g>
				</g>
			</g>
			<g>
				<g>
					<g>
						<path class="st1" d="M522.1,301.9c-0.2,0-0.5,0-0.7,0c-0.9,0-1.7-0.1-2.6-0.1c0,0-0.1,0-0.1,0.1l0,0c-0.5,0-1.1,0-1.6,0
							c-1.2,0-2.4,0.1-3.7,0c-0.2,0-0.5,0-0.6-0.7c0-0.7,0.1-1.1,0.5-1.1c0.8,0,1.7,0.1,2.5,0c1.2-0.2,2.4-0.1,3.6-0.2
							c1.1,0,2.2,0.1,3.2,0.1c1,0,2-0.1,3,0c0.9,0.1,1.7,0.4,2.6,0.5c0.2,0,0.4,0.1,0.6-0.1l0,0c0.2,0.3,0.5-0.2,0.7,0.3l0,0
							c0.1,0,0.2,0.1,0.2,0.1c0.4-0.1,0.4,0.2,0.2,0.9c-0.1,0.2-0.1,0.4-0.2,0.5l0,0l0,0c-0.3,0.5-0.6,0.2-0.8,0.2
							c-1.3-0.1-2.6-0.3-3.9-0.4c-0.8-0.1-1.6-0.1-2.4-0.1C522.6,301.9,522.3,302,522.1,301.9L522.1,301.9z"/>
					</g>
				</g>
			</g>
			<g>
				<g>
					<g>
						<path class="st1" d="M511.5,302.5l0-3.2l0-1.5c0,0,0,0,0,0l0,0l-0.2,0l-26.7,0c-0.5,0-0.9,0-1.4,0.1l0,0l-16.1,0
							c-11.5,0-23,0-34.3-0.1c-0.1,0-0.2,0-0.2,0.1c0,0,0,0,0,0.1l0,0.4l0,0.7c0,1,0,2.3-0.1,3.3l0,0.2c0,0.1,0,0,0,0.1
							c0,0,0,0.1,0,0.1c0,0.1,0,0.2,0.1,0.2c0.1,0.2,0.2,0.3,0.2,0.4c0,0.2-0.2,0.4-0.5,0.4c-0.3,0-1-0.3-1.1-1.1
							c-0.2-1-0.3-2.4-0.3-4.1l0-0.6c0-0.3,0-0.7,0.2-1c0.3-0.7,1-1.1,1.7-1.1c7.5,0.1,14.8,0.2,22.2,0.1
							c11.9-0.2,23.8-0.1,35.8-0.1l14.5,0l3.6,0l1.8,0l0.9,0c0.6,0,1.1,0.2,1.5,0.6c0.4,0.4,0.6,1,0.5,1.5l0,0.9l0,1.8l0,1.8
							c0,0.5-0.1,1.1-0.5,1.5c-0.4,0.4-0.9,0.6-1.5,0.6l-3.1,0c-10.1,0-20.1,0.2-30.1,0.2c-8.7,0-17.3-0.2-26-0.2
							c-2,0-4.2-0.1-6.1,0.2l0,0c-2.4-0.3-5.1,0.3-7.4-0.2l0,0c-0.8,0-1.6-0.1-2.4,0c-3.6,0.1-4.5-0.1-3.3-0.9
							c0.3-0.2,0-0.4,0.8-0.5l0.1,0l0,0c2.4-0.5,5.4-0.3,8.1-0.3c13.2,0,26.5-0.1,39.7-0.1c8.1,0,16.3,0,24.4-0.1
							C507.9,302.6,509.7,302.6,511.5,302.5C511.4,302.6,511.5,302.6,511.5,302.5L511.5,302.5z"/>
					</g>
				</g>
			</g>
			<g>
				<g>
					<g>
						<path class="st1" d="M472,337.6c0.1,1,0.2,2,0.3,3c0.3,3.8,0.6,7.6,0.9,11.3c0,0.2,0.1,0.4,0.1,0.6l0,0
							c0.2,2.3,0.4,4.6,0.6,6.9c0.5,5.3,0.9,10.6,1.2,15.9c0,0.8,0.2,2.2-0.5,2.3c-0.7,0-1.2-0.9-1.3-2.3c-0.2-3.5-0.4-7-0.8-10.4
							c-0.6-5-0.9-10.1-1.4-15.2c-0.4-4.5-0.8-9.1-1.2-13.6c-0.4-4.3-0.9-8.5-1.3-12.8c-0.3-3.7-0.5-7.4-0.7-11.1
							c-0.1-0.9-0.1-1.8-0.4-2.6l0,0c0.2-1-0.5-2.1-0.1-3.2l0,0c0-0.3,0-0.7-0.1-1c-0.2-1.5,0-1.9,0.8-1.5c0.2,0.1,0.4-0.1,0.5,0.3
							c0,0,0,0,0,0l0,0c0.6,1,0.5,2.3,0.6,3.4c0.5,5.6,1,11.2,1.5,16.9c0.3,3.4,0.6,6.9,1,10.3C471.8,335.7,472,336.6,472,337.6
							L472,337.6z"/>
					</g>
				</g>
			</g>
			<g>
				<g>
					<g>
						<path class="st1" d="M425.5,412.4c2.1,2.9,4.4,5.7,6.9,8.2c4.8,4.8,10.4,8.8,16.5,11.7c6.1,2.9,12.7,4.8,19.5,5.5
							c0.7,0.1,1.4,0.1,2.1,0.1l-0.1,0c8.2,0.5,16.5-0.5,24.2-3.2c0.6-0.2,1.1-0.3,1.7-0.6l1.6-0.7c1.1-0.5,2.2-0.9,3.2-1.4
							c2.1-1.2,4.2-2.2,6.1-3.6c4-2.5,7.6-5.7,10.9-9.1l2.4-2.7l0.6-0.7l0.5-0.7l1.1-1.4c1.5-1.9,2.7-3.9,3.9-5.9
							c2.3-4.1,4.3-8.5,5.6-13.1c0.2-0.7,0.5-1.5,0.7-2.4c0.2-0.9,0.4-1.8,0.6-2.5c0.4-1.6,0.8-2.8,1.1-2.7c0.3,0.1,0.4,1,0.3,2.6
							c-0.1,0.8-0.2,1.7-0.3,2.8c-0.2,1.1-0.6,2.2-0.9,3.5c-3.7,12.4-11.5,23.4-21.7,31.2c-0.5,0.4-0.9,0.8-1.4,1.1l-1.5,1
							c-1,0.6-1.9,1.3-2.9,2l-3.1,1.7l-1.5,0.8l-1.6,0.7l-3.2,1.4c-1.1,0.4-2.2,0.8-3.3,1.1c-2.2,0.8-4.5,1.2-6.8,1.8
							c-9.2,1.8-18.8,1.5-27.9-0.9c-8.2-2.1-15.8-6-22.4-11.3c-6.6-5.2-12.2-11.8-16.1-19.2c-3.8-7-6.2-14.7-7.1-22.6
							c-0.4-3.9-0.5-7.9-0.1-11.9c0.3-4,1.1-7.9,2.2-11.7c3.9-13.2,12.4-24.8,23.5-32.7c2.6-1.9,5.5-3.6,8.1-5.3l-0.1,0
							c0.9-0.3,1.8-0.7,2.6-1.2c0.9-0.4,1.8-0.9,2.7-1.3c0.9-0.4,1.9-0.7,2.8-1.1c0.5-0.2,0.9-0.3,1.4-0.4c0.5-0.1,0.9-0.2,1.4-0.2
							l0,0c1.2-0.3,2.5-0.6,3.6-1c5.5-1.2,7-1.1,5.3,0c-0.4,0.2,0.1,0.4-1.2,0.7l-0.1,0l0,0c-0.9,0.3-1.8,0.5-2.8,0.8
							c-1,0.2-2,0.6-3,0.8c-1,0.3-2.1,0.5-3.1,0.9c-1,0.4-2,0.7-3,1.1c-0.6,0.2-1.2,0.4-1.8,0.7l-1.7,0.8l-1.7,0.8
							c-0.6,0.3-1.2,0.5-1.7,0.9l-3.3,1.9c-0.6,0.3-1.1,0.7-1.6,1l-1.5,1.1l-1.5,1.1c-0.5,0.4-1,0.8-1.5,1.2l-2.9,2.5
							c-1.8,1.8-3.7,3.5-5.2,5.5l-1.2,1.5l-0.6,0.7l-0.5,0.8l-2.2,3.1c-0.7,1.1-1.3,2.2-1.9,3.3l-1,1.6l-0.8,1.7
							c-2.3,4.5-3.8,9.4-4.8,14.4c-2.4,12.2-0.8,25.2,4.5,36.4C421.8,406.6,423.6,409.5,425.5,412.4L425.5,412.4z"/>
					</g>
				</g>
			</g>
			<g>
				<g>
					<g>
						<path class="st1" d="M496.2,322.7c-0.6-0.2-1.2-0.4-1.8-0.6c-2.3-0.8-4.5-1.5-6.9-2c-0.1,0-0.2,0-0.4,0l0,0
							c-1.4-0.3-2.8-0.6-4.3-0.8c-3.3-0.4-6.7-0.6-10-0.7c-0.5,0-1.4,0-1.4-0.7c0-0.7,0.6-1.1,1.5-1.1l1.7,0l1.7,0.1
							c1.1,0,2.3,0.1,3.4,0.2c3.3,0.1,6.6,0.7,9.8,1.5c2.9,0.7,5.7,1.7,8.5,2.7c2.6,1,5.2,2.1,7.6,3.5c2.1,1.2,4,2.7,5.9,4.2
							c0.4,0.4,0.9,0.8,1.5,0.9l0,0c0.3,0.6,1.3,0.7,1.5,1.4l0,0c0.2,0.2,0.3,0.3,0.5,0.5c0.8,0.6,0.9,0.9,0.1,1.3
							c-0.2,0.1-0.3,0.3-0.5,0.2l0,0l0,0c-0.8,0-1.3-0.7-1.8-1.2c-2.8-2.2-5.8-4.2-8.9-5.9c-1.9-1-3.9-2-5.9-2.8
							C497.3,323.1,496.7,323,496.2,322.7L496.2,322.7z"/>
					</g>
				</g>
			</g>
			<g>
				<g>
					<g>
						<path class="st1" d="M529.9,355.6c-0.2-0.5-0.5-1-0.7-1.5c-0.9-2-1.8-3.9-2.9-5.7c-0.1-0.1-0.1-0.2-0.2-0.3l0,0
							c-0.6-1.1-1.4-2.2-2.1-3.3c-1.7-2.5-3.6-4.8-5.5-7.2c-0.3-0.4-0.8-1-0.3-1.4c0.5-0.5,1.2-0.4,1.7,0.3c1.4,1.5,2.5,3.2,3.9,4.8
							c1.9,2.3,3.5,4.8,5,7.4c1.3,2.3,2.4,4.8,3.5,7.2c1,2.3,1.9,4.7,2.5,7.1c0.3,1.1,0.5,2.1,0.6,3.2c0.1,1.1,0.3,2.1,0.4,3.2
							c0.1,0.5,0.1,1,0.4,1.5l0,0c-0.2,0.6,0.4,1.2,0,1.9l0,0c0,0.2,0,0.4,0,0.6c0.2,0.9,0,1.1-0.8,0.9c-0.2-0.1-0.4,0-0.5-0.2l0,0
							l0,0c-0.6-0.5-0.4-1.3-0.5-1.9c-0.4-3.2-1-6.4-1.9-9.4c-0.3-1-0.5-1.9-0.9-2.8c-0.3-0.9-0.7-1.9-1-2.8
							C530.3,356.6,530,356.1,529.9,355.6L529.9,355.6z"/>
					</g>
				</g>
			</g>
			<g>
				<g>
					<g>
						<path class="st1" d="M572.3,120.4c0,0.1-0.1,0.2-0.2,0.3c-0.3,0.3-0.8,0.5-1.5,0.4c0,0-0.1,0-0.1,0l0,0
							c-0.4-0.1-0.7-0.5-0.8-0.7c-0.2-0.3-0.2-0.7-0.1-1c0.1-0.3,0.3-0.7,0.7-0.8c0.1-0.1,0.3-0.1,0.5,0.5c0.1,0.2,0.1,0.3,0.2,0.4
							c0,0.1,0,0,0,0c0,0,0,0,0,0c0,0,0.2,0.1,0.2,0.1c0,0-0.1,0-0.1,0.1c0,0,0,0,0,0c0,0,0-0.1-0.1-0.1c0,0,0,0,0,0
							c0.1,0,0.1,0,0.1,0.1c-0.1,0.1,0,0.2-0.1,0.1c0,0,0,0,0-0.1l0,0c0,0,0,0,0,0c0,0,0,0,0,0l0,0c-0.1,0-0.2-0.1-0.3-0.2
							c-0.1-0.1-0.3-0.2-0.4-0.3l0,0l0,0c-0.4-0.4,0-0.4,0.1-0.5c0.5-0.4,1.1-0.4,1.7,0.1c0.3,0.3,0.4,0.9,0.4,1.3
							C572.4,120.2,572.5,120.4,572.3,120.4L572.3,120.4z"/>
					</g>
				</g>
			</g>
			<g>
				<g>
					<g>
						<path class="st1" d="M582.6,119.5c0,0.1-0.1,0.2-0.2,0.3c-0.3,0.3-0.8,0.5-1.5,0.4c0,0-0.1,0-0.1,0l0,0
							c-0.4-0.1-0.7-0.5-0.8-0.7c-0.2-0.3-0.2-0.7-0.1-1c0.1-0.3,0.3-0.7,0.7-0.8c0.1-0.1,0.3-0.1,0.5,0.5c0.1,0.2,0.1,0.3,0.2,0.4
							c0,0.1,0,0,0,0c0,0,0,0,0,0c0,0,0.2,0.1,0.2,0.1c0,0-0.1,0-0.1,0.1c0,0,0,0,0,0c0,0,0-0.1-0.1-0.1c0,0,0,0,0,0
							c0.1,0,0.1,0,0.1,0.1c-0.1,0.1,0,0.2-0.1,0.1c0,0,0,0,0-0.1l0,0c0,0,0,0,0,0c0,0,0,0,0,0l0,0c-0.1,0-0.2-0.1-0.3-0.2
							c-0.1-0.1-0.3-0.2-0.4-0.3l0,0l0,0c-0.4-0.4,0-0.4,0.1-0.5c0.5-0.4,1.1-0.4,1.7,0.1c0.3,0.3,0.4,0.9,0.4,1.3
							C582.7,119.2,582.7,119.4,582.6,119.5L582.6,119.5z"/>
					</g>
				</g>
			</g>
			<g>
				<g>
					<g>
						<path class="st1" d="M542.9,285.2c0.4,0.4,0.9,0.7,1.3,1.1c0.8,0.7,1.5,1.5,2.3,2.3l1.1,1.2c0.4,0.4,0.7,0.7,1.1,1.2
							c0.1,0.1,0.2,0.2,0.3,0.3l0,0c0.3,0.4,0.5,0.9,0.5,1.4c0,0.5-0.1,1-0.2,1.4c-0.3,0.8-0.6,1.3-0.9,1.9
							c-1.3,2.7-2.6,5.3-4.2,7.9c-0.2,0.4-0.6,1.1-1.2,0.8c-0.6-0.3-0.8-1-0.4-1.7c0.9-1.7,2-3.4,2.7-5.2c0.5-1.3,1.2-2.6,1.8-3.8
							c0.3-0.6,0.4-1,0.2-1.3c-0.1-0.3-0.7-0.9-1.2-1.4c-1.8-1.8-3.6-3.6-5.4-5.3c-1.8-1.6-3.6-3.1-5.5-4.6c-1.6-1.3-3-2.8-4.6-4.1
							c-0.4-0.3-0.8-0.7-1.3-0.7l0,0c-0.3-0.6-1.1-0.5-1.3-1.2l0,0c-0.1-0.1-0.3-0.3-0.4-0.4c-0.7-0.4-0.8-0.7-0.1-1.2
							c0.2-0.1,0.2-0.3,0.5-0.3l0,0l0,0c0.8-0.1,1.2,0.5,1.7,0.9c2.6,1.9,5.1,3.9,7.5,5.9c1.5,1.3,2.9,2.6,4.4,3.8
							C542.1,284.5,542.5,284.8,542.9,285.2L542.9,285.2z"/>
					</g>
				</g>
			</g>
			<g>
				<g>
					<g>
						<path class="st1" d="M561.3,325.3c-0.2,0.3-0.4,0.7-0.6,1l-2.6,3.5c0,0.1-0.1,0.1-0.1,0.2l0,0c-0.5,0.7-1,1.4-1.5,2.1
							c-1.1,1.7-2.2,3.3-3.5,4.9c-0.2,0.2-0.5,0.7-1.1,0.3c-0.6-0.4-0.7-0.9-0.4-1.4c0.8-1.1,1.7-2.1,2.3-3.3
							c0.9-1.7,2.1-3.3,3.2-4.9c1-1.4,2.1-2.8,3.1-4.2c1-1.3,1.8-2.7,2.9-4c0.9-1.1,1.9-2.1,2.9-3.1c0.2-0.2,0.5-0.5,0.5-0.9l0,0
							c0.5-0.1,0.3-0.8,0.9-0.8l0,0c0.1-0.1,0.2-0.2,0.3-0.3c0.3-0.5,0.6-0.5,1,0.2c0.1,0.1,0.3,0.3,0.3,0.4l0,0l0,0
							c0.1,0.6-0.4,0.8-0.6,1.2c-1.3,1.7-2.7,3.3-4,5c-0.8,1-1.6,2.1-2.4,3.2C561.7,324.7,561.6,325,561.3,325.3L561.3,325.3z"/>
					</g>
				</g>
			</g>
			<g>
				<g>
					<g>
						<path class="st1" d="M543.9,346.8c-0.1,0.1-0.2,0.2-0.3,0.3l-1.2,1c0,0,0,0.1,0,0.1l0,0c-0.2,0.2-0.5,0.4-0.7,0.7
							c-0.5,0.5-1,1.1-1.7,1.5c-0.1,0.1-0.2,0.2-0.7-0.2c-0.5-0.5-0.7-0.8-0.6-1c0.4-0.3,0.8-0.6,1.1-1c0.4-0.7,1-1.1,1.5-1.6
							c0.5-0.5,1-0.9,1.4-1.4c0.4-0.4,0.8-1,1.3-1.3c0.4-0.3,0.9-0.5,1.3-0.8c0.1-0.1,0.2-0.1,0-0.3l0,0c0.3,0.1-0.1-0.3,0.3-0.1
							l0,0c0,0,0.1,0,0.1-0.1c0-0.2,0.2-0.1,0.9,0.2c0.1,0.1,0.4,0.2,0.4,0.3l0,0l0,0c0.4,0.4,0,0.5-0.1,0.7
							c-0.6,0.9-1.3,1.3-1.8,1.8c-0.4,0.3-0.7,0.6-1,1C544,346.6,544,346.8,543.9,346.8L543.9,346.8z"/>
					</g>
				</g>
			</g>
			<g>
				<g>
					<g>
						<path class="st1" d="M536,327c-0.1,0.2-0.1,0.3-0.2,0.5l-1,1.8c0,0,0,0.1,0,0.1l0,0c-0.2,0.4-0.4,0.7-0.6,1.1
							c-0.4,0.8-0.9,1.7-1.5,2.4c-0.1,0.1-0.2,0.3-0.8,0c-0.6-0.4-0.9-0.7-0.8-0.9c0.3-0.5,0.8-1,0.9-1.6c0.3-0.9,0.8-1.6,1.1-2.4
							c0.3-0.7,0.7-1.4,1.1-2.1c0.3-0.7,0.5-1.4,0.9-2.1c0.3-0.6,0.8-1.1,1.1-1.6c0.1-0.1,0.2-0.3,0-0.5l0,0c0.4,0-0.1-0.5,0.4-0.4
							l0,0c0,0,0.1-0.1,0.1-0.1c0-0.3,0.3-0.2,0.9,0.2c0.1,0.1,0.4,0.2,0.4,0.3l0,0l0,0c0.4,0.4,0.1,0.5,0,0.7
							c-0.4,0.9-0.9,1.8-1.3,2.7c-0.3,0.5-0.6,1.1-0.8,1.7C536.2,326.7,536.2,326.9,536,327L536,327z"/>
					</g>
				</g>
			</g>
			<g>
				<g>
					<g>
						<path class="st1" d="M521.2,354.2c-0.1,0.1-0.1,0.2-0.2,0.3c-0.3,0.3-0.7,0.6-1,1c0,0,0,0.1,0,0.1l0,0
							c-0.2,0.2-0.4,0.4-0.6,0.6c-0.5,0.5-1,0.9-1.6,1.1c-0.1,0-0.2,0.1-0.7-0.4c-0.4-0.6-0.6-0.9-0.5-1c0.4-0.2,0.8-0.4,1-0.7
							c0.3-0.5,0.8-0.9,1.2-1.3c0.4-0.4,0.8-0.7,1.1-1.2c0.3-0.4,0.6-0.9,0.9-1.2c0.3-0.3,0.7-0.5,1-0.8c0.1-0.1,0.2-0.1,0-0.4l0,0
							c0.3,0.1,0-0.4,0.4-0.2l0,0c0,0,0.1,0,0.1-0.1c0-0.2,0.2-0.1,0.8,0.4c0.1,0.1,0.3,0.2,0.4,0.4l0,0l0,0c0.3,0.4,0,0.4,0,0.5
							c-0.4,0.6-0.8,1.1-1.3,1.6c-0.3,0.3-0.6,0.6-0.8,1C521.4,354,521.4,354.1,521.2,354.2L521.2,354.2z"/>
					</g>
				</g>
			</g>
			<g>
				<g>
					<g>
						<path class="st1" d="M522.2,360.1c0.2,0,0.3,0,0.5,0c0.5,0.1,1.1,0.2,1.6,0.2c0,0,0.1,0,0.1-0.1l0,0c0.3,0,0.7,0,1-0.1
							c0.7-0.1,1.4-0.4,2.1-0.6c0.1,0,0.3-0.1,0.7,0.4c0.4,0.6,0.5,1,0.2,1.1c-0.6,0.3-1.3,0.4-1.8,0.7c-0.9,0.4-1.8,0.4-2.7,0.4
							c-0.8,0-1.6-0.1-2.4-0.3c-0.7-0.1-1.5-0.2-2.2-0.5c-0.6-0.2-1.1-0.6-1.6-1c-0.1-0.1-0.3-0.2-0.5,0l0,0c0-0.4-0.4,0.1-0.4-0.4
							v0c0,0-0.1-0.1-0.1-0.1c-0.3,0-0.2-0.3,0.2-0.9c0.1-0.1,0.2-0.4,0.3-0.4l0,0l0,0c0.4-0.4,0.5-0.1,0.6,0c0.9,0.3,1.7,0.7,2.5,1
							c0.5,0.2,1,0.4,1.6,0.4C521.9,360.1,522.1,360,522.2,360.1L522.2,360.1z"/>
					</g>
				</g>
			</g>
			<g>
				<g>
					<g>
						<path class="st1" d="M514.2,363c0,0.1,0,0.2-0.1,0.3l-0.6,1c0,0,0,0.1,0,0.1l0,0c-0.1,0.2-0.3,0.4-0.4,0.6
							c-0.3,0.5-0.5,1-1,1.4c-0.1,0.1-0.1,0.2-0.7-0.1c-0.6-0.3-0.9-0.6-0.8-0.7c0.2-0.3,0.6-0.6,0.6-0.9c0.1-0.6,0.5-1,0.7-1.5
							c0.2-0.4,0.5-0.8,0.7-1.3c0.2-0.4,0.3-0.9,0.6-1.3c0.2-0.3,0.6-0.6,0.9-0.9c0.1-0.1,0.2-0.1,0-0.4l0,0c0.2,0,0.2-0.1,0.2-0.2
							c0.1-0.1,0.1-0.2,0.3-0.1l0,0c0.1,0,0.1,0,0.2-0.1c0.2-0.2,0.4,0,0.6,0.8c0.1,0.1,0.1,0.3,0.2,0.4l0,0l0,0
							c0.2,0.5,0.1,0.3,0,0.3c0,0-0.2,0.4-0.4,0.6l-0.5,0.8c-0.2,0.3-0.4,0.6-0.5,1C514.3,362.8,514.3,362.9,514.2,363L514.2,363z"
							/>
					</g>
				</g>
			</g>
			<g>
				<g>
					<g>
						<path class="st1" d="M520.8,370.9c0.3,0.1,0.5,0.1,0.8,0.2c1,0.4,1.9,0.8,2.9,1.2c0,0,0.1,0,0.2,0l0,0l1.7,0.7
							c1.3,0.6,2.7,1.1,3.9,2c0.2,0.1,0.5,0.3,0.2,0.9c-0.3,0.6-0.7,0.9-1.1,0.7c-0.8-0.5-1.6-1-2.5-1.3c-1.3-0.4-2.5-1-3.8-1.5
							c-1.1-0.4-2.3-0.9-3.4-1.3c-1.1-0.4-2.2-0.6-3.3-1c-0.9-0.3-1.8-0.8-2.7-1.1c-0.2-0.1-0.4-0.2-0.7,0l0,0
							c-0.2-0.4-0.6,0.1-0.8-0.4l0,0c-0.1,0-0.2-0.1-0.3-0.1c-0.4,0-0.5-0.3-0.1-1c0.1-0.2,0.1-0.4,0.2-0.5l0,0l0,0
							c0.4-0.4,0.7-0.1,1,0c1.5,0.4,2.9,0.8,4.4,1.3c0.9,0.3,1.8,0.6,2.7,0.9C520.4,370.8,520.6,370.8,520.8,370.9L520.8,370.9z"/>
					</g>
				</g>
			</g>
			<g>
				<g>
					<g>
						<path class="st4" d="M503.2,230.1c1.1-0.2,2.2-0.4,3.2-0.6c4.1-0.8,8.2-1.9,12.3-3.1c0.2-0.1,0.4-0.2,0.6-0.2l0,0
							c2.5-0.7,4.9-1.5,7.4-2.3c5.6-1.8,11.3-3.7,17-5.4c0.9-0.3,2.4-0.7,2.6-0.1c0.2,0.7-0.7,1.4-2.2,1.9
							c-3.7,1.1-7.5,2.2-11.2,3.6c-5.4,2-10.8,3.6-16.3,5.2c-2.5,0.7-5,1.4-7.5,1.9c-2.5,0.6-5.1,1.1-7.7,1.3
							c-0.6,0.1-1.2,0.1-1.8,0.1c-0.7,0-1.5-0.1-2.2-0.4c-0.7-0.4-1.3-0.9-1.7-1.5c-0.4-0.6-0.7-1.2-1-1.8c-0.5-1.2-0.8-2.4-1.1-3.6
							c-0.3-1.1-0.6-2.3-0.9-3.5c-0.5-2-1-4.1-1.3-6.1c-0.4-2-0.7-4.1-1.1-6.2c-0.2-1-0.3-2-0.7-2.9l0,0c0.1-1.2-0.6-2.4-0.3-3.5
							l0,0c0-0.4,0-0.8-0.1-1.1c-0.3-1.7-0.1-2.2,0.7-1.7c0.2,0.1,0.4-0.1,0.6,0.3l0,0l0,0c0.7,1.1,0.6,2.5,0.8,3.8
							c0.5,3.1,1.1,6.2,1.7,9.3c0.6,3.1,1.5,6.1,2.2,9.2l0.7,2.8c0.2,0.9,0.5,1.8,0.8,2.6c0.3,0.8,0.8,1.5,1.4,1.9
							c0.3,0.2,0.6,0.3,1,0.3c0.2,0,0.4,0,0.6,0l0.7-0.1C501.2,230.4,502.2,230.2,503.2,230.1L503.2,230.1z"/>
					</g>
				</g>
			</g>
			<g>
				<g>
					<g>
						<path class="st4" d="M520.5,248.5c-0.2-0.5-0.4-1-0.6-1.4c-0.7-1.8-1.4-3.7-2.2-5.4c0-0.1-0.1-0.2-0.2-0.2l0,0
							c-0.2-0.5-0.5-1-0.8-1.6l-0.8-1.6c-1.3-2.4-2.6-4.9-3.7-7.5c-0.2-0.4-0.5-1.1,0.1-1.4c0.6-0.3,1.2-0.1,1.6,0.6
							c0.8,1.6,1.5,3.3,2.5,4.9c0.7,1.1,1.3,2.3,2,3.5c0.6,1.2,1.2,2.4,1.8,3.6c1,2.2,1.8,4.5,2.6,6.7c0.8,2.1,1.6,4.2,2.1,6.5
							c0.5,1.9,0.7,3.9,0.9,5.8c0,0.5,0.1,1,0.4,1.4l0,0c-0.2,0.6,0.3,1.2-0.1,1.7l0,0c0,0.2-0.1,0.4,0,0.6c0.1,0.9-0.2,1.1-0.9,0.7
							c-0.2-0.1-0.4,0-0.5-0.2l0,0l0,0c-0.5-0.5-0.2-1.1-0.3-1.7c-0.2-2.8-0.9-5.7-1.6-8.5c-0.5-1.7-1-3.5-1.6-5.1
							C520.9,249.4,520.6,249,520.5,248.5L520.5,248.5z"/>
					</g>
				</g>
			</g>
			<g>
				<g>
					<g>
						<path class="st4" d="M484.4,230.1c-0.3,0.2-0.6,0.4-0.9,0.6l-3.4,1.9c-0.1,0-0.1,0.1-0.1,0.1l0,0c-0.7,0.4-1.4,0.8-2,1.2
							c-1.5,0.9-3.1,1.9-4.7,2.7c-0.2,0.1-0.6,0.4-1-0.2c-0.4-0.6-0.4-1.1,0.1-1.4c1-0.6,2.2-1.1,3.1-1.8c1.4-1.1,3-1.8,4.4-2.8
							l4-2.4c1.2-0.8,2.4-1.6,3.7-2.4c1.1-0.6,2.2-1.1,3.3-1.8c0.3-0.1,0.5-0.3,0.6-0.7l0,0c0.5,0.1,0.5-0.6,1-0.4l0,0
							c0.1-0.1,0.2-0.1,0.3-0.2c0.3-0.4,0.6-0.3,0.9,0.5c0.1,0.2,0.2,0.3,0.2,0.5l0,0l0,0c0,0.6-0.5,0.7-0.8,0.9
							c-1.6,1.1-3.3,2.2-4.9,3.2c-1,0.6-2.1,1.2-3,1.9C485,229.7,484.7,230,484.4,230.1L484.4,230.1z"/>
					</g>
				</g>
			</g>
		</g>
		<g>
			<path class="st3" d="M-328.3,90.7c-0.2-0.2-0.5-0.3-0.8-0.4c-0.3,0-0.7-0.1-0.9,0l-0.7,0.1l-0.5,0.1l-2.1,0.5l-4.4,1.1l0,0
				c-1.4,0.3-2.8,0.7-4.2,1c-5,1.3-10.1,2.4-15.2,3.6l-10.2,2.4l-5.1,1.2l-3.1,0.7c-0.4,0.1-0.7,0.2-0.8,0.4
				c-0.2,0.1-0.3,0.2-0.4,0.5c0,0.1,0,0.3,0,0.4c0,0.1,0.1,0.1,0.1,0.2c0.1,0.2,0.2,0.3,0.6,0.5l4.7,2.2c1.5,0.7,3,1.6,4.5,2
				l3.6-1.5c1.7-0.7,3.4-1.4,5.1-2.2c0.5-0.2,0.9-0.5,1.4-0.6l0,0c0.5-0.2,1-0.5,1.5-0.7l5.7-2.3c0.1,0,0.2-0.1,0.3-0.2l0,0l3.4-1.4
				c2.6-1.1,5.3-2.2,8-3.1c0.4-0.1,1.1-0.4,1.3,0.1c0.2,0.5-0.1,1-0.9,1.3c-1.8,0.7-3.5,1.3-5.2,2.1c-2.5,1.2-5,2.1-7.5,3.2
				l-6.8,2.8c-2.1,0.9-4.2,1.9-6.3,2.7c-0.6,0.2-1.2,0.4-1.8,0.7c0.6,0.4,1.5,1,2.1,1.3l10.3,6l1.3,0.7l0.6,0.4
				c0.2,0.1,0.3,0.3,0.9,0.4c0.4,0.1,0.8,0.1,1.2-0.1c0.2-0.1,0.4-0.2,0.6-0.3c0.1-0.1,0.2-0.2,0.2-0.2l0.1-0.1l1-1.1l3.8-4.6
				l6.7-7.9l0,0c0.2-0.2,0.3-0.5,0.5-0.7l5.5-6.5c0.5-0.5,0.9-1.1,1.4-1.7c0.2-0.3,0.4-0.6,0.7-1.2
				C-327.9,91.9-327.8,91.2-328.3,90.7z"/>
			<g>
				<g>
					<g>
						<path class="st3" d="M-364.2,114.8C-364.2,114.8-364.2,114.8-364.2,114.8C-364.2,114.8-364.2,114.9-364.2,114.8
							C-364.1,114.9-364.1,114.8-364.2,114.8L-364.2,114.8C-364.1,114.8-364.1,114.8-364.2,114.8c0.2-0.1,0.4-0.2,0.5-0.3
							c0.7-0.5,1.4-1,2.2-1.4c0.1-0.1,0.3-0.2,0.7,0.4c0.4,0.6,0.5,1,0.3,1.1c-0.5,0.3-1.1,0.5-1.4,0.9c-0.3,0.3-0.6,0.6-0.9,0.8
							c-0.4,0.3-1.2,1-1.7,1c-0.4,0.1-1.1-0.1-1.4-0.6c-0.1-0.2-0.2-0.4-0.3-0.7l-0.1-1l0-0.2l0-0.1l0-0.3l-0.1-0.5
							c-0.1-0.3-0.1-0.7-0.1-1c0-0.6,0.1-1.2,0.2-1.8c0-0.1,0-0.3-0.2-0.4l0,0c0.3-0.2-0.3-0.3,0.2-0.5l0,0c0-0.1,0.1-0.1,0-0.2
							c-0.1-0.2,0.1-0.3,0.9-0.3c0.2,0,0.4,0,0.5,0l0,0l0,0c0.5,0.1,0.3,0.4,0.3,0.5c0.1,0.9,0.1,1.8,0.2,2.7
							C-364.4,113.6-364.4,114.2-364.2,114.8C-364.3,114.9-364.2,114.8-364.2,114.8L-364.2,114.8z"/>
					</g>
				</g>
			</g>
		</g>
		<g>
			<path class="st5" d="M-37.2,341.8c-0.2-0.4-0.5-0.7-0.7-1c-0.3-0.2-0.7-0.5-0.9-0.5l-0.7-0.2l-0.5-0.1l-2.1-0.4l-4.4-0.8l0,0
				c-1.3-0.3-2.7-0.5-3.9-0.8c-4.5-0.9-8.9-1.8-12.9-2.6l-7.7-1.6l-3.6-0.7l-2.1-0.4c-0.3-0.1-0.5,0-0.6,0c-0.2,0.1-0.3,0.1-0.4,0.3
				c-0.1,0.1-0.2,0.3-0.2,0.3c0,0.1,0,0.2-0.1,0.2c0,0.2-0.1,0.4,0,0.7l1.3,4.1c0.4,1.4,0.8,3.1,1.5,4.2l3.1,0c1.5,0,3,0,4.6,0
				c0.4,0,0.9-0.1,1.3-0.1l0,0c0.5,0,0.9-0.1,1.4-0.1l5.3,0.1c0.1,0,0.2,0,0.3-0.1l0,0l3.3,0c2.6,0,5.3,0,8.1,0.3
				c0.4,0,1.2,0,1.2,0.8c0,0.8-0.5,1.3-1.3,1.2c-1.8-0.1-3.7-0.3-5.5-0.2c-2.6,0.2-5.1,0-7.6,0l-6.5-0.1c-2,0-3.9,0.1-5.8,0.1
				c-0.5,0-1-0.1-1.5-0.1c0.1,0.8,0.4,1.9,0.5,2.7l3.6,15.4l0.5,2.3l0.3,1.2c0.1,0.4,0.1,0.7,0.5,1.5c0.3,0.6,0.7,0.8,1.1,0.9
				c0.2,0.1,0.5,0.1,0.8-0.1c0.1-0.1,0.3-0.2,0.4-0.2l0.2-0.2l1.6-1.3l6.2-4.9l10.2-7.9l0,0c0.3-0.2,0.5-0.5,0.8-0.7l7.8-6.1
				c0.6-0.5,1.3-1,1.9-1.6c0.3-0.3,0.6-0.6,1-1.3C-37.1,343.6-36.9,342.6-37.2,341.8z"/>
		</g>
		<g>
			<g>
				<path class="st2" d="M171,38.4c1-3.2,1.4-6.6,2.6-9.7c1.7-4.2,3.7-8.3,5.3-12.5c0.2-0.4,0.4-0.9,0.8-1c0.5-0.2,1,0,1.4,0.3
					c7.6,4.1,15.2,8.4,22.7,12.9c5.9,3.6,12,7.1,18,10.5c0.7,0.4,1.5,0.8,2,1.5c2.8,3.1-1.6,3.5-3.7,3.5c-2.6,0-5.2,0.1-7.7,0.1
					c-5,0.1-10,0.2-15.1,0.2c-10,0.2-20.1,0.3-30.1,0.5C168.7,44.6,170,41.7,171,38.4z"/>
			</g>
			<g>
				<g>
					<g>
						<path class="st4" d="M186.1,30.3c0.5,0.1,0.9,0.1,1.4,0.3l5.1,1.3c0.1,0,0.2,0,0.3,0l0,0l3.1,0.8c2.4,0.6,4.8,1.2,7.1,2.2
							c0.4,0.2,1,0.4,0.7,1c-0.3,0.7-0.8,0.9-1.4,0.7c-1.5-0.6-3-1.2-4.6-1.5c-2.3-0.4-4.5-1.1-6.8-1.6c-2-0.5-4.1-1-6.1-1.4
							c-1.9-0.4-3.9-0.7-5.8-1.2c-1.7-0.4-3.3-0.9-4.9-1.4c-0.4-0.1-0.8-0.2-1.2-0.1l0,0c-0.4-0.4-1,0-1.4-0.5l0,0
							c-0.2,0-0.3-0.1-0.5-0.1c-0.7,0-0.8-0.3-0.4-1c0.1-0.2,0.1-0.4,0.3-0.5l0,0l0,0c0.6-0.4,1.1,0,1.6,0.1l7.6,1.7
							c1.6,0.3,3.1,0.7,4.7,1C185.3,30.2,185.7,30.2,186.1,30.3L186.1,30.3z"/>
					</g>
				</g>
			</g>
		</g>
		<g>
			<g>
				<g>
					<path class="st6" d="M749.5,44.4c-2.5-2.1-5.6-3.9-7.9-6.2c-3.2-3.2-6.2-6.7-9.5-9.7c-0.3-0.3-0.7-0.7-0.7-1.1
						c0-0.5,0.4-0.9,0.8-1.2c6.8-5.4,13.6-10.8,20.7-15.9c5.6-4.1,11.1-8.3,16.7-12.5c0.7-0.5,1.3-1,2.1-1.3
						c3.9-1.4,2.6,2.9,1.8,4.8c-1,2.4-1.9,4.8-2.9,7.2c-1.9,4.7-3.8,9.3-5.6,14c-3.8,9.3-7.5,18.6-11.3,27.9
						C754.3,48.9,752.1,46.6,749.5,44.4z"/>
				</g>
				<g>
					<g>
						<g>
							<path class="st4" d="M747.9,27.3c0.3-0.4,0.5-0.8,0.8-1.2l3.2-4.2c0.1-0.1,0.1-0.2,0.1-0.2l0,0l1.9-2.5c1.5-2,3-3.9,4.8-5.7
								c0.3-0.3,0.8-0.8,1.2-0.3c0.5,0.5,0.5,1.1,0.1,1.6c-1.1,1.1-2.2,2.3-3.1,3.6c-1.3,1.9-2.8,3.8-4.1,5.7
								c-1.2,1.7-2.5,3.4-3.7,5.1c-1.1,1.6-2.2,3.3-3.3,4.9c-1,1.4-2.1,2.7-3.2,4c-0.2,0.3-0.5,0.6-0.5,1.1l0,0
								c-0.5,0.2-0.4,1-1,1.1l0,0c-0.1,0.1-0.2,0.2-0.3,0.4c-0.3,0.6-0.6,0.6-1.1,0c-0.1-0.1-0.3-0.2-0.3-0.4l0,0l0,0
								c-0.1-0.7,0.4-1,0.7-1.5l4.5-6.4c0.9-1.3,1.9-2.6,2.8-3.9C747.4,28,747.6,27.6,747.9,27.3L747.9,27.3z"/>
						</g>
					</g>
				</g>
			</g>
			<g>
				<g>
					<g>
						<path class="st6" d="M743.4,47.5C743.5,47.6,743.5,47.5,743.4,47.5c0.1,0,0.1,0.1,0.1,0.1C743.5,47.6,743.5,47.6,743.4,47.5
							L743.4,47.5C743.5,47.5,743.5,47.6,743.4,47.5c0.6-0.8,0.8-1.7,1.2-2.6c0.1-0.1,0.1-0.4,0.9-0.3c0.8,0.1,1.2,0.4,1.1,0.7
							c-0.2,0.7-0.6,1.4-0.7,2.2c-0.1,0.6-0.3,0.9-0.8,1.9c-0.2,0.4-0.5,0.9-0.7,1.1c-0.3,0.2-0.5,0.4-0.8,0.4
							c-0.3,0.1-0.6,0-0.8-0.2c-0.2-0.1-0.5-0.4-0.7-0.7c-0.2-0.3-0.4-0.7-0.5-1.1l-0.4-0.9c-0.3-0.8-0.8-1.6-1.1-2.5
							c-0.2-0.7-0.3-1.5-0.4-2.3c0-0.2,0-0.4-0.4-0.5l0,0c0.3-0.3-0.4-0.4,0.1-0.7l0,0c0-0.1,0-0.2,0-0.2c-0.2-0.3,0.1-0.4,0.9-0.5
							c0.2,0,0.4-0.1,0.6-0.1l0,0l0,0c0.6,0.1,0.4,0.4,0.5,0.6c0.3,1.1,0.6,2.1,1,3.2c0.2,0.6,0.4,1.3,0.8,1.9
							C743.3,47.2,743.5,47.4,743.4,47.5L743.4,47.5z"/>
					</g>
				</g>
			</g>
		</g>
		<g>
			<g>
				<g>
					<path class="st7" d="M-692.6,206.2c0.1-3.3-0.5-6.8-0.1-10c0.5-4.5,1.3-9,1.7-13.5c0-0.4,0.1-0.9,0.4-1.2
						c0.4-0.3,1-0.2,1.5-0.1c8.5,1.9,16.9,3.9,25.3,6.2c6.7,1.9,13.4,3.5,20.2,5.2c0.8,0.2,1.6,0.4,2.4,0.8c3.5,2.2-0.6,3.8-2.6,4.4
						c-2.5,0.7-4.9,1.5-7.4,2.2c-4.8,1.4-9.6,2.9-14.4,4.3c-9.6,2.9-19.2,5.8-28.8,8.7C-693.1,212.8-692.7,209.7-692.6,206.2z"/>
				</g>
				<g>
					<g>
						<g>
							<path class="st4" d="M-680.3,194.3c0.5,0,0.9-0.1,1.4-0.1l5.3-0.2c0.1,0,0.2,0,0.3-0.1l0,0l3.2-0.1c2.5-0.1,4.9-0.1,7.4,0.2
								c0.4,0.1,1.1,0.1,1,0.8c-0.1,0.7-0.5,1.1-1.2,1c-1.6-0.1-3.2-0.3-4.8-0.1c-2.3,0.2-4.7,0.2-7,0.3c-2.1,0.1-4.2,0.2-6.3,0.3
								c-2,0.1-3.9,0.4-5.9,0.5c-1.7,0.1-3.4,0-5.1,0c-0.4,0-0.8,0-1.2,0.3l0,0c-0.5-0.3-1,0.3-1.5-0.1l0,0c-0.2,0-0.3,0-0.5,0
								c-0.7,0.1-0.9-0.1-0.7-0.9c0-0.2,0-0.4,0.1-0.5l0,0l0,0c0.4-0.5,1-0.3,1.6-0.4l7.8-0.5c1.6-0.1,3.2-0.1,4.8-0.3
								C-681.1,194.4-680.7,194.2-680.3,194.3L-680.3,194.3z"/>
						</g>
					</g>
				</g>
			</g>
			<g>
				<g>
					<g>
						<path class="st7" d="M-698.8,203.5C-698.9,203.5-698.8,203.5-698.8,203.5c0,0.1,0,0.1,0,0.1
							C-698.8,203.6-698.8,203.6-698.8,203.5L-698.8,203.5C-698.8,203.5-698.8,203.6-698.8,203.5c1-0.1,1.8-0.4,2.8-0.7
							c0.2,0,0.4-0.2,0.8,0.5c0.4,0.7,0.5,1.2,0.2,1.3c-0.7,0.3-1.5,0.4-2.2,0.8c-0.6,0.3-0.8,0.3-2,0.5c-0.5,0.1-1,0.2-1.3,0.1
							c-0.3-0.1-0.6-0.1-0.8-0.3c-0.3-0.2-0.4-0.5-0.4-0.8c0-0.3,0-0.6,0.1-0.9c0.1-0.3,0.3-0.7,0.5-1.1l0.5-0.9
							c0.4-0.8,0.7-1.6,1.2-2.4c0.4-0.6,1-1.2,1.6-1.7c0.1-0.1,0.3-0.3,0.1-0.6l0,0c0.4,0,0-0.5,0.6-0.4l0,0c0.1,0,0.1-0.1,0.2-0.1
							c0.1-0.3,0.4-0.2,1,0.4c0.1,0.1,0.3,0.3,0.4,0.4l0,0l0,0c0.3,0.5,0,0.5-0.2,0.7c-0.6,0.9-1.3,1.8-1.9,2.8
							c-0.4,0.6-0.7,1.2-1,1.8C-698.7,203.1-698.7,203.4-698.8,203.5L-698.8,203.5z"/>
					</g>
				</g>
			</g>
		</g>
		<g>
			<g>
				<g>
					<path class="st1" d="M835.5,437.1c2.7,0,5.4-0.1,8.1-0.1c10.3,0,20.5,0,30.8,0c0.5,0,1,0,1.6-0.1l0,0c6.2,0,12.4,0,18.6,0
						c14.3,0,28.7,0,43,0.2c2.2,0,6,0,6,0.7c-0.1,0.7-2.6,1.1-6.5,1.1c-9.4-0.1-18.9-0.2-28.3-0.1c-13.7,0.2-27.5,0.1-41.2,0.1
						c-12.3,0-24.7,0-37,0c-11.6,0-23.2,0.2-34.7,0.2c-10,0-20-0.2-30-0.2c-2.4,0-4.9-0.1-7.1,0.2l0,0c-2.7-0.3-5.9,0.3-8.5-0.2l0,0
						c-0.9,0-1.9-0.1-2.8,0c-4.1,0.1-5.2-0.1-3.8-0.9c0.3-0.2,0-0.4,0.9-0.5c0,0,0.1,0,0.1,0l0,0c2.8-0.5,6.2-0.3,9.3-0.3
						c15.3-0.1,30.5-0.1,45.8-0.1c9.4,0,18.7,0,28.1-0.1C830.4,437.2,832.9,437.1,835.5,437.1L835.5,437.1z"/>
				</g>
			</g>
		</g>
		<g>
			<g>
				<g>
					<path class="st1" d="M583.1,437.1c1.8,0,3.6-0.1,5.5-0.1c6.9,0,13.8,0,20.6,0c0.4,0,0.7,0,1.1-0.1l0,0c4.2,0,8.3,0,12.5,0
						c9.6,0,19.3,0,28.9,0.2c1.5,0,4.1,0,4,0.7c-0.1,0.7-1.8,1.1-4.4,1.1c-6.3-0.1-12.7-0.2-19-0.1c-9.2,0.2-18.4,0.1-27.6,0.1
						c-8.3,0-16.6,0-24.8,0c-7.8,0-15.5,0.2-23.3,0.2c-6.7,0-13.4-0.2-20.1-0.2c-1.6,0-3.3-0.1-4.8,0.2l0,0c-1.8-0.3-4,0.3-5.7-0.2
						l0,0c-0.6,0-1.2-0.1-1.8,0c-2.8,0.1-3.5-0.1-2.6-0.9c0.2-0.2,0-0.4,0.6-0.5c0,0,0.1,0,0.1,0l0,0c1.9-0.5,4.2-0.3,6.3-0.3
						c10.2-0.1,20.5-0.1,30.7-0.1c6.3,0,12.6,0,18.9-0.1C579.7,437.2,581.4,437.1,583.1,437.1L583.1,437.1z"/>
				</g>
			</g>
		</g>
		<g>
			<g>
				<g>
					<path class="st1" d="M-187.5,437.1c15.5,0,31.1-0.1,46.6-0.1c58.8,0,117.6,0,176.4,0c3,0,6,0,9-0.1l-0.3,0
						c35.5,0,71.1,0,106.6,0c82.2,0,164.5,0,246.5,0.2c12.8,0,34.6,0,34.2,0.7c-0.5,0.7-15,1.1-37.4,1.1
						c-54.1-0.1-108.5-0.2-162.4-0.1c-78.8,0.2-157.4,0.1-236.1,0.1c-70.7,0-141.4,0-212,0c-66.4,0-132.7,0.2-199.1,0.2
						c-57.3,0-114.5-0.2-171.8-0.2c-13.5,0-27.8-0.1-40.6,0.2l0.2,0c-15.5-0.3-33.8,0.3-48.9-0.2l0,0c-5.3,0-10.7-0.1-15.8,0
						c-23.5,0.1-29.7-0.1-21.9-0.9c1.7-0.2-0.3-0.4,5.4-0.5c0,0,0.4,0,0.4,0l-0.2,0c15.9-0.5,35.6-0.3,53.4-0.3
						c87.5-0.1,175-0.1,262.5-0.1c53.7,0,107.4,0,161-0.1c14.7,0,29.4-0.1,44.2-0.1L-187.5,437.1z"/>
				</g>
			</g>
		</g>
	</g>
</g>
</svg>
