<svg xmlns="http://www.w3.org/2000/svg" viewBox="0 0 85.68 132.88"><defs><style>.cls-1{isolation:isolate;}.cls-2{fill:#eebe84;}.cls-3{fill:#0b2e42;}.cls-4{opacity:0.1;mix-blend-mode:multiply;}.cls-5{fill:#5d7785;}.cls-6{fill:#0d2e42;}.cls-7{fill:#0e303f;}</style></defs><title>Untitled-3</title><g class="cls-1"><g id="Layer_1" data-name="Layer 1"><path class="cls-2" d="M47.9,2.64c15.64,42.68-1.1,23.2-26.63,45.84C6.41,62-2.91,85.41,3.12,104.44,9.36,123.94,27.07,127,42.86,131c9.54,2.37,18.16-1.76,27-9,8.1-6.66,13.26-20.26,14.13-30,1.47-15.16-.72-30.08-8.23-42-8.24-12.9-20.68-21.25,7.42-36.56-2-1.35-3.77-3.82-6.11-4.13a26.61,26.61,0,0,1-7.81-.37c-1.06-.23-3.83-5-4.72-5.45-1.73-.12-3.78.19-5.63-.06A43.83,43.83,0,0,1,48.84,1c-.25-.1-.78.38-.77.65Z"/><path class="cls-3" d="M46.7,3c2.09,5.75,4.25,11.59,5.43,17.61.6,3.05,1.29,7-.76,9.72-3.28,4.3-11.55,5.36-16.24,7.54-21,9.77-36.44,33.3-35,56.78.66,11.16,5.61,21.59,15,27.86a53.43,53.43,0,0,0,14.21,6.28c5.33,1.61,11.12,3.47,16.66,4,12.14,1.19,24.9-7.68,31.23-17.54,7.23-11.26,9.19-24.85,8.21-38a64.25,64.25,0,0,0-5.18-21.47c-2.41-5.39-5.93-9.88-9.21-14.72-2.3-3.4-4.82-7.4-3.75-11.68C69.08,22.25,78,17.73,83.81,14.5a1.27,1.27,0,0,0,0-2.16c-1.55-1.18-3.13-3.06-5-3.81s-3.34-.29-5.15-.38C70.23,8,69,6.93,67,4.41a6.49,6.49,0,0,0-2-2.09c-1.46-.69-4.46-.07-6.05-.22-3.11-.3-6-1.53-9-2-2-.31-2.94,0-3.3,2.21-.26,1.57,2.15,2.25,2.41.66.15-.92,3.57.56,4.45.76a39.4,39.4,0,0,0,5.35.92c1.29.11,4-.51,5.11,0s2,2.65,2.67,3.48a5.09,5.09,0,0,0,4,2.29c2.44.37,5.66-.36,7.89.85,1.36.73,2.66,2.26,3.93,3.23V12.35C75.7,16.16,64.78,22,64.53,31.2,64.35,38,70.09,43.76,73.63,49c15.63,23.24,13.61,62.65-12.48,77.52-7.41,4.22-14.09,4.18-22.14,2.2a103.3,103.3,0,0,1-15.81-4.81c-12.6-5.34-20.06-16.29-20.65-30-1.07-24.85,16.33-47.53,39-56,4.53-1.7,10.81-3,12.88-8,3.36-8.11-2.67-20.25-5.34-27.61C48.56.81,46.14,1.46,46.7,3Z"/><path class="cls-2" d="M83.18,13.43c-2-1.35-3.75-4.26-6.11-4.13a27.16,27.16,0,0,1-7.81-.37"/><path class="cls-4" d="M77.15,9.32A107.5,107.5,0,0,0,59,38.11S64.63,17.4,69.4,9c-.11,0,1.33.23,3.29.44C73.91,9.53,75.78,9.18,77.15,9.32Z"/><path class="cls-4" d="M58.91,3.49s-4.35,21.57-2.79,32.79c0,0,3.12-25.18,8.41-32.81,0,0-1.24.06-2.6,0A13,13,0,0,0,58.91,3.49Z"/><path class="cls-5" d="M65.59,31.42,53.82,28.59a.75.75,0,0,1-.55-.93l.19-.69a.75.75,0,0,1,.9-.53l11.76,2.84a.75.75,0,0,1,.55.93l-.19.69A.75.75,0,0,1,65.59,31.42Z"/><rect class="cls-6" x="52.72" y="29.96" width="14.09" height="1.81" rx="0.49" ry="0.49" transform="translate(11.53 -16.02) rotate(16.87)"/><path class="cls-6" d="M46.36,43.92a57.89,57.89,0,0,1,11-13.64c.34-.42,0-.68-.47-1L56.53,29a1,1,0,0,0-1.37.15,49.75,49.75,0,0,0-10.48,13,1.4,1.4,0,0,0,0,1.61l.57.65C45.65,44.8,46,44.34,46.36,43.92Z"/><path class="cls-5" d="M51.69,51.91c1.65-7.69,3-16.06,4-23.82.12-.73.65-.59,1.27-.48l.47.08a1.25,1.25,0,0,1,.9,1.51A168.24,168.24,0,0,1,54.7,51.43c-.36,1.42-1.35,1.74-2.65,2C51.44,53.29,51.57,52.64,51.69,51.91Z"/><path class="cls-7" d="M55.28,97.21a9.36,9.36,0,0,1-5.07,5.68,12.77,12.77,0,0,1-8.65.78l-1.2,3.71-2.7-.87,1.2-3.71a13.58,13.58,0,0,1-7-5.49,9.42,9.42,0,0,1-.65-8L39.51,92q-.72,3.16,1.38,4.5l2.32-7.2a42.2,42.2,0,0,1-3.67-2.5A16.09,16.09,0,0,1,37.42,85l-1.07-1.31a5,5,0,0,1-.91-1.56q-.24-.74-.5-1.68a8,8,0,0,1,.43-4.16,8.93,8.93,0,0,1,5.31-5.8,14.28,14.28,0,0,1,8.78-.53l1.2-3.71,2.7.87-1.2,3.71a13.23,13.23,0,0,1,6.76,5.09q2,3.26.63,8.08l-8.07-2.6a4,4,0,0,0-1.38-4.19l-2.34,7.24a47.06,47.06,0,0,1,5.37,3.91A8.14,8.14,0,0,1,55.28,97.21Zm-7.85-21q-2.82-.35-3.59,2t1.52,4.39ZM43.6,97.33a2.9,2.9,0,0,0,3.21-2.1,3.8,3.8,0,0,0-1.21-4.09Z"/></g></g></svg>