<svg xmlns="http://www.w3.org/2000/svg" viewBox="0 0 81.52 111.88"><defs><style>.cls-1{isolation:isolate;}.cls-2{fill:#eebe84;}.cls-3{fill:#0b2e42;}.cls-4{opacity:0.1;mix-blend-mode:multiply;}.cls-5{fill:#5d7785;}.cls-6{fill:#0d2e42;}.cls-7{fill:#0e303f;}</style></defs><title>Untitled-3</title><g class="cls-1"><g id="Layer_1" data-name="Layer 1"><path class="cls-2" d="M1.65,12.78C34.89,33.53,13.18,29.14,7.81,58.06c-3,17.05,3.1,37.93,17.29,47.68,14.57,10,28.26,2.69,41.08-3C73.93,99.29,77.6,91.92,79.76,82.3c2-8.82-1.71-20.8-6.27-27.89-7-11.09-16.42-20.08-27.82-24.19-12.44-4.41-25.32-3.5-14.31-28.8-2.09.15-4.59-.61-6.35.42A22.94,22.94,0,0,1,19.5,5.73c-.84.4-5.23-1.35-6.1-1.2-1.24.83-2.47,2.13-3.86,2.94a37.79,37.79,0,0,1-8.12,3.71c-.22.06-.33.68-.18.85Z"/><path class="cls-3" d="M1,13.86c4.6,2.89,9.39,5.79,13.41,9.47,1.87,1.71,4.07,3.83,4.06,6.56,0,4.64-5.33,10.06-7.3,14-8.52,17.2-6.86,39.61,5,54.94C22.84,107.54,32.92,113,44,111.71c5.39-.61,10.49-2.52,15.44-4.62s10.11-3.93,13.81-7.85c15.64-16.53,6.58-41.47-6.7-56-8-8.74-17.19-13.11-28.22-16.58-3.32-1-7.21-2.27-9-5.56-3-5.61.86-13.86,3-19A1.27,1.27,0,0,0,31.35.17c-1.75,0-3.83-.42-5.54,0-2,.54-3,2.13-4.73,3.17-3.14,1.91-4.87-.82-7.85-.09-1.47.36-3.1,2.29-4.33,3.08-2.28,1.47-6.26,2-8.12,3.71-1.14,1-.89,2.09-.22,3.31.77,1.41,2.93.15,2.16-1.26a74.76,74.76,0,0,0,7.44-3.6C11.63,7.67,13,6.07,14.71,6c1.06,0,2.19.77,3.27.86,1.85.16,2.68-.25,4.36-1.35.82-.54,1.55-1.31,2.39-1.81,2.46-1.5,4-1.05,6.63-1.06L30.27.79C27.64,7,23.41,16.41,27.58,23c2.92,4.58,9.06,5.78,13.87,7.22,22.16,6.66,43.38,32.1,36,56.17-1.65,5.34-4.25,10.55-9,13.74-5,3.35-11.43,5.66-17.15,7.46C37,112,23.82,106.73,15.93,94.2c-10.81-17.14-9.46-38.54,1-55.3,2.17-3.46,5.08-7.32,3.6-11.62-2.43-7-12.55-12-18.27-15.59C.91,10.84-.34,13,1,13.86Z"/><path class="cls-2" d="M31.35,1.42c-2.09.15-4.81-.91-6.35.42A23.41,23.41,0,0,1,19.5,5.73"/><path class="cls-4" d="M25.08,1.82A92.67,92.67,0,0,0,28,31S20.84,13.95,19.62,5.68c-.06.07,1-.55,2.47-1.44C23,3.68,24.07,2.45,25.08,1.82Z"/><path class="cls-4" d="M9.58,7.52S18,24.5,25,31.3c0,0-11.21-18.78-11.65-26.77,0,0-.81.69-1.75,1.4A11.18,11.18,0,0,0,9.58,7.52Z"/><path class="cls-5" d="M28.92,23l-9.5,4.3a.65.65,0,0,1-.86-.34l-.24-.57a.65.65,0,0,1,.33-.84l9.5-4.3a.65.65,0,0,1,.86.34l.24.57A.65.65,0,0,1,28.92,23Z"/><rect class="cls-6" x="18.59" y="24.91" width="12.14" height="1.56" rx="0.3" ry="0.3" transform="translate(-7.58 10.56) rotate(-21.03)"/><path class="cls-6" d="M22.46,41.67a49.9,49.9,0,0,1,.23-15.08c0-.46-.39-.44-.86-.44h-.35a.84.84,0,0,0-.85.83,42.89,42.89,0,0,0-.22,14.42,1.2,1.2,0,0,0,.84,1.1l.73.14C22.45,42.64,22.45,42.13,22.46,41.67Z"/><path class="cls-5" d="M30.32,44.28c-2.95-6.1-6.43-12.54-9.89-18.32-.3-.56.13-.74.61-1l.36-.2a1.08,1.08,0,0,1,1.41.55,145,145,0,0,1,9.31,17c.51,1.16,0,1.9-.76,2.74C30.88,45.35,30.62,44.84,30.32,44.28Z"/><path class="cls-7" d="M56.75,73.19a8.06,8.06,0,0,1-.44,6.55,11,11,0,0,1-5.48,5.11L52,88l-2.3.84-1.15-3.16a11.71,11.71,0,0,1-7.69,0,8.12,8.12,0,0,1-4.69-5.12L43.25,78q1.19,2.53,3.32,2.33l-2.23-6.13a36.38,36.38,0,0,1-3.82.24,13.87,13.87,0,0,1-2.4-.1L36.69,74a4.33,4.33,0,0,1-1.45-.58Q34.69,73,34,72.54a6.91,6.91,0,0,1-1.91-3.06,7.7,7.7,0,0,1,.54-6.76,12.31,12.31,0,0,1,5.69-5l-1.15-3.16,2.3-.84,1.15,3.16a11.4,11.4,0,0,1,7.29-.12Q51,57.9,52.64,61.91l-6.87,2.5a3.45,3.45,0,0,0-3.16-2.12l2.25,6.17a40.57,40.57,0,0,1,5.72-.18A7,7,0,0,1,56.75,73.19ZM40.29,63.06q-2.11,1.25-1.37,3.28a3.4,3.4,0,0,0,3.36,2.18Zm8.58,16.41a2.5,2.5,0,0,0,1.07-3.13,3.27,3.27,0,0,0-3-2.14Z"/></g></g></svg>