<?xml version="1.0" encoding="utf-8"?>
<!-- Generator: Adobe Illustrator 25.2.3, SVG Export Plug-In . SVG Version: 6.00 Build 0)  -->
<svg version="1.1" id="Layer_1" xmlns="http://www.w3.org/2000/svg" xmlns:xlink="http://www.w3.org/1999/xlink" x="0px" y="0px"
	 viewBox="0 0 200 100" style="enable-background:new 0 0 200 100;" xml:space="preserve">
<style type="text/css">
	.st0{fill:#858585;}
	.st1{fill:#989898;}
</style>
<g id="B450YG_4_">
	<g>
		<path class="st0" d="M160.31,32.39c-0.27,0.24-0.55,0.47-0.82,0.71c-2.52-0.14-5.04-0.28-7.57-0.41c0.61-0.22,1.21-0.61,1.82-0.63
			c2.19-0.08,4.38-0.03,6.56-0.04C160.31,32.14,160.31,32.26,160.31,32.39z"/>
		<path class="st1" d="M47.78,61.53c0.95,2.49,1.81,5.02,2.89,7.45c0.6,1.35,0.31,2.05-0.95,2.65c-1.12,0.53-2.18,1.19-3.23,1.85
			c-1.28,0.8-2.16,0.71-2.76-0.84c-2.29-5.93-3.97-12.01-4.04-18.38c-0.08-7.47,2.18-14,8.43-18.74c5.37-4.07,16.31-4.81,22.7,3.12
			c4.88,6.06,4.31,15.57-1.55,21.12c-5.66,5.36-13.81,5.85-19.76,2.15c-0.41-0.26-0.85-0.48-1.28-0.71
			C48.08,61.31,47.93,61.42,47.78,61.53z M67.22,48.43c0.01-5-4-9.07-9.02-9.14c-5.1-0.07-9.2,3.95-9.24,9.07
			c-0.04,5.19,3.92,9.2,9.08,9.19C63.24,57.54,67.21,53.59,67.22,48.43z"/>
		<path class="st1" d="M83.74,50.8c0.25,3.13,3.29,5.93,6.56,6.36c3.44,0.46,6.45-0.42,9.05-2.9c1.21,1.74,2.36,3.28,3.34,4.92
			c0.19,0.32-0.14,1.19-0.5,1.54c-3.6,3.56-11.3,4.42-15.92,2.35c-3.99-1.78-6.97-4.34-8.79-8.25C74.81,49.11,76.04,42,80.44,37.4
			c4.57-4.77,11.8-6.36,17.87-3.91c6.04,2.44,10.03,8.39,9.94,14.84c-0.03,2.26-0.15,2.39-2.51,2.39c-6.6,0-13.2-0.02-19.79-0.03
			C85.21,50.69,84.47,50.76,83.74,50.8z M100.21,44.26c-0.92-3.13-4.67-5.3-8.53-5.18c-3.57,0.12-6.91,2.34-7.57,5.18
			C89.43,44.26,94.73,44.26,100.21,44.26z"/>
		<path class="st1" d="M151.92,32.68c2.52,0.14,5.04,0.28,7.57,0.41c-3.42,4.7-6.81,9.42-10.28,14.08c-0.96,1.29-1.31,2.3-0.19,3.76
			c2.81,3.66,5.45,7.45,8.15,11.2c0.39,0.54,0.74,1.1,1.35,2c-3.01,0-5.62,0.12-8.21-0.08c-0.68-0.05-1.4-0.98-1.91-1.65
			c-1.63-2.13-3.18-4.32-4.93-6.72c-1.28,1.65-2.4,3.11-3.54,4.56c-0.77,0.98-1.53,1.96-2.34,2.9c-0.23,0.27-0.6,0.59-0.9,0.59
			c-2.6,0.05-5.2,0.03-8.29,0.03c1.8-2.46,3.27-4.5,4.77-6.52c1.64-2.2,3.3-4.39,4.99-6.56c0.64-0.82,0.65-1.49,0.01-2.34
			c-0.82-1.1-1.59-2.25-2.18-3.47c-0.28-0.57-0.37-1.56-0.05-2.02c1.11-1.56,2.44-2.96,3.81-4.58c1.13,1.48,2.11,2.74,3.05,4.02
			c0.68,0.92,1.06,1.1,1.88-0.06C146.98,38.97,149.49,35.85,151.92,32.68z"/>
		<path class="st1" d="M136.62,35.53c-1.29,1.52-2.43,3-3.74,4.31c-0.4,0.4-1.4,0.61-1.93,0.41c-7.66-3.05-13.08,2.78-12.87,9.47
			c0.13,4.18-0.02,8.36,0.05,12.54c0.02,1.43-0.43,2.07-1.93,1.98c-1.5-0.09-3.02,0.09-4.51-0.08c-0.53-0.06-1.4-0.81-1.39-1.24
			c0.02-5.8-0.52-11.7,0.41-17.36C112.57,34.13,126.23,28.44,136.62,35.53z"/>
	</g>
</g>
</svg>
