<?xml version="1.0" encoding="iso-8859-1"?>
<!-- Generator: Adobe Illustrator 21.1.0, SVG Export Plug-In . SVG Version: 6.00 Build 0)  -->
<svg version="1.1" id="Layer_1" xmlns="http://www.w3.org/2000/svg" xmlns:xlink="http://www.w3.org/1999/xlink" x="0px" y="0px"
	 viewBox="0 0 565.572 177.756" style="enable-background:new 0 0 565.572 177.756;" xml:space="preserve">
<g>
	<g>
		<path style="fill:#0E303F;" d="M376.731,161.436c2.146,1.617,3.784,5.078,26.036,11.135c13.625,3.709,37.068,4.49,37.905,0.717
			c0.837-3.773-21.126-11.329-34.873-14.38S368.088,154.925,376.731,161.436z"/>
		<path style="fill:#0D2E42;" d="M428.645,177.756c-8.454,0-19.106-1.269-26.403-3.255c-19.872-5.409-23.709-8.822-26.002-10.861
			c-0.256-0.228-0.479-0.431-0.712-0.605c-2.936-2.212-2.897-4.097-2.348-5.289c0.751-1.627,2.964-3.466,13.622-3.151
			c6.225,0.179,13.67,1.084,19.431,2.362c7.205,1.6,16.309,4.35,23.192,7.006c12.438,4.801,13.694,7.528,13.199,9.76
			c-0.138,0.623-0.552,1.515-1.741,2.232C438.808,177.207,434.201,177.756,428.645,177.756z M377.256,159.269
			c0.159,0.153,0.379,0.343,0.679,0.569l0,0c0.314,0.236,0.62,0.506,0.965,0.812c1.896,1.687,5.428,4.828,24.394,9.99
			c12.495,3.4,30.904,3.832,35.004,2.175c-3.017-2.777-18.545-8.763-32.931-11.956C395.903,158.76,380.925,157.709,377.256,159.269z
			"/>
	</g>
	<g>
		<g>
			<path style="fill:#0E303F;" d="M381.117,89.785c-6.927-2.407-17.816-1.665-29.715,20.373c-0.149,0.275-0.28,0.546-0.424,0.82
				c9.206,0.122,17.905,0.237,25.684,0.296C381.917,99.483,384.018,90.793,381.117,89.785z"/>
			<path style="fill:#0D2E42;" d="M376.662,113.274c-0.005,0-0.01,0-0.016,0c-7.981-0.062-16.986-0.181-25.694-0.296
				c-0.694-0.01-1.334-0.378-1.689-0.973c-0.356-0.596-0.379-1.334-0.059-1.949l0.151-0.297c0.093-0.183,0.186-0.365,0.285-0.551
				c9.8-18.148,20.607-25.322,32.134-21.312c0.679,0.235,1.606,0.789,2.166,2.083c1.439,3.324-0.395,10.763-5.451,22.109
				C378.167,112.81,377.451,113.274,376.662,113.274z M354.32,109.022c7.171,0.095,14.427,0.187,21.042,0.241
				c5.195-11.93,5.364-16.657,4.936-17.646C371.382,88.628,362.648,94.478,354.32,109.022z M380.461,91.675L380.461,91.675
				L380.461,91.675z"/>
		</g>
		<g>
			<path style="fill:#0D2E42;" d="M57.584,77.175c0,0-0.015-0.483-0.018-0.723c-0.644-1.124-1.183-2.448-1.617-3.938
				c-0.9-0.207-1.786-0.406-2.649-0.597c-22.842-5.044-70.555-16.987-42.899-2.158c3.477,1.864,24.468,11.771,39.818,16.109
				c3.868,1.093,8.21,2.096,12.754,2.989C58.338,81.71,57.584,77.175,57.584,77.175z"/>
			<path style="fill:#0D2E42;" d="M62.974,90.856c-0.128,0-0.257-0.013-0.386-0.037c-4.793-0.942-9.138-1.96-12.912-3.026
				C34.243,83.431,13.392,73.632,9.456,71.521c-7.835-4.201-10.175-6.434-9.274-8.845c1.296-3.47,7.342-3.189,44.872,5.333
				c3.119,0.708,6.062,1.377,8.677,1.954c0.868,0.191,1.758,0.393,2.664,0.601c0.707,0.161,1.271,0.693,1.474,1.39
				c0.394,1.354,0.876,2.532,1.433,3.504c0.168,0.295,0.259,0.627,0.264,0.966c0.002,0.142,0.008,0.37,0.013,0.525
				c0.154,0.713,1.158,4.784,5.072,10.819c0.437,0.673,0.429,1.543-0.021,2.208C64.254,90.533,63.629,90.856,62.974,90.856z
				 M5.536,64.535c1.078,0.764,2.862,1.88,5.811,3.461c3.345,1.794,24.284,11.67,39.417,15.947c2.479,0.701,5.218,1.381,8.179,2.032
				c-2.748-5.125-3.304-8.31-3.331-8.473c-0.014-0.088-0.023-0.177-0.026-0.266c0,0-0.003-0.108-0.007-0.25
				c-0.443-0.838-0.841-1.768-1.189-2.777c-0.513-0.116-1.021-0.229-1.52-0.34c-2.624-0.579-5.574-1.25-8.701-1.96
				C32.689,69.304,12.564,64.732,5.536,64.535z"/>
		</g>
		<g>
			<path style="fill:#597E8E;" d="M249.197,131.919c-67.025-19.429-4.22-21.717,61.767-21.366
				c-9.091-5.777-18.804-12.308-29.104-19.718c-2.582,3.452-17.105-2.412-34.897-13.247c-18.371-11.189-38.317-35.736-38.317-35.736
				s0.025-0.009,0.047-0.016C140.53,1.858,97.672-4.665,78.741,7.475c-7.373,3.043-15.757,15.594-20.57,31.906
				c-3.863,13.092-4.476,25.394-2.222,33.132c0.434,1.49,0.973,2.813,1.617,3.938c0.004,0.24,0.018,0.723,0.018,0.723
				s0.754,4.535,5.389,11.681c9.649,14.876,36.134,41.079,107.769,61.324c59.995,16.955,200.224,24.082,200.224,24.082
				s27.918-3.2,29.525-10.17c0.702-3.044-1.759-5.704-7.129-8.943c-5.673-0.141-11.163-0.377-16.401-0.72
				C328.886,151.281,260.642,135.237,249.197,131.919z M73.268,84.443c-10.064-2.969-13.488-21.421-7.648-41.213
				c5.84-19.792,18.732-33.43,28.796-30.46s13.488,21.421,7.648,41.213C96.224,73.775,83.331,87.413,73.268,84.443z"/>
			<path style="fill:#0D2E42;" d="M370.966,176.262c-0.034,0-0.067-0.001-0.102-0.003c-1.404-0.071-141.143-7.333-200.667-24.154
				c-31.363-8.863-87.216-28.725-108.903-62.16c-4.807-7.41-5.65-12.24-5.684-12.441c-0.014-0.088-0.023-0.177-0.026-0.266
				c0,0-0.003-0.108-0.007-0.25c-0.605-1.144-1.125-2.457-1.55-3.914c-2.452-8.419-1.621-21.226,2.224-34.258
				C61.087,22.433,69.73,9.166,77.809,5.698c22.386-14.166,70.438-1.633,131.897,34.412c0.336,0.197,0.6,0.483,0.77,0.817
				c2.463,2.973,20.822,24.778,37.528,34.953c21.102,12.85,30.997,14.816,32.271,13.739c0.653-0.872,1.869-1.043,2.754-0.408
				c9.642,6.937,19.401,13.549,29.008,19.654c0.753,0.478,1.098,1.396,0.847,2.251c-0.251,0.854-1.076,1.442-1.93,1.437
				c-26.995-0.143-46.238,0.203-60.566,1.091c-24.651,1.526-27.542,4.436-27.866,4.967c0.201,0.604,2.442,4.201,27.233,11.388
				c11.09,3.215,79.631,19.311,127.338,22.434c5.076,0.334,10.567,0.575,16.319,0.718c0.347,0.008,0.686,0.107,0.983,0.286
				c4.604,2.776,9.16,6.267,8.046,11.105c-1.786,7.744-24.368,10.918-31.247,11.707
				C371.119,176.258,371.043,176.262,370.966,176.262z M59.579,76.951c0.149,0.689,1.147,4.766,5.072,10.817
				c20.974,32.335,75.813,51.776,106.635,60.486c58.175,16.44,194.065,23.711,199.617,24.001c12.763-1.483,26.872-5.284,27.64-8.612
				c0.278-1.209-0.141-3.037-5.766-6.509c-5.611-0.145-10.974-0.384-15.946-0.71c-48.028-3.145-117.026-19.348-128.19-22.584l0,0
				c-27.312-7.917-30.605-12.271-30.095-15.796c0.71-4.906,8.062-9.644,85.58-9.517c-7.417-4.837-14.89-9.949-22.299-15.256
				c-6.648,2.76-24.931-7.294-35.902-13.976c-17.788-10.833-36.597-33.46-38.668-35.985C122.006-6.594,89.743,2.795,79.821,9.159
				c-0.1,0.064-0.207,0.12-0.316,0.165c-6.958,2.872-14.942,15.465-19.415,30.624c-3.583,12.144-4.434,24.407-2.22,32.006
				c0.394,1.354,0.876,2.532,1.433,3.505c0.168,0.294,0.259,0.626,0.264,0.965C59.568,76.565,59.574,76.796,59.579,76.951z
				 M76.132,86.853c-1.167,0-2.313-0.162-3.43-0.492c-5.626-1.659-9.6-7.289-11.188-15.851c-1.501-8.088-0.724-17.978,2.188-27.847
				c6.247-21.171,19.986-35.153,31.28-31.812c11.294,3.332,15.248,22.527,9.001,43.698c-2.912,9.868-7.628,18.596-13.279,24.573
				C85.907,84.195,80.848,86.853,76.132,86.853z M91.554,14.361c-8.525,0-19.048,12.597-24.016,29.436
				c-2.737,9.275-3.48,18.504-2.092,25.983c1.3,7.007,4.279,11.533,8.388,12.745l0,0c4.109,1.213,9.067-0.973,13.962-6.15
				c5.227-5.528,9.612-13.682,12.349-22.958c5.425-18.386,2.542-36.121-6.296-38.729C93.105,14.469,92.337,14.361,91.554,14.361z"/>
		</g>
		<g>
			
				<ellipse transform="matrix(0.283 -0.9591 0.9591 0.283 13.4953 115.2653)" style="fill:#EABC8F;" cx="83.841" cy="48.607" rx="37.364" ry="18.999"/>
			<path style="fill:#0D2E42;" d="M76.132,86.853c-1.167,0-2.313-0.162-3.43-0.492c-5.626-1.659-9.6-7.289-11.188-15.851
				c-1.501-8.088-0.724-17.978,2.188-27.847c6.247-21.171,19.986-35.153,31.28-31.812l0,0c11.294,3.332,15.248,22.527,9.001,43.698
				c-2.912,9.868-7.628,18.596-13.279,24.573C85.907,84.195,80.848,86.853,76.132,86.853z M91.554,14.361
				c-8.525,0-19.048,12.597-24.016,29.436c-2.737,9.275-3.48,18.504-2.092,25.983c1.3,7.007,4.279,11.533,8.388,12.745
				c4.111,1.213,9.067-0.973,13.962-6.15c5.227-5.528,9.612-13.682,12.349-22.958c5.425-18.386,2.542-36.121-6.296-38.729l0,0
				C93.106,14.469,92.337,14.361,91.554,14.361z"/>
		</g>
		<g>
			<path style="fill:#0D2E42;" d="M563.572,132.628c0.087-11.916-115.646-20.833-186.295-21.349
				c-0.203-0.001-0.41-0.003-0.615-0.005c-7.78-0.059-16.479-0.174-25.684-0.296c-12.739-0.169-26.442-0.353-40.013-0.425
				c-65.987-0.35-128.792,1.937-61.767,21.366c11.445,3.318,79.688,19.362,127.764,22.509c5.237,0.343,10.727,0.579,16.401,0.72
				C464.062,156.904,563.491,143.658,563.572,132.628z"/>
			<path style="fill:#0D2E42;" d="M406.623,157.308c-4.531,0-8.971-0.052-13.311-0.16c-5.806-0.144-11.352-0.388-16.481-0.724
				c-48.028-3.145-117.026-19.348-128.19-22.584c-27.312-7.917-30.605-12.271-30.095-15.796c0.73-5.047,8.473-9.926,92.429-9.491
				c13.479,0.071,26.835,0.249,39.75,0.421l0.279,0.004c8.703,0.115,17.702,0.235,25.673,0.296l0.619,0.005
				c36.621,0.268,83.668,2.783,119.854,6.409c20.195,2.023,36.243,4.275,47.698,6.692c18.299,3.861,20.745,7.354,20.724,10.262
				c-0.009,1.211-0.574,2.368-1.68,3.438C552.989,146.64,471.484,157.308,406.623,157.308z M222.521,118.611
				c0.201,0.604,2.442,4.201,27.233,11.388c11.09,3.215,79.631,19.311,127.338,22.434c5.076,0.334,10.567,0.575,16.319,0.718
				c32.629,0.803,73.825-1.548,110.183-6.306c46.248-6.054,57.505-12.295,57.974-14.226c-0.165-0.493-3.532-6.906-66.276-13.096
				c-36.346-3.586-81.572-5.979-118.029-6.244l-0.61-0.005c-7.987-0.062-16.992-0.181-25.7-0.296l-0.28-0.004
				c-12.907-0.172-26.254-0.351-39.718-0.421c-26.986-0.14-46.238,0.203-60.566,1.091
				C225.736,115.171,222.845,118.081,222.521,118.611z M561.574,132.64h0.011H561.574z"/>
		</g>
		<g>
			<path style="fill:#EABC8F;" d="M246.964,77.588c17.792,10.836,32.315,16.699,34.897,13.247c0.084-0.112,0.156-0.234,0.214-0.367
				c3.673-8.319,3.852-21.853-22.187-38.78c-27.43-17.831-50.213-10.195-51.194-9.853c-0.022,0.008-0.047,0.016-0.047,0.016
				S228.593,66.4,246.964,77.588z"/>
			<path style="fill:#0D2E42;" d="M279.071,93.739c-8.039,0-23.449-8.536-33.147-14.442h0
				c-18.453-11.238-38.005-35.17-38.829-36.184c-0.412-0.506-0.55-1.182-0.371-1.809c0.179-0.628,0.652-1.129,1.269-1.342
				c1.039-0.363,24.756-8.301,52.985,10.05c21.214,13.79,28.928,27.674,22.927,41.264c-0.118,0.269-0.268,0.523-0.442,0.758
				C282.571,93.225,281.043,93.739,279.071,93.739z M248.004,75.881c21.105,12.852,31,14.816,32.271,13.739
				c5.06-11.483-2.156-23.694-21.477-36.254c-21.385-13.901-39.744-11.892-46.603-10.401
				C217.669,49.355,233.464,67.024,248.004,75.881L248.004,75.881z"/>
		</g>
	</g>
</g>
</svg>
