<?xml version="1.0" encoding="iso-8859-1"?>
<!-- Generator: Adobe Illustrator 21.1.0, SVG Export Plug-In . SVG Version: 6.00 Build 0)  -->
<svg version="1.1" id="Layer_1" xmlns="http://www.w3.org/2000/svg" xmlns:xlink="http://www.w3.org/1999/xlink" x="0px" y="0px"
	 viewBox="0 0 50 50" style="enable-background:new 0 0 50 50;" xml:space="preserve">
<g>
	<path style="fill:#0E303F;" d="M-61.695,31.281c-2.029-6.686-4.234-12.196-5.481-13.886c1.928-0.798,6.886-4.66,12.339-9.697
		c6.604-6.101,5.655-6.279,5.007-6.981c-0.648-0.702-0.751-1.662-7.355,4.439c-4.565,4.218-8.281,8.155-9.926,10.416
		c-0.199-2.314-1.186-6.501-2.704-11.179c-2.245-6.919-2.838-6.236-3.747-5.942s-1.789,0.091,0.456,7.01
		c1.831,5.643,3.87,10.255,5.052,11.604c-0.001,0.002-0.002,0.005-0.003,0.007c-0.71-0.521-5.477,2.576-10.793,7.026
		c-5.418,4.535-4.614,4.79-4.05,5.463c0.564,0.673,0.673,1.509,6.091-3.026c4.383-3.669,7.796-7.133,8.641-8.679
		c-0.033,2.222,1.184,7.907,3.163,14.429c2.499,8.237,3.08,7.484,3.995,7.207C-60.097,39.215-59.196,39.518-61.695,31.281z"/>
	<path style="fill:#0D2E42;" d="M-61.616,40.019c-0.146,0-0.302-0.031-0.468-0.116c-0.733-0.376-1.537-1.763-3.28-7.508
		c-1.672-5.512-2.854-10.624-3.122-13.408c-1.423,1.844-4.467,4.808-8.085,7.836c-3.745,3.135-4.953,3.719-5.689,3.641
		c-0.44-0.046-0.672-0.339-0.841-0.554c-0.028-0.036-0.057-0.072-0.087-0.108c-0.03-0.036-0.061-0.071-0.091-0.105
		c-0.181-0.204-0.43-0.483-0.397-0.925c0.054-0.738,0.84-1.825,4.585-4.96c2.578-2.158,5.121-4.077,7.16-5.404
		c1.619-1.053,2.573-1.512,3.153-1.685c-1.261-1.89-3.071-6.172-4.685-11.147c-1.535-4.729-1.612-6.146-1.257-6.819
		c0.221-0.419,0.595-0.528,0.895-0.616c0.048-0.014,0.097-0.028,0.146-0.044c0.049-0.016,0.097-0.033,0.144-0.05
		c0.295-0.105,0.661-0.236,1.086-0.027c0.683,0.336,1.452,1.529,2.987,6.258c1.297,3.997,2.261,7.826,2.613,10.332
		c1.909-2.408,5.41-6.033,9.408-9.727c4.625-4.273,6.067-5.101,6.902-5.055c0.452,0.026,0.7,0.314,0.881,0.524
		c0.032,0.037,0.065,0.075,0.099,0.113c0.034,0.037,0.07,0.073,0.104,0.108c0.195,0.197,0.462,0.466,0.452,0.92
		c-0.018,0.833-0.959,2.208-5.584,6.481c-5.077,4.69-9.793,8.435-12.037,9.576c1.332,2.103,3.406,7.436,5.284,13.624l0,0
		c1.743,5.746,1.845,7.346,1.445,8.065c-0.222,0.4-0.579,0.495-0.866,0.571c-0.048,0.013-0.096,0.026-0.145,0.04
		c-0.049,0.015-0.096,0.031-0.143,0.047C-61.213,39.954-61.403,40.019-61.616,40.019z M-68.17,17.484
		c0.032,0,0.064,0.004,0.095,0.012c0.166,0.044,0.281,0.195,0.278,0.366c-0.033,2.249,1.232,8.001,3.147,14.315
		c0.859,2.832,2.095,6.645,2.906,7.061c0.115,0.059,0.211,0.035,0.456-0.048c0.055-0.019,0.11-0.037,0.167-0.055
		c0.057-0.017,0.113-0.032,0.169-0.047c0.25-0.067,0.343-0.1,0.406-0.213c0.443-0.796-0.648-4.654-1.507-7.485
		c-1.949-6.423-4.179-12.086-5.424-13.772c-0.068-0.092-0.09-0.211-0.059-0.322c0.031-0.111,0.111-0.201,0.217-0.245
		c1.929-0.799,6.958-4.758,12.228-9.627c2.285-2.111,5.324-5.024,5.345-5.949c0.003-0.125-0.059-0.199-0.236-0.378
		c-0.041-0.041-0.082-0.083-0.122-0.127c-0.04-0.044-0.079-0.088-0.117-0.132c-0.164-0.191-0.233-0.258-0.358-0.265
		c-0.926-0.047-4.068,2.747-6.353,4.858c-4.401,4.066-8.186,8.036-9.878,10.361c-0.092,0.126-0.252,0.182-0.402,0.14
		c-0.15-0.042-0.258-0.172-0.272-0.328c-0.204-2.364-1.233-6.616-2.687-11.096c-1.179-3.632-2.031-5.535-2.607-5.818
		c-0.13-0.064-0.242-0.034-0.506,0.06c-0.054,0.019-0.108,0.039-0.164,0.057c-0.056,0.018-0.111,0.034-0.166,0.05
		c-0.269,0.079-0.378,0.121-0.445,0.249c-0.299,0.567,0.128,2.608,1.307,6.24c1.758,5.417,3.805,10.135,4.978,11.473
		c0.094,0.107,0.119,0.258,0.064,0.39c-0.044,0.106-0.136,0.189-0.246,0.219c-0.102,0.028-0.211,0.015-0.3-0.04
		c-0.668-0.129-4.711,2.271-10.355,6.996c-1.052,0.881-4.255,3.562-4.32,4.442c-0.009,0.116,0.048,0.191,0.211,0.374
		c0.035,0.04,0.071,0.08,0.106,0.122c0.035,0.042,0.068,0.084,0.101,0.125c0.152,0.193,0.215,0.261,0.331,0.273
		c0.879,0.086,4.081-2.59,5.133-3.471c4.198-3.514,7.715-7.039,8.553-8.572C-68.431,17.556-68.304,17.484-68.17,17.484z"/>
</g>
<g>
	<path style="fill:#597E8E;" d="M-69.28,16.984c-0.203,0.689,0.19,1.412,0.879,1.615c0.689,0.203,1.105-0.404,1.308-1.093
		c0.203-0.689,0.116-1.198-0.572-1.401C-68.354,15.901-69.077,16.295-69.28,16.984z"/>
	<path style="fill:#0D2E42;" d="M-68.134,19.013c-0.12,0-0.245-0.019-0.373-0.056c-0.885-0.261-1.393-1.194-1.132-2.079c0,0,0,0,0,0
		c0.127-0.429,0.412-0.783,0.805-0.996c0.393-0.214,0.845-0.262,1.274-0.135c0.577,0.17,1.189,0.632,0.825,1.865
		C-67.001,18.514-67.51,19.013-68.134,19.013z M-68.922,17.089c-0.145,0.49,0.137,1.007,0.627,1.151
		c0.453,0.133,0.71-0.383,0.845-0.84c0.212-0.717-0.02-0.849-0.32-0.938C-68.261,16.319-68.778,16.599-68.922,17.089L-68.922,17.089
		z"/>
</g>
<g>
	<path style="fill:#0D2E42;" d="M25,26.923L25,26.923c1.058,0,1.923-9.891,1.923-10.535V1.171C26.923,0.527,26.058,0,25,0h0
		c-1.058,0-1.923,0.527-1.923,1.171v15.217C23.077,17.032,23.942,26.923,25,26.923z"/>
	<path style="fill:#0D2E42;" d="M25,23.077L25,23.077c-1.058,0-1.923,9.891-1.923,10.535v15.217C23.077,49.473,23.942,50,25,50h0
		c1.058,0,1.923-0.527,1.923-1.171V33.612C26.923,32.968,26.058,23.077,25,23.077z"/>
</g>
<g>
	<path style="fill:#0D2E42;" d="M23.077,25L23.077,25c0,1.058,9.891,1.923,10.535,1.923h15.217C49.473,26.923,50,26.058,50,25v0
		c0-1.058-0.527-1.923-1.171-1.923H33.612C32.968,23.077,23.077,23.942,23.077,25z"/>
	<path style="fill:#0D2E42;" d="M26.923,25L26.923,25c0-1.058-9.891-1.923-10.535-1.923H1.171C0.527,23.077,0,23.942,0,25v0
		c0,1.058,0.527,1.923,1.171,1.923h15.217C17.032,26.923,26.923,26.058,26.923,25z"/>
</g>
</svg>
