<?xml version="1.0" encoding="utf-8"?>
<!-- Generator: Adobe Illustrator 25.2.3, SVG Export Plug-In . SVG Version: 6.00 Build 0)  -->
<svg version="1.1" id="Layer_1" xmlns="http://www.w3.org/2000/svg" xmlns:xlink="http://www.w3.org/1999/xlink" x="0px" y="0px"
	 viewBox="0 0 200 100" style="enable-background:new 0 0 200 100;" xml:space="preserve">
<style type="text/css">
	.st0{fill:#9B9C9C;}
</style>
<g>
	<path class="st0" d="M41.07,81.24c0-0.31,0-0.61,0-0.92c0-13.38,0-26.76-0.01-40.15c0-0.61,0.04-1.06,0.62-1.42
		c8.36-5.17,16.7-10.38,25.05-15.58c0.07-0.04,0.15-0.08,0.39-0.2C58.45,42.51,49.84,61.9,41.24,81.28
		C41.18,81.27,41.12,81.25,41.07,81.24z"/>
	<path class="st0" d="M12.05,22.94c1.89,1.18,3.58,2.25,5.27,3.31c6.66,4.18,13.32,8.36,19.99,12.52c0.48,0.3,0.71,0.58,0.71,1.25
		C37.99,53.51,38,66.99,38,80.47c0,0.18-0.02,0.35-0.16,0.56C29.28,61.75,20.71,42.46,12.05,22.94z"/>
	<path class="st0" d="M142.23,44.75c1.21,1.36,2.55,2.86,3.97,4.44c0-0.9,0-1.75,0-2.66c5.92,0,11.75,0,17.62,0
		c0,1.89,0,3.73,0,5.66c-4.96,0-9.9,0-14.83,0c1.18,1.34,2.34,2.66,3.5,3.97c-0.05,0.09-0.1,0.18-0.14,0.27
		c-0.21,0.02-0.41,0.07-0.62,0.07c-2.01,0.01-4.01,0.04-6.02-0.03c-0.45-0.02-0.99-0.28-1.32-0.64c-2.87-3.19-5.71-6.4-8.51-9.67
		c-0.69-0.81-1.38-1.28-2.38-1.1c-0.33,0.06-0.68,0.01-1.09,0.01c0,2.36,0,4.66,0,7.05c-1.71,0-3.34,0-5.04,0c0-6.6,0-13.19,0-19.95
		c0.27,0,0.54,0,0.81,0c3.47,0,6.93,0,10.4,0c0.46,0,0.92,0.01,1.37,0.08c4.11,0.65,6.42,5.72,4.43,9.9
		C143.92,43.15,142.99,43.86,142.23,44.75z M132.42,39.3c2.24,0,4.44,0.02,6.64-0.03c0.29-0.01,0.57-0.4,0.85-0.62
		c-0.27-0.24-0.53-0.68-0.8-0.69c-2.22-0.06-4.45-0.03-6.69-0.03C132.42,38.42,132.42,38.83,132.42,39.3z"/>
	<path class="st0" d="M14.59,20.12c16.72,0,33.24,0,49.98,0c-0.47,0.31-0.75,0.51-1.03,0.68C55.77,25.64,48,30.48,40.23,35.34
		c-0.54,0.34-0.93,0.34-1.47,0c-7.9-4.98-15.82-9.93-23.73-14.89C14.93,20.39,14.85,20.31,14.59,20.12z"/>
	<path class="st0" d="M180.93,68.03c1.31,0.61,1.69,1.23,1.68,2.87c0,0.62-0.02,1.24-0.12,1.84c-0.5,3.18-2.16,4.95-4.99,5.17
		c-1.68,0.13-3.37,0.07-5.06,0.08c-2.38,0.01-4.75,0-7.13,0c-0.06,0-0.11-0.02-0.25-0.03c0-6.61,0-13.22,0-19.99
		c0.24,0,0.51,0,0.79,0c3.46,0,6.93,0,10.39,0c0.46,0,0.92,0.01,1.37,0.08c3.59,0.56,5.65,3.88,4.95,7.94
		C182.4,66.91,182.12,67.26,180.93,68.03z M170.07,65.08c2.26,0,4.49,0.02,6.71-0.03c0.27-0.01,0.52-0.44,0.79-0.68
		c-0.26-0.21-0.51-0.61-0.78-0.61c-2.23-0.05-4.45-0.03-6.72-0.03C170.07,64.21,170.07,64.62,170.07,65.08z M170.06,72.26
		c2.27,0,4.44,0.03,6.61-0.03c0.3-0.01,0.6-0.44,0.9-0.67c-0.31-0.23-0.61-0.64-0.92-0.65c-1.43-0.07-2.86-0.04-4.3-0.04
		c-0.76,0-1.52,0-2.3,0C170.06,71.38,170.06,71.77,170.06,72.26z"/>
	<path class="st0" d="M88.25,32.18c0,1.94,0,3.76,0,5.71c-0.33,0-0.63,0-0.94,0c-3.38,0-6.76-0.01-10.14,0.01
		c-0.56,0-1.44-0.19-1.42,0.75c0.02,0.84,0.87,0.66,1.41,0.67c2.03,0.03,4.07,0,6.1,0.01c3.42,0.03,5.04,1.91,5.01,5.81
		c0,0.62-0.03,1.24-0.12,1.85c-0.45,3.06-2.18,4.99-4.96,5.1c-4.09,0.16-8.19,0.07-12.28,0.08c-0.05,0-0.1-0.04-0.21-0.08
		c0-1.82,0-3.66,0-5.62c0.32,0,0.63,0,0.93,0c3.41,0,6.82,0.01,10.23-0.01c0.51,0,1.3,0.2,1.31-0.65c0.01-0.91-0.8-0.73-1.34-0.74
		c-2.23-0.07-4.48,0.04-6.69-0.2c-3.1-0.34-4.54-2.38-4.49-5.91c0.07-4.32,2.06-6.7,5.83-6.77C80.37,32.12,84.26,32.18,88.25,32.18z
		"/>
	<path class="st0" d="M146.14,77.92c0-3.83-0.1-7.57,0.02-11.31c0.16-4.94,2.53-7.86,6.82-8.46c1.51-0.21,3.1-0.17,4.61,0.12
		c3.56,0.69,5.69,3.21,5.98,7.53c0.27,4,0.06,8.05,0.06,12.14c-1.59,0-3.21,0-4.91,0c0-1.36,0-2.71,0-4.13c-2.55,0-5.02,0-7.58,0
		c0,1.39,0,2.74,0,4.11C149.41,77.92,147.77,77.92,146.14,77.92z M158.64,67.93c0.09-2.82-1.37-4.35-3.96-4.23
		c-2.35,0.11-3.71,1.77-3.43,4.23C153.68,67.93,156.12,67.93,158.64,67.93z"/>
	<path class="st0" d="M121.12,42.98c1.62,0,3.24,0,4.85,0c0.28,4.66-1.84,7.72-4.99,8.7c-2.28,0.7-4.59,0.75-6.88,0.13
		c-3.05-0.82-4.93-3.06-5.38-6.54c-0.26-2.03-0.27-4.17,0.01-6.2c0.48-3.56,2.43-5.79,5.58-6.55c2.48-0.6,4.96-0.55,7.36,0.45
		c2.96,1.24,4.73,4.72,4.3,8.36c-1.61,0-3.23,0-4.85,0c-0.56-2.73-1.86-3.73-4.44-3.42c-2.18,0.27-3.22,1.65-3.21,4.3
		c0.01,2.51,1.04,3.96,3,4.22C119.27,46.8,120.54,45.86,121.12,42.98z"/>
	<path class="st0" d="M182.7,37.89c-2.09,0-4.09,0-6.22,0c0,4.77,0,9.49,0,14.26c-1.74,0-3.36,0-5.07,0c0-4.74,0-9.44,0-14.25
		c-2.13,0-4.18,0-6.27,0c0-1.95,0-3.79,0-5.68c5.86,0,11.69,0,17.55,0C182.7,34.1,182.7,35.94,182.7,37.89z"/>
	<path class="st0" d="M132.21,72.28c4.27,0,8.38,0,12.55,0c0,1.91,0,3.75,0,5.66c-5.83,0-11.65,0-17.52,0c0-6.64,0-13.24,0-19.9
		c1.63,0,3.24,0,4.96,0C132.21,62.73,132.21,67.43,132.21,72.28z"/>
	<path class="st0" d="M163.83,32.24c0,1.87,0,3.69,0,5.58c-5.84,0-11.66,0-17.55,0c0-1.83,0-3.67,0-5.58
		C152.1,32.24,157.92,32.24,163.83,32.24z"/>
	<path class="st0" d="M146.26,45.01c0-1.87,0-3.71,0-5.61c5.85,0,11.68,0,17.55,0c0,1.88,0,3.72,0,5.61
		C157.96,45.01,152.14,45.01,146.26,45.01z"/>
	<path class="st0" d="M107.11,52.16c-5.87,0-11.67,0-17.51,0c0-1.88,0-3.72,0-5.62c5.83,0,11.65,0,17.51,0
		C107.11,48.4,107.11,50.24,107.11,52.16z"/>
	<path class="st0" d="M107.1,45.02c-5.83,0-11.63,0-17.49,0c0-1.87,0-3.73,0-5.64c5.84,0,11.63,0,17.49,0
		C107.1,41.26,107.1,43.12,107.1,45.02z"/>
	<path class="st0" d="M107.12,32.23c0,1.86,0,3.68,0,5.58c-5.82,0-11.64,0-17.52,0c0-1.84,0-3.67,0-5.58
		C95.41,32.23,101.21,32.23,107.12,32.23z"/>
</g>
</svg>
