<svg id="Layer_1" data-name="Layer 1" xmlns="http://www.w3.org/2000/svg" viewBox="0 0 512.8 397.96"><defs><style>.cls-1{fill:#97b1ba;}.cls-1,.cls-2,.cls-3,.cls-4,.cls-6{stroke:#0d2e42;stroke-linecap:round;}.cls-1,.cls-2,.cls-3,.cls-6{stroke-linejoin:round;stroke-width:4px;}.cls-2,.cls-4{fill:none;}.cls-3{fill:#eabc8f;}.cls-4{stroke-miterlimit:10;stroke-width:1.88px;}.cls-5{fill:#eebe84;}.cls-6{fill:#597e8e;}</style></defs><title>Untitled-3</title><path class="cls-1" d="M401.78,91.94l-.1-.11a41.91,41.91,0,0,0-4.07-3.78l-.08-.07q-1-.85-2.16-1.64l-.16-.12a49.05,49.05,0,0,0-4.84-3L390,83c-.8-.43-1.62-.85-2.46-1.24l-.1,0q-1.33-.62-2.71-1.18l-.41-.16q-1.16-.46-2.36-.87l-.57-.19q-2.78-.92-5.72-1.58l-.75-.16q-1.21-.26-2.45-.47l-.58-.1q-1.49-.24-3-.41l-.69-.07q-1.22-.12-2.45-.2l-.87,0c-1-.05-2.09-.08-3.14-.08a63.57,63.57,0,0,0-14.41,1.63c-10.11-20.44-36.09-35-66.54-35-1.36,0-2.7,0-4,.09l-1.28.07c-.91.05-1.82.11-2.71.19l-1.47.14q-1.26.13-2.5.29l-1.46.2c-.85.12-1.7.26-2.54.41l-1.29.23q-1.58.3-3.13.66l-.6.13q-1.85.43-3.65.95l-1,.3c-.86.25-1.72.52-2.57.79l-1.25.43q-1.14.39-2.25.82l-1.25.49q-1.12.45-2.21.92l-1.13.49c-.85.38-1.68.78-2.5,1.19l-.71.34q-1.58.81-3.11,1.68l-.6.35q-1.2.7-2.37,1.44l-.94.62q-1,.64-1.92,1.31l-1,.7q-.91.67-1.79,1.37l-.88.7c-.64.53-1.27,1.07-1.88,1.61l-.62.54q-1.23,1.12-2.38,2.29l0,0h0c-8.82,9-14,20.13-14,32.2,0,.15,0,.3,0,.45q-2-.28-4.14-.39h-.26c-.68,0-1.35-.05-2-.05-16.2,0-29.86,8.24-34.14,19.49a30.11,30.11,0,0,0-9.07-1.37c-13,0-23.59,8-23.59,17.91,0,.37,0,.74,0,1.1,0,.1,0,.21,0,.31q0,.42.11.83c0,.09,0,.19,0,.28a14.13,14.13,0,0,0,.58,2.16l.05.15q.18.48.39,1l0,.11a16.23,16.23,0,0,0,1.88,3.1h0c4.09,5.33,11.69,8.92,20.4,8.92H361.72c27.11,0,49.09-16.68,49.09-37.27C410.81,105.45,407.46,98,401.78,91.94Z"/><path class="cls-1" d="M270.12,308.44a21.55,21.55,0,0,0,1.72-3.74l0-.14q.19-.57.36-1.15l0-.17a21.54,21.54,0,0,0,.53-2.61c0-.11,0-.23,0-.34q.06-.5.1-1c0-.12,0-.25,0-.37,0-.44,0-.89,0-1.33a21.67,21.67,0,0,0-30-20A32.63,32.63,0,0,0,211.72,254c-.63,0-1.25,0-1.87.06l-.24,0a33.33,33.33,0,0,0-3.8.47c0-.18,0-.36,0-.54a65,65,0,0,0-12.89-38.94h0l0,0-.22-.29q-.75-1-1.53-1.95l-.37-.46q-.84-1-1.72-2l-.45-.49c-.6-.65-1.21-1.3-1.84-1.93l-.29-.29q-.88-.87-1.79-1.71l-.39-.36q-1-.89-2-1.73l-.5-.41c-.69-.56-1.39-1.12-2.1-1.65l-.35-.26q-1-.75-2.05-1.46l-.37-.26c-.75-.5-1.5-1-2.27-1.46l-.52-.32q-1.16-.7-2.35-1.35l-.4-.21q-1.14-.61-2.31-1.18l-.32-.16c-.83-.4-1.67-.77-2.51-1.14l-.54-.23q-1.27-.53-2.56-1l-.44-.16q-1.27-.46-2.56-.87l-.24-.08c-.9-.28-1.81-.53-2.73-.78l-.55-.14q-1.36-.34-2.73-.63l-.49-.1c-.92-.18-1.85-.35-2.79-.5l-.14,0c-1-.15-1.94-.27-2.91-.37l-.55-.06q-1.43-.14-2.87-.22l-.54,0c-1,0-2-.08-3-.08a65.26,65.26,0,0,0-61.1,42.32,45,45,0,0,0-13.23-2c-.69,0-1.38,0-2.07.05l-.56,0q-.86,0-1.72.13l-.35,0c-.66.07-1.32.15-2,.25l-.53.08-1.54.27L57,230q-.95.2-1.88.43l-.49.13L53.2,231l-.62.19c-.59.19-1.18.38-1.76.59l-.43.16L49,232.5l-.69.29-1.2.54-.7.33q-.7.34-1.39.71l-.75.41-.91.52-.75.45q-.68.42-1.35.87l-.81.56-.69.49-.84.62-.59.46q-.75.59-1.48,1.22l-.49.42-.87.79-.37.35q-.85.81-1.67,1.67l-.23.24q-.44.47-.87,1l-.26.3q-1.34,1.55-2.54,3.23l-.19.26q-1.21,1.72-2.27,3.55L27,252a45.06,45.06,0,0,0,39.23,67.26H251.39a21.65,21.65,0,0,0,18.73-10.79h0Z"/><line class="cls-2" x1="226.98" y1="109.31" x2="226.98" y2="26.48"/><line class="cls-2" x1="197.8" y1="109.31" x2="198.74" y2="6.71"/><polyline class="cls-2" points="266.28 7.88 266.75 24.83 266.52 24.59 249.57 25.06 249.57 25.53 249.57 113.08"/><circle class="cls-3" cx="266.52" cy="7.18" r="5.18"/><line class="cls-2" x1="120.61" y1="139.44" x2="71.66" y2="139.44"/><line class="cls-2" x1="133.79" y1="201.57" x2="84.84" y2="201.57"/><line class="cls-2" x1="71.66" y1="157.32" x2="71.66" y2="120.61"/><circle class="cls-3" cx="71.66" cy="158.73" r="5.18"/><line class="cls-2" x1="84.84" y1="224.16" x2="84.84" y2="201.57"/><line class="cls-2" x1="84.84" y1="224.16" x2="46.24" y2="224.16"/><line class="cls-2" x1="45.79" y1="224.16" x2="21.77" y2="202.51"/><circle class="cls-3" cx="21.3" cy="202.04" r="5.18"/><polyline class="cls-2" points="6.71 290.05 69.78 290.05 69.78 267.46 118.73 267.46"/><circle class="cls-3" cx="7.18" cy="290.52" r="5.18"/><line class="cls-4" x1="324.88" y1="266.52" x2="415.25" y2="266.52"/><circle class="cls-5" cx="415.72" cy="266.05" r="5.18"/><line class="cls-2" x1="343.71" y1="193.09" x2="434.08" y2="193.09"/><circle class="cls-3" cx="435.49" cy="193.56" r="5.18"/><line class="cls-2" x1="410.57" y1="194.04" x2="410.57" y2="235.46"/><circle class="cls-3" cx="410.55" cy="234.98" r="5.18"/><line class="cls-2" x1="380.42" y1="194.04" x2="380.42" y2="213.8"/><circle class="cls-3" cx="380.42" cy="213.33" r="5.18"/><polyline class="cls-2" points="505.62 130.97 476.44 130.97 476.44 155.44 435.02 155.44 435.02 114.02 434.08 136.61 343.71 136.61"/><circle class="cls-3" cx="505.62" cy="130.96" r="5.18"/><circle class="cls-3" cx="435.49" cy="113.55" r="5.18"/><line class="cls-2" x1="71.42" y1="120.38" x2="39.37" y2="120.38"/><circle class="cls-3" cx="35.82" cy="120.38" r="5.18"/><polyline class="cls-2" points="176.27 288.65 175.33 391.25 209.22 391.25"/><circle class="cls-3" cx="208.75" cy="390.78" r="5.18"/><line class="cls-2" x1="248.34" y1="297.26" x2="248.34" y2="380.1"/><circle class="cls-3" cx="248.34" cy="380.1" r="5.18"/><rect class="cls-6" x="128.22" y="158.23" width="207.12" height="83.07"/><rect class="cls-6" x="117.14" y="104.87" width="230.38" height="62.41" rx="7.58" ry="7.58"/><circle class="cls-3" cx="145.2" cy="136.07" r="9.04"/><line class="cls-3" x1="149.58" y1="136.07" x2="140.83" y2="136.07"/><circle class="cls-3" cx="172.14" cy="136.07" r="9.04"/><line class="cls-3" x1="176.52" y1="136.07" x2="167.77" y2="136.07"/><circle class="cls-3" cx="199.08" cy="136.07" r="9.04"/><line class="cls-3" x1="203.46" y1="136.07" x2="194.71" y2="136.07"/><rect class="cls-6" x="267.77" y="123.33" width="2.22" height="25.47" rx="1" ry="1"/><rect class="cls-6" x="278.85" y="123.33" width="2.22" height="25.47" rx="1" ry="1"/><rect class="cls-6" x="289.92" y="123.33" width="2.22" height="25.47" rx="1" ry="1"/><rect class="cls-6" x="301" y="123.33" width="2.22" height="25.47" rx="1" ry="1"/><rect class="cls-6" x="312.07" y="123.33" width="2.22" height="25.47" rx="1" ry="1"/><rect class="cls-6" x="323.15" y="123.33" width="2.22" height="25.47" rx="1" ry="1"/><rect class="cls-6" x="117.14" y="170.6" width="230.38" height="62.41" rx="7.58" ry="7.58"/><circle class="cls-3" cx="145.2" cy="201.8" r="9.04"/><line class="cls-3" x1="149.58" y1="201.8" x2="140.83" y2="201.8"/><circle class="cls-3" cx="172.14" cy="201.8" r="9.04"/><line class="cls-3" x1="176.52" y1="201.8" x2="167.77" y2="201.8"/><circle class="cls-3" cx="199.08" cy="201.8" r="9.04"/><line class="cls-3" x1="203.46" y1="201.8" x2="194.71" y2="201.8"/><rect class="cls-6" x="267.77" y="189.06" width="2.22" height="25.47" rx="1" ry="1"/><rect class="cls-6" x="278.85" y="189.06" width="2.22" height="25.47" rx="1" ry="1"/><rect class="cls-6" x="289.92" y="189.06" width="2.22" height="25.47" rx="1" ry="1"/><rect class="cls-6" x="301" y="189.06" width="2.22" height="25.47" rx="1" ry="1"/><rect class="cls-6" x="312.07" y="189.06" width="2.22" height="25.47" rx="1" ry="1"/><rect class="cls-6" x="323.15" y="189.06" width="2.22" height="25.47" rx="1" ry="1"/><rect class="cls-6" x="117.14" y="236.33" width="230.38" height="62.41" rx="7.58" ry="7.58"/><circle class="cls-3" cx="145.2" cy="267.53" r="9.04"/><line class="cls-3" x1="149.58" y1="267.53" x2="140.83" y2="267.53"/><circle class="cls-3" cx="172.14" cy="267.53" r="9.04"/><line class="cls-3" x1="176.52" y1="267.53" x2="167.77" y2="267.53"/><circle class="cls-3" cx="199.08" cy="267.53" r="9.04"/><line class="cls-3" x1="203.46" y1="267.53" x2="194.71" y2="267.53"/><rect class="cls-6" x="267.77" y="254.79" width="2.22" height="25.47" rx="1" ry="1"/><rect class="cls-6" x="278.85" y="254.79" width="2.22" height="25.47" rx="1" ry="1"/><rect class="cls-6" x="289.92" y="254.79" width="2.22" height="25.47" rx="1" ry="1"/><rect class="cls-6" x="301" y="254.79" width="2.22" height="25.47" rx="1" ry="1"/><rect class="cls-6" x="312.07" y="254.79" width="2.22" height="25.47" rx="1" ry="1"/><rect class="cls-6" x="323.15" y="254.79" width="2.22" height="25.47" rx="1" ry="1"/><path class="cls-1" d="M495.07,294.06l-.16-.22q-1.27-1.83-2.74-3.55l-.22-.26q-1.45-1.67-3.08-3.23l-.32-.3-1-1-.28-.24q-1-.86-2-1.67l-.44-.35-1.05-.79-.59-.42q-.88-.63-1.79-1.22l-.7-.46-1-.62-.84-.49-1-.56q-.81-.45-1.64-.87l-.91-.45-1.1-.52-.9-.41q-.83-.37-1.68-.71l-.85-.33-1.45-.54-.83-.29-1.65-.54-.51-.16c-.7-.21-1.41-.41-2.12-.59l-.75-.19-1.72-.41-.59-.13q-1.12-.24-2.27-.43l-.62-.1-1.86-.27-.64-.08c-.79-.1-1.59-.18-2.39-.25l-.43,0q-1-.08-2.08-.13l-.67,0c-.83,0-1.66-.05-2.5-.05a65.06,65.06,0,0,0-16,2c-11.22-24.72-40.06-42.32-73.87-42.32-1.23,0-2.45,0-3.67.08l-.65,0q-1.75.08-3.47.22l-.67.06c-1.18.1-2.36.22-3.52.37l-.17,0c-1.13.15-2.26.31-3.38.5l-.6.1q-1.66.29-3.3.63l-.67.14c-1.11.24-2.21.5-3.3.77l-.29.08q-1.56.41-3.09.87l-.54.16q-1.56.48-3.09,1l-.65.23c-1,.36-2,.74-3,1.14l-.39.16q-1.41.57-2.79,1.18l-.49.21q-1.44.65-2.83,1.35l-.64.32q-1.39.71-2.74,1.46l-.45.26q-1.26.71-2.48,1.46l-.43.26c-.86.54-1.71,1.09-2.54,1.65l-.6.41q-1.23.85-2.42,1.73l-.47.36q-1.1.84-2.16,1.71l-.35.29c-.76.63-1.49,1.27-2.22,1.93l-.54.49q-1.06,1-2.07,2l-.45.46q-.94,1-1.85,1.94l-.27.29,0,0h0c-9.79,10.87-15.59,24.34-15.59,38.94,0,.18,0,.36,0,.54q-2.26-.34-4.6-.47l-.29,0c-.75,0-1.5-.06-2.26-.06-18,0-33.15,10-37.89,23.58A30.91,30.91,0,0,0,223.79,318c-14.47,0-26.19,9.7-26.19,21.66,0,.45,0,.89.05,1.34,0,.13,0,.25,0,.37q0,.5.12,1c0,.11,0,.23.05.34a18.31,18.31,0,0,0,.65,2.61l.06.18q.2.58.43,1.15l.06.14a20,20,0,0,0,2.08,3.75h0c4.54,6.45,13,10.79,22.65,10.79H447.64c30.1,0,54.5-20.18,54.5-45.07A39,39,0,0,0,495.07,294.06Z"/></svg>