<svg xmlns="http://www.w3.org/2000/svg" viewBox="0 0 61.68 95.49"><defs><style>.cls-1{fill:#231f20;}.cls-2{fill:#ff89af;}</style></defs><g id="Layer_2" data-name="Layer 2"><g id="Layer_1-2" data-name="Layer 1"><path class="cls-1" d="M46,17.61a7.64,7.64,0,0,1,3.12.09A7.21,7.21,0,0,1,51.79,19a5.44,5.44,0,0,1,1.77,2.63,5.81,5.81,0,0,1,.06,3.12,9.17,9.17,0,0,1-1.21,2.65c-.11.16-.18.35-.27.51h0A18.07,18.07,0,0,1,50,30.43l-2.3,2.14a110.21,110.21,0,0,1-11.21,9.15c-.61.43-1.63,1.2-2,.65s0-1.42,1.07-2.19a84,84,0,0,0,7.36-5.89l5-4.67a12.37,12.37,0,0,0,3.74-5.11,3.94,3.94,0,0,0,0-2.45A3.66,3.66,0,0,0,50,20.25a5.69,5.69,0,0,0-2.52-.74,6.69,6.69,0,0,0-2.66.43,17.58,17.58,0,0,0-4.68,2.87c-1.52,1.19-3.05,2.39-4.6,3.54-2.66,2-5.46,3.86-8.13,5.85a6.32,6.32,0,0,0-1.72,1.62h0c-.9.33-1.34,1.44-2.3,1.65h0a8,8,0,0,0-.71.57c-.93,1-1.35,1.06-1.54.18,0-.2-.28-.28-.11-.6h0c.34-1,1.4-1.59,2.2-2.27C27.16,30,31.3,27,35.35,23.93l3.76-2.84a25.77,25.77,0,0,1,4.14-2.62A8.13,8.13,0,0,1,46,17.6Z"/><path class="cls-1" d="M4.37,55.77c.32-.53.63-1.07,1-1.57,1.34-1.92,2.72-3.75,4.09-5.62a1.62,1.62,0,0,0,.17-.32h0l2.54-3.35a53,53,0,0,1,6.46-7.35c.38-.35,1-1,1.46-.47s.38,1.2-.24,1.81a36.71,36.71,0,0,0-4.22,4.68c-1.79,2.5-3.69,4.91-5.48,7.43-1.6,2.26-3.27,4.46-4.7,6.79a35.89,35.89,0,0,0-3.19,6.81A4.31,4.31,0,0,0,2,65.89,2.06,2.06,0,0,0,2.28,67a9.61,9.61,0,0,0,.86,1.29l1,1.36A3.2,3.2,0,0,0,5.3,70.76v0c.14.67,1,.87,1,1.62h0a3,3,0,0,0,.36.5c.66.65.62,1-.17,1.24-.18.05-.31.26-.54.15v0c-.8-.17-1.09-.93-1.53-1.47l-3.27-4a6.77,6.77,0,0,1-.79-1.24A3.85,3.85,0,0,1,0,66a7.29,7.29,0,0,1,.62-2.85,44.91,44.91,0,0,1,2.87-5.82,9.29,9.29,0,0,1,.89-1.52Z"/><path class="cls-1" d="M35.24,63.84c-.12.21-.22.43-.36.63-.55.73-1.11,1.45-1.69,2.16a.37.37,0,0,0,0,.15h0L32.1,68.06a16.15,16.15,0,0,1-2.65,2.77c-.16.12-.39.37-.88-.09s-.67-.93-.42-1.16a9.49,9.49,0,0,0,1.69-1.78c.64-1,1.46-1.9,2.16-2.87s1.28-1.71,1.87-2.6,1-1.77,1.53-2.61,1.07-1.36,1.57-2.08a.58.58,0,0,0,.14-.63h0c.39,0,0-.58.53-.55h0c0-.06.13-.11.15-.19.07-.37.34-.33.95.16.14.1.35.18.41.32h0c.34.47,0,.62-.16.86-.63,1.2-1.34,2.36-2.06,3.51-.44.71-.93,1.38-1.33,2.12a2,2,0,0,1-.34.6Z"/><path class="cls-1" d="M37.11,45.45a4.34,4.34,0,0,1,.64.49,12.54,12.54,0,0,1,1.82,2.33s.09.07.13.1h0c.31.51.57,1,.85,1.54a5.78,5.78,0,0,1,.71,2.18,4.09,4.09,0,0,1-.51,2.31c-.11.2-.27.54-.88.25s-.93-.66-.8-.92a2.11,2.11,0,0,0,.2-1.94,22.68,22.68,0,0,0-1.69-2.91,9.63,9.63,0,0,0-2.07-2.15,6.43,6.43,0,0,0-2.43-.94,5.64,5.64,0,0,0-2.16-.2c-.17,0-.36.05-.4.35h0c-.31-.21-.22.4-.6.12-.06,0-.15,0-.19.09-.17.25-.4.11-.79-.55-.09-.15-.26-.31-.25-.46h0c-.09-.57.36-.59.62-.76a6.16,6.16,0,0,1,4.58-.49A10,10,0,0,1,36.47,45a2,2,0,0,1,.64.42Z"/><path class="cls-1" d="M21,54.22c.12-.21.22-.43.36-.63L23,51.4s0-.09,0-.14h0c.32-.44.66-.87,1-1.33a16.21,16.21,0,0,1,2.44-3c.15-.14.37-.42.88,0s.7.92.48,1.16A8.34,8.34,0,0,0,26.25,50a32.36,32.36,0,0,1-2,3c-.6.91-1.26,1.77-1.86,2.68s-1,1.77-1.62,2.6-1.16,1.34-1.72,2a.58.58,0,0,0-.19.62h0c-.4,0-.09.57-.59.5-.06.06-.15.1-.17.18-.12.36-.37.3-.94-.24-.12-.12-.32-.22-.37-.36h0c-.29-.5.1-.6.25-.83.73-1.13,1.5-2.23,2.26-3.34.47-.69,1-1.34,1.37-2.07a1.82,1.82,0,0,1,.34-.59Z"/><path class="cls-1" d="M52.14,63.61A10.53,10.53,0,0,1,51.71,65c-.71,1.68-1.56,3.15-2.38,4.68a1.12,1.12,0,0,0-.08.26h0l-1.57,2.72a42.76,42.76,0,0,1-4.07,6c-.24.29-.61.81-1.16.41a1,1,0,0,1-.27-1.52,28.37,28.37,0,0,0,2.65-3.86c1-2,2.26-3.94,3.29-6a24.2,24.2,0,0,0,2.31-5.44,4.63,4.63,0,0,0-1-4.41,9.16,9.16,0,0,0-3.7-2.36,1.13,1.13,0,0,0-1,0h0c-.38-.34-.73.25-1.1-.12a.57.57,0,0,0-.32.08c-.21.12-.29.2-.45.11a1.15,1.15,0,0,1-.46-.64c-.05-.17-.24-.31-.14-.52h0a1,1,0,0,1,.72-.7,4.15,4.15,0,0,1,1-.12,6.46,6.46,0,0,1,2.16.17,9.5,9.5,0,0,1,2,.69A9.3,9.3,0,0,1,51.38,57a5.66,5.66,0,0,1,1,2.55,9,9,0,0,1,0,2.65,4.91,4.91,0,0,1-.28,1.37Z"/><path class="cls-1" d="M47.84,94.89a12.4,12.4,0,0,1-3.78.6,12.86,12.86,0,0,1-3.6-.54c-1.14-.35-2.17-.78-3.15-1.07a6.17,6.17,0,0,0-2.84-.24A19,19,0,0,1,31,94.1a7.86,7.86,0,0,1-.84,0h0a8.8,8.8,0,0,1-4-2.16,25.59,25.59,0,0,0-3-2.42c-2.37-1.47-5.59-1.73-8.63-3.34a9.3,9.3,0,0,1-2.12-1.55,14.3,14.3,0,0,1-1.59-2,27.37,27.37,0,0,1-2.32-4.23C8,77.53,7.35,76,8,75.76s1.47.59,2.18,2.09a23,23,0,0,0,3.09,5,9.57,9.57,0,0,0,5,2.75A37.81,37.81,0,0,1,22.56,87a12.15,12.15,0,0,1,2.13,1.14,22.7,22.7,0,0,1,1.82,1.45,11.32,11.32,0,0,0,3.37,2.33c1.15.45,2.39.11,3.95-.19a8,8,0,0,1,2.25-.13,10.42,10.42,0,0,1,2.14.46c1.34.41,2.55,1,3.74,1.18a11.13,11.13,0,0,0,7.21-1A10.67,10.67,0,0,0,54,87.45c1.09-2.08,1.75-4.51,2.75-6.88.84-2,1.75-4,2.38-5.94a12.21,12.21,0,0,0,.61-5.95,4.66,4.66,0,0,0-1.15-2.51v0a2.81,2.81,0,0,0-.91-1.35,6.21,6.21,0,0,1-1.09-1.15h0a2.86,2.86,0,0,0-.88-.5,6.94,6.94,0,0,1-1.39-.46c-.21-.17-.2-.42.13-.77.15-.16,0-.4.49-.46h0a3.25,3.25,0,0,1,2.18.43,7.25,7.25,0,0,1,1.79,1.49,10.31,10.31,0,0,1,2.48,4.73,11,11,0,0,1,.27,2.68,15,15,0,0,1-.3,2.61c-.69,3.43-2.25,6.45-3.38,9.49a40.23,40.23,0,0,1-2.43,5.74,13.21,13.21,0,0,1-4.47,4.72,10.88,10.88,0,0,1-3.28,1.51Z"/><path class="cls-1" d="M25.14,14.69a6,6,0,0,0-1,.71,3.74,3.74,0,0,0-1.24,1.84,5.43,5.43,0,0,0-.05,2.42,1.39,1.39,0,0,0,.1.26h0c.2,1.06.5,2.25.78,3.38.68,2.64,1.34,5.28,1.79,8,.07.42.24,1.13-.42,1.28a1.08,1.08,0,0,1-1.36-.94,51.23,51.23,0,0,0-1.2-5.25c-.4-1.24-.74-2.5-1.06-3.77a19.5,19.5,0,0,1-.74-4A5.63,5.63,0,0,1,22,14.68a6.63,6.63,0,0,1,3.41-2.18,7.86,7.86,0,0,1,7,1.89,14.71,14.71,0,0,1,3.41,5,2.62,2.62,0,0,0,.79,1.16h0c-.06.6.71.94.49,1.58h0a2.6,2.6,0,0,0,.18.49c.4.69.25,1-.56,1-.18,0-.37.16-.55,0v0h0c-.68-.29-.7-1-.94-1.51-1.17-2.57-2.54-5.1-4.68-6.66a5.64,5.64,0,0,0-4.32-1.2c-.39.09-.74.29-1.12.4Z"/><path class="cls-1" d="M44.71,45.25a3.9,3.9,0,0,1,.51.4,23.29,23.29,0,0,1,1.62,1.83s.09,0,.13.06h0l.88,1.19a9.93,9.93,0,0,1,1.63,3c.05.17.18.44-.43.74s-1.09.33-1.19.06a6.1,6.1,0,0,0-1-1.84C46.19,50,45.67,49.1,45,48.36a23,23,0,0,0-1.91-1.91,12,12,0,0,0-1-.73l-.53-.35a2.66,2.66,0,0,1-.44-.38,1.82,1.82,0,0,1-.35-.56,2.26,2.26,0,0,1-.13-1,4.55,4.55,0,0,1,.13-.63A9,9,0,0,0,41,41.69a.43.43,0,0,0-.19-.51h0c.31-.2-.27-.42.18-.61h0c0-.07,0-.14,0-.2-.13-.29.11-.39.89-.33a1.43,1.43,0,0,1,.52,0h0c.53.19.29.48.31.73a16,16,0,0,1,0,1.83c0,.29-.06.64-.07.82s0,.16.06.22l.69.53c.29.23.58.45.89.67s.38.18.49.36Z"/><circle class="cls-2" cx="39.02" cy="5.12" r="5.12" transform="translate(26.34 42.38) rotate(-78.68)"/><circle class="cls-2" cx="45.95" cy="7.25" r="5.12" transform="matrix(0.2, -0.98, 0.98, 0.2, 29.82, 50.88)"/><path class="cls-2" d="M48.35,11.77l-7.1,3.77a2.21,2.21,0,0,1-3-.92L34.5,7.53l9-4.81Z"/></g></g></svg>