<?xml version="1.0" encoding="utf-8"?>
<!-- Generator: Adobe Illustrator 25.2.3, SVG Export Plug-In . SVG Version: 6.00 Build 0)  -->
<svg version="1.1" id="Layer_1" xmlns="http://www.w3.org/2000/svg" xmlns:xlink="http://www.w3.org/1999/xlink" x="0px" y="0px"
	 viewBox="0 0 200 100" style="enable-background:new 0 0 200 100;" xml:space="preserve">
<style type="text/css">
	.st0{display:none;fill:#FFFFFF;}
	.st1{fill:#9A9A9A;}
	.st2{fill:#FBFCFC;}
	.st3{fill:#E9E8E8;}
	.st4{fill:#A1A0A0;}
	.st5{fill:#FDFEFF;}
	.st6{fill:#F6F6F6;}
	.st7{fill:#F4F4F4;}
	.st8{fill:#EBEBEB;}
</style>
<g id="sdbwOb_4_">
	<g>
		<path class="st0" d="M31.58,38.68c0-3.77,0.06-7.55-0.03-11.32c-0.03-1.09,0.2-1.49,1.31-1.27c0.41,0.08,0.85,0.01,1.27,0.01
			c42.38,0,84.76,0.02,127.13-0.06c2.18,0,2.63,0.42,2.61,2.58c-0.13,14.05-0.09,28.1-0.02,42.14c0.01,1.57-0.36,1.96-1.95,1.93
			c-6.14-0.11-12.29-0.04-18.43-0.04c2.53-3.65,6.94-4.98,10.68-3.22c1.64,0.77,3.31,1.42,5.15,1.48c0.77,0.02,1.57-0.17,1.76-1.03
			c0.22-1-0.65-1.16-1.36-1.36c-0.41-0.11-0.84-0.12-1.25-0.22c-4.55-1.08-5.24-2.52-3.13-6.54c0.93-1.77,1.88-3.54,2.17-5.54
			c0.32-2.15-0.1-4.1-2.32-4.98c-2.14-0.85-4.21-0.45-5.73,1.43c-2.09,2.6-2.22,5.54-1.43,8.65c1.06,4.18-0.39,6.43-4.65,7.37
			c-1.68,0.37-3.19,0.04-4.28-1.34c-1.05-1.33-0.37-2.6,0.39-3.76c1.69-2.57,3.21-5.18,3.13-8.41c-0.06-2.26-0.86-3.86-3.34-4.22
			c-2.55-0.37-4.54,0.64-5.41,2.83c-1.09,2.76-0.74,5.56-0.19,8.36c0.26,1.34,0.63,2.77-0.36,3.93c-1.33,1.55-2.96,2.9-5.16,2.54
			c-2.09-0.35-2.67-2.2-3.08-3.98c-0.9-3.89-1-7.58,1.73-11.01c1.7-2.13,2.75-4.72,3.56-7.34c0.66-2.14,2.02-3.17,4.28-3.6
			c3.15-0.6,6.36-0.12,9.48-0.81c0.98-0.22,2.14-0.07,3.18-1.66c-3.07-0.32-5.81-0.08-8.55,0.12c-1.05,0.08-2.08,0.37-3.15,0.38
			c-2.89,0.01-3.56-0.63-3.3-3.52c0.19-2.14-0.32-4.17-0.68-6.22c-0.19-1.08-0.75-2.03-1.92-2.28c-1.34-0.28-2.21,0.54-2.85,1.57
			c-2.03,3.29-2.68,7.03-3.45,10.72c-1.24,5.99-1.53,12.05-1.32,18.14c0.11,3-0.93,5.57-2.91,7.75c-2.58,2.84-5.42,2.37-6.89-1.17
			c-1.33-3.21-0.77-6.6-0.64-9.94c0.05-1.27,1.1-3.23-0.6-3.57c-1.77-0.36-1.57,1.82-1.88,3.04c-0.96,3.88-2.04,7.71-3.95,11.25
			c-0.59,1.1-1.27,2.39-2.85,1.98c-1.38-0.36-1.96-1.62-2.09-2.9c-0.3-2.84,0.4-5.62,0.68-8.43c0.24-2.36,0.09-4.58-2.17-5.77
			c-2.23-1.18-4.32-0.28-6.07,1.35c-1.71,1.59-3.18,2.93-4.64-0.41c-0.82-1.89-2.41-1.26-3.59-0.01c-1.03,1.11-1.37,2.58-1.87,3.96
			c-1.14,3.15-1.9,6.45-3.7,9.34c-0.44,0.7-0.96,1.58-1.92,1.37c-1.01-0.21-1-1.26-1.06-2.07c-0.18-2.3,0.04-4.61-0.14-6.91
			c-0.06-0.83-0.16-1.85-1.2-1.96c-1.06-0.12-1.33,0.88-1.58,1.67c-0.6,1.9-0.97,3.87-1.84,5.68c-0.55,1.14-1.2,2.21-2.08,3.14
			c-1.41,1.49-3.09,2.23-5.14,1.62c-1.99-0.59-2.7-2.24-3.08-4.05c-1.18-5.59,4.12-11.96,10.02-12.15c1.06-0.03,2.89,0.74,2.97-0.75
			c0.1-1.85-1.91-1.52-3.2-1.57c-2.75-0.11-5.43,0.83-8.22,0.53c-4.18-0.44-4.87-1.14-4.8-5.25c0.02-0.95-0.08-1.88-0.2-2.82
			c-0.32-2.39-1.45-4.25-3.93-4.77c-2.45-0.51-4.66,0.28-6.25,2.22c-2.9,3.54-1.62,8.94,2.51,10.89c4.31,2.04,4.33,2.05,2.52,6.56
			c-1.17,2.92-2.35,5.85-4.15,8.47c-2.43,3.53-5.43,3.41-7.69-0.27c-0.61-0.99-1.12-2.04-1.43-3.15
			c-2.31-8.42-4.34-16.87-2.45-25.69c0.11-0.51,0.24-1.03,0.24-1.55c0.01-0.63,0.04-1.33-0.72-1.57c-0.72-0.23-1.19,0.25-1.59,0.76
			c-1.07,1.36-1.05,3.18-2.01,4.59C32.2,38.86,31.9,38.89,31.58,38.68z"/>
		<path class="st1" d="M32.15,38.66c0.14-1.79,0.58-3.51,1.34-5.14c0.66-1.41,1.8-2.18,3.34-1.59c1.53,0.59,1.33,1.91,0.99,3.21
			c-2.59,9.75-0.4,19.07,2.66,28.29c0.29,0.87,0.83,1.7,1.4,2.44c1.49,1.95,3.23,1.98,4.75,0.14c2.99-3.64,4.46-8.04,6.02-12.38
			c0.62-1.72-0.88-1.5-1.79-1.79c-4.86-1.58-6.42-3.82-5.99-8.59c0.37-4.16,3.39-6.97,7.54-7c3.58-0.03,5.56,2.14,6.06,6.62
			c0.01,0.1,0.01,0.21,0.04,0.31c0.59,1.8-1.22,4.45,0.39,5.32c2.44,1.31,5.55,1.13,8.39,0.53c1.79-0.38,3.57-0.55,5.35-0.28
			c1.66,0.25,3.26,0.95,2.79,3.02c-0.42,1.84-1.92,1.47-3.35,1.21c-5.96-1.09-12.04,5.92-10.24,11.74c1.03,3.32,3.73,4.06,6.29,1.68
			c2.54-2.37,3.19-5.61,3.96-8.75c0.38-1.57,0.45-3.43,2.66-3.11c2.12,0.31,1.88,2.19,1.87,3.77c0,2.72,0,5.43,0,8.6
			c2.19-1.3,2.44-3.26,3.09-4.86c1.11-2.71,1.83-5.58,2.9-8.3c0.72-1.83,1.53-3.92,4.06-3.79c2.57,0.14,2.47,2.41,2.91,4.44
			c1.31-1.2,2.38-2.33,3.61-3.26c1.91-1.45,4.14-1.8,6.26-0.66c2.06,1.11,2.65,3.21,2.51,5.41c-0.14,2.19-0.5,4.36-0.73,6.55
			c-0.11,1.04-0.27,2.09-0.18,3.12c0.09,1.02,0.28,2.3,1.5,2.5c1.11,0.18,1.52-1,1.94-1.8c1.96-3.75,3.07-7.78,3.95-11.89
			c0.09-0.41,0.06-0.84,0.15-1.25c0.32-1.42,0.87-2.76,2.65-2.49c1.83,0.28,1.96,1.75,1.62,3.16c-0.62,2.58-0.73,5.19-0.6,7.8
			c0.13,2.61,0.1,5.91,3.32,6.36c2.9,0.41,3.85-2.73,5.08-4.87c0.72-1.26,0.58-2.63,0.54-3.99c-0.25-8,0.48-15.89,2.56-23.64
			c0.55-2.04,1.3-3.98,2.38-5.8c0.8-1.33,1.84-2.44,3.51-2.27c1.9,0.19,2.63,1.78,2.88,3.33c0.38,2.36,1.07,4.75,0.44,7.16
			c-0.49,1.87,0.36,2.2,1.96,2.07c3.48-0.29,6.96-0.49,10.43-0.81c1.44-0.14,3.02-0.42,3.16,1.51c0.15,1.97-1.57,1.83-2.94,1.95
			c-3.79,0.33-7.57,0.81-11.37,0.99c-1.72,0.08-2.41,0.78-2.83,2.28c-0.85,3.05-2.02,6.07-4.02,8.49
			c-2.99,3.63-2.09,7.42-1.21,11.29c0.34,1.48,1.12,3.18,2.97,2.27c1.74-0.86,4.75-1.04,3.96-4.29c-0.71-2.97-1.23-5.92-0.48-8.98
			c0.89-3.62,3.31-5.28,7.01-4.68c2.86,0.47,4.23,2.59,3.91,6.15c-0.28,3.14-1.76,5.83-3.61,8.26c-1.44,1.89-0.7,2.9,1.06,3.56
			c2.63,0.99,4.32-1.02,6.26-2.18c1.73-1.03,0.4-2.19,0.1-3.27c-0.86-3.12-1.08-6.19,0.44-9.18c1.46-2.87,4.5-4.18,7.45-3.22
			c2.52,0.82,3.62,3.46,2.97,6.78c-0.47,2.42-1.46,4.67-2.92,6.56c-1.51,1.95-0.67,2.68,1.05,3.44c1.08,0.48,2.18,0.8,3.37,0.77
			c1.53-0.04,2.92,0.29,2.83,2.12c-0.1,1.92-1.61,2.29-3.23,2.14c-2.46-0.22-4.83-0.85-6.81-2.34c-1.18-0.88-1.99-1.01-3.28-0.09
			c-1.78,1.26-3.82,2.16-5.75,3.21c-0.85,0-1.7,0-2.54,0c-1.62-0.59-3.53-0.51-4.71-2.09c-0.49-0.65-1.11-0.46-1.62,0.01
			c-1.28,1.16-2.95,1.46-4.47,2.09c-1.06,0-2.12,0-3.18,0c-0.08-0.06-0.16-0.13-0.25-0.19c-4.25-3.04-8.58,0.69-12.85-0.13
			c-0.21,0-0.42-0.07-0.62-0.07c-2.13,0.01-3.02-3.05-4.6-2.58c-1.55,0.45-2.63,2.51-4.56,2.98c-1.06,0-2.12,0-3.18,0
			c-3.36-0.94-4.65-3.3-4.62-6.57c0.02-2.6-0.15-5.21,0.35-7.8c0.16-0.85,0.69-2.11-0.47-2.46c-1.04-0.32-1.52,0.93-2.02,1.67
			c-2.76,4.14-4.24,8.84-5.95,13.44c-1.1,1.85-3.11,1.98-4.38,1.04c-2.3-1.7-0.69-4.12-0.49-6.15c-0.44,1.62-1.18,3.29-2.41,4.69
			c-2.24,2.55-5.39,2.61-7.57,0.01c-0.75-0.89-1.15-1.37-2.16-0.38c-2.95,2.89-6.54,2.9-9.97,1.38C57.72,70,56,65.46,56.63,61.27
			c0.31-2.07,1-4.03,1.93-6.27c-1.44,0.77-1.44,1.96-1.75,2.91c-0.99,3-2.38,5.78-3.9,8.55c-2.36,4.31-5.61,6.69-10.76,5.83
			c-3.11-0.61-4.78-2.86-6.13-5.39c-3.24-6.03-4.16-12.57-4.12-19.3C32.05,44.62,31.6,41.63,32.15,38.66z"/>
		<path class="st2" d="M104.04,72.65c1.9-1.31,3.44-2.98,4.74-5.18c1.33,2.04,2.72,3.71,4.79,4.62c0.21,0.12,0.28,0.25,0.21,0.37
			c-0.07,0.12-0.14,0.18-0.21,0.18C110.4,72.65,107.22,72.65,104.04,72.65z"/>
		<path class="st2" d="M113.58,72.65c0-0.18,0-0.37,0-0.55c2.89,0.28,5.66,0.18,7.68-2.32c0.76-0.95,1.36-0.61,1.94,0.18
			c0.94,1.3,2.48,1.8,3.72,2.69C122.48,72.65,118.03,72.65,113.58,72.65z"/>
		<path class="st2" d="M130.1,72.65c1.53-1.01,3.08-1.98,4.57-3.04c0.79-0.57,1.33-0.35,1.84,0.29c1.14,1.44,2.94,1.82,4.4,2.75
			C137.31,72.65,133.71,72.65,130.1,72.65z"/>
		<path class="st3" d="M32.14,48.14c-0.19,0-0.37-0.01-0.56-0.02c0-3.15,0-6.29,0-9.44c0.19-0.01,0.38-0.02,0.57-0.02
			C32.14,41.82,32.14,44.98,32.14,48.14z"/>
		<path class="st4" d="M111.97,44.91c-1.44,0.05-3.03-0.02-2.83-1.93c0.23-2.24,2.26-1.66,3.73-1.78c1.47-0.12,3.1,0.18,2.89,1.92
			C115.51,45.14,113.52,44.86,111.97,44.91z"/>
		<path class="st5" d="M54.37,45.42c-0.69,0.65,0.37,2.61-1.63,2.2c-1.71-0.35-3.64-0.89-3.41-3.27c0.16-1.69,1.24-3.22,2.91-3.04
			C54.43,41.56,53.77,43.88,54.37,45.42z"/>
		<path class="st6" d="M151.4,61.76c-0.41-2.91-0.81-4.93,0.37-6.84c0.38-0.62,0.91-1.22,1.79-0.8c0.68,0.32,0.76,0.98,0.64,1.61
			C153.83,57.66,153.09,59.44,151.4,61.76z"/>
		<path class="st7" d="M136.76,60.96c-0.4-2.16-0.48-3.8-0.07-5.4c0.23-0.9,0.78-1.88,1.99-1.48c1.02,0.34,0.94,1.24,0.65,2.11
			C138.81,57.73,138.47,59.37,136.76,60.96z"/>
		<path class="st8" d="M129.01,32.72c0.87,2.7,0.04,4.7-0.16,6.73c-0.07,0.7-0.52,1.17-1.29,0.98c-0.67-0.17-0.65-0.78-0.49-1.27
			C127.69,37.22,127.62,35.09,129.01,32.72z"/>
		<path class="st8" d="M125.96,48.5c-0.47-1.74-0.61-3.2,0.84-4.28c0.11-0.08,0.69,0.18,0.69,0.3C127.55,46,126.87,47.2,125.96,48.5
			z"/>
	</g>
</g>
</svg>
