<?xml version="1.0" encoding="utf-8"?>
<!-- Generator: Adobe Illustrator 25.2.3, SVG Export Plug-In . SVG Version: 6.00 Build 0)  -->
<svg version="1.1" id="Layer_1" xmlns="http://www.w3.org/2000/svg" xmlns:xlink="http://www.w3.org/1999/xlink" x="0px" y="0px"
	 viewBox="0 0 200 100" style="enable-background:new 0 0 200 100;" xml:space="preserve">
<style type="text/css">
	.st0{fill:#989898;}
</style>
<g id="fPeLxs_4_">
	<g>
		<path class="st0" d="M22.6,63.53c-2.26-3.34-4.51-6.69-6.79-10.02c-1.33-1.95-2.71-3.88-4.05-5.83c-1.39-2.04-2.76-4.11-4.23-6.3
			c0.49-0.06,0.84-0.13,1.19-0.13c3.96-0.01,7.91-0.01,11.87,0c0.61,0,1.28-0.11,1.27,0.86c-0.01,0.98-0.7,0.84-1.29,0.84
			c-2.76,0.01-5.52,0-8.28,0.01c-0.43,0-0.87,0.06-1.64,0.11c4.12,5.99,8.07,11.74,12.17,17.7c4.17-5.94,8.2-11.68,12.26-17.46
			c-1.79-0.68-2.78-0.51-3.74,0.69c-2.52,3.15-5,6.34-7.5,9.5c-0.25,0.32-0.54,0.6-0.94,1.04c-2.35-2.91-4.63-5.73-7.17-8.87
			c2.09,0,3.8-0.03,5.5,0.04c0.22,0.01,0.59,0.53,0.59,0.81c0,0.28-0.35,0.7-0.63,0.79c-0.49,0.15-1.04,0.09-1.88,0.13
			c1.25,1.56,2.34,2.93,3.55,4.45c0.43-0.49,0.78-0.86,1.09-1.26c2.3-2.91,4.58-5.83,6.89-8.74c0.21-0.27,0.57-0.58,0.87-0.59
			c2.09-0.05,4.18-0.03,6.58-0.03c-5.25,7.57-10.33,14.91-15.42,22.26C22.76,63.53,22.68,63.53,22.6,63.53z"/>
		<path class="st0" d="M189.99,48.1c-0.78,0-1.57,0.04-2.35-0.01c-0.88-0.05-1.13,0.34-1.13,1.16c0.03,3.06,0.01,6.12,0.01,9.17
			c0,1.67,0,1.67-1.57,1.67c-1.63,0-1.64,0-1.64-1.73c0-2.94-0.04-5.87,0.02-8.81c0.02-1.13-0.39-1.59-1.51-1.46
			c-0.16,0.02-0.33,0-0.49,0c-1.67-0.01-2.16-0.63-1.66-2.25c0.08-0.27,0.48-0.64,0.74-0.64c3.08-0.02,6.17,0.02,9.25,0.05
			c0.11,0,0.23,0.09,0.34,0.14C189.99,46.3,189.99,47.2,189.99,48.1z"/>
		<path class="st0" d="M157.89,60.34c-4.31-0.08-7.75-3.17-7.65-7.73c0.11-4.63,3.19-7.66,7.79-7.55c4.88,0.12,7.57,3.1,7.65,7.69
			C165.77,57.37,162,60.37,157.89,60.34z M162.54,52.78c0.02-2.37-2.09-4.64-4.5-4.6c-2.6,0.04-4.59,1.99-4.63,4.59
			c-0.04,2.28,2.18,4.38,4.55,4.39C160.27,57.16,162.52,55.02,162.54,52.78z"/>
		<path class="st0" d="M118.94,59.85c-0.37,0.15-0.44,0.2-0.52,0.21c-2.8,0.29-2.86,0.24-2.86-2.51c0-3.75-0.01-7.5,0.02-11.25
			c0-0.43,0.28-0.86,0.43-1.29c0.37,0.2,0.81,0.34,1.11,0.62c2.41,2.27,4.79,4.57,7.19,6.85c0.23,0.22,0.49,0.4,0.95,0.77
			c0.08-0.61,0.18-1.02,0.18-1.43c0.02-1.79,0.06-3.59-0.01-5.38c-0.05-1.32,0.76-1.28,1.68-1.3c0.94-0.01,1.57,0.11,1.56,1.3
			c-0.05,4.28-0.01,8.56-0.03,12.84c0,0.32-0.21,0.65-0.32,0.97c-0.36-0.15-0.8-0.22-1.05-0.46c-2.38-2.31-4.73-4.66-7.09-6.99
			c-0.31-0.31-0.64-0.6-1.25-1.17C118.94,54.61,118.94,57.24,118.94,59.85z"/>
		<path class="st0" d="M67.1,50.39c0-1.3,0.04-2.61-0.01-3.91c-0.04-1.03,0.4-1.42,1.39-1.33c0.37,0.03,0.79-0.1,1.1,0.04
			c0.37,0.17,0.93,0.55,0.93,0.84c0,3.13,0.07,6.27-0.22,9.38c-0.28,3.01-2.68,4.6-5.57,4.9c-2.75,0.29-5.44-1.49-6.27-4.1
			c-0.29-0.92-0.45-1.9-0.48-2.86c-0.07-2.28,0.01-4.56-0.03-6.85c-0.02-1,0.35-1.37,1.37-1.37c2.11,0,2.11-0.04,2.11,2.09
			c0,2.28-0.01,4.56,0,6.85c0.01,1.85,1.1,3.07,2.8,3.05c1.38-0.02,3.06-0.98,2.9-3.07C67.03,52.85,67.1,51.62,67.1,50.39z"/>
		<path class="st0" d="M93.3,60.41c-4.04-0.23-6.53-1.6-7.93-4.59c-1.45-3.09-0.85-6.04,1.44-8.35c2.99-3.01,6.85-3.31,10.42-0.95
			c0.53,0.35,0.64,0.77,0.18,1.33c-1.07,1.29-1.35,1.37-2.85,0.62c-1.82-0.91-4.28-0.32-5.42,1.29c-1.52,2.15-1.32,4.53,0.5,6.17
			c1.58,1.43,3.59,1.63,5.45,0.56c0.85-0.49,1.61-0.17,2.41,1.05c0.58,0.87-0.16,1.21-0.72,1.46C95.42,59.6,94.02,60.12,93.3,60.41z
			"/>
		<path class="st0" d="M138.07,52.69c0-2.08,0.03-4.16-0.01-6.23c-0.02-0.94,0.33-1.35,1.3-1.3c1.76,0.1,3.55-0.03,5.27,0.28
			c2.71,0.48,4.09,2.53,3.82,5.23c-0.21,2.09-2.34,3.91-4.74,4.04c-2.42,0.13-2.42,0.13-2.42,2.55c0,0.41,0,0.81,0,1.22
			c-0.01,1.62-0.01,1.55-1.63,1.64c-1.23,0.07-1.68-0.31-1.61-1.57C138.14,56.6,138.06,54.64,138.07,52.69z M141.28,49.81
			c0,1.89,0.04,1.95,1.46,1.96c1.49,0.01,2.59-0.75,2.61-1.81c0.02-1.06-1.07-1.86-2.55-1.86
			C141.28,48.09,141.28,48.09,141.28,49.81z"/>
		<path class="st0" d="M113.55,60.09c-1.08,0-1.92,0.12-2.69-0.05c-0.45-0.1-0.93-0.61-1.14-1.05c-0.39-0.81-0.89-1.16-1.81-1.11
			c-1.19,0.07-2.39,0.08-3.58,0c-0.99-0.07-1.52,0.3-1.85,1.19c-0.32,0.89-2.44,1.49-3.2,0.9c-0.16-0.12-0.26-0.55-0.17-0.73
			c2.2-4.67,4.42-9.32,6.65-13.98c0.05-0.1,0.18-0.16,0.55-0.46C108.73,49.89,111.09,54.88,113.55,60.09z M107.95,54.99
			c-0.65-1.29-1.17-2.35-1.84-3.68c-0.66,1.38-1.18,2.47-1.76,3.68C105.65,54.99,106.71,54.99,107.95,54.99z"/>
		<path class="st0" d="M172.7,60.61c-1.3-0.45-2.63-0.81-3.87-1.36c-1.17-0.51-0.6-1.34-0.22-2.13c0.42-0.88,0.97-0.65,1.61-0.32
			c0.47,0.24,0.96,0.46,1.46,0.63c1.29,0.43,2.15,0.18,2.55-0.7c0.36-0.8-0.24-1.93-1.29-2.46c-0.95-0.48-1.93-0.9-2.83-1.45
			c-2.13-1.31-2.59-3.04-1.88-5.13c0.74-2.19,3.34-2.98,5.15-2.69c1.22,0.2,2.37,0.83,3.55,1.29c0.68,0.27,0.79,0.67,0.36,1.33
			c-1.11,1.7-1.2,1.73-2.6,0.77c-0.58-0.4-1.38-0.65-2.08-0.65c-0.45,0-1.19,0.5-1.29,0.9c-0.11,0.47,0.18,1.27,0.57,1.56
			c0.8,0.6,1.78,0.97,2.7,1.41c1.28,0.61,2.4,1.34,3.03,2.7c1.34,2.89-1.07,5.71-4.09,6.01c-0.24,0.02-0.49,0-0.74,0
			C172.77,60.43,172.74,60.52,172.7,60.61z"/>
		<path class="st0" d="M55.94,45.43c-0.18,0.52-0.31,1.07-0.55,1.57c-2.01,4.22-4.04,8.43-6.08,12.63
			c-0.12,0.25-0.39,0.46-0.65,0.61c-0.06,0.03-0.39-0.26-0.48-0.46c-2.19-4.63-4.36-9.26-6.53-13.9c-0.06-0.13-0.05-0.3-0.11-0.69
			c1.04,0,2.01-0.08,2.95,0.05c0.31,0.04,0.63,0.58,0.81,0.95c1.03,2.16,2.02,4.34,3.03,6.51c0.08,0.17,0.24,0.29,0.52,0.64
			c0.74-1.56,1.42-2.97,2.08-4.38c0.33-0.7,0.62-1.42,0.96-2.11C52.83,45.02,53.7,44.7,55.94,45.43z"/>
		<path class="st0" d="M77.74,51.27c0,1.55,0.05,3.1-0.02,4.64c-0.05,1.14,0.46,1.53,1.54,1.5c1.07-0.04,2.14,0.02,3.21-0.01
			c1.14-0.03,0.93,0.76,0.96,1.43c0.03,0.7,0,1.29-0.99,1.28c-2.3-0.04-4.6-0.03-6.91,0c-0.75,0.01-1.01-0.31-1-1.02
			c0.02-4.28,0.02-8.55,0-12.83c-0.01-1.22,0.83-1.09,1.62-1.09c0.79,0,1.63-0.11,1.6,1.1C77.71,47.93,77.73,49.6,77.74,51.27
			C77.73,51.27,77.73,51.27,77.74,51.27z"/>
	</g>
</g>
</svg>
