<svg xmlns="http://www.w3.org/2000/svg" viewBox="0 0 106.13 105.32">
  <defs>
    <style>
      .cls-1 {
        fill: #0048ff;
      }

      .cls-2 {
        fill: #231f20;
      }
    </style>
  </defs>
  <g id="Layer_2" data-name="Layer 2">
    <g id="Layer_1-2" data-name="Layer 1">
      <g>
        <rect class="cls-1" y="61.82" width="43.5" height="43.5" rx="3.56"/>
        <rect class="cls-1" y="13.82" width="43.5" height="43.5" rx="3.56"/>
        <rect class="cls-1" x="48.75" y="61.82" width="43.5" height="43.5" rx="3.56"/>
        <g>
          <path class="cls-1" d="M69.73,48.69H57.61a1.11,1.11,0,0,1-1.11-1.11V35.46C56.5,34.81,70.38,48.69,69.73,48.69Z"/>
          <rect class="cls-1" x="58.93" y="35.95" width="13.3" height="7.32" rx="0.6" transform="translate(-8.8 57.97) rotate(-45)"/>
        </g>
        <path class="cls-2" d="M100.11,0l1.35,0a4.59,4.59,0,0,1,4.21,2.65,4.68,4.68,0,0,1,.42,1.6l0,.4V8.14l0,5.07,0,10.14c0,.34,0,.69.06,1v0l0,12.26v4.45a4.56,4.56,0,0,1-.16,1.15,4.6,4.6,0,0,1-1.12,2,4.7,4.7,0,0,1-2,1.23,4.88,4.88,0,0,1-1.14.21l-.29,0h-.67l-3.54,0q-7.09,0-14.17-.19c-1.47,0-4,0-3.93-.71s1.73-1.12,4.3-1.09l9.35.12,4.67,0,2.33,0h1.72a3.06,3.06,0,0,0,.45-.06,2.78,2.78,0,0,0,2-1.59,2.9,2.9,0,0,0,.22-1.3v-1.7l0-6.79V18.77l0-12.19V4.38a3.35,3.35,0,0,0-.11-.55,2.68,2.68,0,0,0-1.47-1.62A2.73,2.73,0,0,0,101.36,2H96.79c-7.63,0-15.26.19-22.89.19L69,2.17l-2.47,0H65.26a3,3,0,0,0-.93.08,2.6,2.6,0,0,0-1.41,1,2.34,2.34,0,0,0-.37.8,3.54,3.54,0,0,0-.1,1L62.39,10a26.71,26.71,0,0,0,.2,4.67v0c-.31,1.79.27,3.88-.18,5.62h0c0,.61,0,1.23,0,1.81.12,2.71-.13,3.43-.9,2.52-.17-.2-.4,0-.51-.62v0c-.53-1.84-.28-4.1-.29-6.15l0-7.54V4.52A4.45,4.45,0,0,1,63,.7,4.58,4.58,0,0,1,65.22.19H69l7.55,0c6.17,0,12.35,0,18.51-.07,1.69,0,3.38-.13,5.09-.07Z"/>
      </g>
    </g>
  </g>
</svg>
