<svg xmlns="http://www.w3.org/2000/svg" xmlns:xlink="http://www.w3.org/1999/xlink" viewBox="0 0 122.27 122.45">
  <defs>
    <style>
      .cls-1 {
        fill: none;
      }

      .cls-2 {
        clip-path: url(#clip-path);
      }

      .cls-3 {
        fill: #0048ff;
      }

      .cls-4 {
        fill: #231f20;
      }
    </style>
    <clipPath id="clip-path">
      <path class="cls-1" d="M41.27,41.27A40.17,40.17,0,0,0,81.43,81.44,40.16,40.16,0,0,0,41.27,41.27Z"/>
    </clipPath>
  </defs>
  <g id="Layer_2" data-name="Layer 2">
    <g id="Layer_1-2" data-name="Layer 1">
      <g class="cls-2">
        <g>
          <path class="cls-3" d="M36.73,44.49c.55-.58,1.09-1.18,1.66-1.75l6.47-6.41a3.37,3.37,0,0,0,.29-.37h0c1.31-1.29,2.62-2.57,3.92-3.88,3-3,6-6,9.15-8.87.49-.44,1.29-1.24,1.76-.74s.24,1.34-.6,2.14c-2,1.93-4.13,3.8-6,5.86-2.75,3-5.7,5.81-8.55,8.71-2.56,2.61-5.17,5.17-7.72,7.78-2.4,2.45-4.72,5-7.15,7.41-2.1,2.09-4.32,4.05-6.45,6.1a5.49,5.49,0,0,0-1.34,1.63h0c-.78.35-1,1.43-1.92,1.66h0a5.22,5.22,0,0,0-.6.55c-.78.94-1.18,1-1.44.16-.05-.19-.29-.27-.16-.56h0c.21-.95,1.11-1.49,1.75-2.15,3.16-3.24,6.36-6.44,9.54-9.66,1.95-2,3.94-3.92,5.83-5.94a22.34,22.34,0,0,1,1.57-1.66Z"/>
          <path class="cls-3" d="M42.23,50c.55-.58,1.09-1.18,1.66-1.75l6.47-6.41a3.37,3.37,0,0,0,.29-.37h0c1.31-1.29,2.62-2.57,3.92-3.88,3-3,6-6,9.15-8.87.49-.44,1.29-1.24,1.76-.74s.24,1.34-.6,2.14c-2,1.93-4.13,3.8-6,5.86-2.75,3-5.7,5.81-8.55,8.71-2.56,2.61-5.17,5.17-7.72,7.78-2.4,2.45-4.72,5-7.15,7.41C33.34,62,31.12,63.92,29,66a5.49,5.49,0,0,0-1.34,1.63h0c-.78.35-1,1.43-1.92,1.66h0a5.22,5.22,0,0,0-.6.55c-.78.94-1.18,1-1.44.16-.05-.19-.29-.27-.16-.56h0c.21-1,1.11-1.49,1.75-2.15,3.16-3.24,6.36-6.44,9.54-9.66,1.95-2,3.94-3.92,5.83-5.94A22.34,22.34,0,0,1,42.24,50Z"/>
          <path class="cls-3" d="M47.73,55.49c.55-.58,1.09-1.18,1.66-1.75l6.47-6.41a3.37,3.37,0,0,0,.29-.37h0c1.31-1.29,2.62-2.57,3.92-3.88,3-3,6-6,9.15-8.87.49-.44,1.29-1.24,1.76-.74s.24,1.34-.6,2.14c-2,1.93-4.13,3.8-6,5.86-2.75,3-5.7,5.81-8.55,8.71-2.56,2.61-5.17,5.17-7.72,7.78-2.4,2.45-4.72,5-7.15,7.41-2.1,2.09-4.32,4-6.45,6.1a5.49,5.49,0,0,0-1.34,1.63h0c-.78.35-1,1.43-1.92,1.66h0a5.22,5.22,0,0,0-.6.55c-.78.94-1.18,1-1.44.16-.05-.19-.29-.27-.16-.56h0c.21-1,1.11-1.49,1.75-2.15,3.16-3.24,6.36-6.44,9.54-9.66,1.95-2,3.94-3.92,5.83-5.94a22.34,22.34,0,0,1,1.57-1.66Z"/>
          <path class="cls-3" d="M53.23,61c.55-.58,1.09-1.18,1.66-1.75l6.47-6.41a3.37,3.37,0,0,0,.29-.37h0c1.31-1.29,2.62-2.57,3.92-3.88,3-3,6-6,9.15-8.87.49-.44,1.29-1.24,1.76-.74s.24,1.34-.6,2.14c-2,1.93-4.13,3.8-6,5.86-2.75,3-5.7,5.81-8.55,8.71-2.56,2.61-5.17,5.17-7.72,7.78-2.4,2.45-4.72,5-7.15,7.41-2.1,2.09-4.32,4-6.45,6.1a5.49,5.49,0,0,0-1.34,1.63h0c-.78.35-1,1.43-1.92,1.66h0a5.22,5.22,0,0,0-.6.55c-.78.94-1.18,1-1.44.16-.05-.19-.29-.27-.16-.56h0c.21-1,1.11-1.49,1.75-2.15,3.16-3.24,6.36-6.44,9.54-9.66,1.95-2,3.94-3.92,5.83-5.94A22.34,22.34,0,0,1,53.24,61Z"/>
          <path class="cls-3" d="M58.73,66.49c.55-.58,1.09-1.18,1.66-1.75l6.47-6.41a3.37,3.37,0,0,0,.29-.37h0c1.31-1.29,2.62-2.57,3.92-3.88,3-3,6-6,9.15-8.87.49-.44,1.29-1.24,1.76-.74s.24,1.34-.6,2.14c-2,1.93-4.13,3.8-6,5.86-2.75,3-5.7,5.81-8.55,8.71-2.56,2.61-5.17,5.17-7.72,7.78-2.4,2.45-4.72,5-7.15,7.41-2.1,2.09-4.32,4-6.45,6.1a5.49,5.49,0,0,0-1.34,1.63h0c-.78.35-1,1.43-1.92,1.66h0a5.22,5.22,0,0,0-.6.55c-.78.94-1.18,1-1.44.16-.05-.19-.29-.27-.16-.56h0c.21-1,1.11-1.49,1.75-2.15,3.16-3.24,6.36-6.44,9.54-9.66,1.95-2,3.94-3.92,5.83-5.94a22.34,22.34,0,0,1,1.57-1.66Z"/>
          <path class="cls-3" d="M64.23,72c.55-.58,1.09-1.18,1.66-1.75l6.47-6.41a3.37,3.37,0,0,0,.29-.37h0c1.31-1.29,2.62-2.57,3.92-3.88,3-3,6-6,9.15-8.87.49-.44,1.29-1.24,1.76-.74s.24,1.34-.6,2.14c-2,1.93-4.13,3.8-6,5.86-2.75,3-5.7,5.81-8.55,8.71-2.56,2.61-5.17,5.17-7.72,7.78-2.4,2.45-4.72,5-7.15,7.41-2.1,2.09-4.32,4-6.45,6.1a5.49,5.49,0,0,0-1.34,1.63h0c-.78.35-1,1.43-1.92,1.66h0a5.22,5.22,0,0,0-.6.55c-.78.94-1.18,1-1.44.16-.05-.19-.29-.27-.16-.56h0c.21-1,1.11-1.49,1.75-2.15,3.16-3.24,6.36-6.44,9.54-9.66,1.95-2,3.94-3.92,5.83-5.94A22.34,22.34,0,0,1,64.24,72Z"/>
          <path class="cls-3" d="M69.73,77.49c.55-.58,1.09-1.18,1.66-1.75l6.47-6.41a3.37,3.37,0,0,0,.29-.37h0c1.31-1.29,2.62-2.57,3.92-3.88,3-3,6-6,9.15-8.87.49-.44,1.29-1.24,1.76-.74s.24,1.34-.6,2.14c-2,1.93-4.13,3.8-6,5.86-2.75,3-5.7,5.81-8.55,8.71-2.56,2.61-5.17,5.17-7.72,7.78-2.4,2.45-4.72,5-7.15,7.41-2.1,2.09-4.32,4-6.45,6.1a5.49,5.49,0,0,0-1.34,1.63h0c-.78.35-1,1.43-1.92,1.66h0a5.22,5.22,0,0,0-.6.55c-.78.94-1.18,1-1.44.16-.05-.19-.29-.27-.16-.56h0c.21-1,1.11-1.49,1.75-2.15,3.16-3.24,6.36-6.44,9.54-9.66,2-2,3.94-3.92,5.83-5.94a22.34,22.34,0,0,1,1.57-1.66Z"/>
          <path class="cls-3" d="M75.23,83c.55-.58,1.09-1.18,1.66-1.75l6.47-6.41a3.37,3.37,0,0,0,.29-.37h0c1.31-1.29,2.62-2.57,3.92-3.88,3-3,6-6,9.15-8.87.49-.44,1.29-1.24,1.76-.74s.24,1.34-.6,2.14c-2,1.93-4.13,3.8-6,5.86-2.75,3-5.7,5.81-8.55,8.71-2.56,2.61-5.17,5.17-7.72,7.78-2.4,2.45-4.72,5-7.15,7.41-2.1,2.09-4.32,4-6.45,6.1a5.49,5.49,0,0,0-1.34,1.63h0c-.78.35-1,1.43-1.92,1.66h0a5.22,5.22,0,0,0-.6.55c-.78.94-1.18,1-1.44.16-.05-.19-.29-.27-.16-.56h0c.21-1,1.11-1.49,1.75-2.15,3.16-3.24,6.36-6.44,9.54-9.66,2-2,3.94-3.92,5.83-5.94A22.34,22.34,0,0,1,75.24,83Z"/>
        </g>
        <g>
          <path class="cls-3" d="M39.73,47.49c.55-.58,1.09-1.18,1.66-1.75l6.47-6.41a3.37,3.37,0,0,0,.29-.37h0c1.31-1.29,2.62-2.57,3.92-3.88,3-3,6-6,9.15-8.87.49-.44,1.29-1.24,1.76-.74s.24,1.34-.6,2.14c-2,1.93-4.13,3.8-6,5.86-2.75,3-5.7,5.81-8.55,8.71-2.56,2.61-5.17,5.17-7.72,7.78-2.4,2.45-4.72,5-7.15,7.41-2.1,2.09-4.32,4.05-6.45,6.1a5.49,5.49,0,0,0-1.34,1.63h0c-.78.35-1,1.43-1.92,1.66h0a5.22,5.22,0,0,0-.6.55c-.78.94-1.18,1-1.44.16-.05-.19-.29-.27-.16-.56h0c.21-1,1.11-1.49,1.75-2.15,3.16-3.24,6.36-6.44,9.54-9.66,1.95-2,3.94-3.92,5.83-5.94a22.34,22.34,0,0,1,1.57-1.66Z"/>
          <path class="cls-3" d="M45.23,53c.55-.58,1.09-1.18,1.66-1.75l6.47-6.41a3.37,3.37,0,0,0,.29-.37h0c1.31-1.29,2.62-2.57,3.92-3.88,3-3,6-6,9.15-8.87.49-.44,1.29-1.24,1.76-.74s.24,1.34-.6,2.14c-2,1.93-4.13,3.8-6,5.86-2.75,3-5.7,5.81-8.55,8.71-2.56,2.61-5.17,5.17-7.72,7.78-2.4,2.45-4.72,5-7.15,7.41C36.34,65,34.12,66.92,32,69a5.49,5.49,0,0,0-1.34,1.63h0c-.78.35-1,1.43-1.92,1.66h0a5.22,5.22,0,0,0-.6.55c-.78.94-1.18,1-1.44.16-.05-.19-.29-.27-.16-.56h0c.21-1,1.11-1.49,1.75-2.15,3.16-3.24,6.36-6.44,9.54-9.66,1.95-2,3.94-3.92,5.83-5.94A22.34,22.34,0,0,1,45.24,53Z"/>
          <path class="cls-3" d="M50.73,58.49c.55-.58,1.09-1.18,1.66-1.75l6.47-6.41a3.37,3.37,0,0,0,.29-.37h0c1.31-1.29,2.62-2.57,3.92-3.88,3-3,6-6,9.15-8.87.49-.44,1.29-1.24,1.76-.74s.24,1.34-.6,2.14c-2,1.93-4.13,3.8-6,5.86-2.75,3-5.7,5.81-8.55,8.71-2.56,2.61-5.17,5.17-7.72,7.78-2.4,2.45-4.72,5-7.15,7.41-2.1,2.09-4.32,4-6.45,6.1a5.49,5.49,0,0,0-1.34,1.63h0c-.78.35-1,1.43-1.92,1.66h0a5.22,5.22,0,0,0-.6.55c-.78.94-1.18,1-1.44.16-.05-.19-.29-.27-.16-.56h0c.21-1,1.11-1.49,1.75-2.15,3.16-3.24,6.36-6.44,9.54-9.66,1.95-2,3.94-3.92,5.83-5.94a22.34,22.34,0,0,1,1.57-1.66Z"/>
          <path class="cls-3" d="M56.23,64c.55-.58,1.09-1.18,1.66-1.75l6.47-6.41a3.37,3.37,0,0,0,.29-.37h0c1.31-1.29,2.62-2.57,3.92-3.88,3-3,6-6,9.15-8.87.49-.44,1.29-1.24,1.76-.74s.24,1.34-.6,2.14c-2,1.93-4.13,3.8-6,5.86-2.75,3-5.7,5.81-8.55,8.71-2.56,2.61-5.17,5.17-7.72,7.78-2.4,2.45-4.72,5-7.15,7.41-2.1,2.09-4.32,4-6.45,6.1a5.49,5.49,0,0,0-1.34,1.63h0c-.78.35-1,1.43-1.92,1.66h0a5.22,5.22,0,0,0-.6.55c-.78.94-1.18,1-1.44.16-.05-.19-.29-.27-.16-.56h0c.21-1,1.11-1.49,1.75-2.15,3.16-3.24,6.36-6.44,9.54-9.66,1.95-2,3.94-3.92,5.83-5.94A22.34,22.34,0,0,1,56.24,64Z"/>
          <path class="cls-3" d="M61.73,69.49c.55-.58,1.09-1.18,1.66-1.75l6.47-6.41a3.37,3.37,0,0,0,.29-.37h0c1.31-1.29,2.62-2.57,3.92-3.88,3-3,6-6,9.15-8.87.49-.44,1.29-1.24,1.76-.74s.24,1.34-.6,2.14c-2,1.93-4.13,3.8-6,5.86-2.75,3-5.7,5.81-8.55,8.71-2.56,2.61-5.17,5.17-7.72,7.78-2.4,2.45-4.72,5-7.15,7.41-2.1,2.09-4.32,4-6.45,6.1a5.49,5.49,0,0,0-1.34,1.63h0c-.78.35-1,1.43-1.92,1.66h0a5.22,5.22,0,0,0-.6.55c-.78.94-1.18,1-1.44.16-.05-.19-.29-.27-.16-.56h0c.21-1,1.11-1.49,1.75-2.15,3.16-3.24,6.36-6.44,9.54-9.66,1.95-2,3.94-3.92,5.83-5.94a22.34,22.34,0,0,1,1.57-1.66Z"/>
          <path class="cls-3" d="M67.23,75c.55-.58,1.09-1.18,1.66-1.75l6.47-6.41a3.37,3.37,0,0,0,.29-.37h0c1.31-1.29,2.62-2.57,3.92-3.88,3-3,6-6,9.15-8.87.49-.44,1.29-1.24,1.76-.74s.24,1.34-.6,2.14c-2,1.93-4.13,3.8-6,5.86-2.75,3-5.7,5.81-8.55,8.71-2.56,2.61-5.17,5.17-7.72,7.78-2.4,2.45-4.72,5-7.15,7.41-2.1,2.09-4.32,4-6.45,6.1a5.49,5.49,0,0,0-1.34,1.63h0c-.78.35-1,1.43-1.92,1.66h0a5.22,5.22,0,0,0-.6.55c-.78.94-1.18,1-1.44.16-.05-.19-.29-.27-.16-.56h0c.21-1,1.11-1.49,1.75-2.15,3.16-3.24,6.36-6.44,9.54-9.66,1.95-2,3.94-3.92,5.83-5.94A22.34,22.34,0,0,1,67.24,75Z"/>
          <path class="cls-3" d="M72.73,80.49c.55-.58,1.09-1.18,1.66-1.75l6.47-6.41a3.37,3.37,0,0,0,.29-.37h0c1.31-1.29,2.62-2.57,3.92-3.88,3-3,6-6,9.15-8.87.49-.44,1.29-1.24,1.76-.74s.24,1.34-.6,2.14c-2,1.93-4.13,3.8-6,5.86-2.75,3-5.7,5.81-8.55,8.71-2.56,2.61-5.17,5.17-7.72,7.78-2.4,2.45-4.72,5-7.15,7.41-2.1,2.09-4.32,4-6.45,6.1a5.49,5.49,0,0,0-1.34,1.63h0c-.78.35-1,1.43-1.92,1.66h0a5.22,5.22,0,0,0-.6.55c-.78.94-1.18,1-1.44.16-.05-.19-.29-.27-.16-.56h0c.21-1,1.11-1.49,1.75-2.15,3.16-3.24,6.36-6.44,9.54-9.66,2-2,3.94-3.92,5.83-5.94a22.34,22.34,0,0,1,1.57-1.66Z"/>
          <path class="cls-3" d="M78.23,86c.55-.58,1.09-1.18,1.66-1.75l6.47-6.41a3.37,3.37,0,0,0,.29-.37h0c1.31-1.29,2.62-2.57,3.92-3.88,3-3,6-6,9.15-8.87.49-.44,1.29-1.24,1.76-.74s.24,1.34-.6,2.14c-2,1.93-4.13,3.8-6,5.86-2.75,3-5.7,5.81-8.55,8.71-2.56,2.61-5.17,5.17-7.72,7.78-2.4,2.45-4.72,5-7.15,7.41-2.1,2.09-4.32,4-6.45,6.1a5.49,5.49,0,0,0-1.34,1.63h0c-.78.35-1,1.43-1.92,1.66h0a5.22,5.22,0,0,0-.6.55c-.78.94-1.18,1-1.44.16-.05-.19-.29-.27-.16-.56h0c.21-1,1.11-1.49,1.75-2.15,3.16-3.24,6.36-6.44,9.54-9.66,2-2,3.94-3.92,5.83-5.94A22.34,22.34,0,0,1,78.24,86Z"/>
        </g>
      </g>
      <g>
        <path class="cls-4" d="M1.31,91.38a41.07,41.07,0,0,1-1-5.15C.15,85.36.18,84.48.1,83.61S0,81.86,0,81A42.24,42.24,0,0,1,4.93,61.9,42.85,42.85,0,0,1,18.14,47.29l1.7-1.11-.05,0a44.88,44.88,0,0,1,5.33-2.78,46.4,46.4,0,0,1,5.7-1.89,42.43,42.43,0,0,1,5.91-1.11c1-.12,2-.12,3-.19l1.5-.07,1.5.07,1.74.08a12.5,12.5,0,0,1,1.73.16l3.44.53,3.37.86c1.12.3,2.19.77,3.29,1.15a41.79,41.79,0,0,1,11.85,7.15A40.67,40.67,0,0,1,81.61,73.8a30,30,0,0,1,.48,4.92c0,1.58-.12,2.77-.46,2.72s-.68-.88-.94-2.27c-.16-.69-.17-1.54-.41-2.49s-.37-2-.56-3.22a39,39,0,0,0-20.34-27,38.55,38.55,0,0,0-12.05-3.83A42.94,42.94,0,0,0,41,42.18l-3.16.17a10.34,10.34,0,0,0-1.57.18l-1.57.24a39.82,39.82,0,0,0-11.94,4,40.92,40.92,0,0,0-10,7.69,39.15,39.15,0,0,0-10.1,20l-.43,2.81c-.07.94-.1,1.89-.15,2.83,0,.48-.06,1-.06,1.42L2.11,83c.07,1,.06,1.9.18,2.84a42.51,42.51,0,0,0,2.88,11,44.1,44.1,0,0,0,2.47,4.72c.48.74.89,1.54,1.43,2.24l1.61,2.13a25.68,25.68,0,0,0,1.76,2,18.54,18.54,0,0,0,1.87,1.89l2,1.78c.7.55,1.42,1.06,2.13,1.59.36.26.71.54,1.08.79l1.14.68c.77.44,1.5.94,2.29,1.34a39.62,39.62,0,0,0,4.87,2.12l1.25.45.62.22.65.17,2.57.65c.85.24,1.74.29,2.62.45a19.26,19.26,0,0,0,2.63.31,40.6,40.6,0,0,0,18-2.68A39.33,39.33,0,0,0,71,107.06a13.54,13.54,0,0,0,1.39-1.7l1.32-1.78a34.18,34.18,0,0,0,2-3.77l0,0a21.52,21.52,0,0,0,2.16-4.79c.26-.85.63-1.67.84-2.52a21.1,21.1,0,0,1,.8-2.4h0l.22-.82.15-.84c.09-.56.18-1.12.25-1.66a28.93,28.93,0,0,0,.28-3.09A10.84,10.84,0,0,1,80.65,82c.18-.75.43-.67.77.2.15.38.4-.06.45,1.21v.06q.06.66.09,1.38a6.85,6.85,0,0,1,0,1.43c-.1,1-.23,2-.39,3a30.54,30.54,0,0,1-.74,3c-.14.5-.27,1-.41,1.49s-.36,1-.53,1.42a40.73,40.73,0,0,1-18.49,22.06,41.61,41.61,0,0,1-28.49,4.45,41.74,41.74,0,0,1-28-21,40.76,40.76,0,0,1-2.08-4.5c-.29-.77-.58-1.55-.88-2.33s-.41-1.62-.61-2.44Z"/>
        <path class="cls-4" d="M41.48,51.21a40.39,40.39,0,0,1-1-5.15,22.94,22.94,0,0,1-.21-2.62c0-.87-.14-1.75-.09-2.62a42.23,42.23,0,0,1,4.91-19.09A42.86,42.86,0,0,1,58.31,7.13L60,6,60,6a46.48,46.48,0,0,1,5.33-2.78A46,46,0,0,1,71,1.37,44,44,0,0,1,76.9.26c1-.11,2-.12,3-.18L81.4,0l1.5.07,1.74.09a12.49,12.49,0,0,1,1.73.15l3.44.53,3.37.87c1.12.29,2.19.76,3.28,1.14A41.75,41.75,0,0,1,108.31,10a40.71,40.71,0,0,1,13.47,23.64,31,31,0,0,1,.48,4.92c0,1.57-.12,2.76-.47,2.71s-.67-.87-.93-2.27c-.16-.69-.18-1.54-.41-2.49s-.38-2-.56-3.22a39,39,0,0,0-20.35-27,38.41,38.41,0,0,0-12-3.83A42.93,42.93,0,0,0,81.19,2L78,2.18a12.13,12.13,0,0,0-1.58.18l-1.56.24A39.48,39.48,0,0,0,63,6.64a40.45,40.45,0,0,0-10,7.68,39.11,39.11,0,0,0-10.1,20l-.43,2.81c-.07.94-.1,1.89-.16,2.84,0,.47-.06.94-.06,1.42l.08,1.42c.06.94,0,1.89.18,2.83a42.39,42.39,0,0,0,2.87,11,43.17,43.17,0,0,0,2.47,4.72c.49.75.89,1.54,1.44,2.25l1.61,2.12a25.68,25.68,0,0,0,1.76,2,20.85,20.85,0,0,0,1.86,1.9l2,1.78c.7.54,1.43,1.06,2.14,1.59.36.26.71.53,1.07.78l1.14.68c.77.45,1.51.94,2.3,1.34A39.62,39.62,0,0,0,68,77.89l1.25.45.62.23.64.16,2.58.65c.85.24,1.74.29,2.61.45a21.37,21.37,0,0,0,2.64.32,40.75,40.75,0,0,0,18-2.68A39.44,39.44,0,0,0,111.16,66.9a16.34,16.34,0,0,0,1.39-1.7l1.32-1.79a31.68,31.68,0,0,0,2-3.77l0,0a21.92,21.92,0,0,0,2.17-4.78c.26-.86.62-1.68.83-2.52a19.46,19.46,0,0,1,.81-2.41h0l.22-.82.14-.85c.1-.56.19-1.11.26-1.66a28.93,28.93,0,0,0,.28-3.09,12.62,12.62,0,0,1,.22-1.77c.18-.75.44-.67.78.2.15.38.4-.06.45,1.21l0,.1,0,0q.06.68.09,1.38a8.7,8.7,0,0,1,0,1.44c-.1,1-.24,2-.39,3s-.5,2-.75,3c-.14.49-.26,1-.41,1.48s-.35,1-.52,1.42A40.82,40.82,0,0,1,101.54,77,41.36,41.36,0,0,1,43,55.93l-.88-2.34c-.22-.8-.42-1.62-.61-2.43Z"/>
      </g>
    </g>
  </g>
</svg>
