<svg xmlns="http://www.w3.org/2000/svg" viewBox="0 0 107.24 118.1">
  <defs>
    <style>
      .cls-1 {
        fill: #0048ff;
      }

      .cls-2 {
        fill: #231f20;
      }

      .cls-3 {
        fill: #fff;
      }
    </style>
  </defs>
  <g id="Layer_2" data-name="Layer 2">
    <g id="Layer_1-2" data-name="Layer 1">
      <g>
        <circle class="cls-1" cx="34.57" cy="9.88" r="8.79"/>
        <path class="cls-2" d="M25,12.25a9,9,0,0,1-.37-2.48,10.17,10.17,0,0,1,1.2-4.57A10.17,10.17,0,0,1,29,1.72a3.86,3.86,0,0,0,.38-.3h0A9.15,9.15,0,0,1,32.07.31,9.77,9.77,0,0,1,34.92,0,9.62,9.62,0,0,1,41,2.39a9.31,9.31,0,0,1,3.08,5.69c.11.67.14,1.84-.54,1.8s-1.11-.67-1.26-1.6a7.39,7.39,0,0,0-4-5.49,8.58,8.58,0,0,0-5-.67,7.67,7.67,0,0,0-4.39,2.36A7.87,7.87,0,0,0,27.35,13,7.88,7.88,0,0,0,34,17.5a8.61,8.61,0,0,0,3.56-.44,7.77,7.77,0,0,0,3-2,2.7,2.7,0,0,0,.81-1.54h0c.58-.47.32-1.37.89-1.87h0a2.69,2.69,0,0,0,.15-.67c0-1,.21-1.29,1-.92.17.09.4,0,.5.28v0h0c.51.85.05,1.89-.26,2.75A9.47,9.47,0,0,1,39.3,18.3a9.8,9.8,0,0,1-6.71,1.07,10.12,10.12,0,0,1-6.66-4.94,6.8,6.8,0,0,1-.9-2.19Z"/>
      </g>
      <g>
        <path class="cls-1" d="M49.39,55.09l-1-14.94c0-8.73-5.09-16.82-13.82-16.82S20.75,31.42,20.75,40.15l-1,14.94"/>
        <path class="cls-2" d="M37.35,24.7c-.48-.06-1-.16-1.45-.2s-1,0-1.46,0a11.2,11.2,0,0,0-5.28,1.29,12.24,12.24,0,0,0-4.11,3.64,4,4,0,0,0-.27.5h0a16.74,16.74,0,0,0-2.54,6.3,22.07,22.07,0,0,0-.38,4l-.3,4.22c-.22,2.8-.46,5.61-.75,8.4-.1.88-.2,2.37-.88,2.29s-1-1.1-.91-2.62c.31-3.67.72-7.37.84-11,.09-1.33,0-2.71.18-4.1.05-.7.22-1.39.33-2.08s.33-1.37.56-2a17.16,17.16,0,0,1,4.41-7.18,12.83,12.83,0,0,1,6.85-3.43,13.94,13.94,0,0,1,7.63.81,14.49,14.49,0,0,1,5.76,4.39,18.12,18.12,0,0,1,3.15,6.45,22.43,22.43,0,0,1,.69,6.06l.25,5.85a9.38,9.38,0,0,0,.39,2.75v0c-.24,1.08.42,2.28,0,3.34h0a9.39,9.39,0,0,0,0,1.07c.22,1.6,0,2-.8,1.55-.18-.11-.39.05-.54-.34v0c-.6-1.06-.43-2.42-.53-3.63l-.65-9c0-.74-.12-1.5-.14-2.23l0-1.09-.12-1.07a19,19,0,0,0-1-4.16A13.51,13.51,0,0,0,40,25.59c-.43-.17-.86-.34-1.29-.49s-.88-.26-1.33-.4Z"/>
      </g>
      <g>
        <circle class="cls-3" cx="72.57" cy="9.88" r="8.79"/>
        <path class="cls-2" d="M63,12.25a9,9,0,0,1-.37-2.48,10.17,10.17,0,0,1,1.2-4.57A10.17,10.17,0,0,1,67,1.72a3.86,3.86,0,0,0,.38-.3h0A9.15,9.15,0,0,1,70.07.31,9.77,9.77,0,0,1,72.92,0,9.62,9.62,0,0,1,79,2.39a9.31,9.31,0,0,1,3.08,5.69c.11.67.14,1.84-.54,1.8s-1.11-.67-1.26-1.6a7.39,7.39,0,0,0-4.05-5.49,8.58,8.58,0,0,0-5-.67,7.67,7.67,0,0,0-4.39,2.36A7.87,7.87,0,0,0,65.35,13,7.88,7.88,0,0,0,72,17.5a8.61,8.61,0,0,0,3.56-.44,7.77,7.77,0,0,0,3-2,2.7,2.7,0,0,0,.81-1.54h0c.58-.47.32-1.37.89-1.87h0a2.69,2.69,0,0,0,.15-.67c0-1,.21-1.29,1-.92.17.09.4,0,.5.28v0h0c.51.85,0,1.89-.26,2.75A9.47,9.47,0,0,1,77.3,18.3a9.8,9.8,0,0,1-6.71,1.07,10.12,10.12,0,0,1-6.66-4.94,6.8,6.8,0,0,1-.9-2.19Z"/>
      </g>
      <g>
        <path class="cls-3" d="M87.39,55.09l-1-14.94c0-8.73-5.09-16.82-13.82-16.82S58.75,31.42,58.75,40.15l-1,14.94"/>
        <path class="cls-2" d="M75.35,24.7c-.48-.06-1-.16-1.45-.2s-1,0-1.46,0a11.2,11.2,0,0,0-5.28,1.29,12.24,12.24,0,0,0-4.11,3.64,4,4,0,0,0-.27.5h0a16.74,16.74,0,0,0-2.54,6.3,22.07,22.07,0,0,0-.38,4l-.3,4.22c-.22,2.8-.46,5.61-.75,8.4-.1.88-.2,2.37-.88,2.29s-1-1.1-.91-2.62c.31-3.67.72-7.37.84-11,.09-1.33,0-2.71.18-4.1.05-.7.22-1.39.33-2.08s.33-1.37.56-2a17.16,17.16,0,0,1,4.41-7.18,12.83,12.83,0,0,1,6.85-3.43,13.94,13.94,0,0,1,7.63.81,14.49,14.49,0,0,1,5.76,4.39,18.12,18.12,0,0,1,3.15,6.45,22.43,22.43,0,0,1,.69,6.06l.25,5.85a9.38,9.38,0,0,0,.39,2.75v0c-.24,1.08.42,2.28,0,3.34h0a9.39,9.39,0,0,0,0,1.07c.22,1.6,0,2-.8,1.55-.18-.11-.39.05-.54-.34v0c-.6-1.06-.43-2.42-.53-3.63l-.65-9c0-.74-.12-1.5-.14-2.23l0-1.09-.12-1.07a19,19,0,0,0-1-4.16A13.51,13.51,0,0,0,78,25.59c-.43-.17-.86-.34-1.29-.49s-.88-.26-1.33-.4Z"/>
      </g>
      <g>
        <circle class="cls-3" cx="15.57" cy="72.88" r="8.79"/>
        <path class="cls-2" d="M6,75.25a9,9,0,0,1-.37-2.48,9.88,9.88,0,0,1,4.37-8,3.86,3.86,0,0,0,.38-.3h0a9.15,9.15,0,0,1,2.66-1.11,9.77,9.77,0,0,1,2.85-.3A9.62,9.62,0,0,1,22,65.39a9.31,9.31,0,0,1,3.08,5.69c.11.67.14,1.84-.54,1.8s-1.11-.67-1.26-1.6a7.39,7.39,0,0,0-4.05-5.49,8.58,8.58,0,0,0-5-.67,7.67,7.67,0,0,0-4.39,2.36A7.68,7.68,0,0,0,15,80.5a8.61,8.61,0,0,0,3.56-.44,7.77,7.77,0,0,0,3-2,2.7,2.7,0,0,0,.81-1.54h0c.58-.47.32-1.37.89-1.87h0a2.69,2.69,0,0,0,.15-.67c0-1,.21-1.29,1-.92.17.09.4,0,.5.28v0h0c.51.85.05,1.89-.26,2.75A9.47,9.47,0,0,1,20.3,81.3a9.8,9.8,0,0,1-6.71,1.07,10.12,10.12,0,0,1-6.66-4.94A6.8,6.8,0,0,1,6,75.24Z"/>
      </g>
      <g>
        <path class="cls-3" d="M30.39,118.09l-1-14.94c0-8.73-5.09-16.82-13.82-16.82S1.75,94.42,1.75,103.15l-1,14.94"/>
        <path class="cls-2" d="M18.35,87.7c-.48-.06-1-.16-1.45-.2s-1,0-1.46,0a11.2,11.2,0,0,0-5.28,1.29,12.24,12.24,0,0,0-4.11,3.64,4,4,0,0,0-.27.5h0a16.74,16.74,0,0,0-2.54,6.3,22.07,22.07,0,0,0-.38,4l-.3,4.22c-.22,2.8-.46,5.61-.75,8.4-.1.88-.2,2.37-.88,2.29s-1-1.1-.91-2.62c.31-3.67.72-7.37.84-11,.09-1.33,0-2.71.18-4.1.05-.7.22-1.39.33-2.08s.33-1.37.56-2a17.16,17.16,0,0,1,4.41-7.18,12.83,12.83,0,0,1,6.85-3.43,13.94,13.94,0,0,1,7.63.81,14.49,14.49,0,0,1,5.76,4.39,18.12,18.12,0,0,1,3.15,6.45,22.43,22.43,0,0,1,.69,6.06l.25,5.85a9.38,9.38,0,0,0,.39,2.75v0c-.24,1.08.42,2.28,0,3.34h0a9.39,9.39,0,0,0,0,1.07c.22,1.6,0,2-.8,1.55-.18-.11-.39,0-.54-.34v0c-.6-1.06-.43-2.42-.53-3.63l-.65-9c0-.74-.12-1.5-.14-2.23l0-1.09-.12-1.07a19,19,0,0,0-1-4.16A13.51,13.51,0,0,0,21,88.59c-.43-.17-.86-.34-1.29-.49s-.88-.26-1.33-.4Z"/>
      </g>
      <g>
        <circle class="cls-3" cx="53.57" cy="72.88" r="8.79"/>
        <path class="cls-2" d="M44,75.25a9,9,0,0,1-.37-2.48,9.88,9.88,0,0,1,4.37-8,3.86,3.86,0,0,0,.38-.3h0a9.15,9.15,0,0,1,2.66-1.11,9.77,9.77,0,0,1,2.85-.3A9.62,9.62,0,0,1,60,65.39a9.31,9.31,0,0,1,3.08,5.69c.11.67.14,1.84-.54,1.8s-1.11-.67-1.26-1.6a7.39,7.39,0,0,0-4-5.49,8.58,8.58,0,0,0-5-.67,7.67,7.67,0,0,0-4.39,2.36A7.68,7.68,0,0,0,53,80.5a8.61,8.61,0,0,0,3.56-.44,7.77,7.77,0,0,0,3-2,2.7,2.7,0,0,0,.81-1.54h0c.58-.47.32-1.37.89-1.87h0a2.69,2.69,0,0,0,.15-.67c0-1,.21-1.29,1-.92.17.09.4,0,.5.28v0h0c.51.85.05,1.89-.26,2.75A9.47,9.47,0,0,1,58.3,81.3a9.8,9.8,0,0,1-6.71,1.07,10.12,10.12,0,0,1-6.66-4.94,6.8,6.8,0,0,1-.9-2.19Z"/>
      </g>
      <g>
        <path class="cls-3" d="M68.39,118.09l-1-14.94c0-8.73-5.09-16.82-13.82-16.82s-13.82,8.09-13.82,16.82l-1,14.94"/>
        <path class="cls-2" d="M56.35,87.7c-.48-.06-1-.16-1.45-.2s-1,0-1.46,0a11.2,11.2,0,0,0-5.28,1.29,12.24,12.24,0,0,0-4.11,3.64,4,4,0,0,0-.27.5h0a16.74,16.74,0,0,0-2.54,6.3,22.07,22.07,0,0,0-.38,4l-.3,4.22c-.22,2.8-.46,5.61-.75,8.4-.1.88-.2,2.37-.88,2.29s-1-1.1-.91-2.62c.31-3.67.72-7.37.84-11,.09-1.33,0-2.71.18-4.1.05-.7.22-1.39.33-2.08s.33-1.37.56-2a17.16,17.16,0,0,1,4.41-7.18,12.83,12.83,0,0,1,6.85-3.43,13.94,13.94,0,0,1,7.63.81,14.49,14.49,0,0,1,5.76,4.39,18.12,18.12,0,0,1,3.15,6.45,22.43,22.43,0,0,1,.69,6.06l.25,5.85a9.38,9.38,0,0,0,.39,2.75v0c-.24,1.08.42,2.28,0,3.34h0a9.39,9.39,0,0,0,0,1.07c.22,1.6,0,2-.8,1.55-.18-.11-.39,0-.54-.34v0c-.6-1.06-.43-2.42-.53-3.63l-.65-9c0-.74-.12-1.5-.14-2.23l0-1.09-.12-1.07a19,19,0,0,0-1-4.16A13.51,13.51,0,0,0,59,88.59c-.43-.17-.86-.34-1.29-.49s-.88-.26-1.33-.4Z"/>
      </g>
      <g>
        <circle class="cls-1" cx="91.57" cy="72.88" r="8.79"/>
        <path class="cls-2" d="M82,75.25a9,9,0,0,1-.37-2.48,9.88,9.88,0,0,1,4.37-8,3.86,3.86,0,0,0,.38-.3h0a9.15,9.15,0,0,1,2.66-1.11,9.77,9.77,0,0,1,2.85-.3A9.62,9.62,0,0,1,98,65.39a9.31,9.31,0,0,1,3.08,5.69c.11.67.14,1.84-.54,1.8s-1.11-.67-1.26-1.6a7.39,7.39,0,0,0-4.05-5.49,8.58,8.58,0,0,0-5-.67,7.67,7.67,0,0,0-4.39,2.36A7.68,7.68,0,0,0,91,80.5a8.61,8.61,0,0,0,3.56-.44,7.77,7.77,0,0,0,3-2,2.7,2.7,0,0,0,.81-1.54h0c.58-.47.32-1.37.89-1.87h0a2.69,2.69,0,0,0,.15-.67c0-1,.21-1.29,1-.92.17.09.4,0,.5.28v0h0c.51.85,0,1.89-.26,2.75A9.47,9.47,0,0,1,96.3,81.3a9.8,9.8,0,0,1-6.71,1.07,10.12,10.12,0,0,1-6.66-4.94,6.8,6.8,0,0,1-.9-2.19Z"/>
      </g>
      <g>
        <path class="cls-1" d="M106.39,118.09l-1-14.94c0-8.73-5.09-16.82-13.82-16.82s-13.82,8.09-13.82,16.82l-1,14.94"/>
        <path class="cls-2" d="M94.35,87.7c-.48-.06-1-.16-1.45-.2s-1,0-1.46,0a11.2,11.2,0,0,0-5.28,1.29,12.24,12.24,0,0,0-4.11,3.64,4,4,0,0,0-.27.5h0a16.74,16.74,0,0,0-2.54,6.3,22.07,22.07,0,0,0-.38,4l-.3,4.22c-.22,2.8-.46,5.61-.75,8.4-.1.88-.2,2.37-.88,2.29s-1-1.1-.91-2.62c.31-3.67.72-7.37.84-11,.09-1.33,0-2.71.18-4.1,0-.7.22-1.39.33-2.08s.33-1.37.56-2a17.16,17.16,0,0,1,4.41-7.18,12.83,12.83,0,0,1,6.85-3.43,13.94,13.94,0,0,1,7.63.81,14.49,14.49,0,0,1,5.76,4.39,18.12,18.12,0,0,1,3.15,6.45,22.43,22.43,0,0,1,.69,6.06l.25,5.85a9.38,9.38,0,0,0,.39,2.75v0c-.24,1.08.42,2.28,0,3.34h0a9.39,9.39,0,0,0,0,1.07c.22,1.6,0,2-.8,1.55-.18-.11-.39,0-.54-.34v0c-.6-1.06-.43-2.42-.53-3.63l-.65-9c0-.74-.12-1.5-.14-2.23l0-1.09-.12-1.07a19,19,0,0,0-1-4.16A13.51,13.51,0,0,0,97,88.59c-.43-.17-.86-.34-1.29-.49s-.88-.26-1.33-.4Z"/>
      </g>
    </g>
  </g>
</svg>
