<svg xmlns="http://www.w3.org/2000/svg" viewBox="0 0 98 98">
  <defs>
    <style>
      .cls-1 {
        fill: #ffaa29;
      }

      .cls-2 {
        fill: #fff;
      }
    </style>
  </defs>
  <g id="Layer_2" data-name="Layer 2">
    <g id="Layer_1-2" data-name="Layer 1">
      <g>
        <path class="cls-1" d="M98,49c0,4.21-4.49,7.77-5.52,11.65s1,9.34-1,12.86-7.73,4.42-10.62,7.31-3.75,8.56-7.32,10.62-8.83,0-12.85,1S53.21,98,49,98s-7.77-4.49-11.65-5.52-9.34,1-12.86-1-4.42-7.73-7.31-10.62S8.62,77.07,6.56,73.5s0-8.83-1-12.85S0,53.21,0,49s4.49-7.77,5.52-11.65-1-9.34,1-12.86,7.73-4.42,10.62-7.31S20.93,8.62,24.5,6.56s8.83,0,12.85-1S44.79,0,49,0s7.77,4.49,11.65,5.52,9.34-1,12.86,1,4.42,7.73,7.31,10.62,8.56,3.75,10.62,7.32,0,8.83,1,12.85S98,44.79,98,49Z"/>
        <path class="cls-2" d="M46.76,55.2c.56-.6,1.09-1.24,1.69-1.8l6.91-6.28a1.8,1.8,0,0,0,.25-.43h0c1.39-1.26,2.82-2.49,4.18-3.79a95.76,95.76,0,0,1,9.89-8.53c.55-.4,1.4-1.18,2.54.08s1.32,2.59.41,3.35a52.15,52.15,0,0,0-6.47,5.66c-2.75,3.17-6,5.83-9,8.73-2.68,2.6-5.48,5.09-8.16,7.7-.62.62-1.24,1.25-1.85,1.88S46,63,45.29,63.73a7.85,7.85,0,0,1-3.26,2,6,6,0,0,1-2.41.18,6.89,6.89,0,0,1-2-.6,10.68,10.68,0,0,1-2.44-1.64C34.48,63.12,34,62.59,33.4,62c-1.1-1.16-2.13-2.37-3.15-3.58a2.87,2.87,0,0,0-1.89-1.31v0c0-1.14-1.73-1-1.36-2.38h0a3.11,3.11,0,0,0-.47-.74c-1-.86-.71-1.49,1.1-2.3.4-.18.78-.6,1.19-.53v0l0,0c1.54-.13,1.64,1,2.25,1.72a58.32,58.32,0,0,0,4.66,4.77c1.6,1.44,3.56,3.17,4.56,3.24a1.12,1.12,0,0,0,.7-.12,6.15,6.15,0,0,0,1.21-.9c1-.91,2-1.95,3-3a8.38,8.38,0,0,1,1.6-1.71Z"/>
      </g>
    </g>
  </g>
</svg>
