<svg xmlns="http://www.w3.org/2000/svg" viewBox="0 0 170.27 125.19">
  <defs>
    <style>
      .cls-1 {
        fill: #ffaa29;
      }

      .cls-2 {
        fill: #231f20;
      }
    </style>
  </defs>
  <g id="Layer_2" data-name="Layer 2">
    <g id="Layer_1-2" data-name="Layer 1">
      <g>
        <g>
          <path class="cls-1" d="M112,88,52.69,75.4a1,1,0,0,1-.84-1V42.32a1.05,1.05,0,0,1,1.27-1l59.29,12.59a1,1,0,0,1,.84,1V87A1.06,1.06,0,0,1,112,88Z"/>
          <path class="cls-2" d="M50.8,47.89l0-3.9V42.41a1,1,0,0,1,0-.24,2.57,2.57,0,0,1,.08-.47,2.16,2.16,0,0,1,1.22-1.37,2.07,2.07,0,0,1,.92-.18,3.93,3.93,0,0,1,.48.06l.24,0L82.5,46.42c.49.11,1,.17,1.48.26h0l17.42,3.72,11.28,2.39a2.15,2.15,0,0,1,1.43,1,2.23,2.23,0,0,1,.28.87c0,.38,0,.41,0,.6v5.57l0,7.42q-.07,7.43-.16,14.84c0,1.07,0,2.52-.11,3.69a2.44,2.44,0,0,1-.1.61,1.72,1.72,0,0,1-.33.58,1.52,1.52,0,0,1-.9.51c-.59.07-.85-.2-.78-.34s.27-.28.45-.46a.75.75,0,0,0,.23-.71,3.21,3.21,0,0,1-.06-.35l-.06-.47c0-.33-.06-.68-.08-1.06,0-.75-.07-1.6-.06-2.54.06-9,.22-18.13.1-27.13V55a.57.57,0,0,0,0-.14.28.28,0,0,0-.22-.16C100,52.21,87.78,49.54,75.58,47L58.25,43.32l-4.33-.92L53,42.21a.17.17,0,0,0-.17.07.18.18,0,0,0,0,.09v1.49l0,8.85.07,11.57,0,5.78,0,2.89v1.36l0,0,9.89,2.07c9.36,2,18.68,4.15,28,6.19a54.23,54.23,0,0,0,6.67,1.21l0,0c2.48.84,5.57.91,8,1.88h0c.86.2,1.73.43,2.57.58,3.87.71,4.83,1.16,3.39,1.65-.32.1,0,.39-1,.31l-.06,0,0,0c-2.71,0-5.87-1-8.79-1.58l-42.92-9L52.5,76.29A2,2,0,0,1,51,74.74a1.43,1.43,0,0,1,0-.29V65.53c0-3.43,0-6.87-.06-10.29,0-2.45-.13-4.91-.07-7.39Z"/>
        </g>
        <path class="cls-2" d="M68.62,3.57V3.29l0-.37a3.58,3.58,0,0,1,.15-.78A3.21,3.21,0,0,1,69.69.76a3,3,0,0,1,1.5-.71A3.19,3.19,0,0,1,72,0a3.43,3.43,0,0,1,.69.11L88.88,3.6c.28,0,.56.08.84.11h0l9.79,2.1,2.83.6c.26,0,.43.08.76.16a4.09,4.09,0,0,1,.92.36,4.64,4.64,0,0,1,1.44,1.23,4.8,4.8,0,0,1,.84,1.71,4.61,4.61,0,0,1,.12,1v.73l0,2.89-.06,5.79,0,2.89,0,1.45v.72a3.64,3.64,0,0,1-.16,1,2.82,2.82,0,0,1-.73,1.24,2.58,2.58,0,0,1-1.31.69c-.93.14-1.5-.25-1.39-.55s.51-.52.9-.79a1.88,1.88,0,0,0,.84-1.27c.1-4.76.25-10.21.1-15a2.69,2.69,0,0,0-1.1-1.73,2.15,2.15,0,0,0-.93-.4l-1.36-.28L95.66,7.06,84.81,4.76l-9.74-2-2.44-.52L72,2.07a1.67,1.67,0,0,0-.38,0,1.09,1.09,0,0,0-.63.23,1.11,1.11,0,0,0-.37.56,1.51,1.51,0,0,0-.06.38c0,.12,0,.39,0,.58V6.28l.11,9.35,0,2.26a2.36,2.36,0,0,0,.67,1.4,2.48,2.48,0,0,0,.63.46,3,3,0,0,0,.84.24l2.28.48c5.26,1.13,10.49,2.41,15.74,3.59a17,17,0,0,0,3.77.59h0c1.36.6,3.16.4,4.45,1.14h0c.48.11,1,.26,1.44.34,2.19.34,2.71.7,1.82,1.31-.19.13-.05.39-.6.39l0,0v0c-1.57.2-3.32-.43-5-.77L72.65,22a7.84,7.84,0,0,1-1-.26,3.83,3.83,0,0,1-1.06-.56,4.52,4.52,0,0,1-1.46-1.84,4.21,4.21,0,0,1-.31-1.17c0-.46,0-.72,0-1V15.26q0-3.78-.07-7.56c0-1.38-.12-2.76-.06-4.16Z"/>
        <path class="cls-2" d="M62.37,100.52v-.66a3.29,3.29,0,0,1,1.06-2.15A3,3,0,0,1,65,97a3.09,3.09,0,0,1,.8,0,4.32,4.32,0,0,1,.69.1l16.2,3.48c.27.06.55.08.83.12h0l9.79,2.11,2.84.59.75.17a4.09,4.09,0,0,1,.92.36,4.8,4.8,0,0,1,1.45,1.23,4.4,4.4,0,0,1,1,2.69v3.62l-.07,5.79,0,2.89,0,1.45,0,.72a3.62,3.62,0,0,1-.15,1,3,3,0,0,1-.73,1.24,2.48,2.48,0,0,1-1.32.68c-.93.15-1.49-.24-1.38-.54s.5-.52.89-.8a1.83,1.83,0,0,0,.84-1.26c.1-4.76.26-10.21.11-15a2.79,2.79,0,0,0-1.11-1.74,2.44,2.44,0,0,0-.92-.4l-1.36-.27L89.41,104l-10.84-2.29-9.75-2-2.43-.52L65.8,99a1.33,1.33,0,0,0-.39,0,1.09,1.09,0,0,0-.63.23,1.13,1.13,0,0,0-.37.56,1.17,1.17,0,0,0,0,.38c0,.12,0,.39,0,.58v2.49l.11,9.35,0,2.26a2.34,2.34,0,0,0,1.3,1.86,2.79,2.79,0,0,0,.83.24l2.29.48c5.26,1.12,10.48,2.41,15.73,3.59a17.79,17.79,0,0,0,3.77.59h0c1.37.6,3.16.39,4.45,1.13h0c.48.11,1,.26,1.44.33,2.19.35,2.71.71,1.83,1.32-.2.13-.06.39-.61.39l0,0v0c-1.58.2-3.33-.43-5-.77L66.4,119a6.53,6.53,0,0,1-1-.25,3.79,3.79,0,0,1-1.07-.57,4.51,4.51,0,0,1-1.46-1.83,4.21,4.21,0,0,1-.31-1.17,9.58,9.58,0,0,1,0-1v-1.9q0-3.78-.06-7.55c0-1.38-.13-2.76-.07-4.16Z"/>
        <path class="cls-2" d="M0,26.37V26.1l0-.38A3.61,3.61,0,0,1,.18,25a3.15,3.15,0,0,1,.91-1.38,3,3,0,0,1,1.51-.71,2.71,2.71,0,0,1,.8,0,4.5,4.5,0,0,1,.69.1L20.28,26.4c.28.06.56.08.84.12h0l9.79,2.11,2.83.59c.26.06.43.08.76.17a4.09,4.09,0,0,1,.92.36A4.51,4.51,0,0,1,36.84,31a4.42,4.42,0,0,1,.84,1.71,4.53,4.53,0,0,1,.12,1v.73l0,2.89-.06,5.79,0,2.89,0,1.45,0,.72a4.07,4.07,0,0,1-.15,1,3,3,0,0,1-.73,1.24,2.51,2.51,0,0,1-1.32.68c-.93.15-1.49-.25-1.38-.55s.5-.52.89-.79a1.86,1.86,0,0,0,.84-1.26c.1-4.76.26-10.21.11-15a2.79,2.79,0,0,0-1.11-1.74,2.44,2.44,0,0,0-.92-.4L32.49,31l-5.43-1.13L16.21,27.57,6.47,25.51,4,25l-.59-.12a1.33,1.33,0,0,0-.39,0,1.09,1.09,0,0,0-.63.23,1.07,1.07,0,0,0-.37.56A1.51,1.51,0,0,0,2,26c0,.12,0,.39,0,.58v2.49l.11,9.34,0,2.27a2.29,2.29,0,0,0,.66,1.4,2.48,2.48,0,0,0,.63.46,3,3,0,0,0,.84.24l2.29.48c5.26,1.12,10.48,2.41,15.73,3.59a17.6,17.6,0,0,0,3.77.59h0c1.36.6,3.16.39,4.45,1.13h0c.48.12,1,.27,1.44.34,2.19.35,2.71.71,1.82,1.32-.19.13-.05.39-.6.39l0,0h0c-1.58.21-3.33-.42-5-.76l-24.13-5a6.28,6.28,0,0,1-1-.25A3.79,3.79,0,0,1,2,44,4.51,4.51,0,0,1,.49,42.17,4.21,4.21,0,0,1,.18,41a9.72,9.72,0,0,1,0-1V38.06q0-3.78-.06-7.55c0-1.38-.13-2.76-.07-4.16Z"/>
        <path class="cls-2" d="M3.88,65.11v-.65A4.05,4.05,0,0,1,4,63.69,3.24,3.24,0,0,1,5,62.3a3.07,3.07,0,0,1,1.5-.71,3.19,3.19,0,0,1,.81,0,5.91,5.91,0,0,1,.69.11l16.19,3.48c.28.06.56.08.84.12h0l9.79,2.1,2.83.6c.26.06.43.08.76.17a4.09,4.09,0,0,1,.92.36,4.51,4.51,0,0,1,1.44,1.23,4.72,4.72,0,0,1,.84,1.71,4.53,4.53,0,0,1,.12,1v.72l0,2.9-.06,5.79,0,2.89,0,1.44v.72a3.71,3.71,0,0,1-.16,1,2.89,2.89,0,0,1-.73,1.23,2.58,2.58,0,0,1-1.31.69c-.93.15-1.5-.25-1.39-.55s.51-.52.9-.79a1.88,1.88,0,0,0,.84-1.26c.1-4.77.25-10.22.1-15a2.69,2.69,0,0,0-1.1-1.73,2.27,2.27,0,0,0-.93-.4l-1.36-.27L30.92,68.6,20.07,66.3l-9.74-2-2.44-.52-.59-.12a1.23,1.23,0,0,0-.38,0,1,1,0,0,0-1,.78,1.59,1.59,0,0,0-.06.38c0,.13,0,.4,0,.58v2.49L6,77.17l0,2.27a2.36,2.36,0,0,0,.67,1.39,2.3,2.3,0,0,0,.63.47,3,3,0,0,0,.84.24l2.28.48c5.26,1.12,10.49,2.41,15.74,3.59a18.24,18.24,0,0,0,3.77.59l0,0c1.36.61,3.16.4,4.45,1.14h0c.48.12,1,.26,1.44.34,2.19.35,2.71.71,1.82,1.31-.19.14-.05.39-.6.4l0,0h0c-1.57.2-3.32-.43-5-.76l-24.14-5a9.93,9.93,0,0,1-1-.25,3.86,3.86,0,0,1-1.06-.57A4.46,4.46,0,0,1,4.35,80.9,3.74,3.74,0,0,1,4,79.73c0-.45,0-.71,0-1V76.8c0-2.52,0-5-.07-7.56,0-1.38-.12-2.75-.06-4.15Z"/>
        <path class="cls-2" d="M132.49,42.56v-.27l0-.38a3.39,3.39,0,0,1,.15-.77,3.24,3.24,0,0,1,.91-1.39,3.2,3.2,0,0,1,2.31-.75,5.57,5.57,0,0,1,.69.11l16.2,3.48c.27.06.55.08.83.12h0l9.79,2.1,2.83.6c.26.06.43.08.76.17a3.67,3.67,0,0,1,.92.36,4.51,4.51,0,0,1,1.44,1.23,4.42,4.42,0,0,1,.84,1.71,4.53,4.53,0,0,1,.12,1v3.62l-.07,5.79-.05,2.89,0,1.44,0,.72a4.16,4.16,0,0,1-.15,1,3,3,0,0,1-.73,1.23,2.57,2.57,0,0,1-1.32.69c-.93.15-1.49-.25-1.38-.55s.5-.52.89-.79a1.88,1.88,0,0,0,.84-1.26c.1-4.77.26-10.22.11-15a2.74,2.74,0,0,0-1.11-1.73,2.29,2.29,0,0,0-.92-.4L165,47.18l-5.43-1.13-10.85-2.3-9.74-2-2.43-.52-.59-.12a1.31,1.31,0,0,0-.39,0,1.09,1.09,0,0,0-.63.22,1.15,1.15,0,0,0-.37.56,1.59,1.59,0,0,0-.06.38c0,.13,0,.4,0,.58v2.49l.11,9.35,0,2.27a2.35,2.35,0,0,0,.66,1.39,2.3,2.3,0,0,0,.63.47,3,3,0,0,0,.84.24l2.29.48c5.26,1.12,10.48,2.41,15.73,3.59a18.24,18.24,0,0,0,3.77.59l0,0c1.36.61,3.16.4,4.45,1.14h0c.48.12,1,.27,1.44.34,2.19.35,2.71.71,1.83,1.31-.2.14-.06.39-.61.4l0,0h0c-1.58.2-3.33-.43-5-.76l-24.13-5a9.93,9.93,0,0,1-1-.25,4.07,4.07,0,0,1-1.07-.57A4.54,4.54,0,0,1,133,58.35a4,4,0,0,1-.31-1.17,9.51,9.51,0,0,1,0-1V54.25q0-3.78-.06-7.56c0-1.38-.13-2.75-.07-4.15Z"/>
        <path class="cls-2" d="M121.61,92.49v-.65a3.52,3.52,0,0,1,.16-.77,3.07,3.07,0,0,1,2.41-2.1,3.61,3.61,0,0,1,.8,0,5.57,5.57,0,0,1,.69.11l16.2,3.48c.27.06.56.08.83.12h0l9.79,2.11,2.84.59c.25.06.42.08.75.17a4.09,4.09,0,0,1,.92.36,4.66,4.66,0,0,1,1.45,1.23,4.4,4.4,0,0,1,.95,2.69v3.62l-.07,5.79-.05,2.89,0,1.44,0,.73a3.68,3.68,0,0,1-.15,1,3,3,0,0,1-.73,1.23,2.5,2.5,0,0,1-1.32.69c-.93.15-1.49-.25-1.38-.55s.51-.52.89-.79a1.83,1.83,0,0,0,.84-1.26c.1-4.77.26-10.22.11-15a2.72,2.72,0,0,0-1.11-1.74,2.29,2.29,0,0,0-.92-.4l-1.36-.27L148.65,96l-10.84-2.29-9.75-2.06-2.43-.51L125,91a1.73,1.73,0,0,0-.39,0,1.09,1.09,0,0,0-.63.23,1.13,1.13,0,0,0-.36.55,1,1,0,0,0-.06.39c0,.12,0,.39,0,.58V95.2l.11,9.35,0,2.27a2.38,2.38,0,0,0,.66,1.39,2.2,2.2,0,0,0,.64.47,2.79,2.79,0,0,0,.83.24l2.29.48c5.26,1.12,10.48,2.41,15.73,3.59a17.79,17.79,0,0,0,3.77.59l0,0c1.37.61,3.16.4,4.45,1.14h0c.48.12,1,.27,1.45.34,2.18.35,2.7.71,1.82,1.31-.2.14-.06.4-.61.4l0,0h0c-1.58.21-3.33-.42-5-.76l-24.13-5a9.93,9.93,0,0,1-1-.25,4.07,4.07,0,0,1-1.07-.57,4.51,4.51,0,0,1-1.46-1.83,4.21,4.21,0,0,1-.31-1.17,9.72,9.72,0,0,1,0-1.05v-1.89q0-3.78-.06-7.56c0-1.37-.13-2.75-.07-4.15Z"/>
        <path class="cls-2" d="M43.93,47.87a7,7,0,0,1-.65-.39c-.78-.57-1.54-1.15-2.31-1.73a1.55,1.55,0,0,0-.15,0h0c-.46-.35-.91-.71-1.39-1a23,23,0,0,1-3.14-2.52c-.15-.15-.43-.36,0-.91s.86-.76,1.14-.52a12.62,12.62,0,0,0,2.08,1.64,34.18,34.18,0,0,1,3.18,2.16c1,.65,1.87,1.35,2.82,2s1.87,1.11,2.74,1.76,1.4,1.24,2.12,1.84a.65.65,0,0,0,.66.22h0c0,.4.6.1.53.62h0c.07.06.11.15.19.18.38.13.32.39-.24.94-.12.12-.23.32-.37.36h0c-.52.27-.63-.12-.88-.28-1.18-.8-2.34-1.63-3.51-2.45-.72-.5-1.41-1-2.17-1.48a2,2,0,0,1-.62-.37Z"/>
        <path class="cls-2" d="M45.35,68.21a3.12,3.12,0,0,1,.42-.18l1.7-.41s.05-.05.07-.08h0c.34-.08.69-.15,1-.25a8.42,8.42,0,0,1,2.4-.44c.14,0,.35,0,.52.61s.14,1.11-.08,1.15a4.44,4.44,0,0,0-1.58.31,13.48,13.48,0,0,1-2.23.72c-.66.21-1.35.36-2,.57s-1.22.53-1.85.69a16.27,16.27,0,0,1-1.71.2c-.13,0-.28,0-.33.31h0c-.23-.25-.25.35-.52,0-.05,0-.11,0-.16,0s-.31-.05-.44-.82a2.05,2.05,0,0,1-.08-.51h0c0-.55.27-.35.44-.41.82-.28,1.66-.51,2.49-.75a10.35,10.35,0,0,0,1.52-.49c.14-.06.25-.19.41-.18Z"/>
        <path class="cls-2" d="M121.87,56.58c.27-.19.52-.41.8-.59l3.18-2c.06,0,.09-.1.13-.15h0c.64-.4,1.29-.79,1.92-1.2A39.64,39.64,0,0,1,132.43,50c.25-.12.64-.36,1,.21s.33,1.12-.08,1.35a21.61,21.61,0,0,0-3,1.78c-1.31,1.06-2.78,1.89-4.17,2.82s-2.53,1.63-3.78,2.47S120.15,60.28,119,61c-1,.66-2.15,1.17-3.21,1.78-.25.14-.53.27-.62.64h0c-.45-.08-.46.62-1,.41h0a1.05,1.05,0,0,0-.3.15c-.36.37-.6.23-.88-.51-.06-.16-.22-.33-.18-.49h0c0-.63.49-.64.8-.86,1.54-1,3.11-2.06,4.66-3.09,1-.63,1.94-1.23,2.85-1.92a3.72,3.72,0,0,1,.75-.57Z"/>
        <path class="cls-2" d="M118.32,86.28c-.17-.15-.36-.28-.51-.44L116.09,84a.52.52,0,0,0-.13-.06h0c-.35-.38-.68-.76-1-1.13a17.46,17.46,0,0,1-2.3-2.7c-.11-.16-.32-.38.17-.85s1-.61,1.17-.36a9.92,9.92,0,0,0,1.53,1.76A27.19,27.19,0,0,1,117.92,83c.72.71,1.4,1.48,2.13,2.18s1.45,1.25,2.1,2,1,1.31,1.53,1.95a.53.53,0,0,0,.55.28h0c-.07.38.53.17.35.64h0c0,.07.06.15.13.19.31.16.2.4-.44.85-.14.1-.28.28-.42.3v0h0c-.53.2-.55-.18-.73-.36-.91-.87-1.78-1.77-2.67-2.67a21,21,0,0,0-1.65-1.62c-.16-.14-.38-.22-.48-.41Z"/>
        <path class="cls-2" d="M80.82,92.35c0-.26,0-.53,0-.79.08-1,.17-2,.26-3a.58.58,0,0,0,0-.16h0c0-.6.12-1.19.15-1.79a24.13,24.13,0,0,1,.5-4.14c0-.21.08-.58.75-.52s1.1.33,1,.71a13.91,13.91,0,0,0-.31,2.72,35.13,35.13,0,0,1-.16,4c0,1.19-.18,2.38-.22,3.57s0,2.25-.06,3.36c-.07,1-.32,1.91-.45,2.87a.7.7,0,0,0,.16.7h0c-.33.24.22.59-.25.81h0a.58.58,0,0,0,0,.26c.08.4-.17.49-.93.3-.17,0-.4,0-.5-.13h0c-.51-.31-.23-.62-.22-.92.05-1.47.15-3,.23-4.42,0-.9.15-1.81.12-2.71a2.1,2.1,0,0,1,0-.75Z"/>
        <path class="cls-2" d="M86.26,35.32c-.05.32-.07.65-.13,1-.26,1.2-.53,2.4-.79,3.61a.62.62,0,0,0,0,.19h0c-.16.72-.33,1.45-.48,2.18a35.91,35.91,0,0,1-1.23,5c-.09.26-.18.71-.85.56s-1-.53-.91-1a21,21,0,0,0,.79-3.31c.16-1.65.59-3.24.88-4.86.27-1.46.61-2.9.87-4.36s.37-2.76.66-4.12c.25-1.17.66-2.31,1-3.47a1,1,0,0,0,0-.87h0c.37-.26-.12-.75.39-1h0a1,1,0,0,0,.09-.32c0-.51.26-.58,1-.27.16.07.39.08.48.22h0c.45.44.12.79.05,1.16-.32,1.8-.68,3.6-1,5.4-.21,1.1-.47,2.2-.6,3.31a3.15,3.15,0,0,1-.13.92Z"/>
      </g>
    </g>
  </g>
</svg>
