<svg xmlns="http://www.w3.org/2000/svg" viewBox="0 0 98.51 78.01">
  <defs>
    <style>
      .cls-1 {
        fill: #231f20;
      }

      .cls-2 {
        fill: #ffaa29;
      }

      .cls-3 {
        fill: #fff;
      }
    </style>
  </defs>
  <g id="Layer_2" data-name="Layer 2">
    <g id="Layer_1-2" data-name="Layer 1">
      <path class="cls-1" d="M2.53,5.28A12.92,12.92,0,0,1,13.35,0l43.54,0c.74,0,1.48,0,2.22-.06H59c2.22,0,4.35,0,6.63,0a13,13,0,0,1,6.75,2.21,13.85,13.85,0,0,1,2.66,2.41,13.14,13.14,0,0,1,1.9,3,12.62,12.62,0,0,1,1,3.45,13.36,13.36,0,0,1,.14,1.79v1.65q0,15.23,0,30.45,0,7.61-.07,15.21l0,3.81a17.91,17.91,0,0,1-.33,4,12.75,12.75,0,0,1-4.18,6.89,13.89,13.89,0,0,1-2.38,1.6,11.28,11.28,0,0,1-2.8,1c-1.82.38-3.23.13-3.16-.18s1-.6,2.44-1.1a14.41,14.41,0,0,0,5.26-3.16,11,11,0,0,0,2.53-3.85,11.94,11.94,0,0,0,.77-4.6l.06-10c0-6.69,0-13.37,0-20L76.13,20l0-7.27A11,11,0,0,0,68.57,2.58,11.94,11.94,0,0,0,65.26,2H14.34c-.54,0-1.1,0-1.62,0a10.86,10.86,0,0,0-1.51.13,10.31,10.31,0,0,0-2.87.85A11,11,0,0,0,3.8,6.9,10.88,10.88,0,0,0,2,12.55q.09,24.57.16,49.12c0,1.74-.08,3.62.11,5.14a11,11,0,0,0,1.67,4.45,10.85,10.85,0,0,0,8,4.79c.77.07,1.68.07,2.56.07l2.65,0,5.3,0,10.61.06c3.33,0,6.87.06,10-.2H43c3.84.31,8.34-.27,12.07.19h0c1.3,0,2.63.06,3.89,0,5.81-.11,7.35.13,5.4.91-.42.17.07.39-1.34.51l-.1,0,0,0c-3.94.52-8.79.27-13.19.28l-32.4,0h-4a14.48,14.48,0,0,1-4.26-.57,12.94,12.94,0,0,1-6.83-5.13,12.48,12.48,0,0,1-1.74-4,15.87,15.87,0,0,1-.38-4.23V56C.1,42.75.13,29.48,0,16.25l0-2.72a16.17,16.17,0,0,1,.19-2.9,12,12,0,0,1,2.38-5.4Z"/>
      <g>
        <circle class="cls-2" cx="76.51" cy="39.63" r="22"/>
        <g>
          <g>
            <path class="cls-3" d="M74.53,26.18A6.65,6.65,0,0,1,75.77,26a13.71,13.71,0,0,1,4.68.62,2,2,0,0,0,.25,0h0A15.33,15.33,0,0,1,83.3,27.8a11.1,11.1,0,0,1,4.57,4.66c.16.3.44.81-.17,1.12s-1.14.22-1.39-.22a8,8,0,0,0-2.41-2.85A14,14,0,0,0,79,28.28a11.35,11.35,0,0,0-4.82,0,12.57,12.57,0,0,0-4.08,1.89,13.43,13.43,0,0,0-3,2.51,1,1,0,0,0-.35.88h0c-.44.15-.18.76-.71.87h0c-.06.11-.16.2-.18.32-.13.53-.42.57-1.06.11-.13-.11-.36-.15-.41-.33h0c-.3-.58.12-1,.35-1.38a13,13,0,0,1,4.71-5,16.15,16.15,0,0,1,3.91-1.68,3.53,3.53,0,0,1,1.15-.28Z"/>
            <path class="cls-3" d="M88.78,37.07a18,18,0,0,0-4.51-3.75l3-.07,2.29-2A18.11,18.11,0,0,0,88.78,37.07Z"/>
          </g>
          <g>
            <path class="cls-3" d="M78.27,53.08a5.72,5.72,0,0,1-1.24.19,13.65,13.65,0,0,1-4.67-.61,1.07,1.07,0,0,0-.25,0h0a15,15,0,0,1-2.62-1.17,11.27,11.27,0,0,1-4.57-4.66c-.15-.31-.43-.82.18-1.12s1.14-.22,1.39.22a8.19,8.19,0,0,0,2.41,2.85A14,14,0,0,0,73.82,51a11.68,11.68,0,0,0,4.82,0,12.57,12.57,0,0,0,4.08-1.89,13.42,13.42,0,0,0,3-2.52,1,1,0,0,0,.36-.87h0c.44-.16.18-.77.71-.88h0a1,1,0,0,0,.18-.31c.12-.53.42-.58,1-.11.14.1.37.14.42.32h0c.3.58-.12,1-.35,1.37a13,13,0,0,1-4.71,5,15.4,15.4,0,0,1-3.91,1.68,3.81,3.81,0,0,1-1.15.29Z"/>
            <path class="cls-3" d="M64,42.19a18,18,0,0,0,4.51,3.75l-3,.07-2.29,2A18.31,18.31,0,0,0,64,42.19Z"/>
          </g>
        </g>
      </g>
    </g>
  </g>
</svg>
