<svg xmlns="http://www.w3.org/2000/svg" viewBox="0 0 175.17 136.43">
  <defs>
    <style>
      .cls-1 {
        fill: #231f20;
      }

      .cls-2 {
        fill: #fff;
      }
    </style>
  </defs>
  <g id="Layer_2" data-name="Layer 2">
    <g id="Layer_1-2" data-name="Layer 1">
      <g>
        <g>
          <path class="cls-1" d="M108.5,134.09c1.42,0,2.84-.07,4.26-.07l16.08,0c.27,0,.55,0,.82-.05h0c3.24,0,6.48,0,9.72,0,7.5,0,15,0,22.49.2,1.17,0,3.15,0,3.11.71s-1.37,1.12-3.41,1.09c-4.93-.06-9.9-.22-14.81-.1-7.18.18-14.36.08-21.53.12-6.45,0-12.9,0-19.34,0-6.05,0-12.11.19-18.16.19-5.22,0-10.44-.19-15.67-.25a16.82,16.82,0,0,0-3.7.21h0c-1.41-.31-3.08.27-4.45-.19h0c-.48,0-1-.06-1.44,0-2.15.11-2.72-.13-2-.91.16-.17,0-.39.5-.51h0c1.45-.53,3.25-.27,4.87-.28,8-.06,16-.06,23.94-.09,4.9,0,9.8,0,14.69-.07,1.34,0,2.68-.13,4-.07Z"/>
          <path class="cls-1" d="M28.3,134.09c.54,0,1.08-.07,1.62-.07l6.11,0a1.77,1.77,0,0,0,.32-.05h0c1.23,0,2.46,0,3.69,0,2.85,0,5.71,0,8.55.2.44,0,1.2,0,1.18.71A1.1,1.1,0,0,1,48.47,136c-1.88-.06-3.76-.22-5.63-.1-2.73.18-5.46.08-8.19.12-2.45,0-4.9,0-7.35,0s-4.6.19-6.9.19c-2,0-4-.19-5.95-.25a2.55,2.55,0,0,0-1.41.21h0c-.54-.31-1.17.27-1.7-.19h0a2.48,2.48,0,0,0-.54,0c-.82.11-1-.13-.76-.91.06-.17,0-.39.19-.51h0c.56-.53,1.24-.27,1.86-.28,3-.06,6.06-.06,9.1-.09,1.86,0,3.72,0,5.58-.07a8.71,8.71,0,0,1,1.53-.07Z"/>
          <path class="cls-1" d="M51.41,103.55c.12.83.25,1.64.35,2.47.34,3.11.67,6.22,1,9.34a4,4,0,0,0,.11.47v0c.2,1.89.39,3.77.61,5.65.52,4.35,1,8.71,1.28,13.08,0,.68.17,1.83-.5,1.89s-1.21-.67-1.31-1.86c-.26-2.87-.43-5.77-.87-8.61-.65-4.15-1-8.33-1.53-12.49-.46-3.74-.84-7.48-1.3-11.22-.44-3.51-1-7-1.38-10.52-.33-3-.5-6.08-.78-9.12a5.93,5.93,0,0,0-.45-2.13h0c.22-.85-.47-1.75-.1-2.6h0a7.54,7.54,0,0,0-.06-.84c-.26-1.24,0-1.59.76-1.26.18.07.4-.06.54.23v0h0c.61.79.48,1.85.6,2.8.57,4.62,1.1,9.26,1.65,13.89.34,2.84.63,5.69,1,8.51a22.71,22.71,0,0,1,.33,2.34Z"/>
          <path class="cls-1" d="M22.53,79.42c-.53.08-1.07.17-1.61.21-2,.18-4.09.33-6.13.5-.1,0-.21.06-.31.08h0c-1.23.1-2.47.18-3.71.3-2.85.27-5.71.52-8.58.55-.45,0-1.21.07-1.25-.61s.43-1.16,1.21-1.2a56,56,0,0,0,5.65-.39c2.72-.42,5.46-.56,8.19-.84,2.45-.25,4.91-.42,7.36-.68s4.6-.59,6.91-.79c2-.17,4-.17,6-.28A2.45,2.45,0,0,0,37.65,76h0c.57.26,1.15-.37,1.71,0h0a2.51,2.51,0,0,0,.55,0c.81-.19,1.05,0,.84.83,0,.18,0,.4-.14.53h0c-.51.57-1.21.38-1.83.45-3,.31-6.08.59-9.11.88-1.87.18-3.74.31-5.59.56a9.88,9.88,0,0,1-1.53.21Z"/>
          <path class="cls-1" d="M10.53,45.46c.63-.7,1.26-1.41,1.93-2.08A44.93,44.93,0,0,1,21,37a4.46,4.46,0,0,0,.43-.33h0a62.85,62.85,0,0,1,5.76-2.85,57.62,57.62,0,0,1,14.17-4.17c.76-.13,2-.39,2.13.29s-.66,1.28-1.95,1.52a51.7,51.7,0,0,0-9.19,2.38A62.84,62.84,0,0,0,20,39.92a42.18,42.18,0,0,0-9.12,8.15,40.32,40.32,0,0,0-5.8,9.84,44.29,44.29,0,0,0-2.91,9.46,5.5,5.5,0,0,0-.08,2.35h0c-.41.87.12,2-.36,2.8h0a6.82,6.82,0,0,0,0,.9c.14,1.35,0,1.68-.86,1.31-.17-.09-.39,0-.52-.29v0h0c-.58-1-.32-2.16-.27-3.23A41.53,41.53,0,0,1,3.82,55.86a44.7,44.7,0,0,1,5-8.33,23.63,23.63,0,0,1,1.69-2.08Z"/>
          <path class="cls-1" d="M73.18,72.42c.55-.08,1.1-.18,1.66-.23,2.1-.21,4.2-.39,6.3-.59a1.68,1.68,0,0,0,.32-.09h0c1.27-.12,2.55-.22,3.82-.36,2.93-.31,5.87-.61,8.83-.68.46,0,1.24-.09,1.29.59s-.42,1.16-1.23,1.22c-1.94.13-3.9.16-5.81.47-2.8.46-5.62.65-8.43,1-2.53.29-5.06.51-7.58.8s-4.73.66-7.1.89c-2,.2-4.11.23-6.16.37a2.64,2.64,0,0,0-1.43.35h0c-.58-.25-1.18.39-1.76,0h0a2.7,2.7,0,0,0-.57,0c-.83.2-1.08,0-.87-.82,0-.18-.05-.4.14-.53h0c.52-.58,1.25-.4,1.88-.47,3.13-.37,6.25-.69,9.38-1,1.92-.21,3.84-.37,5.75-.66a10.41,10.41,0,0,1,1.57-.22Z"/>
          <path class="cls-1" d="M76.12,38.26c.74.49,1.54.91,2.24,1.47a48.29,48.29,0,0,1,7.48,6.81c.11.13.25.23.37.35h0a56.18,56.18,0,0,1,3.71,4.86,47.45,47.45,0,0,1,6.15,12.64c.21.7.63,1.87,0,2.05S94.7,66,94.31,64.82c-.44-1.43-1-2.81-1.57-4.21-.29-.7-.64-1.36-1-2a17.67,17.67,0,0,0-1.09-2,55.49,55.49,0,0,0-7.84-10.35,45,45,0,0,0-9.16-7.17,52.43,52.43,0,0,0-10-4.41,60.72,60.72,0,0,0-9.14-2.47,5.46,5.46,0,0,0-2.24-.08h0c-.82-.41-1.86.09-2.66-.41h0a5.07,5.07,0,0,0-.86-.07c-1.29.08-1.6-.13-1.21-.92.1-.17,0-.39.31-.51h0c.93-.53,2.05-.22,3.06-.15a54.81,54.81,0,0,1,14.6,3.1A60.06,60.06,0,0,1,73.94,37a17.79,17.79,0,0,1,2.19,1.27Z"/>
          <path class="cls-1" d="M30.37,50.75c-.12.49-.21,1-.35,1.45l-.19.68-.14.69L29.42,55a21.74,21.74,0,0,0-.37,2.79,1.36,1.36,0,0,0,0,.29h0A22.78,22.78,0,0,0,29,61.45a65.6,65.6,0,0,0,.83,7.88c.05.42.19,1.11-.47,1.27a1,1,0,0,1-1.32-1c-.14-.9-.29-1.8-.44-2.7s-.16-1.82-.33-2.72a20.35,20.35,0,0,1-.29-4,37.21,37.21,0,0,1,.84-7.54c.29-1.16.62-2.32,1-3.47A33.19,33.19,0,0,1,31.39,43a29.09,29.09,0,0,1,3.51-4.67,2.59,2.59,0,0,0,.74-1.19h0c.59-.18.59-1,1.29-1.09h0a2.3,2.3,0,0,0,.41-.35c.52-.65.88-.61,1.16.17.07.17.26.29.2.5h0c0,.72-.64,1-1,1.39a34.21,34.21,0,0,0-4.87,6.89,25.86,25.86,0,0,0-2,4.75c-.16.45-.21.92-.38,1.37Z"/>
          <path class="cls-1" d="M61.86,49.13a12.56,12.56,0,0,1,.6,1.29c.68,1.65,1.17,3.37,1.7,5.07a1.34,1.34,0,0,0,.12.24h0l.78,3.13c.27,1.21.51,2.43.73,3.65s.29,2.47.37,3.7c0,.39.11,1-.57,1.1a1,1,0,0,1-1.24-1,25.08,25.08,0,0,0-.67-4.73c-.31-1.11-.54-2.25-.86-3.36S62.3,56,61.9,54.93s-.62-2-1-2.93a29.62,29.62,0,0,0-1.2-2.85L59,47.86l-.73-1.25c-.46-.84-1-1.63-1.51-2.45A36.57,36.57,0,0,0,54,40.08a1.58,1.58,0,0,0-1-.7h0c-.09-.55-.87-.45-.87-1.08h0a2.24,2.24,0,0,0-.32-.3c-.57-.31-.55-.57,0-1.11.14-.11.22-.33.43-.31h0c.73-.12,1.05.49,1.46.85a28.64,28.64,0,0,1,5.05,6.22l.64,1.05.58,1.07c.4.72.78,1.44,1.15,2.16a7.56,7.56,0,0,1,.62,1.2Z"/>
        </g>
        <g>
          <g>
            <path class="cls-2" d="M112.41,50.12a22.79,22.79,0,0,1-.54-2.61,26.39,26.39,0,0,1-.16-2.67,21.4,21.4,0,0,1,2.51-9.71A21.83,21.83,0,0,1,121,27.72c.29-.19.56-.4.84-.6h0a25,25,0,0,1,2.72-1.41,23,23,0,0,1,2.91-.95,21.86,21.86,0,0,1,3-.56c.5-.06,1-.07,1.52-.1l.77,0,.76,0a20.62,20.62,0,0,1,12.93,5.06,20.27,20.27,0,0,1,6.73,12c.27,1.44.33,3.93-.43,3.86s-1.23-1.57-1.63-3.8a18.25,18.25,0,0,0-9.67-12.93,19.08,19.08,0,0,0-5.78-1.77,18.43,18.43,0,0,0-6,.06,19,19,0,0,0-5.69,1.92,19.4,19.4,0,0,0-4.77,3.67,18.8,18.8,0,0,0-4.81,9.54,19.55,19.55,0,0,0-.18,5.4,20,20,0,0,0,1.38,5.22,19.44,19.44,0,0,0,2.65,4.31,18.24,18.24,0,0,0,3.71,3.42,9,9,0,0,0,1,.69c.37.21.72.44,1.1.63a18.83,18.83,0,0,0,2.31,1,18.27,18.27,0,0,0,4.89,1.06,19.74,19.74,0,0,0,8.54-1.21,18.51,18.51,0,0,0,7.13-5,15.36,15.36,0,0,0,1.3-1.66,9.09,9.09,0,0,0,.85-1.86h0c1-1.27,1.11-3.21,1.92-4.57h0a7.91,7.91,0,0,0,.32-1.58c.08-.6.08-1.09.12-1.48a2.86,2.86,0,0,1,.2-.84c.18-.36.47-.33.89.1.18.2.44,0,.54.62v0a6.5,6.5,0,0,1,.05,2.95,13.44,13.44,0,0,1-.4,1.51,13.13,13.13,0,0,1-.48,1.46,20.59,20.59,0,0,1-9.32,11.16,21,21,0,0,1-14.4,2.27,21.35,21.35,0,0,1-14.21-10.62,23.65,23.65,0,0,1-1.09-2.27l-.45-1.19c-.12-.4-.22-.82-.31-1.23Z"/>
            <circle class="cls-2" cx="132.71" cy="45.07" r="19.75"/>
          </g>
          <path class="cls-2" d="M134.44,6.43a2.61,2.61,0,0,1,.93.41,3.8,3.8,0,0,1,1.33,3.62.65.65,0,0,0,0,.19h0a8.83,8.83,0,0,1-.6,1.86,17.87,17.87,0,0,1-1.75,3.43c-.12.17-.26.47-1,.16s-1.06-.73-.89-1a10.34,10.34,0,0,0,1.12-2.26c.32-1.22.93-2.23.83-3.06a1.82,1.82,0,0,0-.33-.91c-.22-.25-.17-.14-1.23-.64a2.18,2.18,0,0,1-.85-.88,2,2,0,0,1-.22-1.07,5.15,5.15,0,0,1,.18-1,8.61,8.61,0,0,1,.41-1.21,13.75,13.75,0,0,1,1.49-2.4.64.64,0,0,0,.15-.69h0c.42,0,0-.64.61-.56h0c.06-.06.15-.11.18-.19.11-.39.4-.31,1,.31.15.13.37.25.43.4h0c.35.54,0,.61-.18.84a22,22,0,0,0-1.7,3.48l-.32.91c0,.1,0,.15,0,.2a.11.11,0,0,0,.08,0,.15.15,0,0,0,.08,0l0,0a.49.49,0,0,1,.12.08Z"/>
          <path class="cls-2" d="M159.4,20.39a.75.75,0,0,0-.25.19s-.11.06-.21.43a9.37,9.37,0,0,1-.47,1.48,1.7,1.7,0,0,0,0,.22h0a4,4,0,0,1-1.75,1.61,4.75,4.75,0,0,1-2.41.51,6,6,0,0,1-2.07-.49c-.19-.08-.52-.16-.34-.91s.51-1.18.82-1.08a3.55,3.55,0,0,0,2.15.31,4.33,4.33,0,0,0,1.16-.57,1.45,1.45,0,0,0,.36-.39,1.54,1.54,0,0,0,.21-.55,4.66,4.66,0,0,1,.67-1.89,2.66,2.66,0,0,1,1-.84,5,5,0,0,1,1-.32c1-.23,2-.57,3-.74.86-.14,1.76-.1,2.64-.18.21,0,.43,0,.57-.34h0c.29.3.46-.39.77.08h0c.08,0,.18,0,.25,0,.33-.19.47.07.5.95,0,.2.09.44,0,.59v0c-.14.62-.49.39-.75.45-1.32.29-2.64.53-3.95.79-.81.16-1.63.27-2.42.51-.21.07-.37.21-.53.19Z"/>
          <path class="cls-2" d="M167.93,47.94a1.11,1.11,0,0,1-.25.35,3.47,3.47,0,0,1-.75.66,2.88,2.88,0,0,1-1.09.44,3.81,3.81,0,0,1-2-.23.44.44,0,0,0-.2,0h0A7,7,0,0,1,161.85,48a31.87,31.87,0,0,0-2.5-2.38c-.11-.07-.31-.11-.23-.87s.47-1.23.93-1.05a12.34,12.34,0,0,1,2.37,1.83c.26.2.5.4.72.59a6.55,6.55,0,0,0,.61.49,2.72,2.72,0,0,0,1.25.56.91.91,0,0,0,.73-.18c.11-.08.27-.28.54-.55a2.57,2.57,0,0,1,1.21-.71,3.73,3.73,0,0,1,2.3.31,15.13,15.13,0,0,1,1.44.76,19.07,19.07,0,0,0,2.16,1.26A.49.49,0,0,0,174,48h0c.13.4.53-.17.63.38h0c.07,0,.14.09.22.08.36-.07.41.22.15,1.06-.06.19-.07.45-.18.56v0c-.36.54-.64.19-.94.13a13.24,13.24,0,0,1-4.14-1.6c-.4-.24-.71-.45-1-.6a1,1,0,0,0-.7-.15c-.07,0,0,.15-.08.1Z"/>
          <path class="cls-2" d="M160.55,74.65a.07.07,0,0,0,0,0,.84.84,0,0,1-.25.15,3.11,3.11,0,0,1-1.16.33,3,3,0,0,1-1.24-.16,4.13,4.13,0,0,1-1.72-1.21.81.81,0,0,0-.18-.1h0a6.48,6.48,0,0,1-1.1-2,28.57,28.57,0,0,0-1.17-3.54c-.08-.13-.26-.28.18-.91s1-.85,1.35-.44a12.4,12.4,0,0,1,1.29,2.91c.29.63.47,1.27.7,1.7a3.15,3.15,0,0,0,.94,1.19,1.12,1.12,0,0,0,.84.25,5,5,0,0,0,.67-.3,2.21,2.21,0,0,1,1.6-.07,3.88,3.88,0,0,1,1.1.6c.26.2.52.39.76.61a7.36,7.36,0,0,1,1.27,1.46,8.47,8.47,0,0,1,1.06,3.14.84.84,0,0,0,.38.72h0c-.3.34.39.63-.11,1h0a.83.83,0,0,0,0,.31c.13.45-.15.56-1,.4-.19,0-.44,0-.57-.1h0c-.59-.25-.32-.54-.36-.81a8.11,8.11,0,0,0-1.48-3.64,7.73,7.73,0,0,0-.78-.92,2.94,2.94,0,0,0-.86-.63c-.08,0-.09.12-.11.05Z"/>
          <path class="cls-2" d="M132.45,79.59a.16.16,0,0,0,.08,0h0l.14,0a4.3,4.3,0,0,1,.83.23,2.76,2.76,0,0,1,1.5,1.58c0,.06.09.11.13.17h0a4.7,4.7,0,0,1,.1,2.09,8,8,0,0,1-.57,1.87c-.2.5-.37.9-.47,1.24,0,.12,0,.27-.74.48s-1.31,0-1.3-.43a16.51,16.51,0,0,1,.69-2.56,7.65,7.65,0,0,0,.18-1.34,1.27,1.27,0,0,0-.21-.87.52.52,0,0,0-.18-.1c-.11,0-.29-.07-.61-.14a2.37,2.37,0,0,1-1.2-.55,2,2,0,0,1-.61-1.16,3.47,3.47,0,0,1-.06-.6l0-.39c0-.26,0-.53,0-.79a7,7,0,0,1,.19-1.58,9.05,9.05,0,0,1,1.23-2.42.59.59,0,0,0,.11-.67h0c.43,0,0-.62.61-.53h0c.06-.05.14-.09.17-.17.13-.38.4-.28,1,.37.14.14.35.27.41.41h0c.34.52,0,.55-.14.75a10,10,0,0,0-1.22,3.1c-.06.34-.12.67-.15,1,0,.17,0,.34,0,.51a2.11,2.11,0,0,0,0,.25c0,.07,0,.21,0,.19s.14,0,.08,0Z"/>
          <path class="cls-2" d="M108.28,67.6a.15.15,0,0,0,.09,0s0-.06.06.11l.25.42a3.45,3.45,0,0,1,.46,1.36,2.45,2.45,0,0,1-.26,1.25c0,.07,0,.16-.06.24h0A3.68,3.68,0,0,1,107,72.37a5.28,5.28,0,0,1-1,.3l-.75.14a9.51,9.51,0,0,0-1,.24c-.07,0-.09.07-.83-.15s-1.12-.73-.74-1.16a3,3,0,0,1,1.4-.79c.44-.12.85-.2,1.22-.34l.68-.26a4.38,4.38,0,0,0,.53-.25,1.24,1.24,0,0,0,.32-.25.21.21,0,0,0,0-.15v0s0,0,0-.07a1.5,1.5,0,0,0-.09-.18c-.08-.15-.19-.33-.32-.54a3.52,3.52,0,0,1-.5-1.11,1.91,1.91,0,0,1,.11-1.18c0-.07.06-.15.1-.22a2.23,2.23,0,0,1,.82-.79,4.64,4.64,0,0,1,.55-.26l.35-.15a8.55,8.55,0,0,1,1.28-.47,16.76,16.76,0,0,1,2.45-.32.5.5,0,0,0,.53-.34h0c.28.3.43-.38.73.09h0c.08,0,.16,0,.23,0,.31-.18.44.08.46,1a1.9,1.9,0,0,1,0,.58v0c-.13.62-.43.38-.66.43-1.15.26-2.29.54-3.41.89l-1,.34-.13,0,0,0s0,0,0,0a.07.07,0,0,0,0,.08v0s.11.08,0,.07Z"/>
          <path class="cls-2" d="M98.15,46.15h-.07s0,0,0-.08a3.71,3.71,0,0,1-.57-1.73,1.78,1.78,0,0,1,.69-1.39,1.58,1.58,0,0,1,.46-.25.93.93,0,0,0,.15-.13h0a4.89,4.89,0,0,1,1.34-.06l1,.08a8.42,8.42,0,0,1,3.41.89c.17.08.46.18.22.91s-.57,1.14-.83,1a4.85,4.85,0,0,0-2-.57,13.2,13.2,0,0,1-1.41,0h-.21a.22.22,0,0,0-.14,0l0,0a.21.21,0,0,0,0,.2,2.68,2.68,0,0,1,.28.76,2.23,2.23,0,0,1,0,1.06,2.29,2.29,0,0,1-.62,1,3.65,3.65,0,0,1-.49.39,5.2,5.2,0,0,1-.46.25,3.4,3.4,0,0,1-1.92.27,3.59,3.59,0,0,1-1.37-.57c-.35-.23-.66-.46-1-.61s-.28-.18-.48.07h0c-.07-.38-.33.23-.37-.29h0s-.08-.07-.12,0-.26-.12-.31-1c0-.19-.07-.44,0-.58h0c.23-.63.66-.33.94-.28a6.85,6.85,0,0,1,1.89.64c.27.11.52.22.75.3l.27.08.26,0a1.71,1.71,0,0,0,.65-.12c.12,0,.16-.09.17-.11a.14.14,0,0,0,0-.09s-.13-.08-.06-.08Z"/>
          <path class="cls-2" d="M108.26,19.65c.09,0,.16,0,.19,0s.09,0,.3-.11a8.07,8.07,0,0,1,1.19-.82c.07,0,.12-.11.19-.15h0a2.25,2.25,0,0,1,2.45.56,3.57,3.57,0,0,1,1,2.24c0,.55,0,.95,0,1.18s0,.12-.47.7-1.11.73-1.33.28a3.55,3.55,0,0,1-.28-1.36,2.13,2.13,0,0,0-.17-.94c-.06-.1-.12-.2-.18-.28a.28.28,0,0,0-.1-.08.25.25,0,0,0-.18-.08.19.19,0,0,0-.1,0s0,0-.16.13a7.4,7.4,0,0,1-.58.48,2.73,2.73,0,0,1-3.07.13,5.36,5.36,0,0,1-2.27-2.28c-.33-.68-.44-1.38-.75-1.87-.06-.11-.14-.25-.41-.1h0c.12-.36-.34.11-.16-.37,0,0,0-.09-.08-.08s-.17-.22.13-1c.07-.18.11-.43.23-.53h0c.45-.49.72,0,1,.12a8.06,8.06,0,0,1,2.24,3.06A2.56,2.56,0,0,0,108,19.58c.12,0,.26,0,.31.07Z"/>
        </g>
      </g>
    </g>
  </g>
</svg>
