<svg xmlns="http://www.w3.org/2000/svg" viewBox="0 0 139.1 63.82">
  <defs>
    <style>
      .cls-1 {
        fill: #231f20;
      }

      .cls-2 {
        fill: #ff89af;
      }

      .cls-3 {
        fill: #fff;
      }
    </style>
  </defs>
  <g id="Layer_2" data-name="Layer 2">
    <g id="Layer_1-2" data-name="Layer 1">
      <g>
        <path class="cls-1" d="M27.35,5.28A21.34,21.34,0,0,1,33,1.45,17.65,17.65,0,0,1,36.28.32l.87-.18L38,0a17.36,17.36,0,0,1,1.75,0L89,1.3c.84,0,1.68,0,2.51,0h-.07l29.78.78,4.3.1,1.08,0c.37,0,.8,0,1.2.09a7.24,7.24,0,0,1,2.44.81,5.19,5.19,0,0,1,1.9,2,5.4,5.4,0,0,1,.62,2.59,9.41,9.41,0,0,1-1.37,4.63l-9,14.73-9,14.66L108.85,49c-.37.6-.76,1.22-1.2,1.86a19.48,19.48,0,0,1-4.87,4.66,17.83,17.83,0,0,1-5.84,2.67,9.14,9.14,0,0,1-2.58.26c-.65-.08-1-.2-1-.37.08-.38,1.12-.56,2.76-1.14a24.38,24.38,0,0,0,6.3-3.41,17.78,17.78,0,0,0,3.77-3.83c1-1.49,2-3.19,3-4.77l6-9.66q6-9.66,11.8-19.33l2.13-3.53a11.14,11.14,0,0,0,1.57-3.49,3.88,3.88,0,0,0-.48-3.25,4,4,0,0,0-3-1.41l-16.42-.42L77.86,3l-29.6-.73-7.4-.19c-.61,0-1.25,0-1.84,0a10.68,10.68,0,0,0-1.68.14A14.22,14.22,0,0,0,34,3.2a19.16,19.16,0,0,0-5.78,4,14.86,14.86,0,0,0-2.19,2.71L24.14,13,9.72,36.81l-3.6,5.95-1.8,3-.9,1.48a12.9,12.9,0,0,0-.75,1.41A6.55,6.55,0,0,0,2,51.48a2.85,2.85,0,0,0,1,2.2,4.56,4.56,0,0,0,2.59.83c1.1.05,2.3.07,3.44.1l48,1.46c3.77.11,7.77.25,11.34.08h-.06c4.33.42,9.43,0,13.64.53h0c1.47,0,3,.14,4.41.15,6.57,0,8.3.34,6.08,1.06-.49.15.07.39-1.53.47l-.11,0,0,0c-4.46.41-9.95,0-14.93-.1L39.3,57.38,21,56.93l-9.17-.22-4.58-.12c-.76,0-1.5,0-2.38-.1a7.12,7.12,0,0,1-2.51-.85A4.71,4.71,0,0,1,.25,53a6.38,6.38,0,0,1-.08-3.24,10.15,10.15,0,0,1,1.12-2.85c.49-.89,1-1.63,1.46-2.45l5.87-9.6q5.84-9.62,11.67-19.21l3.16-5.29L24.24,9c.3-.45.59-.94.93-1.37A17.07,17.07,0,0,1,27.4,5.23Z"/>
        <path class="cls-1" d="M37.2,27.61c-.33.59-.64,1.18-1,1.75-1.33,2.17-2.67,4.32-4,6.48a3.88,3.88,0,0,0-.15.36h0c-.81,1.31-1.63,2.6-2.43,3.91-1.83,3-3.68,6.07-5.72,9-.31.46-.81,1.26-1.38.89s-.61-1.14-.09-1.95c1.28-2,2.64-3.88,3.75-5.93,1.62-3,3.48-5.84,5.22-8.75,1.56-2.62,3.19-5.21,4.74-7.83s2.83-5,4.33-7.43c1.3-2.11,2.74-4.12,4.08-6.2a3.84,3.84,0,0,0,.74-1.6h0c.61-.41.53-1.38,1.26-1.7h0A3.53,3.53,0,0,0,46.93,8c.43-.92.78-1,1.27-.33.1.15.34.2.31.47h0c.09.86-.57,1.45-1,2.11-1.92,3.25-3.89,6.48-5.84,9.71-1.2,2-2.43,3.95-3.56,6a16,16,0,0,1-.94,1.66Z"/>
        <path class="cls-1" d="M68.19,28.39c-.33.59-.65,1.19-1,1.76l-4,6.47A2.32,2.32,0,0,0,63,37h0c-.81,1.31-1.63,2.6-2.42,3.92-1.84,3-3.69,6.07-5.73,9-.31.45-.81,1.25-1.38.88s-.61-1.14-.08-2c1.27-2,2.63-3.87,3.74-5.92,1.62-3,3.48-5.84,5.22-8.76,1.56-2.62,3.19-5.21,4.75-7.83,1.46-2.46,2.82-5,4.32-7.43,1.3-2.1,2.74-4.12,4.08-6.2a3.84,3.84,0,0,0,.74-1.6h0c.61-.41.53-1.38,1.26-1.7h0a4,4,0,0,0,.38-.56c.43-.93.78-1,1.27-.34.1.16.34.2.31.47h0c.09.86-.56,1.45-1,2.12-1.92,3.25-3.89,6.47-5.84,9.71-1.2,2-2.43,3.95-3.56,6a13.6,13.6,0,0,1-.94,1.66Z"/>
        <path class="cls-1" d="M99.17,29.18c-.33.58-.64,1.18-1,1.75-1.33,2.16-2.68,4.32-4,6.47a2.06,2.06,0,0,0-.16.37h0c-.81,1.3-1.63,2.6-2.42,3.91-1.84,3-3.69,6.07-5.72,9-.32.45-.81,1.26-1.38.89s-.62-1.14-.09-1.95c1.27-2,2.64-3.88,3.74-5.93,1.63-3,3.48-5.84,5.22-8.76,1.57-2.62,3.19-5.2,4.75-7.83,1.46-2.46,2.83-5,4.33-7.42,1.29-2.11,2.73-4.13,4.07-6.2a3.71,3.71,0,0,0,.74-1.61h0c.61-.41.53-1.39,1.26-1.71h0a3.45,3.45,0,0,0,.38-.56c.44-.93.79-1,1.27-.33.11.15.34.19.31.46h0c.09.86-.57,1.46-1,2.12-1.93,3.25-3.9,6.48-5.85,9.71-1.19,2-2.43,3.95-3.56,6a13.72,13.72,0,0,1-.94,1.67Z"/>
        <path class="cls-1" d="M77.37,63.51l-5.93-.07L49,62.88c-.38,0-.77,0-1.15,0h0l-13.57-.34L18.77,62.2,11,62l-7.84-.3a1.61,1.61,0,0,1-.44-.06,2,2,0,0,1-.92-.69,3.58,3.58,0,0,1-.45-.86A6.15,6.15,0,0,1,1,58.49c-.09-1,0-1.65.36-1.66s.66.43,1,1.14c.16.36.32.79.53,1.22a3,3,0,0,0,.32.57.23.23,0,0,0,.18.09h.09c6.88.23,13.8.55,20.65.58,10,.06,20,.39,30,.58l27,.59,15.7.23,9.4-1.19c7.23-.87,14.49-1.56,21.73-2.38a32.12,32.12,0,0,0,5.1-.82h0a3.3,3.3,0,0,0,2.36-.9A12.91,12.91,0,0,0,137,54.61h0a3.9,3.9,0,0,0,.38-1.64,8.29,8.29,0,0,0-.06-.88q-.06-.45-.09-.81a4,4,0,0,1,0-1.06c.09-.46.35-.44.79,0,.2.2.39-.08.59.63v0a6.47,6.47,0,0,1,.44,1.62,5.12,5.12,0,0,1-.13,1.94,6.75,6.75,0,0,1-2.12,3.33,6.46,6.46,0,0,1-2,1.2,9.33,9.33,0,0,1-2.23.46L128.4,60l-8.29,1-16.57,2-6.66.81-7-.15L83,63.57c-1.87,0-3.74,0-5.63-.06Z"/>
        <path class="cls-1" d="M136.5,29.06c.08.49.19,1,.24,1.47.22,1.86.42,3.72.64,5.58a1.43,1.43,0,0,0,.09.27h0c.13,1.13.24,2.25.38,3.38.34,2.59.65,5.19.75,7.81,0,.41.09,1.1-.58,1.17a1.05,1.05,0,0,1-1.23-1,49.06,49.06,0,0,0-.51-5.15c-.48-2.47-.69-5-1-7.45-.31-2.22-.54-4.46-.85-6.69s-.7-4.17-.94-6.27c-.22-1.81-.26-3.64-.42-5.46a2.06,2.06,0,0,0-.36-1.26h0c.25-.53-.39-1,0-1.57h0a2.8,2.8,0,0,0,0-.5c-.21-.73,0-.95.81-.8.18,0,.39,0,.53.11v0h0c.58.44.41,1.09.49,1.65.38,2.76.73,5.53,1.08,8.29.22,1.69.4,3.4.69,5.08a7.22,7.22,0,0,1,.24,1.39Z"/>
        <g>
          <g>
            <path class="cls-2" d="M44.46,28.94c-2.62,4.28-8.84,7.66-13.9,7.53s-7-3.71-4.4-8S35,20.82,40.05,21,47.08,24.66,44.46,28.94Z"/>
            <path class="cls-2" d="M41.69,25.13c-2.62,4.28-8.84,7.65-13.89,7.52s-7-3.7-4.4-8S32.24,17,37.29,17.14,44.31,20.84,41.69,25.13Z"/>
            <polygon class="cls-2" points="42.2 19.31 45.13 23.37 26.11 34.86 22.73 30.23 42.2 19.31"/>
          </g>
          <path class="cls-3" d="M31.15,24.2a3.33,3.33,0,0,1,.24-.46c.37-.52.76-1,1.14-1.55,0,0,0-.07,0-.11h0c.23-.31.47-.61.69-.93A10.08,10.08,0,0,1,35,19.06c.11-.09.25-.29.8.11s.82.78.65,1a5.66,5.66,0,0,0-1.11,1.38A15.48,15.48,0,0,1,33.9,23.7c-.42.64-.89,1.25-1.31,1.91s-.68,1.29-1.1,1.88-.87.91-1.29,1.39a.36.36,0,0,0-.08.48h0c-.35,0,0,.46-.46.33,0,0-.11.06-.12.12-.06.27-.3.19-.88-.33a1.85,1.85,0,0,1-.38-.34h0c-.33-.44,0-.47.1-.64.51-.81,1.06-1.59,1.59-2.38a12.82,12.82,0,0,0,1-1.48c.08-.15.09-.34.23-.44Z"/>
        </g>
        <g>
          <g>
            <path class="cls-2" d="M79.71,21.41c-2.62,4.28-8.84,7.65-13.89,7.53s-7-3.71-4.41-8,8.84-7.66,13.9-7.53S82.33,17.12,79.71,21.41Z"/>
            <path class="cls-2" d="M77,17.59c-2.62,4.29-8.84,7.66-13.9,7.53s-7-3.7-4.4-8S67.49,9.48,72.54,9.6,79.57,13.31,77,17.59Z"/>
            <polygon class="cls-2" points="77.46 11.78 80.38 15.84 61.36 27.33 57.98 22.7 77.46 11.78"/>
          </g>
          <path class="cls-3" d="M66.4,16.66a3.88,3.88,0,0,1,.24-.45c.37-.52.76-1,1.14-1.55,0,0,0-.07,0-.11h0c.23-.31.48-.61.69-.94a11,11,0,0,1,1.72-2.08c.11-.09.25-.29.8.11s.82.78.65,1A5.62,5.62,0,0,0,70.55,14a14.88,14.88,0,0,1-1.4,2.17c-.42.65-.89,1.26-1.31,1.91s-.68,1.3-1.1,1.88-.87.92-1.28,1.39a.37.37,0,0,0-.09.49h0c-.35,0,0,.45-.47.32h0s-.11.07-.12.13c-.06.27-.3.19-.88-.33-.13-.12-.32-.23-.38-.35h0c-.33-.44,0-.47.11-.64.5-.81,1-1.59,1.58-2.39a13.26,13.26,0,0,0,1-1.47c.07-.15.08-.34.22-.44Z"/>
        </g>
        <g>
          <g>
            <ellipse class="cls-2" cx="91.62" cy="38.84" rx="11.17" ry="6.45" transform="translate(-7.47 47.98) rotate(-28.24)"/>
            <path class="cls-2" d="M98,35.26c-2.62,4.28-8.84,7.65-13.9,7.53s-7-3.71-4.4-8,8.84-7.66,13.89-7.53S100.63,31,98,35.26Z"/>
            <polygon class="cls-2" points="98.52 29.45 101.44 33.51 82.42 44.99 79.04 40.36 98.52 29.45"/>
          </g>
          <path class="cls-3" d="M87.46,34.33a4,4,0,0,1,.24-.46c.37-.52.76-1,1.14-1.54,0,0,0-.08,0-.12h0c.23-.31.48-.61.69-.93a10.41,10.41,0,0,1,1.72-2.08c.11-.1.25-.29.8.1s.82.78.65,1a5.53,5.53,0,0,0-1.11,1.39,15.38,15.38,0,0,1-1.39,2.17c-.42.65-.89,1.26-1.31,1.91s-.68,1.29-1.1,1.88-.87.91-1.29,1.39a.36.36,0,0,0-.08.48h0c-.35,0,0,.46-.47.33h0s-.11.06-.12.12c-.06.28-.3.19-.88-.33-.13-.11-.32-.22-.38-.34h0c-.33-.45,0-.48.11-.64.5-.81,1-1.6,1.58-2.39a14.4,14.4,0,0,0,1-1.48c.07-.14.08-.33.22-.43Z"/>
        </g>
      </g>
    </g>
  </g>
</svg>
