<svg xmlns="http://www.w3.org/2000/svg" viewBox="0 0 141.83 114.83">
  <defs>
    <style>
      .cls-1 {
        fill: #ff89af;
      }

      .cls-2 {
        fill: #231f20;
      }
    </style>
  </defs>
  <g id="Layer_2" data-name="Layer 2">
    <g id="Layer_1-2" data-name="Layer 1">
      <rect class="cls-1" x="55.56" y="40.14" width="48" height="48" rx="8.86"/>
      <path class="cls-2" d="M114.45,25a12.52,12.52,0,0,1-.49-3.55A14.24,14.24,0,0,1,115.65,15a14.59,14.59,0,0,1,4.52-5c.2-.12.37-.27.56-.41h0A13.09,13.09,0,0,1,124.49,8a14.17,14.17,0,0,1,12.76,3,13.48,13.48,0,0,1,4.47,8.1c.18,1,.21,2.63-.46,2.58s-1.1-1-1.35-2.46a11.63,11.63,0,0,0-6.23-8.37,12.41,12.41,0,0,0-3.75-1.13,12,12,0,0,0-3.88.05,12,12,0,0,0-9.86,9.77,12.76,12.76,0,0,0-.12,3.49,12.94,12.94,0,0,0,.9,3.36,11.82,11.82,0,0,0,4.12,5A11.63,11.63,0,0,0,124,32.79a12.13,12.13,0,0,0,3.15.67,13.07,13.07,0,0,0,5.5-.75,11.92,11.92,0,0,0,4.62-3.17,8.73,8.73,0,0,0,.83-1.07,4.34,4.34,0,0,0,.51-1.23h0c.75-.79.65-2.09,1.29-2.93h0a5.28,5.28,0,0,0,.21-1c0-1.54.26-2,1-1.43.17.13.4,0,.5.41l0,0h0c.5,1.22,0,2.71-.49,4a13.74,13.74,0,0,1-6.21,7.47,14.11,14.11,0,0,1-9.64,1.52,14.34,14.34,0,0,1-9.52-7.1A10.6,10.6,0,0,1,114.44,25Z"/>
      <path class="cls-2" d="M.17,48.06a3.45,3.45,0,0,1,1.31-1.87,3.33,3.33,0,0,1,1-.52,3.73,3.73,0,0,1,.58-.12,3.31,3.31,0,0,1,.52,0l12.25,0c.21,0,.42,0,.63-.06h3.26a3.73,3.73,0,0,1,.67.09,3.58,3.58,0,0,1,2.66,2.76,5.08,5.08,0,0,1,.07.67v9l-.06,4.28L23,64.51A9.77,9.77,0,0,1,23,65.72a3.25,3.25,0,0,1-.57,1.35,2.85,2.85,0,0,1-1.67,1.17c-.65.14-1.13-.08-1.09-.41a1.51,1.51,0,0,1,.53-.9,5.66,5.66,0,0,0,.81-1,1.35,1.35,0,0,0,.16-.41,2.15,2.15,0,0,0,.05-.52l0-1.41.07-2.82c0-1.89,0-3.77,0-5.64-.05-1.37-.07-2.73-.09-4.1l0-2a1.55,1.55,0,0,0-.55-1.12,1.4,1.4,0,0,0-.57-.29,2.63,2.63,0,0,0-.77-.06H13.12l-7.37,0H3.46l-.28,0a1.7,1.7,0,0,0-.52.22,1.52,1.52,0,0,0-.62.91A1.41,1.41,0,0,0,2,49c0,.09,0,.29,0,.43v.92c0,4.61.19,9.22.18,13.83,0,.46,0,1.11,0,1.28a1.29,1.29,0,0,0,.37.7,1.24,1.24,0,0,0,.71.38,1.3,1.3,0,0,0,.22,0h.37l.75,0,6,.14a9.79,9.79,0,0,0,2.82-.2h0c1.08.31,2.34-.27,3.39.19h0c.37,0,.74,0,1.1,0,1.64-.12,2.07.13,1.52.9-.12.17,0,.4-.38.51h0c-1.11.53-2.48.28-3.72.29l-9.12.05H3.9a4.5,4.5,0,0,1-1.38-.14,3.39,3.39,0,0,1-1.33-.79,3.19,3.19,0,0,1-.83-1.3,3.79,3.79,0,0,1-.19-1.41V62.6c0-3.73,0-7.47-.08-11.19L0,49.88l0-.77A3.37,3.37,0,0,1,.17,48Z"/>
      <path class="cls-2" d="M47.48,20.6c1,0,1.93-.07,2.89-.07l5.48,0h3.84s.07,0,.08-.09,0,0-.06,0h0l-3.16-5.53L52.73,8.28,50.87,4.93,49.19,1.8a.57.57,0,0,0-.34-.15,2.07,2.07,0,0,1-.7-.14c-.29-.15-.47-.6,0-1.09A1.52,1.52,0,0,1,49.24,0a1.83,1.83,0,0,1,1.42.74l.15.23.07.14.15.27.31.56.6,1.11,1.21,2.21C54,6.74,54.79,8.2,55.68,9.62c1.3,2.07,2.54,4.18,3.77,6.29l1.83,3.17c.08.16.13.21.25.46a2,2,0,0,1,.21.77,2.13,2.13,0,0,1-.49,1.5,2.08,2.08,0,0,1-1.4.73h-1l-13.17,0-6.18.11H38.33a2.58,2.58,0,0,1-.72-.12,2.26,2.26,0,0,1-1.54-2.3,2.56,2.56,0,0,1,.41-1.2l.38-.67.77-1.34C39.41,14,41.34,11,43.17,8a7.74,7.74,0,0,0,1.08-2.29h0c.75-.68.81-1.95,1.68-2.53h0c.17-.28.38-.55.52-.83.63-1.33,1-1.54,1.46-.73.09.18.35.18.27.55l0,0h0c0,1.12-.87,2.05-1.42,3L38.67,19.34l-.57,1a.27.27,0,0,0,0,.27.31.31,0,0,0,.11.09l.07,0h1.44c1.67,0,3.33,0,5-.07.91,0,1.82-.12,2.74-.06Z"/>
      <path class="cls-2" d="M121.45,111.61l.41.66a1,1,0,0,0,.26.32,1.3,1.3,0,0,0,.31.16l.17,0h6.14l2.94,0h1.47a1.86,1.86,0,0,0,.48,0,1.09,1.09,0,0,0,.31-.14.53.53,0,0,0,.16-.23h0l3.5-6,2-3.45a.83.83,0,0,0,.06-.44.79.79,0,0,0,0-.22.37.37,0,0,0-.05-.11l-.11-.2-1-1.79c-1.35-2.39-2.68-4.79-4-7.22a2.36,2.36,0,0,0-.25-.41,1.94,1.94,0,0,0-.32-.32c-.21-.19-.47-.35-.47-.7s.29-.67.9-.66a1.79,1.79,0,0,1,1,.38,2.27,2.27,0,0,1,.49.49c.16.23.2.32.31.5L138.73,97l1.33,2.37.69,1.16.35.58a3.22,3.22,0,0,1,.36.81,2.65,2.65,0,0,1,0,1.37,2.41,2.41,0,0,1-.24.65l-.25.46-.95,1.72-2,3.43-2,3.41-.27.46a3,3,0,0,1-.46.55,2.79,2.79,0,0,1-1.23.69,2.83,2.83,0,0,1-.71.1H132l-7.08,0h-2.23a3.4,3.4,0,0,1-.64-.09,2.89,2.89,0,0,1-1.15-.57,2.86,2.86,0,0,1-.46-.46,5.15,5.15,0,0,1-.31-.48l-.45-.77-.89-1.52-3.42-5.7-.43-.72-.21-.36a3.06,3.06,0,0,1-.27-.58,3.14,3.14,0,0,1,.24-2.49l1.65-2.89c1-1.65,2-3.29,3-4.92l.75-1.22a3.77,3.77,0,0,1,.59-.77,3,3,0,0,1,.87-.59,3,3,0,0,1,1-.24h.79l1.43,0a8.75,8.75,0,0,0,2.71-.2h0c1,.31,2.25-.27,3.26.19h0c.35,0,.71,0,1,0,1.57-.12,2,.13,1.46.91-.11.17,0,.39-.36.51l0,0v0c-1.06.52-2.37.27-3.56.28l-4.39,0h-2.17a1.17,1.17,0,0,0-1,.7l-4.36,7.6-.66,1.17c-.28.46-.35.58-.37.85a1.08,1.08,0,0,0,0,.36,1.27,1.27,0,0,0,.06.18l.12.22.68,1.16q1.35,2.33,2.74,4.62c.51.84,1.09,1.63,1.54,2.53Z"/>
      <path class="cls-2" d="M64.3,40.42c.41.55.84,1.09,1.23,1.66C67,44.23,68.47,46.4,70,48.55a2.52,2.52,0,0,0,.27.3h0c.89,1.3,1.76,2.62,2.67,3.91,2.09,3,4.16,6,6.06,9.12.29.49.84,1.29.27,1.66s-1.3.09-1.84-.75c-1.31-2-2.55-4.09-4-6-2.14-2.78-4.05-5.71-6.06-8.57-1.81-2.56-3.57-5.17-5.38-7.73-1.71-2.4-3.51-4.74-5.18-7.17C55.31,31.22,54,29,52.62,26.9a3.93,3.93,0,0,0-1.2-1.36h0c-.14-.75-1.07-1.08-1.08-1.9h0a3.92,3.92,0,0,0-.37-.59c-.69-.8-.64-1.16.19-1.32.19,0,.32-.23.56-.09v0c.83.29,1.12,1.15,1.58,1.79C54.56,26.62,56.78,29.82,59,33c1.37,2,2.7,3.94,4.13,5.85a14,14,0,0,1,1.17,1.58Z"/>
      <path class="cls-2" d="M100.75,46.66c-.51.46-1,.94-1.54,1.39l-6,5a3.85,3.85,0,0,0-.27.3h0c-1.21,1-2.43,2-3.63,3-2.78,2.38-5.58,4.74-8.5,6.93-.46.34-1.2,1-1.62.44s-.21-1.29.56-1.91c1.88-1.51,3.83-2.94,5.58-4.58,2.56-2.4,5.29-4.59,7.94-6.88,2.38-2.05,4.8-4.06,7.17-6.11s4.39-4,6.64-5.86c2-1.64,4-3.15,6-4.75a4.15,4.15,0,0,0,1.25-1.32h0c.73-.21,1-1.18,1.78-1.26h0a6.34,6.34,0,0,0,.56-.43c.72-.77,1.09-.76,1.33.06,0,.18.26.29.14.55h0c-.2.86-1,1.23-1.63,1.76-2.93,2.55-5.9,5.07-8.85,7.6-1.82,1.55-3.66,3.07-5.42,4.68a14.14,14.14,0,0,1-1.46,1.32Z"/>
      <path class="cls-2" d="M97.74,78.53c.54.44,1.1.87,1.62,1.33l6,5.25a2.46,2.46,0,0,0,.34.22h0c1.2,1.06,2.39,2.13,3.6,3.18,2.8,2.42,5.6,4.85,8.24,7.44.41.41,1.15,1.06.69,1.55s-1.25.4-2-.28c-1.79-1.65-3.53-3.38-5.44-4.88-2.79-2.2-5.4-4.6-8.09-6.9-2.43-2.07-4.8-4.19-7.22-6.25s-4.64-3.78-6.88-5.75c-1.94-1.7-3.77-3.53-5.67-5.27a4.32,4.32,0,0,0-1.52-1v0c-.32-.69-1.32-.8-1.53-1.59h0a3.43,3.43,0,0,0-.52-.49c-.87-.61-.92-1-.14-1.33.17-.08.25-.31.52-.23v0c.88.08,1.38.85,2,1.37,3,2.55,6,5.13,9,7.7,1.83,1.58,3.64,3.2,5.52,4.71a16.91,16.91,0,0,1,1.54,1.26Z"/>
      <path class="cls-2" d="M48.48,58.83c.77.07,1.55.12,2.32.22l8.74,1.11a3.53,3.53,0,0,0,.46,0h0c1.76.22,3.53.46,5.29.67,4.08.48,8.16,1,12.21,1.7.63.11,1.71.25,1.61.92s-.89,1-2,.85c-2.68-.39-5.36-.88-8-1.09-3.93-.3-7.82-.88-11.73-1.32-3.51-.4-7-.86-10.52-1.26-3.3-.36-6.61-.62-9.9-1-2.84-.35-5.66-.87-8.49-1.29a5.19,5.19,0,0,0-2,0h0c-.73-.4-1.71.06-2.4-.48h0a4.24,4.24,0,0,0-.78-.13c-1.18,0-1.46-.31-1-1,.1-.16,0-.4.33-.48l0,0v0c.85-.42,1.8,0,2.69.05,4.34.48,8.68,1,13,1.52,2.66.31,5.33.67,8,.9a18.17,18.17,0,0,1,2.2.2Z"/>
    </g>
  </g>
</svg>
