<svg xmlns="http://www.w3.org/2000/svg" viewBox="0 0 78.22 80.21">
  <defs>
    <style>
      .cls-1 {
        fill: #ff89af;
      }

      .cls-2 {
        fill: #231f20;
      }
    </style>
  </defs>
  <g id="Layer_2" data-name="Layer 2">
    <g id="Layer_1-2" data-name="Layer 1">
      <g>
        <circle class="cls-1" cx="31.1" cy="31.1" r="25"/>
        <g>
          <path class="cls-2" d="M24.11,26.81A6.7,6.7,0,0,1,23.79,25a7.42,7.42,0,0,1,.84-3.42A7.31,7.31,0,0,1,27,18.94a3.08,3.08,0,0,0,.27-.24h0a7.35,7.35,0,0,1,4.13-1,7.16,7.16,0,0,1,4.51,1.8,6.83,6.83,0,0,1,2.29,4.2c.09.5.12,1.36-.56,1.35A1.17,1.17,0,0,1,36.4,24a5,5,0,0,0-2.79-3.76,5.6,5.6,0,0,0-6.39,1.13,5.32,5.32,0,0,0-.91,5.76,5.55,5.55,0,0,0,4.52,3.05,5.31,5.31,0,0,0,4.46-1.58,1.34,1.34,0,0,0,.48-1.08h0c.48-.29.12-.95.64-1.25h0a1.22,1.22,0,0,0,.1-.45c0-.69.17-.9,1-.65.17.06.39,0,.5.2v0h0c.53.63.14,1.4-.07,2a6.88,6.88,0,0,1-3.15,3.88,7.24,7.24,0,0,1-5,.76,7.73,7.73,0,0,1-4.94-3.63,4.44,4.44,0,0,1-.71-1.6Z"/>
          <path class="cls-2" d="M32.93,43.66c-.56,0-1.1.07-1.66.07a22.55,22.55,0,0,1-6.63-.62,2,2,0,0,0-.37-.06h0a5.51,5.51,0,0,1-2-1.24A5,5,0,0,1,21,39.75a9.21,9.21,0,0,1,0-5,9.61,9.61,0,0,1,2.43-4.2c.34-.37,1-.95,1.41-.42a1.19,1.19,0,0,1-.12,1.69,7.52,7.52,0,0,0-2.13,4.78A5.26,5.26,0,0,0,23.38,40,4.53,4.53,0,0,0,26.5,41.5a61.27,61.27,0,0,0,7.48.17,21.88,21.88,0,0,0,3.41-.22A4.49,4.49,0,0,0,38.73,41a2.09,2.09,0,0,0,.78-.78A6.37,6.37,0,0,0,40,37.77,8.36,8.36,0,0,0,39.69,35,1.8,1.8,0,0,0,39,33.88h0c0-.61-.75-.8-.67-1.44h0A2.16,2.16,0,0,0,38,32c-.59-.5-.59-.81.16-1.16.17-.08.27-.29.51-.21v0h0c.81.08,1.11.87,1.48,1.44a10.69,10.69,0,0,1,1.69,4.77,9.08,9.08,0,0,1,.05,1.28,8.16,8.16,0,0,1-.09,1.29,4.78,4.78,0,0,1-1.17,2.61,4.14,4.14,0,0,1-1.54,1,8.06,8.06,0,0,1-1.61.36c-1,.13-2,.15-3,.19a10.57,10.57,0,0,1-1.59.06Z"/>
        </g>
        <path class="cls-2" d="M1,38.59a29.92,29.92,0,0,1-.77-3.88c-.12-.65-.1-1.31-.16-2S0,31.42,0,30.76A31.78,31.78,0,0,1,3.72,16.38a32.15,32.15,0,0,1,10-11L15,4.53l0,0a32.61,32.61,0,0,1,4-2.09A34.4,34.4,0,0,1,23.23,1,32.27,32.27,0,0,1,27.68.2c.75-.09,1.51-.1,2.26-.14L31.08,0l1.13.05A30.67,30.67,0,0,1,61.46,25.36c.43,2.14.51,5.83-.16,5.74-.36,0-.67-.65-.91-1.68s-.52-2.47-.79-4.23a28.51,28.51,0,0,0-24-22.82A33.29,33.29,0,0,0,30.92,2l-2.34.13a22.86,22.86,0,0,0-2.33.31,29.3,29.3,0,0,0-8.85,3A30.36,30.36,0,0,0,10,11.13,29.12,29.12,0,0,0,2.51,26L2.2,28c-.06.7-.08,1.4-.12,2.11,0,.35,0,.7,0,1.05l0,1.05c.05.7.05,1.41.14,2.1a31.18,31.18,0,0,0,2.13,8.12A31,31,0,0,0,8.45,49.2a29.24,29.24,0,0,0,5.75,5.36c.26.19.52.4.79.58l.85.5c.57.33,1.11.7,1.7,1a30.1,30.1,0,0,0,3.6,1.56,27.56,27.56,0,0,0,3.77,1.1,18.09,18.09,0,0,0,1.93.33,14.21,14.21,0,0,0,1.95.23,30.23,30.23,0,0,0,13.31-2,29.29,29.29,0,0,0,11-7.8,11.53,11.53,0,0,0,1-1.26l1-1.33a19.5,19.5,0,0,0,1.47-2.82l0,0a13.87,13.87,0,0,0,1.61-3.53c.18-.64.45-1.25.61-1.87a11.26,11.26,0,0,1,.64-1.77h0a8.75,8.75,0,0,0,.28-1.23c.07-.42.14-.83.19-1.23.14-.93.15-1.69.2-2.29a7.29,7.29,0,0,1,.2-1.31c.17-.56.43-.51.78.14.16.29.4,0,.47.92l0,.07v0a9.25,9.25,0,0,1,.11,2.12c-.06.73-.15,1.49-.27,2.25s-.38,1.51-.57,2.26l-.31,1.11c-.13.36-.27.72-.4,1.07A30.63,30.63,0,0,1,46.23,58a31.37,31.37,0,0,1-21.44,3.36A31.55,31.55,0,0,1,3.7,45.53a32.44,32.44,0,0,1-1.58-3.38l-.66-1.76c-.17-.61-.32-1.22-.46-1.84Z"/>
        <path class="cls-2" d="M57.66,58.19a.87.87,0,0,1,.25.15c.26.26.5.53.74.8h.08c.15.16.29.34.45.48a3.42,3.42,0,0,1,.93,1.22c0,.08.13.17-.35.65s-.86.73-.94.61c-.19-.28-.31-.63-.63-.78a5.07,5.07,0,0,1-1.11-.94c-.33-.29-.62-.62-.95-.9a10.33,10.33,0,0,1-1-.74,6.48,6.48,0,0,1-.57-.92c-.05-.07-.09-.16-.33,0h0c.15-.29-.34,0-.08-.35h0s0-.08,0-.09,0-.22.55-.73a3.48,3.48,0,0,1,.38-.34h0c.44-.3.34,0,.43,0,.42.34.8.72,1.2,1.09a4.29,4.29,0,0,0,.76.64c.08.05.21,0,.23.15Z"/>
        <rect class="cls-1" x="67.33" y="60.76" width="4.24" height="21.38" rx="0.7" transform="translate(-30.18 70.04) rotate(-45.01)"/>
      </g>
    </g>
  </g>
</svg>
