<svg xmlns="http://www.w3.org/2000/svg" viewBox="0 0 155.3 122.44">
  <defs>
    <style>
      .cls-1 {
        fill: #fff;
      }

      .cls-2 {
        fill: #231f20;
      }
    </style>
  </defs>
  <g id="Layer_2" data-name="Layer 2">
    <g id="Layer_1-2" data-name="Layer 1">
      <g>
        <g>
          <path class="cls-1" d="M55.48,31.11a6.2,6.2,0,1,1-8.57-1.83A6.21,6.21,0,0,1,55.48,31.11Z"/>
          <path class="cls-1" d="M64.06,32.94a6.2,6.2,0,1,1-8.58-1.83A6.2,6.2,0,0,1,64.06,32.94Z"/>
          <path class="cls-1" d="M62.23,41.51,54.07,46.8a2.67,2.67,0,0,1-3.7-.79l-5.29-8.15,10.4-6.75Z"/>
        </g>
        <path class="cls-2" d="M5.09,60.53c.66-.88,1.24-1.76,1.83-2.66a33.09,33.09,0,0,0,4.64-11.2,6.2,6.2,0,0,0,.06-.62v0a18.57,18.57,0,0,1,1-3.93,6.42,6.42,0,0,1,3.13-3.22,14.7,14.7,0,0,1,4.58-1.24c1.48-.18,2.93-.33,4.4-.49,2.93-.3,5.85-.58,8.78-.8.92-.07,2.47-.24,2.5.44s-1,1.23-2.54,1.39c-3.84.36-7.72.64-11.52,1.19a25.76,25.76,0,0,0-4,.78,5.65,5.65,0,0,0-3,1.92,8.45,8.45,0,0,0-1.15,3.58,38.24,38.24,0,0,1-1,4.21,33.81,33.81,0,0,1-3,7.16A47.92,47.92,0,0,1,5.4,63.38a21.45,21.45,0,0,0-1.88,2.84,8.8,8.8,0,0,0-.67,1.51l-.28.77-.19.79A20.48,20.48,0,0,0,2.21,76c.44,4,1.35,8,1.4,12.26a21.78,21.78,0,0,0,.08,3v0c-.42,1.11-.12,2.57-.86,3.55h0c-.11.38-.27.75-.36,1.11-.45,1.7-.89,2-1.39,1.2C1,96.93.72,97,.75,96.57l0,0h0c-.1-1.22.52-2.42.74-3.64a25.62,25.62,0,0,0-.07-9C1,80.83.26,77.75.05,74.53a18.49,18.49,0,0,1,.5-6A10.79,10.79,0,0,1,1,67.07a9.88,9.88,0,0,1,.62-1.41,20.73,20.73,0,0,1,1.57-2.57A27.45,27.45,0,0,1,5.1,60.52Z"/>
        <path class="cls-2" d="M30.87,49.52c-.41.14-.82.29-1.23.39a7.53,7.53,0,0,0-1.93.62,1,1,0,0,0-.42.46,4.84,4.84,0,0,0-.33.93,2.17,2.17,0,0,0,0,.26h0c-.3,1-.74,1.95-1,2.79a5.41,5.41,0,0,0-.31,2.74,5.67,5.67,0,0,0,1.1,2.5c.18.24.57.53.18,1.09a.91.91,0,0,1-1.53.11,7.56,7.56,0,0,1-1.72-4.66,8.37,8.37,0,0,1,.75-3.41c.19-.51.38-1,.52-1.45a15.64,15.64,0,0,1,.52-1.65,3.12,3.12,0,0,1,1.3-1.48,6,6,0,0,1,1.59-.61c.94-.25,1.87-.47,2.77-.75a14,14,0,0,0,4.47-2.22A6.45,6.45,0,0,0,37.91,42a.9.9,0,0,0-.08-.92h0c.31-.36-.29-.65.07-1h0a.89.89,0,0,0-.08-.33c-.3-.4-.18-.65.59-.87.17,0,.34-.21.52-.11v0h0c.72.21.7,1,.77,1.52a6.37,6.37,0,0,1-.77,4,8.07,8.07,0,0,1-2.66,2.93,18.57,18.57,0,0,1-4.23,2,5.21,5.21,0,0,1-1.17.4Z"/>
        <path class="cls-2" d="M33.18,22.06c.11-.46.19-.92.33-1.36L35,15.63a.88.88,0,0,0,0-.28h0L36,12.3c.67-2.38,1.37-4.75,2.27-7,.14-.36.33-1,1-.77A1,1,0,0,1,40,5.87a43,43,0,0,0-1.47,4.64c-.49,2.32-1.25,4.56-1.88,6.83l-1.76,6.11c-.53,1.92-.94,3.87-1.51,5.78-.49,1.64-1.14,3.24-1.69,4.87a1.89,1.89,0,0,0-.14,1.22h0c-.43.36,0,1-.6,1.35h0a1.86,1.86,0,0,0-.16.45c-.09.71-.38.82-1.06.38-.15-.09-.38-.1-.45-.29h0c-.37-.6,0-1.1.18-1.62L31.58,28c.44-1.55.92-3.09,1.29-4.66a7.13,7.13,0,0,1,.31-1.29Z"/>
        <path class="cls-2" d="M63.22,4c.64.1,1.29.19,1.92.33L72.35,6a1.59,1.59,0,0,0,.38,0h0c1.45.32,2.9.65,4.36.95l2.52.52,1.26.27c.44.1.76.15,1.2.22a6.53,6.53,0,0,1,2.88.93,4.63,4.63,0,0,1,1.73,2.7c.19.63.15,1.8-.54,1.68A1.53,1.53,0,0,1,84.9,12a3.28,3.28,0,0,0-.61-1.19,2.1,2.1,0,0,0-1-.71,7.26,7.26,0,0,0-1.53-.31l-.89-.14L80,9.48C76.74,9,73.53,8.21,70.3,7.55c-2.9-.58-5.78-1.26-8.68-1.8-2.73-.53-5.48-.93-8.19-1.5-2.35-.48-4.66-1.13-7-1.68a3.66,3.66,0,0,0-1.71-.13h0c-.58-.44-1.43,0-2-.6h0a3.15,3.15,0,0,0-.64-.16c-1-.09-1.2-.38-.73-1.08.1-.15.06-.39.31-.45h0c.76-.38,1.52,0,2.25.17L54.77,2.45c2.21.44,4.41.92,6.63,1.28A14.57,14.57,0,0,1,63.23,4Z"/>
        <path class="cls-2" d="M71.82,68.7c-.18.72-.34,1.45-.55,2.16l-2.36,8.08a2.83,2.83,0,0,0-.06.42h0l-1.43,4.89C66.37,88,65.28,91.79,64,95.49c-.2.58-.49,1.58-1.14,1.36s-.87-1-.55-2c.78-2.46,1.65-4.91,2.24-7.41.86-3.67,2-7.24,3-10.86l2.76-9.73c.83-3.05,1.56-6.14,2.43-9.17.76-2.63,1.68-5.2,2.5-7.81a4.66,4.66,0,0,0,.33-1.92h0c.5-.63.18-1.62.82-2.19h0A5,5,0,0,0,76.6,45c.2-1.11.52-1.33,1.16-.76.14.13.38.1.42.39l0,0h0c.29.88-.21,1.71-.43,2.53L74.38,59.26c-.7,2.46-1.43,4.92-2,7.4a16.2,16.2,0,0,1-.52,2Z"/>
        <path class="cls-2" d="M85.84,19.79a1.58,1.58,0,0,1,0,.38l-.43,1.33s0,.06,0,.09h0c-.09.27-.2.53-.27.81a5.55,5.55,0,0,1-.74,1.83c-.06.09-.11.26-.76.07s-1-.43-1-.59a3.1,3.1,0,0,0,.47-1.22,8.14,8.14,0,0,1,.41-1.85c.13-.56.33-1.09.45-1.64s.11-1.08.27-1.59a10.37,10.37,0,0,1,.62-1.25c0-.1.11-.2-.11-.37h0c.33,0-.18-.34.29-.32h0s.08-.07.07-.11c-.06-.22.19-.2.92.09a2.65,2.65,0,0,1,.47.2h0c.47.28.18.35.15.49-.14.69-.33,1.36-.51,2a7.54,7.54,0,0,0-.28,1.25c0,.12.05.26,0,.36Z"/>
        <path class="cls-2" d="M45.5,96.35c.4.07.81.12,1.2.22l4.44,1.06a1,1,0,0,0,.24,0h0c.89.21,1.79.42,2.69.6,2.08.4,4.16.77,6.21,1.25.33.07.88.14.79.82s-.51,1.06-1.1,1c-1.41-.24-2.79-.64-4.2-.76a56.47,56.47,0,0,1-6.07-1.15c-1.81-.37-3.59-.84-5.39-1.23s-3.4-.62-5.08-1c-1.44-.34-2.85-.84-4.28-1.22a1.46,1.46,0,0,0-1.07,0h0c-.33-.39-.91.08-1.2-.44h0a1.43,1.43,0,0,0-.39-.11c-.62,0-.73-.28-.39-1,.08-.16.07-.39.24-.47h0c.5-.44,1-.09,1.42,0,2.25.41,4.48.91,6.71,1.41,1.37.31,2.72.66,4.1.9a5.47,5.47,0,0,1,1.13.2Z"/>
        <path class="cls-2" d="M31,79.82c.05.45.11.9.12,1.36a48.56,48.56,0,0,1-.17,5.11,1.24,1.24,0,0,0,0,.27h0c-.1,1-.28,2.07-.46,3.11a15.22,15.22,0,0,1-1.12,3.57,6.55,6.55,0,0,1-2.61,3c-.38.21-1.08.53-1.29-.11s-.08-1.19.33-1.43a5.59,5.59,0,0,0,2.27-3.3A33.61,33.61,0,0,0,29,85a46.13,46.13,0,0,0-.09-5.88c-.18-1.84-.6-3.64-1-5.44-.32-1.55-.55-3.13-1-4.68a1.62,1.62,0,0,0-.55-1h0c.16-.51-.56-.8-.27-1.35h0a1.86,1.86,0,0,0-.12-.42c-.34-.58-.17-.83.63-.9.18,0,.36-.15.53,0v0h0c.66.24.62.86.79,1.34a48,48,0,0,1,2.07,7.28c.31,1.53.49,3.07.72,4.61A5.47,5.47,0,0,1,31,79.83Z"/>
        <path class="cls-2" d="M53.39,112.19a5.41,5.41,0,0,1-.64.46c-.86.48-1.74.93-2.61,1.36,0,0-.07.07-.11.12h0c-.53.26-1.07.49-1.59.76a24.44,24.44,0,0,1-3.68,1.61c-.2.07-.52.22-.83-.38s-.3-1.1.05-1.25a13.68,13.68,0,0,0,2.43-1.1c1.08-.73,2.28-1.21,3.39-1.82s2-1.08,2.95-1.7,1.66-1.3,2.45-2,1.47-1,2.12-1.62c.15-.15.33-.29.26-.61h0c.41,0,.12-.56.62-.46h0c.06-.06.15-.1.18-.18.12-.35.38-.29.94.26.12.12.32.23.36.37h0c.26.53-.16.65-.33.9a18.29,18.29,0,0,1-3.17,3.17c-.71.58-1.48,1.06-2.2,1.62a1.89,1.89,0,0,1-.6.45Z"/>
        <path class="cls-2" d="M73.93,78.26a15,15,0,0,0,0-1.5,28.2,28.2,0,0,0-.5-3,8.28,8.28,0,0,1-.12-1.83A5.36,5.36,0,0,1,73.77,70a2.59,2.59,0,0,0,.11-.37h0c.34-.65.7-1.19,1-1.69a6.37,6.37,0,0,0,.56-1.55c.57-2.55-.19-5.36-1-8.1-.13-.44-.43-1.15.2-1.41s1.25.07,1.53.85a30,30,0,0,1,1.39,5.94,8.91,8.91,0,0,1-.57,4.6c-.64,1.52-1.59,2.52-1.6,3.62a15.84,15.84,0,0,0,.52,3.55,11.34,11.34,0,0,1-.09,4.15,27.93,27.93,0,0,1-2.54,7c-.91,1.86-2,3.65-2.94,5.48a2.74,2.74,0,0,0-.45,1.41h0c-.53.37-.3,1.21-1,1.51h0a3.43,3.43,0,0,0-.28.49c-.27.82-.59.91-1.16.32-.12-.13-.36-.16-.37-.4h0c-.22-.75.32-1.28.6-1.86L71.73,85a22.64,22.64,0,0,0,2-5.25c.1-.49.09-1,.2-1.45Z"/>
        <g>
          <path class="cls-2" d="M90.71,40.41a2.73,2.73,0,0,1,1,.5,2.55,2.55,0,0,1,.66.84,7.16,7.16,0,0,1,.48,1.38l.34,1.21.68,2.42A.65.65,0,0,0,94,47h0l.82,2.92c.67,2.25,1.32,4.5,1.77,6.81.06.36.23,1-.42,1.13a1,1,0,0,1-1.35-.72,37.66,37.66,0,0,0-1.18-4.47c-.8-2.11-1.33-4.29-2-6.43l-.86-2.9a2,2,0,0,0-.42-.91,1.88,1.88,0,0,0-.91-.27c-1.91-.28-3.8-.54-5.64-.92-1.6-.34-3.15-.83-4.73-1.14a1.58,1.58,0,0,0-1.15,0h0c-.39-.36-1,.15-1.32-.34h0a2.14,2.14,0,0,0-.43-.07c-.64.08-.81-.17-.56-.93.06-.17,0-.4.18-.51v0h0c.49-.51,1.06-.21,1.58-.16,2.54.24,5,.75,7.46,1.23,1.5.29,3,.65,4.48.81a3.89,3.89,0,0,1,1.42.24Z"/>
          <path class="cls-2" d="M91.29,29.37a12.76,12.76,0,0,1,1.74.09,11.14,11.14,0,0,1,6.24,2.74,3,3,0,0,0,.3.19h0a18.66,18.66,0,0,1,2.53,3.16,86.52,86.52,0,0,1,4.38,7.66c.2.41.59,1.08,0,1.42a1.14,1.14,0,0,1-1.62-.59A55.08,55.08,0,0,0,102,39c-1.57-2.3-2.91-4.75-5.06-6.11a12.46,12.46,0,0,0-6.75-1.58c-2.3,0-4.7.26-7,.28a42.86,42.86,0,0,0-5.93.12,1.75,1.75,0,0,0-1.17.57h0c-.58-.1-.76.65-1.35.54h0c-.12.09-.28.14-.36.27-.37.56-.66.61-1.15-.05-.1-.15-.33-.21-.28-.46h0c0-.85.84-1.26,1.44-1.61a11.06,11.06,0,0,1,4.85-1.27c1.62-.1,3.15-.1,4.71-.15,1.92,0,3.81-.07,5.75-.16a7.4,7.4,0,0,1,1.63,0Z"/>
          <path class="cls-2" d="M126.81,52.45a6.25,6.25,0,0,0,.51,1.15,2.44,2.44,0,0,0,1.59,1.15,19.92,19.92,0,0,0,2.69.41c.1,0,.21,0,.32,0h0a7.56,7.56,0,0,1,3.74,1.53,8.83,8.83,0,0,1,2.6,3.71,16.57,16.57,0,0,1,1,4.12c.05.43.16,1.15-.51,1.25a1.09,1.09,0,0,1-1.29-1A12,12,0,0,0,135.94,60a6.41,6.41,0,0,0-2.41-2.26,10,10,0,0,0-3.46-.7,11,11,0,0,1-1.87-.34,4.65,4.65,0,0,1-1.87-1,4.71,4.71,0,0,1-1.16-1.8c-.23-.62-.37-1.21-.53-1.75a3.25,3.25,0,0,0-1.27-2.14,9.88,9.88,0,0,0-2.7-.85c-1.8-.43-3.59-1-5.4-1.4a2.26,2.26,0,0,0-1.34,0h0c-.45-.4-1.13.07-1.53-.46h0a3.29,3.29,0,0,0-.5-.12c-.78,0-.94-.28-.56-1,.08-.16.05-.4.25-.48h0c.6-.44,1.2-.08,1.78,0,2.85.44,5.67,1,8.49,1.67a7.2,7.2,0,0,1,2.75,1.14,4.35,4.35,0,0,1,1.12,1.26,7.94,7.94,0,0,1,.62,1.39,8.93,8.93,0,0,1,.44,1.4Z"/>
          <path class="cls-2" d="M148.13,87c.21.52.44,1,.63,1.56.71,2,1.41,4,2.12,6a1.56,1.56,0,0,0,.16.28h0c.43,1.21.84,2.43,1.28,3.64,1,2.78,2,5.58,2.82,8.44.13.45.39,1.19-.25,1.41a1.15,1.15,0,0,1-1.49-.91c-.6-1.86-1.11-3.76-1.88-5.55-1.13-2.62-2-5.32-3-8-.89-2.39-1.72-4.8-2.62-7.19-.84-2.24-1.8-4.45-2.6-6.71-.7-1.94-1.23-4-1.87-5.92a2.73,2.73,0,0,0-.69-1.31h0c.1-.63-.66-1.05-.42-1.72h0a2.66,2.66,0,0,0-.16-.55c-.39-.76-.24-1,.59-1,.18,0,.37-.14.54,0v0h0c.69.37.69,1.12.92,1.72,1.12,3,2.19,5.93,3.28,8.9.67,1.82,1.3,3.65,2,5.44a9.66,9.66,0,0,1,.6,1.49Z"/>
          <path class="cls-2" d="M85,82.33a3.54,3.54,0,0,0,.47,1.15c.41.75,1.12,1.62,1.72,2.48L89,88.52a1.75,1.75,0,0,0,.24.23h0l2.25,3.1c1.77,2.36,3.52,4.74,5.1,7.24.24.39.7,1,.15,1.42a1.14,1.14,0,0,1-1.68-.44c-1.1-1.6-2.13-3.27-3.38-4.75-1.82-2.18-3.42-4.51-5.13-6.76l-2.27-3.07a7.6,7.6,0,0,1-1.05-1.89A4.74,4.74,0,0,1,83,81.27,30.27,30.27,0,0,1,84,77.64c.35-1.15.71-2.3,1.13-3.42.72-2,1.65-3.81,2.5-5.7A2.71,2.71,0,0,0,88,67.09h0c.51-.39.24-1.23.88-1.54h0a3.56,3.56,0,0,0,.27-.51c.24-.82.56-.92,1.15-.34.13.12.36.15.38.38h0c.24.74-.28,1.27-.52,1.86-1.21,2.89-2.36,5.79-3.4,8.74l-.94,2.72A22.61,22.61,0,0,0,85,81.09a9.12,9.12,0,0,0,0,1.25Z"/>
          <path class="cls-2" d="M96.41,79.29a3.24,3.24,0,0,1,.19.52c.15.68.29,1.37.43,2,0,0,.06.06.08.09h0c.08.42.15.83.26,1.24a12.81,12.81,0,0,1,.46,2.89c0,.16.06.41-.61.56s-1.13.07-1.16-.19a6.76,6.76,0,0,0-.33-1.9,18.34,18.34,0,0,1-.75-2.7c-.22-.8-.37-1.63-.59-2.43s-.54-1.49-.71-2.26-.13-1.36-.22-2c0-.16,0-.33-.31-.42h0c.26-.24-.35-.33,0-.6h0c0-.07,0-.14,0-.19-.17-.25,0-.37.83-.46a1.57,1.57,0,0,1,.51,0h0c.55.07.36.35.42.56.28,1,.52,2,.78,3a17.28,17.28,0,0,0,.5,1.84c.07.16.2.31.18.49Z"/>
          <path class="cls-2" d="M117.81,104.81a12.07,12.07,0,0,1,1.63.56,12.55,12.55,0,0,1,1.52.81,10.73,10.73,0,0,1,1.33,1.07,16.69,16.69,0,0,1,2.15,2.48,1.73,1.73,0,0,0,.24.23h0c.75,1.07,1.37,2.18,2,3.27,1.45,2.54,2.65,5.16,3.85,7.67.19.39.58,1,0,1.37a1.08,1.08,0,0,1-1.61-.55c-.92-1.71-1.61-3.49-2.58-5.09a49,49,0,0,0-4.32-6.76,9.82,9.82,0,0,0-2.54-2.18,13.76,13.76,0,0,0-3.23-1.27c-2.15-.58-4.47-.85-6.73-1.35-2-.43-3.86-1-5.8-1.49a2.49,2.49,0,0,0-1.43-.1h0c-.47-.41-1.21,0-1.63-.54h0a2.6,2.6,0,0,0-.53-.14c-.83-.06-1-.35-.56-1,.1-.15.07-.39.29-.46v0c.65-.39,1.27,0,1.88.11l9,1.83,5.54,1.18a7.51,7.51,0,0,1,1.55.4Z"/>
        </g>
      </g>
    </g>
  </g>
</svg>
