<svg xmlns="http://www.w3.org/2000/svg" viewBox="0 0 173.66 109.45">
  <defs>
    <style>
      .cls-1 {
        fill: #231f20;
      }

      .cls-2 {
        fill: #fff;
      }

      .cls-3 {
        fill: #0cc4ac;
      }
    </style>
  </defs>
  <g id="Layer_2" data-name="Layer 2">
    <g id="Layer_1-2" data-name="Layer 1">
      <g>
        <g>
          <path class="cls-1" d="M171.17,23.73c-.4,2.19-.81,4.38-1.29,6.56-1.81,8.24-3.94,16.4-6.1,24.52-.11.42-.18.84-.27,1.26v0l-3.89,14.74c-2.94,11.39-5.91,22.77-9.07,34.07-.49,1.77-1.28,4.79-1.92,4.55s-.54-2.36.29-5.45c2-7.47,4.12-15,5.95-22.45,2.64-11,5.6-21.82,8.43-32.7,2.51-9.78,4.93-19.58,6.67-29.5.4-2.33.78-4.67,1.11-7l.47-3.52a10.07,10.07,0,0,0,.14-1.59,1.09,1.09,0,0,0-.35-.85,4.08,4.08,0,0,0-2.62-.47L165.15,6c-2.38.08-4.76.14-7.14.15-8.21.07-16.4-.31-24.58-.44a38.3,38.3,0,0,0-5.8.19h0c-2.22-.3-4.81.3-7-.1h0c-.75,0-1.52,0-2.25,0-3.34.24-4.24,0-3.15-.78.24-.18-.06-.4.75-.55l.06,0,0,0c2.26-.62,5.1-.44,7.65-.48,12.54-.22,25.06.31,37.54.06,1.91,0,3.83-.08,5.74-.17,1,0,1.88-.12,3,0a5.92,5.92,0,0,1,1.68.37,3.22,3.22,0,0,1,1.52,1.26,3.32,3.32,0,0,1,.47,1.87,13.06,13.06,0,0,1-.16,1.54l-.39,2.86c-.28,1.91-.55,3.81-.87,5.71-.32,2.08-.61,4.17-1.07,6.26Z"/>
          <path class="cls-1" d="M103.22,53.91l-1,4q-2,7.62-3.82,15.29c-.06.26-.09.53-.13.79v0l-2.19,9.28c-1.64,7.18-3.36,14.36-5.42,21.42-.33,1.1-.83,3-1.47,2.78S88.46,105.9,89,104c1.28-4.66,2.6-9.34,3.6-14.06C94,83,95.68,76.17,97.29,69.31c1.45-6.16,3-12.3,4.69-18.41l4.56-17.22c1.35-4.93,2.79-9.84,4-14.81a15.37,15.37,0,0,0,.62-3.57v0c.61-1.29.39-3,1.13-4.22h0c.11-.46.25-.92.32-1.37.32-2.08.68-2.58,1.29-1.73.14.19.39.06.4.58l0,0h0c.21,1.51-.39,3.18-.73,4.74C112,21,110,28.63,108,36.19c-1.26,4.65-2.6,9.27-3.78,13.91-.32,1.27-.57,2.56-1,3.83Z"/>
          <path class="cls-1" d="M83.66,108.67l-5.44.11-20.57.15c-.35,0-.69,0-1,.07h0l-12.44.14c-9.59.16-19.18.33-28.75.3-1.5,0-4,0-4-.63s1.73-1.15,4.34-1.18c6.31-.07,12.66,0,18.94-.24,9.19-.33,18.37-.36,27.55-.5L87,106.66c7.75-.08,15.49-.26,23.23-.25,6.69,0,13.36.18,20,.27a26.41,26.41,0,0,0,4.73-.19h0c1.81.31,3.94-.25,5.7.21h0c.61,0,1.24.07,1.84,0,2.75-.1,3.47.15,2.55.92-.21.17,0,.39-.64.5h0c-1.86.52-4.15.25-6.23.25l-30.62,0c-6.26,0-12.53,0-18.78.14-1.71,0-3.42.14-5.16.09Z"/>
          <path class="cls-1" d="M42.47,98.22c1.08,0,2.15-.08,3.23-.09l12.2,0a6.2,6.2,0,0,0,.62-.06h0l7.38,0c5.69-.06,11.38-.1,17.06.08.89,0,2.4,0,2.37.7s-1,1.12-2.58,1.1c-3.74,0-7.51-.17-11.23,0-5.45.22-10.9.16-16.34.23l-14.67.14c-4.59.07-9.18.25-13.77.28-4,0-7.93-.13-11.89-.16-1,0-1.85,0-2.08.53h0c-.33,0-.52.4-.6.8a5.52,5.52,0,0,1-.35,1.32h0a4,4,0,0,0,0,1c.31,1.45.26,1.92-.64,1.59-.19-.08-.38.11-.58-.26v0a4.77,4.77,0,0,1-.3-4A3.44,3.44,0,0,1,12.08,99a5.67,5.67,0,0,1,2.59-.43l4.54,0,9.08-.09c3.71,0,7.43,0,11.14-.16,1,0,2-.14,3.06-.09Z"/>
          <path class="cls-1" d="M60,71.87a14.43,14.43,0,0,1,2.35,1.06l8,4.51a3.34,3.34,0,0,0,.44.17h0l4.84,2.73.73.41a3.56,3.56,0,0,1,.91.74,2.82,2.82,0,0,1,.56,1.21,5.51,5.51,0,0,1,.1,1l0,3.22q0,3.21,0,6.42c0,.67,0,1.8-.68,1.79s-1.13-.75-1.13-1.92c0-2.82.09-5.65-.1-8.45,0-.5,0-1.08-.1-1.46a1.13,1.13,0,0,0-.14-.44.78.78,0,0,0-.26-.25c-.27-.19-.81-.46-1.24-.7L73,81.15l-5.38-3-4.83-2.67c-1.62-.89-3.17-1.89-4.7-2.09s-2.89.48-4.53,1.11-3.22,1.25-4.85,1.83c-2.81,1-5.67,1.85-8.5,2.8a5.4,5.4,0,0,0-1.92.91h0c-.86,0-1.56.84-2.45.68h0a4.86,4.86,0,0,0-.79.25c-1.11.52-1.5.4-1.38-.47,0-.19-.14-.36.1-.57h0c.6-.77,1.65-.88,2.52-1.21L49.14,74l4-1.43a14.44,14.44,0,0,1,4.34-1.16,5.9,5.9,0,0,1,2.62.45Z"/>
          <path class="cls-1" d="M58.58,91.77a7.75,7.75,0,0,1-.94.87,9.45,9.45,0,0,1-4.55,1.85,1.25,1.25,0,0,0-.25.09h0a9.69,9.69,0,0,1-3-.27c-1.08-.24-2-.53-3-.82s-2-.62-2.91-1c-.3-.12-.82-.27-.63-.92s.66-1,1.19-.8A29.85,29.85,0,0,0,48.37,92c2,.38,3.66.94,5.34.41a8.49,8.49,0,0,0,4-2.51,6.72,6.72,0,0,1,1-1.06,2.34,2.34,0,0,1,1-.4,2.61,2.61,0,0,1,1,0,13.55,13.55,0,0,1,1.31.35,11.74,11.74,0,0,1,1.22.44,20.84,20.84,0,0,1,3.86,2.23,1.58,1.58,0,0,0,1,.4h0c.15.48.88.28.92.89h0a1.58,1.58,0,0,0,.31.27c.55.29.51.57-.13,1-.14.11-.24.31-.43.32v0h0c-.63.17-.84-.31-1.21-.55a25.41,25.41,0,0,0-5.59-2.91L61,90.59a5.84,5.84,0,0,0-.85-.25c-.24,0-.29,0-.36,0a2.27,2.27,0,0,0-.45.49,3.81,3.81,0,0,1-.79.91Z"/>
          <path class="cls-1" d="M77.51,71.48a5.13,5.13,0,0,1,.7-.24l.21,0,.32,0a3.19,3.19,0,0,1,.62,0,2.25,2.25,0,0,1,1.09.4,1.79,1.79,0,0,1,.6,2,1.94,1.94,0,0,0,0,.24h0l-.29.63-.2.36-.4.73a9.83,9.83,0,0,1-2.37,3c-.15.12-.39.37-.88-.1s-.67-.92-.45-1.13A6,6,0,0,0,77.9,75.6c.23-.51.49-1,.74-1.47l.32-.62a.24.24,0,0,0,0-.17.2.2,0,0,0-.23-.12,3.26,3.26,0,0,0-.44.09l-.75.21c-.94.26-1.84.65-2.79.87s-1.67.23-2.5.37c-.19,0-.41,0-.52.34h0c-.29-.24-.41.38-.74,0h0c-.08,0-.16,0-.23,0-.31.2-.45,0-.53-.8,0-.17-.1-.38,0-.51h0c.1-.57.44-.39.69-.47,1.23-.36,2.47-.67,3.71-1a22.51,22.51,0,0,0,2.27-.64,1.55,1.55,0,0,1,.61-.22Z"/>
          <path class="cls-1" d="M20.27,78.11c-.38-.16-.76-.31-1.12-.49L15,75.48a.94.94,0,0,0-.24-.06h0c-.83-.43-1.65-.88-2.49-1.29A60.27,60.27,0,0,1,6.62,71c-.28-.18-.79-.44-.47-1a1,1,0,0,1,1.38-.52,33.11,33.11,0,0,0,3.75,2c1.93.78,3.72,1.8,5.58,2.7l5,2.49c1.57.76,3.19,1.41,4.74,2.2,1.36.7,2.52,1.53,3.75,1.63a.88.88,0,0,0,.86-.26h0c.41.25.68-.41,1.15-.08h0a1,1,0,0,0,.38-.09c.53-.29.77-.12.83.68,0,.18.13.37,0,.53h0c-.23.64-.83.57-1.32.7a7,7,0,0,1-1.92.27,6.18,6.18,0,0,1-1.94-.35,26.47,26.47,0,0,1-3.25-1.47c-1.26-.62-2.51-1.29-3.81-1.85a5.57,5.57,0,0,1-1.07-.46Z"/>
          <path class="cls-1" d="M19.23,89.2c.54,0,1.08.08,1.61.15l6,.84a1.74,1.74,0,0,0,.32,0h0l3.65.51c2.82.36,5.64.73,8.43,1.32.44.09,1.18.19,1.09.87a1.08,1.08,0,0,1-1.41.91,55.69,55.69,0,0,0-5.56-.84c-2.73-.18-5.42-.64-8.13-1L18,91.05c-2.28-.27-4.58-.42-6.86-.73-2-.27-3.91-.7-5.87-1a2.46,2.46,0,0,0-1.42,0h0c-.49-.37-1.2.12-1.65-.4h0a2.59,2.59,0,0,0-.54-.11c-.83,0-1-.26-.62-1,.09-.17.05-.4.26-.48h0c.63-.45,1.27-.11,1.88,0l9,1.11c1.85.23,3.68.51,5.53.66a9.77,9.77,0,0,1,1.53.13Z"/>
          <path class="cls-1" d="M4.38,78.44c0,.34-.06.67-.13,1l-.78,3.71c0,.06,0,.13,0,.2h0c-.16.74-.33,1.49-.48,2.24a38.32,38.32,0,0,1-1.23,5.16c-.08.26-.18.72-.84.58s-1-.53-.92-1a22.33,22.33,0,0,0,.79-3.4c.16-1.7.58-3.34.88-5l.86-4.48c.24-1.4.37-2.83.66-4.23.24-1.21.66-2.38,1-3.58a1.53,1.53,0,0,0,0-1h0c.2-.14.21-.37.28-.62A.63.63,0,0,1,5,67.46H5c.11-.12.26-.22.38-.35.27-.31.57-.39.72-.29s.2.35.26.74a2.19,2.19,0,0,1,.12.51h0c0,.28,0,.36,0,.44a.91.91,0,0,0-.24.27,5.12,5.12,0,0,0-.32,1.15l-.25,1.39L5.1,74.09c-.21,1.14-.46,2.26-.6,3.41a3.75,3.75,0,0,1-.12,1Z"/>
        </g>
        <path class="cls-1" d="M138.79,45.85a6.62,6.62,0,0,1,2.85.67,4,4,0,0,1,2,2.38,5.31,5.31,0,0,1,0,2.93,8,8,0,0,1-3.15,4.31,4.36,4.36,0,0,0-.4.35h0a12.75,12.75,0,0,1-2.78,1.41A16.72,16.72,0,0,0,134.9,59a5.88,5.88,0,0,0-3.4,4.14c-.08.48-.13,1-.28,1.68a4.73,4.73,0,0,1-.9,1.9,3.55,3.55,0,0,1-1.89,1.19,4.58,4.58,0,0,1-2.05,0c-.81-.14-2-.73-1.65-1.33s1.16-.6,2.1-.43a2,2,0,0,0,2.5-1.4,14.09,14.09,0,0,0,.37-2,7.55,7.55,0,0,1,.81-2.29,7.66,7.66,0,0,1,2.38-2.55,14.58,14.58,0,0,1,3-1.54c.52-.21,1-.37,1.44-.56a12.11,12.11,0,0,0,1.29-.67,8.56,8.56,0,0,0,2.16-1.84,4.65,4.65,0,0,0,1-2.1,3,3,0,0,0-.25-2.07A2.64,2.64,0,0,0,139.77,48a7.79,7.79,0,0,0-2.52-.13l-2.64.26-1.32.13c-.42,0-.95.09-1.18.15a.63.63,0,0,0-.43.31,3.19,3.19,0,0,0-.36.89l-.64,2.52a83.5,83.5,0,0,1-2.83,8.81,6.78,6.78,0,0,0-.6,2.14h0c-.6.67-.5,1.82-1.28,2.37h0a8,8,0,0,0-.43.75c-.52,1.19-.91,1.35-1.36.59-.11-.16-.35-.19-.31-.5l0,0h0a6.1,6.1,0,0,1,1-2.61A81,81,0,0,0,129,50.43a15.25,15.25,0,0,1,.66-2.21,3.51,3.51,0,0,1,.86-1.19,2.79,2.79,0,0,1,1.44-.6c1.53-.15,2.88-.26,4.33-.43a9.64,9.64,0,0,1,2.5-.14Z"/>
        <g>
          <path class="cls-2" d="M52.81,30.7a19.41,19.41,0,1,1,32.11-.82A13.86,13.86,0,0,0,90.79,34a1.2,1.2,0,0,1,0,2.25c-3.3,1.27-8.32,2.38-13.24.32A19.39,19.39,0,0,1,52.81,30.7Z"/>
          <g>
            <path class="cls-3" d="M70.23,20.17a14.48,14.48,0,0,0-1.63,0,9.42,9.42,0,0,1-3.93-.81,5,5,0,0,1-1.79-1.45A4.51,4.51,0,0,1,62,15.68c0-.15-.07-.3-.1-.45h0a5.23,5.23,0,0,1,.6-2.71,5,5,0,0,1,2.07-1.91,7.85,7.85,0,0,1,2.77-.77,12.21,12.21,0,0,1,1.35-.07,9.6,9.6,0,0,1,1.41.13,7.7,7.7,0,0,1,2.68,1,5.14,5.14,0,0,1,2,2.26A2.37,2.37,0,0,1,75,14.32c-.05.39-.25.65-.63.63a1.79,1.79,0,0,1-1-.3,1.39,1.39,0,0,1-.54-.61,3.73,3.73,0,0,0-1.86-1.66A5.27,5.27,0,0,0,68.28,12a5.38,5.38,0,0,0-3.49,1.34,2.34,2.34,0,0,0-.54,1.5,2.49,2.49,0,0,0,.4,1.59,4,4,0,0,0,2.88,1.32c.61.08,1.22.05,2,.1a9.18,9.18,0,0,1,2.32.43A5.59,5.59,0,0,1,74,19.45a4.39,4.39,0,0,1,1.29,2.29,5.34,5.34,0,0,1-.06,2.54,4.43,4.43,0,0,1-1.5,2.24,6.75,6.75,0,0,1-3.84,1.26,9.66,9.66,0,0,1-3.78-.51,8.53,8.53,0,0,0-1.81-.59h0a3.37,3.37,0,0,0-.92-.79,1.3,1.3,0,0,1-.64-1.07h0c-.12-.25-.21-.51-.32-.76-.27-.56-.25-1-.09-1.18s.45-.14.9,0c.2.05.45,0,.6.14l0,0h0a1.42,1.42,0,0,1,.58.6,2.67,2.67,0,0,0,.42.67,5.52,5.52,0,0,0,4,1.35c1.55,0,3.18-.44,3.84-1.41a2.81,2.81,0,0,0,.35-2.19,2.23,2.23,0,0,0-1.46-1.54c-.42-.17-.9-.19-1.39-.34Z"/>
            <path class="cls-3" d="M69.89,18c0,.3.08.6.08.9,0,1.14,0,2.27,0,3.41,0,.06,0,.12.07.17h0c0,.69,0,1.37,0,2.06a27.07,27.07,0,0,1-.22,4.76c0,.25,0,.67-.82.66s-1.28-.29-1.25-.72a15.75,15.75,0,0,0,.12-3.14,40.86,40.86,0,0,1-.14-4.56c0-1.36,0-2.73,0-4.1s-.22-2.56-.21-3.84c0-1.11.21-2.21.28-3.32a.79.79,0,0,0-.24-.79h0c.36-.3-.3-.65.22-.94h0c0-.1.07-.2,0-.3-.13-.45.15-.57,1-.42.2,0,.46,0,.59.1h0c.6.31.31.68.32,1,.06,1.69.07,3.38.1,5.07,0,1,0,2.08.09,3.11a2.78,2.78,0,0,1,.07.86Z"/>
          </g>
        </g>
      </g>
    </g>
  </g>
</svg>
