<svg xmlns="http://www.w3.org/2000/svg" viewBox="0 0 100.74 100.94">
  <defs>
    <style>
      .cls-1 {
        fill: #0cc4ac;
      }

      .cls-2 {
        fill: #fff;
      }

      .cls-3 {
        fill: #231f20;
      }
    </style>
  </defs>
  <g id="Layer_2" data-name="Layer 2">
    <g id="Layer_1-2" data-name="Layer 1">
      <g>
        <polygon class="cls-1" points="47.84 84.04 11.3 62.94 11.3 49.84 86.71 38.32 86.77 61.56 47.84 84.04"/>
        <polygon class="cls-1" points="47.84 70.93 11.3 49.84 58.98 22.31 86.71 38.32 86.77 48.45 47.84 70.93"/>
        <path class="cls-2" d="M80.41,40.21c.39-.25.76-.52,1.16-.75l5.82-3.31c.15-.08.32-.23.5-.35h0l.22-.13v5a71,71,0,0,1-.16,7.29c0,.38,0,1-.71,1a1,1,0,0,1-1.09-1.1A40.67,40.67,0,0,0,86.21,43c-.07-.9-.1-1.8-.12-2.7V39.19l-.27.16-5.14,3-.74.45-.36.23-.17.11,0,0s0,.08,0,.1h.12l.13.07.27.15c1.46.85,2.84,1.85,4.27,2.75a1.8,1.8,0,0,0,1.15.42h0c.25.5,1,.27,1.16.89h0a1.89,1.89,0,0,0,.39.26c.66.25.7.55.11,1.11-.13.12-.19.35-.4.36v0c-.68.22-1-.29-1.51-.55l-6.91-3.89-2.74-1.57,2.33-1.37,1-.58.63-.4a6.07,6.07,0,0,1,1.1-.71Z"/>
        <path class="cls-2" d="M47.2,70l.58.33c.06,0,0,0,.06,0l0,0,.49-.28,1-.6,12.4-6.91a5.69,5.69,0,0,0,.6-.4h0L69.87,58c5.76-3.25,11.53-6.49,17.4-9.53.91-.47,2.45-1.33,2.75-.72s-.51,1.57-2.09,2.43c-3.83,2.07-7.73,4.07-11.45,6.3C71,59.72,65.47,62.73,60,65.86L47.83,72.69l-3.64-2.08c-4.64-2.64-9.34-5.18-14-7.85-4-2.31-7.89-4.76-11.85-7.12a13.14,13.14,0,0,0-2.93-1.46v0c-.93-.89-2.49-1.13-3.31-2.13h0c-.37-.22-.72-.48-1.09-.66-1.69-.85-2-1.31-1.07-1.67.21-.08.18-.35.63-.22l0,0v0c1.38.19,2.62,1.19,3.87,1.9L32.84,61.92c3.75,2.15,7.48,4.34,11.26,6.41,1,.57,2.11,1.07,3.11,1.73Z"/>
      </g>
      <path class="cls-3" d="M1.6,62.8A48.61,48.61,0,0,1,.38,56.48a9.65,9.65,0,0,1-.16-1.61l-.09-1.6c0-1.08-.17-2.15-.12-3.22A52,52,0,0,1,6,26.64,52.61,52.61,0,0,1,22.24,8.73l2.09-1.35-.07,0A55.67,55.67,0,0,1,30.8,4a55.52,55.52,0,0,1,7-2.31l1.79-.46c.3-.07.6-.16.9-.22l.91-.14L45,.32C46.25.18,47.49.17,48.71.09L50.55,0l1.84.09,2.13.1a13.72,13.72,0,0,1,2.13.2L60.86,1,65,2.1a14.49,14.49,0,0,1,2,.67l2,.73a51.4,51.4,0,0,1,14.53,8.76,50.09,50.09,0,0,1,16.55,29,37.43,37.43,0,0,1,.61,6c0,1.93-.09,3.39-.43,3.33s-.69-1.08-1-2.8c-.07-.43-.13-.91-.2-1.42q0-.39-.09-.81c-.06-.28-.11-.56-.17-.86-.23-1.18-.45-2.52-.68-4a49.1,49.1,0,0,0-8.82-19.55A46.67,46.67,0,0,0,73,7.38,47.75,47.75,0,0,0,58.11,2.62,52.46,52.46,0,0,0,50.3,2l-3.92.2a14.19,14.19,0,0,0-2,.22l-1.93.3a49,49,0,0,0-14.78,5,50.47,50.47,0,0,0-12.38,9.5A48.49,48.49,0,0,0,2.83,42L2.3,45.49c-.09,1.17-.12,2.34-.19,3.51,0,.59-.08,1.17-.07,1.76l.09,1.76c.08,1.17.07,2.35.22,3.51A52.08,52.08,0,0,0,5.91,69.59,53.21,53.21,0,0,0,9,75.44c.6.92,1.1,1.91,1.77,2.78l2,2.64a11.59,11.59,0,0,0,1.06,1.26l1.12,1.22a25.6,25.6,0,0,0,2.31,2.35l2.45,2.2c.86.68,1.76,1.31,2.64,2,.44.33.88.67,1.33,1l1.41.85c.95.55,1.87,1.17,2.84,1.67a51.09,51.09,0,0,0,6,2.62l1.55.57.77.27L37,97l3.19.81a10.9,10.9,0,0,0,1.61.31l1.63.24a23.78,23.78,0,0,0,3.26.39A50.18,50.18,0,0,0,69,95.43,48.88,48.88,0,0,0,87.39,82.32a18.53,18.53,0,0,0,1.71-2.11L90.74,78c.51-.76.93-1.57,1.37-2.34a24.21,24.21,0,0,0,1.2-2.31l0,0A29.38,29.38,0,0,0,96,67.48l.54-1.56a12.84,12.84,0,0,0,.5-1.56,29.05,29.05,0,0,1,1-3h0l.27-1,.17-1c.12-.69.23-1.38.32-2.06s.25-1.47.25-2.11.07-1.21.1-1.71a20.2,20.2,0,0,1,.24-2.19c.19-.93.44-.83.78.24.15.47.4-.08.43,1.49V53c0,.55.06,1.11.08,1.69a9.46,9.46,0,0,1-.07,1.76c-.13,1.2-.3,2.43-.48,3.67s-.61,2.46-.92,3.69c-.17.61-.32,1.22-.5,1.82L98,67.41A50,50,0,0,1,75.27,94.49a51.09,51.09,0,0,1-35,5.45A51.2,51.2,0,0,1,5.94,74.11L4.6,71.38c-.21-.46-.48-.9-.65-1.37l-.54-1.43c-.36-1-.72-1.91-1.07-2.87s-.52-2-.76-3Z"/>
      <path class="cls-3" d="M53.88,48.8c-.84.87-1.66,1.76-2.51,2.61l-9.73,9.66c-.16.17-.3.36-.45.54l0,0c-2,1.95-3.93,3.89-5.88,5.85-4.51,4.53-9,9-13.69,13.41-.73.68-1.93,1.87-2.38,1.37s0-1.62,1.28-2.83c3-2.93,6.13-5.8,9-8.85,4.2-4.46,8.59-8.71,12.89-13.06,3.86-3.91,7.77-7.77,11.63-11.68,3.62-3.67,7.16-7.43,10.81-11.07,3.15-3.14,6.42-6.16,9.61-9.27a12.3,12.3,0,0,0,2.09-2.37h0c1.07-.63,1.67-2,2.82-2.55h0c.3-.28.62-.54.89-.84,1.21-1.38,1.73-1.55,1.84-.57,0,.22.3.27.06.66l0,0h0c-.51,1.25-1.76,2.15-2.74,3.13-4.77,4.85-9.57,9.66-14.36,14.49-2.94,3-5.92,5.89-8.8,8.9-.79.83-1.52,1.71-2.38,2.48Z"/>
    </g>
  </g>
</svg>
