<svg xmlns="http://www.w3.org/2000/svg" viewBox="0 0 158.98 127.75">
  <defs>
    <style>
      .cls-1 {
        fill: #231f20;
      }

      .cls-2 {
        fill: #fff;
      }

      .cls-3 {
        fill: #643a96;
      }
    </style>
  </defs>
  <g id="Layer_2" data-name="Layer 2">
    <g id="Layer_1-2" data-name="Layer 1">
      <g>
        <g>
          <path class="cls-1" d="M70.74,35.46c.26-.11.51-.25.78-.34l3-1a.45.45,0,0,0,.13-.11h0a14.07,14.07,0,0,1,2.06-.56,4.7,4.7,0,0,1,2.8.41,6.88,6.88,0,0,1,2,1.51c.17.18.48.44,0,1s-.92.68-1.21.42a4.1,4.1,0,0,0-2.18-1.36,4.38,4.38,0,0,0-1.69.19c-.6.17-1.31.42-2,.66-1.2.45-2.43.83-3.63,1.29s-2.22,1-3.36,1.35c-1,.33-2,.5-3,.78-.23.07-.5.12-.63.44h0c-.36-.19-.47.46-.88.12h0a.64.64,0,0,0-.27.07c-.35.25-.55.06-.7-.72,0-.16-.15-.36-.09-.5h0c.08-.59.52-.48.82-.6,1.5-.59,3-1.1,4.49-1.64.92-.33,1.85-.62,2.74-1a2.68,2.68,0,0,1,.74-.32Z"/>
          <path class="cls-1" d="M95.59,47.48c.57.94,1.16,1.89,1.68,2.87a94.83,94.83,0,0,1,5.17,11.5,6.19,6.19,0,0,0,.28.58v0a22.17,22.17,0,0,1,1.11,3.82,5.87,5.87,0,0,1-2.45,6.28c-.65.47-1.28.86-1.93,1.24-1.3.76-2.6,1.43-3.91,2.08q-3.95,2-8,3.56c-.85.33-2.29.92-2.52.28s.56-1.43,2-2a88.3,88.3,0,0,0,10.31-4.87,25.91,25.91,0,0,0,3.32-2.22,3.55,3.55,0,0,0,1.29-3,11.84,11.84,0,0,0-.88-3.76c-.46-1.29-1-2.58-1.48-3.85a93.28,93.28,0,0,0-6.74-13.21c-.62-1-1.25-2-1.91-2.91a18.6,18.6,0,0,0-2-2.62,5.81,5.81,0,0,0-5.51-1.51,27.1,27.1,0,0,0-5.5,1.79L72.24,43.8a10.17,10.17,0,0,0-2.55,1.34h0c-1.13.16-2.08,1.2-3.24,1.21h0c-.34.14-.71.25-1,.42-1.48.77-2,.73-1.78-.21,0-.2-.18-.35.14-.62h0c.82-.93,2.2-1.26,3.35-1.77l8.47-3.77c2.8-1.19,5.69-2.77,9.14-2.85a7.24,7.24,0,0,1,3.15.62,7.68,7.68,0,0,1,2.56,1.91,20.41,20.41,0,0,1,1.81,2.37l1.6,2.38a29.44,29.44,0,0,1,1.7,2.67Z"/>
          <path class="cls-1" d="M69.11,72.17c.24.49.51,1,.74,1.48a44.63,44.63,0,0,0,2.63,5.5,1.31,1.31,0,0,0,.21.2h0a4.16,4.16,0,0,0,2.4,1.77,6.76,6.76,0,0,0,3.69-.19c1.31-.42,2.66-1,4-1.45.43-.16,1.13-.48,1.4.15a1.12,1.12,0,0,1-.76,1.54c-.9.37-1.81.72-2.74,1a21.43,21.43,0,0,1-2.93.9,6.72,6.72,0,0,1-4.64-.65A8.43,8.43,0,0,1,70.07,79c-.64-1.16-1.11-2.3-1.63-3.45l-1.56-3.44c-1-2.14-2.1-4.24-3.06-6.4-.83-1.86-1.5-3.8-2.28-5.69a2.63,2.63,0,0,0-.77-1.23h0c.06-.63-.73-1-.54-1.67h0a4.3,4.3,0,0,0-.18-.58c-.42-.84-.26-1.12.58-1.06.19,0,.38-.12.56,0h0a1.13,1.13,0,0,1,.59.69c.12.28.21.62.34.91L66,65.57c.79,1.74,1.55,3.49,2.41,5.2a10.16,10.16,0,0,1,.7,1.4Z"/>
          <path class="cls-1" d="M98.58,43.52a1.72,1.72,0,0,1,.24.31,13.39,13.39,0,0,1,.53,1.28s.05,0,.08,0h0c.1.28.18.57.26.88a3.08,3.08,0,0,1,.13,1.2,1.92,1.92,0,0,1-.66,1.34c-.12.12-.33.3-.76-.23a6.66,6.66,0,0,1-.66-.88.35.35,0,0,0,.19-.52c-.22-.39-.27-.85-.53-1.34a6.94,6.94,0,0,0-.64-1.22,2.49,2.49,0,0,0-.81-.6c-.21-.15-.38-.41-.65-.51-.06,0-.13-.07-.19.19h0c-.07-.31-.11.26-.22-.18h0s0,0-.07,0-.18-.1-.31-.86a1.68,1.68,0,0,1-.07-.51h0c0-.55.29-.33.45-.35a3.44,3.44,0,0,1,2.36.65,8.76,8.76,0,0,1,1.07,1c.09.09.24.15.26.29Z"/>
          <path class="cls-1" d="M102.65,88.46a5.41,5.41,0,0,1-.79,1.78A6.77,6.77,0,0,1,99,92.34l-2.76,1.25a1.74,1.74,0,0,0-.26.19h0l-3.39,1.48a35.22,35.22,0,0,1-8.21,2.67c-.44.07-1.2.24-1.32-.43a1.11,1.11,0,0,1,1-1.35,24.26,24.26,0,0,0,5.25-1.59c2.42-1.13,4.9-2.17,7.33-3.34a18.28,18.28,0,0,0,3-1.59A4,4,0,0,0,101,87a22.63,22.63,0,0,0-.24-6.5,28.38,28.38,0,0,1-.26-3c0-1,0-2,.07-3.06a3.25,3.25,0,0,0-.11-1.48h0c.36-.52-.1-1.29.48-1.76h0a5.27,5.27,0,0,0,.19-.56c.17-.91.51-1,1.11-.45.14.12.37.15.41.36h0c.32.64-.08,1.13-.16,1.72a20.62,20.62,0,0,0-.13,4.31c.06,1.46.34,2.88.53,4.43a26.33,26.33,0,0,1,.1,5.76,5.14,5.14,0,0,1-.29,1.66Z"/>
          <path class="cls-1" d="M101.3,29.45c.37-.21.72-.44,1.1-.63l4.3-2.08a.74.74,0,0,0,.2-.16h0l2.61-1.23a54.7,54.7,0,0,1,6.14-2.66c.33-.12.86-.36,1.13.26a1,1,0,0,1-.46,1.42,31.79,31.79,0,0,0-4,1.75c-1.85,1.08-3.8,1.91-5.69,2.88-1.7.87-3.42,1.69-5.11,2.58s-3.1,1.8-4.69,2.62c-1.37.71-2.81,1.28-4.2,2a1.57,1.57,0,0,0-.87.7h0c-.52-.07-.67.67-1.25.46h0a1.73,1.73,0,0,0-.39.18c-.5.4-.77.27-1-.51,0-.18-.2-.35-.12-.52h0c.12-.67.71-.71,1.13-.95,2.06-1.17,4.15-2.29,6.24-3.41,1.29-.68,2.6-1.32,3.85-2.06a5.63,5.63,0,0,1,1-.6Z"/>
          <path class="cls-1" d="M120.83,71.53c.52-.28,1-.58,1.55-.84l6-2.87a1.79,1.79,0,0,0,.28-.2h0l3.65-1.71c2.8-1.34,5.61-2.65,8.51-3.76.45-.17,1.19-.52,1.47.1s0,1.26-.82,1.59c-1.88.8-3.81,1.52-5.59,2.49-2.61,1.43-5.33,2.6-8,3.92-2.39,1.18-4.79,2.32-7.16,3.54-2.21,1.15-4.37,2.42-6.6,3.55-1.92,1-3.91,1.82-5.85,2.76A3,3,0,0,0,107,81h0c-.66,0-1,.83-1.71.69h0a2.65,2.65,0,0,0-.54.25c-.73.51-1,.4-1.15-.42,0-.18-.19-.34-.06-.55h0c.29-.75,1.06-.87,1.65-1.19,2.9-1.58,5.83-3.12,8.75-4.64,1.8-.94,3.63-1.83,5.39-2.82a11.6,11.6,0,0,1,1.47-.8Z"/>
          <path class="cls-1" d="M49,59.43a4.07,4.07,0,0,1-.53.31c-.71.3-1.42.58-2.14.85,0,0-.06.06-.09.09h0l-1.32.46a11.81,11.81,0,0,1-3.08.83c-.17,0-.44.1-.64-.55s-.15-1.13.13-1.19a6.83,6.83,0,0,0,2-.54c.88-.49,1.84-.73,2.75-1.14s1.63-.68,2.42-1.08,1.42-.9,2.16-1.27,1.36-.52,2-.82c.15-.07.33-.12.34-.43h0c.32.17.24-.45.63-.14h0c.06,0,.15,0,.19-.07.2-.25.39-.08.69.65.07.16.2.34.19.48h0c.08.55-.26.46-.46.58-1,.6-1.94,1.15-2.94,1.69-.61.33-1.25.61-1.84,1-.16.1-.29.28-.49.3Z"/>
          <path class="cls-1" d="M131.26,39.46c.45.62.91,1.25,1.33,1.9,1.58,2.47,3.09,5,4.47,7.59a2.45,2.45,0,0,0,.26.37h0c.82,1.58,1.59,3.19,2.33,4.81a45.32,45.32,0,0,1,3.73,11.82c.1.64.32,1.71-.35,1.81s-1.25-.52-1.45-1.59a35.07,35.07,0,0,0-2.15-7.6,95.64,95.64,0,0,0-5.06-10.38c-1.73-3-3.58-5.94-5.56-8.8-1.87-2.68-3.9-5.25-5.82-7.91-1.66-2.3-3.18-4.69-4.79-7a5,5,0,0,0-1.35-1.51v0c-.2-.81-1.2-1.2-1.27-2.07h0a4.88,4.88,0,0,0-.43-.65c-.78-.88-.76-1.27.09-1.41.19,0,.32-.24.58-.08v0h0c.89.33,1.26,1.26,1.79,2L125.3,31.2,130,37.68a16.55,16.55,0,0,1,1.28,1.79Z"/>
          <path class="cls-1" d="M144.08,73.6c.34-.17.66-.39,1-.6,1.27-.77,2.53-1.88,3.89-2.88a1.77,1.77,0,0,0,.17-.2h0l2.47-1.77a37.42,37.42,0,0,1,6-3.63c.34-.16.88-.46,1.2.13a1,1,0,0,1-.36,1.47,26.23,26.23,0,0,0-3.89,2.31c-1.73,1.36-3.55,2.56-5.25,3.95a17.13,17.13,0,0,1-5.3,3.37,6.87,6.87,0,0,1-3.27.27,5.4,5.4,0,0,1-2.94-1.67,15.92,15.92,0,0,1-1.52-2,11.5,11.5,0,0,0-1.43-1.75,1.32,1.32,0,0,0-1-.52h0c-.14-.5-.86-.3-.94-.89h0a1.51,1.51,0,0,0-.33-.25c-.59-.2-.64-.49-.08-1.08.12-.12.17-.35.37-.37h0c.67-.23,1.06.3,1.49.58a15,15,0,0,1,2.93,2.58,25.5,25.5,0,0,0,2.32,2.69,3.41,3.41,0,0,0,1.59.79A3.91,3.91,0,0,0,143.1,74c.34-.1.63-.31,1-.39Z"/>
          <path class="cls-1" d="M107.88,12a3.67,3.67,0,0,1,.29-1.48,3.42,3.42,0,0,1,1-1.26,5.19,5.19,0,0,1,1.16-.7l2-.88a.86.86,0,0,0,.18-.14h0c.81-.34,1.62-.67,2.42-1a54.31,54.31,0,0,1,5.66-2.27c.3-.1.8-.31,1.06.31s.11,1.17-.4,1.37a28.2,28.2,0,0,0-3.72,1.53c-1.71,1-3.53,1.64-5.3,2.46a6.6,6.6,0,0,0-1.94,1.08,2.47,2.47,0,0,0-.44,1.82c.11,1.55.39,3.24.47,4.86.09,1.41,0,2.83,0,4.25a1.36,1.36,0,0,0,.27,1h0c-.29.41.32.82-.12,1.22h0a1.27,1.27,0,0,0,0,.39c.15.58-.09.75-.88.6-.17,0-.39,0-.51-.1h0c-.55-.36-.33-.86-.37-1.3-.18-2.16-.32-4.32-.48-6.48-.1-1.33-.15-2.63-.32-4a3.57,3.57,0,0,1-.05-1.23Z"/>
          <path class="cls-1" d="M128.46,1.71a2.39,2.39,0,0,1,.34-.21L130.2,1s0-.05.05-.08h0c.28-.11.57-.19.84-.31a6.06,6.06,0,0,1,2-.59c.12,0,.29-.08.55.55s.32,1.08.13,1.12a3.57,3.57,0,0,0-1.33.42,9.42,9.42,0,0,1-1.82.85c-.55.26-1.12.45-1.66.71s-1,.59-1.51.8a13.82,13.82,0,0,1-1.45.31c-.11,0-.24,0-.25.32h0c-.24-.24-.17.36-.46,0h0s-.1,0-.13,0-.28,0-.49-.78a1.91,1.91,0,0,1-.14-.5h0c-.06-.54.18-.37.32-.43.67-.33,1.35-.61,2-.9a7.35,7.35,0,0,0,1.24-.58c.11-.07.18-.21.32-.2Z"/>
          <ellipse class="cls-2" cx="81.67" cy="59.04" rx="12" ry="13.91" transform="translate(-17.52 41.24) rotate(-25.69)"/>
          <path class="cls-1" d="M80.37,88.78c.09.21.19.42.26.64A22.12,22.12,0,0,1,81.17,92c0,.05.06.09.08.13h0c.08.55.12,1,.23,1.47a10.59,10.59,0,0,1,.36,3.66c0,.21,0,.57-.72.52S80,97.52,80,97.25a5.21,5.21,0,0,0-.19-2.17,11,11,0,0,1-.44-1.64c-.11-.59-.16-1.12-.29-1.64A23.46,23.46,0,0,0,78.34,89c-.32-.86-.78-1.67-1.12-2.53s-.45-1.55-.72-2.32c-.07-.18-.12-.38-.43-.44h0c.19-.33-.44-.33-.12-.71h0c0-.08,0-.16-.06-.22-.24-.26,0-.44.7-.66.16,0,.36-.16.5-.14h0c.57,0,.45.35.57.57.56,1.12,1.08,2.27,1.57,3.45.3.72.54,1.46.87,2.18a1.48,1.48,0,0,1,.27.6Z"/>
          <path class="cls-1" d="M48.41,118.28c-.54,1-1,2.1-1.65,3.16a13,13,0,0,1-4.89,5.3,9.11,9.11,0,0,1-3.63,1,20.66,20.66,0,0,1-3.54-.13c-.23,0-.46,0-.69,0h0a79.91,79.91,0,0,0-8-.76,86.11,86.11,0,0,0-9.23.14c-1.55.08-3,.29-4.7.35A8.12,8.12,0,0,1,9.51,127a4.8,4.8,0,0,1-2.34-1.64,3.38,3.38,0,0,1-.75-2c0-.73.38-1.19.68-1.06s.52.47.73.81a8,8,0,0,0,.87,1.24c1,1.25,3.06,1.25,5.06,1s4.13-.33,6.19-.47A65.09,65.09,0,0,1,29,125c1.5.11,3,.28,4.49.48a24.57,24.57,0,0,0,4.3.3,7.37,7.37,0,0,0,3.41-1,9,9,0,0,0,2.6-2.51,29.49,29.49,0,0,0,2-3.34l1.9-3.55,3.5-6.71a17.65,17.65,0,0,1,2.2-3.34,7.35,7.35,0,0,1,3.65-2.41l.24-.06.12,0h0c-.13-.7.19,1,.15.75v-.07l-.09-.54,0-.13v0h0a1.35,1.35,0,0,1,.19-.08l.71-.31,1.45-.69,2.93-1.4c2-.95,3.89-1.9,5.82-2.89a11.07,11.07,0,0,0,2.61-1.64h0c1.18-.29,2.12-1.45,3.33-1.61h0a9.56,9.56,0,0,0,1.05-.56,10.48,10.48,0,0,1,.91-.55,1.55,1.55,0,0,1,.33-.15.39.39,0,0,1,.18,0,.47.47,0,0,1,.17,0l0,0,0,0,.07.07.07.06,0,0v0l0,0a.36.36,0,0,1,0,.11.81.81,0,0,1,0,.29c0,.21.24.34-.07.66h0c-.79,1.1-2.23,1.61-3.41,2.27-2.91,1.63-5.84,3.2-8.78,4.75q-2.2,1.15-4.44,2.28c-.75.37-1.49.74-2.3,1.1s-.88.24-1.22.39a4.51,4.51,0,0,0-.93.47,12.12,12.12,0,0,0-3.47,4.41c-1,1.78-1.91,3.59-2.83,5.4-.51,1-.95,2-1.54,3Z"/>
          <path class="cls-1" d="M2.71,81.06c-.19-1.12-.4-2.24-.56-3.37A27.2,27.2,0,0,1,1.77,71a10.62,10.62,0,0,1,.94-3.46A7.72,7.72,0,0,1,5.06,64.7c.2-.15.39-.33.59-.48h0a12,12,0,0,1,4-1.44c1.35-.26,2.65-.41,4-.54,6.1-.5,12.11-.29,18-.48.93,0,2.47-.19,2.53.48s-1,1.26-2.63,1.34c-4,.19-8,0-11.9.27-2.87.18-5.72.28-8.49.71a13.39,13.39,0,0,0-3.88,1.07,5.7,5.7,0,0,0-2.66,2.54c-1,2-1,4.57-.75,7s.73,5.1,1.1,7.64l1.14,7.22a12.68,12.68,0,0,1,0,3.94,13.23,13.23,0,0,1-1.36,3.7,24.3,24.3,0,0,0-2.38,5.52,19,19,0,0,0-.58,5.92,6.35,6.35,0,0,0,.65,2.74v0c-.07,1.14.91,2.11.94,3.21h0a4.34,4.34,0,0,0,.49,1,4.18,4.18,0,0,1,.78,1.35c0,.28-.18.43-.66.44-.21,0-.29.26-.65,0v0c-1.16-.69-1.69-2.2-2.16-3.47a20.23,20.23,0,0,1,.37-14.69c.64-1.56,1.51-2.92,2.07-4.3A9.67,9.67,0,0,0,4.13,90c-.26-1.91-.57-3.87-.89-5.79-.18-1.06-.44-2.11-.53-3.19Z"/>
        </g>
        <g>
          <path class="cls-2" d="M19.29,42a20.29,20.29,0,1,1,33.57-.86A14.51,14.51,0,0,0,59,45.5a1.26,1.26,0,0,1,0,2.35c-3.45,1.33-8.7,2.49-13.84.34A20.29,20.29,0,0,1,19.29,42Z"/>
          <path class="cls-3" d="M33,31a6.07,6.07,0,0,1,.62-1c1-1.1,2-2.16,3-3.23.05-.06,0-.18,0-.28h0c.62-.64,1.27-1.26,1.87-1.93a17.28,17.28,0,0,1,4.72-4.06c.3-.16.7-.53,2,.85s1.94,2.53,1.5,2.85c-1.06.79-2.32,1.41-3,2.6-1,1.73-2.45,2.95-3.65,4.44s-2.28,2.58-3.31,4a7,7,0,0,0-.65,1,11.06,11.06,0,0,1-1.32,1.89,4.89,4.89,0,0,1-1.76,1.26,3.89,3.89,0,0,1-2.13.24,5.23,5.23,0,0,1-3.13-2.2l-.63-.79-.35-.53-.64-1c-.19-.3-.34-.64-1.1-.42v0c.43-.85-1.07-.11-.3-1.19h0c-.05-.1,0-.28-.16-.31-.55-.12-.16-.7,1.51-2.12.38-.31.79-.8,1.13-.91v0l0,0c1.38-.71,1.25.22,1.56.55.81.84,1.46,1.63,2.1,2.23.23.16.36.35.6.33a.55.55,0,0,0,.3-.26.46.46,0,0,0,.08-.19.92.92,0,0,1,0-.09l.2-.3.27-.43c.18-.33.2-.79.57-1Z"/>
        </g>
      </g>
    </g>
  </g>
</svg>
