<svg xmlns="http://www.w3.org/2000/svg" viewBox="0 0 70.8 112.94"><defs><style>.cls-1{fill:#231f20;}.cls-2{fill:#fff;}</style></defs><g id="Layer_2" data-name="Layer 2"><g id="Layer_1-2" data-name="Layer 1"><path class="cls-1" d="M33.45.06a40.2,40.2,0,0,1,8.77.43,20.41,20.41,0,0,1,2,.4c.67.17,1.36.28,2,.49a37.24,37.24,0,0,1,3.94,1.33A38.77,38.77,0,0,1,57.6,6.52,30.18,30.18,0,0,1,68.31,19.17c.22.53.49,1,.7,1.56v-.05a28.84,28.84,0,0,1,1.8,10,40.19,40.19,0,0,1-1.2,10A52.87,52.87,0,0,1,59.28,61.1c-4.89,6-11.3,10.3-15.52,16.29a33.64,33.64,0,0,0-2,3.35c-.59,1.09-1,2-1.34,1.81s-.38-.89-.08-2.1a14,14,0,0,1,2.26-4.57c3-4.17,6.9-7.42,10.45-10.84a48.92,48.92,0,0,0,9.13-11.42A48.22,48.22,0,0,0,68.7,33.56a29.33,29.33,0,0,0-1-10.4A26.71,26.71,0,0,0,62.81,14C58.88,9,53.19,5.73,47.19,3.79c-.76-.22-1.5-.5-2.28-.66l-2.32-.52a43.53,43.53,0,0,0-4.71-.55,35.53,35.53,0,0,0-9.43.66,34.24,34.24,0,0,0-8.36,2.9,32.79,32.79,0,0,0-7.24,5A34.06,34.06,0,0,0,3.62,25.5,34,34,0,0,0,2.12,33a32.92,32.92,0,0,0,.12,7.62A33.65,33.65,0,0,0,4.09,48c.89,2.42,2,4.79,3.06,7.21,1,2.27,2,4.74,3.07,6.84v0C11,64.8,12.6,67.8,13,70.61h0c.27.93.51,1.9.79,2.8,1.28,4.16,1.26,5.35.17,4.12-.25-.26-.37.15-.74-.83v0c-1.24-2.68-2-6.18-3.07-9.26-1.3-3.77-2.76-7.49-4.39-11.13S2.25,49,1.2,45A35.71,35.71,0,0,1,.11,38.91a38.24,38.24,0,0,1,1-12.24,38.88,38.88,0,0,1,2-5.81c.48-1.17,1.1-2.27,1.69-3.39S6.2,15.3,7,14.3s1.57-2,2.38-3a32.38,32.38,0,0,1,2.74-2.63A34.5,34.5,0,0,1,25.3,1.51l2-.56c.68-.16,1.36-.27,2-.41A30.27,30.27,0,0,1,33.5.06Z"/><path class="cls-1" d="M44.25,54.81a7.75,7.75,0,0,0,1.34-.43,4.35,4.35,0,0,0,2-1.43,3.34,3.34,0,0,0,.65-2.23.63.63,0,0,0-.08-.23h0a2.84,2.84,0,0,0-1.38-2.2,3.53,3.53,0,0,0-3.11.37,8.33,8.33,0,0,0-2.79,2.58c-.25.37-.82,1.11-1.33.63a1.21,1.21,0,0,1-.14-1.69,9.65,9.65,0,0,1,4.9-3.82,4.85,4.85,0,0,1,2.47-.18A4.19,4.19,0,0,1,49,47.54a5.16,5.16,0,0,1,1.11,2.26,5.88,5.88,0,0,1,0,2.47,5.52,5.52,0,0,1-2.62,3.47,8.64,8.64,0,0,1-4,1.15,11,11,0,0,1-7.16-2.55c-1.69-1.41-2.78-3.08-4.35-3.92a1.29,1.29,0,0,0-1.17-.18h0c-.4-.4-.95.16-1.42-.25h0a1.67,1.67,0,0,0-.5,0c-.72.24-1,.07-.9-.75,0-.18-.1-.39.08-.54h0c.48-.64,1.3-.51,2-.5a6.19,6.19,0,0,1,2.58.58,9.29,9.29,0,0,1,2.12,1.4c1.25,1.05,2.26,2.2,3.43,3A8.53,8.53,0,0,0,42.91,55c.46,0,.9-.13,1.35-.15Z"/><path class="cls-1" d="M24.29,53.75c-.1-.75-.27-1.49-.37-2.24l-.8-4.27a4.32,4.32,0,0,0-1.66-3,1.47,1.47,0,0,0-.3-.08h0a3.4,3.4,0,0,0-3.55,1.16,2.88,2.88,0,0,0-.87,2,2.11,2.11,0,0,0,1,1.67,5,5,0,0,0,2.38.68,13.71,13.71,0,0,0,2.84-.15c.61-.08,1.61-.36,1.79.3s-.43,1.3-1.6,1.51a12,12,0,0,1-4.35,0,5.82,5.82,0,0,1-2.16-.87,4.4,4.4,0,0,1-1.56-1.9A4.11,4.11,0,0,1,15.39,45a6.15,6.15,0,0,1,2.43-2.37,5,5,0,0,1,3.48-.57,4.62,4.62,0,0,1,2.86,2.18,9.12,9.12,0,0,1,1,2.77l.5,2.61A48.19,48.19,0,0,1,26.41,55a44.82,44.82,0,0,1-.19,10.16,59.18,59.18,0,0,1-2,8.48,5.64,5.64,0,0,0-.36,2h0c-.51.66-.25,1.71-.91,2.3h0a7.44,7.44,0,0,0-.28.74c-.26,1.17-.59,1.38-1.2.76-.13-.14-.38-.11-.4-.42h0c-.25-.92.29-1.77.54-2.62a72.89,72.89,0,0,0,2.76-12.65,39.1,39.1,0,0,0,.18-7.87c0-.72-.24-1.42-.24-2.15Z"/><path class="cls-1" d="M34.12,66.3c0,.39-.07.78-.14,1.16-.27,1.46-.54,2.91-.77,4.37a1.64,1.64,0,0,0,0,.23h0c-.14.88-.29,1.76-.38,2.64-.23,2-.42,4.08-.67,6.11,0,.31,0,.85-.72.85s-1.12-.38-1.09-1c.09-1.4.35-2.78.36-4.16a48.08,48.08,0,0,1,.66-6c.25-1.78.6-3.55.9-5.32.15-.83.24-1.67.45-2.57a19.65,19.65,0,0,1,.77-2.5,34.43,34.43,0,0,1,2-4,1.51,1.51,0,0,0,.29-1h0c.45-.21.18-.91.78-1h0a1.61,1.61,0,0,0,.24-.34c.24-.6.53-.6,1.07,0,.12.13.33.21.35.39h0c.24.6-.22.87-.42,1.27a49.44,49.44,0,0,0-2.58,6c-.22.62-.43,1.25-.6,1.87a14,14,0,0,0-.35,1.94,5.2,5.2,0,0,1-.15,1.11Z"/><path class="cls-2" d="M14.58,91.5c2.42.08,4.79.43,7.2.34a39.45,39.45,0,0,0,6.42-.63A58.5,58.5,0,0,0,34,89.45a28.46,28.46,0,0,1,3.47-.82l.2-1.27a1.2,1.2,0,0,0-.11-.94,1,1,0,0,0-.58-.25c-4.56-.9-9.28-1.78-14-2.62-2.4-.42-4.26-.81-7-1.54a2.48,2.48,0,0,0-1.38,0,1.84,1.84,0,0,0-1,.91A9.52,9.52,0,0,0,13,84.48c-.3.87-.54,1.75-.76,2.65s-.52,2.29-.78,3.65A10.51,10.51,0,0,0,14.58,91.5Z"/><path class="cls-2" d="M19.71,101.89a39.45,39.45,0,0,0,6.42-.63,58.32,58.32,0,0,0,5.78-1.76,29.85,29.85,0,0,1,3.91-.91c.32-2,.68-4.15,1-6.26l-2.45.83c-1.69.54-3.42.91-5.13,1.39a4.43,4.43,0,0,1-1.42.36h0c-.51.11-1,.25-1.52.31a43.94,43.94,0,0,1-5.85.19,1,1,0,0,0-.3.1h0c-1.18,0-2.35-.16-3.53-.28a25.9,25.9,0,0,1-5.85-1.15c-.19,1.17-.37,2.28-.49,3.18a14.45,14.45,0,0,0-.05,3.88,8.85,8.85,0,0,0,2.23.4C14.93,101.63,17.3,102,19.71,101.89Z"/><path class="cls-2" d="M32.33,103.21c-1.69.54-3.42.91-5.13,1.39a5,5,0,0,1-1.43.36h0a15.15,15.15,0,0,1-1.52.31,43.79,43.79,0,0,1-5.84.19.86.86,0,0,0-.3.09h0c-1.18,0-2.36-.16-3.53-.28a32.25,32.25,0,0,1-3.37-.51,13.08,13.08,0,0,0,7.89,7.4c5.18,1.79,11.62.57,14.52-4.8a16.6,16.6,0,0,0,1.59-5.14Z"/></g></g></svg>