<svg xmlns="http://www.w3.org/2000/svg" viewBox="0 0 124.53 101.01"><defs><style>.cls-1{fill:#fff;}.cls-2{fill:#231f20;}</style></defs><g id="Layer_2" data-name="Layer 2"><g id="Layer_1-2" data-name="Layer 1"><circle class="cls-1" cx="41.56" cy="28.54" r="5.1" transform="translate(-5.75 11.12) rotate(-14.27)"/><circle class="cls-1" cx="48.62" cy="30.05" r="5.1" transform="translate(-5.91 12.91) rotate(-14.27)"/><path class="cls-1" d="M51.4,34.33l-6.72,4.36a2.2,2.2,0,0,1-3-.65l-4.36-6.72,8.57-5.56Z"/><path class="cls-2" d="M4.2,49.88c.54-.73,1-1.46,1.5-2.19a27.15,27.15,0,0,0,3.79-9.15,2.92,2.92,0,0,0,0-.51h0a14.61,14.61,0,0,1,.81-3.28A5.48,5.48,0,0,1,13,32a12.06,12.06,0,0,1,3.83-1c1.22-.16,2.42-.27,3.63-.4q3.62-.37,7.24-.63c.75-.05,2-.19,2.07.49S29,31.65,27.7,31.77c-3.16.29-6.36.49-9.48,1a22.51,22.51,0,0,0-3.27.66,4.53,4.53,0,0,0-2.39,1.52,6.79,6.79,0,0,0-.92,2.89,32.38,32.38,0,0,1-.79,3.48,27.09,27.09,0,0,1-2.49,5.93,40.37,40.37,0,0,1-3.62,5.23,17.18,17.18,0,0,0-1.53,2.32A7.32,7.32,0,0,0,2.67,56l-.22.62-.15.65a16.74,16.74,0,0,0-.12,5.44A95.9,95.9,0,0,1,3.29,72.8a13.23,13.23,0,0,0,.1,2.52h0c-.4.91,0,2.14-.74,2.94h0c-.1.31-.24.61-.31.92-.35,1.42-.76,1.66-1.3.94C.93,80,.68,80,.69,79.63l0,0h0c-.17-1,.37-2,.56-3a21.17,21.17,0,0,0-.08-7.4c-.38-2.5-1-5-1.14-7.71a15.71,15.71,0,0,1,.42-5,9.1,9.1,0,0,1,.39-1.22,10.24,10.24,0,0,1,.51-1.18A20.64,20.64,0,0,1,2.66,52a22.65,22.65,0,0,1,1.55-2.12Z"/><path class="cls-2" d="M25.63,41.1a9.9,9.9,0,0,1-1,.33,6.73,6.73,0,0,0-1.54.48.71.71,0,0,0-.28.31,3.18,3.18,0,0,0-.25.73.74.74,0,0,0,0,.21h0c-.25.88-.62,1.62-.85,2.31a4.23,4.23,0,0,0-.25,2.15,4.38,4.38,0,0,0,.83,2,.67.67,0,0,1,0,1c-.4.58-1,.7-1.4.23a6.59,6.59,0,0,1-1.43-4A6.79,6.79,0,0,1,20.1,44c.16-.42.31-.81.43-1.18A12.67,12.67,0,0,1,21,41.44a2.74,2.74,0,0,1,1.14-1.29,5,5,0,0,1,1.34-.52c.79-.21,1.55-.39,2.28-.62a11.67,11.67,0,0,0,3.61-1.83,5.28,5.28,0,0,0,1.9-2.48.63.63,0,0,0-.11-.73h0c.31-.29-.29-.5.09-.82h0a.42.42,0,0,0-.05-.25c-.25-.29-.11-.53.63-.78.17-.05.34-.2.51-.13v0h0c.68.14.63.82.7,1.28a5.42,5.42,0,0,1-.65,3.35,6.75,6.75,0,0,1-2.23,2.48,15.75,15.75,0,0,1-3.52,1.64,3.4,3.4,0,0,1-1,.34Z"/><path class="cls-2" d="M27.3,18.25c.09-.37.15-.75.26-1.12L28.83,13a.59.59,0,0,0,0-.23h0c.25-.84.52-1.67.76-2.52a54.45,54.45,0,0,1,1.91-5.79c.12-.29.28-.81.93-.6s1,.68.78,1.21A28.66,28.66,0,0,0,32,8.84c-.38,1.92-1,3.75-1.53,5.63L29,19.5c-.42,1.58-.74,3.2-1.21,4.77-.4,1.35-1,2.66-1.43,4a1.3,1.3,0,0,0-.08,1h0c-.41.29,0,.87-.52,1.11h0a1.22,1.22,0,0,0-.14.36c-.06.59-.34.67-1,.27-.15-.08-.38-.1-.45-.26h0c-.39-.52,0-.92.1-1.34.56-2.09,1.16-4.17,1.75-6.25.36-1.28.77-2.55,1-3.84a4.38,4.38,0,0,1,.25-1.07Z"/><path class="cls-2" d="M52.25,3.29c.53.08,1.07.15,1.59.26l5.93,1.32c.1,0,.21,0,.32,0h0c1.2.27,2.39.55,3.59.79l2.08.43,1,.22c.36.08.6.12,1,.18a5.46,5.46,0,0,1,2.44.81,3.92,3.92,0,0,1,1.48,2.33c.16.54.13,1.54-.57,1.43a1.34,1.34,0,0,1-1.19-1,2.61,2.61,0,0,0-.46-.93,1.56,1.56,0,0,0-.78-.55,5.61,5.61,0,0,0-1.24-.26L66,8.09c-2.7-.38-5.33-1-8-1.57-2.39-.47-4.77-1-7.16-1.48s-4.51-.73-6.75-1.2c-1.93-.4-3.82-1-5.74-1.42A2.42,2.42,0,0,0,37,2.34h0c-.47-.41-1.19,0-1.62-.52h0a2.51,2.51,0,0,0-.52-.14c-.82-.05-1-.34-.57-1,.09-.15.06-.39.27-.46h0c.64-.4,1.26,0,1.86.09L45.29,2c1.82.36,3.63.76,5.46,1a9.69,9.69,0,0,1,1.51.24Z"/><path class="cls-2" d="M59.47,56.77c-.14.59-.27,1.19-.44,1.78L57.09,65.2a2.11,2.11,0,0,0-.05.35h0l-1.18,4C55,72.68,54.11,75.79,53,78.82c-.17.48-.41,1.3-1,1.08s-.91-.9-.64-1.73c.65-2,1.39-4,1.86-6.1.68-3,1.62-6,2.44-8.95l2.26-8c.68-2.51,1.25-5.06,2-7.56.63-2.16,1.42-4.27,2.1-6.42a3.18,3.18,0,0,0,.24-1.59h0c.47-.5.11-1.35.71-1.79h0a3.48,3.48,0,0,0,.21-.59c.14-.92.44-1.09,1.1-.58.15.12.39.1.44.35h0c.34.74-.12,1.42-.3,2.09L61.56,49C61,51,60.38,53,59.89,55.09a12.64,12.64,0,0,1-.42,1.69Z"/><path class="cls-2" d="M71,16.49a1.13,1.13,0,0,1,0,.32l-.36,1.1s0,0,0,.07h0c-.07.22-.16.44-.22.66a3.71,3.71,0,0,1-.65,1.5c0,.07-.09.21-.75,0s-1-.4-1-.54a2.09,2.09,0,0,0,.41-1,5.64,5.64,0,0,1,.32-1.53c.1-.45.26-.89.36-1.35s.06-.9.19-1.32a8.25,8.25,0,0,1,.55-1c0-.08.1-.16-.12-.32h0c.33,0-.19-.3.27-.26,0,0,.08-.05.06-.09s.18-.15.91.13a2.82,2.82,0,0,1,.48.19h0c.47.25.19.3.17.42-.11.57-.27,1.12-.41,1.68a5.06,5.06,0,0,0-.22,1c0,.1.07.22,0,.29Z"/><path class="cls-2" d="M37.67,79.3c.33.06.67.09,1,.17l3.65.89a.65.65,0,0,0,.2,0h0c.74.17,1.47.35,2.21.49,1.71.33,3.42.63,5.1,1.06.26.07.72.13.64.8s-.45,1.07-.93,1A35.19,35.19,0,0,0,46.06,83a44.18,44.18,0,0,1-5-.92c-1.49-.31-3-.7-4.44-1s-2.81-.48-4.19-.81c-1.19-.28-2.34-.73-3.52-1.05a1,1,0,0,0-.88,0h0c-.26-.38-.76.12-1-.39h0a1,1,0,0,0-.32-.09c-.51,0-.6-.25-.29-1,.07-.16.07-.39.21-.48h0c.43-.45.8-.12,1.18,0,1.86.32,3.7.74,5.53,1.14,1.13.25,2.24.55,3.38.73a3.78,3.78,0,0,1,.94.16Z"/><path class="cls-2" d="M25.85,65.86A10.64,10.64,0,0,1,26,67a39.87,39.87,0,0,1-.15,4.23.91.91,0,0,0,0,.23h0c-.08.86-.24,1.72-.39,2.58a12.47,12.47,0,0,1-.94,3,5.49,5.49,0,0,1-2.23,2.54c-.33.17-.93.44-1.14-.2S21,78.18,21.33,78a4.21,4.21,0,0,0,1.82-2.63,28.8,28.8,0,0,0,.75-5.22,37,37,0,0,0-.08-4.83A44.46,44.46,0,0,0,23,60.88c-.25-1.28-.41-2.58-.74-3.85a1.16,1.16,0,0,0-.48-.82h0c.18-.43-.5-.63-.19-1.11h0a1.28,1.28,0,0,0-.09-.35c-.3-.46-.12-.69.67-.8.17,0,.36-.14.52-.06v0h0c.63.16.55.69.7,1.09a38.93,38.93,0,0,1,1.72,6c.26,1.26.41,2.54.61,3.81a3.81,3.81,0,0,1,.14,1.06Z"/><path class="cls-2" d="M44.22,92.69a4.8,4.8,0,0,1-.53.39c-.71.39-1.44.76-2.16,1.11,0,0-.05.07-.08.11h0c-.43.21-.88.4-1.31.62a16.56,16.56,0,0,1-3,1.3c-.17,0-.43.18-.74-.43s-.34-1.08,0-1.2a9.61,9.61,0,0,0,2-.89,28.79,28.79,0,0,1,2.77-1.52c.81-.46,1.65-.88,2.41-1.39s1.34-1.09,2-1.62,1.21-.8,1.76-1.29a.43.43,0,0,0,.18-.52h0c.37.06.06-.49.53-.35h0c0-.05.13-.07.15-.14.08-.3.33-.22.9.31.12.12.32.22.37.36h0c.28.49-.09.57-.24.77A14.94,14.94,0,0,1,46.52,91c-.59.48-1.23.87-1.82,1.35a1.3,1.3,0,0,1-.49.38Z"/><path class="cls-2" d="M60.85,64.57c0-.41,0-.81,0-1.21a22.54,22.54,0,0,0-.4-2.46,6.45,6.45,0,0,1-.1-1.55,4.36,4.36,0,0,1,.41-1.64,3,3,0,0,0,.08-.32h0c.29-.55.59-1,.79-1.39a4.91,4.91,0,0,0,.45-1.23c.45-2-.15-4.31-.82-6.57-.1-.36-.35-.94.28-1.2a1,1,0,0,1,1.44.62,26.81,26.81,0,0,1,1.14,4.95,7.23,7.23,0,0,1-.46,3.85c-.55,1.29-1.31,2.1-1.31,2.93a14.14,14.14,0,0,0,.43,2.89,9.68,9.68,0,0,1-.07,3.48,22.87,22.87,0,0,1-2.07,5.81c-.75,1.53-1.66,3-2.46,4.49a1.85,1.85,0,0,0-.34,1.18h0c-.48.28-.2,1-.81,1.22a2.44,2.44,0,0,0-.24.41c-.2.68-.5.74-1.1.19-.13-.12-.35-.17-.38-.37h0c-.26-.65.22-1.07.44-1.55L59.08,70a17.73,17.73,0,0,0,1.63-4.29,11.18,11.18,0,0,1,.15-1.18Z"/><path class="cls-2" d="M74.92,33.25a2.47,2.47,0,0,1,.85.44,2.35,2.35,0,0,1,.59.74,7.31,7.31,0,0,1,.41,1.18l.27,1,.56,2a.93.93,0,0,0,.11.19h0c.23.8.43,1.61.68,2.41a49,49,0,0,1,1.42,5.61c0,.3.19.8-.47,1s-1.17,0-1.29-.54a26,26,0,0,0-1-3.69C76.4,41.82,76,40,75.43,38.25l-.7-2.38a1.74,1.74,0,0,0-.3-.67,1.5,1.5,0,0,0-.67-.18c-1.59-.23-3.14-.41-4.66-.73-1.31-.28-2.58-.71-3.88-1a1.12,1.12,0,0,0-.94.07h0c-.31-.35-.78.17-1.07-.31a1.13,1.13,0,0,0-.36-.06c-.52.09-.65-.17-.45-.93.05-.17,0-.4.15-.51v0c.42-.5.89-.21,1.32-.17a59,59,0,0,1,6.16,1c1.23.24,2.46.53,3.69.65a3,3,0,0,1,1.19.19Z"/><path class="cls-2" d="M75.34,24.14a10.27,10.27,0,0,1,1.46.07A9.42,9.42,0,0,1,82,26.51a1.4,1.4,0,0,0,.26.16h0A16.62,16.62,0,0,1,84.4,29.3,60.6,60.6,0,0,1,88,35.64c.16.34.48.89-.11,1.23a1,1,0,0,1-1.5-.39A39,39,0,0,0,84,32.34c-1.32-1.88-2.4-3.88-4.13-5a10.13,10.13,0,0,0-5.48-1.27c-1.88,0-3.86.25-5.79.26a37.07,37.07,0,0,0-4.86.06,1.17,1.17,0,0,0-.92.49h0c-.5-.14-.57.55-1.09.38h0c-.09.07-.23.11-.29.21-.26.45-.54.47-1-.15-.11-.14-.33-.22-.31-.44h0c-.07-.77.69-1.1,1.19-1.39a9.24,9.24,0,0,1,4.05-1.07c1.35-.09,2.6-.09,3.89-.13,1.58,0,3.13-.05,4.74-.15a6.07,6.07,0,0,1,1.35,0Z"/><path class="cls-2" d="M104.76,43.29a5.52,5.52,0,0,0,.41.9,1.83,1.83,0,0,0,1.19.85,15.85,15.85,0,0,0,2.19.34,2.45,2.45,0,0,0,.27,0h0a6.47,6.47,0,0,1,3.17,1.3,7.34,7.34,0,0,1,2.2,3.14,12.94,12.94,0,0,1,.78,3.44c0,.36.13,1-.54,1.05a1,1,0,0,1-1.25-.79A9.09,9.09,0,0,0,112,49.58a5.36,5.36,0,0,0-1.93-1.79,8.17,8.17,0,0,0-2.8-.56,5.22,5.22,0,0,1-3.17-1.17,4,4,0,0,1-1-1.54c-.2-.53-.32-1-.44-1.46a2.49,2.49,0,0,0-1-1.65,7.31,7.31,0,0,0-2.16-.65c-1.5-.3-3-.76-4.45-1.12a1.49,1.49,0,0,0-1.1,0h0c-.36-.39-.93.09-1.25-.44h0a2.12,2.12,0,0,0-.41-.12c-.64,0-.76-.28-.43-1,.07-.16.05-.4.22-.48h0c.51-.43,1-.08,1.47,0,2.34.41,4.67.86,7,1.31a6.34,6.34,0,0,1,2.33,1,4.53,4.53,0,0,1,1.49,2.27,5.44,5.44,0,0,1,.38,1.14Z"/><path class="cls-2" d="M120.6,67c.13.29.28.57.39.87.39,1.12.77,2.25,1.16,3.37a.79.79,0,0,0,.12.15h0c.23.68.45,1.37.7,2a32.87,32.87,0,0,1,1.5,4.76c.06.25.21.67-.44.89s-1.15.09-1.28-.34a20,20,0,0,0-1-3.13c-.71-1.44-1.15-3-1.73-4.45-.51-1.33-1-2.69-1.48-4s-1.09-2.46-1.53-3.73c-.39-1.09-.61-2.24-1-3.35a1,1,0,0,0-.47-.7h0c.19-.4-.48-.55-.15-1h0a1.09,1.09,0,0,0-.08-.31c-.27-.41-.08-.61.7-.72.18,0,.37-.14.52-.07h0c.61.12.5.58.64.92.64,1.64,1.25,3.31,1.87,5,.38,1,.72,2,1.17,3a3.56,3.56,0,0,1,.37.82Z"/><path class="cls-2" d="M70.3,67.92a3.2,3.2,0,0,0,.38.87,23.54,23.54,0,0,0,1.4,2l1.53,2.12a1.16,1.16,0,0,0,.2.18h0l1.85,2.55c1.46,1.95,2.9,3.91,4.17,6,.2.33.58.85,0,1.24a1,1,0,0,1-1.53-.24,40.23,40.23,0,0,0-2.77-3.93C74,76.94,72.72,75,71.31,73.15l-1.88-2.53A6.77,6.77,0,0,1,68.55,69a4.17,4.17,0,0,1-.2-2,24.07,24.07,0,0,1,.77-3c.28-.95.58-1.9.92-2.83.6-1.6,1.39-3.13,2.1-4.68a1.92,1.92,0,0,0,.28-1.2h0c.47-.31.16-1,.76-1.27h0a1.62,1.62,0,0,0,.22-.41c.19-.69.48-.76,1.09-.22.14.12.37.16.4.36h0c.28.65-.18,1.07-.38,1.55-1,2.38-1.93,4.77-2.78,7.19L71,64.76a17,17,0,0,0-.63,2.2c-.06.37,0,.69,0,1Z"/><path class="cls-2" d="M79.73,65.39a2.56,2.56,0,0,1,.17.43c.12.56.23,1.13.35,1.69,0,0,0,0,.07.07h0c.06.34.12.68.2,1A8.21,8.21,0,0,1,80.88,71c0,.13,0,.34-.62.49s-1.12.11-1.15-.11a4.38,4.38,0,0,0-.25-1.57,11.57,11.57,0,0,1-.63-2.21c-.19-.67-.31-1.35-.5-2s-.48-1.22-.62-1.85S77,62.59,77,62c0-.13,0-.28-.29-.34h0c.27-.21-.33-.26.08-.5h0s0-.12,0-.16c-.17-.2.06-.31.83-.41a2,2,0,0,1,.51-.06h0c.55,0,.35.28.4.44.24.82.44,1.65.65,2.48A10,10,0,0,0,79.57,65c.06.14.19.25.16.41Z"/><path class="cls-2" d="M97.23,86.28a8.33,8.33,0,0,1,1.36.45,11.43,11.43,0,0,1,1.28.68,9.07,9.07,0,0,1,1.12.91,14.51,14.51,0,0,1,1.8,2.07,1.21,1.21,0,0,0,.2.19h0c.62.88,1.13,1.81,1.66,2.71,1.2,2.1,2.18,4.26,3.13,6.33.16.32.47.83-.1,1.19a1,1,0,0,1-1.5-.36c-.75-1.42-1.29-2.89-2.11-4.2a42.79,42.79,0,0,0-3.55-5.52,8.26,8.26,0,0,0-2-1.77,11.33,11.33,0,0,0-2.63-1c-1.76-.47-3.68-.66-5.54-1.08-1.6-.35-3.17-.87-4.77-1.27a1.7,1.7,0,0,0-1.18,0h0c-.37-.4-1,.06-1.33-.48h0a2.35,2.35,0,0,0-.43-.13c-.69,0-.81-.3-.43-1,.09-.16.08-.39.26-.47h0c.55-.42,1,0,1.56,0L91.37,85,96,86a5.82,5.82,0,0,1,1.29.33Z"/></g></g></svg>