<svg xmlns="http://www.w3.org/2000/svg" viewBox="0 0 103.9 91.77"><defs><style>.cls-1{fill:#231f20;}.cls-2{fill:#fff;}</style></defs><g id="Layer_2" data-name="Layer 2"><g id="Layer_1-2" data-name="Layer 1"><path class="cls-1" d="M79,7.46a6.53,6.53,0,0,1,.76-.08l2.9,0s.09,0,.14-.06h0c.58,0,1.16,0,1.75,0a23.87,23.87,0,0,1,4,.16c.21,0,.57,0,.57.71s-.22,1.12-.58,1.1a12.67,12.67,0,0,0-2.68-.08,36,36,0,0,1-3.88.16c-1.16,0-2.32,0-3.49.07s-2.18.21-3.27.21c-.94,0-1.88-.16-2.83-.21a.64.64,0,0,0-.66.21h0c-.26-.31-.56.27-.8-.18-.09,0-.18-.06-.26,0-.39.12-.49-.13-.36-.9,0-.17,0-.4.09-.52v0h0c.26-.53.59-.28.88-.3,1.43-.07,2.87-.09,4.31-.12.88,0,1.76,0,2.64-.11A2.21,2.21,0,0,1,79,7.46Z" transform="translate(-0.01)"/><path class="cls-1" d="M52.13,7.4c.35,0,.69-.06,1-.05,1.29,0,2.59.05,3.88.07a.73.73,0,0,0,.2,0h0c.78,0,1.57,0,2.35,0A42.67,42.67,0,0,1,65,7.66c.28,0,.76,0,.75.72s-.35,1.12-.84,1.09a22.45,22.45,0,0,0-3.57-.14c-1.73.16-3.46.05-5.19.07-1.56,0-3.11,0-4.67,0s-2.92.16-4.38.14c-1.26,0-2.52-.2-3.78-.28a1.08,1.08,0,0,0-.89.2h0c-.34-.31-.74.26-1.07-.2h0a1.45,1.45,0,0,0-.35,0c-.52.12-.65-.13-.47-.91,0-.17,0-.39.12-.5h0c.35-.53.78-.27,1.18-.28,1.92,0,3.85,0,5.77,0,1.18,0,2.37,0,3.55,0a3.93,3.93,0,0,1,1-.06Z" transform="translate(-0.01)"/><path class="cls-1" d="M31.24,7.23a2.66,2.66,0,0,1,.39-.07l1.47,0s0,0,.07,0h0c.3,0,.59,0,.89,0a6.17,6.17,0,0,1,2,.21c.11,0,.29,0,.28.72s-.13,1.12-.32,1.09a3.23,3.23,0,0,0-1.34-.11,9.24,9.24,0,0,1-2,.1c-.59,0-1.18,0-1.76,0s-1.11.19-1.66.18a11.78,11.78,0,0,1-1.42-.26c-.11,0-.23-.05-.34.21h0c-.13-.31-.28.26-.4-.19h0c-.05,0-.09-.06-.13,0-.2.12-.25-.13-.18-.9a2.51,2.51,0,0,1,0-.51h0c.14-.53.3-.28.45-.28.73-.05,1.45-.06,2.18-.08a7.53,7.53,0,0,0,1.34-.07c.12,0,.24-.12.37-.06Z" transform="translate(-0.01)"/><path class="cls-1" d="M55.68,19.62c.82,0,1.64-.05,2.46,0l9.31.1a2.59,2.59,0,0,0,.47-.05h0l5.62,0c4.34,0,8.67-.07,13,.05.68,0,1.82,0,1.82.68s-.77,1.13-1.95,1.13c-2.87,0-5.74-.13-8.59,0-4.16.21-8.32.11-12.48.13L54.14,21.6c-3.51,0-7,.11-10.52.07-3,0-6-.24-9.06-.33a5.5,5.5,0,0,0-2.14.2h0c-.82-.31-1.78.26-2.58-.2h0a5.81,5.81,0,0,0-.83,0c-1.24.11-1.57-.14-1.15-.91.09-.17,0-.4.28-.51h0c.84-.52,1.88-.27,2.82-.27,4.62,0,9.25,0,13.87,0,2.83,0,5.67.08,8.5,0a20.09,20.09,0,0,1,2.33,0Z" transform="translate(-0.01)"/><path class="cls-1" d="M90.49,27.57c0-.49.06-1,.12-1.47.21-1.84.42-3.68.57-5.53,0-.09,0-.19,0-.29h0c.11-1.11.18-2.23.24-3.35.11-2.59.15-5.18.35-7.77,0-.41,0-1.09.71-1.09a1,1,0,0,1,1.1,1.18c0,1.73-.24,3.47-.16,5.19A70.31,70.31,0,0,1,93.06,22c-.16,2.25-.45,4.5-.71,6.74s-.42,4.24-.81,6.33c-.34,1.8-.88,3.56-1.34,5.34a2.09,2.09,0,0,0-.1,1.31h0c-.4.42,0,1.12-.55,1.48h0a2.21,2.21,0,0,0-.15.48c-.07.76-.36.89-1,.45-.15-.09-.38-.09-.45-.29h0c-.39-.62,0-1.16.13-1.71.6-2.69,1.16-5.4,1.62-8.12.29-1.67.58-3.34.72-5a8.16,8.16,0,0,1,.12-1.39Z" transform="translate(-0.01)"/><path class="cls-1" d="M21.89,38.35l.32-2.29c.39-2.89.74-5.79.89-8.71a2.28,2.28,0,0,0,0-.45h0c.12-1.76.16-3.54.18-5.31,0-4.1-.14-8.2-.17-12.31,0-.64-.07-1.73.61-1.76s1.16.68,1.2,1.81c.11,2.73.06,5.48.24,8.19A97.1,97.1,0,0,1,25,29.47a101.33,101.33,0,0,1-1.35,10.67A71.07,71.07,0,0,1,21.17,50c-.47,1.39-1.06,2.73-1.64,4.07s-1.25,2.64-2,3.92a5.22,5.22,0,0,0-.77,1.93h0c-.61.56-.61,1.63-1.39,2.07h0a5.61,5.61,0,0,0-.44.68c-.51,1.09-.88,1.23-1.33.48-.1-.17-.34-.2-.3-.51h0c0-1,.66-1.66,1.11-2.43A68.1,68.1,0,0,0,19.6,48.24l.6-1.9.51-1.93c.37-1.28.6-2.6.85-3.9.14-.72.15-1.46.34-2.17Z" transform="translate(-0.01)"/><path class="cls-1" d="M33.33,61.65c1,0,2-.09,2.93-.1l11.09-.08a5.51,5.51,0,0,0,.57-.06h0l6.71,0c1.31,0,2.51-.1,4,0a5.44,5.44,0,0,1,2.25.74,13.29,13.29,0,0,1,1.73,1.2c2.12,1.73,3.7,3.76,5.77,4.73.32.16.77.3,1.13.47s.66.36.62.69-.31.6-.79.72a3,3,0,0,1-1.86-.3,16.58,16.58,0,0,1-4.24-3.28c-.62-.59-1.23-1.16-1.87-1.66-.32-.25-.65-.47-1-.69a6.07,6.07,0,0,0-1-.5A10.83,10.83,0,0,0,56,63.34l-3.72.06-7.42.09-13.34.17c-4.17.09-8.35.28-12.52.32-3.6,0-7.21-.1-10.81-.12a7.76,7.76,0,0,0-2.55.23h0c-1-.3-2.12.29-3.07-.16h0a8.22,8.22,0,0,0-1,0C.11,64.05-.28,63.81.21,63c.1-.17,0-.39.33-.51h0c1-.54,2.23-.3,3.36-.32l16.51-.27c3.38,0,6.76,0,10.13-.18.92,0,1.84-.15,2.78-.1Z" transform="translate(-0.01)"/><path class="cls-1" d="M31.45,74.75c1,0,2,0,3,0q5.72.06,11.43,0a5.7,5.7,0,0,0,.58-.06h0c2.31,0,4.61,0,6.91-.07l16-.36c.83,0,2.23-.1,2.25.58s-.91,1.17-2.36,1.23c-3.52.13-7.06.11-10.56.33-5.11.32-10.22.3-15.34.35-4.59,0-9.18,0-13.77,0-4.32,0-8.61,0-12.95-.11a25.72,25.72,0,0,1-5.72-.82A14.76,14.76,0,0,1,5.55,73.2c-.75-.58-1.42-1.3-2.19-1.8v0c-.46-1-1.65-1.67-1.82-2.77h0c-.18-.3-.33-.63-.53-.9-.9-1.26-.89-1.73,0-1.69.2,0,.33-.22.62,0v0c1,.61,1.42,1.81,2.09,2.71A14.41,14.41,0,0,0,6.5,71.74,11.84,11.84,0,0,0,10,73.56a27.34,27.34,0,0,0,8.15,1.07c3.48.09,7,.19,10.44.15.95,0,1.9-.1,2.87,0Z" transform="translate(-0.01)"/><path class="cls-1" d="M35.35,7.79a7.71,7.71,0,0,1,0-1.27,9,9,0,0,1,2-4.46,1.71,1.71,0,0,0,.13-.23h0A5.87,5.87,0,0,1,40.24.16,4.78,4.78,0,0,1,44,.73a5.93,5.93,0,0,1,2.26,2.7c.14.33.38.88-.26,1.12s-1.15.12-1.36-.31A3.66,3.66,0,0,0,42.25,2a3.74,3.74,0,0,0-3.86,2,7.89,7.89,0,0,0-1,4.46,7.85,7.85,0,0,0,1.45,4,3.75,3.75,0,0,0,2.61,1.82.64.64,0,0,0,.7-.29h0c.38.22.45-.44.9-.18h0c.09,0,.21-.07.28-.15.29-.37.55-.31.95.39.08.15.27.28.23.47h0c0,.69-.65.84-1.11,1.05a4.59,4.59,0,0,1-3.82,0,6.37,6.37,0,0,1-2.73-2.5A10.92,10.92,0,0,1,35.44,9a3.71,3.71,0,0,1-.09-1.2Z" transform="translate(-0.01)"/><path class="cls-1" d="M65,7.79a7.71,7.71,0,0,1,0-1.27,9,9,0,0,1,2-4.46,1.71,1.71,0,0,0,.13-.23h0A5.87,5.87,0,0,1,69.93.16a4.78,4.78,0,0,1,3.75.57,5.93,5.93,0,0,1,2.26,2.7c.14.33.38.88-.26,1.12s-1.15.12-1.36-.31A3.66,3.66,0,0,0,71.94,2a3.74,3.74,0,0,0-3.86,2,7.89,7.89,0,0,0-1,4.46,7.85,7.85,0,0,0,1.45,4,3.75,3.75,0,0,0,2.61,1.82.64.64,0,0,0,.7-.29h0c.38.22.44-.44.9-.18h0c.09,0,.21-.07.28-.15.29-.37.55-.31,1,.39.08.15.27.28.23.47h0c0,.69-.65.84-1.11,1.05a4.59,4.59,0,0,1-3.82,0,6.37,6.37,0,0,1-2.73-2.5A10.92,10.92,0,0,1,65.13,9,3.71,3.71,0,0,1,65,7.78Z" transform="translate(-0.01)"/><circle class="cls-2" cx="88.11" cy="64.34" r="15.78"/><path class="cls-1" d="M87.11,63.41a1.77,1.77,0,0,1,0-.32l0-.2c0-.12,0-.24,0-.36l0-2.69s0-.09-.06-.13h0c0-.54,0-1.08,0-1.62a20.57,20.57,0,0,1,.19-3.76c0-.2,0-.53.72-.52s1.12.23,1.09.57a10.77,10.77,0,0,0-.1,2.47,30.93,30.93,0,0,1,.12,3.6c0,.54,0,1.08,0,1.62v.8a1,1,0,0,0,0,.23.3.3,0,0,0,0,.1.3.3,0,0,0,.17.11h.09s0,0,.18,0c.5,0,1-.08,1.51-.08.88,0,1.75.19,2.62.25a.59.59,0,0,0,.62-.21h0c.23.31.51-.27.74.19.08,0,.16.06.24,0,.36-.11.46.13.34.91,0,.17,0,.39-.09.51h0c-.24.53-.54.27-.82.28-1.33.06-2.66.06-4,.09H89.49a2.44,2.44,0,0,1-1.84-.79,1.65,1.65,0,0,1-.54-1.06Z" transform="translate(-0.01)"/><path class="cls-1" d="M101,26c0,.59.09,1.18.1,1.77,0,2.23,0,4.46,0,6.69a1.86,1.86,0,0,0,.05.34h0l0,4c0,3.12,0,6.23-.18,9.33,0,.48,0,1.31-.71,1.3s-1.12-.56-1.1-1.41c0-2,.2-4.11.09-6.16-.18-3-.07-6-.11-8.94,0-2.67,0-5.34-.11-8-.1-2.51-.34-5-.49-7.49a6.67,6.67,0,0,0-.39-2.65,10.93,10.93,0,0,0-2.08-2.06,3.09,3.09,0,0,0-1.33-.81v0c-.26-.61-1.16-.6-1.32-1.32h0a3.38,3.38,0,0,0-.44-.4c-.77-.47-.79-.81-.07-1.22.15-.09.23-.32.48-.27v0h0c.8,0,1.22.63,1.75,1l2,1.54c.65.53,1.27,1,2,1.62a4.36,4.36,0,0,1,.92,1.24,5.19,5.19,0,0,1,.42,1.44c.12.93.14,1.71.2,2.56.13,2,.18,4.08.32,6.12A10.46,10.46,0,0,1,101,26Z" transform="translate(-0.01)"/><path class="cls-1" d="M96.55,36.59a7.06,7.06,0,0,1,0,.8c-.12,1-.27,2-.43,3a1.24,1.24,0,0,0,0,.16h0c-.09.6-.2,1.19-.28,1.79a24.82,24.82,0,0,1-.79,4.09c-.06.21-.12.57-.79.47s-1.07-.41-1-.78a14.06,14.06,0,0,0,.49-2.7c0-1.35.31-2.65.45-4s.31-2.35.39-3.53,0-2.22.09-3.32c.06-.95.28-1.9.36-2.85,0-.23.06-.47-.2-.68h0c.32-.26-.26-.56.19-.82h0a.57.57,0,0,0,0-.26c-.12-.39.13-.5.9-.37.17,0,.4,0,.51.09h0c.53.27.27.61.29.91,0,1.49,0,3-.07,4.49,0,.92-.15,1.83-.15,2.75a2.16,2.16,0,0,1,0,.76Z" transform="translate(-0.01)"/><path class="cls-1" d="M64.46,89.58c1.07,0,2.15-.08,3.23-.08l12.24,0c.2,0,.41,0,.62-.06h0l7.4,0a59,59,0,0,0,8.36-.5,5.1,5.1,0,0,0,1.55-.36c.06,0,.07,0,.13-.24a5.19,5.19,0,0,0,0-.89l.07-2.14.12-2.13c.05-.89.06-2.4.74-2.36s1.11,1,1.07,2.6c0,1-.1,1.86-.12,2.82l0,1.4a3.69,3.69,0,0,1-.33,1.74,2.41,2.41,0,0,1-1.62,1.13c-.55.13-1,.19-1.46.27-1,.15-1.9.27-2.85.38a78.81,78.81,0,0,1-8.25.29l-8.19,0-14.7,0c-4.61,0-9.21.2-13.82.2-4,0-7.94-.17-11.91-.23a8.76,8.76,0,0,0-2.78.22h0a3,3,0,0,0-.86-.07h-1a3.28,3.28,0,0,1-1.36-.24,1.49,1.49,0,0,1-.52-.54,1.68,1.68,0,0,1-.16-.72h0a7.62,7.62,0,0,1,0-1.46c0-1.75.34-2,1.05-1.46.16.14.39,0,.47.43l0,0h0a5.76,5.76,0,0,1,.23,1.71,1,1,0,0,0,0,.28.13.13,0,0,0,.1.06H32l.12,0,18.13-.07c3.73,0,7.46,0,11.17-.09,1,0,2-.13,3.07-.07Z" transform="translate(-0.01)"/><path class="cls-1" d="M44.47,83.26c1,0,1.94-.07,2.91-.07l11,0a5.51,5.51,0,0,0,.57-.06h0l6.67,0h7.72c2.56,0,5.09,0,7.58-.15.79,0,2.08-.28,2.19.39s-.74,1.29-2.18,1.43c-3.46.33-6.88.08-10.24.22-4.93.18-9.85.09-14.78.14l-13.26.05c-4.15,0-8.3.2-12.45.2-3.58,0-7.17-.18-10.76-.24a6.52,6.52,0,0,1-1.51-.17,3.22,3.22,0,0,1-1-.41,2.36,2.36,0,0,1-.76-.84v0a2.9,2.9,0,0,1,.13-1.4,5,5,0,0,1,.48-1,2.91,2.91,0,0,1,1.08-1.14h0c.21-.25.45-.49.63-.75.82-1.23,1.25-1.39,1.56-.52.07.19.32.23.19.58h0c-.2,1.11-1.16,1.92-1.84,2.81a3.08,3.08,0,0,0-.35.58.27.27,0,0,0,.05.26,2.21,2.21,0,0,0,1.2.24l4.1,0,8.21,0c3.36,0,6.72,0,10.07-.09.92,0,1.84-.13,2.77-.07Z" transform="translate(-0.01)"/></g></g></svg>