<svg xmlns="http://www.w3.org/2000/svg" viewBox="0 0 149.36 126.88">
  <defs>
    <style>
      .cls-1 {
        fill: #231f20;
      }

      .cls-2 {
        fill: #fff;
      }
    </style>
  </defs>
  <g id="Layer_2" data-name="Layer 2">
    <g id="Layer_1-2" data-name="Layer 1">
      <g>
        <path class="cls-1" d="M7.88,52.94c.2-1.09.38-2.19.6-3.27.84-4.11,1.71-8.21,2.56-12.32,0-.21.05-.42.07-.64v0c.52-2.48,1.05-5,1.55-7.45C13.81,23.53,15,17.79,16.37,12.1c.21-.89.53-2.42,1.19-2.25s.88,1.28.53,2.83c-.84,3.77-1.77,7.54-2.42,11.33-.95,5.54-2.17,11-3.26,16.52-1,4.95-2,9.88-3,14.82C8.51,60,7.71,64.67,6.76,69.3c-.83,4-1.82,8-2.7,12a10.49,10.49,0,0,0-.37,2.88v0c-.53,1-.22,2.41-.88,3.38h0a10.76,10.76,0,0,0-.26,1.09c-.22,1.67-.55,2.06-1.2,1.35-.14-.15-.39-.06-.42-.48v0h0c-.29-1.22.24-2.54.48-3.79,1.2-6.12,2.45-12.24,3.67-18.36.75-3.75,1.55-7.5,2.23-11.26.18-1,.29-2.08.56-3.11Z"/>
        <path class="cls-1" d="M89.45,12.22l6.24,1.21,23.54,4.85c.39.08.8.13,1.21.19h0l14.23,2.93h0c.1-.47-.84,4.1-.44,2.16h-.09l-.13,0-.26-.05-.51-.11-1-.2-2.06-.42L126,21.9l-8.23-1.7-.26-.06h-.08c-.1.46.82-4.07.43-2.15h0l.12,0,.52.11,1,.22,2,.43,4.1.88,8.2,1.8c1.7.38,4.61,1,4.42,1.64s-2.23.68-5.21,0L122.32,20.8l-2.71-.58-1.35-.28-.68-.14h-.07c-.06.32.57-2.78.31-1.47h0l.08,0,.17,0,.34.07,5.41,1.06,7.9,1.53,2,.39.49.1.25.05.12,0h0c-.15.79.37-1.75-.35,1.76h-.07l-1-.2-3.94-.8-15.76-3.21L85.2,13.39C76.33,11.61,67.44,10,58.59,8.13,54.77,7.35,51,6.52,47.14,5.69c-1.9-.42-3.81-.81-5.74-1.3s-3.78-1-5.66-1.47a21.59,21.59,0,0,0-5.36-.82h0a8.87,8.87,0,0,0-1.57-.25c-.54,0-1.08,0-1.62,0S26.16,2,25.65,2a9.36,9.36,0,0,1-1.48.1h0l-1,.27a6.18,6.18,0,0,0-.86.41,4.64,4.64,0,0,0-.44.26l-.36.28-.62.47a4.18,4.18,0,0,1-.77.66c-.4.22-.59.06-.53-.58,0-.29-.34-.22.13-.92l.05,0h0a6.07,6.07,0,0,1,1.28-1.37c.27-.17.56-.34.86-.5a3.84,3.84,0,0,1,.93-.4l1-.31c.33-.07.67-.11,1-.16A16.44,16.44,0,0,1,26.79,0c6.27-.11,12,2.11,17.74,3.22L62.06,6.77c7.17,1.45,14.34,2.94,21.51,4.32,2,.37,3.94.67,5.92,1.14Z"/>
        <path class="cls-1" d="M143,67.87c-.23,1.23-.44,2.47-.69,3.7l-2.89,13.92c0,.23-.06.48-.08.72v0l-1.74,8.42c-1.31,6.49-2.64,13-4.18,19.43-.24,1-.59,2.72-1.25,2.55s-.85-1.41-.46-3.17c.93-4.26,2-8.53,2.72-12.8,1.09-6.26,2.46-12.45,3.69-18.68l3.39-16.75c1-5.25,2-10.52,3-15.76l.72-3.38a30.35,30.35,0,0,1,.89-3.43,25.45,25.45,0,0,0,1.5-6.48,3.12,3.12,0,0,0-.83-2.54v0c-.3-1.06-1.83-1.77-2.28-3h0c-.28-.32-.53-.68-.83-1-1.36-1.33-1.51-1.86-.51-1.91.22,0,.28-.28.67,0l0,0h0c1.25.6,2.12,1.94,3.09,3A10.76,10.76,0,0,1,148.69,33a6.56,6.56,0,0,1,.67,2.93,19.61,19.61,0,0,1-.9,5.44l-.72,2.54q-.17.62-.3,1.23l-.26,1.3-1,5.18c-.86,4.24-1.75,8.48-2.53,12.73-.21,1.17-.35,2.35-.65,3.51Z"/>
        <path class="cls-1" d="M69.44,116.36l-5.68-1.09-21.44-4.43c-.37-.07-.74-.11-1.11-.16h0l-13-2.68c-2.49-.49-5-1-7.48-1.5s-5-.81-7.57-1.39a26.48,26.48,0,0,1-7.48-2.66,11.92,11.92,0,0,1-3.21-2.6c-.22-.28-.46-.53-.66-.82l-.55-.91A10,10,0,0,1,.5,96.24,8.23,8.23,0,0,1,0,93.31c0-1,.31-1.65.63-1.57.72.17.78,1.87,1.69,4.24A8.68,8.68,0,0,0,5,99.69,14.78,14.78,0,0,0,9.12,102a46.21,46.21,0,0,0,9.65,2.21c2.42.34,4.87.81,7.25,1.29L33.2,107l14.36,2.93,25.8,5.23c8.08,1.62,16.18,3.12,24.25,4.77q5.22,1.08,10.42,2.24c3.55.72,6.92,1.91,10.34,2.55a12.75,12.75,0,0,0,4.81.26h0a5.48,5.48,0,0,0,2.69-.37A19,19,0,0,0,128,123.3h0a7.28,7.28,0,0,0,1.14-1.39,15.56,15.56,0,0,1,1.45-2.31c.33-.32.53-.16.65.45,0,.27.37.15.14.84l0,0h0a7.71,7.71,0,0,1-1.54,3,8.68,8.68,0,0,1-1.33,1.31l-.84.54a5.59,5.59,0,0,1-.86.4,11.21,11.21,0,0,1-4.31.7,26.08,26.08,0,0,1-4.18-.44c-2.74-.47-5.38-1.22-8-1.86-5.24-1.14-10.62-2.18-15.93-3.26-6.53-1.32-13.07-2.69-19.6-3.93-1.79-.34-3.6-.61-5.4-1Z"/>
        <path class="cls-1" d="M79.57,17.82c1.48.28,3,.54,4.46.85q8.41,1.72,16.83,3.48c.29.06.58.08.87.12h0c3.39.7,6.78,1.42,10.18,2.1,7.85,1.59,15.71,3.2,23.5,5,1.22.28,3.3.71,3.12,1.37s-1.66.8-3.79.34c-5.16-1.12-10.32-2.34-15.49-3.27-7.55-1.37-15-3-22.57-4.5-6.75-1.34-13.49-2.76-20.25-4.1-6.35-1.26-12.71-2.4-19-3.7-5.46-1.13-10.9-2.42-16.35-3.6a19.89,19.89,0,0,0-3.92-.59l0,0c-1.42-.61-3.28-.4-4.63-1.14h0c-.5-.12-1-.27-1.5-.34-2.27-.35-2.81-.71-1.91-1.32.2-.13.06-.39.62-.39l0,0v0c1.63-.2,3.45.43,5.16.77C43.24,10.57,51.6,12.28,60,14c5.13,1,10.26,2.11,15.39,3.07,1.41.26,2.83.45,4.24.8Z"/>
        <path class="cls-1" d="M68.7,106.55c1.4.26,2.8.5,4.19.78l15.76,3.27c.27.05.55.07.82.1h0l9.54,2,11,2.26,2.75.58.32.07.05,0s0,0,0,0h0a1.41,1.41,0,0,1,.31-.07h.14l.27,0,.39,0c1,.14,1.89.31,2.82.49a11.71,11.71,0,0,0,2.48.37,1.37,1.37,0,0,0,.94-.55c.21-.25.26-.58.57-.71a.5.5,0,0,1,.53.13,1.17,1.17,0,0,1,.29.92,2.09,2.09,0,0,1-.68,1.34,2.69,2.69,0,0,1-1.77.7,10.15,10.15,0,0,1-2-.26l-1.82-.34c-.6-.11-1.22-.22-1.78-.29l-.18,0h0a5.41,5.41,0,0,0,0-.63.29.29,0,0,0,0-.09v0c-.06-.17.52,1.36.29.75l0,.14c0,.11,0,0,0,.06h.07a1.3,1.3,0,0,0,.53-.09l.07,0a.52.52,0,0,1-.13.06,1.15,1.15,0,0,1-.28.06,2.35,2.35,0,0,1-.73-.07l-3.92-.8c-1.21-.25-2.42-.48-3.63-.7-7.08-1.26-14.09-2.8-21.14-4.2l-19-3.84c-5.94-1.18-11.9-2.24-17.84-3.46-5.12-1.05-10.2-2.27-15.31-3.38a16.78,16.78,0,0,0-3.67-.54v0c-1.32-.59-3.07-.36-4.33-1.08h0c-.47-.11-.94-.25-1.4-.32-2.13-.32-2.64-.67-1.78-1.29.19-.14.06-.39.59-.4l0,0v0c1.53-.22,3.24.39,4.84.7l23.49,4.72c4.81,1,9.61,2,14.42,2.87,1.31.24,2.65.41,4,.74Z"/>
        <path class="cls-1" d="M107.61,49.14c.66.11,1.32.2,2,.34L117,51a2.47,2.47,0,0,0,.39,0h0c1.49.32,3,.65,4.48.94,3.46.69,6.93,1.4,10.33,2.32.54.14,1.45.33,1.3,1s-.86,1-1.79.75c-2.27-.53-4.52-1.16-6.82-1.5-3.35-.5-6.64-1.27-10-1.91-3-.58-6-1.22-8.93-1.79-2.8-.54-5.62-1-8.41-1.54-2.41-.49-4.79-1.16-7.18-1.71a3.85,3.85,0,0,0-1.75-.15h0c-.6-.43-1.48,0-2-.6h0a4,4,0,0,0-.66-.17c-1-.09-1.23-.39-.74-1.08.11-.15.07-.39.33-.45l0,0v0c.78-.38,1.55,0,2.31.18,3.69.7,7.37,1.45,11.06,2.18,2.26.45,4.52.94,6.79,1.31a13.68,13.68,0,0,1,1.88.32Z"/>
        <path class="cls-1" d="M45.11,36.37c.62.1,1.25.18,1.87.31l7,1.48a1.53,1.53,0,0,0,.37,0h0c1.42.3,2.83.62,4.25.9,3.29.65,6.58,1.32,9.81,2.21.51.13,1.38.32,1.22,1s-.82,1-1.71.76c-2.15-.5-4.29-1.11-6.46-1.43-3.19-.46-6.31-1.2-9.46-1.81-2.83-.54-5.64-1.16-8.47-1.69-2.66-.51-5.34-.9-8-1.45C33.28,36.17,31,35.53,28.76,35a3.34,3.34,0,0,0-1.66-.13h0c-.56-.43-1.4,0-1.91-.58h0a2.91,2.91,0,0,0-.63-.16c-1-.08-1.16-.37-.69-1.07.11-.15.07-.39.32-.46l0,0h0c.74-.39,1.48,0,2.19.15,3.51.67,7,1.37,10.5,2.07,2.15.42,4.29.89,6.45,1.24a12,12,0,0,1,1.78.29Z"/>
        <path class="cls-1" d="M73.45,49c1.5.28,3,.55,4.49.85l16.91,3.5c.29.06.58.08.87.12h0c3.41.71,6.81,1.43,10.23,2.12,7.89,1.59,15.78,3.21,23.61,5,1.23.28,3.32.71,3.14,1.37s-1.67.8-3.81.33c-5.18-1.12-10.37-2.35-15.56-3.28-7.59-1.37-15.12-3-22.68-4.52-6.79-1.35-13.56-2.77-20.35-4.12-6.37-1.27-12.77-2.42-19.14-3.72-5.49-1.13-11-2.43-16.43-3.61a19.28,19.28,0,0,0-3.94-.6l0,0c-1.43-.61-3.29-.4-4.65-1.15h0c-.5-.11-1-.26-1.51-.34-2.28-.35-2.82-.71-1.91-1.31.2-.14.05-.4.62-.4l0,0h0c1.64-.2,3.48.43,5.19.77,8.4,1.66,16.8,3.37,25.2,5.06,5.16,1,10.31,2.13,15.47,3.09,1.41.26,2.84.45,4.26.8Z"/>
        <path class="cls-1" d="M137.15,44.15a5.85,5.85,0,0,1-.07.72c-.19.88-.4,1.77-.59,2.66,0,0,0,.09,0,.14h0c-.12.54-.25,1.07-.35,1.61a20.65,20.65,0,0,1-1,3.69c-.07.19-.14.52-.81.37s-1-.45-1-.78a11.63,11.63,0,0,0,.61-2.44,28.94,28.94,0,0,1,.61-3.59c.18-1.08.44-2.14.62-3.22s.22-2,.44-3.05c.18-.86.53-1.69.77-2.55a.61.61,0,0,0-.08-.65h0c.35-.17-.16-.57.34-.7h0c0-.08.09-.15.08-.24,0-.37.22-.42.95-.14.16.06.39.07.49.18h0c.47.35.16.6.12.87-.22,1.33-.49,2.66-.73,4-.16.81-.35,1.62-.43,2.45a1.72,1.72,0,0,1-.07.68Z"/>
        <path class="cls-1" d="M25.48,21.47c0,.24,0,.49-.08.73-.19.9-.4,1.8-.6,2.71,0,0,0,.1,0,.15h0c-.13.55-.26,1.09-.36,1.64a21.41,21.41,0,0,1-1,3.76c-.08.19-.15.52-.81.38s-1.05-.46-.95-.8a11.89,11.89,0,0,0,.61-2.47A32.14,32.14,0,0,1,23,23.9c.2-1.1.45-2.18.64-3.27s.23-2.09.44-3.11.54-1.72.78-2.59a.62.62,0,0,0-.07-.67h0c.35-.17-.16-.57.34-.71h0c0-.08.09-.15.08-.24,0-.38.22-.43,1-.15.16.06.38.07.48.18h0c.46.35.15.6.11.88-.22,1.35-.49,2.7-.75,4.05-.15.83-.35,1.65-.43,2.5a2,2,0,0,1-.07.69Z"/>
        <path class="cls-1" d="M128.47,86.62c-.11.66-.2,1.33-.34,2-.52,2.48-1,5-1.57,7.46,0,.12,0,.26,0,.39h0c-.32,1.5-.65,3-1,4.51-.69,3.49-1.41,7-2.33,10.4-.14.54-.34,1.46-1,1.31s-1-.86-.74-1.81c.53-2.28,1.16-4.55,1.51-6.85.5-3.37,1.28-6.69,1.92-10,.58-3,1.23-6,1.8-9,.54-2.82,1-5.66,1.55-8.47.5-2.43,1.17-4.82,1.72-7.23a3.76,3.76,0,0,0,.15-1.76h0c.44-.6,0-1.49.61-2h0a4.11,4.11,0,0,0,.17-.67c.09-1,.38-1.23,1.08-.74.15.11.38.07.45.33l0,0h0c.37.78,0,1.56-.19,2.32-.7,3.72-1.46,7.43-2.19,11.14-.45,2.27-.94,4.54-1.32,6.83a13.56,13.56,0,0,1-.32,1.89Z"/>
        <path class="cls-1" d="M15.45,70.49c-.15.86-.28,1.72-.45,2.57l-2,9.69a4.21,4.21,0,0,0,0,.51v0L11.71,89.1l-.34,1.7c-.14.64-.32,1.21-.45,1.73a4.18,4.18,0,0,0-.2,1.32.75.75,0,0,0,.36.65A3.43,3.43,0,0,0,12.3,95l1.67.38,3.34.81c.7.18,1.89.42,1.73,1.08s-1.05.93-2.29.65l-4.46-1a5.88,5.88,0,0,1-2.39-.94A2.88,2.88,0,0,1,9,94.66a3.66,3.66,0,0,1-.14-1.44l2.64-13.06L13.83,68.5c.71-3.66,1.3-7.33,2.05-11,.65-3.15,1.47-6.26,2.17-9.4a6.28,6.28,0,0,0,.26-2.27h0c.47-.79.11-1.91.73-2.65h0a6.34,6.34,0,0,0,.21-.86c.15-1.32.46-1.61,1.13-1,.15.13.39.06.44.4l0,0h0c.33,1-.13,2-.32,3L17.62,59.19c-.59,3-1.22,5.9-1.74,8.86a22.84,22.84,0,0,1-.43,2.45Z"/>
        <path class="cls-1" d="M40.35,33.41a.82.82,0,0,1,0-.27l.24-1s0,0,0-.06h0a5.47,5.47,0,0,0,.15-.58,2.85,2.85,0,0,1,.47-1.32c0-.07.08-.19.74-.05s1.08.31,1,.43c-.13.28-.35.55-.29.87a4,4,0,0,1-.15,1.33c0,.4-.16.78-.2,1.18a10.87,10.87,0,0,1-.05,1.14,6.13,6.13,0,0,1-.43.9c0,.07-.08.14.16.26h0c-.33,0,.22.24-.24.24h0s-.07,0,0,.08-.17.13-.92-.06a3.7,3.7,0,0,1-.49-.14h0c-.5-.19-.23-.25-.22-.35.05-.49.14-1,.22-1.47a3.88,3.88,0,0,0,.1-.9c0-.09-.09-.19,0-.26Z"/>
        <path class="cls-1" d="M49.49,34.49a1.43,1.43,0,0,1,0,.29c-.08.35-.17.7-.26,1,0,0,0,0,0,.07h0a6.42,6.42,0,0,0-.15.63,3.23,3.23,0,0,1-.5,1.43c0,.06-.07.19-.74.06s-1.08-.32-1-.45a1.83,1.83,0,0,0,.3-.94,4.84,4.84,0,0,1,.17-1.43c0-.43.17-.84.22-1.27s0-.83.06-1.22a7.82,7.82,0,0,1,.45-1c0-.07.09-.15-.15-.28h0c.32,0-.22-.25.24-.25h0s.07-.05.06-.09.16-.15.91,0a3.3,3.3,0,0,1,.49.14h0c.5.2.23.26.22.37-.06.53-.16,1.06-.24,1.58a4,4,0,0,0-.12,1c0,.09.08.2,0,.27Z"/>
        <path class="cls-2" d="M59.42,25a.66.66,0,0,0-.12-.17c-1.33-1.59-2.41-3.38-3.84-4.89a9,9,0,0,0-2.41-2.1A10.48,10.48,0,0,0,50.39,17l-4.43-1a11.79,11.79,0,0,0-3.62-.45,10.12,10.12,0,0,0-3.14.94c-2,.85-4,1.79-6,2.68-.76.34,2.59,3.49,2.84,3.72l4.51,4.37a5.51,5.51,0,0,0,1.22,1,6.35,6.35,0,0,0,1.85.52l4.37.74a7.14,7.14,0,0,0,1.45.15,6.37,6.37,0,0,0,1.75-.4L56,27.58a19.67,19.67,0,0,0,2.42-.82C59,26.46,59.76,25.7,59.42,25Z"/>
        <path class="cls-2" d="M50.1,64.45,42.49,67.7a3.74,3.74,0,0,1-1.06.33,4.48,4.48,0,0,1-1.31-.09L36.9,67.4a9.39,9.39,0,0,1-2.42-.64,7.7,7.7,0,0,1-1.31-.84,39.46,39.46,0,0,1-5.79-5.35l-1.24-1.29A38.82,38.82,0,0,1,33.79,55a7.66,7.66,0,0,1,2.29-.66,9,9,0,0,1,2.57.29l4,.84a5.86,5.86,0,0,1,1.87.6,5.12,5.12,0,0,1,1,.92l6.16,6.56Z"/>
        <path class="cls-2" d="M69.55,32.78l4.9-1.84a11.88,11.88,0,0,1,1.77-.61,5.48,5.48,0,0,1,1.51.13l2.25.37a13.29,13.29,0,0,1,3.19.78,7.7,7.7,0,0,1,1.31.84,38.43,38.43,0,0,1,5.79,5.35l.39.39a1,1,0,0,1-.14,1.6,39.1,39.1,0,0,1-6.66,3.63,7.51,7.51,0,0,1-2.28.66A9,9,0,0,1,79,43.79L75,43a5.71,5.71,0,0,1-1.87-.61,5,5,0,0,1-1-.91l-5.78-6.14a.45.45,0,0,1,.11-.7Z"/>
        <path class="cls-2" d="M23.56,72.65,32.25,69a3.6,3.6,0,0,1,1-.3,4.08,4.08,0,0,1,1.2.12l4.27.87a7.45,7.45,0,0,1,2.35.76,6.78,6.78,0,0,1,1,.82l5.69,5.27a1.28,1.28,0,0,1,.51.75c0,.5-.65.76-1.21.92a25.43,25.43,0,0,0-6.65,2.87,2.49,2.49,0,0,1-.92.42,3,3,0,0,1-1-.06l-4.95-.84A12.14,12.14,0,0,1,31,79.94a11,11,0,0,1-3.13-2.24l-4.27-3.9Z"/>
        <path class="cls-2" d="M45.17,92.7c-2,1.81-5,2.58-7.89,3.28a6.71,6.71,0,0,1-1.49.23A6.36,6.36,0,0,1,34.23,96l-4.89-1.2a3.27,3.27,0,0,1-1.07-.39,3.59,3.59,0,0,1-.92-1.17c-1.12-1.76-3.36-2.83-4.94-4.34a1.93,1.93,0,0,1-.78-1.44c.07-.62.77-1,1.4-1.31l6.09-3,.7-.6c1.95.12,3.89.35,5.83.66a7.93,7.93,0,0,1,2.42.69,7.34,7.34,0,0,1,1.57,1.24l6.7,6.42Z"/>
        <path class="cls-1" d="M39,49.05a1.5,1.5,0,0,1,0,.3l-.31,1s0,0,0,.06h0c-.06.21-.14.42-.19.63a3.23,3.23,0,0,1-.57,1.42c-.05.07-.08.2-.75,0s-1.06-.34-1-.47a1.81,1.81,0,0,0,.35-1,5.37,5.37,0,0,1,.25-1.45c.08-.44.23-.85.3-1.29s0-.85.13-1.25a6.86,6.86,0,0,1,.5-1c0-.08.1-.15-.13-.3h0c.32,0-.21-.28.25-.24h0s.07,0,0-.09.17-.14.91.11a4.29,4.29,0,0,1,.48.17h0c.48.23.21.28.19.39-.08.54-.21,1.06-.32,1.59a3.94,3.94,0,0,0-.17,1c0,.09.07.2,0,.28Z"/>
        <path class="cls-1" d="M46.13,50.44a1.4,1.4,0,0,1,0,.29c-.09.35-.2.7-.3,1.05,0,0,0,0,.05.07h0c-.06.21-.13.42-.18.64a3.26,3.26,0,0,1-.54,1.43c0,.07-.08.2-.74,0s-1.07-.34-1-.47a1.88,1.88,0,0,0,.33-1A5,5,0,0,1,44,51.09c.07-.44.2-.85.27-1.29s0-.84.1-1.24a7.94,7.94,0,0,1,.48-1c0-.08.09-.16-.14-.29h0c.32,0-.21-.27.25-.26h0S45,47,45,47s.17-.15.91.07a3.61,3.61,0,0,1,.49.15h0c.49.21.21.27.2.38-.07.54-.19,1.07-.29,1.6a4.1,4.1,0,0,0-.16,1c0,.09.08.2,0,.28Z"/>
        <path class="cls-1" d="M71.36,55.68a1.4,1.4,0,0,1,0,.29l-.31,1s0,.05,0,.07h0c-.06.21-.14.41-.19.63a3.28,3.28,0,0,1-.57,1.42c0,.07-.09.2-.75,0s-1.06-.35-1-.48c.14-.31.39-.6.35-.95a5.37,5.37,0,0,1,.25-1.45c.08-.43.22-.85.3-1.29a10.22,10.22,0,0,1,.13-1.24,6.46,6.46,0,0,1,.5-1c0-.07.09-.15-.14-.29h0c.32,0-.21-.27.25-.24h0s.08-.05.06-.09.17-.14.91.12a2.22,2.22,0,0,1,.48.17h0c.48.24.21.29.19.39-.08.54-.21,1.06-.32,1.59a4.58,4.58,0,0,0-.18,1c0,.09.08.21,0,.28Z"/>
        <path class="cls-1" d="M78.53,57.06a1,1,0,0,1,0,.3c-.09.35-.19.7-.29,1,0,0,0,0,.05.06h0c-.06.22-.14.42-.18.64a3.3,3.3,0,0,1-.54,1.44c0,.07-.09.2-.75,0s-1.06-.35-1-.48a1.87,1.87,0,0,0,.33-1,5,5,0,0,1,.22-1.45c.07-.43.2-.85.26-1.28s0-.84.11-1.24a8.06,8.06,0,0,1,.48-1c0-.08.09-.15-.14-.29h0c.32,0-.21-.27.25-.25h0s.07-.05.06-.09.17-.15.91.08a3.61,3.61,0,0,1,.49.15h0c.49.22.21.28.2.39-.08.53-.19,1.06-.29,1.59a4.18,4.18,0,0,0-.16,1c0,.09.08.21,0,.28Z"/>
        <path class="cls-1" d="M101.28,107.5a1.29,1.29,0,0,1,0-.34l.35-1.2s0,0,0-.07h0c.07-.24.16-.48.21-.73a4.49,4.49,0,0,1,.62-1.65c0-.08.09-.23.75-.07s1.07.35,1,.49a2.63,2.63,0,0,0-.38,1.1,6.56,6.56,0,0,1-.29,1.66c-.09.5-.25,1-.33,1.48s0,1-.17,1.42a9.74,9.74,0,0,1-.54,1.13c0,.09-.09.18.13.33h0c-.32,0,.2.3-.26.29h0s-.08.06-.06.11-.18.17-.92-.08a2.22,2.22,0,0,1-.48-.17h0c-.48-.24-.21-.31-.19-.44.1-.61.25-1.21.38-1.82a6,6,0,0,0,.2-1.12c0-.11-.07-.24,0-.32Z"/>
        <path class="cls-1" d="M94.1,106.13a1.79,1.79,0,0,1,0-.33c.1-.41.22-.81.33-1.21,0,0,0,0,0-.08h0c.07-.24.15-.48.2-.73a4.3,4.3,0,0,1,.59-1.66c0-.08.09-.23.75-.08s1.06.36,1,.51a2.35,2.35,0,0,0-.36,1.1,6.13,6.13,0,0,1-.27,1.66c-.08.5-.23,1-.3,1.47s0,1-.14,1.42a8.92,8.92,0,0,1-.52,1.14c0,.09-.09.18.14.32h0c-.33,0,.21.3-.26.3h0s-.08.06-.06.1-.18.18-.92,0a2.56,2.56,0,0,1-.49-.16h0c-.48-.23-.2-.31-.19-.43.09-.62.23-1.22.34-1.84a5.23,5.23,0,0,0,.19-1.13c0-.1-.08-.23,0-.32Z"/>
        <path class="cls-1" d="M78.39,25.58a1.43,1.43,0,0,1,0,.29c-.07.36-.16.71-.23,1.06,0,0,0,.05,0,.07h0c0,.21-.12.42-.15.64a3.38,3.38,0,0,1-.46,1.45c0,.07-.07.2-.74.08s-1.09-.29-1-.42a1.82,1.82,0,0,0,.29-1,5,5,0,0,1,.14-1.45c0-.44.16-.86.2-1.29a10.22,10.22,0,0,1,0-1.24,7.8,7.8,0,0,1,.43-1c0-.08.08-.16-.16-.28h0c.33,0-.22-.25.24-.26h0s.07-.06.05-.09.16-.16.92,0a3.52,3.52,0,0,1,.49.12h0c.5.19.23.27.22.38,0,.53-.13,1.06-.2,1.6a4,4,0,0,0-.1,1c0,.1.09.2,0,.28Z"/>
        <path class="cls-1" d="M85.16,27a1.22,1.22,0,0,1,0,.27c-.07.33-.16.66-.24,1,0,0,0,0,0,.06h0c0,.2-.12.4-.15.6a3,3,0,0,1-.48,1.34c0,.07-.07.19-.74,0s-1.08-.31-1-.43c.12-.29.34-.56.28-.89A4.35,4.35,0,0,1,83,27.64c0-.4.16-.79.21-1.19a11.14,11.14,0,0,1,0-1.16,6.91,6.91,0,0,1,.44-.91c0-.08.08-.15-.16-.27h0c.32,0-.23-.25.24-.24h0s.07-.05,0-.08.16-.14.91.06a3.08,3.08,0,0,1,.49.13h0c.5.2.23.26.22.36,0,.5-.14,1-.22,1.49a3.51,3.51,0,0,0-.11.92c0,.08.09.19,0,.26Z"/>
        <path class="cls-2" d="M58.86,65.34A14.33,14.33,0,0,0,64,63.24a9.09,9.09,0,0,1,3.36-1.83,8.93,8.93,0,0,1,3.2.22l4.78.93a6.61,6.61,0,0,1,1.45.39,6,6,0,0,1,1.37.94l6.06,5c.39.33.82.76.66,1.17a1.21,1.21,0,0,1-.45.45l-6.3,4.31a3.25,3.25,0,0,1-1.36.65,4.07,4.07,0,0,1-1.34-.08L71,74.67a11.82,11.82,0,0,1-2.28-.54,10.82,10.82,0,0,1-2.59-1.58l-6.67-5Z"/>
        <path class="cls-2" d="M67.19,75.81c2.52.78,5.4.63,7.61,1.94a12,12,0,0,1,1.4,1l2,1.65a18.38,18.38,0,0,1,3.11,3c.19.27.38.57.29.85s-.43.45-.74.59l-7.53,3.29-1.41,1L65.1,87.71a3.58,3.58,0,0,1-1.21-.39,3.26,3.26,0,0,1-.69-.59l-6.11-6.35c-.38-.39-.78-.87-.64-1.32a1.37,1.37,0,0,1,.62-.64,22,22,0,0,1,8.36-3.23Z"/>
        <path class="cls-2" d="M60.28,90.19a26.17,26.17,0,0,1-5.63,3.1,1.69,1.69,0,0,0-.89.59c-.26.51.24,1.09.7,1.53l4.85,4.64,2,1.76,7.15,1.4a8.79,8.79,0,0,0,3.41.23,7.12,7.12,0,0,0,2.57-1.27l3.77-2.59c.33-.22.68-.51.58-.87a1.05,1.05,0,0,0-.27-.4l-2.71-3a17.86,17.86,0,0,0-3.2-3c-2.68-1.8-6.2-2.28-9.51-2.69Z"/>
        <path class="cls-2" d="M107.29,99l6.36-3.82a.5.5,0,0,0,.21-.17c.11-.17,0-.39-.1-.57-1.44-2.35-4.35-3.85-6.55-5.78a5.61,5.61,0,0,0-1.27-.93,5.13,5.13,0,0,0-1.16-.33l-4.9-1L98,86.16a21.06,21.06,0,0,0-9.81,4.66.88.88,0,0,0-.34.48c0,.3.26.56.53.78l6.26,5.13a5.39,5.39,0,0,0,1.19.8,6,6,0,0,0,1.14.34l7.73,1.76Z"/>
        <path class="cls-2" d="M107.35,85.58c-3.37-.38-6.95-.82-9.68-2.64A18.54,18.54,0,0,1,95,80.63c-1.15-1.14-4.48-2.83-3.66-4.56,1-2,5.81-2.34,7.88-3.2a4.59,4.59,0,0,1,1.57-.45,5.44,5.44,0,0,1,1.49.19l4.35,1a6.92,6.92,0,0,1,1.62.5,6.62,6.62,0,0,1,1.4,1l5.78,5.19c.33.29.68.69.49,1a1.05,1.05,0,0,1-.58.36,21.69,21.69,0,0,0-6.41,3.61Z"/>
        <path class="cls-2" d="M110.21,60.49l-7.86-1.6a2.66,2.66,0,0,0-1.15-.07,2,2,0,0,0-.94.62A17.67,17.67,0,0,1,94.5,63c-.19.08-.42.21-.36.39a.39.39,0,0,0,.16.18l7.09,5.89a4.14,4.14,0,0,0,.8.57,5.07,5.07,0,0,0,1.35.36l4.08.68,2.25.55c1.14-.6,2.69-.53,3.88-1.06a9.54,9.54,0,0,0,1.28-.75,12.28,12.28,0,0,1,3.59-1.47c.42-.1.9-.22,1.06-.56s-.16-.82-.48-1.16a80.1,80.1,0,0,0-5.94-5.85Z"/>
        <path class="cls-1" d="M108.62,45a1.71,1.71,0,0,1,0,.32l-.28,1.16s0,0,0,.07h0a5.44,5.44,0,0,0-.15.7,4.83,4.83,0,0,1-.37,1.61c0,.08-.05.22-.73.2s-1.11-.16-1.07-.32a3.12,3.12,0,0,0,.21-1.19,5.84,5.84,0,0,1,.16-1.72c.06-.51.21-1,.3-1.51a10.34,10.34,0,0,1,.21-1.45,7.44,7.44,0,0,1,.64-1.13c0-.08.13-.17-.08-.35h0c.33,0-.15-.34.32-.26h0s.09-.06.08-.1c0-.21.21-.15.89.23a3.06,3.06,0,0,1,.45.24h0c.43.32.15.33.11.44-.17.55-.35,1.11-.5,1.69a4.33,4.33,0,0,0-.22,1.07c0,.1.08.22,0,.31Z"/>
        <path class="cls-1" d="M115.24,46.37a1.76,1.76,0,0,1,0,.33l-.38,1.13s0,.05,0,.07h0a6.14,6.14,0,0,0-.2.66,5,5,0,0,1-.39,1.43c0,.07,0,.19-.71.23s-1.12,0-1.1-.25a5.26,5.26,0,0,0,.23-1.25A5,5,0,0,1,113,47c.11-.49.29-1,.39-1.42s.07-.92.17-1.32.34-.67.45-1c0-.08.07-.16-.18-.25h0c.32-.07-.25-.2.2-.27h0s.06,0,0-.08.13-.18.91-.16a2.71,2.71,0,0,1,.51,0h0c.52.11.27.29.28.43a8.21,8.21,0,0,1-.25,2,7.33,7.33,0,0,0-.24,1.13c0,.11.06.23,0,.31Z"/>
        <path class="cls-2" d="M101.87,30.45l4-1.57a8.32,8.32,0,0,1,2.44-.67,9.37,9.37,0,0,1,2.57.27l9.07,1.8a1.78,1.78,0,0,1,.45.13,1.56,1.56,0,0,1,.55.5,37.08,37.08,0,0,0,4.37,4.6l0,1.09c-2.41,2.48-6.95,2.69-10.15,4.47a1.44,1.44,0,0,1-.58.21,1.76,1.76,0,0,1-.4-.07l-5.59-1.53a3.79,3.79,0,0,1-1-.39,3.48,3.48,0,0,1-.78-.75,63.76,63.76,0,0,0-6.27-6.47.72.72,0,0,1,.27-1.24A5,5,0,0,0,101.87,30.45Z"/>
      </g>
    </g>
  </g>
</svg>
