<?xml version="1.0" encoding="utf-8"?>
<!-- Generator: Adobe Illustrator 25.2.3, SVG Export Plug-In . SVG Version: 6.00 Build 0)  -->
<svg version="1.1" id="Layer_1" xmlns="http://www.w3.org/2000/svg" xmlns:xlink="http://www.w3.org/1999/xlink" x="0px" y="0px"
	 viewBox="0 0 110.7 87.4" style="enable-background:new 0 0 110.7 87.4;" xml:space="preserve">
<style type="text/css">
	.st0{fill:#231F20;}
	.st1{fill:#FFFFFF;}
</style>
<g id="Layer_2_1_">
	<g id="Layer_1-2">
		<path class="st0" d="M0.1,46.5c0-0.9-0.1-1.8-0.1-2.7c0-3.4,0-6.8,0-10.2c0-0.2,0-0.4,0-0.6l0,0c0-2,0-4.1,0-6.1
			c0-4.8,0-9.5,0.2-14.3c0-0.7,0-2,0.7-2S2,11.4,2,12.7c0,3.2-0.2,6.3-0.1,9.4C2.1,26.7,2,31.3,2,35.9c0,4.1,0,8.2,0,12.3
			c0,3.8,0.2,7.7,0.2,11.6c0,3.3-0.2,6.6-0.2,10c-0.1,0.8,0,1.6,0.2,2.3l0,0c-0.3,0.9,0.3,2-0.2,2.8l0,0c0,0.3,0,0.6,0,0.9
			c0.1,1.4-0.1,1.7-0.9,1.3c-0.2-0.1-0.4,0-0.5-0.3l0,0l0,0c-0.5-0.9-0.3-2.1-0.3-3.1c0-5.1-0.1-10.2-0.1-15.2c0-3.1,0-6.2-0.1-9.3
			C0.2,48.3,0,47.4,0.1,46.5L0.1,46.5z"/>
		<path class="st0" d="M110.6,36.4c0,1,0.1,2,0.1,3.1V51c0,0.2,0,0.4,0,0.6l0,0v7c0,5.4,0,10.8-0.2,16.2c0,0.8,0,2.3-0.7,2.2
			s-1.1-1-1.1-2.4c0.1-3.6,0.2-7.1,0.1-10.7c-0.2-5.2-0.1-10.3-0.1-15.5V34.5c0-4.4-0.2-8.7-0.2-13.1v-2.8c0-1,0.1-1.9,0.2-2.9
			c0.3-1.8,0.4-3.6,0.2-5.4c0-0.7-0.4-1.4-1.1-1.8l0,0c-0.3-0.8-1.8-1-2.3-2l0,0c-0.3-0.2-0.5-0.4-0.8-0.6c-1.3-0.8-1.5-1.3-0.6-1.6
			c0.2-0.1,0.2-0.3,0.6-0.2l0,0c1.2,0.2,2,1.2,3,1.8c0.7,0.4,1.3,1,1.8,1.6c0.5,0.7,0.8,1.5,1,2.3c0.3,1.5,0.3,3,0.2,4.5l-0.2,2.1
			c0,0.3,0,0.7,0,1v1.1v4.3c0,3.5,0,7,0.1,10.6C110.5,34.5,110.6,35.4,110.6,36.4L110.6,36.4z"/>
		<path class="st0" d="M59.7,87.2c-1.6,0-3.1,0.1-4.7,0.1H37.2c-0.3,0-0.6,0-0.9,0.1l0,0H25.5c-2.1,0-4.2,0-6.2,0s-4.1,0.2-6.3,0.1
			c-2.2,0-4.4-0.3-6.4-0.9c-1.1-0.4-2.1-0.9-3-1.6c-0.2-0.2-0.5-0.4-0.7-0.6l-0.6-0.7c-0.4-0.4-0.7-0.9-1-1.4
			c-0.4-0.7-0.7-1.5-0.9-2.3c-0.1-0.8,0-1.4,0.4-1.4c0.7,0,1.1,1.3,2.2,3c1.3,2.1,3.7,3.2,6.3,3.7c2.7,0.4,5.3,0.4,8,0.2
			c2-0.1,4-0.2,6-0.2h6h11.9h21.4c6.7,0,13.4-0.2,20.1-0.2c2.9,0,5.8,0,8.7,0.1s5.8,0.4,8.7,0.4c1.3,0.1,2.6-0.1,3.8-0.6l0,0
			c0.7,0,1.4-0.3,2-0.7c0.6-0.4,0.9-0.8,1.5-1.3l0,0c0.3-0.4,0.5-0.8,0.7-1.3c0.2-0.7,0.4-1.4,0.8-2.1c0.2-0.3,0.5-0.2,0.7,0.3
			c0.1,0.2,0.4,0.1,0.3,0.7l0,0l0,0c-0.1,2-1.1,3.9-2.8,5c-1,0.6-2.2,1.1-3.4,1.3c-1.1,0.2-2.3,0.3-3.4,0.3
			c-2.3,0.1-4.5-0.1-6.7-0.2c-4.4,0-8.8,0-13.2,0c-5.4,0-10.9,0-16.3,0.1C62.7,87.2,61.2,87.3,59.7,87.2L59.7,87.2z"/>
		<path class="st0" d="M51.7,6.6c1.2,0,2.5-0.1,3.7-0.1c4.7,0,9.3,0,14,0c0.2,0,0.5,0,0.7-0.1l0,0c2.8,0,5.6,0,8.5,0
			c6.5,0,13,0,19.6,0.2c1,0,2.7,0,2.7,0.7s-1.2,1.1-3,1.1C93.6,8.4,89.2,8.3,85,8.4c-6.2,0.2-12.5,0.1-18.7,0.1
			c-5.6,0-11.2,0-16.8,0c-5.3,0-10.5,0.2-15.8,0.2c-4.5,0-9.1-0.2-13.6-0.2c-1.1-0.1-2.2,0-3.2,0.2l0,0c-1.2-0.3-2.7,0.3-3.9-0.2
			l0,0c-0.4,0-0.8-0.1-1.2,0C9.8,8.6,9.3,8.3,9.9,7.6c0.1-0.2,0-0.4,0.4-0.5l0,0l0,0c1.3-0.5,2.8-0.3,4.2-0.3
			c6.9,0,13.9-0.1,20.8-0.1c4.3,0,8.5,0,12.8-0.1C49.4,6.6,50.5,6.5,51.7,6.6L51.7,6.6z"/>
		<path class="st0" d="M57.5,79.1c1.2,0,2.3-0.1,3.5-0.1h13.1c0.2,0,0.4,0,0.7-0.1l0,0h7.9h9.2h2.3h0.3c0.1,0,0,0,0,0l0,0l0,0l0,0
			c0.1-0.1,0.1-0.1,0.2-0.1c0.1,0,0.2,0,0.3,0h0.3c0.8,0,1.6,0,2.3,0c0.7,0,1.3,0,2-0.1c0.2-0.1,0.4-0.2,0.6-0.5
			c0.1-0.2,0.2-0.4,0.5-0.6c0.2-0.1,0.4-0.1,0.5,0c0.3,0.2,0.4,0.4,0.4,0.7c0.1,0.4,0,0.9-0.3,1.3c-0.3,0.5-0.8,0.8-1.4,0.9
			c-0.6,0.1-1.1,0.1-1.7,0.1h-1.5c-0.5,0-1,0-1.5,0H95v0c0-0.1,0-0.2-0.1-0.3v-0.1v-0.1l0,0c0.4,1.2,0.1,0.3,0.2,0.6l0.1,0.1l0,0
			h0.1c0.2,0,0.3-0.1,0.5-0.2h0.1l-0.1,0.1c-0.1,0-0.2,0.1-0.3,0.1c-0.2,0-0.4,0.1-0.6,0.1h-3.3c-1,0-2,0-3,0
			c-5.8,0.2-11.7,0.1-17.5,0.1H55.4c-4.9,0-9.9,0.2-14.8,0.2c-4.3,0-8.5-0.2-12.8-0.2c-1-0.1-2,0-3,0.2l0,0
			c-1.1-0.3-2.5,0.3-3.6-0.2l0,0c-0.4,0-0.8,0-1.2,0c-1.8,0.1-2.2-0.1-1.6-0.9c0.1-0.2,0-0.4,0.4-0.5l0,0l0,0c1.2-0.5,2.6-0.3,4-0.3
			l19.5-0.1c4,0,8,0,12-0.1C55.4,79.2,56.5,79.1,57.5,79.1L57.5,79.1z"/>
		<path class="st0" d="M79.2,27c0.5,0,1.1-0.1,1.6-0.1L87,27c0.1,0,0.2,0,0.3-0.1l0,0c1.2,0,2.5,0,3.7,0c2.9,0,5.8,0,8.6,0.2
			c0.4,0,1.2,0,1.2,0.7c0,0.6-0.4,1.1-1,1.2c-0.1,0-0.2,0-0.3,0c-1.9-0.1-3.8-0.2-5.7-0.1c-2.8,0.2-5.5,0.1-8.3,0.1
			c-2.5,0-4.9,0-7.4,0s-4.6,0.2-7,0.2c-2,0-4-0.2-6-0.2c-0.5-0.1-1,0-1.4,0.2l0,0c-0.5-0.3-1.2,0.3-1.7-0.2l0,0c-0.2,0-0.4,0-0.5,0
			c-0.8,0.1-1-0.1-0.8-0.9c0.1-0.2,0-0.4,0.2-0.5l0,0c0.6-0.5,1.2-0.3,1.9-0.3c3.1-0.1,6.1-0.1,9.2-0.1c1.9,0,3.8,0,5.6-0.1
			C78.1,27,78.7,27,79.2,27L79.2,27z"/>
		<path class="st0" d="M27.3,27c0.5,0,1-0.1,1.5-0.1h5.8c0.1,0,0.2,0,0.3-0.1l0,0c1.2,0,2.3,0,3.5,0c2.7,0,5.5,0,8.2,0.2
			c0.4,0,1.2,0,1.1,0.7c0.1,0.6-0.3,1.1-0.9,1.2c-0.1,0-0.2,0-0.3,0c-1.8-0.1-3.6-0.2-5.4-0.1C38.6,29.1,36,29,33.3,29
			c-2.4,0-4.7,0-7,0c-2.2,0-4.4,0.2-6.6,0.2c-1.9,0-3.8-0.2-5.7-0.2c-0.5-0.1-0.9,0-1.4,0.2l0,0c-0.5-0.3-1.1,0.3-1.6-0.2l0,0
			c-0.2,0-0.4,0-0.5,0c-0.8,0.1-1-0.1-0.7-0.9c0-0.2,0-0.4,0.2-0.5l0,0c0.5-0.5,1.2-0.3,1.8-0.3c2.9-0.1,5.8-0.1,8.7-0.1
			c1.8,0,3.6,0,5.3-0.1C26.3,27,26.8,27,27.3,27L27.3,27z"/>
		<path class="st0" d="M51.9,32.5c1.2,0,2.5-0.1,3.7-0.1h14.1c0.2,0,0.5,0,0.7,0l0,0c2.8,0,5.7,0,8.5,0c6.6,0,13.1,0,19.7,0.2
			c1,0,2.8,0,2.7,0.7s-1.2,1.1-3,1.1c-4.3-0.1-8.7-0.2-12.9-0.1c-6.3,0.2-12.6,0.1-18.8,0.1c-5.6,0-11.3,0-16.9,0
			c-5.3,0-10.6,0.2-15.9,0.2c-4.6,0-9.1-0.2-13.7-0.2c-1.1-0.1-2.2,0-3.2,0.2l0,0c-1.2-0.3-2.7,0.3-3.9-0.2l0,0
			c-0.4,0-0.9-0.1-1.3,0c-1.9,0.1-2.4-0.1-1.7-0.9c0.1-0.2,0-0.4,0.4-0.5l0,0c1.3-0.5,2.8-0.3,4.3-0.3c7-0.1,14-0.1,20.9-0.1
			c4.3,0,8.6,0,12.8-0.1C49.6,32.5,50.7,32.3,51.9,32.5L51.9,32.5z"/>
		<path class="st0" d="M102.1,18.4c0,0.2,0.1,0.4,0.1,0.6c0,0.7,0,1.5,0,2.2c0,0,0,0.1,0.1,0.1l0,0c0,0.4,0,0.9,0,1.3
			c0.1,1,0,2.1-0.2,3.1c0,0.2,0,0.4-0.7,0.4s-1.1-0.2-1.1-0.5c0.1-0.7,0.2-1.4,0.1-2c-0.1-1-0.2-2-0.1-3c0-0.9,0-1.8,0-2.7
			s-0.2-1.7-0.2-2.5s0.2-1.4,0.2-2.2c0.1-0.2,0-0.4-0.2-0.5l0,0c0.3-0.2-0.3-0.4,0.2-0.6c0-0.1,0.1-0.1,0-0.2
			c-0.1-0.3,0.1-0.4,0.9-0.3c0.2,0,0.3,0,0.5,0.1l0,0c0.5,0.2,0.3,0.4,0.3,0.7c0,1.1,0.1,2.2,0.1,3.3c0,0.7,0,1.3,0.1,2
			C102.1,18,102.3,18.2,102.1,18.4L102.1,18.4z"/>
		<path class="st0" d="M9.4,18.5c0,0.2,0.1,0.4,0.1,0.6c0,0.8,0,1.5,0,2.2c0,0,0,0.1,0.1,0.1l0,0c0,0.5,0,0.9,0,1.4
			c0,1-0.1,2.1-0.3,3.1c0,0.2,0,0.4-0.7,0.4S7.4,26.3,7.4,26c0.1-0.7,0.2-1.4,0.1-2.1c-0.1-1-0.1-2-0.1-3c0-0.9,0-1.8,0-2.7
			s-0.2-1.7-0.2-2.5s0.2-1.5,0.2-2.2c0.1-0.2,0-0.4-0.2-0.5l0,0c0.3-0.2-0.3-0.4,0.2-0.6l0,0c0-0.1,0.1-0.1,0-0.2
			c-0.1-0.3,0.1-0.4,0.9-0.3c0.2,0,0.4,0,0.5,0.1l0,0c0.5,0.2,0.3,0.4,0.3,0.7c0.1,1.1,0.1,2.2,0.1,3.4c0,0.7,0,1.4,0.1,2
			C9.3,18.2,9.4,18.4,9.4,18.5L9.4,18.5z"/>
		<path class="st0" d="M102.1,53.7c0,0.5,0.1,1.1,0.1,1.6c0,2.1,0,4.1,0,6.2c0,0.1,0,0.2,0.1,0.3l0,0c0,1.2,0,2.5,0,3.8
			c0,2.9,0,5.8-0.2,8.7c0,0.5,0,1.2-0.7,1.2c-0.6,0-1.1-0.5-1.1-1.1c0-0.1,0-0.1,0-0.2c0.1-1.9,0.2-3.8,0.1-5.7
			c-0.2-2.8-0.1-5.5-0.1-8.3c0-2.5,0-5,0-7.5c0-2.3-0.2-4.7-0.2-7c0-2,0.2-4,0.2-6c0.1-0.5,0-1-0.3-1.5l0,0c0.3-0.5-0.3-1.2,0.2-1.7
			l0,0c0-0.2,0-0.4,0-0.5c-0.1-0.8,0.1-1,0.9-0.8c0.2,0.1,0.4,0,0.5,0.2l0,0c0.5,0.6,0.3,1.2,0.3,1.9c0,3.1,0,6.2,0.1,9.2
			c0,1.9,0,3.8,0.1,5.7C102.1,52.6,102.1,53.2,102.1,53.7L102.1,53.7z"/>
		<path class="st0" d="M9.4,59.2c0,0.7,0.1,1.4,0.1,2.1v8c0,0.1,0,0.3,0.1,0.4l0,0v4.9v1.4c0,0.6,0,1-0.1,1.5c0,0.3,0,0.7,0.1,1
			c0.1,0.2,0.1,0.2,0.3,0.3c0.3,0.1,0.7,0.2,1,0.2h1.4c0.9,0,1.9,0.1,2.8,0.1c0.6,0,1.6,0,1.6,0.7s-0.7,1.1-1.7,1.1L11,81
			c-0.7,0-1.4-0.1-2.1-0.4c-0.4-0.2-0.8-0.5-1-0.9c-0.2-0.4-0.3-0.8-0.4-1.2c0-3.6,0-7.2,0-10.8V58c0-3-0.2-6.1-0.2-9.1
			c0-2.6,0.2-5.2,0.2-7.8c0.1-0.6,0-1.3-0.2-1.9l0,0c0.3-0.7-0.3-1.5,0.2-2.2l0,0c0-0.2,0-0.5,0-0.7c-0.1-1.1,0.1-1.4,0.9-1
			c0.2,0.1,0.4,0,0.5,0.2l0,0l0,0c0.5,0.7,0.3,1.6,0.3,2.4l0.1,12c0,2.5,0,4.9,0.1,7.3C9.5,57.9,9.5,58.6,9.4,59.2L9.4,59.2z"/>
		<path class="st0" d="M22.8,25.6c0-0.1-0.1-0.1-0.1-0.2c0-0.3,0-0.5,0-0.8c0,0,0,0-0.1,0l0,0c0-0.2,0-0.3,0-0.5
			c-0.1-0.4,0-0.8,0.2-1.1c0-0.1,0-0.2,0.7-0.2s1.1,0.1,1.1,0.2s-0.2,0.5-0.1,0.8c0.1,0.3,0.2,0.7,0.1,1.1c0,0.3,0,0.6,0,1
			c0.1,0.3,0.1,0.6,0.2,0.9c-0.1,0.3-0.1,0.5-0.2,0.8c0,0.1,0,0.1,0.2,0.2l0,0c-0.3,0.1,0.3,0.2-0.2,0.2l0,0c0,0,0,0,0,0.1
			s-0.1,0.1-0.9,0.1c-0.2,0-0.3,0-0.5,0l0,0C22.7,28.1,23,28,23,27.9c0-0.4-0.1-0.8-0.1-1.2c0-0.2,0-0.5-0.1-0.7
			c0-0.1-0.1-0.1-0.1-0.2L22.8,25.6z"/>
		<path class="st0" d="M30.6,25c0,0.1,0.1,0.2,0.1,0.2c0,0.3,0,0.6,0,0.9c0,0,0,0,0,0l0,0c0,0.2,0,0.4,0,0.5c0.1,0.4,0,0.8-0.2,1.2
			c0,0.1,0,0.2-0.7,0.2s-1.1-0.1-1.1-0.2c0.1-0.3,0.2-0.5,0.1-0.8c-0.1-0.4-0.1-0.8-0.1-1.2c0-0.4,0-0.7,0-1c-0.1-0.3-0.1-0.7-0.2-1
			c0.1-0.3,0.1-0.6,0.2-0.8c0-0.1,0-0.1-0.2-0.2l0,0c0.3-0.1-0.3-0.2,0.2-0.2c0,0,0.1,0,0-0.1s0.1-0.1,0.9-0.1c0.2,0,0.4,0,0.5,0
			l0,0c0.5,0.1,0.3,0.2,0.3,0.3c0.1,0.4,0.1,0.9,0.1,1.3c0,0.3,0,0.5,0.1,0.8C30.6,24.8,30.8,24.8,30.6,25L30.6,25z"/>
		<path class="st1" d="M36.8,15.8l-0.1-0.1c-1.3-1-2.5-2.3-3.9-3.3c-0.7-0.6-1.4-1-2.3-1.3c-0.7-0.2-1.5-0.3-2.3-0.2l-3.7-0.1
			c-1-0.1-2,0-3,0.2c-0.8,0.3-1.6,0.7-2.3,1.3c-1.5,1-2.9,2.1-4.3,3.1c-0.6,0.4,2.6,2.4,2.9,2.5l4.3,2.8c0.3,0.2,0.7,0.4,1.1,0.6
			c0.5,0.1,1,0.2,1.6,0.1l3.6-0.1c0.4,0,0.8,0,1.2-0.1c0.5-0.1,0.9-0.3,1.3-0.6l3.5-2c0.6-0.3,1.2-0.7,1.8-1
			C36.7,17,37.2,16.3,36.8,15.8z"/>
		<path class="st1" d="M35.8,48.8l-5.5,3.8c-0.2,0.2-0.5,0.3-0.8,0.4c-0.3,0.1-0.7,0.1-1.1,0.1l-2.7,0.1c-0.7,0.1-1.3,0-2-0.1
			c-0.4-0.1-0.8-0.3-1.2-0.5c-1.9-0.9-3.8-2-5.5-3.3l-1.2-0.8c1.6-1.8,3.4-3.3,5.4-4.7c0.5-0.4,1.1-0.7,1.7-0.9
			c0.7-0.2,1.4-0.2,2.1-0.2h3.4c0.5,0,1,0,1.5,0.2c0.4,0.1,0.7,0.3,1,0.6l6,4.2L35.8,48.8z"/>
		<path class="st1" d="M46.2,20.4l3.6-2.3c0.4-0.3,0.9-0.5,1.3-0.8c0.4-0.1,0.8-0.2,1.2-0.1l1.8-0.1c0.9-0.1,1.8-0.1,2.7,0.1
			c0.4,0.1,0.8,0.3,1.2,0.5c1.9,0.9,3.8,2,5.5,3.3l0.4,0.2c0.4,0.3,0.5,0.8,0.2,1.2c0,0-0.1,0.1-0.1,0.1c-1.4,1.5-3,2.8-4.7,4
			c-0.5,0.4-1.1,0.7-1.7,0.9c-0.7,0.2-1.4,0.2-2.1,0.2h-3.4c-0.5,0-1.1,0-1.6-0.2c-0.4-0.1-0.7-0.3-1-0.6l-5.6-4
			c-0.2-0.1-0.2-0.4-0.1-0.5c0,0,0,0,0.1-0.1L46.2,20.4z"/>
		<path class="st1" d="M16,59.7l6.3-4.3c0.2-0.2,0.5-0.3,0.7-0.4c0.3-0.1,0.7-0.1,1-0.1h3.5c0.7,0,1.4,0,2,0.2
			c0.4,0.1,0.7,0.3,1,0.5l5.4,3.3c0.2,0.1,0.5,0.3,0.5,0.5c0.1,0.4-0.4,0.7-0.8,0.9c-1.8,0.9-3.4,2-4.8,3.4
			c-0.2,0.2-0.4,0.4-0.7,0.5c-0.3,0.1-0.5,0.1-0.8,0.1l-4.1,0.1c-0.7,0.1-1.5,0-2.2-0.1c-1-0.2-2-0.7-2.9-1.3l-4-2.4L16,59.7z"/>
		<path class="st1" d="M36.5,72.1c-1.3,1.8-3.6,2.9-5.8,3.9c-0.4,0.2-0.8,0.3-1.1,0.4c-0.4,0.1-0.9,0.1-1.3,0l-4.1-0.2
			c-0.3,0-0.6,0-0.9-0.1c-0.4-0.2-0.7-0.5-0.9-0.8c-1.2-1.2-3.1-1.7-4.6-2.7c-0.4-0.3-0.8-0.6-0.9-1s0.4-0.9,0.9-1.3l4.4-3.4
			l0.5-0.6c1.6-0.2,3.2-0.4,4.8-0.4c0.7-0.1,1.3,0,2,0.2c0.5,0.2,1,0.4,1.5,0.7l6.4,4L36.5,72.1z"/>
		<path class="st0" d="M24.6,38.3c0,0.1,0,0.2,0.1,0.2l-0.1,0.9h0.1l0,0c0,0.2,0,0.4,0,0.5c0,0.4-0.1,0.9-0.3,1.2
			c0,0.1,0,0.2-0.7,0.2s-1.1-0.1-1.1-0.2c0.1-0.3,0.3-0.5,0.1-0.8c-0.1-0.4-0.1-0.8-0.1-1.2c0-0.4,0-0.7,0-1.1
			c-0.1-0.3-0.1-0.7-0.1-1c0.1-0.3,0.2-0.6,0.3-0.8c0-0.1,0.1-0.1-0.2-0.2l0,0c0.3-0.1-0.3-0.2,0.2-0.2l0,0c0,0,0.1,0,0-0.1
			s0.1-0.1,0.9,0c0.2,0,0.3,0,0.5,0.1l0,0c0.5,0.1,0.3,0.2,0.3,0.3c0,0.4,0,0.9,0,1.3c0,0.3,0,0.5,0,0.8
			C24.5,38.2,24.6,38.3,24.6,38.3L24.6,38.3z"/>
		<path class="st0" d="M30.6,38.3c0,0.1,0,0.2,0.1,0.2c0,0.3,0,0.6-0.1,0.9c0,0,0,0,0,0l0,0c0,0.2,0,0.4,0,0.5c0,0.4,0,0.9-0.2,1.2
			c0,0.1,0,0.2-0.7,0.2s-1.1-0.1-1.1-0.2c0.1-0.3,0.2-0.5,0.1-0.8c-0.1-0.4-0.1-0.8-0.1-1.2c0-0.3,0-0.7,0-1.1
			c-0.1-0.3-0.1-0.7-0.1-1c0.1-0.3,0.1-0.6,0.3-0.9c0-0.1,0-0.1-0.2-0.2l0,0c0.3-0.1-0.3-0.2,0.2-0.2l0,0c0,0,0.1,0,0-0.1
			s0.1-0.1,0.9-0.1c0.2,0,0.3,0,0.5,0l0,0c0.5,0.1,0.3,0.2,0.3,0.3c0,0.5,0,0.9,0,1.3c0,0.3,0,0.5,0.1,0.8
			C30.5,38,30.6,38.1,30.6,38.3L30.6,38.3z"/>
		<path class="st0" d="M51.5,38.3c0,0.1,0,0.2,0.1,0.2l-0.1,0.9h0.1l0,0c0,0.2,0,0.4,0,0.5c0,0.4-0.1,0.9-0.3,1.2
			c0,0.1,0,0.2-0.7,0.2s-1.1-0.1-1.1-0.2c0.1-0.3,0.3-0.5,0.2-0.8c-0.1-0.4-0.1-0.8-0.1-1.2c0-0.4,0-0.7,0-1.1
			c-0.1-0.3-0.1-0.7-0.1-1c0.1-0.3,0.2-0.6,0.3-0.8c0-0.1,0-0.1-0.2-0.2l0,0c0.3-0.1-0.3-0.2,0.2-0.2l0,0c0,0,0.1,0,0-0.1
			s0.1-0.1,0.9,0c0.2,0,0.3,0,0.5,0.1l0,0c0.5,0.1,0.3,0.2,0.3,0.3c0,0.4,0,0.9,0,1.3c0,0.3,0,0.5,0,0.8c0,0.1,0.1,0.2,0,0.2
			L51.5,38.3z"/>
		<path class="st0" d="M57.5,38.3c0,0.1,0,0.2,0.1,0.2c0,0.3,0,0.6-0.1,0.9c0,0,0,0,0.1,0l0,0c0,0.2,0,0.4,0,0.5
			c0,0.4,0,0.9-0.2,1.2c0,0.1,0,0.2-0.7,0.2s-1.1-0.1-1.1-0.2c0.1-0.3,0.2-0.5,0.1-0.8c-0.1-0.4-0.1-0.8-0.1-1.2c0-0.3,0-0.7,0-1.1
			c-0.1-0.3-0.1-0.7-0.2-1c0.1-0.3,0.2-0.6,0.3-0.9c0-0.1,0-0.1-0.2-0.2l0,0c0.3-0.1-0.3-0.2,0.2-0.2l0,0c0,0,0.1,0,0-0.1
			s0.1-0.1,0.9-0.1c0.2,0,0.3,0,0.5,0l0,0c0.5,0.1,0.3,0.2,0.3,0.3c0,0.5,0,0.9,0,1.3c0,0.3,0,0.5,0,0.8
			C57.4,38,57.5,38.1,57.5,38.3L57.5,38.3z"/>
		<path class="st0" d="M83.5,74.8c0-0.1,0-0.2-0.1-0.3l0.1-1c0,0,0,0-0.1-0.1l0,0c0-0.2,0-0.4,0-0.6c0-0.5,0.1-1,0.3-1.4
			c0-0.1,0.1-0.2,0.7-0.2s1.1,0.1,1.1,0.2c-0.1,0.3-0.3,0.6-0.2,0.9c0.1,0.5,0.1,0.9,0.1,1.4c0,0.4,0,0.8,0,1.2
			c0.1,0.4,0.1,0.8,0.1,1.2c-0.1,0.3-0.2,0.7-0.3,1c0,0.1-0.1,0.2,0.2,0.2l0,0c-0.3,0.1,0.3,0.2-0.2,0.3l0,0c0,0-0.1,0.1,0,0.1
			s-0.1,0.2-0.9,0.1c-0.2,0-0.3,0-0.5-0.1l0,0c-0.5-0.1-0.3-0.2-0.3-0.3c0-0.5,0-1,0-1.5c0-0.3,0-0.6,0-0.9
			C83.6,75,83.4,74.9,83.5,74.8L83.5,74.8z"/>
		<path class="st0" d="M77.5,74.8c0-0.1,0-0.2-0.1-0.3c0-0.3,0-0.7,0.1-1c0,0,0,0-0.1-0.1l0,0c0-0.2,0-0.4,0-0.6c0-0.5,0-1,0.2-1.4
			c0-0.1,0-0.2,0.7-0.2s1.1,0.1,1.1,0.2c-0.1,0.3-0.2,0.6-0.1,0.9c0.1,0.5,0.1,0.9,0.1,1.4c0,0.4,0,0.8,0,1.2
			c0.1,0.4,0.1,0.8,0.2,1.2c-0.1,0.3-0.1,0.7-0.3,1c0,0.1,0,0.2,0.2,0.2l0,0c-0.3,0.1,0.3,0.2-0.2,0.3l0,0c0,0-0.1,0.1,0,0.1
			S79.2,78,78.4,78c-0.2,0-0.3,0-0.5,0l0,0c-0.5-0.1-0.3-0.2-0.3-0.3c0-0.5,0-1,0-1.5c0-0.3,0-0.6-0.1-0.9
			C77.6,75.1,77.5,75,77.5,74.8L77.5,74.8z"/>
		<path class="st0" d="M52.2,13.2c0,0.1,0.1,0.2,0.1,0.2c0,0.3,0,0.6,0,0.9h0.1l0,0c0,0.2,0,0.4,0,0.5c0.1,0.4,0,0.9-0.2,1.2
			c0,0.1,0,0.2-0.7,0.2s-1.1,0-1.1-0.2c0.1-0.3,0.2-0.6,0.1-0.8c-0.1-0.4-0.2-0.8-0.2-1.2c0-0.4,0-0.7-0.1-1.1
			c-0.1-0.3-0.2-0.7-0.2-1c0.1-0.3,0.1-0.6,0.2-0.9c0-0.1,0-0.1-0.2-0.2l0,0c0.3-0.1-0.3-0.2,0.2-0.2c0,0,0,0,0-0.1s0.1-0.1,0.9-0.1
			c0.2,0,0.3,0,0.5,0l0,0c0.5,0.1,0.3,0.2,0.3,0.3c0.1,0.4,0.1,0.9,0.1,1.3c0,0.3,0,0.5,0.1,0.8C52.2,13,52.3,13,52.2,13.2
			L52.2,13.2z"/>
		<path class="st0" d="M57.9,13.2c0,0.1,0.1,0.1,0.1,0.2c0,0.3,0,0.6,0,0.8h0l0,0c0,0.2,0,0.3,0,0.5c0,0.4,0,0.9-0.2,1.2
			c0,0.1,0,0.2-0.7,0.2s-1.1-0.1-1.1-0.2s0.2-0.5,0.1-0.8c-0.1-0.4-0.1-0.7-0.1-1.1c0-0.3,0-0.6,0-1c-0.1-0.3-0.1-0.6-0.2-0.9
			c0.1-0.3,0.1-0.5,0.2-0.8c0-0.1,0-0.1-0.2-0.2l0,0c0.3-0.1-0.3-0.2,0.2-0.2l0,0c0,0,0.1,0,0-0.1s0.1-0.1,0.9-0.1
			c0.2,0,0.3,0,0.5,0l0,0c0.5,0.1,0.3,0.2,0.3,0.2c0.1,0.4,0.1,0.8,0.1,1.2c0,0.3,0,0.5,0.1,0.8C57.8,13.1,57.9,13.2,57.9,13.2
			L57.9,13.2z"/>
		<path class="st1" d="M43,48.1c1.4-0.6,2.7-1.4,3.8-2.5c0.6-0.8,1.5-1.5,2.4-2c0.8-0.3,1.7-0.4,2.6-0.3l4,0c0.4,0,0.8,0,1.2,0.1
			c0.4,0.1,0.9,0.3,1.2,0.5l5.6,3c0.4,0.2,0.8,0.5,0.7,0.8c-0.1,0.2-0.2,0.3-0.3,0.4L60,52.5c-0.3,0.3-0.6,0.6-1,0.7
			c-0.3,0.1-0.7,0.2-1.1,0.2l-3.7,0.1c-0.6,0-1.3,0-1.9-0.1c-0.8-0.2-1.6-0.5-2.3-0.8l-6.1-2.9L43,48.1z"/>
		<path class="st1" d="M51.3,55.1c2.1,0.2,4.4-0.4,6.4,0.3c0.5,0.2,0.9,0.4,1.3,0.6l1.9,1c1.1,0.5,2.1,1.1,3,1.9
			c0.2,0.1,0.3,0.4,0.4,0.6c0,0.2-0.3,0.4-0.5,0.6l-5.5,3.8l-1,1h-5.7c-0.3,0-0.7,0-1-0.1c-0.2-0.1-0.4-0.2-0.6-0.4L44,60.4
			c-0.4-0.2-0.8-0.6-0.7-1c0.1-0.2,0.2-0.5,0.4-0.6c1.8-1.7,3.8-3.1,6.1-3.9L51.3,55.1z"/>
		<path class="st1" d="M48.1,67.7c-1.2,1.3-2.5,2.4-4,3.4c-0.2,0.2-0.5,0.3-0.6,0.6c-0.1,0.4,0.4,0.8,0.8,1.1l4.7,2.9l1.9,1.1
			l5.9-0.1c0.9,0.1,1.9-0.1,2.8-0.4c0.7-0.4,1.3-0.8,1.8-1.4l2.6-2.7c0.2-0.2,0.4-0.5,0.3-0.8c-0.1-0.1-0.2-0.2-0.3-0.3l-2.6-1.9
			c-0.9-0.7-1.9-1.4-3-1.9c-2.4-1-5.3-0.8-8-0.6L48.1,67.7z"/>
		<path class="st1" d="M87.1,67l4.5-4c0.1,0,0.1-0.1,0.1-0.2c0.1-0.2-0.1-0.3-0.2-0.4c-1.5-1.7-4.1-2.4-6.2-3.6
			c-0.4-0.2-0.7-0.4-1.2-0.5c-0.3-0.1-0.7-0.1-1-0.1h-4.1l-1.5,0.1c-2.8,1.1-5.2,2.9-7.1,5.3c-0.1,0.1-0.2,0.3-0.2,0.4
			c0,0.2,0.3,0.4,0.5,0.5l5.8,3.1c0.3,0.2,0.7,0.3,1.1,0.4c0.3,0.1,0.7,0.1,1,0.1l6.5,0.1L87.1,67z"/>
		<path class="st1" d="M84.9,56.3c-2.8,0.2-5.7,0.5-8.2-0.5c-0.9-0.4-1.7-0.9-2.5-1.4c-1.1-0.7-4-1.5-3.7-3c0.4-1.8,4.2-2.8,5.8-3.8
			c0.3-0.3,0.7-0.5,1.2-0.6c0.4-0.1,0.8-0.1,1.2-0.1l3.6,0.1c0.5,0,0.9,0,1.4,0.1c0.5,0.1,0.9,0.3,1.3,0.6l5.5,3.2
			c0.3,0.2,0.7,0.4,0.6,0.7s-0.2,0.3-0.4,0.4c-1.7,1-3.2,2.4-4.5,3.9L84.9,56.3z"/>
		<path class="st1" d="M83.1,35.8h-6.5c-0.3,0-0.6,0-0.9,0.1c-0.3,0.2-0.5,0.4-0.7,0.7c-1.1,1.5-2.4,2.8-4,3.8
			c-0.2,0.1-0.3,0.2-0.2,0.4s0.1,0.1,0.2,0.1l6.6,3.5c0.2,0.1,0.5,0.2,0.7,0.3c0.4,0.1,0.8,0.1,1.1,0.1l3.4-0.1l1.9,0.1
			c0.8-0.7,2-0.9,2.9-1.5c0.3-0.2,0.6-0.5,0.9-0.8c0.8-0.7,1.7-1.3,2.6-1.8c0.3-0.2,0.7-0.3,0.8-0.6s-0.2-0.6-0.6-0.8
			c-1.8-1.3-3.7-2.6-5.7-3.7L83.1,35.8z"/>
		<path class="st0" d="M79.5,23.7c0,0.1,0,0.2,0.1,0.2v1c0,0,0,0,0.1,0l0,0c0,0.2,0,0.4,0,0.6c0.1,0.4,0.1,0.9-0.1,1.3
			c0,0.1,0,0.2-0.7,0.3s-1.1,0.1-1.1,0c0-0.3,0.1-0.7,0-1c-0.1-0.5-0.2-0.9-0.2-1.4c0-0.4,0-0.8,0-1.3c-0.1-0.4-0.1-0.8-0.1-1.2
			c0.1-0.3,0.2-0.7,0.4-1c0-0.1,0.1-0.2-0.2-0.3l0,0c0.3,0-0.2-0.3,0.2-0.3c0,0,0.1,0,0.1-0.1s0.2-0.1,0.9,0.1
			c0.2,0,0.3,0.1,0.5,0.1l0,0c0.5,0.2,0.2,0.2,0.2,0.3c0,0.5-0.1,0.9-0.1,1.4c-0.1,0.3-0.1,0.6,0,0.9C79.5,23.5,79.6,23.6,79.5,23.7
			L79.5,23.7z"/>
		<path class="st0" d="M85,23.8c0,0.1,0,0.2,0,0.3l-0.1,1c0,0,0,0,0.1,0l0,0c0,0.2,0,0.4,0,0.5c0,0.4,0,0.8-0.1,1.2
			c0,0.1,0,0.1-0.7,0.3s-1.1,0.2-1.1,0c0-0.4,0.1-0.7,0-1.1c-0.1-0.5-0.1-0.9,0-1.4c0-0.4,0.1-0.8,0.1-1.2s-0.1-0.7-0.1-1.1
			s0.2-0.6,0.2-0.9c0-0.1,0-0.1-0.2-0.2l0,0c0.3-0.1-0.3-0.1,0.2-0.2l0,0c0,0,0,0,0-0.1s0.1-0.2,0.9-0.3c0.2,0,0.3-0.1,0.5-0.1l0,0
			c0.5,0,0.3,0.2,0.3,0.3C85,21.5,85,22,85,22.6c0,0.3,0,0.6,0,0.9C85,23.6,85.1,23.7,85,23.8z"/>
		<path class="st1" d="M71.6,13.2l3-1.9c0.6-0.4,1.2-0.7,1.8-0.9c0.7-0.2,1.4-0.2,2.1-0.2H86c0.1,0,0.3,0,0.4,0
			c0.2,0.1,0.4,0.2,0.5,0.3c1.3,1.1,2.7,2.1,4.2,2.9l0.2,0.9c-1.5,2.4-5.1,3.3-7.4,5.2c-0.1,0.1-0.3,0.2-0.4,0.3c-0.1,0-0.2,0-0.3,0
			l-4.7-0.3c-0.3,0-0.6-0.1-0.9-0.1c-0.3-0.1-0.5-0.3-0.8-0.5c-1.9-1.5-3.9-2.9-6-4.1c-0.3-0.2-0.4-0.5-0.2-0.8
			c0-0.1,0.1-0.1,0.2-0.2C71.1,13.6,71.4,13.4,71.6,13.2z"/>
	</g>
</g>
</svg>
