<svg xmlns="http://www.w3.org/2000/svg" viewBox="0 0 111.41 126.12">
  <defs>
    <style>
      .cls-1 {
        fill: #231f20;
      }

      .cls-2 {
        fill: #643a96;
      }

      .cls-3 {
        fill: #fff;
      }
    </style>
  </defs>
  <g id="Layer_2" data-name="Layer 2">
    <g id="Layer_1-2" data-name="Layer 1">
      <g>
        <path class="cls-1" d="M12.09,73.19c-.19-.1-.39-.17-.56-.27a6.15,6.15,0,0,0-2.18-.71.65.65,0,0,0-.13,0h0c-.5-.08-1.07-.17-1.56-.21a4.44,4.44,0,0,0-2.74.5c-.11.06-.21.22-.81-.1s-.84-.83-.48-1.17a5.58,5.58,0,0,1,2.82-1.13,6,6,0,0,1,2,0c.6.06,1.21.14,1.86.25a7.71,7.71,0,0,1,3.32,1.46,13.84,13.84,0,0,1,2.47,2.12c.6.68,1,1.48,1.52,2.2a.6.6,0,0,0,.56.35h0c-.08.38.54.23.34.7h0c0,.07.06.16.13.21.32.21.19.43-.5.82-.15.09-.3.25-.45.26h0c-.56.14-.56-.25-.74-.45-.89-1-1.73-2-2.61-3a8.52,8.52,0,0,0-1.71-1.54c-.18-.11-.4-.14-.53-.31Z" transform="translate(-0.01)"/>
        <path class="cls-1" d="M18.57,100.25c.45.68.92,1.34,1.38,2,1.72,2.56,3.64,5,5.63,7.42a2.66,2.66,0,0,0,.35.32h0c1.21,1.48,2.42,2.86,3.68,4.4,1.4,1.75,2.65,3.55,4,5.21a24.94,24.94,0,0,0,2.1,2.34c.73.69,1.63,1.44,2.42,2.17.51.46,1.41,1.2,1,1.7s-1.34.34-2.25-.43L35.17,124a20,20,0,0,1-1.62-1.57c-1-1.11-1.92-2.27-2.84-3.39-1.36-1.64-2.57-3.31-3.94-4.86s-2.73-3.21-4.08-4.85a71.39,71.39,0,0,1-6.62-9.36A43.72,43.72,0,0,1,11.68,90,66.49,66.49,0,0,0,8.76,81.5a4.4,4.4,0,0,0-1.19-1.71h0C7.4,79,6.41,78.54,6.28,77.68h0a3.77,3.77,0,0,0-.5-.62c-.89-.77-1-1.15-.15-1.44.18-.06.25-.3.56-.17v0h0c1,.24,1.57,1.27,2.15,2.06,2.92,4,4.18,8.69,5.64,13.06a39,39,0,0,0,3.36,7.72c.4.66.87,1.27,1.23,2Z" transform="translate(-0.01)"/>
        <path class="cls-1" d="M22.81,85.47c.07.13.16.23.21.35A3.58,3.58,0,0,0,23.76,87s.06,0,.1,0h0a3.63,3.63,0,0,0,.69.59,20.39,20.39,0,0,1,2,1.28c.1.08.3.18,0,.79s-.6,1-.8.84a7.51,7.51,0,0,0-1.51-.87A5.37,5.37,0,0,1,22,88a6.07,6.07,0,0,1-1.21-2.22c-.25-.68-.57-1.19-.81-1.77s-.29-1.06-.51-1.57a.29.29,0,0,0-.37-.23h0c.19-.29-.39-.12-.09-.49h0s0-.12-.06-.15c-.22-.11-.05-.31.62-.69a1.72,1.72,0,0,1,.45-.25h0c.53-.16.45.16.56.32A12.86,12.86,0,0,1,22,83.49c.23.53.39,1.13.63,1.6.06.13.2.23.19.38Z" transform="translate(-0.01)"/>
        <path class="cls-1" d="M26.64,61.34c-.09-.64-.2-1.27-.27-1.92l-.87-7.31a2.47,2.47,0,0,0-.11-.36h0L24.9,47.3c-.19-1.72-.35-3.46-.39-5.2s0-3.49.14-5.22c0-.54,0-1.47.7-1.42s1.13.66,1.11,1.58l-.09,3.37a18.74,18.74,0,0,0,.12,3.35c.41,3.24.73,6.5,1.19,9.76q.62,4.38,1.05,8.84c.28,2.78.58,5.58.61,8.38,0,2.42-.19,4.83-.37,7.24a3.71,3.71,0,0,0,.11,1.72h0c-.35.64.17,1.45-.34,2h0a3.74,3.74,0,0,0-.09.66c0,1-.25,1.23-1,.83-.16-.09-.39,0-.49-.28h0c-.46-.7-.15-1.49-.1-2.23.22-3.63.31-7.26.2-10.89-.07-2.23-.15-4.46-.42-6.67a13.72,13.72,0,0,1-.23-1.82Z" transform="translate(-0.01)"/>
        <path class="cls-1" d="M33,38.78c.07.18.16.35.21.53.16.69.26,1.4.38,2,0,0,.05.06.08.09h0c.08.38.15.77.26,1.16a10.29,10.29,0,0,1,.51,2.82c0,.15.05.41-.62.54s-1.12.05-1.15-.19a5.26,5.26,0,0,0-.34-1.79,13.33,13.33,0,0,1-.78-2.65A20.18,20.18,0,0,0,31,39a8.21,8.21,0,0,0-1-1.71,3.78,3.78,0,0,0-.89-1.17c-.08-.07-.19-.14-.34.08h0c0-.33-.23.21-.26-.24h0s-.07-.06-.1,0-.22-.11-.3-.88c0-.17-.07-.39,0-.51h0c.18-.57.57-.32.82-.28a4.31,4.31,0,0,1,2.93,2.14,16.65,16.65,0,0,1,.91,1.85c.08.16.23.31.22.5Z" transform="translate(-0.01)"/>
        <path class="cls-1" d="M37.21,59.6a8.12,8.12,0,0,1,.25,1l.66,3.69a.61.61,0,0,0,.09.18h0c.13.75.25,1.5.4,2.24a35.3,35.3,0,0,0,1.12,4.82.64.64,0,0,1-.28.94c-.58.4-1.13.33-1.36-.17a27.15,27.15,0,0,1-1-3.53c-.51-1.64-.71-3.29-1.06-4.93l-.87-4.43c-.29-1.39-.71-2.75-1-4.14-.22-1.2-.27-2.43-.44-3.64a1,1,0,0,0-.36-.81h0c.24-.38-.39-.66,0-1.06h0a.79.79,0,0,0,0-.34c-.2-.47,0-.64.81-.62.17,0,.39-.08.52,0h0c.58.24.41.7.49,1.07.4,1.82.75,3.65,1.12,5.48.22,1.12.4,2.25.71,3.35a3.67,3.67,0,0,1,.24.92Z" transform="translate(-0.01)"/>
        <path class="cls-1" d="M51.25,58.22a12.8,12.8,0,0,1,1.16,1.17,11.09,11.09,0,0,0,.84,1,1,1,0,0,0,.67.3,12.49,12.49,0,0,0,1.33,0,4.47,4.47,0,0,1,1.84.34c.12.05.26.07.38.11h0a9.34,9.34,0,0,1,2.85,2.77A14,14,0,0,0,66,68.57c.35.17,1,.34.81,1a1,1,0,0,1-1.53.66,17.42,17.42,0,0,1-4.72-3.11,23,23,0,0,1-2.61-3,3.31,3.31,0,0,0-2.58-1.52,12.56,12.56,0,0,1-1.87,0,3,3,0,0,1-1.17-.42,3.71,3.71,0,0,1-.85-.74c-.44-.51-.75-.91-1.13-1.32a10.72,10.72,0,0,0-1.16-1.09,4.44,4.44,0,0,0-2.47-1,2.75,2.75,0,0,0-2.12.7,6.8,6.8,0,0,0-1.22,2,22.38,22.38,0,0,0-1,2.54,1.94,1.94,0,0,0-.13,1.3h0c-.42.41,0,1.1-.51,1.48h0a2.07,2.07,0,0,0-.12.49c0,.76-.27.92-1,.56-.16-.08-.39,0-.47-.25v0h0c-.44-.61-.08-1.23,0-1.82a29.12,29.12,0,0,1,1.16-4.28,15.87,15.87,0,0,1,.87-2.1,4.83,4.83,0,0,1,1.72-2,5.71,5.71,0,0,1,6,.49,5.22,5.22,0,0,1,1.28,1Z" transform="translate(-0.01)"/>
        <path class="cls-1" d="M71.7,95.14c-.14.72-.29,1.43-.47,2.13-.72,2.65-1.54,5.25-2.31,7.84a2.9,2.9,0,0,0-.06.41h0c-.47,1.57-.92,3.14-1.31,4.7A28,28,0,0,0,66.75,121c.08.56.35,1.47-.3,1.66s-1.3-.36-1.5-1.44a28.33,28.33,0,0,1,0-7.75c.39-3.74,1.62-7.21,2.58-10.71.89-3.14,1.85-6.25,2.52-9.4a50.22,50.22,0,0,0,1-8.92l0-3.9A24.49,24.49,0,0,0,71,76.72a2.78,2.78,0,0,0-.59-1.62h0a1.31,1.31,0,0,0-.33-.92,1.45,1.45,0,0,1-.36-.87h0a1.68,1.68,0,0,0-.36-.47c-.36-.26-.57-.41-.61-.61s.08-.42.43-.66c.16-.1.19-.34.5-.28v0h0a1.76,1.76,0,0,1,1.25.67,6,6,0,0,1,.76,1.24A14.77,14.77,0,0,1,73,79.46l.1,3.07,0,1.53,0,1.55a60.51,60.51,0,0,1-1,7.51,12.76,12.76,0,0,1-.39,2Z" transform="translate(-0.01)"/>
        <g>
          <path class="cls-1" d="M105.65,11.77a4.13,4.13,0,0,1-.66,1.62,9.86,9.86,0,0,0-.64,1c-.17.46-.14.67.3,1.17A13,13,0,0,0,106.46,17a11.38,11.38,0,0,1,1.09.88,6.29,6.29,0,0,1,1,1.2,6.77,6.77,0,0,1,.93,2.81,15.3,15.3,0,0,1,0,2.7,44.62,44.62,0,0,0-.25,4.89A14.19,14.19,0,0,0,110.44,34c.12.32.28.64.41,1v0a8.76,8.76,0,0,1,.56,3.41,4.47,4.47,0,0,1-.51,1.87,5.78,5.78,0,0,1-1,1.46c-.71.77-.9,1.15-.83,1.84a7.83,7.83,0,0,0,1,2.42,15.87,15.87,0,0,1,.82,1.7,6.48,6.48,0,0,1,.44,2.06,7.46,7.46,0,0,1-1,4,9.45,9.45,0,0,1-2.65,2.94,10.11,10.11,0,0,1-3.56,1.61,18.79,18.79,0,0,1-7.39.08c-2.38-.38-4.63-1-6.88-1.31-.7-.11-1.64-.2-2.4-.3S86,56.44,86,56.09c0-.7,1.75-1.28,4.36-.86,3.13.46,6.08,1.35,9.06,1.51a13.76,13.76,0,0,0,4.36-.38,7.59,7.59,0,0,0,3.6-2.08,5.89,5.89,0,0,0,1.74-5.34,13.74,13.74,0,0,0-1.33-2.85,9.16,9.16,0,0,1-.7-1.74,3.75,3.75,0,0,1,0-2.15,4.53,4.53,0,0,1,1.07-1.74,4.81,4.81,0,0,0,.86-1.15,3.77,3.77,0,0,0,.14-2.67c-.46-2-1.68-4-2-6.55a45.09,45.09,0,0,1,.22-6.14,8.89,8.89,0,0,0-.23-2.72A4,4,0,0,0,106,19.18c-.67-.58-1.56-1.08-2.42-1.84a4.15,4.15,0,0,1-1.16-1.55,2.88,2.88,0,0,1,.1-2.18,11.58,11.58,0,0,1,.88-1.39,2.16,2.16,0,0,0,.35-1,3.07,3.07,0,0,0-.87-2.07,8.77,8.77,0,0,0-1.93-1.63c-.7-.45-1.62-.81-2.42-1.22-.42-.19-.83-.41-1.26-.58L96,5.26a24.44,24.44,0,0,0-2.61-.91A50.66,50.66,0,0,0,82.46,2.27a93.08,93.08,0,0,0-19.3.45,22.17,22.17,0,0,0-4.52.85h0c-1.79,0-3.74.89-5.5.75h0c-.59.09-1.2.15-1.77.29-2.61.6-3.35.49-2.62-.44.17-.2-.1-.38.52-.61h0c1.69-.85,3.94-1,6-1.36C65.1.47,75.2-.75,85.28.53a52.82,52.82,0,0,1,9.1,2.08c.75.21,1.47.54,2.2.81s1.47.53,2.16.89l2.12,1A11.31,11.31,0,0,1,103,6.62a8.91,8.91,0,0,1,2,2,4.14,4.14,0,0,1,.71,3.15Z" transform="translate(-0.01)"/>
          <path class="cls-1" d="M76.27,57.76c.84.53,1.71,1,2.55,1.54a53.34,53.34,0,0,0,10.09,4.89,5.47,5.47,0,0,0,.55.13h0c1.07.34,2.14.66,3.23.89a11.33,11.33,0,0,0,3.14.42,7.57,7.57,0,0,0,3.24-1.22l3.5-2,3.52-1.91,1.77-.94.89-.46a2.46,2.46,0,0,0,.57-.42,6.65,6.65,0,0,0,.51-.63l.12,0s0,0,0-.06a2.1,2.1,0,0,1,.14-.39.5.5,0,0,1,.43-.26.78.78,0,0,1,.67.55,2.2,2.2,0,0,1-.78,2.24,3.82,3.82,0,0,1-.67.51c-.25.15-.4.22-.61.33l-1.17.62-2.33,1.25c-1.55.84-3.09,1.69-4.58,2.6a18.26,18.26,0,0,1-3.55,1.87,6.28,6.28,0,0,1-2.18.33,13.23,13.23,0,0,1-2-.24,40,40,0,0,1-7.52-2.26,65.77,65.77,0,0,1-12.2-6.79,96.83,96.83,0,0,1-10.3-8c-2.79-2.48-5.42-5.07-8.35-7.28a7.15,7.15,0,0,0-2.25-1.29v0c-.67-.8-2-.89-2.57-1.74h0c-.29-.16-.58-.36-.88-.49-1.39-.53-1.65-.91-.88-1.41.17-.11.14-.37.53-.32l0,0h0c1.19-.05,2.24.8,3.27,1.38,5.06,2.89,9.29,6.87,13.56,10.58a82,82,0,0,0,8.15,6.41c.79.52,1.61,1,2.38,1.55Z" transform="translate(-0.01)"/>
          <rect class="cls-2" x="26.09" y="7.44" width="20" height="24" rx="3.14"/>
          <path class="cls-1" d="M35.83,1.62a4,4,0,0,1,.6-.05l2.26.1s.08,0,.12,0h0c.46,0,.91.06,1.37.06l.79,0,.58,0a1.86,1.86,0,0,1,.73.13,1.39,1.39,0,0,1,.86,1,3.74,3.74,0,0,1,.06.75,2.82,2.82,0,0,1,0,.44c0,.17,0,.44-.66.52s-1.13-.07-1.14-.35V4c0-.09,0-.06,0-.1a.52.52,0,0,0,0-.18c0-.14-.19-.12-.29-.07a20.11,20.11,0,0,1-3,0c-.9,0-1.81-.05-2.72,0s-1.7.14-2.55.11h-.23a0,0,0,0,0,0,0,.11.11,0,0,0-.07-.06c-.07,0-.12,0-.16.08a.43.43,0,0,0,.17.52h0c-.32.18.24.45-.23.62h0c0,.06-.07.13,0,.19.1.31-.15.38-.92.23-.17,0-.39,0-.5-.1h0c-.51-.23-.24-.47-.24-.7l0-1.06a1.68,1.68,0,0,1,.55-1.43,1.65,1.65,0,0,1,1.12-.26h.88a20.22,20.22,0,0,0,2.06,0,1.38,1.38,0,0,1,.57,0Z" transform="translate(-0.01)"/>
          <path class="cls-1" d="M41.52,39.69a2.55,2.55,0,0,1-.56.17l-.5,0h-.53c-.33,0-.64,0-1-.06,0,0-.06,0-.09,0h0l-1.09-.12a8.83,8.83,0,0,1-2.42-.41c-.12,0-.31,0-.29-.73s.2-1.12.44-1.07a5.54,5.54,0,0,0,1.64.25,17.74,17.74,0,0,1,2.32.06c.35,0,.64,0,.94,0a2.76,2.76,0,0,0,.81-.16c.39-.22.28-.36.38-.76a6.65,6.65,0,0,0,.19-1.46.4.4,0,0,0-.23-.45h0c.3-.18-.27-.43.2-.6h0c0-.07.07-.14.06-.21-.06-.34.2-.35.93-.08a2.16,2.16,0,0,1,.49.16h0c.49.22.23.29.24.45a9.26,9.26,0,0,1,.07,2.82,2.83,2.83,0,0,1-.51,1.07,3.28,3.28,0,0,1-1,.79c-.18.11-.35.27-.56.26Z" transform="translate(-0.01)"/>
          <path class="cls-1" d="M12.94,5.47c-.32,0-.65.08-1,.08H8.28a.64.64,0,0,0-.18.06h0c-.74,0-1.48,0-2.22,0A36.88,36.88,0,0,1,.73,5.47c-.27,0-.73,0-.72-.71s.3-1.12.76-1.1a21.48,21.48,0,0,0,3.4.07c1.64-.2,3.28-.12,4.93-.17,1.47-.05,3,0,4.42-.09s2.77-.22,4.16-.22c1.19,0,2.39.15,3.59.2a1,1,0,0,0,.84-.21h0c.32.3.7-.28,1,.17h0a.74.74,0,0,0,.33,0c.49-.12.62.13.47.9,0,.18,0,.4-.11.52v0c-.33.53-.74.28-1.11.29-1.83.07-3.65.1-5.48.14-1.12,0-2.24,0-3.36.12a3.62,3.62,0,0,1-.93.07Z" transform="translate(-0.01)"/>
          <path class="cls-1" d="M12.87,36.81a6.48,6.48,0,0,1-.77.08c-1,0-1.95,0-2.92.09a.61.61,0,0,0-.14.07H9c-.59,0-1.18.06-1.76.11a32.79,32.79,0,0,1-4.09.27c-.21,0-.57,0-.66-.63s.09-1.14.47-1.17a15.59,15.59,0,0,0,2.74-.23,25.64,25.64,0,0,1,4-.44c1.2-.1,2.4-.1,3.6-.15s2.26-.19,3.39-.15,1.94.26,2.91.39a.69.69,0,0,0,.7-.16h0c.24.32.59-.23.81.25h0c.09,0,.18.08.26.06.41-.08.49.17.29.93-.05.17,0,.4-.14.5h0c-.32.5-.62.22-.92.21-1.45-.07-2.9-.14-4.36-.16a23.79,23.79,0,0,0-2.67,0,2.25,2.25,0,0,1-.73.08Z" transform="translate(-0.01)"/>
        </g>
        <path class="cls-3" d="M35.8,20.57c.12-.17.22-.35.35-.5l1.54-1.7s0-.08,0-.13h0c.31-.34.64-.67.93-1a14.46,14.46,0,0,1,2.27-2.29c.13-.11.32-.32.85.11s.74.85.52,1.06a8.09,8.09,0,0,0-1.49,1.55,21.81,21.81,0,0,1-2,2.42c-.59.73-1.23,1.4-1.82,2.13-.3.38-.41.58-1,1.35a1.48,1.48,0,0,1-.86.63,1.16,1.16,0,0,1-1-.19,4.87,4.87,0,0,1-.75-.81L33.25,23l-.08-.12L33,22.62c-.21-.32-.42-.63-.65-.93a.46.46,0,0,0-.51-.26h0c.1-.36-.49-.15-.29-.6h0c0-.06-.05-.15-.11-.18-.29-.15-.17-.38.48-.82.14-.1.29-.27.42-.29h0c.53-.2.52.16.69.33l1.19,1.24.52.54.12.12c.07.06.1-.06.16-.11l0-.05,0,0,.08-.1a4.25,4.25,0,0,0,.31-.43c.11-.16.16-.37.33-.48Z" transform="translate(-0.01)"/>
      </g>
    </g>
  </g>
</svg>
