<svg xmlns="http://www.w3.org/2000/svg" viewBox="0 0 108.39 102.18">
  <defs>
    <style>
      .cls-1 {
        fill: #231f20;
      }

      .cls-2 {
        fill: #0048ff;
      }
    </style>
  </defs>
  <g id="Layer_2" data-name="Layer 2">
    <g id="Layer_1-2" data-name="Layer 1">
      <g>
        <g>
          <path class="cls-1" d="M51.7,74.42l-1.11-1.11c-.33-.34-.67-.68-1-1s-.68-.56-1.12-.9a8.53,8.53,0,0,1-2.39-2.49,3.19,3.19,0,0,0-.23-.32h0a4.17,4.17,0,0,1-.35-2.44,3.63,3.63,0,0,1,1.24-2.28,2.89,2.89,0,0,1,1.55-.63,4,4,0,0,1,1.45.13,4.69,4.69,0,0,1,.6.2,4.86,4.86,0,0,1,.6.27,10.29,10.29,0,0,1,1,.57,24.38,24.38,0,0,1,3.48,2.65c.33.3,1,.87.46,1.34a1.15,1.15,0,0,1-1.67,0c-.69-.58-1.41-1.16-2.14-1.7a10,10,0,0,0-2.28-1.31,2.59,2.59,0,0,0-1.45-.15,1.2,1.2,0,0,0-.74.83,2.11,2.11,0,0,0,0,1.38,3.71,3.71,0,0,0,.92,1.34,13,13,0,0,0,1.3,1.07,16.23,16.23,0,0,1,1.5,1.21c.94.88,1.75,1.82,2.57,2.7a10.72,10.72,0,0,0,5,3.52,18.22,18.22,0,0,0,5.5.43,2.44,2.44,0,0,0,1.36-.34h0c.57.26,1.14-.38,1.71,0h0a1.43,1.43,0,0,0,.52,0c.63-.21.9,0,.85.79,0,.17.11.38-.08.52h0a1.38,1.38,0,0,1-.93.47c-.31,0-.63,0-.93,0-1.48.17-3,.37-4.56.42A13.26,13.26,0,0,1,57.52,79a13.8,13.8,0,0,1-4.75-3.54,7.86,7.86,0,0,1-1.07-1.09Z"/>
          <path class="cls-1" d="M52.22,55.13c-.12-.31-.25-.61-.34-.93l-1-3.61a.82.82,0,0,0-.11-.17h0c-.2-.74-.37-1.5-.54-2.28a8.11,8.11,0,0,1,.5-5.72c.15-.29.46-.78,1-.38s.79.83.62,1.16a4.78,4.78,0,0,0-.5,3A46.43,46.43,0,0,0,53,50.86l1.26,4.31c.42,1.34,1,2.65,1.34,4,.32,1.17.49,2.38.76,3.57a1,1,0,0,0,.43.77h0c-.21.4.45.61.1,1.05h0a1.2,1.2,0,0,0,.06.33c.25.45,0,.64-.74.69-.18,0-.38.12-.52,0h0c-.59-.19-.46-.65-.58-1-.56-1.76-1.07-3.55-1.6-5.32-.33-1.09-.61-2.2-1-3.26a3.51,3.51,0,0,1-.32-.89Z"/>
          <path class="cls-1" d="M57.92,46.62a5.92,5.92,0,0,1,.28.64L59,49.77s.06.07.09.11h0c.16.51.3,1,.47,1.52a18.63,18.63,0,0,1,.93,3.54c0,.19.13.5-.52.7s-1.14.13-1.21-.2a10.77,10.77,0,0,0-.64-2.32,28.12,28.12,0,0,1-1.19-3.29l-1-3c-.31-1-.67-1.88-1-2.73a5.33,5.33,0,0,0-.78-1.85c-.07-.1-.18-.17-.33,0h0c0-.15-.06-.1-.1-.07s-.09.09-.15-.15c0,0-.09,0-.14,0s-.32-.06-.48-.81c0-.17-.14-.37-.07-.51h0a.51.51,0,0,1,.42-.44,5.82,5.82,0,0,1,.6,0,3.63,3.63,0,0,1,.71.16,4.08,4.08,0,0,1,.61.36,3.59,3.59,0,0,1,.83.93,8.66,8.66,0,0,1,.92,2c.27.8.44,1.61.73,2.32.08.21.22.33.23.57Z"/>
          <path class="cls-1" d="M66,54a1.7,1.7,0,0,1,.32-.39,3.81,3.81,0,0,1,2.28-.86.41.41,0,0,0,.11-.07h0a5.64,5.64,0,0,1,1.37.14,5,5,0,0,1,2.49,1.25c.1.09.29.2,0,.79s-.68.9-.86.77a3,3,0,0,0-1.32-.75,5.41,5.41,0,0,0-1.89-.12,2.41,2.41,0,0,0-.65.28c-.2.1-.25.28-.86.74a2.21,2.21,0,0,1-1.79.24,2.9,2.9,0,0,1-1.26-.71c-.47-.47-.67-.9-.83-1s-.12-.07-.13.19h0c0-.15,0-.08,0,0s0,.07-.07-.13h0s0,0,0,0-.14,0-.67-.55c-.11-.14-.29-.27-.33-.42h0c-.19-.59.31-.62.58-.7a2.11,2.11,0,0,1,1.08-.06,2,2,0,0,1,.52.18c.14.07.27.15.4.23.48.35.78.7,1,.9a1.3,1.3,0,0,0,.4.23c.09,0,.13,0,.15-.06s-.07-.1,0-.11Z"/>
          <path class="cls-1" d="M78.67,65.61c.1.36.22.72.29,1.1a15.14,15.14,0,0,1,.09,4.41.93.93,0,0,0,0,.23h0A12.89,12.89,0,0,1,78.37,74a4,4,0,0,1-1.09,1.59,7.85,7.85,0,0,1-1.38.9c-.88.47-1.75.84-2.44,1.23-.25.13-.39.32-1,0a.82.82,0,0,1-.08-1.43c1.2-.79,2.46-1.12,3.33-1.87a2.22,2.22,0,0,0,.62-.77,6.57,6.57,0,0,0,.39-1.09,10.52,10.52,0,0,0,.4-2.5,15,15,0,0,0-.58-4.61c-.4-1.46-.95-2.93-1.32-4.43-.33-1.29-.5-2.62-.77-3.92-.06-.31-.11-.64-.43-.76h0a.23.23,0,0,0-.11-.34c-.11-.08-.12-.05,0-.26h0s0-.09,0-.07-.08,0-.13-.11a1.83,1.83,0,0,1-.06-.74c0-.18-.06-.4.13-.55h0a.79.79,0,0,1,1-.06,2.2,2.2,0,0,1,.66.75,5.45,5.45,0,0,1,.65,1.65l.4,1.47.8,3c.32,1.21.61,2.42,1,3.62a3.82,3.82,0,0,1,.31,1Z"/>
        </g>
        <path class="cls-1" d="M.67,26.85a6.35,6.35,0,0,1,5.94-3.58l11.6,0H24a6.57,6.57,0,0,1,3.31.83,6.4,6.4,0,0,1,2.42,2.45,8,8,0,0,1,.61,1.29v0a7.12,7.12,0,0,1,.27,2.06V42.16q0,8.13,0,16.24l-.06,8.11-.05,4a6.29,6.29,0,0,1-1.62,4.32A5.62,5.62,0,0,1,26,76.61c-1.05.22-1.85,0-1.8-.33.05-.76,2-.91,3.51-2.86a4.33,4.33,0,0,0,.86-2,5.07,5.07,0,0,0,.05-.56v-.66l0-1.33.06-5.35c0-3.57.05-7.13,0-10.67-.09-5.19-.11-10.37-.11-15.55V29.54a4.31,4.31,0,0,0-1.22-2.9,4.38,4.38,0,0,0-2.85-1.33H6.28a5.85,5.85,0,0,0-.72.07,4.32,4.32,0,0,0-1.34.49A4.26,4.26,0,0,0,2,29.35c0,.23,0,.51,0,.81V31c0,8.73.19,17.47.18,26.2,0,3.77-.05,7.53-.1,11.3l0,1.41c0,.48,0,1,0,1.31a4.24,4.24,0,0,0,.8,2.13,4.34,4.34,0,0,0,1.78,1.45,4.42,4.42,0,0,0,1.13.32,5.47,5.47,0,0,0,.59,0h.7A34.77,34.77,0,0,0,12.41,75h0c2,.31,4.45-.26,6.43.19h0c.7,0,1.41.06,2.08,0,3.1-.12,3.92.13,2.88.9-.23.17,0,.4-.71.51h0c-2.1.53-4.68.28-7,.29l-8.63,0H6.27A7.47,7.47,0,0,1,5,76.8a6.06,6.06,0,0,1-2.27-1A6.12,6.12,0,0,1,.24,71.59a22.69,22.69,0,0,1-.07-2.27V54.21C.13,47.15.16,40.07.07,33L0,30.12A7.38,7.38,0,0,1,.1,28.47a6,6,0,0,1,.59-1.65Z"/>
        <path class="cls-1" d="M44.72,102.16l-1.11,0a7.21,7.21,0,0,1-1.28-.08,6.16,6.16,0,0,1-2.48-.95A6.39,6.39,0,0,1,37.12,97,7.56,7.56,0,0,1,37,95.79V92.65l0-8.37c0-.29,0-.57-.06-.86v0l0-10.13V61.61c0-.49,0-1,.05-1.57a6.22,6.22,0,0,1,2.58-4.42,6.19,6.19,0,0,1,3.23-1.17c.62,0,1,0,1.54,0l1.46,0c1.22,0,3.29,0,3.25.71s-1.43,1.12-3.55,1.09l-1.93,0a4.86,4.86,0,0,0-1.64.19,4.38,4.38,0,0,0-2.51,2A4.48,4.48,0,0,0,38.92,60a5.63,5.63,0,0,0-.06.84v1c0,1.29,0,2.57,0,3.85.18,7.48.08,15,.12,22.42v7.55a4.4,4.4,0,0,0,3.57,4.49,5.94,5.94,0,0,0,1.08.08h1.26l2.52,0c6.3,0,12.6-.19,18.9-.18l4.08,0,1,0a7.3,7.3,0,0,0,.84,0,4.25,4.25,0,0,0,1.53-.54,4.31,4.31,0,0,0,2-2.56A6.84,6.84,0,0,0,76,95.09l0-2a18.17,18.17,0,0,0-.21-3.85v0c.31-1.48-.26-3.21.19-4.64h0c0-.5.06-1,0-1.5-.11-2.24.14-2.83.91-2.08.17.17.39,0,.51.52v0c.53,1.51.27,3.38.28,5.07l0,6.23V96a6.11,6.11,0,0,1-1.12,3.4,6.2,6.2,0,0,1-2.82,2.2A5.91,5.91,0,0,1,72,102l-.45,0h-7.4c-5.1,0-10.21,0-15.3.08-1.39,0-2.78.13-4.2.07Z"/>
        <path class="cls-1" d="M81.82.07,90.53,0h12.36c.37,0,.62,0,1.12,0a4.81,4.81,0,0,1,1.3.29,4.66,4.66,0,0,1,2.11,1.61,4.55,4.55,0,0,1,.91,2.48c0,.24,0,.43,0,.59V18.9c0,.56,0,1.12.06,1.68v0l0,19.93v4.33a15,15,0,0,1,0,1.58,4.68,4.68,0,0,1-3.54,4,4.1,4.1,0,0,1-.93.14c-.33,0-.5,0-.77,0l-11.52,0c-7.68,0-15.36-.08-23-.19-2.39,0-6.47,0-6.39-.71s2.82-1.12,7-1.1c10.11.07,20.28.23,30.34.11,10,2.79,6.09-8.5,6.87-15.06V4.67a3.42,3.42,0,0,0,0-.46,2.73,2.73,0,0,0-.92-1.55,2.77,2.77,0,0,0-1.7-.62H96.24l-19.82,0-18.6.11-9.3.05-4.65,0H41c-.2,0-.29,0-.43,0a2.23,2.23,0,0,0-.76.23,2.5,2.5,0,0,0-1.4,2.21l0,4-.06,8-.15,16a70.31,70.31,0,0,0,.21,7.59v0a33.48,33.48,0,0,0,0,4.6c0,.37,0,.85,0,1.07a3.24,3.24,0,0,0,.21.77,3.53,3.53,0,0,0,.91,1.29h0a2.53,2.53,0,0,0,1,.39,9.59,9.59,0,0,0,1.35,0c4.4-.11,5.56.13,4.09.91-.33.17.05.39-1,.51l-.09,0,0,0a21.65,21.65,0,0,1-2.35.26l-1.24,0a5.53,5.53,0,0,1-1.47-.1,4.39,4.39,0,0,1-2.58-1.76,4.71,4.71,0,0,1-.66-1.42,4,4,0,0,1-.13-.77,5.86,5.86,0,0,1,0-.7l-.06-24.53V4.84a5.05,5.05,0,0,1,.08-.92,4.47,4.47,0,0,1,.72-1.76A4.51,4.51,0,0,1,40.33.25l.48,0H43.5c10,0,20.08,0,30.1-.08,2.74,0,5.48-.12,8.27-.06Z"/>
        <path class="cls-1" d="M69.53,7c1,0,1.89-.07,2.84-.07l10.75.05a5.43,5.43,0,0,0,.55-.06h0c2.16,0,4.33,0,6.5,0,5,0,10,0,15,.2.78,0,2.11,0,2.08.71s-.91,1.12-2.28,1.1c-3.3-.07-6.61-.23-9.89-.11-4.8.18-9.59.08-14.39.12-4.31,0-8.61,0-12.92,0-4,0-8.09.19-12.13.18-3.49,0-7-.18-10.47-.25a7.57,7.57,0,0,0-2.47.21h0c-.94-.31-2.05.27-3-.19h0a7.92,7.92,0,0,0-1,0C37.34,9,37,8.76,37.44,8c.11-.17,0-.39.33-.51h0C38.76,7,40,7.2,41,7.19c5.33-.05,10.67-.06,16-.08,3.27,0,6.55,0,9.81-.08A26.89,26.89,0,0,1,69.55,7Z"/>
        <circle class="cls-2" cx="15.27" cy="40.75" r="8.38"/>
        <circle class="cls-2" cx="53.19" cy="22.66" r="8.38"/>
        <circle class="cls-2" cx="96.19" cy="67.66" r="8.38"/>
      </g>
    </g>
  </g>
</svg>
