<svg xmlns="http://www.w3.org/2000/svg" viewBox="0 0 150.19 67.04">
  <defs>
    <style>
      .cls-1 {
        fill: #231f20;
      }

      .cls-2 {
        fill: #0048ff;
      }
    </style>
  </defs>
  <g id="Layer_2" data-name="Layer 2">
    <g id="Layer_1-2" data-name="Layer 1">
      <g>
        <path class="cls-1" d="M73.05,67,66.27,67,53.43,67H51a6,6,0,0,1-1-.08,4.76,4.76,0,0,1-3.27-2.38,4.63,4.63,0,0,1-.55-2c0-.65,0-1.1,0-1.66V57.7c0-.44,0-.87-.06-1.31v0l0-15.52c0-12,0-23.95.2-35.89,0-1.87,0-5,.71-5s1.12,2.19,1.09,5.45c-.06,7.88-.22,15.8-.1,23.64.09,5.73.11,11.46.11,17.19V62.4A2.66,2.66,0,0,0,50.41,65a13.83,13.83,0,0,0,1.77,0h9.65l15.43,0c9.66,0,19.32-.19,29-.18,8.33,0,16.67.18,25,.24a42.6,42.6,0,0,0,5.91-.2h0c2.26.31,4.92-.27,7.11.19h0c.77,0,1.56,0,2.3,0,3.43-.12,4.33.13,3.18.9-.25.17,0,.4-.78.51h0c-2.32.53-5.18.28-7.78.29l-38.21.08c-7.82,0-15.64,0-23.44.08-2.14,0-4.28.12-6.44.06Z"/>
        <rect class="cls-2" x="60.52" y="28.7" width="16.93" height="27.36" rx="1.3"/>
        <rect class="cls-2" x="91.13" y="11.11" width="16.93" height="45.59" rx="1.3"/>
        <rect class="cls-2" x="121.74" y="20.88" width="16.93" height="36.47" rx="1.3"/>
        <path class="cls-1" d="M64.83,29.89a4,4,0,0,1-.21-1.24,5,5,0,0,1,2.22-4.07A1.53,1.53,0,0,0,67,24.4h0a5.13,5.13,0,0,1,2.8-.71,4.83,4.83,0,0,1,3.09,1.22,4.46,4.46,0,0,1,1.47,2.9c0,.33,0,.91-.63.89s-1.12-.26-1.16-.61a2.55,2.55,0,0,0-1.51-2.15,3.3,3.3,0,0,0-3.61.7,2.82,2.82,0,0,0,2,4.82,3,3,0,0,0,2.51-.79.54.54,0,0,0,.2-.65h0c.39-.1,0-.55.44-.66h0a.44.44,0,0,0,.08-.25c-.08-.38.16-.5.93-.34.17,0,.4,0,.51.14h0c.51.43.16.94,0,1.36A4.64,4.64,0,0,1,72,32.86a4.82,4.82,0,0,1-3.32.55A5.22,5.22,0,0,1,65.31,31a2.74,2.74,0,0,1-.48-1.09Z"/>
        <path class="cls-1" d="M94.79,11.66a4.1,4.1,0,0,1-.21-1.25A5,5,0,0,1,96.8,6.34,1,1,0,0,0,97,6.16h0a5.12,5.12,0,0,1,2.8-.7,4.77,4.77,0,0,1,3.09,1.21,4.48,4.48,0,0,1,1.47,2.9c0,.34,0,.92-.63.89s-1.12-.26-1.16-.61A2.57,2.57,0,0,0,101,7.7a3.31,3.31,0,0,0-3.61.71,3,3,0,0,0-.55,3.21,3,3,0,0,0,2.5,1.61,3,3,0,0,0,2.51-.8.53.53,0,0,0,.2-.64h0c.4-.1,0-.55.44-.65h0a.49.49,0,0,0,.08-.25c-.07-.38.16-.51.94-.35.16,0,.39,0,.5.14h0c.52.43.16,1,0,1.36a4.7,4.7,0,0,1-2.11,2.59,4.87,4.87,0,0,1-3.32.54,5.17,5.17,0,0,1-3.34-2.43,2.63,2.63,0,0,1-.49-1.09Z"/>
        <path class="cls-1" d="M124.76,22.08a4.11,4.11,0,0,1-.22-1.25,5,5,0,0,1,2.23-4.07,1,1,0,0,0,.17-.18h0a5.09,5.09,0,0,1,2.8-.71,4.76,4.76,0,0,1,3.08,1.21,4.51,4.51,0,0,1,1.47,2.9c0,.34.05.92-.63.89s-1.12-.26-1.15-.61A2.59,2.59,0,0,0,131,18.12a3.29,3.29,0,0,0-3.6.71,2.82,2.82,0,0,0,1.94,4.82,3,3,0,0,0,2.51-.8.53.53,0,0,0,.2-.64h0c.4-.11,0-.56.44-.66h0a.46.46,0,0,0,.08-.25c-.07-.38.17-.51.94-.35.17.05.39,0,.5.14h0c.52.43.16.95,0,1.36a4.66,4.66,0,0,1-2.11,2.59,4.85,4.85,0,0,1-3.32.54,5.17,5.17,0,0,1-3.34-2.43,2.64,2.64,0,0,1-.49-1.09Z"/>
        <path class="cls-1" d="M84.51,18.42c1-.65,2-1.33,3.1-2l11-6.67a2.12,2.12,0,0,1,1.86-.15c.22.08.46.12.69.18h0l7.91,2.78c6.12,2.1,12.22,4.23,18.25,6.55.94.37,2.56.93,2.3,1.56s-1.48.67-3.14.07c-4-1.46-8-3-12-4.3-2.62-.82-5.22-1.7-7.81-2.59l-3.88-1.36-1.94-.67-1-.34c-.14-.06-.16,0-.23,0l-1.79,1.1-14.22,8.7L77,25.47l-3.32,2.08-1.66,1-.83.51-.42.26a4,4,0,0,1-.36.2,2.44,2.44,0,0,1-.46.14,2.16,2.16,0,0,1-.84,0,2.66,2.66,0,0,1-.36-.11l-.2-.07-.8-.28-1.59-.58L63,27.47l-6.33-2.36a12.25,12.25,0,0,0-3.09-.85h0c-1-.69-2.6-.62-3.57-1.44h0c-.39-.15-.77-.33-1.16-.44-1.79-.5-2.17-.89-1.33-1.42.19-.12.11-.38.57-.34l0,0v0c1.36-.08,2.74.67,4.06,1.12l9.77,3.34,4.88,1.69,2.44.84.19.07h.14l.12-.08,1.1-.67c3.6-2.21,7.23-4.38,10.78-6.65,1-.62,1.91-1.31,2.94-1.87Z"/>
        <g>
          <path class="cls-1" d="M9.9,8.09a5.58,5.58,0,0,1-.29-1.62,6.52,6.52,0,0,1,.74-3,6.54,6.54,0,0,1,2.09-2.31c.09-.06.16-.15.25-.22h0A6.51,6.51,0,0,1,16.33,0a6.39,6.39,0,0,1,4,1.59,6.06,6.06,0,0,1,2,3.73c.06.44.09,1.2-.59,1.19a1.1,1.1,0,0,1-1.2-.9,4.16,4.16,0,0,0-2.34-3.19,4.77,4.77,0,0,0-5.39,1,4.46,4.46,0,0,0-.76,4.85,4.67,4.67,0,0,0,3.8,2.54A4.48,4.48,0,0,0,19.62,9.5,1,1,0,0,0,20,8.58h0c.45-.22.06-.81.56-1h0a.85.85,0,0,0,.09-.38c-.06-.57.17-.76.94-.54.17,0,.4,0,.51.17h0c.52.55.15,1.24,0,1.8A6,6,0,0,1,19.28,12a6.31,6.31,0,0,1-4.38.67A6.83,6.83,0,0,1,10.53,9.5,4,4,0,0,1,9.9,8.09Z"/>
          <path class="cls-1" d="M17.67,22.78c-.48,0-1,.07-1.44.07a19.58,19.58,0,0,1-5.78-.55,2.88,2.88,0,0,0-.33-.05h0a4.73,4.73,0,0,1-2.93-3,8,8,0,0,1,0-4.41,8.23,8.23,0,0,1,2.15-3.67c.3-.32.87-.83,1.3-.31a1.09,1.09,0,0,1,0,1.56,6.29,6.29,0,0,0-1.83,4.08,4.53,4.53,0,0,0,.65,2.88,3.83,3.83,0,0,0,2.63,1.22,54.36,54.36,0,0,0,6.44.14,19.41,19.41,0,0,0,2.94-.2,3.9,3.9,0,0,0,1.11-.37,1.81,1.81,0,0,0,.61-.62,5.39,5.39,0,0,0,.43-2.05,7.25,7.25,0,0,0-.25-2.36,1.41,1.41,0,0,0-.63-.95h0c.08-.54-.67-.65-.55-1.24h0a1.26,1.26,0,0,0-.24-.36c-.51-.42-.49-.71.23-1.09.16-.08.28-.28.49-.23v0h0c.75,0,1,.74,1.32,1.24A9.5,9.5,0,0,1,25.49,19a4.29,4.29,0,0,1-1,2.32,3.63,3.63,0,0,1-1.38.89,6.92,6.92,0,0,1-1.42.33c-.91.12-1.77.13-2.62.17a7.86,7.86,0,0,1-1.37.06Z"/>
        </g>
        <g>
          <path class="cls-2" d="M34.6,48.74c0,1.46-2.12,2.62-2.48,4s.87,3.46.16,4.68-3.13,1.19-4.14,2.2S27.19,63,26,63.72s-3.29-.53-4.68-.16S18.76,66,17.3,66s-2.63-2.12-4-2.48-3.46.87-4.68.16-1.19-3.13-2.2-4.13-3.42-1-4.13-2.2.53-3.28.16-4.68S0,50.2,0,48.74s2.12-2.63,2.48-4-.87-3.46-.16-4.68,3.13-1.19,4.13-2.2,1-3.42,2.2-4.13,3.28.53,4.68.16,2.51-2.48,4-2.48,2.62,2.12,4,2.48,3.46-.87,4.68-.16,1.19,3.13,2.19,4.13,3.42,1,4.14,2.2-.53,3.28-.16,4.68S34.6,47.28,34.6,48.74Z"/>
          <path class="cls-1" d="M19.15,50.71c.32-.34.64-.69,1-1l3.93-3.63a2.29,2.29,0,0,0,.16-.23h0l2.37-2.19c1.81-1.72,3.63-3.42,5.59-5,.3-.24.79-.69,1.24-.19a1,1,0,0,1-.08,1.58,42.3,42.3,0,0,0-3.66,3.29c-1.62,1.76-3.42,3.32-5.14,5l-4.66,4.43L17.68,55a3.9,3.9,0,0,1-3.9.72,3.56,3.56,0,0,1-1.47-1l-.84-1c-.56-.66-1.11-1.34-1.68-2a1.9,1.9,0,0,0-1-.75h0c-.1-.56-.9-.56-.88-1.21h0a1.86,1.86,0,0,0-.3-.37c-.57-.44-.52-.75.2-1.11C8,48.15,8.1,48,8.3,48v0h0c.72,0,.94.6,1.32,1l2.77,2.86,1.37,1.44a1.85,1.85,0,0,0,1.19.6,2.1,2.1,0,0,0,1.56-.51c.55-.51,1.16-1.12,1.71-1.7a7,7,0,0,1,.93-1Z"/>
        </g>
      </g>
    </g>
  </g>
</svg>
