<svg xmlns="http://www.w3.org/2000/svg" viewBox="0 0 165.31 116">
  <defs>
    <style>
      .cls-1 {
        fill: #fff;
      }

      .cls-2 {
        fill: #231f20;
      }
    </style>
  </defs>
  <g id="Layer_2" data-name="Layer 2">
    <g id="Layer_1-2" data-name="Layer 1">
      <g>
        <g>
          <path class="cls-1" d="M69.83,54.12c3.35,0,6.7,0,10-.08.91,0,1.83-.13,2.76-.07h0l1.91,0c0-.2,0-.41,0-.61,0-2.37-.06-4.74-.08-7.12,0-1.45,0-2.91-.08-4.36a5.38,5.38,0,0,1-.07-1.2h0c0-.42-.07-.85-.07-1.27,0-1.59,0-3.18,0-4.78a1.05,1.05,0,0,0-.06-.24h0l0-2.26H66.08L54.57,54.2C59.66,54.15,64.74,54.14,69.83,54.12Z" transform="translate(0 -0.17)"/>
          <path class="cls-1" d="M86.33,35.67c0,1.92,0,3.83,0,5.75s.19,3.6.18,5.4c0,1.55-.18,3.1-.24,4.65a1.49,1.49,0,0,0,.21,1.1h0c-.31.42.28.91-.19,1.32h0v0l10.2,0a5.32,5.32,0,0,0,.56-.06h0c2.22,0,4.44,0,6.66,0,4.14,0,8.28,0,12.41.1L104.73,32.1H86.32C86.33,33.29,86.31,34.48,86.33,35.67Z" transform="translate(0 -0.17)"/>
          <path class="cls-1" d="M108.78,55.84c-4.92.18-9.83.09-14.73.12-4.41,0-8.82,0-13.23,0-4.14,0-8.28.19-12.42.19-3.57,0-7.14-.19-10.72-.25a7.4,7.4,0,0,0-2.53.21h0a2.69,2.69,0,0,0-1-.09v60.11h62.51V55.89C114,55.82,111.39,55.74,108.78,55.84Zm-15,7.62a11.29,11.29,0,0,0-2.53-.1,32.15,32.15,0,0,1-3.67.12c-1.1,0-2.2,0-3.3,0s-2.06.2-3.1.19c-.89,0-1.78-.18-2.67-.25a.61.61,0,0,0-.63.21h0c-.24-.31-.52.27-.76-.19h0c-.08,0-.16-.06-.24,0-.37.11-.47-.14-.34-.92,0-.18,0-.4.08-.52h0c.24-.54.55-.28.83-.29,1.36,0,2.72-.06,4.08-.09.84,0,1.67,0,2.5-.07a1.81,1.81,0,0,1,.69-.07h0a5.85,5.85,0,0,1,.72-.07l2.75,0s.09,0,.14-.06h0c.56,0,1.11,0,1.66,0a20.61,20.61,0,0,1,3.84.2c.2,0,.54,0,.53.72S94.11,63.49,93.76,63.46Z" transform="translate(0 -0.17)"/>
        </g>
        <g>
          <path class="cls-2" d="M121.1,44.9a4.1,4.1,0,0,1,.49-.06c.63,0,1.26,0,1.89,0,0,0,.06,0,.09-.06h0c.38,0,.76,0,1.14,0a9.7,9.7,0,0,1,2.63.2c.14,0,.37,0,.37.72s-.16,1.11-.4,1.09a5.38,5.38,0,0,0-1.74-.11,14.19,14.19,0,0,1-2.52.12c-.75,0-1.51,0-2.26,0s-1.42.19-2.13.18-1.22-.18-1.83-.24a.35.35,0,0,0-.44.2h0c-.17-.31-.37.27-.53-.19h0c-.05,0-.11,0-.17,0-.25.12-.31-.13-.23-.9a1.88,1.88,0,0,1,.06-.51h0c.17-.53.38-.28.57-.29.94-.05,1.87-.06,2.81-.08a14.24,14.24,0,0,0,1.72-.08c.15,0,.31-.12.47-.06Z" transform="translate(0 -0.17)"/>
          <path class="cls-2" d="M50.18,44.9a3.47,3.47,0,0,1,.45-.06c.58,0,1.15,0,1.73,0,0,0,0,0,.08-.06h0c.35,0,.69,0,1,0a8.19,8.19,0,0,1,2.41.2c.12,0,.34,0,.33.72s-.15,1.11-.36,1.09a4.5,4.5,0,0,0-1.59-.11,11.87,11.87,0,0,1-2.3.12c-.69,0-1.38,0-2.07,0s-1.3.19-1.95.18a16,16,0,0,1-1.67-.24.31.31,0,0,0-.4.2h0c-.15-.31-.33.27-.47-.19h0c-.06,0-.11,0-.16,0C45,47,45,46.7,45,45.93a2.44,2.44,0,0,1,.05-.51h0c.16-.53.35-.28.53-.29.85-.05,1.7-.06,2.56-.08A11.8,11.8,0,0,0,49.75,45c.14,0,.29-.12.43-.06Z" transform="translate(0 -0.17)"/>
          <path class="cls-2" d="M44.73,31c0,.37.07.75.07,1.12,0,1.42,0,2.84,0,4.26a.83.83,0,0,0,.06.21h0c0,.85,0,1.71,0,2.57a49.3,49.3,0,0,1-.2,6c0,.3,0,.83-.72.82s-1.12-.36-1.09-.9a27.07,27.07,0,0,0,.11-3.92c-.18-1.9-.09-3.8-.12-5.69,0-1.71,0-3.41,0-5.12s-.19-3.2-.18-4.8c0-1.38.18-2.76.24-4.14a1.26,1.26,0,0,0-.21-1h0c.31-.38-.27-.82.18-1.18h0a1.67,1.67,0,0,0,0-.38c-.12-.57.13-.72.9-.53.17,0,.4,0,.51.13h0c.53.38.28.85.29,1.28.05,2.11.06,4.22.08,6.34,0,1.29,0,2.59.08,3.88A4.77,4.77,0,0,1,44.73,31Z" transform="translate(0 -0.17)"/>
          <path class="cls-2" d="M89.57,19.29c-1.12,0-2.24.07-3.36.06-4.23,0-8.46,0-12.69,0-.22,0-.43,0-.65.06h0c-2.56,0-5.12,0-7.68,0-5.92,0-11.84,0-17.74-.2-.92,0-2.49,0-2.46-.72s1.08-1.11,2.69-1.09c3.9.07,7.81.23,11.69.11,5.67-.18,11.33-.09,17-.12,5.09,0,10.18,0,15.27,0,4.77,0,9.55-.19,14.33-.18,4.12,0,8.24.18,12.36.24a10.49,10.49,0,0,0,2.92-.2h0c1.12.31,2.43-.27,3.51.19h0c.38,0,.77.05,1.14,0,1.69-.12,2.14.13,1.57.9-.12.18,0,.4-.39.52l0,0h0c-1.15.53-2.57.28-3.85.29-6.3.05-12.6.06-18.9.08-3.86,0-7.73,0-11.59.08-1,0-2.11.12-3.18.07Z" transform="translate(0 -0.17)"/>
          <path class="cls-2" d="M130.66,8.53c0,.24.07.49.07.73,0,.92,0,1.85,0,2.77a.48.48,0,0,0,.05.14h0c0,.56,0,1.12,0,1.68a20.78,20.78,0,0,1-.2,3.86c0,.21,0,.55-.71.54s-1.12-.24-1.09-.59a12,12,0,0,0,.1-2.54,32.85,32.85,0,0,1-.12-3.71c0-1.11,0-2.22,0-3.32S128.48,6,128.48,5s.18-1.79.25-2.69a.63.63,0,0,0-.21-.64h0c.31-.25-.27-.53.19-.77h0c0-.08.06-.17,0-.25-.11-.37.13-.47.91-.34.17,0,.39,0,.51.08h0c.52.25.27.56.28.84.06,1.37.06,2.74.09,4.11,0,.85,0,1.69.07,2.53a1.81,1.81,0,0,1,.07.69Z" transform="translate(0 -0.17)"/>
          <path class="cls-2" d="M161.72,34.17a7.72,7.72,0,0,0,1.1-1.23,2.09,2.09,0,0,0,.45-1c0-.24-.07-.36-.45-.79l-1.18-1.28c-.81-.84-1.62-1.68-2.45-2.5-1.65-1.66-3.34-3.28-5.05-4.88-.17-.16-.38-.3-.56-.44h0c-2.07-1.93-4.16-3.86-6.28-5.75-4.9-4.38-9.84-8.78-14.43-13.5-.72-.73-2-1.94-1.49-2.4s1.64,0,2.92,1.27c3.08,3,6.17,6.09,9.45,8.89,4.8,4.08,9.46,8.33,14.06,12.66,2.07,1.95,4.09,3.95,6,6,.25.28.47.48.75.82a4.33,4.33,0,0,1,.41.61,3.39,3.39,0,0,1,.25.76,3.54,3.54,0,0,1-.78,2.67,17.68,17.68,0,0,1-3.26,3.08c-.51.42-1,.83-1.46,1.24l-1.42,1.38-2.84,2.79c-1.89,1.87-3.79,3.73-5.71,5.56-3.33,3.15-6.76,6.19-10.13,9.3a13,13,0,0,0-2.2,2.39h0c-1.11.63-1.77,2.06-3,2.56h0c-.31.28-.66.55-.93.85-1.29,1.38-1.82,1.54-1.9.55,0-.22-.28-.27,0-.67l0,0h0c.56-1.26,1.88-2.16,2.9-3.15l15.15-14.55,9.35-9c.93-.79,1.79-1.55,2.67-2.26Z" transform="translate(0 -0.17)"/>
          <path class="cls-2" d="M130.66,54.26c0,.25.07.49.07.73,0,.93,0,1.85,0,2.77a.39.39,0,0,0,.05.14h0c0,.55,0,1.11,0,1.67a20.93,20.93,0,0,1-.2,3.87c0,.2,0,.54-.71.53s-1.12-.23-1.09-.58a12.13,12.13,0,0,0,.1-2.55,32.75,32.75,0,0,1-.12-3.7c0-1.11,0-2.22,0-3.33s-.19-2.08-.19-3.12.18-1.8.25-2.7a.63.63,0,0,0-.21-.64h0c.31-.25-.27-.53.19-.77h0c0-.08.06-.17,0-.25-.11-.37.13-.46.91-.34.17,0,.39,0,.51.09h0c.52.25.27.56.28.84.06,1.37.06,2.74.09,4.12,0,.84,0,1.68.07,2.52a1.84,1.84,0,0,1,.07.7Z" transform="translate(0 -0.17)"/>
        </g>
        <g>
          <path class="cls-2" d="M45.46,66a4.12,4.12,0,0,1-.59.07l-2.24,0s-.08,0-.11.06h0c-.45,0-.9,0-1.35,0A14.28,14.28,0,0,1,38,65.89c-.16,0-.44,0-.44-.72s.19-1.12.48-1.09a7.53,7.53,0,0,0,2.06.1,21.42,21.42,0,0,1,3-.12c.9,0,1.8,0,2.69,0s1.69-.19,2.53-.19,1.45.19,2.18.25a.46.46,0,0,0,.52-.21h0c.2.31.43-.26.62.19h0c.07,0,.14.06.2,0,.3-.12.38.13.28.9a1.53,1.53,0,0,1-.07.51h0c-.2.53-.45.27-.68.29-1.11,0-2.22,0-3.33.08A17.39,17.39,0,0,0,46,66c-.19,0-.38.13-.56.07Z" transform="translate(0 -0.17)"/>
          <path class="cls-2" d="M120.24,66a.47.47,0,0,1-.17.07l-.66,0s0,0,0,.06h0a2.8,2.8,0,0,0-.4,0,1.35,1.35,0,0,1-.92-.19s-.13,0-.12-.72,0-1.12.13-1.09.41.23.61.1.59-.08.88-.12.52,0,.79,0a3.8,3.8,0,0,1,.74-.18c.21,0,.42.18.64.24,0,0,.1,0,.15-.21h0c.06.31.12-.26.18.19h0s0,.06.06,0,.11.13.08.9c0,.17,0,.4,0,.51h0c-.06.53-.13.27-.2.29-.33,0-.65,0-1,.08a1.55,1.55,0,0,0-.6.07c-.05,0-.11.13-.16.07Z" transform="translate(0 -0.17)"/>
          <path class="cls-2" d="M122.48,79.91c0-.38-.07-.75-.06-1.13,0-1.41,0-2.83,0-4.25a1,1,0,0,0-.06-.22h0c0-.86,0-1.72,0-2.57a49.23,49.23,0,0,1,.2-6c0-.31,0-.83.72-.82s1.11.36,1.09.9a27,27,0,0,0-.11,3.92c.18,1.9.09,3.79.12,5.69,0,1.7,0,3.41,0,5.11s.19,3.2.18,4.8c0,1.39-.18,2.77-.24,4.15a1.3,1.3,0,0,0,.2,1h0c-.31.38.27.82-.19,1.18h0a1.67,1.67,0,0,0,0,.38c.12.57-.13.72-.9.53-.18,0-.4,0-.52-.13h0c-.53-.38-.28-.86-.29-1.29,0-2.11-.06-4.22-.08-6.33,0-1.29,0-2.59-.08-3.88a5.5,5.5,0,0,1-.07-1.07Z" transform="translate(0 -0.17)"/>
          <path class="cls-2" d="M119.91,91.64c.06,0,.11-.07.17-.07l.66.05s0,0,0-.06h0a2.6,2.6,0,0,0,.4,0,1.28,1.28,0,0,1,.91.2s.13,0,.13.71,0,1.12-.14,1.09-.4-.22-.6-.1-.59.08-.88.12-.53,0-.79,0a4,4,0,0,1-.74.19,2.82,2.82,0,0,1-.64-.25s-.1,0-.15.21h0c-.06-.31-.13.27-.18-.19h0s0-.06-.06,0-.11-.13-.08-.91a3.94,3.94,0,0,1,0-.51h0c.06-.52.13-.27.2-.28.32-.05.65-.06,1-.08a1.77,1.77,0,0,0,.6-.08c.06,0,.11-.13.17-.07Z" transform="translate(0 -0.17)"/>
          <path class="cls-2" d="M44.33,91.64a5.6,5.6,0,0,1,.59-.07l2.24.05s.07,0,.11-.06h0c.45,0,.9,0,1.35,0a13.73,13.73,0,0,1,3.13.2c.16,0,.44,0,.43.71s-.19,1.12-.47,1.09a7.94,7.94,0,0,0-2.06-.1,21.51,21.51,0,0,1-3,.12c-.9,0-1.79,0-2.69,0s-1.68.19-2.53.19-1.45-.18-2.18-.25a.44.44,0,0,0-.51.21h0c-.19-.31-.43.27-.62-.19h0c-.06,0-.13-.06-.2,0-.3.11-.37-.13-.28-.91a1.9,1.9,0,0,1,.07-.51h0c.2-.52.45-.27.67-.28,1.11-.06,2.23-.06,3.34-.09a17.39,17.39,0,0,0,2-.07,1.19,1.19,0,0,1,.56-.07Z" transform="translate(0 -0.17)"/>
          <path class="cls-2" d="M34.65,102.4c0-.25-.07-.49-.07-.73,0-.93,0-1.85.05-2.77,0-.05,0-.09-.06-.14h0c0-.55,0-1.11,0-1.67a20.93,20.93,0,0,1,.2-3.87c0-.2,0-.54.71-.53s1.12.23,1.09.58a12.13,12.13,0,0,0-.1,2.55,32.75,32.75,0,0,1,.12,3.7c0,1.11,0,2.22,0,3.33s.2,2.08.19,3.12-.18,1.8-.25,2.7a.63.63,0,0,0,.21.64h0c-.31.25.27.53-.19.77h0c0,.08-.06.17,0,.25.11.37-.13.46-.91.34-.17,0-.39,0-.51-.09h0c-.52-.25-.27-.56-.28-.84-.05-1.37-.06-2.74-.08-4.12,0-.84,0-1.68-.08-2.52a1.84,1.84,0,0,1-.07-.7Z" transform="translate(0 -0.17)"/>
          <path class="cls-2" d="M3.59,76.76A8.25,8.25,0,0,0,2.49,78,2.06,2.06,0,0,0,2,79c0,.24.07.36.45.79l1.18,1.28c.81.84,1.62,1.68,2.45,2.5,1.65,1.66,3.34,3.28,5.05,4.88.18.16.38.29.57.44l0,0c2.08,1.94,4.16,3.86,6.28,5.76,4.9,4.38,9.84,8.78,14.43,13.49.72.74,2,1.94,1.49,2.41s-1.64,0-2.92-1.27c-3.08-3-6.17-6.1-9.45-8.89-4.8-4.09-9.46-8.33-14.06-12.66-2.07-2-4.09-4-6-6-.25-.28-.47-.48-.75-.83a4.63,4.63,0,0,1-.41-.61A3.67,3.67,0,0,1,0,79.52a3.56,3.56,0,0,1,.78-2.68,18.35,18.35,0,0,1,3.26-3.08,18.85,18.85,0,0,0,1.46-1.23L7,71.15l2.84-2.8c1.89-1.86,3.79-3.72,5.71-5.55,3.33-3.16,6.76-6.19,10.13-9.31a12.78,12.78,0,0,0,2.21-2.39h0c1.11-.63,1.77-2.06,3-2.56h0c.31-.28.66-.55.94-.85,1.28-1.38,1.81-1.55,1.89-.55,0,.22.29.27,0,.67h0c-.56,1.26-1.87,2.17-2.9,3.16L15.59,65.54l-9.35,9c-.93.8-1.79,1.56-2.67,2.27Z" transform="translate(0 -0.17)"/>
          <path class="cls-2" d="M34.65,56.67c0-.25-.07-.49-.07-.74,0-.92,0-1.84.05-2.76a.35.35,0,0,0-.06-.14h0c0-.56,0-1.11,0-1.67a20.93,20.93,0,0,1,.2-3.87c0-.2,0-.54.71-.54s1.12.24,1.09.59a12.1,12.1,0,0,0-.1,2.55,32.67,32.67,0,0,1,.12,3.7c0,1.11,0,2.22,0,3.33s.2,2.08.19,3.12-.18,1.8-.25,2.7a.61.61,0,0,0,.21.63h0c-.31.24.27.53-.19.77h0c0,.08-.06.16,0,.24.11.37-.13.47-.91.35-.17,0-.39,0-.51-.09h0c-.52-.25-.27-.56-.28-.84-.05-1.37-.06-2.75-.08-4.12,0-.84,0-1.68-.08-2.52a1.88,1.88,0,0,1-.07-.7Z" transform="translate(0 -0.17)"/>
        </g>
      </g>
    </g>
  </g>
</svg>
