<?xml version="1.0" encoding="utf-8"?>
<!-- Generator: Adobe Illustrator 25.2.3, SVG Export Plug-In . SVG Version: 6.00 Build 0)  -->
<svg version="1.1" id="Layer_1" xmlns="http://www.w3.org/2000/svg" xmlns:xlink="http://www.w3.org/1999/xlink" x="0px" y="0px"
	 viewBox="0 0 190 150" style="enable-background:new 0 0 190 150;" xml:space="preserve">
<style type="text/css">
	.st0{fill:#231F20;}
	.st1{fill:#0048FF;}
	.st2{fill:none;}
</style>
<g>
	<g>
		<g>
			<g>
				<g>
					<g>
						<path class="st0" d="M23.7,81.1c0-1.2-0.1-2.3-0.1-3.5c0-4.4,0-8.8,0-13.2c0-0.2,0-0.4-0.1-0.7l0,0c0-2.7,0-5.3,0-8
							c0-6.2,0-12.3,0.2-18.5c0-1,0-2.6,0.7-2.6c0.7,0,1.1,1.1,1.1,2.8c-0.1,4.1-0.2,8.1-0.1,12.2c0.2,5.9,0.1,11.8,0.1,17.7
							c0,5.3,0,10.6,0,15.9c0,5,0.2,10,0.2,14.9c0,4.3-0.2,8.6-0.2,12.9c0,1-0.1,2.1,0.2,3l0,0c-0.3,1.2,0.3,2.5-0.2,3.7l0,0
							c0,0.4-0.1,0.8,0,1.2c0.1,1.8-0.1,2.2-0.9,1.6c-0.2-0.1-0.4,0-0.5-0.4c0,0,0,0,0,0l0,0c-0.5-1.2-0.3-2.7-0.3-4
							c-0.1-6.6-0.1-13.1-0.1-19.7c0-4,0-8.1-0.1-12.1C23.8,83.3,23.7,82.1,23.7,81.1L23.7,81.1z"/>
					</g>
				</g>
			</g>
			<g>
				<g>
					<g>
						<path class="st0" d="M99.2,21.9l6.7-0.1l25.3,0c0.4,0,0.9,0,1.3-0.1l0,0l15.3,0l0,0c0-0.5,0,4.2,0,2.2l0,0l0,0l-0.1,0l-0.1,0
							l-0.3,0l-0.6,0l-1.1,0l-2.2,0l-4.4,0l-8.8,0l-0.3,0l-0.1,0l0,0l0,0c0,0.5,0-4.1,0-2.2l0,0l0.1,0l0.6,0l1.1,0l2.2,0l4.4,0
							l8.8,0.1c1.8,0,5,0,4.9,0.7c-0.1,0.7-2.2,1.1-5.4,1.1c-3.9,0-7.8-0.1-11.7-0.1l-2.9,0l-1.5,0l-0.7,0l0,0l0,0l0,0
							c0,0.3,0-2.8,0-1.5l0,0l0.1,0l0.2,0l0.4,0c1.9,0,3.9,0,5.8,0l8.5-0.1l2.1,0l0.5,0l0.3,0l0.1,0l0,0l0,0c0,0.8,0-1.8,0,1.8l0,0
							l-0.1,0l-1.1,0l-4.2,0l-16.9,0l-30.4,0c-9.5,0-19,0.2-28.6,0.2c-4.1,0-8.2,0-12.3-0.1c-2.1,0-4.1,0-6.2-0.1
							c-2.1-0.1-4.1-0.2-6.2-0.3c-1.9-0.1-4-0.1-5.7,0.3l0,0c-0.5,0-1.1,0-1.7,0.1c-0.6,0.1-1.1,0.2-1.7,0.3
							c-0.5,0.2-1.1,0.3-1.6,0.5c-0.5,0.2-1,0.3-1.5,0.4l0,0c-0.3,0.2-0.6,0.3-0.9,0.5c-0.3,0.2-0.5,0.4-0.8,0.6
							c-0.1,0.1-0.3,0.2-0.4,0.4c-0.1,0.1-0.2,0.3-0.3,0.4c-0.2,0.2-0.4,0.4-0.5,0.6c-0.3,0.4-0.5,0.7-0.7,0.9
							c-0.4,0.3-0.6,0.2-0.6-0.5c0-0.3-0.4-0.1,0-1l0,0l0,0c0.2-0.6,0.6-1.1,1-1.7c0.2-0.2,0.5-0.5,0.8-0.7l0.4-0.3
							c0.1-0.1,0.3-0.2,0.5-0.3l0.9-0.5c0.3-0.1,0.7-0.3,1-0.4c0.7-0.3,1.3-0.4,2-0.6c6.4-1.4,12.8-0.3,19-0.4l18.8,0
							c7.7,0,15.4,0,23.1-0.1C95,22,97.1,21.9,99.2,21.9L99.2,21.9z"/>
					</g>
				</g>
			</g>
			<g>
				<g>
					<g>
						<path class="st0" d="M166.1,68c0,1.3,0.1,2.6,0.1,4l0,15c0,0.3,0,0.5,0.1,0.8l0,0l0,9c0,7,0,14-0.2,20.9c0,1.1,0,2.9-0.7,2.9
							c-0.7,0-1.1-1.3-1.1-3.2c0.1-4.6,0.2-9.2,0.1-13.8c-0.2-6.7-0.1-13.4-0.1-20l0-18c0-5.6-0.2-11.3-0.2-16.9l0-3.6
							c0-1.2,0-2.5,0.2-3.7c0.2-2.4,0.6-4.8,0.2-7c-0.2-1-0.6-2-1.4-2.5l0,0c-0.5-1-2.3-1.5-3-2.6l0,0c-0.4-0.3-0.7-0.6-1.1-0.8
							c-1.7-1.1-2-1.6-1-1.8c0.2-0.1,0.2-0.3,0.7-0.1l0,0l0,0c1.4,0.4,2.6,1.6,3.8,2.5c0.8,0.6,1.6,1.1,2.3,2
							c0.7,0.9,1.1,1.9,1.3,2.9c0.4,2,0.3,3.9,0.2,5.8l-0.2,2.8c0,0.5,0,0.9,0,1.3l0,1.4l0,5.6c0,4.6,0,9.1,0.1,13.7
							C166,65.5,166.1,66.7,166.1,68L166.1,68z"/>
					</g>
				</g>
			</g>
			<g>
				<g>
					<g>
						<path class="st0" d="M100.5,133.4l-6.1,0.1l-23,0c-0.4,0-0.8,0-1.2,0.1l0,0l-13.9,0c-2.7,0-5.4,0-8,0
							c-2.7,0.1-5.4,0.2-8.1,0.2c-2.7-0.1-5.5-0.3-8.3-1.2c-1.4-0.4-2.7-1.1-3.8-2c-0.3-0.2-0.6-0.4-0.8-0.7l-0.8-0.8
							c-0.5-0.5-0.9-1.1-1.3-1.8c-0.5-0.8-1-1.9-1.1-2.9c-0.2-1,0-1.8,0.3-1.7c0.7,0,1.1,1.8,2.6,4c0.9,1.4,2.1,2.5,3.5,3.3
							c1.5,0.8,3.1,1.2,4.8,1.5c3.4,0.6,6.9,0.4,10.4,0.3c2.6-0.2,5.2-0.2,7.7-0.2l7.7,0l15.4,0l27.7,0c8.7,0,17.3-0.2,26-0.2
							c3.7,0,7.5,0,11.2,0.1c3.8,0,7.5,0.5,11.2,0.4c1.7,0,3.6-0.1,5-0.7l0,0c1,0,1.9-0.5,2.7-1c0.8-0.6,1.3-1.1,2-1.8l0,0
							c0.3-0.5,0.7-1.1,0.9-1.7c0.5-1.4,0.7-2.3,1-2.7c0.3-0.4,0.5-0.3,0.7,0.3c0.1,0.3,0.4,0.1,0.3,0.8l0,0.1l0,0
							c0,1.1-0.4,2.3-1,3.4c-0.3,0.6-0.7,1.1-1.1,1.6l-0.7,0.7c-0.2,0.2-0.5,0.4-0.8,0.6c-1.3,0.9-2.8,1.3-4.3,1.6
							c-1.5,0.3-2.9,0.4-4.4,0.4c-2.9,0.1-5.8-0.1-8.6-0.2c-5.7-0.1-11.4,0-17.1,0c-7,0-14,0-21,0.1
							C104.4,133.4,102.4,133.5,100.5,133.4L100.5,133.4z"/>
					</g>
				</g>
			</g>
			<g>
				<g>
					<g>
						<path class="st0" d="M90.2,29.8c1.6,0,3.2-0.1,4.8-0.1c6,0,12.1,0,18.1,0c0.3,0,0.6,0,0.9-0.1l0,0c3.6,0,7.3,0,10.9,0
							c8.4,0,16.9,0,25.3,0.2c1.3,0,3.6,0,3.5,0.7c0,0.7-1.5,1.1-3.8,1.1c-5.6-0.1-11.1-0.2-16.7-0.1c-8.1,0.2-16.2,0.1-24.2,0.1
							c-7.2,0-14.5,0-21.8,0c-6.8,0-13.6,0.2-20.4,0.2c-5.9,0-11.7-0.2-17.6-0.2c-1.4,0-2.9-0.1-4.2,0.2l0,0c-1.6-0.3-3.5,0.3-5-0.2
							l0,0c-0.5,0-1.1-0.1-1.6,0c-2.4,0.1-3.1-0.1-2.2-0.9c0.2-0.2,0-0.4,0.6-0.5c0,0,0,0,0,0l0,0c1.6-0.5,3.7-0.3,5.5-0.3
							c9-0.1,18-0.1,26.9-0.1c5.5,0,11,0,16.5-0.1C87.2,29.8,88.7,29.7,90.2,29.8L90.2,29.8z"/>
					</g>
				</g>
			</g>
			<g>
				<g>
					<g>
						<path class="st0" d="M97.7,123.6c1.5,0,3-0.1,4.5-0.1l16.9,0c0.3,0,0.6,0,0.9-0.1l0,0l10.2,0l11.9,0l3,0l0.3,0
							c0.1,0,0,0,0.1,0l0.1,0c0,0,0,0,0,0c0,0,0,0,0,0c0,0,0.3-0.2,0.3-0.1c0.1,0,0.1,0,0.1,0c0.1,0,0.2,0,0.3,0l0.4,0
							c1-0.1,2-0.1,3-0.1c1,0,2.1,0,2.7-0.1c0.4-0.1,0.7-0.5,0.9-0.8c0.2-0.3,0.1-0.7,0.4-0.9c0.1-0.1,0.3-0.1,0.5,0
							c0.2,0.1,0.4,0.4,0.5,0.9c0.1,0.4-0.1,1-0.4,1.5c-0.3,0.5-1,0.9-1.7,1.1c-0.8,0.2-1.5,0.1-2.1,0.2l-1.9,0
							c-0.6,0-1.3,0-1.9,0.1l-0.2,0l0,0l-0.1-0.3c0-0.1-0.1-0.2-0.1-0.3c0,0,0-0.1,0-0.1l0,0c-0.1-0.2,0.8,1.2,0.4,0.7l0.1,0.1
							c0.1,0.1,0,0,0,0.1l0,0l0.1,0c0.2,0,0.4-0.1,0.5-0.2c0,0,0.1-0.1,0.1,0c0,0-0.1,0.1-0.1,0.1c-0.1,0.1-0.2,0.1-0.3,0.1
							c-0.2,0.1-0.5,0.1-0.8,0.1c-1.4,0-2.8,0-4.2,0c-1.3,0-2.6,0-3.9,0c-7.6,0.2-15.1,0.1-22.7,0.1l-20.4,0
							c-6.4,0-12.8,0.2-19.1,0.2c-5.5,0-11-0.2-16.5-0.2c-1.3,0-2.7-0.1-3.9,0.2l0,0c-1.5-0.3-3.2,0.3-4.7-0.2l0,0
							c-0.5,0-1-0.1-1.5,0c-2.3,0.1-2.9-0.1-2.1-0.9c0.2-0.2,0-0.4,0.5-0.5l0,0l0,0c1.5-0.5,3.4-0.3,5.1-0.3l25.2-0.1
							c5.2,0,10.3,0,15.5-0.1C94.9,123.6,96.3,123.5,97.7,123.6L97.7,123.6z"/>
					</g>
				</g>
			</g>
			<g>
				<g>
					<g>
						<path class="st0" d="M125.7,56.2c0.7,0,1.4-0.1,2.1-0.1c2.7,0,5.3,0,8,0c0.1,0,0.3,0,0.4-0.1l0,0c1.6,0,3.2,0,4.8,0
							c3.7,0,7.4,0,11.1,0.2c0.6,0,1.6,0,1.5,0.7c0,0.7-0.7,1.1-1.7,1.1c-2.4-0.1-4.9-0.2-7.3-0.1c-3.6,0.2-7.1,0.1-10.7,0.1
							c-3.2,0-6.4,0-9.6,0c-3,0-6,0.2-9,0.2c-2.6,0-5.2-0.2-7.8-0.2c-0.6,0-1.3-0.1-1.8,0.2l0,0c-0.7-0.3-1.5,0.3-2.2-0.2l0,0
							c-0.2,0-0.5-0.1-0.7,0c-1.1,0.1-1.3-0.1-1-0.9c0.1-0.2,0-0.4,0.2-0.5c0,0,0,0,0,0l0,0c0.7-0.5,1.6-0.3,2.4-0.3
							c4-0.1,7.9-0.1,11.9-0.1c2.4,0,4.9,0,7.3-0.1C124.4,56.2,125.1,56.1,125.7,56.2L125.7,56.2z"/>
					</g>
				</g>
			</g>
			<g>
				<g>
					<g>
						<path class="st0" d="M58.6,56.2c0.7,0,1.3-0.1,2-0.1c2.5,0,5,0,7.6,0c0.1,0,0.3,0,0.4-0.1l0,0c1.5,0,3.1,0,4.6,0
							c3.5,0,7.1,0,10.6,0.2c0.6,0,1.5,0,1.5,0.7c0,0.7-0.6,1.1-1.6,1.1c-2.3-0.1-4.7-0.2-7-0.1c-3.4,0.2-6.8,0.1-10.1,0.1
							c-3,0-6.1,0-9.1,0c-2.8,0-5.7,0.2-8.5,0.2c-2.5,0-4.9-0.2-7.4-0.2c-0.6,0-1.2-0.1-1.7,0.2l0,0c-0.7-0.3-1.4,0.3-2.1-0.2l0,0
							c-0.2,0-0.5-0.1-0.7,0c-1,0.1-1.3-0.1-0.9-0.9c0.1-0.2,0-0.4,0.2-0.5c0,0,0,0,0,0l0,0c0.7-0.5,1.5-0.3,2.3-0.3
							c3.8-0.1,7.5-0.1,11.3-0.1c2.3,0,4.6,0,6.9-0.1C57.3,56.2,57.9,56.1,58.6,56.2L58.6,56.2z"/>
					</g>
				</g>
			</g>
			<g>
				<g>
					<g>
						<path class="st0" d="M90.5,63.2c1.6,0,3.2-0.1,4.8-0.1c6.1,0,12.1,0,18.2,0c0.3,0,0.6,0,0.9-0.1l0,0c3.7,0,7.3,0,11,0
							c8.5,0,17,0,25.4,0.2c1.3,0,3.6,0,3.5,0.7c0,0.7-1.6,1.1-3.9,1.1c-5.6-0.1-11.2-0.2-16.7-0.1c-8.1,0.2-16.2,0.1-24.3,0.1
							c-7.3,0-14.6,0-21.9,0c-6.8,0-13.7,0.2-20.5,0.2c-5.9,0-11.8-0.2-17.7-0.2c-1.4,0-2.9-0.1-4.2,0.2l0,0c-1.6-0.3-3.5,0.3-5-0.2
							l0,0c-0.5,0-1.1-0.1-1.6,0c-2.4,0.1-3.1-0.1-2.3-0.9c0.2-0.2,0-0.4,0.6-0.5c0,0,0,0,0,0l0,0c1.6-0.5,3.7-0.3,5.5-0.3
							c9-0.1,18-0.1,27.1-0.1c5.5,0,11.1,0,16.6-0.1C87.4,63.2,89,63.1,90.5,63.2L90.5,63.2z"/>
					</g>
				</g>
			</g>
			<g>
				<g>
					<g>
						<path class="st0" d="M155.1,44.7c0,0.3,0.1,0.5,0.1,0.8c0,1,0,1.9,0,2.9c0,0,0,0.1,0.1,0.1l0,0c0,0.6,0,1.2,0,1.7
							c0,1.3,0,2.7-0.2,4c0,0.2,0,0.6-0.7,0.6c-0.7,0-1.1-0.2-1.1-0.6c0.1-0.9,0.2-1.8,0.1-2.6c-0.2-1.3-0.1-2.6-0.1-3.8
							c0-1.1,0-2.3,0-3.4c0-1.1-0.2-2.2-0.2-3.2c0-0.9,0.2-1.9,0.2-2.8c0-0.2,0.1-0.5-0.2-0.7l0,0c0.3-0.3-0.3-0.5,0.2-0.8l0,0
							c0-0.1,0.1-0.2,0-0.3c-0.1-0.4,0.1-0.5,0.9-0.4c0.2,0,0.4,0,0.5,0.1c0,0,0,0,0,0l0,0c0.5,0.3,0.3,0.6,0.3,0.9
							c0.1,1.4,0.1,2.8,0.1,4.3c0,0.9,0,1.7,0.1,2.6C155,44.3,155.1,44.5,155.1,44.7L155.1,44.7z"/>
					</g>
				</g>
			</g>
			<g>
				<g>
					<g>
						<path class="st0" d="M35.1,44.9c0,0.3,0.1,0.5,0.1,0.8c0,1,0,1.9,0,2.9c0,0,0,0.1,0.1,0.1l0,0c0,0.6,0,1.2,0,1.8
							c0,1.4,0,2.7-0.2,4.1c0,0.2,0,0.6-0.7,0.6c-0.7,0-1.1-0.2-1.1-0.6c0.1-0.9,0.2-1.8,0.1-2.7c-0.2-1.3-0.1-2.6-0.1-3.9
							c0-1.2,0-2.3,0-3.5c0-1.1-0.2-2.2-0.2-3.3c0-0.9,0.2-1.9,0.2-2.8c0-0.2,0.1-0.5-0.2-0.7l0,0c0.3-0.3-0.3-0.6,0.2-0.8l0,0
							c0-0.1,0.1-0.2,0-0.3c-0.1-0.4,0.1-0.5,0.9-0.4c0.2,0,0.4,0,0.5,0.1c0,0,0,0,0,0l0,0c0.5,0.3,0.3,0.6,0.3,0.9
							c0.1,1.4,0.1,2.9,0.1,4.3c0,0.9,0,1.8,0.1,2.7C35.1,44.4,35.2,44.6,35.1,44.9L35.1,44.9z"/>
					</g>
				</g>
			</g>
			<g>
				<g>
					<g>
						<path class="st0" d="M155.1,90.4c0,0.7,0.1,1.4,0.1,2.1c0,2.7,0,5.3,0,8c0,0.1,0,0.3,0.1,0.4l0,0c0,1.6,0,3.2,0,4.9
							c0,3.7,0,7.5-0.2,11.2c0,0.6,0,1.6-0.7,1.6c-0.7,0-1.1-0.7-1.1-1.7c0.1-2.5,0.2-4.9,0.1-7.4c-0.2-3.6-0.1-7.2-0.1-10.7
							c0-3.2,0-6.4,0-9.6c0-3-0.2-6-0.2-9.1c0-2.6,0.2-5.2,0.2-7.8c0-0.6,0.1-1.3-0.2-1.8l0,0c0.3-0.7-0.3-1.5,0.2-2.2l0,0
							c0-0.2,0.1-0.5,0-0.7c-0.1-1.1,0.1-1.4,0.9-1c0.2,0.1,0.4,0,0.5,0.2c0,0,0,0,0,0l0,0c0.5,0.7,0.3,1.6,0.3,2.4
							c0.1,4,0.1,8,0.1,11.9c0,2.4,0,4.9,0.1,7.3C155,89,155.1,89.7,155.1,90.4L155.1,90.4z"/>
					</g>
				</g>
			</g>
			<g>
				<g>
					<g>
						<path class="st0" d="M35.1,97.5c0,0.9,0.1,1.8,0.1,2.8l0,10.4c0,0.2,0,0.4,0.1,0.5l0,0l0,6.3l0,1.8c0,0.7-0.1,1.3-0.1,1.9
							c0,0.6,0,1.1,0.1,1.4c0.1,0.3,0.2,0.5,0.5,0.6c0.3,0.2,0.8,0.2,1.4,0.2l1.8,0l3.6,0.1c0.8,0,2,0,2,0.7c0,0.7-0.9,1.1-2.2,1.1
							c-1.6,0-3.2-0.1-4.8-0.1c-0.8,0-1.7,0-2.7-0.5c-0.5-0.2-0.9-0.6-1.2-1.1c-0.3-0.5-0.4-1-0.4-1.4c0-4.7,0-9.3,0-14l0-12.5
							c0-3.9-0.2-7.8-0.2-11.8c0-3.4,0.2-6.8,0.2-10.1c0-0.8,0.1-1.6-0.2-2.4l0,0c0.3-0.9-0.3-2,0.2-2.9l0,0c0-0.3,0.1-0.6,0-0.9
							c-0.1-1.4,0.1-1.8,0.9-1.3c0.2,0.1,0.4,0,0.5,0.3l0,0l0,0c0.5,0.9,0.3,2.1,0.3,3.2L35,85.4c0,3.2,0,6.3,0.1,9.5
							C35.1,95.8,35.2,96.7,35.1,97.5L35.1,97.5z"/>
					</g>
				</g>
			</g>
			<g>
				<g>
					<g>
						<path class="st0" d="M53.1,54.1c0-0.1-0.1-0.2-0.1-0.3c0-0.3,0-0.7,0-1c0,0,0,0-0.1-0.1l0,0c0-0.2,0-0.4,0-0.6
							c0-0.5,0-1,0.2-1.5c0-0.1,0-0.2,0.7-0.2c0.7,0,1.1,0.1,1.1,0.2c-0.1,0.3-0.2,0.6-0.1,1c0.2,0.5,0.1,0.9,0.1,1.4
							c0,0.4,0,0.8,0,1.3c0,0.4,0.2,0.8,0.2,1.2c0,0.3-0.2,0.7-0.2,1c0,0.1-0.1,0.2,0.2,0.2l0,0c-0.3,0.1,0.3,0.2-0.2,0.3l0,0
							c0,0-0.1,0.1,0,0.1c0.1,0.1-0.1,0.2-0.9,0.1c-0.2,0-0.4,0-0.5,0c0,0,0,0,0,0l0,0c-0.5-0.1-0.3-0.2-0.3-0.3
							c-0.1-0.5-0.1-1-0.1-1.6c0-0.3,0-0.6-0.1-1C53.1,54.2,53,54.2,53.1,54.1L53.1,54.1z"/>
					</g>
				</g>
			</g>
			<g>
				<g>
					<g>
						<path class="st0" d="M62.6,53.3c0,0.1,0.1,0.2,0.1,0.3c0,0.4,0,0.8,0,1.1c0,0,0,0,0.1,0.1l0,0c0,0.2,0,0.5,0,0.7
							c0,0.5,0,1.1-0.2,1.6c0,0.1,0,0.2-0.7,0.2c-0.7,0-1.1-0.1-1.1-0.2c0.1-0.3,0.2-0.7,0.1-1c-0.2-0.5-0.1-1-0.1-1.5
							c0-0.5,0-0.9,0-1.4c0-0.4-0.2-0.8-0.2-1.3c0-0.4,0.2-0.7,0.2-1.1c0-0.1,0.1-0.2-0.2-0.3l0,0c0.3-0.1-0.3-0.2,0.2-0.3l0,0
							c0,0,0.1-0.1,0-0.1c-0.1-0.2,0.1-0.2,0.9-0.1c0.2,0,0.4,0,0.5,0c0,0,0,0,0,0l0,0c0.5,0.1,0.3,0.2,0.3,0.3
							c0.1,0.6,0.1,1.1,0.1,1.7c0,0.3,0,0.7,0.1,1C62.6,53.1,62.7,53.2,62.6,53.3L62.6,53.3z"/>
					</g>
				</g>
			</g>
			<g>
				<path class="st1" d="M70.9,41.3c0-0.1-0.1-0.1-0.2-0.2c-1.7-1.3-3.2-3-5-4.2c-0.9-0.7-1.8-1.3-2.9-1.7C61.9,35,60.9,35,59.9,35
					c-1.6,0-3.2-0.1-4.8-0.1c-1.3,0-2.6-0.1-3.8,0.3c-1.1,0.3-2.1,1-3,1.6c-1.9,1.3-3.7,2.7-5.6,4c-0.7,0.5,3.4,3.1,3.7,3.2
					c1.9,1.2,3.7,2.4,5.6,3.5c0.5,0.3,0.9,0.6,1.5,0.7c0.6,0.2,1.3,0.2,2,0.1c1.6-0.1,3.1-0.1,4.7-0.2c0.5,0,1,0,1.5-0.2
					c0.6-0.2,1.2-0.5,1.7-0.8c1.5-0.9,3-1.7,4.6-2.6c0.8-0.4,1.6-0.8,2.3-1.4C70.8,43,71.4,42,70.9,41.3z"/>
			</g>
			<g>
				<path class="st1" d="M69.6,84c-2.4,1.7-4.8,3.3-7.2,5c-0.3,0.2-0.6,0.4-1,0.6c-0.4,0.1-0.9,0.2-1.4,0.2c-1.1,0-2.3,0.1-3.4,0.1
					c-0.9,0-1.8,0.1-2.6-0.1c-0.5-0.1-1-0.4-1.5-0.6c-2.5-1.2-4.9-2.7-7.1-4.3l-1.6-1.1c2-2.2,4.4-4.3,7-6.1
					c0.7-0.5,1.4-0.9,2.2-1.2c0.9-0.2,1.8-0.2,2.7-0.2c1.4,0,2.9,0,4.3,0c0.7,0,1.4,0,2.1,0.2c0.5,0.2,0.9,0.4,1.3,0.7
					c2.6,1.8,5.2,3.6,7.7,5.5L69.6,84z"/>
			</g>
			<g>
				<path class="st1" d="M83,47.3c1.6-1,3.1-1.9,4.7-2.9c0.6-0.3,1.1-0.8,1.7-1c0.5-0.2,1.1-0.2,1.6-0.2c0.8,0,1.6-0.1,2.4-0.1
					c1.1,0,2.3-0.1,3.5,0.1c0.5,0.1,1,0.4,1.5,0.6c2.5,1.2,4.9,2.7,7.1,4.3l0.5,0.3c0.6,0.4,0.7,1.2,0.2,1.7
					c-1.8,1.9-3.9,3.6-6.1,5.1c-0.7,0.5-1.4,0.9-2.2,1.2c-0.9,0.2-1.8,0.2-2.7,0.2c-1.4,0-2.9,0-4.3,0c-0.7,0-1.4,0-2.1-0.2
					c-0.5-0.2-0.9-0.4-1.3-0.7l-7.2-5.1c-0.3-0.2-0.3-0.5,0-0.7L83,47.3z"/>
			</g>
			<g>
				<path class="st1" d="M44,98.1c2.7-1.9,5.5-3.7,8.2-5.6c0.3-0.2,0.6-0.4,0.9-0.5c0.4-0.1,0.8-0.1,1.3-0.1c1.5,0,3.1,0,4.6,0
					c0.9,0,1.8,0,2.6,0.3c0.4,0.2,0.8,0.4,1.2,0.6c2.3,1.4,4.7,2.8,7,4.2c0.3,0.2,0.6,0.4,0.7,0.7c0.1,0.5-0.5,0.9-1.1,1.2
					c-2.3,1.2-4.5,2.7-6.2,4.4c-0.3,0.2-0.5,0.5-0.9,0.6c-0.3,0.1-0.7,0.1-1,0.1c-1.8,0.1-3.5,0.1-5.3,0.2c-0.9,0-1.9,0.1-2.8-0.1
					c-1.4-0.3-2.6-1-3.7-1.6c-1.7-1-3.5-2.1-5.2-3.1L44,98.1z"/>
			</g>
			<g>
				<path class="st1" d="M70.5,114.2c-1.7,2.3-4.6,3.7-7.4,5c-0.5,0.2-1,0.5-1.5,0.6c-0.5,0.1-1.1,0.1-1.7,0.1
					c-1.8-0.1-3.5-0.1-5.3-0.2c-0.4,0-0.8,0-1.2-0.2c-0.5-0.2-0.8-0.6-1.2-1c-1.5-1.6-4.1-2.2-6-3.4c-0.5-0.3-1.1-0.8-1.1-1.3
					c-0.1-0.7,0.6-1.2,1.2-1.6c1.9-1.4,3.8-2.9,5.7-4.3l0.6-0.8c2-0.3,4.1-0.5,6.1-0.5c0.9,0,1.8,0,2.6,0.2c0.7,0.2,1.3,0.6,1.9,1
					c2.8,1.7,5.5,3.5,8.3,5.2L70.5,114.2z"/>
			</g>
			<g>
				<g>
					<g>
						<path class="st0" d="M54.8,70.5c0,0.1,0.1,0.2,0.1,0.3l-0.1,1.1c0,0,0,0,0.1,0.1l0,0c0,0.2-0.1,0.5-0.1,0.7
							c0,0.5,0,1.1-0.3,1.6c0,0.1,0,0.2-0.7,0.2c-0.7,0-1.1-0.1-1.1-0.3c0.1-0.4,0.3-0.7,0.2-1.1c-0.2-0.5,0-1,0-1.5
							c0-0.5,0.1-0.9,0-1.4c0-0.4-0.1-0.9-0.1-1.3c0-0.4,0.2-0.7,0.3-1.1c0-0.1,0.1-0.2-0.2-0.3l0,0c0.3-0.1-0.3-0.2,0.2-0.3l0,0
							c0,0,0.1-0.1,0-0.1C53,66.9,53.2,66.9,54,67c0.2,0,0.4,0,0.5,0.1l0,0l0,0c0.5,0.1,0.3,0.3,0.3,0.4c0,0.6,0,1.1,0,1.7
							c0,0.3-0.1,0.7,0,1C54.8,70.3,54.9,70.4,54.8,70.5L54.8,70.5z"/>
					</g>
				</g>
			</g>
			<g>
				<g>
					<g>
						<path class="st0" d="M62.5,70.4c0,0.1,0.1,0.2,0.1,0.3c0,0.4-0.1,0.8-0.1,1.1c0,0,0,0,0.1,0.1l0,0c0,0.2,0,0.5,0,0.7
							c0,0.5,0,1.1-0.2,1.6c0,0.1,0,0.2-0.7,0.2c-0.7,0-1.1-0.1-1.1-0.3c0.1-0.3,0.2-0.7,0.1-1.1c-0.2-0.5-0.1-1-0.1-1.5
							c0-0.5,0-0.9,0-1.4c0-0.4-0.2-0.9-0.1-1.3c0-0.4,0.2-0.7,0.3-1.1c0-0.1,0.1-0.2-0.2-0.3l0,0c0.3-0.1-0.3-0.2,0.2-0.3l0,0
							c0,0,0.1-0.1,0-0.1c-0.1-0.2,0.1-0.2,0.9-0.1c0.2,0,0.4,0,0.5,0.1c0,0,0,0,0,0l0,0c0.5,0.1,0.3,0.2,0.3,0.4c0,0.6,0,1.1,0,1.7
							c0,0.3,0,0.7,0,1C62.5,70.2,62.6,70.3,62.5,70.4L62.5,70.4z"/>
					</g>
				</g>
			</g>
			<g>
				<g>
					<g>
						<path class="st0" d="M89.7,70.5c0,0.1,0.1,0.2,0.1,0.3l-0.1,1.1c0,0,0,0,0.1,0.1l0,0c0,0.2-0.1,0.5-0.1,0.7
							c0,0.5,0,1.1-0.3,1.6c0,0.1,0,0.2-0.7,0.2c-0.7,0-1.1-0.1-1.1-0.3c0.1-0.4,0.3-0.7,0.2-1.1c-0.2-0.5,0-1,0-1.5
							c0-0.5,0.1-0.9,0-1.4c0-0.4-0.1-0.9-0.1-1.3c0-0.4,0.2-0.7,0.3-1.1c0-0.1,0.1-0.2-0.2-0.3l0,0c0.3-0.1-0.3-0.2,0.2-0.3l0,0
							c0,0,0.1-0.1,0-0.1c-0.1-0.2,0.1-0.2,0.9-0.1c0.2,0,0.4,0,0.5,0.1l0,0l0,0c0.5,0.1,0.3,0.3,0.3,0.4c0,0.6,0,1.1,0,1.7
							c0,0.3-0.1,0.7,0,1C89.6,70.3,89.7,70.4,89.7,70.5L89.7,70.5z"/>
					</g>
				</g>
			</g>
			<g>
				<g>
					<g>
						<path class="st0" d="M97.4,70.4c0,0.1,0.1,0.2,0.1,0.3c0,0.4-0.1,0.8-0.1,1.1c0,0,0,0,0.1,0.1l0,0c0,0.2,0,0.5,0,0.7
							c0,0.5,0,1.1-0.2,1.6c0,0.1,0,0.2-0.7,0.2c-0.7,0-1.1-0.1-1.1-0.3c0.1-0.3,0.2-0.7,0.1-1.1c-0.2-0.5-0.1-1-0.1-1.5
							c0-0.5,0-0.9,0-1.4c0-0.4-0.2-0.9-0.1-1.3c0-0.4,0.2-0.7,0.3-1.1c0-0.1,0.1-0.2-0.2-0.3l0,0c0.3-0.1-0.3-0.2,0.2-0.3l0,0
							c0,0,0.1-0.1,0-0.1c-0.1-0.2,0.1-0.2,0.9-0.1c0.2,0,0.4,0,0.5,0.1c0,0,0,0,0,0l0,0c0.5,0.1,0.3,0.2,0.3,0.4c0,0.6,0,1.1,0,1.7
							c0,0.3,0,0.7,0,1C97.3,70.2,97.4,70.3,97.4,70.4L97.4,70.4z"/>
					</g>
				</g>
			</g>
			<g>
				<g>
					<g>
						<path class="st0" d="M131.5,117.6c0-0.1-0.1-0.2-0.1-0.3l0.1-1.3c0,0,0,0-0.1-0.1l0,0c0-0.3,0.1-0.5,0.1-0.8
							c0-0.6,0-1.2,0.3-1.8c0-0.1,0-0.3,0.7-0.2c0.7,0,1.1,0.1,1.1,0.3c-0.1,0.4-0.3,0.8-0.2,1.2c0.2,0.6,0,1.2,0,1.8
							c0,0.5-0.1,1.1,0,1.6c0,0.5,0.1,1,0.1,1.5c0,0.4-0.2,0.9-0.3,1.3c0,0.1-0.1,0.2,0.2,0.3l0,0c-0.3,0.1,0.3,0.3-0.2,0.4l0,0
							c0,0-0.1,0.1,0,0.1c0.1,0.2-0.1,0.2-0.9,0.1c-0.2,0-0.4,0-0.5-0.1l0,0l0,0c-0.5-0.1-0.3-0.3-0.3-0.4c0-0.7,0-1.3,0-2
							c0-0.4,0.1-0.8,0-1.2C131.6,117.9,131.5,117.7,131.5,117.6L131.5,117.6z"/>
					</g>
				</g>
			</g>
			<g>
				<g>
					<g>
						<path class="st0" d="M123.9,117.7c0-0.1-0.1-0.2-0.1-0.4c0-0.4,0.1-0.9,0.1-1.3c0,0,0,0-0.1-0.1l0,0c0-0.3,0-0.5,0-0.8
							c0-0.6,0-1.2,0.2-1.8c0-0.1,0-0.3,0.7-0.2c0.7,0,1.1,0.1,1.1,0.3c-0.1,0.4-0.2,0.8-0.1,1.2c0.2,0.6,0.1,1.2,0.1,1.8
							c0,0.5,0,1.1,0,1.6c0,0.5,0.2,1,0.1,1.5c0,0.4-0.2,0.9-0.3,1.3c0,0.1-0.1,0.2,0.2,0.3l0,0c-0.3,0.1,0.3,0.3-0.2,0.4l0,0
							c0,0-0.1,0.1,0,0.1c0.1,0.2-0.1,0.2-0.9,0.1c-0.2,0-0.4,0-0.5-0.1c0,0,0,0,0,0l0,0c-0.5-0.1-0.3-0.3-0.3-0.4c0-0.7,0-1.3,0-2
							c0-0.4,0-0.8,0-1.2C123.9,118,123.8,117.8,123.9,117.7L123.9,117.7z"/>
					</g>
				</g>
			</g>
			<g>
				<g>
					<g>
						<path class="st0" d="M90.6,38c0,0.1,0.1,0.2,0.1,0.3c0,0.4,0,0.8,0,1.1c0,0,0,0,0.1,0.1l0,0c0,0.2,0,0.5,0,0.7
							c0,0.5,0,1.1-0.2,1.6c0,0.1,0,0.2-0.7,0.2c-0.7,0-1.1-0.1-1.1-0.2c0.1-0.4,0.2-0.7,0.1-1.1c-0.2-0.5-0.1-1-0.2-1.5
							c0-0.5,0-0.9-0.1-1.4c0-0.4-0.2-0.9-0.2-1.3c0-0.4,0.2-0.7,0.2-1.1c0-0.1,0-0.2-0.2-0.3l0,0c0.3-0.1-0.3-0.2,0.2-0.3l0,0
							c0,0,0.1-0.1,0-0.1c-0.1-0.1,0.1-0.2,0.9-0.2c0.2,0,0.4,0,0.5,0c0,0,0,0,0,0l0,0c0.5,0.1,0.3,0.2,0.3,0.3
							c0.1,0.6,0.1,1.1,0.1,1.7c0,0.3,0,0.7,0.1,1C90.5,37.8,90.6,37.9,90.6,38L90.6,38z"/>
					</g>
				</g>
			</g>
			<g>
				<g>
					<g>
						<path class="st0" d="M97.8,38c0,0.1,0.1,0.2,0.1,0.3c0,0.4,0,0.7,0,1.1c0,0,0,0,0.1,0.1l0,0c0,0.2,0,0.4,0,0.6
							c0,0.5,0,1-0.2,1.5c0,0.1,0,0.2-0.7,0.2c-0.7,0-1.1-0.1-1.1-0.2c0.1-0.3,0.2-0.7,0.1-1c-0.2-0.5-0.1-0.9-0.1-1.4
							c0-0.4,0-0.9,0-1.3c0-0.4-0.2-0.8-0.2-1.2c0-0.3,0.2-0.7,0.2-1c0-0.1,0.1-0.2-0.2-0.2l0,0c0.3-0.1-0.3-0.2,0.2-0.3l0,0
							c0,0,0.1-0.1,0-0.1c-0.1-0.1,0.1-0.2,0.9-0.1c0.2,0,0.4,0,0.5,0c0,0,0,0,0,0l0,0c0.5,0.1,0.3,0.2,0.3,0.3
							c0.1,0.5,0.1,1.1,0.1,1.6c0,0.3,0,0.6,0.1,1C97.8,37.8,97.9,37.9,97.8,38L97.8,38z"/>
					</g>
				</g>
			</g>
			<g>
				<path class="st1" d="M78.9,83.1c1.9-0.8,3.6-1.9,4.9-3.3c0.9-0.9,1.7-2.1,3.1-2.6c1-0.4,2.2-0.4,3.3-0.4c1.7,0,3.4,0,5.1-0.1
					c0.5,0,1.1,0,1.6,0.1c0.6,0.1,1.1,0.4,1.6,0.7c2.4,1.3,4.9,2.6,7.3,3.9c0.5,0.3,1,0.6,0.9,1.1c0,0.2-0.2,0.4-0.4,0.6
					c-1.9,1.9-3.7,3.9-5.6,5.8c-0.4,0.4-0.7,0.8-1.3,1C99.1,90,98.6,90,98.1,90c-1.6,0.1-3.2,0.1-4.8,0.2c-0.8,0-1.7,0.1-2.5-0.1
					c-1.1-0.2-2.1-0.6-3-1.1c-2.6-1.2-5.3-2.5-7.9-3.7L78.9,83.1z"/>
			</g>
			<g>
				<path class="st1" d="M89.7,92.1c2.8,0.3,5.7-0.5,8.3,0.4c0.6,0.2,1.1,0.5,1.7,0.8c0.8,0.4,1.6,0.9,2.4,1.3
					c1.4,0.7,2.7,1.4,3.8,2.4c0.3,0.2,0.5,0.5,0.5,0.8c0,0.3-0.3,0.6-0.6,0.8c-2.4,1.7-4.7,3.3-7.1,5l-1.2,1.3c-2.5,0-4.9,0-7.4,0
					c-0.5,0-0.9,0-1.3-0.1c-0.3-0.1-0.6-0.3-0.8-0.5c-2.5-1.8-5.1-3.5-7.6-5.3c-0.5-0.3-1-0.7-0.9-1.2c0-0.3,0.3-0.6,0.5-0.8
					c2.1-2.1,4.9-3.9,7.9-5.1L89.7,92.1z"/>
			</g>
			<g>
				<path class="st1" d="M85.6,108.4c-1.5,1.6-3.2,3.1-5.1,4.4c-0.3,0.2-0.7,0.5-0.8,0.8c-0.2,0.6,0.5,1.1,1,1.4c2,1.3,4,2.5,6,3.8
					l2.4,1.4c2.6,0,5.1,0,7.7-0.1c1.2,0,2.5,0,3.6-0.5c1-0.4,1.7-1.1,2.4-1.9c1.1-1.2,2.2-2.3,3.3-3.5c0.3-0.3,0.6-0.7,0.4-1
					c-0.1-0.1-0.2-0.3-0.4-0.4c-1.1-0.8-2.3-1.7-3.4-2.5c-1.2-0.9-2.5-1.8-3.9-2.4c-3.1-1.3-6.9-1-10.4-0.8L85.6,108.4z"/>
			</g>
			<g>
				<path class="st1" d="M135.9,107.6c1.9-1.8,3.8-3.5,5.8-5.3c0.1-0.1,0.1-0.1,0.2-0.2c0.1-0.2-0.1-0.4-0.2-0.6
					c-2-2.1-5.3-3.1-8-4.6c-0.5-0.3-0.9-0.6-1.5-0.7c-0.4-0.1-0.8-0.1-1.3-0.1c-1.8,0-3.5,0-5.3,0l-2,0.1c-3.7,1.6-6.9,4-9.1,6.9
					c-0.1,0.2-0.3,0.4-0.2,0.6c0,0.3,0.4,0.5,0.7,0.7c2.5,1.3,5,2.6,7.5,4c0.4,0.2,0.9,0.5,1.4,0.6c0.4,0.1,0.8,0.1,1.3,0.1
					c2.8,0.1,5.6,0.1,8.3,0.2L135.9,107.6z"/>
			</g>
			<g>
				<path class="st1" d="M133.1,93.7c-3.6,0.3-7.3,0.6-10.5-0.7c-1.2-0.5-2.2-1.2-3.2-1.8c-1.4-0.9-5.2-2-4.7-3.9
					c0.6-2.3,5.5-3.6,7.5-5c0.5-0.3,0.9-0.6,1.5-0.8c0.5-0.1,1-0.1,1.6-0.1c1.6,0,3.1,0.1,4.7,0.1c0.6,0,1.2,0,1.8,0.2
					c0.6,0.2,1.1,0.5,1.7,0.8c2.4,1.4,4.7,2.8,7.1,4.1c0.4,0.2,0.8,0.6,0.7,1c-0.1,0.2-0.3,0.4-0.5,0.5c-2.3,1.4-4.3,3.1-5.8,5.1
					L133.1,93.7z"/>
			</g>
			<g>
				<path class="st1" d="M130.8,67.3c-2.8,0-5.6,0-8.4,0c-0.4,0-0.8,0-1.2,0.2c-0.4,0.2-0.6,0.5-0.8,0.8c-1.3,1.9-3.1,3.6-5.2,4.9
					c-0.2,0.1-0.4,0.3-0.3,0.5c0,0.1,0.1,0.1,0.2,0.2c2.9,1.5,5.7,3.1,8.6,4.6c0.3,0.2,0.6,0.3,0.9,0.4c0.5,0.1,1,0.1,1.5,0.1
					c1.4-0.1,2.9-0.1,4.3-0.2l2.4,0.1c1-0.9,2.7-1.1,3.8-1.9c0.4-0.3,0.8-0.7,1.2-1c1-0.9,2.1-1.7,3.4-2.3c0.4-0.2,0.9-0.4,1-0.8
					c0.1-0.4-0.3-0.8-0.7-1.1c-2.3-1.7-4.8-3.3-7.4-4.8L130.8,67.3z"/>
			</g>
			<g>
				<g>
					<g>
						<path class="st0" d="M125.8,51.6c0,0.1,0.1,0.2,0.1,0.3l0,1.3c0,0,0,0,0.1,0.1l0,0c0,0.3,0,0.5,0,0.8c0.1,0.6,0.1,1.1,0,1.7
							c0,0.1,0,0.2-0.7,0.4c-0.7,0.1-1.1,0.1-1.1-0.1c0-0.4,0.1-0.9,0-1.3c-0.2-0.6-0.2-1.2-0.2-1.8c0-0.5,0-1.1,0-1.6
							c0-0.5-0.1-1-0.1-1.5c0-0.4,0.3-0.9,0.4-1.3c0-0.1,0.1-0.2-0.1-0.3l0,0c0.3-0.1-0.2-0.3,0.3-0.3l0,0c0,0,0.1-0.1,0.1-0.1
							c-0.1-0.2,0.2-0.2,0.9,0c0.2,0.1,0.4,0.1,0.5,0.2l0,0l0,0c0.5,0.2,0.2,0.3,0.2,0.4c-0.1,0.6-0.1,1.2-0.2,1.9
							c0,0.4-0.1,0.8,0,1.2C125.8,51.4,125.9,51.5,125.8,51.6L125.8,51.6z"/>
					</g>
				</g>
			</g>
			<g>
				<g>
					<g>
						<path class="st0" d="M132.9,51.6c0,0.1,0,0.2,0,0.3l-0.1,1.2c0,0,0,0,0.1,0.1l0,0c0,0.2-0.1,0.5-0.1,0.7c0,0.6,0,1.1-0.1,1.6
							c0,0.1,0,0.2-0.7,0.4c-0.7,0.2-1.1,0.2-1.1,0c0-0.5,0.1-0.9,0-1.3c-0.2-0.6-0.1-1.2-0.1-1.8c0-0.5,0.1-1,0.1-1.5
							c0-0.5-0.1-1-0.1-1.4c0-0.4,0.2-0.8,0.2-1.1c0-0.1,0-0.2-0.2-0.2l0,0c0.3-0.1-0.3-0.2,0.1-0.3l0,0c0,0,0-0.1,0-0.1
							c-0.1-0.1,0.1-0.2,0.9-0.3c0.2,0,0.4-0.1,0.5-0.1l0,0l0,0c0.5,0,0.3,0.2,0.4,0.4c0.2,0.7,0.2,1.4,0.1,2.1c0,0.4-0.1,0.8,0,1.2
							C132.9,51.4,133,51.5,132.9,51.6L132.9,51.6z"/>
					</g>
				</g>
			</g>
			<g>
				<path class="st1" d="M115.9,38c1.3-0.8,2.5-1.6,3.8-2.5c0.7-0.5,1.5-1,2.4-1.2c0.9-0.2,1.8-0.3,2.7-0.3c3.2,0,6.5,0,9.7-0.1
					c0.2,0,0.3,0,0.5,0c0.3,0.1,0.5,0.2,0.7,0.4c1.7,1.4,3.5,2.7,5.5,3.8l0.3,1.1c-2,3.1-6.6,4.2-9.5,6.7c-0.2,0.1-0.3,0.3-0.6,0.3
					c-0.1,0-0.3,0-0.4,0c-2-0.1-4.1-0.3-6.1-0.4c-0.4,0-0.8-0.1-1.1-0.2c-0.4-0.1-0.7-0.4-1-0.6c-2.5-2-5.1-3.7-7.8-5.4
					c-0.5-0.3-0.5-1,0-1.3C115.4,38.4,115.9,38.1,115.9,38z"/>
			</g>
		</g>
		<rect x="1.6" y="-54" class="st2" width="186.7" height="186.7"/>
	</g>
</g>
</svg>
