<?xml version="1.0" encoding="utf-8"?>
<!-- Generator: Adobe Illustrator 25.2.3, SVG Export Plug-In . SVG Version: 6.00 Build 0)  -->
<svg version="1.1" id="Layer_1" xmlns="http://www.w3.org/2000/svg" xmlns:xlink="http://www.w3.org/1999/xlink" x="0px" y="0px"
	 viewBox="0 0 190 150" style="enable-background:new 0 0 190 150;" xml:space="preserve">
<style type="text/css">
	.st0{fill:#231F20;}
	.st1{fill:#FBA92C;}
</style>
<g>
	<g>
		<g>
			<g>
				<g>
					<path class="st0" d="M116.4,141.4c1.4,0,2.8-0.1,4.3-0.1c5.4,0,10.7,0,16.1,0c0.3,0,0.5,0,0.8-0.1l0,0c3.2,0,6.5,0,9.7,0
						c7.5,0,15,0,22.5,0.2c1.2,0,3.2,0,3.1,0.7c0,0.7-1.4,1.1-3.4,1.1c-4.9-0.1-9.9-0.2-14.8-0.1c-7.2,0.2-14.4,0.1-21.5,0.1
						c-6.4,0-12.9,0-19.3,0c-6.1,0-12.1,0.2-18.2,0.2c-5.2,0-10.4-0.2-15.7-0.2c-1.2,0-2.5-0.1-3.7,0.2l0,0
						c-1.4-0.3-3.1,0.3-4.5-0.2l0,0c-0.5,0-1-0.1-1.4,0c-2.1,0.1-2.7-0.1-2-0.9c0.2-0.2,0-0.4,0.5-0.5c0,0,0,0,0,0l0,0
						c1.5-0.5,3.2-0.3,4.9-0.3c8-0.1,16-0.1,23.9-0.1c4.9,0,9.8,0,14.7-0.1C113.7,141.4,115,141.3,116.4,141.4L116.4,141.4z"/>
				</g>
			</g>
		</g>
		<g>
			<g>
				<g>
					<path class="st0" d="M36.2,141.4c0.5,0,1.1-0.1,1.6-0.1c2,0,4.1,0,6.1,0c0.1,0,0.2,0,0.3-0.1l0,0c1.2,0,2.5,0,3.7,0
						c2.9,0,5.7,0,8.5,0.2c0.4,0,1.2,0,1.2,0.7c0,0.7-0.5,1.1-1.3,1.1c-1.9-0.1-3.8-0.2-5.6-0.1c-2.7,0.2-5.5,0.1-8.2,0.1
						c-2.4,0-4.9,0-7.3,0c-2.3,0-4.6,0.2-6.9,0.2c-2,0-4-0.2-6-0.2c-0.5,0-1-0.1-1.4,0.2l0,0c-0.5-0.3-1.2,0.3-1.7-0.2l0,0
						c-0.2,0-0.4-0.1-0.5,0c-0.8,0.1-1-0.1-0.8-0.9c0.1-0.2,0-0.4,0.2-0.5c0,0,0,0,0,0l0,0c0.6-0.5,1.2-0.3,1.9-0.3
						c3-0.1,6.1-0.1,9.1-0.1c1.9,0,3.7,0,5.6-0.1C35.1,141.4,35.7,141.3,36.2,141.4L36.2,141.4z"/>
				</g>
			</g>
		</g>
		<g>
			<g>
				<g>
					<path class="st0" d="M59.3,110.8c0.1,0.8,0.3,1.6,0.3,2.5c0.3,3.1,0.7,6.2,1,9.3c0,0.2,0.1,0.3,0.1,0.5l0,0
						c0.2,1.9,0.4,3.8,0.6,5.6c0.5,4.4,1,8.7,1.3,13.1c0,0.7,0.2,1.8-0.5,1.9c-0.7,0.1-1.2-0.7-1.3-1.9c-0.3-2.9-0.4-5.8-0.9-8.6
						c-0.6-4.2-1-8.3-1.5-12.5c-0.5-3.7-0.8-7.5-1.3-11.2c-0.4-3.5-1-7-1.4-10.5c-0.3-3-0.5-6.1-0.8-9.1c-0.1-0.7-0.1-1.5-0.4-2.1
						l0,0c0.2-0.9-0.5-1.8-0.1-2.6l0,0c0-0.3,0-0.6-0.1-0.8c-0.3-1.2,0-1.6,0.8-1.3c0.2,0.1,0.4-0.1,0.5,0.2c0,0,0,0,0,0l0,0
						c0.6,0.8,0.5,1.9,0.6,2.8c0.6,4.6,1.1,9.3,1.7,13.9c0.3,2.8,0.6,5.7,1,8.5C59.1,109.3,59.2,110.1,59.3,110.8L59.3,110.8z"/>
				</g>
			</g>
		</g>
		<g>
			<g>
				<g>
					<path class="st0" d="M30.4,86.7c-0.5,0.1-1.1,0.2-1.6,0.2c-2,0.2-4.1,0.3-6.1,0.5c-0.1,0-0.2,0.1-0.3,0.1l0,0
						c-1.2,0.1-2.5,0.2-3.7,0.3c-2.9,0.3-5.7,0.5-8.6,0.6c-0.4,0-1.2,0.1-1.3-0.6c0-0.7,0.4-1.2,1.2-1.2c1.9-0.1,3.8-0.1,5.7-0.4
						c2.7-0.4,5.5-0.6,8.2-0.8c2.5-0.2,4.9-0.4,7.4-0.7c2.3-0.2,4.6-0.6,6.9-0.8c2-0.2,4-0.2,6-0.3c0.5,0,1,0,1.4-0.3l0,0
						c0.6,0.3,1.1-0.4,1.7,0l0,0c0.2,0,0.4,0,0.6,0c0.8-0.2,1,0,0.8,0.8c0,0.2,0,0.4-0.1,0.5c0,0,0,0,0,0l0,0
						c-0.5,0.6-1.2,0.4-1.8,0.4c-3,0.3-6.1,0.6-9.1,0.9c-1.9,0.2-3.7,0.3-5.6,0.6C31.4,86.6,30.9,86.7,30.4,86.7L30.4,86.7z"/>
				</g>
			</g>
		</g>
		<g>
			<g>
				<g>
					<path class="st0" d="M18.4,52.7c0.6-0.7,1.3-1.4,1.9-2.1c2.6-2.5,5.5-4.6,8.5-6.4c0.2-0.1,0.3-0.2,0.4-0.3l0,0
						c1.9-1.1,3.8-2,5.8-2.9c4.5-2,9.3-3.4,14.2-4.2c0.8-0.1,2-0.4,2.1,0.3c0.1,0.7-0.7,1.3-1.9,1.5c-3.1,0.5-6.2,1.3-9.2,2.4
						c-4.3,1.7-8.5,3.5-12.3,6.1c-3.4,2.3-6.5,5-9.1,8.1c-2.5,3-4.3,6.4-5.8,9.8c-1.3,3-2.4,6.2-2.9,9.5C9.9,75.4,9.8,76.2,10,77
						l0,0c-0.4,0.9,0.1,1.9-0.4,2.8l0,0c0,0.3-0.1,0.6,0,0.9c0.1,1.3,0,1.7-0.9,1.3c-0.2-0.1-0.4,0-0.5-0.3l0,0l0,0
						c-0.6-0.9-0.3-2.2-0.3-3.2c0.2-5.3,1.5-10.5,3.7-15.3c1.3-3,3.1-5.7,5-8.3C17.3,54.1,17.8,53.4,18.4,52.7L18.4,52.7z"/>
				</g>
			</g>
		</g>
		<g>
			<g>
				<g>
					<path class="st0" d="M81,79.7c0.6-0.1,1.1-0.2,1.7-0.2c2.1-0.2,4.2-0.4,6.3-0.6c0.1,0,0.2-0.1,0.3-0.1l0,0
						c1.3-0.1,2.5-0.2,3.8-0.4c2.9-0.3,5.9-0.6,8.8-0.7c0.5,0,1.2-0.1,1.3,0.6c0.1,0.7-0.4,1.2-1.2,1.2c-1.9,0.1-3.9,0.2-5.8,0.5
						c-2.8,0.5-5.6,0.6-8.4,1c-2.5,0.3-5.1,0.5-7.6,0.8c-2.4,0.3-4.7,0.7-7.1,0.9c-2,0.2-4.1,0.2-6.2,0.4c-0.5,0-1,0-1.4,0.4l0,0
						c-0.6-0.3-1.2,0.4-1.8,0l0,0c-0.2,0-0.4,0-0.6,0c-0.8,0.2-1.1,0-0.9-0.8c0-0.2,0-0.4,0.1-0.5c0,0,0,0,0,0l0,0
						c0.5-0.6,1.2-0.4,1.9-0.5c3.1-0.4,6.3-0.7,9.4-1c1.9-0.2,3.8-0.4,5.7-0.7C80,79.8,80.5,79.7,81,79.7L81,79.7z"/>
				</g>
			</g>
		</g>
		<g>
			<g>
				<g>
					<path class="st0" d="M84,45.5c0.7,0.5,1.5,0.9,2.2,1.5c2.7,2,5.2,4.3,7.5,6.8c0.1,0.1,0.2,0.2,0.4,0.4l0,0
						c1.3,1.5,2.6,3.2,3.7,4.9c2.7,3.9,4.8,8.2,6.1,12.6c0.2,0.7,0.6,1.9,0,2.1c-0.7,0.2-1.3-0.4-1.7-1.6c-0.4-1.4-1-2.8-1.6-4.2
						c-0.3-0.7-0.6-1.4-1-2c-0.3-0.7-0.7-1.3-1.1-2c-2.3-3.7-4.8-7.3-7.8-10.3c-2.7-2.8-5.8-5.2-9.2-7.2c-3.1-1.9-6.5-3.3-10-4.4
						c-3-1-6-1.9-9.1-2.5c-0.7-0.1-1.5-0.3-2.2-0.1l0,0c-0.8-0.4-1.9,0.1-2.7-0.4l0,0c-0.3,0-0.6-0.1-0.9-0.1
						c-1.3,0.1-1.6-0.1-1.2-0.9c0.1-0.2,0-0.4,0.3-0.5l0,0l0,0c0.9-0.5,2-0.2,3.1-0.2c5,0.3,9.9,1.4,14.6,3.1c2.9,1,5.7,2.4,8.4,3.8
						C82.5,44.7,83.3,45,84,45.5L84,45.5z"/>
				</g>
			</g>
		</g>
		<g>
			<g>
				<g>
					<path class="st0" d="M38.2,58c-0.1,0.5-0.2,1-0.3,1.5l-0.2,0.7l-0.1,0.7l-0.3,1.4c-0.2,0.9-0.3,1.9-0.4,2.8c0,0.1,0,0.2,0,0.3
						l0,0c-0.2,1.1-0.1,2.3-0.1,3.4c0.1,2.6,0.4,5.3,0.8,7.9c0.1,0.4,0.2,1.1-0.5,1.3c-0.7,0.2-1.2-0.2-1.3-1
						c-0.1-0.9-0.3-1.8-0.4-2.7c-0.1-0.9-0.2-1.8-0.3-2.7c-0.3-1.3-0.3-2.6-0.3-4c-0.1-1.3,0.2-2.7,0.2-4c0.1-1.2,0.4-2.4,0.6-3.5
						c0.3-1.2,0.6-2.3,1-3.5c0.7-2.1,1.5-4.3,2.6-6.2c1-1.7,2.2-3.2,3.5-4.7c0.3-0.3,0.6-0.7,0.7-1.2l0,0c0.6-0.2,0.6-1,1.3-1.1l0,0
						c0.1-0.1,0.3-0.2,0.4-0.4c0.5-0.6,0.9-0.6,1.2,0.2c0.1,0.2,0.3,0.3,0.2,0.5l0,0l0,0c0,0.7-0.6,1-1,1.4
						c-1.9,2.1-3.5,4.4-4.9,6.9c-0.8,1.5-1.6,3.1-2,4.8C38.5,57.1,38.4,57.6,38.2,58L38.2,58z"/>
				</g>
			</g>
		</g>
		<g>
			<g>
				<g>
					<path class="st0" d="M69.7,56.4c0.2,0.4,0.4,0.8,0.6,1.3c0.7,1.7,1.2,3.4,1.7,5.1c0,0.1,0.1,0.2,0.1,0.2l0,0l0.8,3.1
						c0.3,1.2,0.5,2.4,0.7,3.7c0.2,1.2,0.3,2.5,0.4,3.7c0,0.4,0.1,1-0.6,1.1c-0.7,0.1-1.2-0.3-1.2-1c-0.2-1.6-0.2-3.2-0.7-4.7
						c-0.3-1.1-0.5-2.3-0.9-3.4c-0.3-1.1-0.5-2.2-0.9-3.3c-0.3-1-0.6-2-1-2.9c-0.4-1-0.7-1.9-1.2-2.8l-0.6-1.3l-0.7-1.2
						c-0.5-0.8-1-1.6-1.5-2.4c-0.9-1.4-1.7-2.8-2.8-4.1c-0.2-0.3-0.5-0.6-0.9-0.7l0,0c-0.1-0.5-0.9-0.5-0.9-1.1l0,0
						c-0.1-0.1-0.2-0.2-0.3-0.3c-0.6-0.3-0.5-0.6,0-1.1c0.1-0.1,0.2-0.3,0.4-0.3l0,0l0,0c0.7-0.1,1.1,0.5,1.5,0.9
						c2,1.8,3.6,4,5.1,6.2l0.6,1l0.6,1.1c0.4,0.7,0.8,1.4,1.1,2.2C69.3,55.6,69.6,56,69.7,56.4L69.7,56.4z"/>
				</g>
			</g>
		</g>
	</g>
	<g>
		<g>
			<g>
				<g>
					<path class="st1" d="M120.3,57.4c-0.3-0.9-0.4-1.7-0.5-2.6c-0.1-0.9-0.2-1.8-0.2-2.7c0.1-3.4,0.9-6.7,2.5-9.7
						c1.6-3,4-5.5,6.7-7.4c0.3-0.2,0.6-0.4,0.8-0.6l0,0c0.9-0.6,1.8-1,2.7-1.4c1-0.3,1.9-0.7,2.9-1c1-0.3,2-0.4,3-0.6
						c0.5-0.1,1-0.1,1.5-0.1l0.8,0l0.8,0c4.7,0.1,9.4,2,12.9,5.1c3.6,3.1,6,7.5,6.7,12c0.3,1.4,0.3,3.9-0.4,3.9
						c-0.8-0.1-1.2-1.6-1.6-3.8c-1-5.4-4.6-10.5-9.7-12.9c-1.8-0.9-3.8-1.5-5.8-1.8c-2-0.3-4-0.3-6,0.1c-2,0.3-3.9,1-5.7,1.9
						c-1.8,1-3.4,2.2-4.8,3.7c-2.5,2.6-4.2,6-4.8,9.5c-0.4,1.8-0.3,3.6-0.2,5.4c0.2,1.8,0.7,3.5,1.4,5.2c0.7,1.5,1.6,3,2.6,4.3
						c1.1,1.3,2.3,2.5,3.7,3.4c0.3,0.3,0.7,0.5,1.1,0.7c0.4,0.2,0.7,0.4,1.1,0.6c0.8,0.3,1.5,0.7,2.3,1c1.6,0.6,3.2,0.9,4.9,1.1
						c2.9,0.2,5.8-0.2,8.5-1.2c2.7-1,5.2-2.8,7.1-5c0.5-0.5,0.9-1.1,1.3-1.7c0.4-0.6,0.7-1.2,0.9-1.9l0,0c1-1.3,1.1-3.2,1.9-4.6l0,0
						c0.2-0.5,0.2-1.1,0.3-1.6c0.1-0.6,0.1-1.1,0.1-1.5c0-0.4,0.1-0.7,0.2-0.8c0.2-0.4,0.5-0.3,0.9,0.1c0.2,0.2,0.4,0,0.5,0.6l0,0
						l0,0c0.3,0.9,0.2,1.9,0,2.9c-0.1,0.5-0.3,1-0.4,1.5c-0.1,0.5-0.3,1-0.5,1.5c-1.6,4.7-5,8.7-9.3,11.2c-4.3,2.5-9.5,3.2-14.4,2.3
						c-6-1.2-11.3-5.3-14.2-10.6c-0.4-0.8-0.8-1.5-1.1-2.3l-0.5-1.2C120.5,58.2,120.4,57.8,120.3,57.4L120.3,57.4z"/>
				</g>
			</g>
			<circle class="st1" cx="140.6" cy="52.4" r="19.8"/>
		</g>
		<g>
			<g>
				<g>
					<path class="st1" d="M142.3,13.7c0.2,0.1,0.6,0.1,0.9,0.4c1.3,1,1.5,2.4,1.3,3.6c0,0.1,0,0.1,0,0.2l0,0
						c-0.1,0.7-0.4,1.3-0.6,1.9c-0.5,1.2-1,2.4-1.8,3.4c-0.1,0.2-0.3,0.5-1,0.2c-0.7-0.3-1.1-0.7-0.9-1c0.4-0.7,0.9-1.4,1.1-2.3
						c0.3-1.2,0.9-2.2,0.8-3.1c0-0.4-0.2-0.7-0.3-0.9c-0.2-0.2-0.2-0.1-1.2-0.6c-0.4-0.2-0.7-0.5-0.9-0.9c-0.2-0.3-0.2-0.7-0.2-1.1
						c0-0.4,0.1-0.8,0.2-1c0.1-0.4,0.2-0.8,0.4-1.2c0.4-0.9,1-1.6,1.5-2.4c0.1-0.2,0.3-0.4,0.1-0.7l0,0c0.4,0,0-0.6,0.6-0.6l0,0
						c0.1-0.1,0.2-0.1,0.2-0.2c0.1-0.4,0.4-0.3,1,0.3c0.1,0.1,0.4,0.3,0.4,0.4l0,0l0,0c0.3,0.5,0,0.6-0.2,0.8
						c-0.7,1.1-1.2,2.3-1.7,3.5l-0.3,0.9c0,0.1,0,0.1,0,0.2c0,0,0.1,0,0.1,0c0,0,0.1,0,0.1,0c0,0,0,0,0,0
						C142.2,13.6,142.3,13.7,142.3,13.7L142.3,13.7z"/>
				</g>
			</g>
		</g>
		<g>
			<g>
				<g>
					<path class="st1" d="M167.3,27.7c-0.1,0.1-0.2,0.2-0.2,0.2c0,0-0.1,0.1-0.2,0.4c-0.1,0.3-0.2,0.9-0.5,1.5c0,0.1,0,0.1,0,0.2
						l0,0c-0.4,0.8-1.1,1.3-1.8,1.6c-0.8,0.4-1.6,0.5-2.4,0.5c-0.8,0-1.5-0.2-2.1-0.5c-0.2-0.1-0.5-0.2-0.3-0.9
						c0.2-0.8,0.5-1.2,0.8-1.1c0.7,0.2,1.5,0.5,2.1,0.3c0.4-0.2,0.9-0.3,1.2-0.6c0.2-0.1,0.3-0.2,0.4-0.4c0.1-0.1,0.1-0.3,0.2-0.5
						c0.1-0.4,0.1-1.1,0.7-1.9c0.3-0.4,0.7-0.7,1-0.8c0.4-0.2,0.7-0.3,1-0.3c1-0.2,2-0.6,3-0.7c0.9-0.1,1.8-0.1,2.6-0.2
						c0.2,0,0.4,0,0.6-0.3l0,0c0.3,0.3,0.5-0.4,0.8,0.1l0,0c0.1,0,0.2,0,0.2,0c0.3-0.2,0.5,0.1,0.5,1c0,0.2,0.1,0.4,0,0.6l0,0l0,0
						c-0.1,0.6-0.5,0.4-0.8,0.5c-1.3,0.3-2.6,0.5-4,0.8c-0.8,0.2-1.6,0.3-2.4,0.5C167.6,27.5,167.4,27.7,167.3,27.7L167.3,27.7z"/>
				</g>
			</g>
		</g>
		<g>
			<g>
				<g>
					<path class="st1" d="M175.8,55.2c0,0-0.1,0.2-0.2,0.4c-0.2,0.2-0.4,0.4-0.7,0.7c-0.3,0.2-0.7,0.4-1.1,0.4c-0.8,0.1-1.5,0-2-0.2
						c-0.1,0-0.1,0-0.2,0l0,0c-0.7-0.3-1.2-0.7-1.8-1.2c-1.1-1-1.8-1.9-2.5-2.4c-0.1-0.1-0.3-0.1-0.2-0.9c0.1-0.8,0.5-1.2,0.9-1
						c1.1,0.5,1.6,1.3,2.4,1.8c0.3,0.2,0.5,0.4,0.7,0.6c0.2,0.2,0.4,0.3,0.6,0.5c0.4,0.3,0.9,0.5,1.3,0.6c0.4,0,0.5,0,0.7-0.2
						c0.1-0.1,0.3-0.3,0.5-0.6c0.3-0.3,0.7-0.6,1.2-0.7c1-0.2,1.7,0.1,2.3,0.3c0.6,0.3,1.1,0.5,1.4,0.8c0.7,0.4,1.4,0.9,2.2,1.3
						c0.2,0.1,0.4,0.2,0.6-0.1l0,0c0.1,0.4,0.5-0.2,0.6,0.4l0,0c0.1,0,0.1,0.1,0.2,0.1c0.4-0.1,0.4,0.2,0.1,1.1
						c-0.1,0.2-0.1,0.4-0.2,0.6l0,0l0,0c-0.4,0.5-0.6,0.2-0.9,0.1c-1.5-0.3-2.9-0.9-4.1-1.6c-0.4-0.2-0.7-0.5-1-0.6
						C176.3,55.1,176,55.1,175.8,55.2C175.8,55.2,175.8,55.3,175.8,55.2L175.8,55.2z"/>
				</g>
			</g>
		</g>
		<g>
			<g>
				<g>
					<path class="st1" d="M168.4,81.9C168.4,81.9,168.4,82,168.4,81.9c0,0.1-0.1,0.1-0.3,0.2c-0.3,0.1-0.7,0.3-1.2,0.3
						c-0.4,0-0.9,0-1.2-0.2c-0.8-0.3-1.3-0.7-1.7-1.2c0,0-0.1-0.1-0.2-0.1l0,0c-0.5-0.6-0.8-1.3-1.1-2c-0.5-1.5-0.7-2.7-1.2-3.5
						c-0.1-0.1-0.3-0.3,0.2-0.9c0.4-0.7,1-0.8,1.4-0.4c0.8,1,0.9,2.1,1.3,2.9c0.3,0.6,0.5,1.3,0.7,1.7c0.2,0.5,0.6,0.9,0.9,1.2
						c0.3,0.2,0.6,0.3,0.8,0.2c0.1,0,0.2-0.1,0.7-0.3c0.5-0.2,1.1-0.3,1.6-0.1c0.5,0.2,0.8,0.4,1.1,0.6c0.3,0.2,0.5,0.4,0.8,0.6
						c0.5,0.4,0.9,0.9,1.3,1.5c0.6,1,0.9,2.1,1.1,3.1c0,0.3,0.1,0.5,0.4,0.7l0,0c-0.3,0.3,0.4,0.6-0.1,1l0,0c0,0.1,0,0.2,0,0.3
						c0.1,0.5-0.1,0.6-1,0.4c-0.2,0-0.4,0-0.6-0.1l0,0l0,0c-0.6-0.2-0.3-0.5-0.4-0.8c-0.2-1.3-0.7-2.6-1.5-3.6
						c-0.2-0.3-0.5-0.6-0.8-0.9c-0.3-0.3-0.6-0.6-0.9-0.6C168.4,81.9,168.4,82,168.4,81.9L168.4,81.9z"/>
				</g>
			</g>
		</g>
		<g>
			<g>
				<g>
					<path class="st1" d="M140.3,86.9C140.3,86.9,140.4,86.8,140.3,86.9L140.3,86.9C140.4,86.8,140.4,86.8,140.3,86.9l0.2,0
						c0.2,0,0.5,0.1,0.8,0.2c0.7,0.3,1.3,1,1.5,1.6c0,0.1,0.1,0.1,0.1,0.2l0,0c0.2,0.8,0.2,1.4,0.1,2.1c-0.1,0.8-0.4,1.4-0.6,1.9
						c-0.2,0.5-0.4,0.9-0.5,1.2c0,0.1,0,0.3-0.7,0.5c-0.8,0.2-1.3,0-1.3-0.4c0.1-1.1,0.6-1.8,0.7-2.6c0.1-0.6,0.2-0.9,0.2-1.3
						c0-0.4-0.1-0.8-0.2-0.9c-0.1-0.1-0.1-0.1-0.2-0.1c-0.1,0-0.3-0.1-0.6-0.1c-0.4-0.1-0.9-0.3-1.2-0.6c-0.3-0.3-0.5-0.7-0.6-1.2
						c0-0.2-0.1-0.5-0.1-0.6l0-0.4c0-0.3,0-0.5,0-0.8c0-0.5,0.1-1.1,0.2-1.6c0.2-0.9,0.7-1.7,1.2-2.4c0.1-0.2,0.3-0.3,0.1-0.7l0,0
						c0.4,0,0-0.6,0.6-0.5l0,0c0.1-0.1,0.1-0.1,0.2-0.2c0.1-0.4,0.4-0.3,1,0.4c0.1,0.1,0.4,0.3,0.4,0.4l0,0l0,0
						c0.3,0.5,0,0.6-0.1,0.8c-0.6,1-1,2-1.2,3.1c-0.1,0.3-0.1,0.7-0.1,1c0,0.2,0,0.3,0,0.5c0,0.1,0,0.2,0,0.3
						C140.2,86.7,140.2,86.8,140.3,86.9C140.3,86.9,140.4,86.8,140.3,86.9L140.3,86.9z"/>
				</g>
			</g>
		</g>
		<g>
			<g>
				<g>
					<path class="st1" d="M116.1,74.9C116.2,74.9,116.2,74.9,116.1,74.9c0.1,0,0.1,0,0.2,0.1l0.2,0.4c0.2,0.3,0.4,0.7,0.5,1.4
						c0,0.4-0.1,0.9-0.3,1.2c0,0.1,0,0.2-0.1,0.2l0,0c-0.6,0.9-1.2,1.1-1.8,1.4c-0.3,0.1-0.7,0.2-1,0.3l-0.8,0.1
						c-0.5,0.1-0.8,0.2-1,0.2c-0.1,0-0.1,0.1-0.8-0.1c-0.8-0.2-1.1-0.7-0.7-1.2c0.4-0.5,1-0.7,1.4-0.8c0.4-0.1,0.8-0.2,1.2-0.3
						c0.2-0.1,0.5-0.2,0.7-0.3c0.2-0.1,0.4-0.2,0.5-0.3c0.2-0.1,0.3-0.2,0.3-0.2c0,0,0-0.1,0-0.2l0,0c0,0,0,0,0-0.1
						c0-0.1,0-0.1-0.1-0.2c-0.1-0.1-0.2-0.3-0.3-0.5c-0.2-0.3-0.4-0.7-0.5-1.1c-0.1-0.4-0.1-0.8,0.1-1.2c0-0.1,0.1-0.1,0.1-0.2
						c0.2-0.3,0.5-0.6,0.8-0.8c0.2-0.1,0.4-0.2,0.6-0.3l0.4-0.2c0.4-0.2,0.8-0.3,1.3-0.5c0.8-0.2,1.6-0.2,2.5-0.3
						c0.2,0,0.4,0,0.5-0.3l0,0c0.3,0.3,0.4-0.4,0.7,0.1l0,0c0.1,0,0.2,0,0.2,0c0.3-0.2,0.4,0.1,0.5,1c0,0.2,0.1,0.4,0,0.6l0,0l0,0
						c-0.1,0.6-0.4,0.4-0.7,0.4c-1.1,0.3-2.3,0.5-3.4,0.9l-1,0.3l-0.1,0l0,0c0,0,0,0,0,0C116.1,74.7,116.1,74.8,116.1,74.9
						L116.1,74.9C116.1,74.9,116.2,74.9,116.1,74.9L116.1,74.9z"/>
				</g>
			</g>
		</g>
		<g>
			<g>
				<g>
					<path class="st1" d="M106,53.4C106,53.4,106,53.4,106,53.4C106,53.4,105.9,53.4,106,53.4c-0.1,0-0.1,0-0.1-0.1
						c-0.3-0.6-0.6-1.2-0.6-1.7c0-0.5,0.3-1.1,0.7-1.4c0.1-0.1,0.3-0.2,0.5-0.3c0.1,0,0.1-0.1,0.1-0.1l0,0c0.4-0.1,0.9-0.1,1.3-0.1
						l1,0.1c1.2,0.1,2.4,0.3,3.4,0.9c0.2,0.1,0.5,0.2,0.2,0.9c-0.3,0.8-0.6,1.1-0.8,1c-0.6-0.3-1.3-0.6-2-0.6c-0.5,0-0.9,0-1.4,0
						l-0.2,0c0,0-0.1,0-0.1,0c0,0,0,0,0,0c0,0.1,0,0.1,0,0.2c0,0.1,0-0.1,0.3,0.8c0,0.4,0.1,0.7,0,1.1c-0.1,0.4-0.3,0.7-0.6,1
						c-0.1,0.1-0.3,0.3-0.5,0.4c-0.2,0.1-0.3,0.2-0.5,0.2c-0.6,0.3-1.2,0.4-1.9,0.3c-0.7-0.1-1-0.4-1.4-0.6
						c-0.4-0.2-0.7-0.5-0.9-0.6c-0.1-0.1-0.3-0.2-0.5,0.1l0,0c-0.1-0.4-0.3,0.2-0.4-0.3l0,0c0,0-0.1-0.1-0.1,0
						c-0.1,0.1-0.3-0.1-0.3-1c0-0.2-0.1-0.4,0-0.6l0,0l0,0c0.2-0.6,0.7-0.3,0.9-0.3c0.8,0.1,1.4,0.4,1.9,0.6
						c0.3,0.1,0.5,0.2,0.7,0.3c0.1,0,0.2,0.1,0.3,0.1c0.1,0,0.2,0,0.3,0c0.2,0,0.5,0,0.7-0.1c0.1,0,0.2-0.1,0.2-0.1
						C106.1,53.6,106.1,53.5,106,53.4C106.1,53.5,105.9,53.4,106,53.4L106,53.4z"/>
				</g>
			</g>
		</g>
		<g>
			<g>
				<g>
					<path class="st1" d="M116.1,26.9c0.1,0,0.2,0,0.2,0c0.1,0,0.1,0,0.3-0.1c0.2-0.1,0.4-0.4,1.2-0.8c0.1,0,0.1-0.1,0.2-0.2l0,0
						c0.3-0.1,0.6-0.1,0.9-0.1c0.6,0,1.1,0.3,1.6,0.7c0.8,0.8,0.9,1.6,1,2.2c0,0.6,0,1,0.1,1.2c0,0.1,0,0.1-0.5,0.7
						c-0.5,0.6-1.1,0.7-1.3,0.3c-0.2-0.5-0.3-1-0.3-1.4c0-0.4,0-0.7-0.2-0.9c-0.1-0.1-0.1-0.2-0.2-0.3c0-0.1-0.1-0.1-0.1-0.1
						c-0.1,0-0.1-0.1-0.2-0.1c0,0-0.1,0-0.1,0c-0.1,0,0,0-0.2,0.1c-0.1,0.1-0.3,0.3-0.6,0.5c-0.2,0.2-0.6,0.4-1,0.5
						c-0.8,0.2-1.5,0-2.1-0.3c-1-0.6-1.8-1.4-2.3-2.3c-0.3-0.7-0.4-1.4-0.7-1.9c-0.1-0.1-0.1-0.2-0.4-0.1l0,0
						c0.1-0.4-0.3,0.1-0.2-0.4l0,0c0,0,0-0.1-0.1-0.1c-0.2,0.1-0.2-0.2,0.1-1c0.1-0.2,0.1-0.4,0.2-0.5l0,0l0,0c0.5-0.5,0.7,0,1,0.1
						c1.3,0.9,1.7,2.2,2.2,3.1c0.3,0.5,0.6,1,1.1,1.1C115.9,26.9,116.1,26.8,116.1,26.9L116.1,26.9z"/>
				</g>
			</g>
		</g>
	</g>
</g>
</svg>
