<?xml version="1.0" encoding="utf-8"?>
<!-- Generator: Adobe Illustrator 25.2.3, SVG Export Plug-In . SVG Version: 6.00 Build 0)  -->
<svg version="1.1" id="Layer_1" xmlns="http://www.w3.org/2000/svg" xmlns:xlink="http://www.w3.org/1999/xlink" x="0px" y="0px"
	 viewBox="0 0 190 150" style="enable-background:new 0 0 190 150;" xml:space="preserve">
<style type="text/css">
	.st0{fill:#231F20;}
	.st1{fill:#33BBA8;}
	.st2{fill:#FFFFFF;}
</style>
<g>
	<g>
		<g>
			<g>
				<g>
					<path class="st0" d="M179.4,47.2c-0.4,2.2-0.8,4.4-1.3,6.6c-1.8,8.2-3.9,16.4-6.1,24.5c-0.1,0.4-0.2,0.8-0.3,1.3l0,0l-3.9,14.7
						c-2.9,11.4-5.9,22.8-9.1,34.1c-0.5,1.8-1.3,4.8-1.9,4.6c-0.7-0.2-0.5-2.4,0.3-5.5c2-7.5,4.1-15,5.9-22.4
						c2.6-10.9,5.6-21.8,8.4-32.7c2.5-9.8,4.9-19.6,6.7-29.5c0.4-2.3,0.8-4.7,1.1-7l0.5-3.5c0.1-0.6,0.2-1.2,0.1-1.6
						c0-0.4-0.1-0.6-0.4-0.8c-0.4-0.4-1.5-0.5-2.6-0.5l-3.6,0.2c-2.4,0.1-4.8,0.1-7.1,0.2c-8.2,0.1-16.4-0.3-24.6-0.4
						c-1.9,0-4-0.1-5.8,0.2l0,0c-2.2-0.3-4.8,0.3-7-0.1l0,0c-0.8,0-1.5,0-2.2,0c-3.3,0.2-4.2,0-3.2-0.8c0.2-0.2-0.1-0.4,0.8-0.5
						l0.1,0l0,0c2.3-0.6,5.1-0.4,7.6-0.5c12.5-0.2,25.1,0.3,37.5,0.1c1.9,0,3.8-0.1,5.7-0.2c1,0,1.9-0.1,3-0.1
						c0.5,0,1.1,0.1,1.7,0.4c0.6,0.2,1.2,0.7,1.5,1.3c0.4,0.6,0.5,1.3,0.5,1.9c0,0.6-0.1,1.1-0.2,1.5l-0.4,2.9
						c-0.3,1.9-0.5,3.8-0.9,5.7C180.2,43.1,179.9,45.2,179.4,47.2L179.4,47.2z"/>
				</g>
			</g>
		</g>
		<g>
			<g>
				<g>
					<path class="st0" d="M111.5,77.4l-1,4c-1.3,5.1-2.6,10.2-3.8,15.3c-0.1,0.3-0.1,0.5-0.1,0.8l0,0l-2.2,9.3
						c-1.6,7.2-3.4,14.4-5.4,21.4c-0.3,1.1-0.8,3-1.5,2.8c-0.7-0.2-0.7-1.6-0.2-3.5c1.3-4.7,2.6-9.3,3.6-14.1
						c1.5-6.9,3.1-13.7,4.7-20.6c1.4-6.2,3.1-12.3,4.7-18.4l4.6-17.2c1.3-4.9,2.8-9.8,4-14.8c0.3-1.2,0.6-2.4,0.6-3.6l0,0
						c0.6-1.3,0.4-3,1.1-4.2l0,0c0.1-0.5,0.3-0.9,0.3-1.4c0.3-2.1,0.7-2.6,1.3-1.7c0.1,0.2,0.4,0.1,0.4,0.6l0,0l0,0
						c0.2,1.5-0.4,3.2-0.7,4.7c-1.6,7.7-3.6,15.3-5.6,22.9c-1.3,4.6-2.6,9.3-3.8,13.9C112.1,74.9,111.9,76.2,111.5,77.4L111.5,77.4z
						"/>
				</g>
			</g>
		</g>
		<g>
			<g>
				<g>
					<path class="st0" d="M91.9,132.2l-5.4,0.1l-20.6,0.2c-0.3,0-0.7,0-1,0.1l0,0l-12.4,0.1c-9.6,0.2-19.2,0.3-28.8,0.3
						c-1.5,0-4,0-4-0.6c0-0.7,1.7-1.2,4.3-1.2c6.3-0.1,12.7,0,18.9-0.2c9.2-0.3,18.4-0.4,27.5-0.5l24.7-0.2
						c7.7-0.1,15.5-0.3,23.2-0.3c6.7,0,13.4,0.2,20,0.3c1.6,0,3.2,0.1,4.7-0.2l0,0c1.8,0.3,3.9-0.2,5.7,0.2l0,0c0.6,0,1.2,0.1,1.8,0
						c2.7-0.1,3.5,0.2,2.5,0.9c-0.2,0.2,0,0.4-0.6,0.5l0,0l0,0c-1.9,0.5-4.2,0.2-6.2,0.2l-30.6,0c-6.3,0-12.5,0-18.8,0.1
						C95.3,132.1,93.6,132.2,91.9,132.2L91.9,132.2z"/>
				</g>
			</g>
		</g>
		<g>
			<g>
				<g>
					<path class="st0" d="M50.7,121.7c1.1,0,2.2-0.1,3.2-0.1l12.2,0c0.2,0,0.4,0,0.6-0.1l0,0l7.4,0c5.7-0.1,11.4-0.1,17.1,0.1
						c0.9,0,2.4,0,2.4,0.7c0,0.7-1,1.1-2.6,1.1c-3.7,0-7.5-0.2-11.2,0c-5.4,0.2-10.9,0.2-16.3,0.2l-14.7,0.1
						c-4.6,0.1-9.2,0.3-13.8,0.3c-4,0-7.9-0.1-11.9-0.2c-1,0-1.8,0-2.1,0.5l0,0c-0.3,0-0.5,0.4-0.6,0.8c-0.1,0.4-0.1,0.9-0.3,1.3
						l0,0c0,0.3,0,0.7,0,1c0.3,1.5,0.3,1.9-0.6,1.6c-0.2-0.1-0.4,0.1-0.6-0.3l0,0l0,0c-0.7-1-0.7-2.6-0.3-4c0.2-0.9,0.8-1.8,1.8-2.2
						c0.9-0.5,1.9-0.4,2.6-0.4l4.5-0.1l9.1-0.1c3.7,0,7.4,0,11.1-0.2C48.7,121.8,49.7,121.7,50.7,121.7L50.7,121.7z"/>
				</g>
			</g>
		</g>
		<g>
			<g>
				<g>
					<path class="st0" d="M68.3,95.4c0.9,0.3,1.6,0.7,2.4,1.1l8,4.5c0.1,0.1,0.3,0.1,0.4,0.2l0,0l4.8,2.7l0.7,0.4
						c0.3,0.2,0.6,0.4,0.9,0.7c0.3,0.4,0.5,0.8,0.6,1.2c0.1,0.4,0.1,0.7,0.1,1l0.1,3.2c0,2.1,0,4.3,0,6.4c0,0.7,0,1.8-0.7,1.8
						c-0.7,0-1.1-0.8-1.1-1.9c0-2.8,0.1-5.7-0.1-8.5c0-0.5-0.1-1.1-0.1-1.5c0-0.2-0.1-0.3-0.1-0.4c0-0.1-0.1-0.2-0.3-0.3
						c-0.3-0.2-0.8-0.5-1.2-0.7l-1.3-0.7l-5.4-3L71,99c-1.6-0.9-3.2-1.9-4.7-2.1c-1.4-0.2-2.9,0.5-4.5,1.1c-1.6,0.6-3.2,1.2-4.9,1.8
						c-2.8,1-5.7,1.9-8.5,2.8c-0.7,0.2-1.4,0.4-1.9,0.9l0,0c-0.9,0-1.6,0.8-2.5,0.7l0,0c-0.3,0.1-0.5,0.1-0.8,0.2
						c-1.1,0.5-1.5,0.4-1.4-0.5c0-0.2-0.1-0.4,0.1-0.6l0,0l0,0c0.6-0.8,1.7-0.9,2.5-1.2l12.8-4.7l3.9-1.4c1.3-0.4,2.7-1.1,4.3-1.2
						C66.6,94.9,67.5,95,68.3,95.4L68.3,95.4z"/>
				</g>
			</g>
		</g>
		<g>
			<g>
				<g>
					<path class="st0" d="M66.8,115.3c-0.3,0.3-0.6,0.6-0.9,0.9c-1.3,1-2.9,1.7-4.5,1.9c-0.1,0-0.2,0.1-0.3,0.1l0,0
						c-1,0.1-2.1-0.1-3-0.3c-1.1-0.2-2-0.5-3-0.8c-1-0.3-2-0.6-2.9-1c-0.3-0.1-0.8-0.3-0.6-0.9c0.2-0.7,0.7-1,1.2-0.8
						c1.3,0.4,2.5,0.9,3.9,1.2c2,0.4,3.7,0.9,5.3,0.4c1.5-0.4,2.9-1.3,4-2.5c0.2-0.3,0.5-0.6,1-1.1c0.3-0.2,0.7-0.4,1-0.4
						c0.4,0,0.7,0,1,0c0.5,0.1,0.9,0.2,1.3,0.4c0.4,0.1,0.8,0.3,1.2,0.4c1.4,0.6,2.6,1.4,3.9,2.2c0.3,0.2,0.6,0.4,1,0.4l0,0
						c0.2,0.5,0.9,0.3,0.9,0.9v0c0.1,0.1,0.2,0.2,0.3,0.3c0.6,0.3,0.5,0.6-0.1,1.1c-0.1,0.1-0.2,0.3-0.4,0.3l0,0l0,0
						c-0.6,0.2-0.8-0.3-1.2-0.6c-1.7-1.2-3.6-2.2-5.6-2.9l-0.9-0.3c-0.3-0.1-0.6-0.2-0.9-0.3c-0.2,0-0.3,0-0.4,0
						c-0.1,0.1-0.3,0.2-0.4,0.5C67.4,114.7,67.2,115,66.8,115.3L66.8,115.3z"/>
				</g>
			</g>
		</g>
		<g>
			<g>
				<g>
					<path class="st0" d="M85.8,95c0.2-0.1,0.4-0.2,0.7-0.2l0.2,0c0.1,0,0.2,0,0.3,0c0.2,0,0.4,0,0.6,0c0.4,0,0.8,0.2,1.1,0.4
						c0.6,0.5,0.9,1.3,0.6,2c0,0.1,0,0.2,0,0.2l0,0L89,98l-0.2,0.4l-0.4,0.7c-0.6,1.1-1.4,2.2-2.4,3c-0.2,0.1-0.4,0.4-0.9-0.1
						c-0.5-0.5-0.7-0.9-0.4-1.1c0.5-0.5,1.1-1,1.5-1.7c0.2-0.5,0.5-1,0.7-1.5l0.3-0.6c0-0.1,0.1-0.1,0-0.2c0-0.1-0.1-0.1-0.2-0.1
						c0,0-0.2,0-0.4,0.1L85.8,97c-0.9,0.3-1.8,0.7-2.8,0.9c-0.8,0.2-1.7,0.2-2.5,0.4c-0.2,0-0.4,0-0.5,0.3l0,0
						c-0.3-0.2-0.4,0.4-0.7,0l0,0c-0.1,0-0.2,0-0.2,0c-0.3,0.2-0.5,0-0.5-0.8c0-0.2-0.1-0.4,0-0.5l0,0l0,0c0.1-0.6,0.4-0.4,0.7-0.5
						c1.2-0.4,2.5-0.7,3.7-1c0.8-0.2,1.5-0.4,2.3-0.6C85.4,95.1,85.5,95,85.8,95L85.8,95z"/>
				</g>
			</g>
		</g>
		<g>
			<g>
				<g>
					<path class="st0" d="M28.5,101.6c-0.4-0.2-0.8-0.3-1.1-0.5L23.3,99c-0.1,0-0.2,0-0.2-0.1l0,0c-0.8-0.4-1.7-0.9-2.5-1.3
						c-1.9-1-3.9-1.9-5.7-3.1c-0.3-0.2-0.8-0.4-0.5-1c0.3-0.6,0.9-0.8,1.4-0.5c1.2,0.7,2.4,1.5,3.8,2c1.9,0.8,3.7,1.8,5.6,2.7l5,2.5
						c1.6,0.8,3.2,1.4,4.7,2.2c1.4,0.7,2.5,1.5,3.7,1.6c0.3,0,0.6,0,0.9-0.3l0,0c0.4,0.2,0.7-0.4,1.2-0.1l0,0c0.1,0,0.3,0,0.4-0.1
						c0.5-0.3,0.8-0.1,0.8,0.7c0,0.2,0.1,0.4,0,0.5l0,0l0,0c-0.2,0.6-0.8,0.6-1.3,0.7c-0.6,0.2-1.2,0.3-1.9,0.3
						c-0.7,0-1.3-0.1-1.9-0.3c-1.2-0.4-2.2-1-3.2-1.5c-1.3-0.6-2.5-1.3-3.8-1.8C29.2,101.9,28.8,101.8,28.5,101.6L28.5,101.6z"/>
				</g>
			</g>
		</g>
		<g>
			<g>
				<g>
					<path class="st0" d="M27.5,112.7c0.5,0,1.1,0.1,1.6,0.1l6,0.8c0.1,0,0.2,0,0.3,0l0,0l3.7,0.5c2.8,0.4,5.6,0.7,8.4,1.3
						c0.4,0.1,1.2,0.2,1.1,0.9c-0.1,0.7-0.6,1-1.4,0.9c-1.9-0.3-3.7-0.7-5.6-0.8c-2.7-0.2-5.4-0.6-8.1-1l-7.3-0.9
						c-2.3-0.3-4.6-0.4-6.9-0.7c-2-0.3-3.9-0.7-5.9-1c-0.5-0.1-0.9-0.2-1.4,0l0,0c-0.5-0.4-1.2,0.1-1.7-0.4l0,0
						c-0.2,0-0.4-0.1-0.5-0.1c-0.8,0-1-0.3-0.6-1c0.1-0.2,0-0.4,0.3-0.5l0,0l0,0c0.6-0.4,1.3-0.1,1.9,0l9,1.1
						c1.8,0.2,3.7,0.5,5.5,0.7C26.5,112.6,27,112.6,27.5,112.7L27.5,112.7z"/>
				</g>
			</g>
		</g>
		<g>
			<g>
				<g>
					<path class="st0" d="M12.6,101.9c0,0.3-0.1,0.7-0.1,1l-0.8,3.7c0,0.1,0,0.1,0,0.2l0,0c-0.2,0.7-0.3,1.5-0.5,2.2
						c-0.3,1.7-0.7,3.5-1.2,5.2c-0.1,0.3-0.2,0.7-0.8,0.6c-0.7-0.1-1-0.5-0.9-1c0.3-1.1,0.7-2.2,0.8-3.4c0.2-1.7,0.6-3.3,0.9-5
						l0.9-4.5c0.2-1.4,0.4-2.8,0.7-4.2c0.2-1.2,0.7-2.4,1-3.6c0.1-0.3,0.2-0.6,0-1l0,0c0.2-0.1,0.2-0.4,0.3-0.6
						c0.1-0.2,0.2-0.5,0.5-0.6l0,0c0.1-0.1,0.3-0.2,0.4-0.4c0.3-0.3,0.6-0.4,0.7-0.3c0.2,0.1,0.2,0.4,0.3,0.7c0,0.2,0.1,0.4,0.1,0.5
						l0,0l0,0c0,0.3,0,0.4,0,0.4c-0.1,0.1-0.2,0.1-0.2,0.3c-0.1,0.3-0.2,0.7-0.3,1.1l-0.3,1.4l-0.5,2.8c-0.2,1.1-0.5,2.3-0.6,3.4
						C12.7,101.3,12.8,101.6,12.6,101.9L12.6,101.9z"/>
				</g>
			</g>
		</g>
	</g>
	<g>
		<g>
			<g>
				<path class="st0" d="M147,69.3c0.9,0,1.9,0.2,2.9,0.7c0.9,0.4,1.7,1.4,2,2.4c0.3,1,0.3,2,0,2.9c-0.5,1.9-1.8,3.3-3.2,4.3
					c-0.1,0.1-0.3,0.2-0.4,0.4l0,0c-0.9,0.6-1.8,1-2.8,1.4c-0.9,0.3-1.7,0.6-2.5,1.1c-1.8,0.9-3.1,2.3-3.4,4.1
					c-0.1,0.5-0.1,1-0.3,1.7c-0.1,0.6-0.4,1.3-0.9,1.9c-0.5,0.6-1.2,1-1.9,1.2c-0.7,0.2-1.4,0.1-2,0c-0.8-0.1-2-0.7-1.6-1.3
					c0.4-0.6,1.2-0.6,2.1-0.4c1.2,0.2,2.1-0.2,2.5-1.4c0.2-0.6,0.2-1.3,0.4-2c0.2-0.8,0.4-1.6,0.8-2.3c0.6-1,1.4-1.9,2.4-2.5
					c0.9-0.7,2-1.1,3-1.5c0.5-0.2,1-0.4,1.4-0.6c0.4-0.2,0.9-0.4,1.3-0.7c0.8-0.5,1.6-1.1,2.2-1.8c0.5-0.6,0.9-1.4,1-2.1
					c0.1-0.7,0.1-1.6-0.3-2.1c-0.3-0.5-1-0.9-1.7-1.1c-0.8-0.2-1.7-0.2-2.5-0.1l-2.6,0.3l-1.3,0.1c-0.4,0-0.9,0.1-1.2,0.1
					c-0.3,0.1-0.3,0.1-0.4,0.3c-0.1,0.2-0.3,0.5-0.4,0.9l-0.6,2.5c-0.8,3-1.7,5.9-2.8,8.8c-0.3,0.7-0.6,1.4-0.6,2.1l0,0
					c-0.6,0.7-0.5,1.8-1.3,2.4l0,0c-0.1,0.3-0.3,0.5-0.4,0.8c-0.5,1.2-0.9,1.4-1.4,0.6c-0.1-0.2-0.3-0.2-0.3-0.5l0,0l0,0
					c0-1,0.6-1.8,1-2.6c1.9-4.2,3-8.7,4.1-13.2c0.2-0.7,0.3-1.4,0.7-2.2c0.2-0.4,0.4-0.8,0.9-1.2c0.4-0.4,1-0.5,1.4-0.6
					c1.5-0.1,2.9-0.3,4.3-0.4C145.3,69.4,146.2,69.2,147,69.3L147,69.3z"/>
			</g>
		</g>
	</g>
	<g>
		<g>
			<path class="st1" d="M61.1,54.2c-6.2-8.7-4.2-20.8,4.5-27.1c8.7-6.2,20.8-4.2,27.1,4.5c4.8,6.7,4.7,15.3,0.5,21.8
				c1.4,1.6,3.4,3.3,5.9,4.1c1,0.3,1.1,1.9,0,2.2c-3.3,1.3-8.3,2.4-13.2,0.3C77.4,64.5,66.8,62.2,61.1,54.2z"/>
		</g>
		<g>
			<g>
				<g>
					<g>
						<path class="st2" d="M78.5,43.7c-0.5-0.1-1.1,0-1.6,0c-1.3,0-2.6-0.2-3.9-0.8c-0.7-0.3-1.3-0.8-1.8-1.5
							c-0.5-0.6-0.8-1.4-0.9-2.2c0-0.2-0.1-0.3-0.1-0.4l0,0c0-0.9,0.1-1.8,0.6-2.7c0.5-0.9,1.3-1.5,2.1-1.9c0.9-0.5,1.9-0.7,2.8-0.8
							c0.5,0,0.9-0.1,1.4-0.1c0.5,0,0.9,0,1.4,0.1c0.9,0.2,1.8,0.5,2.7,1c0.8,0.5,1.6,1.3,2,2.3c0.1,0.3,0.3,0.8,0.2,1.1
							c0,0.4-0.2,0.6-0.6,0.6c-0.4,0-0.7-0.2-1-0.3c-0.3-0.2-0.4-0.3-0.5-0.6c-0.3-0.7-1-1.3-1.9-1.7c-0.8-0.4-1.8-0.5-2.8-0.4
							c-1.4,0.1-2.8,0.5-3.5,1.3c-0.3,0.4-0.5,0.9-0.5,1.5c0,0.6,0.1,1.2,0.4,1.6c0.5,0.8,1.7,1.2,2.9,1.3c0.6,0.1,1.2,0,2,0.1
							c0.8,0.1,1.5,0.2,2.3,0.4c0.7,0.2,1.5,0.6,2.1,1.2c0.6,0.6,1.1,1.4,1.3,2.3c0.2,0.8,0.2,1.7-0.1,2.5c-0.2,0.9-0.8,1.7-1.5,2.2
							c-1.2,0.9-2.6,1.2-3.8,1.3c-1.2,0.1-2.6-0.1-3.8-0.5c-0.6-0.2-1.1-0.5-1.8-0.6l0,0c-0.2-0.3-0.6-0.5-0.9-0.8
							c-0.3-0.2-0.7-0.6-0.6-1.1l0,0c-0.1-0.3-0.2-0.5-0.3-0.8c-0.3-0.6-0.2-1-0.1-1.2c0.2-0.2,0.4-0.1,0.9,0c0.2,0.1,0.5,0,0.6,0.1
							l0,0l0,0c0.3,0.2,0.5,0.4,0.6,0.6c0.1,0.2,0.2,0.5,0.4,0.7c1,1,2.5,1.4,4,1.4c1.6,0,3.2-0.4,3.8-1.4c0.4-0.5,0.5-1.4,0.3-2.2
							c-0.2-0.7-0.7-1.2-1.5-1.5C79.4,43.8,79,43.8,78.5,43.7L78.5,43.7z"/>
					</g>
				</g>
			</g>
			<g>
				<g>
					<g>
						<g>
							<path class="st2" d="M78.1,41.5c0,0.3,0.1,0.6,0.1,0.9c0,1.1,0,2.3,0,3.4c0,0.1,0,0.1,0.1,0.2l0,0c0,0.7,0,1.4,0,2.1
								c0,1.6,0,3.2-0.2,4.8c0,0.2,0,0.7-0.8,0.7c-0.8,0-1.3-0.3-1.2-0.7c0.1-1,0.3-2.1,0.1-3.1c-0.2-1.5-0.1-3-0.1-4.6
								c0-1.4,0-2.7,0-4.1c0-1.3-0.2-2.6-0.2-3.8c0-1.1,0.2-2.2,0.3-3.3c0-0.3,0.1-0.5-0.2-0.8l0,0c0.4-0.3-0.3-0.7,0.2-0.9l0,0
								c0-0.1,0.1-0.2,0-0.3c-0.1-0.5,0.1-0.6,1-0.4c0.2,0,0.5,0,0.6,0.1c0,0,0,0,0,0l0,0c0.6,0.3,0.3,0.7,0.3,1
								c0.1,1.7,0.1,3.4,0.1,5.1c0,1,0,2.1,0.1,3.1C78.1,40.9,78.2,41.2,78.1,41.5L78.1,41.5z"/>
						</g>
					</g>
				</g>
			</g>
		</g>
	</g>
</g>
</svg>
