<?xml version="1.0" encoding="utf-8"?>
<!-- Generator: Adobe Illustrator 25.2.3, SVG Export Plug-In . SVG Version: 6.00 Build 0)  -->
<svg version="1.1" id="Layer_1" xmlns="http://www.w3.org/2000/svg" xmlns:xlink="http://www.w3.org/1999/xlink" x="0px" y="0px"
	 viewBox="0 0 190 150" style="enable-background:new 0 0 190 150;" xml:space="preserve">
<style type="text/css">
	.st0{fill:#F388AE;}
	.st1{fill:#231F20;}
</style>
<g>
	<g>
		<ellipse class="st0" cx="68.8" cy="49.7" rx="6.6" ry="4.9"/>
	</g>
	<g>
		<ellipse class="st0" cx="78" cy="51.2" rx="6.6" ry="4.9"/>
	</g>
	<g>
		<path class="st0" d="M81.6,55.3l-8.7,4.2c-1.3,0.6-3.1,0.4-4-0.6l-5.7-6.5L74.4,47L81.6,55.3z"/>
	</g>
</g>
<g>
	<g>
		<g>
			<path class="st1" d="M22.3,77c0.7-0.9,1.2-1.8,1.8-2.7c2.2-3.4,3.8-7.2,4.6-11.2c0-0.2,0-0.4,0.1-0.6l0,0c0.2-1.2,0.4-2.5,1-3.9
				c0.6-1.4,1.8-2.6,3.1-3.2c1.5-0.7,3.1-1,4.6-1.2c1.5-0.2,2.9-0.3,4.4-0.5c2.9-0.3,5.9-0.6,8.8-0.8c0.9-0.1,2.5-0.2,2.5,0.4
				c0,0.7-1,1.2-2.5,1.4c-3.8,0.4-7.7,0.6-11.5,1.2c-1.4,0.2-2.8,0.4-4,0.8c-1.2,0.4-2.3,1-3,1.9c-0.7,0.9-0.9,2.2-1.2,3.6
				c-0.2,1.4-0.6,2.8-1,4.2c-0.7,2.5-1.7,4.9-3,7.2c-1.2,2.3-2.9,4.4-4.4,6.3c-0.7,0.9-1.4,1.9-1.9,2.8c-0.3,0.5-0.5,1-0.7,1.5
				L19.8,85l-0.2,0.8c-0.5,2.1-0.4,4.4-0.2,6.7c0.4,3.9,1.3,8,1.4,12.3c0,1-0.1,2.1,0.1,3l0,0c-0.4,1.1-0.1,2.6-0.9,3.5l0,0
				c-0.1,0.4-0.3,0.7-0.4,1.1c-0.5,1.7-0.9,2-1.4,1.2c-0.1-0.2-0.4-0.1-0.3-0.5l0,0l0,0c-0.1-1.2,0.5-2.4,0.7-3.6c0.6-3,0.4-6-0.1-9
				c-0.5-3-1.2-6.1-1.4-9.3c-0.1-2,0-4,0.5-6c0.1-0.5,0.3-1,0.5-1.5c0.2-0.5,0.4-1,0.6-1.4c0.5-0.9,1-1.8,1.6-2.6
				C21,78.7,21.6,77.8,22.3,77L22.3,77z"/>
		</g>
	</g>
</g>
<g>
	<g>
		<g>
			<path class="st1" d="M48.1,66c-0.4,0.1-0.8,0.3-1.2,0.4c-0.8,0.2-1.6,0.4-1.9,0.6c-0.2,0.1-0.3,0.2-0.4,0.5
				c-0.1,0.2-0.2,0.5-0.3,0.9c0,0.1,0,0.2,0,0.3l0,0c-0.3,1-0.7,1.9-1,2.8c-0.3,1-0.5,1.8-0.3,2.7c0.1,0.9,0.5,1.8,1.1,2.5
				c0.2,0.2,0.6,0.5,0.2,1.1c-0.4,0.6-1,0.7-1.5,0.1c-1.1-1.3-1.6-3-1.7-4.7c-0.1-1.3,0.4-2.4,0.7-3.4c0.2-0.5,0.4-1,0.5-1.4
				c0.1-0.5,0.2-1,0.5-1.6c0.2-0.6,0.7-1.2,1.3-1.5c0.6-0.3,1.1-0.5,1.6-0.6c0.9-0.2,1.9-0.5,2.8-0.7c1.7-0.5,3.2-1.3,4.5-2.2
				c1-0.8,2-1.9,2.3-3.2c0.1-0.3,0.2-0.6-0.1-0.9l0,0c0.3-0.4-0.3-0.7,0.1-1l0,0c0-0.1,0-0.2-0.1-0.3c-0.3-0.4-0.2-0.7,0.6-0.9
				c0.2,0,0.3-0.2,0.5-0.1l0,0l0,0c0.7,0.2,0.7,1,0.8,1.5c0.2,1.4-0.1,2.8-0.8,4c-0.6,1.2-1.6,2.2-2.7,2.9c-1.3,0.9-2.8,1.4-4.2,2
				C48.8,65.8,48.5,66,48.1,66L48.1,66z"/>
		</g>
	</g>
</g>
<g>
	<g>
		<g>
			<path class="st1" d="M50.4,38.6c0.1-0.5,0.2-0.9,0.3-1.4l1.5-5.1c0-0.1,0-0.2,0-0.3l0,0l0.9-3.1c0.7-2.4,1.4-4.7,2.3-7
				c0.1-0.4,0.3-1,1-0.8c0.7,0.2,0.9,0.8,0.7,1.4c-0.5,1.5-1.1,3.1-1.5,4.6c-0.5,2.3-1.3,4.6-1.9,6.8L52,40
				c-0.5,1.9-0.9,3.9-1.5,5.8c-0.5,1.6-1.1,3.2-1.7,4.9c-0.1,0.4-0.3,0.8-0.1,1.2l0,0c-0.4,0.4,0,1-0.6,1.4l0,0
				c-0.1,0.1-0.1,0.3-0.2,0.4c-0.1,0.7-0.4,0.8-1.1,0.4c-0.1-0.1-0.4-0.1-0.4-0.3l0,0l0,0c-0.4-0.6,0-1.1,0.2-1.6l2.1-7.6
				c0.4-1.6,0.9-3.1,1.3-4.7C50.2,39.4,50.2,39,50.4,38.6L50.4,38.6z"/>
		</g>
	</g>
</g>
<g>
	<g>
		<g>
			<path class="st1" d="M80.4,20.5c0.6,0.1,1.3,0.2,1.9,0.3l7.2,1.6c0.1,0,0.3,0,0.4,0l0,0c1.5,0.3,2.9,0.7,4.4,1l2.5,0.5l1.3,0.3
				c0.4,0.1,0.8,0.2,1.2,0.2c0.8,0.1,1.9,0.3,2.9,0.9c1,0.7,1.5,1.7,1.7,2.7c0.2,0.6,0.2,1.8-0.5,1.7c-0.7-0.1-1-0.6-1.2-1.3
				c-0.1-0.4-0.3-0.8-0.6-1.2c-0.3-0.3-0.6-0.6-1-0.7c-0.4-0.2-1-0.2-1.5-0.3L98,26.1L97.2,26c-3.3-0.5-6.5-1.3-9.7-1.9
				c-2.9-0.6-5.8-1.3-8.7-1.8c-2.7-0.5-5.5-0.9-8.2-1.5c-2.3-0.5-4.7-1.1-7-1.7c-0.5-0.1-1.1-0.3-1.7-0.1l0,0c-0.6-0.4-1.4,0-2-0.6
				l0,0c-0.2-0.1-0.4-0.1-0.6-0.2c-1-0.1-1.2-0.4-0.7-1.1c0.1-0.2,0.1-0.4,0.3-0.5l0,0l0,0c0.8-0.4,1.5,0,2.2,0.2L72,19
				c2.2,0.4,4.4,0.9,6.6,1.3C79.2,20.3,79.8,20.4,80.4,20.5L80.4,20.5z"/>
		</g>
	</g>
</g>
<g>
	<g>
		<g>
			<path class="st1" d="M89,85.2c-0.2,0.7-0.3,1.4-0.5,2.2l-2.4,8.1c0,0.1,0,0.3-0.1,0.4l0,0l-1.4,4.9c-1.1,3.8-2.1,7.6-3.4,11.3
				c-0.2,0.6-0.5,1.6-1.1,1.4c-0.7-0.2-0.9-1-0.6-2c0.8-2.5,1.6-4.9,2.2-7.4c0.9-3.7,2-7.2,3-10.9l2.8-9.7c0.8-3.1,1.6-6.1,2.4-9.2
				c0.8-2.6,1.7-5.2,2.5-7.8c0.2-0.6,0.4-1.3,0.3-1.9l0,0c0.5-0.6,0.2-1.6,0.8-2.2l0,0c0.1-0.2,0.2-0.5,0.2-0.7
				c0.2-1.1,0.5-1.3,1.2-0.8c0.1,0.1,0.4,0.1,0.4,0.4l0,0l0,0c0.3,0.9-0.2,1.7-0.4,2.5l-3.4,12.1c-0.7,2.5-1.4,4.9-2,7.4
				C89.4,83.9,89.3,84.6,89,85.2L89,85.2z"/>
		</g>
	</g>
</g>
<g>
	<g>
		<g>
			<path class="st1" d="M103,36.3c0,0.1,0,0.3,0,0.4l-0.4,1.3c0,0,0,0.1,0,0.1l0,0c-0.1,0.3-0.2,0.5-0.3,0.8
				c-0.2,0.6-0.3,1.3-0.7,1.8c-0.1,0.1-0.1,0.3-0.8,0.1c-0.7-0.2-1-0.4-1-0.6c0.2-0.4,0.5-0.8,0.5-1.2c0-0.7,0.3-1.2,0.4-1.8
				c0.1-0.6,0.3-1.1,0.4-1.6c0.1-0.5,0.1-1.1,0.3-1.6c0.1-0.4,0.4-0.8,0.6-1.3c0-0.1,0.1-0.2-0.1-0.4l0,0c0.3,0-0.2-0.3,0.3-0.3l0,0
				c0,0,0.1-0.1,0.1-0.1c-0.1-0.2,0.2-0.2,0.9,0.1c0.2,0.1,0.4,0.1,0.5,0.2l0,0l0,0c0.5,0.3,0.2,0.4,0.2,0.5c-0.1,0.7-0.3,1.4-0.5,2
				c-0.1,0.4-0.3,0.8-0.3,1.3C103.1,36.1,103.1,36.2,103,36.3L103,36.3z"/>
		</g>
	</g>
</g>
<g>
	<g>
		<g>
			<path class="st1" d="M63.6,98.9c0.4,0.1,0.9,0.1,1.3,0.2l4.8,0.9c0.1,0,0.2,0,0.3,0l0,0c1,0.2,1.9,0.3,2.9,0.5
				c2.2,0.3,4.5,0.6,6.7,1c0.3,0.1,0.9,0.1,0.9,0.8c-0.1,0.7-0.5,1.1-1.1,1c-1.5-0.2-3-0.6-4.5-0.6c-2.2-0.1-4.3-0.6-6.5-0.9
				c-1.9-0.3-3.9-0.7-5.8-1c-1.8-0.3-3.6-0.5-5.4-0.8c-1.6-0.3-3.1-0.7-4.6-1c-0.4-0.1-0.7-0.2-1.1,0l0,0c-0.4-0.4-1,0.1-1.3-0.4
				l0,0c-0.1,0-0.3-0.1-0.4-0.1c-0.7,0-0.8-0.2-0.5-1c0.1-0.2,0-0.4,0.2-0.5l0,0l0,0c0.5-0.5,1-0.1,1.5-0.1c2.4,0.3,4.8,0.7,7.2,1.1
				c1.5,0.2,2.9,0.5,4.4,0.7C62.8,98.8,63.2,98.7,63.6,98.9L63.6,98.9z"/>
		</g>
	</g>
</g>
<g>
	<g>
		<g>
			<path class="st1" d="M48.2,96.3c0.1,0.4,0.1,0.9,0.1,1.4c0,1.7,0,3.4-0.2,5.1c0,0.1,0,0.2,0,0.3l0,0c-0.1,1-0.3,2.1-0.5,3.1
				c-0.2,1.2-0.6,2.4-1.1,3.6c-0.5,1.2-1.4,2.3-2.6,3c-0.4,0.2-1.1,0.5-1.3-0.1c-0.2-0.7-0.1-1.2,0.3-1.4c1-0.7,1.9-1.9,2.3-3.3
				c0.5-2.1,0.9-4.2,0.9-6.4c0.1-2,0.1-3.9-0.1-5.9c-0.2-1.8-0.6-3.6-1-5.4c-0.3-1.6-0.5-3.1-1-4.7c-0.1-0.4-0.2-0.8-0.5-1l0,0
				c0.2-0.5-0.6-0.8-0.3-1.3l0,0c0-0.1,0-0.3-0.1-0.4c-0.3-0.6-0.2-0.8,0.6-0.9c0.2,0,0.4-0.1,0.5,0l0,0l0,0
				c0.7,0.2,0.6,0.9,0.8,1.3c0.9,2.4,1.6,4.8,2.1,7.3c0.3,1.5,0.5,3.1,0.7,4.6C48.1,95.5,48.2,95.9,48.2,96.3L48.2,96.3z"/>
		</g>
	</g>
</g>
<g>
	<g>
		<g>
			<path class="st1" d="M70.6,128.7c-0.2,0.2-0.4,0.3-0.6,0.5c-0.9,0.5-1.7,0.9-2.6,1.4c0,0-0.1,0.1-0.1,0.1l0,0
				c-0.5,0.3-1.1,0.5-1.6,0.8c-1.2,0.6-2.4,1.2-3.7,1.6c-0.2,0.1-0.5,0.2-0.8-0.4c-0.3-0.6-0.3-1.1,0-1.2c0.8-0.4,1.7-0.6,2.4-1.1
				c1.1-0.7,2.3-1.2,3.4-1.8c1-0.6,2-1.1,2.9-1.7c0.9-0.6,1.7-1.3,2.5-1.9c0.7-0.5,1.5-1,2.1-1.6c0.1-0.1,0.3-0.3,0.3-0.6l0,0
				c0.4,0,0.1-0.6,0.6-0.5l0,0c0.1-0.1,0.1-0.1,0.2-0.2c0.1-0.4,0.4-0.3,0.9,0.3c0.1,0.1,0.3,0.2,0.4,0.4l0,0l0,0
				c0.3,0.5-0.2,0.6-0.3,0.9c-0.9,1.2-2,2.2-3.2,3.2c-0.7,0.6-1.5,1.1-2.2,1.6C71,128.4,70.8,128.6,70.6,128.7L70.6,128.7z"/>
		</g>
	</g>
</g>
<g>
	<g>
		<g>
			<path class="st1" d="M91.1,94.8c0-0.5,0-1,0-1.5c0-0.9-0.3-1.9-0.5-3c-0.1-0.6-0.2-1.2-0.1-1.8c0-0.6,0.2-1.3,0.5-1.9
				c0.1-0.1,0.1-0.2,0.1-0.4l0,0c0.3-0.7,0.7-1.2,1-1.7c0.2-0.5,0.5-1,0.6-1.6c0.6-2.5-0.2-5.4-1-8.1c-0.1-0.4-0.4-1.1,0.2-1.4
				c0.7-0.3,1.2,0.1,1.5,0.8c0.7,1.9,1.1,3.9,1.4,5.9c0.2,1.5,0.1,3.1-0.6,4.6c-0.6,1.5-1.6,2.5-1.6,3.6c-0.1,1,0.3,2.2,0.5,3.6
				c0.2,1.4,0.2,2.8-0.1,4.2c-0.5,2.5-1.5,4.8-2.5,7c-0.9,1.9-2,3.6-2.9,5.5c-0.2,0.4-0.5,0.9-0.5,1.4l0,0c-0.5,0.4-0.3,1.2-0.9,1.5
				l0,0c-0.1,0.2-0.2,0.3-0.3,0.5c-0.3,0.8-0.6,0.9-1.2,0.3c-0.1-0.1-0.4-0.2-0.4-0.4l0,0l0,0c-0.2-0.7,0.3-1.3,0.6-1.9l4.1-8.6
				c0.8-1.7,1.7-3.5,2-5.2C91,95.7,91,95.2,91.1,94.8L91.1,94.8z"/>
		</g>
	</g>
</g>
<g>
	<g>
		<g>
			<g>
				<path class="st1" d="M107.9,56.9c0.3,0.1,0.7,0.2,1,0.5c0.3,0.2,0.5,0.6,0.7,0.8c0.3,0.5,0.4,1,0.5,1.4l0.3,1.2l0.7,2.4
					c0,0.1,0.1,0.2,0.1,0.2l0,0l0.8,2.9c0.7,2.2,1.3,4.5,1.8,6.8c0.1,0.4,0.2,1-0.4,1.1c-0.7,0.2-1.2-0.1-1.3-0.7
					c-0.4-1.5-0.6-3-1.2-4.5c-0.8-2.1-1.3-4.3-2-6.4l-0.9-2.9c-0.1-0.5-0.3-0.8-0.4-0.9c-0.1-0.1-0.4-0.2-0.9-0.3
					c-1.9-0.3-3.8-0.5-5.6-0.9c-1.6-0.3-3.1-0.8-4.7-1.1c-0.4-0.1-0.8-0.2-1.1,0l0,0c-0.4-0.4-1,0.1-1.3-0.3l0,0
					c-0.1,0-0.3-0.1-0.4-0.1c-0.6,0.1-0.8-0.2-0.6-0.9c0.1-0.2,0-0.4,0.2-0.5l0,0l0,0c0.5-0.5,1.1-0.2,1.6-0.2
					c2.5,0.2,5,0.8,7.5,1.2c1.5,0.3,3,0.6,4.5,0.8C106.9,56.7,107.3,56.7,107.9,56.9L107.9,56.9z"/>
			</g>
		</g>
	</g>
	<g>
		<g>
			<g>
				<path class="st1" d="M108.5,45.9c0.6,0,1.2,0,1.7,0.1c2.2,0.3,4.5,1.1,6.2,2.7c0.1,0.1,0.2,0.1,0.3,0.2l0,0c1,1,1.8,2.1,2.5,3.2
					c1.6,2.5,3,5,4.4,7.7c0.2,0.4,0.6,1.1,0,1.4c-0.6,0.3-1.2,0.1-1.6-0.6c-0.9-1.7-1.8-3.4-2.9-5c-1.6-2.3-2.9-4.7-5.1-6.1
					c-1.9-1.2-4.3-1.6-6.8-1.6c-2.3,0-4.7,0.3-7,0.3c-2.1,0.1-4.1-0.2-5.9,0.1c-0.4,0.1-0.9,0.2-1.2,0.6l0,0
					c-0.6-0.1-0.8,0.6-1.4,0.5l0,0c-0.1,0.1-0.3,0.1-0.4,0.3c-0.4,0.6-0.7,0.6-1.1,0c-0.1-0.2-0.3-0.2-0.3-0.5l0,0l0,0
					c0-0.9,0.8-1.3,1.4-1.6c1.5-0.9,3.2-1.2,4.8-1.3c1.6-0.1,3.1-0.1,4.7-0.1c1.9,0,3.8-0.1,5.8-0.2
					C107.4,45.9,107.9,45.8,108.5,45.9L108.5,45.9z"/>
			</g>
		</g>
	</g>
	<g>
		<g>
			<g>
				<path class="st1" d="M144,69c0.1,0.4,0.3,0.8,0.5,1.1c0.3,0.6,0.8,0.9,1.6,1.1c0.8,0.2,1.7,0.3,2.7,0.4c0.1,0,0.2,0,0.3,0l0,0
					c1.2,0.1,2.7,0.6,3.7,1.5c1.3,1,2.1,2.4,2.6,3.7c0.5,1.4,0.8,2.7,1,4.1c0.1,0.4,0.2,1.1-0.5,1.2c-0.7,0.1-1.2-0.3-1.3-1
					c-0.3-1.7-0.6-3.4-1.5-4.8c-0.7-1-1.4-1.8-2.4-2.3c-0.9-0.5-2.1-0.6-3.5-0.7c-0.6-0.1-1.2-0.1-1.9-0.3c-0.6-0.2-1.3-0.5-1.9-1
					c-0.6-0.5-0.9-1.2-1.2-1.8c-0.2-0.6-0.4-1.2-0.5-1.8c-0.3-1-0.6-1.8-1.3-2.1c-0.7-0.4-1.6-0.6-2.7-0.9c-1.8-0.4-3.6-1-5.4-1.4
					c-0.4-0.1-0.9-0.2-1.3,0l0,0c-0.4-0.4-1.1,0.1-1.5-0.5l0,0c-0.2,0-0.3-0.1-0.5-0.1c-0.8,0-0.9-0.3-0.6-1
					c0.1-0.2,0.1-0.4,0.3-0.5l0,0l0,0c0.6-0.4,1.2-0.1,1.8,0c2.8,0.4,5.7,1,8.5,1.7c0.9,0.2,1.9,0.5,2.8,1.1
					c0.4,0.3,0.8,0.8,1.1,1.3c0.3,0.5,0.5,1,0.6,1.4C143.7,68.1,143.9,68.5,144,69L144,69z"/>
			</g>
		</g>
	</g>
	<g>
		<g>
			<g>
				<path class="st1" d="M165.3,103.5c0.2,0.5,0.4,1,0.6,1.6c0.7,2,1.4,4,2.1,6c0,0.1,0.1,0.2,0.2,0.3l0,0c0.4,1.2,0.8,2.4,1.3,3.6
					c1,2.8,2,5.6,2.8,8.4c0.1,0.4,0.4,1.2-0.3,1.4c-0.7,0.2-1.2-0.1-1.5-0.9c-0.6-1.9-1.1-3.8-1.9-5.6c-1.1-2.6-2-5.3-3-8
					c-0.9-2.4-1.7-4.8-2.6-7.2c-0.8-2.2-1.8-4.4-2.6-6.7c-0.7-1.9-1.2-4-1.9-5.9c-0.2-0.5-0.3-1-0.7-1.3l0,0
					c0.1-0.6-0.7-1.1-0.4-1.7l0,0c-0.1-0.2-0.1-0.4-0.2-0.5c-0.4-0.8-0.2-1.1,0.6-1c0.2,0,0.4-0.1,0.5,0c0,0,0,0,0,0l0,0
					c0.7,0.4,0.7,1.1,0.9,1.7c1.1,3,2.2,5.9,3.3,8.9c0.7,1.8,1.3,3.7,2,5.4C164.9,102.6,165.2,103,165.3,103.5L165.3,103.5z"/>
			</g>
		</g>
	</g>
	<g>
		<g>
			<g>
				<path class="st1" d="M102.2,98.8c0.1,0.4,0.2,0.7,0.5,1.1c0.4,0.8,1.1,1.6,1.7,2.5l1.9,2.6c0.1,0.1,0.2,0.2,0.2,0.2l0,0l2.3,3.1
					c1.8,2.4,3.5,4.7,5.1,7.2c0.2,0.4,0.7,1,0.2,1.4c-0.6,0.4-1.2,0.2-1.7-0.4c-1.1-1.6-2.1-3.3-3.4-4.8c-1.8-2.2-3.4-4.5-5.1-6.8
					l-2.3-3.1c-0.4-0.5-0.8-1.1-1-1.9c-0.3-0.7-0.3-1.6-0.2-2.3c0.2-1.4,0.6-2.5,1-3.6c0.3-1.2,0.7-2.3,1.1-3.4
					c0.7-1.9,1.6-3.8,2.5-5.7c0.2-0.4,0.4-0.9,0.4-1.4l0,0c0.5-0.4,0.2-1.2,0.9-1.5l0,0c0.1-0.2,0.2-0.3,0.3-0.5
					c0.2-0.8,0.6-0.9,1.2-0.3c0.1,0.1,0.4,0.2,0.4,0.4l0,0l0,0c0.2,0.7-0.3,1.3-0.5,1.9c-1.2,2.9-2.4,5.8-3.4,8.7l-0.9,2.7
					c-0.3,0.9-0.6,1.9-0.8,2.7C102.1,98.1,102.2,98.5,102.2,98.8L102.2,98.8z"/>
			</g>
		</g>
	</g>
	<g>
		<g>
			<g>
				<path class="st1" d="M113.6,95.8c0.1,0.2,0.2,0.3,0.2,0.5c0.2,0.7,0.3,1.4,0.4,2c0,0,0.1,0.1,0.1,0.1l0,0
					c0.1,0.4,0.2,0.8,0.3,1.2c0.2,0.9,0.5,1.9,0.5,2.9c0,0.2,0.1,0.4-0.6,0.6c-0.7,0.2-1.1,0.1-1.2-0.2c-0.1-0.6-0.1-1.3-0.3-1.9
					c-0.4-0.9-0.5-1.8-0.7-2.7c-0.2-0.8-0.4-1.6-0.6-2.4c-0.2-0.8-0.5-1.5-0.7-2.3c-0.1-0.7-0.1-1.4-0.2-2c0-0.2,0-0.3-0.3-0.4l0,0
					c0.3-0.2-0.4-0.3,0.1-0.6l0,0c0-0.1,0-0.1,0-0.2c-0.2-0.2,0-0.4,0.8-0.5c0.2,0,0.4-0.1,0.5-0.1c0,0,0,0,0,0l0,0
					c0.6,0.1,0.4,0.3,0.4,0.6c0.3,1,0.5,2,0.8,3c0.2,0.6,0.3,1.2,0.5,1.8C113.5,95.5,113.6,95.6,113.6,95.8L113.6,95.8z"/>
			</g>
		</g>
	</g>
	<g>
		<g>
			<g>
				<path class="st1" d="M135,121.3c0.5,0.2,1.1,0.3,1.6,0.6c0.5,0.2,1,0.5,1.5,0.8c0.5,0.3,0.9,0.7,1.3,1.1
					c0.8,0.8,1.5,1.6,2.2,2.5c0.1,0.1,0.2,0.2,0.2,0.2l0,0c0.8,1.1,1.4,2.2,2,3.3c1.4,2.5,2.6,5.2,3.8,7.7c0.2,0.4,0.6,1,0,1.4
					c-0.6,0.4-1.2,0.2-1.6-0.6c-0.9-1.7-1.6-3.5-2.6-5.1c-1.4-2.3-2.6-4.8-4.3-6.8c-0.8-0.9-1.6-1.7-2.5-2.2
					c-0.9-0.6-2.1-0.9-3.2-1.3c-2.2-0.6-4.5-0.8-6.7-1.4c-2-0.4-3.9-1-5.8-1.5c-0.5-0.1-0.9-0.3-1.4-0.1l0,0c-0.5-0.4-1.2,0-1.6-0.5
					l0,0c-0.2-0.1-0.4-0.1-0.5-0.1c-0.8-0.1-1-0.3-0.6-1c0.1-0.2,0.1-0.4,0.3-0.5l0,0l0,0c0.7-0.4,1.3,0,1.9,0.1l9,1.8
					c1.8,0.4,3.7,0.8,5.5,1.2C134,121,134.5,121.1,135,121.3L135,121.3z"/>
			</g>
		</g>
	</g>
</g>
</svg>
