<?xml version="1.0" encoding="utf-8"?>
<!-- Generator: Adobe Illustrator 25.2.3, SVG Export Plug-In . SVG Version: 6.00 Build 0)  -->
<svg version="1.1" id="Layer_1" xmlns="http://www.w3.org/2000/svg" xmlns:xlink="http://www.w3.org/1999/xlink" x="0px" y="0px"
	 viewBox="0 0 190 150" style="enable-background:new 0 0 190 150;" xml:space="preserve">
<style type="text/css">
	.st0{fill:#231F20;}
	.st1{fill:#653C97;}
	.st2{fill:#FFFFFF;}
</style>
<g>
	<g>
		<g>
			<g>
				<g>
					<path class="st0" d="M89,47.7c0.3-0.1,0.5-0.2,0.8-0.3l3-1c0.1,0,0.1-0.1,0.1-0.1l0,0c0.6-0.2,1.3-0.4,2.1-0.6
						c0.9-0.2,2,0,2.8,0.4c0.8,0.4,1.5,0.9,2,1.5c0.2,0.2,0.5,0.4,0,1c-0.5,0.5-0.9,0.7-1.2,0.4c-0.7-0.6-1.4-1.3-2.2-1.4
						c-0.6-0.1-1.1,0-1.7,0.2c-0.6,0.2-1.3,0.4-2,0.7c-1.2,0.4-2.4,0.8-3.6,1.3c-1.1,0.4-2.2,1-3.4,1.4c-1,0.3-2,0.5-3,0.8
						c-0.2,0.1-0.5,0.1-0.6,0.4l0,0c-0.4-0.2-0.5,0.5-0.9,0.1l0,0c-0.1,0-0.2,0-0.3,0.1c-0.4,0.2-0.5,0.1-0.7-0.7
						c0-0.2-0.1-0.4-0.1-0.5l0,0l0,0c0.1-0.6,0.5-0.5,0.8-0.6c1.5-0.6,3-1.1,4.5-1.6c0.9-0.3,1.9-0.6,2.7-1
						C88.5,47.9,88.7,47.7,89,47.7L89,47.7z"/>
				</g>
			</g>
		</g>
		<g>
			<g>
				<g>
					<path class="st0" d="M113.9,59.7c0.6,0.9,1.2,1.9,1.7,2.9c2,3.7,3.7,7.6,5.2,11.5c0.1,0.2,0.2,0.4,0.3,0.6l0,0
						c0.4,1.2,0.9,2.4,1.1,3.8c0.2,1.4,0.2,3-0.7,4.4c-0.5,0.8-1.2,1.4-1.8,1.9c-0.6,0.5-1.3,0.9-1.9,1.2c-1.3,0.8-2.6,1.4-3.9,2.1
						c-2.6,1.3-5.3,2.5-8,3.6c-0.8,0.3-2.3,0.9-2.5,0.3c-0.2-0.7,0.6-1.4,2-2c3.5-1.5,7.1-3,10.3-4.9c1.2-0.7,2.4-1.4,3.3-2.2
						c0.9-0.8,1.3-1.8,1.3-3c0-1.2-0.4-2.5-0.9-3.8c-0.5-1.3-1-2.6-1.5-3.9c-1.9-4.6-4.1-9-6.7-13.2c-0.6-1-1.2-2-1.9-2.9
						c-0.7-1-1.3-1.9-2-2.6c-1.4-1.5-3.4-1.9-5.5-1.5c-1.8,0.3-3.6,1-5.5,1.8L90.5,56c-0.9,0.4-1.8,0.7-2.5,1.3l0,0
						c-1.1,0.2-2.1,1.2-3.2,1.2l0,0c-0.3,0.1-0.7,0.2-1,0.4c-1.5,0.8-2,0.7-1.8-0.2c0-0.2-0.2-0.4,0.1-0.6l0,0l0,0
						c0.8-0.9,2.2-1.3,3.3-1.8l8.5-3.8c2.8-1.2,5.7-2.8,9.1-2.9c1,0,2.1,0.2,3.1,0.6c1,0.4,1.9,1.2,2.6,1.9c0.7,0.8,1.3,1.6,1.8,2.4
						l1.6,2.4C112.7,57.9,113.4,58.7,113.9,59.7L113.9,59.7z"/>
				</g>
			</g>
		</g>
		<g>
			<g>
				<g>
					<path class="st0" d="M87.4,84.4c0.2,0.5,0.5,1,0.7,1.5c0.9,1.9,1.6,4,2.6,5.5c0.1,0.1,0.1,0.1,0.2,0.2l0,0
						c0.6,0.9,1.4,1.5,2.4,1.8c1.1,0.3,2.5,0.2,3.7-0.2c1.3-0.4,2.7-1,4-1.5c0.4-0.2,1.1-0.5,1.4,0.1c0.3,0.6,0,1.2-0.8,1.5
						c-0.9,0.4-1.8,0.7-2.7,1c-0.9,0.3-1.9,0.7-2.9,0.9c-1.5,0.3-3.2,0.2-4.6-0.6c-1.5-0.8-2.4-2.2-3.1-3.5
						c-0.6-1.2-1.1-2.3-1.6-3.5l-1.6-3.4c-1-2.1-2.1-4.2-3.1-6.4c-0.8-1.9-1.5-3.8-2.3-5.7c-0.2-0.4-0.4-0.9-0.8-1.2l0,0
						c0.1-0.6-0.7-1-0.5-1.7l0,0c-0.1-0.2-0.1-0.4-0.2-0.6c-0.4-0.8-0.3-1.1,0.6-1.1c0.2,0,0.4-0.1,0.6,0l0,0l0,0
						c0.3,0.2,0.5,0.4,0.6,0.7c0.1,0.3,0.2,0.6,0.3,0.9l3.9,8.5c0.8,1.7,1.5,3.5,2.4,5.2C86.9,83.4,87.2,83.9,87.4,84.4L87.4,84.4z"
						/>
				</g>
			</g>
		</g>
		<g>
			<g>
				<g>
					<path class="st0" d="M116.8,55.7c0.1,0.1,0.2,0.2,0.2,0.3c0.2,0.4,0.4,0.9,0.5,1.3c0,0,0.1,0,0.1,0l0,0
						c0.1,0.3,0.2,0.6,0.3,0.9c0.1,0.4,0.2,0.7,0.1,1.2c0,0.4-0.2,1-0.7,1.3c-0.1,0.1-0.3,0.3-0.8-0.2c-0.4-0.6-0.7-0.9-0.7-0.9
						c0.1,0,0.3-0.2,0.2-0.5c-0.2-0.4-0.3-0.8-0.5-1.3c-0.2-0.4-0.4-0.9-0.6-1.2c-0.3-0.3-0.6-0.4-0.8-0.6c-0.2-0.1-0.4-0.4-0.7-0.5
						c-0.1,0-0.1-0.1-0.2,0.2l0,0c-0.1-0.3-0.1,0.3-0.2-0.2l0,0c0,0-0.1-0.1-0.1,0c-0.1,0.1-0.2-0.1-0.3-0.9c0-0.2-0.1-0.4-0.1-0.5
						l0,0l0,0c0-0.5,0.3-0.3,0.4-0.3c0.9-0.1,1.7,0.2,2.4,0.7c0.4,0.3,0.7,0.7,1.1,1C116.7,55.5,116.8,55.6,116.8,55.7L116.8,55.7z"
						/>
				</g>
			</g>
		</g>
		<g>
			<g>
				<g>
					<path class="st0" d="M120.9,100.7c-0.2,0.6-0.4,1.2-0.8,1.8c-0.8,1.1-1.9,1.7-2.9,2.1l-2.8,1.3c-0.1,0-0.2,0.1-0.3,0.2l0,0
						l-3.4,1.5c-2.6,1.1-5.3,2.2-8.2,2.7c-0.4,0.1-1.2,0.2-1.3-0.4c-0.1-0.7,0.3-1.2,1-1.4c1.8-0.4,3.6-0.8,5.2-1.6
						c2.4-1.1,4.9-2.2,7.3-3.3c1.1-0.5,2.3-1,3-1.6c0.7-0.6,1.1-1.5,1.3-2.6c0.3-2.1,0.1-4.3-0.2-6.5c-0.1-0.9-0.2-2-0.3-3
						c0-1,0-2,0.1-3.1c0-0.5,0.1-1-0.1-1.5l0,0c0.4-0.5-0.1-1.3,0.5-1.8l0,0c0.1-0.2,0.1-0.4,0.2-0.6c0.2-0.9,0.5-1,1.1-0.4
						c0.1,0.1,0.4,0.1,0.4,0.4l0,0l0,0c0.3,0.6-0.1,1.1-0.2,1.7c-0.2,1.4-0.2,2.9-0.1,4.3c0.1,1.5,0.3,2.9,0.5,4.4
						c0.2,1.9,0.3,3.8,0.1,5.8C121.2,99.6,121.1,100.1,120.9,100.7L120.9,100.7z"/>
				</g>
			</g>
		</g>
		<g>
			<g>
				<g>
					<path class="st0" d="M119.6,41.7c0.4-0.2,0.7-0.4,1.1-0.6l4.3-2.1c0.1,0,0.1-0.1,0.2-0.2l0,0l2.6-1.2c2-1,4-1.9,6.1-2.7
						c0.3-0.1,0.9-0.4,1.1,0.3c0.3,0.6,0.1,1.2-0.5,1.4c-1.4,0.6-2.8,1-4,1.8c-1.8,1.1-3.8,1.9-5.7,2.9c-1.7,0.9-3.4,1.7-5.1,2.6
						c-1.6,0.8-3.1,1.8-4.7,2.6c-1.4,0.7-2.8,1.3-4.2,2c-0.3,0.2-0.7,0.3-0.9,0.7l0,0c-0.5-0.1-0.7,0.7-1.2,0.5l0,0
						c-0.1,0.1-0.3,0.1-0.4,0.2c-0.5,0.4-0.8,0.3-1-0.5c0-0.2-0.2-0.3-0.1-0.5l0,0l0,0c0.1-0.7,0.7-0.7,1.1-0.9
						c2.1-1.2,4.1-2.3,6.2-3.4c1.3-0.7,2.6-1.3,3.8-2.1C118.9,42,119.2,41.8,119.6,41.7L119.6,41.7z"/>
				</g>
			</g>
		</g>
		<g>
			<g>
				<g>
					<path class="st0" d="M139.1,83.7c0.5-0.3,1-0.6,1.5-0.8l6-2.9c0.1,0,0.2-0.1,0.3-0.2l0,0l3.6-1.7c2.8-1.3,5.6-2.7,8.5-3.8
						c0.5-0.2,1.2-0.5,1.5,0.1c0.3,0.6,0,1.3-0.8,1.6c-1.9,0.8-3.8,1.5-5.6,2.5c-2.6,1.4-5.3,2.6-8,3.9c-2.4,1.2-4.8,2.3-7.2,3.5
						c-2.2,1.1-4.4,2.4-6.6,3.5c-1.9,1-3.9,1.8-5.9,2.8c-0.5,0.2-1,0.4-1.3,0.9l0,0c-0.7,0-1,0.8-1.7,0.7l0,0
						c-0.2,0.1-0.4,0.1-0.5,0.2c-0.7,0.5-1.1,0.4-1.2-0.4c0-0.2-0.2-0.3-0.1-0.5l0,0l0,0c0.3-0.7,1.1-0.9,1.7-1.2
						c2.9-1.6,5.8-3.1,8.8-4.6c1.8-0.9,3.6-1.8,5.4-2.8C138.1,84.3,138.6,83.9,139.1,83.7L139.1,83.7z"/>
				</g>
			</g>
		</g>
		<g>
			<g>
				<g>
					<path class="st0" d="M67.3,71.6c-0.2,0.1-0.3,0.2-0.5,0.3c-0.7,0.3-1.4,0.6-2.1,0.8c0,0-0.1,0.1-0.1,0.1l0,0l-1.3,0.5
						c-1,0.4-2,0.7-3.1,0.8c-0.2,0-0.4,0.1-0.6-0.6c-0.2-0.7-0.1-1.1,0.1-1.2c0.7-0.1,1.4-0.2,2-0.5c0.9-0.5,1.8-0.7,2.7-1.1
						c0.8-0.4,1.6-0.7,2.4-1.1c0.7-0.4,1.4-0.9,2.2-1.3c0.6-0.3,1.4-0.5,2-0.8c0.2-0.1,0.3-0.1,0.3-0.4l0,0c0.3,0.2,0.2-0.4,0.6-0.1
						l0,0c0.1,0,0.1,0,0.2-0.1c0.2-0.2,0.4-0.1,0.7,0.6c0.1,0.2,0.2,0.3,0.2,0.5l0,0l0,0c0.1,0.6-0.3,0.5-0.5,0.6
						c-1,0.6-1.9,1.1-2.9,1.7c-0.6,0.3-1.2,0.6-1.8,1C67.6,71.4,67.5,71.6,67.3,71.6L67.3,71.6z"/>
				</g>
			</g>
		</g>
		<g>
			<g>
				<g>
					<path class="st0" d="M149.5,51.7c0.5,0.6,0.9,1.3,1.3,1.9c1.6,2.5,3.1,5,4.5,7.6c0.1,0.1,0.2,0.2,0.3,0.4l0,0
						c0.8,1.6,1.6,3.2,2.3,4.8c1.7,3.8,3.1,7.7,3.7,11.8c0.1,0.6,0.3,1.7-0.4,1.8c-0.7,0.1-1.2-0.5-1.4-1.6
						c-0.5-2.6-1.1-5.2-2.2-7.6c-1.5-3.5-3.1-7-5.1-10.4c-1.7-3-3.6-5.9-5.6-8.8c-1.9-2.7-3.9-5.3-5.8-7.9c-1.7-2.3-3.2-4.7-4.8-7
						c-0.4-0.5-0.8-1.1-1.3-1.5l0,0c-0.2-0.8-1.2-1.2-1.3-2.1v0c-0.1-0.2-0.3-0.5-0.4-0.7c-0.8-0.9-0.8-1.3,0.1-1.4
						c0.2,0,0.3-0.2,0.6-0.1l0,0l0,0c0.9,0.3,1.3,1.3,1.8,2l7.7,10.5l4.7,6.5C148.7,50.5,149.2,51,149.5,51.7L149.5,51.7z"/>
				</g>
			</g>
		</g>
		<g>
			<g>
				<g>
					<path class="st0" d="M162.3,85.8c0.3-0.2,0.7-0.4,1-0.6c1.3-0.8,2.5-1.9,3.9-2.9c0.1-0.1,0.1-0.1,0.2-0.2l0,0l2.5-1.8
						c1.9-1.4,3.9-2.6,6-3.6c0.3-0.2,0.9-0.5,1.2,0.1c0.3,0.6,0.2,1.2-0.4,1.5c-1.3,0.7-2.7,1.4-3.9,2.3c-1.7,1.4-3.6,2.6-5.3,3.9
						c-1.5,1.2-3.1,2.6-5.3,3.4c-1,0.3-2.1,0.5-3.3,0.3c-1.2-0.2-2.2-0.9-2.9-1.7c-0.6-0.7-1.1-1.4-1.5-2c-0.4-0.6-0.9-1.2-1.4-1.8
						c-0.3-0.2-0.5-0.5-0.9-0.5l0,0c-0.1-0.5-0.9-0.3-0.9-0.9l0,0c-0.1-0.1-0.2-0.2-0.3-0.2c-0.6-0.2-0.6-0.5-0.1-1.1
						c0.1-0.1,0.2-0.4,0.4-0.4l0,0l0,0c0.7-0.2,1.1,0.3,1.5,0.6c1.1,0.7,2.1,1.6,2.9,2.6c0.9,1,1.5,2,2.3,2.7c0.5,0.4,1,0.7,1.6,0.8
						c0.6,0.1,1.2,0.1,1.8-0.1C161.7,86.1,162,85.9,162.3,85.8L162.3,85.8z"/>
				</g>
			</g>
		</g>
		<g>
			<g>
				<g>
					<path class="st0" d="M126.1,24.2c0-0.5,0.1-1,0.3-1.5c0.2-0.5,0.6-0.9,1-1.3c0.4-0.3,0.8-0.5,1.2-0.7l2-0.9
						c0.1,0,0.1-0.1,0.2-0.1l0,0c0.8-0.3,1.6-0.7,2.4-1c1.9-0.8,3.7-1.7,5.7-2.3c0.3-0.1,0.8-0.3,1.1,0.3c0.3,0.7,0.1,1.2-0.4,1.4
						c-1.3,0.5-2.5,0.9-3.7,1.5c-1.7,1-3.5,1.6-5.3,2.5c-0.8,0.4-1.6,0.7-1.9,1.1c-0.3,0.4-0.5,1-0.4,1.8c0.1,1.6,0.4,3.2,0.5,4.9
						c0.1,1.4,0,2.8,0,4.3c0,0.3,0,0.7,0.3,1l0,0c-0.3,0.4,0.3,0.8-0.1,1.2l0,0c0,0.1,0,0.3,0,0.4c0.2,0.6-0.1,0.7-0.9,0.6
						c-0.2,0-0.4,0-0.5-0.1l0,0l0,0c-0.5-0.4-0.3-0.9-0.4-1.3c-0.2-2.2-0.3-4.3-0.5-6.5c-0.1-1.3-0.1-2.6-0.3-4
						C126.2,25,126,24.6,126.1,24.2L126.1,24.2z"/>
				</g>
			</g>
		</g>
		<g>
			<g>
				<g>
					<path class="st0" d="M146.7,13.9c0.1-0.1,0.2-0.2,0.3-0.2l1.4-0.5c0,0,0-0.1,0-0.1l0,0c0.3-0.1,0.6-0.2,0.8-0.3
						c0.6-0.3,1.3-0.5,2-0.6c0.1,0,0.3-0.1,0.5,0.6c0.3,0.7,0.3,1.1,0.1,1.1c-0.5,0.1-0.9,0.1-1.3,0.4c-0.6,0.4-1.2,0.6-1.8,0.9
						c-0.5,0.3-1.1,0.4-1.7,0.7c-0.5,0.2-1,0.6-1.5,0.8c-0.5,0.2-1,0.2-1.4,0.3c-0.1,0-0.2,0-0.2,0.3l0,0c-0.2-0.2-0.2,0.4-0.5,0
						l0,0c0,0-0.1,0-0.1,0c-0.1,0.2-0.3,0-0.5-0.8c0-0.2-0.1-0.4-0.1-0.5l0,0l0,0c-0.1-0.5,0.2-0.4,0.3-0.4c0.7-0.3,1.4-0.6,2-0.9
						c0.4-0.2,0.8-0.3,1.2-0.6C146.5,14,146.6,13.9,146.7,13.9L146.7,13.9z"/>
				</g>
			</g>
		</g>
		<g>
			<ellipse transform="matrix(0.9011 -0.4335 0.4335 0.9011 -21.0061 50.369)" class="st1" cx="99.9" cy="71.2" rx="12" ry="13.9"/>
		</g>
		<g>
			<g>
				<g>
					<path class="st0" d="M98.6,101c0.1,0.2,0.2,0.4,0.3,0.6c0.2,0.8,0.4,1.7,0.5,2.6c0,0,0.1,0.1,0.1,0.1l0,0
						c0.1,0.5,0.1,1,0.2,1.5c0.2,1.1,0.5,2.3,0.4,3.7c0,0.2,0,0.6-0.7,0.5c-0.7-0.1-1.1-0.2-1.1-0.5c0-0.7,0.1-1.5-0.2-2.2
						c-0.2-0.5-0.3-1.1-0.4-1.6c-0.1-0.6-0.2-1.1-0.3-1.6c-0.2-0.9-0.4-1.9-0.8-2.8c-0.3-0.9-0.8-1.7-1.1-2.5
						c-0.3-0.7-0.5-1.6-0.7-2.3c-0.1-0.2-0.1-0.4-0.4-0.4l0,0c0.2-0.3-0.4-0.3-0.1-0.7l0,0c0-0.1,0-0.2-0.1-0.2
						c-0.2-0.3-0.1-0.4,0.7-0.7c0.2,0,0.4-0.2,0.5-0.1l0,0l0,0c0.6,0,0.5,0.3,0.6,0.6c0.6,1.1,1.1,2.3,1.6,3.4
						c0.3,0.7,0.5,1.5,0.9,2.2C98.5,100.6,98.6,100.8,98.6,101L98.6,101z"/>
				</g>
			</g>
		</g>
		<g>
			<g>
				<g>
					<path class="st0" d="M66.7,130.5c-0.5,1-1,2.1-1.6,3.2c-1.1,2-2.6,4.1-4.9,5.3c-1.1,0.6-2.4,0.9-3.6,1c-1.2,0.1-2.4,0-3.5-0.1
						c-0.2,0-0.5,0-0.7,0l0,0c-2.7-0.4-5.3-0.7-8-0.8c-3.1-0.1-6.2-0.1-9.2,0.1c-1.6,0.1-3,0.3-4.7,0.4c-0.8,0-1.7-0.1-2.6-0.3
						c-0.9-0.3-1.8-0.9-2.3-1.6c-0.4-0.5-0.8-1.3-0.8-2c0-0.7,0.4-1.2,0.7-1.1c0.3,0.1,0.5,0.5,0.7,0.8c0.2,0.3,0.4,0.8,0.9,1.2
						c1,1.2,3.1,1.2,5.1,1c2.1-0.2,4.1-0.3,6.2-0.5c3-0.2,6-0.1,9,0.1c1.5,0.1,3,0.3,4.5,0.5c1.5,0.2,2.9,0.4,4.3,0.3
						c1.2-0.1,2.4-0.3,3.4-0.9c1-0.6,1.9-1.5,2.6-2.5c0.7-1,1.4-2.2,2-3.3l1.9-3.5l3.5-6.7c0.6-1.1,1.3-2.3,2.2-3.3
						c0.9-1,2.1-2,3.6-2.4l0.2-0.1l0.1,0l0,0l0,0c-0.1-0.7,0.2,1,0.1,0.8l0-0.1l-0.1-0.5l0-0.1c0,0,0,0,0,0l0,0l0,0
						c0.1,0,0.1,0,0.2-0.1l0.7-0.3l1.5-0.7l2.9-1.4c1.9-0.9,3.9-1.9,5.8-2.9c0.9-0.5,1.9-0.9,2.6-1.6l0,0c1.2-0.3,2.1-1.5,3.3-1.6
						l0,0c0.4-0.2,0.7-0.3,1-0.6c0.4-0.2,0.7-0.4,0.9-0.6c0.1-0.1,0.2-0.1,0.3-0.1c0.1,0,0.1,0,0.2,0c0.1,0,0.1,0,0.2,0l0,0l0,0
						l0.1,0.1c0.1,0.1,0.1,0.1,0.1,0.1l0,0l0,0l0,0c0,0,0,0.1,0,0.1c0,0.1,0,0.2,0,0.3c0,0.2,0.2,0.3-0.1,0.7l0,0l0,0
						c-0.8,1.1-2.2,1.6-3.4,2.3c-2.9,1.6-5.8,3.2-8.8,4.7c-1.5,0.8-2.9,1.5-4.4,2.3c-0.7,0.4-1.5,0.7-2.3,1.1
						c-0.7,0.3-0.9,0.2-1.2,0.4c-0.3,0.1-0.6,0.3-0.9,0.5c-1.5,1-2.5,2.7-3.5,4.4c-1,1.8-1.9,3.6-2.8,5.4
						C67.7,128.5,67.3,129.5,66.7,130.5L66.7,130.5z"/>
				</g>
			</g>
		</g>
		<g>
			<g>
				<g>
					<path class="st0" d="M21,93.3c-0.2-1.1-0.4-2.2-0.6-3.4c-0.3-2.1-0.6-4.4-0.4-6.7c0.1-1.2,0.4-2.3,0.9-3.5
						c0.5-1.1,1.4-2.1,2.4-2.9c0.2-0.2,0.4-0.3,0.6-0.5l0,0c1.3-0.8,2.7-1.2,4-1.4c1.3-0.3,2.6-0.4,4-0.5C38,74,44,74.2,49.9,74
						c0.9,0,2.5-0.2,2.5,0.5c0.1,0.7-1,1.3-2.6,1.3c-4,0.2-8,0-11.9,0.3c-2.9,0.2-5.7,0.3-8.5,0.7c-1.4,0.2-2.7,0.5-3.9,1.1
						c-1.2,0.6-2.1,1.4-2.7,2.5c-1.1,2-1,4.6-0.8,7c0.3,2.5,0.7,5.1,1.1,7.6l1.1,7.2c0.2,1.2,0.2,2.6,0,3.9
						c-0.2,1.4-0.8,2.6-1.4,3.7c-1,1.9-1.9,3.6-2.4,5.5c-0.5,1.9-0.7,3.9-0.6,5.9c0.1,0.9,0.2,1.9,0.7,2.7l0,0
						c-0.1,1.1,0.9,2.1,0.9,3.2l0,0c0.2,0.3,0.3,0.7,0.5,1c0.4,0.7,0.8,1.1,0.8,1.3c0,0.3-0.2,0.4-0.7,0.4c-0.2,0-0.3,0.3-0.6,0l0,0
						l0,0c-1.2-0.7-1.7-2.2-2.2-3.5c-1.2-3.1-1.5-6.6-1-9.9c0.2-1.6,0.7-3.3,1.3-4.8c0.6-1.6,1.5-2.9,2.1-4.3
						c0.7-1.7,0.8-3.4,0.5-5.3c-0.3-1.9-0.6-3.9-0.9-5.8C21.3,95.4,21.1,94.3,21,93.3L21,93.3z"/>
				</g>
			</g>
		</g>
	</g>
	<g>
		<g>
			<path class="st1" d="M37.6,54.2c-6.5-9.1-4.4-21.8,4.7-28.3c9.1-6.5,21.8-4.4,28.3,4.7c5,7,4.9,16,0.6,22.8
				c1.5,1.7,3.6,3.5,6.1,4.3c1.1,0.4,1.1,1.9,0,2.3c-3.4,1.3-8.7,2.5-13.8,0.3C54.6,65,43.5,62.6,37.6,54.2z"/>
		</g>
		<g>
			<g>
				<g>
					<path class="st2" d="M51.3,43.2c0.2-0.3,0.4-0.7,0.6-1c1-1.1,2-2.2,3-3.2c0.1-0.1,0-0.2,0-0.3l0,0c0.6-0.6,1.3-1.3,1.9-1.9
						c1.4-1.6,2.8-3,4.7-4.1c0.3-0.2,0.7-0.5,2,0.9c1.4,1.4,1.9,2.5,1.5,2.8c-1.1,0.8-2.3,1.4-3,2.6c-1,1.7-2.4,2.9-3.6,4.4
						c-1.1,1.3-2.3,2.6-3.3,4c-0.2,0.3-0.5,0.7-0.6,1c-0.4,0.6-0.8,1.3-1.3,1.9c-0.5,0.6-1.1,1-1.8,1.3c-0.7,0.3-1.4,0.4-2.1,0.2
						c-1.2-0.2-2.3-1.1-3.1-2.2l-0.6-0.8l-0.4-0.5l-0.6-1c-0.2-0.3-0.3-0.6-1.1-0.4l0,0c0.4-0.9-1.1-0.1-0.3-1.2l0,0
						c0-0.1,0-0.3-0.2-0.3c-0.6-0.1-0.2-0.7,1.5-2.1c0.4-0.3,0.8-0.8,1.1-0.9l0,0l0,0c1.4-0.7,1.3,0.2,1.6,0.5
						c0.8,0.8,1.5,1.6,2.1,2.2c0.2,0.2,0.4,0.4,0.6,0.3c0.1,0,0.2-0.1,0.3-0.3c0-0.1,0.1-0.1,0.1-0.2c0,0,0-0.1,0-0.1l0.2-0.3
						c0.1-0.1,0.2-0.3,0.3-0.4C50.9,43.9,50.9,43.4,51.3,43.2L51.3,43.2z"/>
				</g>
			</g>
		</g>
	</g>
</g>
</svg>
