<?xml version="1.0" encoding="utf-8"?>
<!-- Generator: Adobe Illustrator 25.2.3, SVG Export Plug-In . SVG Version: 6.00 Build 0)  -->
<svg version="1.1" id="Layer_1" xmlns="http://www.w3.org/2000/svg" xmlns:xlink="http://www.w3.org/1999/xlink" x="0px" y="0px"
	 viewBox="0 0 190 150" style="enable-background:new 0 0 190 150;" xml:space="preserve">
<style type="text/css">
	.st0{fill:#231F20;}
	.st1{fill:#EF3636;}
	.st2{fill:#FFFFFF;}
</style>
<g>
	<g>
		<g>
			<g>
				<path class="st0" d="M125.1,21.7c0.3,0,0.7-0.1,1-0.1l3.9,0c0.1,0,0.1,0,0.2-0.1l0,0c0.8,0,1.6,0,2.4,0c1.8,0,3.7-0.1,5.5,0.1
					c0.3,0,0.8,0,0.8,0.7c0,0.7-0.3,1.1-0.8,1.1c-1.2-0.1-2.4-0.2-3.6-0.1c-1.8,0.2-3.5,0.1-5.3,0.2l-4.7,0.1
					c-1.5,0.1-3,0.2-4.5,0.2c-1.3,0-2.6-0.2-3.8-0.2c-0.3,0-0.6,0-0.9,0.2l0,0c-0.3-0.3-0.8,0.3-1.1-0.2l0,0c-0.1,0-0.2-0.1-0.4,0
					c-0.5,0.1-0.7-0.1-0.5-0.9c0-0.2,0-0.4,0.1-0.5l0,0l0,0c0.4-0.5,0.8-0.3,1.2-0.3c2-0.1,3.9-0.1,5.9-0.1c1.2,0,2.4,0,3.6-0.1
					C124.5,21.8,124.8,21.7,125.1,21.7L125.1,21.7z"/>
			</g>
		</g>
	</g>
	<g>
		<g>
			<g>
				<path class="st0" d="M88.6,21.7c0.5,0,0.9-0.1,1.4-0.1c1.8,0,3.5,0.1,5.3,0.1c0.1,0,0.2,0,0.3-0.1l0,0c1.1,0,2.1,0.1,3.2,0.1
					c2.5,0,4.9,0,7.4,0.3c0.4,0,1,0,1,0.7c0,0.7-0.5,1.1-1.1,1.1c-1.6-0.1-3.2-0.3-4.9-0.2c-2.4,0.2-4.7,0-7.1,0.1
					c-2.1,0-4.2,0-6.3,0c-2,0-4,0.2-6,0.1c-1.7,0-3.4-0.2-5.1-0.3c-0.4,0-0.8-0.1-1.2,0.2l0,0c-0.5-0.3-1,0.3-1.5-0.2l0,0
					c-0.2,0-0.3-0.1-0.5,0c-0.7,0.1-0.9-0.1-0.6-0.9c0.1-0.2,0-0.4,0.2-0.5c0,0,0,0,0,0l0,0c0.5-0.5,1.1-0.3,1.6-0.3
					c2.6,0,5.2,0,7.9,0c1.6,0,3.2,0,4.8,0C87.7,21.7,88.1,21.6,88.6,21.7L88.6,21.7z"/>
			</g>
		</g>
	</g>
	<g>
		<g>
			<g>
				<path class="st0" d="M60.1,21.4c0.2,0,0.4-0.1,0.5-0.1l2,0.1c0,0,0.1,0,0.1-0.1l0,0c0.4,0,0.8,0,1.2,0c0.9,0,1.9,0,2.8,0.2
					c0.1,0,0.4,0,0.4,0.7c0,0.7-0.2,1.1-0.4,1.1c-0.6-0.1-1.2-0.2-1.8-0.1c-0.9,0.2-1.8,0.1-2.7,0.1c-0.8,0-1.6,0-2.4,0
					c-0.7,0-1.5,0.2-2.2,0.2c-0.6,0-1.3-0.2-1.9-0.3c-0.2,0-0.3-0.1-0.5,0.2l0,0c-0.2-0.3-0.4,0.3-0.6-0.2l0,0c-0.1,0-0.1-0.1-0.2,0
					c-0.3,0.1-0.3-0.1-0.2-0.9c0-0.2,0-0.4,0.1-0.5l0,0l0,0c0.2-0.5,0.4-0.3,0.6-0.3c1,0,2,0,3-0.1c0.6,0,1.2,0,1.8-0.1
					C59.8,21.5,60,21.4,60.1,21.4L60.1,21.4z"/>
			</g>
		</g>
	</g>
	<g>
		<g>
			<g>
				<path class="st0" d="M93.4,38.3c1.1,0,2.2,0,3.3,0l12.7,0.1c0.2,0,0.4,0,0.6-0.1l0,0l7.7,0c5.9,0,11.8-0.1,17.7,0
					c0.9,0,2.5,0,2.5,0.7c0,0.7-1.1,1.1-2.7,1.1c-3.9,0-7.8-0.1-11.7,0.1c-5.7,0.2-11.3,0.1-17,0.1l-15.2-0.1c-4.8,0-9.5,0.1-14.3,0
					c-4.1,0-8.2-0.3-12.3-0.4c-1,0-2-0.1-2.9,0.2l0,0c-1.1-0.3-2.4,0.3-3.5-0.2l0,0c-0.4,0-0.8-0.1-1.1,0C55.4,40,55,39.8,55.5,39
					c0.1-0.2,0-0.4,0.4-0.5l0,0l0,0c1.1-0.5,2.6-0.3,3.8-0.3c6.3,0,12.6,0,18.9,0.1c3.9,0,7.7,0.1,11.6,0.1
					C91.3,38.3,92.3,38.2,93.4,38.3L93.4,38.3z"/>
			</g>
		</g>
	</g>
	<g>
		<g>
			<g>
				<path class="st0" d="M141.1,48.8c0.1-0.7,0.1-1.3,0.2-2c0.3-2.5,0.6-5,0.8-7.5c0-0.1,0-0.3,0-0.4l0,0c0.1-1.5,0.2-3,0.3-4.6
					c0.2-3.5,0.2-7.1,0.4-10.6c0-0.6,0-1.5,0.7-1.5c0.7,0,1.1,0.6,1.1,1.6c0,2.4-0.2,4.7-0.2,7c0.1,3.4-0.2,6.8-0.5,10.2
					c-0.2,3.1-0.6,6.1-1,9.2c-0.4,2.9-0.6,5.7-1.2,8.6c-0.5,2.4-1.1,4.9-1.7,7.3c-0.1,0.6-0.3,1.2-0.2,1.8l0,0
					c-0.4,0.6-0.1,1.5-0.7,2l0,0c-0.1,0.2-0.2,0.4-0.2,0.7c-0.1,1-0.4,1.2-1.1,0.7c-0.1-0.1-0.4-0.1-0.4-0.4l0,0l0,0
					c-0.3-0.8,0.1-1.6,0.3-2.3c0.8-3.7,1.6-7.4,2.2-11.1c0.4-2.3,0.8-4.6,1-6.8C141,50,141,49.4,141.1,48.8L141.1,48.8z"/>
			</g>
		</g>
	</g>
	<g>
		<g>
			<g>
				<path class="st0" d="M47.8,63.5l0.5-3.1c0.5-3.9,1-7.9,1.2-11.9c0-0.2,0-0.4,0-0.6l0,0c0.1-1.2,0.1-2.4,0.2-3.6
					c0-1.2,0.1-2.4,0.1-3.6c0-5.6-0.2-11.2-0.3-16.8c0-0.9-0.1-2.4,0.6-2.4c0.7,0,1.2,1,1.2,2.5c0.2,3.7,0.2,7.4,0.4,11.1
					c0.3,5.4,0.1,10.8-0.2,16.2c-0.3,4.8-1,9.7-1.9,14.5c-0.9,4.5-1.9,9-3.4,13.3c-0.6,1.9-1.4,3.7-2.2,5.5l-1.3,2.7
					c-0.4,0.9-0.8,1.8-1.3,2.7c-0.4,0.8-0.9,1.7-1.1,2.6l0,0c-0.7,0.8-0.9,2.2-1.8,2.8l0,0c-0.2,0.3-0.4,0.6-0.6,0.9
					c-0.7,1.5-1.2,1.7-1.5,0.8c-0.1-0.2-0.3-0.2-0.2-0.6l0,0l0,0c0.1-1.2,1-2.2,1.6-3.3c2.9-5.2,5.2-10.6,7-16.3
					c0.3-0.9,0.6-1.7,0.8-2.6l0.7-2.6c0.5-1.7,0.8-3.5,1.2-5.3C47.5,65.4,47.6,64.4,47.8,63.5L47.8,63.5z"/>
			</g>
		</g>
	</g>
	<g>
		<g>
			<g>
				<g>
					<path class="st0" d="M63,95.5c1.3,0,2.7-0.1,4-0.1l15.1-0.1c0.3,0,0.5,0,0.8-0.1l0,0l9.1-0.1l2.6,0c0.9,0,1.8,0,2.8,0.1
						c1,0.1,2.1,0.4,2.9,1c0.8,0.5,1.6,1,2.3,1.6c2.9,2.3,5,5.1,8,6.4c0.2,0.1,0.5,0.2,0.8,0.3c0.3,0.1,0.6,0.2,0.8,0.3
						c0.5,0.2,0.9,0.4,0.9,0.7c0,0.3-0.4,0.6-1,0.7c-0.6,0.1-1.5-0.1-2.4-0.5c-2.3-1.1-4-2.8-5.7-4.4c-0.8-0.8-1.7-1.6-2.6-2.3
						c-0.4-0.4-0.9-0.7-1.4-1c-0.5-0.3-0.9-0.6-1.4-0.7c-1.4-0.5-3-0.3-4.7-0.3l-5.1,0.1l-10.1,0.1l-18.1,0.2
						c-5.7,0.1-11.4,0.3-17,0.4c-4.9,0-9.8-0.1-14.7-0.1c-1.2,0-2.4,0-3.5,0.2l0,0c-1.3-0.3-2.9,0.3-4.2-0.1l0,0c-0.5,0-0.9,0-1.4,0
						c-2,0.1-2.5-0.1-1.9-0.9c0.1-0.2,0-0.4,0.5-0.5l0,0l0,0c1.4-0.5,3-0.3,4.6-0.3l22.5-0.3c4.6-0.1,9.2-0.1,13.8-0.2
						C60.5,95.5,61.7,95.4,63,95.5L63,95.5z"/>
				</g>
			</g>
		</g>
		<g>
			<g>
				<g>
					<path class="st0" d="M60.4,113.3c1.4,0,2.7,0,4.1,0c5.2,0,10.4,0.1,15.5,0.1c0.3,0,0.5,0,0.8-0.1l0,0c3.1,0,6.3,0,9.4-0.1
						c7.2-0.2,14.5-0.4,21.7-0.6c1.1,0,3-0.1,3.1,0.5c0,0.7-1.3,1.2-3.2,1.3c-4.8,0.2-9.6,0.2-14.3,0.5c-7,0.4-13.9,0.4-20.9,0.4
						c-6.2,0.1-12.5,0-18.7-0.1c-5.9-0.1-11.7,0-17.6-0.2c-2.6-0.1-5.2-0.4-7.7-1.1c-2.5-0.7-5-1.8-7.1-3.4c-1-0.8-1.9-1.7-2.9-2.5
						l0,0c-0.7-1.3-2.1-2.3-2.5-3.7l0,0c-0.2-0.4-0.5-0.8-0.7-1.2c-1.2-1.7-1.2-2.3-0.2-2.1c0.2,0,0.3-0.2,0.7,0.1l0,0l0,0
						c1.2,0.9,1.8,2.5,2.8,3.8c1.1,1.5,2.3,2.9,3.8,4c1.4,1.1,3.1,1.9,4.9,2.5c3.5,1.2,7.3,1.4,11.2,1.5c4.7,0.1,9.5,0.3,14.2,0.2
						C57.8,113.3,59.1,113.2,60.4,113.3L60.4,113.3z"/>
				</g>
			</g>
		</g>
	</g>
	<g>
		<g>
			<g>
				<path class="st0" d="M66.1,21.8c0-0.6,0-1.1,0.1-1.7c0.3-2.1,1.1-4.2,2.6-5.9c0.1-0.1,0.1-0.2,0.2-0.3l0,0
					c0.9-1,2.1-1.8,3.5-2.2c1.6-0.4,3.4-0.1,4.8,0.7c1.4,0.9,2.4,2.1,3,3.5c0.2,0.4,0.5,1.2-0.1,1.4c-0.7,0.3-1.2,0-1.5-0.6
					c-0.7-1.4-1.9-2.8-3.4-3.1c-1.1-0.2-2.2-0.1-3.2,0.5c-1,0.5-1.8,1.4-2.4,2.4c-1.1,1.8-1.6,4.1-1.5,6.3c0.1,2.1,0.9,4,2,5.6
					c1,1.3,2.3,2.5,3.9,2.6c0.4,0,0.8,0,1.1-0.3l0,0c0.5,0.2,0.7-0.5,1.3-0.4l0,0c0.1-0.1,0.3-0.1,0.4-0.2c0.5-0.5,0.8-0.5,1.1,0.3
					c0.1,0.2,0.3,0.3,0.2,0.5l0,0l0,0c-0.1,0.8-0.9,1-1.5,1.3c-0.8,0.4-1.6,0.6-2.5,0.6c-0.9,0-1.7-0.2-2.5-0.5
					c-1.6-0.7-2.7-1.9-3.6-3.3c-1-1.7-1.5-3.6-1.8-5.5C66.2,22.9,66,22.4,66.1,21.8L66.1,21.8z"/>
			</g>
		</g>
	</g>
	<g>
		<g>
			<g>
				<path class="st0" d="M106.5,21.8c0-0.6,0-1.1,0.1-1.7c0.3-2.1,1.1-4.2,2.6-5.9c0.1-0.1,0.1-0.2,0.2-0.3l0,0
					c0.9-1,2.1-1.8,3.5-2.2c1.6-0.4,3.4-0.1,4.8,0.7c1.4,0.9,2.4,2.1,3,3.5c0.2,0.4,0.5,1.2-0.1,1.4c-0.7,0.3-1.2,0-1.5-0.6
					c-0.7-1.4-1.9-2.8-3.4-3.1c-1.1-0.2-2.2-0.1-3.2,0.5c-1,0.5-1.8,1.4-2.4,2.4c-1.1,1.8-1.6,4.1-1.5,6.3c0.1,2.1,0.9,4,2,5.6
					c1,1.3,2.3,2.5,3.9,2.6c0.4,0,0.8,0,1.1-0.3l0,0c0.5,0.2,0.7-0.5,1.3-0.4l0,0c0.1-0.1,0.3-0.1,0.4-0.2c0.5-0.5,0.8-0.5,1.1,0.3
					c0.1,0.2,0.3,0.3,0.2,0.5l0,0l0,0c-0.1,0.8-0.9,1-1.5,1.3c-0.8,0.4-1.6,0.6-2.5,0.6c-0.9,0-1.7-0.2-2.5-0.5
					c-1.6-0.7-2.7-1.9-3.6-3.3c-1-1.7-1.5-3.6-1.8-5.5C106.5,22.9,106.4,22.4,106.5,21.8L106.5,21.8z"/>
			</g>
		</g>
	</g>
	<g>
		<g>
			<circle class="st1" cx="137.5" cy="98.7" r="21.5"/>
		</g>
		<g>
			<g>
				<g>
					<path class="st2" d="M136.1,97.5c0-0.1-0.1-0.3-0.1-0.4l0-0.3c0-0.2,0-0.3,0-0.5l0.1-3.7c0-0.1-0.1-0.1-0.1-0.2l0,0
						c0-0.7,0-1.5,0-2.2c0-1.7,0-3.4,0.3-5.1c0-0.3,0.1-0.7,1-0.7c1,0,1.6,0.3,1.5,0.8c-0.1,1.1-0.3,2.3-0.1,3.4
						c0.3,1.6,0.1,3.3,0.2,4.9c0,0.7,0,1.5,0,2.2l0,1.1c0,0.1,0,0.2,0,0.2c0,0,0,0,0,0.1c0,0,0,0.1,0.1,0.1c0.1,0.1,0.1,0.1,0.2,0.1
						c0,0,0.1,0,0.1,0c0.1,0,0,0,0.2,0c0.7-0.1,1.4-0.1,2.1-0.1c1.2,0,2.4,0.3,3.6,0.3c0.3,0,0.6,0.1,0.8-0.3l0,0
						c0.3,0.4,0.7-0.4,1,0.3l0,0c0.1,0,0.2,0.1,0.3,0c0.5-0.2,0.6,0.2,0.5,1.3c0,0.2,0,0.6-0.1,0.7l0,0l0,0
						c-0.3,0.7-0.7,0.4-1.1,0.4c-1.8,0.1-3.6,0.1-5.4,0.1l-1.7,0c-0.4,0-0.9-0.1-1.4-0.2c-0.4-0.2-0.9-0.5-1.2-0.8
						C136.5,98.5,136.1,98.1,136.1,97.5L136.1,97.5z"/>
				</g>
			</g>
		</g>
	</g>
	<g>
		<g>
			<g>
				<path class="st0" d="M154.7,46.5c0,0.8,0.1,1.6,0.1,2.4c0,3,0,6.1,0,9.1c0,0.2,0,0.3,0.1,0.5l0,0l0,5.5c0,4.2,0,8.5-0.2,12.7
					c0,0.7,0,1.8-0.7,1.8c-0.7,0-1.1-0.8-1.1-1.9c0-2.8,0.2-5.6,0.1-8.4c-0.2-4.1-0.1-8.1-0.1-12.2c0-3.6,0-7.3-0.1-10.9
					c-0.1-3.4-0.4-6.8-0.6-10.2c-0.1-1.5-0.1-2.9-0.6-3.8c-0.5-0.9-1.9-1.9-2.9-2.8c-0.5-0.4-1.1-0.9-1.8-1.2l0,0
					c-0.4-0.7-1.5-0.9-1.8-1.7l0,0c-0.2-0.2-0.4-0.4-0.6-0.5c-1-0.7-1.1-1.1-0.3-1.4c0.2-0.1,0.2-0.3,0.5-0.2l0,0l0,0
					c1,0.1,1.6,0.9,2.3,1.5l2.6,2.1c0.9,0.7,1.7,1.3,2.7,2.2c0.4,0.4,0.9,1,1.2,1.6c0.3,0.6,0.4,1.3,0.5,1.9
					c0.2,1.2,0.2,2.3,0.3,3.4l0.4,8.3C154.6,45,154.7,45.8,154.7,46.5L154.7,46.5z"/>
			</g>
		</g>
	</g>
	<g>
		<g>
			<g>
				<path class="st0" d="M148.6,61c0,0.4,0,0.7-0.1,1.1c-0.2,1.4-0.4,2.7-0.6,4c0,0.1,0,0.1,0,0.2l0,0l-0.4,2.4
					c-0.3,1.9-0.5,3.7-1,5.6c-0.1,0.3-0.1,0.8-0.8,0.7c-0.7-0.1-1.1-0.5-1-1c0.2-1.2,0.6-2.4,0.6-3.7c0.1-1.8,0.4-3.6,0.7-5.4
					c0.2-1.6,0.4-3.2,0.5-4.8c0.1-1.5,0.1-3,0.2-4.5c0.1-1.3,0.3-2.6,0.4-3.9c0-0.3,0.1-0.6-0.2-0.9l0,0c0.3-0.4-0.3-0.8,0.2-1.1
					l0,0c0-0.1,0.1-0.2,0-0.4c-0.1-0.5,0.1-0.7,0.9-0.5c0.2,0,0.4,0,0.5,0.1l0,0l0,0c0.5,0.4,0.3,0.8,0.3,1.2c0,2,0,4.1-0.1,6.1
					c-0.1,1.2-0.2,2.5-0.2,3.7C148.6,60.3,148.7,60.6,148.6,61L148.6,61z"/>
			</g>
		</g>
	</g>
	<g>
		<g>
			<g>
				<path class="st0" d="M105.3,133.4c1.5,0,2.9-0.1,4.4-0.1l16.6,0c0.3,0,0.6,0,0.8-0.1l0,0l10.1,0c3.9,0,7.7-0.1,11.4-0.7
					c0.9-0.2,2-0.3,2.3-0.6c0.2-0.1,0.2-0.2,0.3-0.6c0.1-0.3,0.1-0.8,0.1-1.3l0.1-2.9c0-0.5,0-1,0.1-1.5l0.1-1.4
					c0-1.2,0.1-3.3,0.7-3.2c0.7,0,1.1,1.4,1.1,3.5c0,1.3-0.1,2.5-0.1,3.8l0,1.9c0,0.6,0,1.4-0.4,2.2c-0.2,0.4-0.6,0.8-0.9,1
					c-0.4,0.2-0.7,0.3-1.1,0.4c-0.7,0.2-1.3,0.3-2,0.4c-1.3,0.2-2.6,0.4-3.8,0.5c-3.8,0.4-7.5,0.3-11.2,0.4l-11.1,0l-20,0.1
					c-6.3,0-12.5,0.2-18.8,0.2c-5.4,0-10.8-0.2-16.2-0.2c-1.3,0-2.7-0.1-3.8,0.2l0,0c-0.4-0.1-0.7-0.1-1.2-0.1c-0.2,0-0.4,0-0.7,0
					l-0.6,0c-0.2,0-0.4,0-0.6,0c-0.1,0-0.7-0.1-1-0.2c-0.3-0.1-0.6-0.4-0.8-0.7c-0.2-0.3-0.2-0.7-0.2-1l0,0c-0.1-0.6,0-1.2,0-1.7
					c0.1-2.3,0.4-2.8,1.1-2c0.2,0.2,0.4,0,0.5,0.6l0,0l0,0c0.2,0.8,0.2,1.6,0.2,2.4c0,0.2,0,0.4,0,0.5c0,0.1,0,0.1,0,0.2
					c0,0,0.1,0.1,0.1,0.1c0,0,0.1,0,0.2,0l0.3,0c0.6,0,1,0.1,1.5,0.1l1.6-0.1l3.1,0l6.2,0l12.4,0c5.1,0,10.1,0,15.2-0.1
					C102.5,133.5,103.9,133.4,105.3,133.4L105.3,133.4z"/>
			</g>
		</g>
	</g>
	<g>
		<g>
			<g>
				<path class="st0" d="M78.1,124.8c1.3,0,2.6-0.1,4-0.1l15,0c0.3,0,0.5,0,0.8-0.1l0,0l9.1,0l10.5,0c3.5,0,6.9,0,10.4-0.3
					c1.1-0.1,2.9-0.4,2.9,0.3c0.1,0.7-1.1,1.4-3,1.6c-4.7,0.5-9.3,0.2-13.9,0.3c-6.7,0.2-13.4,0.1-20.1,0.1l-18,0.1
					c-5.6,0-11.3,0.2-16.9,0.2c-4.9,0-9.7-0.2-14.6-0.2c-0.6,0-1.3-0.1-2-0.2c-0.4-0.1-0.7-0.2-1.1-0.4c-0.4-0.2-0.8-0.6-1-1.1l0,0
					c-0.1-0.7,0-1.2,0.2-1.7c0.2-0.5,0.4-0.9,0.6-1.2c0.4-0.7,0.8-1.2,1.4-1.6l0,0c0.3-0.3,0.6-0.7,0.9-1c1.1-1.6,1.7-1.9,1.9-0.9
					c0,0.2,0.3,0.2,0.1,0.7l0,0l0,0c-0.4,1.4-1.7,2.6-2.6,3.8c-0.2,0.3-0.5,0.7-0.6,1c-0.1,0.3,0,0.4,0,0.5c0.1,0.1,0.4,0.3,0.8,0.4
					c0.4,0.1,0.8,0.1,1.2,0.1l5.6,0l11.2,0c4.6,0,9.1,0,13.7-0.1C75.6,124.9,76.9,124.8,78.1,124.8L78.1,124.8z"/>
			</g>
		</g>
	</g>
</g>
</svg>
