<?xml version="1.0" encoding="utf-8"?>
<!-- Generator: Adobe Illustrator 25.2.3, SVG Export Plug-In . SVG Version: 6.00 Build 0)  -->
<svg version="1.1" id="Layer_1" xmlns="http://www.w3.org/2000/svg" xmlns:xlink="http://www.w3.org/1999/xlink" x="0px" y="0px"
	 viewBox="0 0 190 150" style="enable-background:new 0 0 190 150;" xml:space="preserve">
<style type="text/css">
	.st0{fill:#0048FF;}
	.st1{fill:#FFFFFF;}
	.st2{fill:#231F20;}
	.st3{fill:none;}
</style>
<g>
	<g>
		<g>
			<g>
				<rect x="63.3" y="71.5" class="st0" width="69.6" height="68.1"/>
			</g>
			<g>
				<polygon class="st0" points="132.9,71.4 63.3,71.4 76.5,45.9 119.6,45.9 				"/>
			</g>
			<g>
				<g>
					<g>
						<path class="st1" d="M97.3,78.7c0.3,0,0.5-0.1,0.8-0.1c1,0,2,0,3.1,0c0.1,0,0.1,0,0.2-0.1l0,0c0.6,0,1.2,0,1.8,0
							c1.4,0,2.8,0,4.3,0.2c0.2,0,0.6,0,0.6,0.8c0,0.8-0.3,1.3-0.6,1.2c-0.9-0.1-1.9-0.3-2.8-0.1c-1.4,0.2-2.7,0.1-4.1,0.1
							c-1.2,0-2.4,0-3.7,0c-1.1,0-2.3,0.2-3.4,0.2c-1,0-2-0.2-3-0.3c-0.2,0-0.5-0.1-0.7,0.2l0,0c-0.3-0.3-0.6,0.3-0.8-0.2l0,0
							c-0.1,0-0.2-0.1-0.3,0c-0.4,0.1-0.5-0.1-0.4-1c0-0.2,0-0.4,0.1-0.6c0,0,0,0,0,0l0,0c0.3-0.6,0.6-0.3,0.9-0.3
							c1.5-0.1,3-0.1,4.5-0.1c0.9,0,1.9,0,2.8-0.1C96.8,78.7,97,78.6,97.3,78.7L97.3,78.7z"/>
					</g>
				</g>
			</g>
			<g>
				<g>
					<g>
						<path class="st1" d="M95,70.3c1.1,0,2.2-0.1,3.2-0.1c4.1,0,8.2,0,12.2,0c0.2,0,0.4,0,0.6-0.1l0,0c2.5,0,4.9,0,7.4,0
							c5.7,0,11.4,0,17.1,0.2c0.9,0,2.4,0,2.4,0.8c0,0.8-1,1.3-2.6,1.2c-3.8-0.1-7.5-0.3-11.3-0.1c-5.5,0.2-10.9,0.1-16.4,0.1
							c-4.9,0-9.8,0-14.7,0c-4.6,0-9.2,0.2-13.8,0.2c-4,0-8-0.2-11.9-0.3c-0.9,0-1.9-0.1-2.8,0.2l0,0c-1.1-0.3-2.3,0.3-3.4-0.2l0,0
							c-0.4,0-0.7-0.1-1.1,0c-1.6,0.1-2.1-0.1-1.5-1c0.1-0.2,0-0.4,0.4-0.6c0,0,0,0,0,0l0,0c1.1-0.6,2.5-0.3,3.7-0.3
							c6.1-0.1,12.2-0.1,18.2-0.1c3.7,0,7.5,0,11.2-0.1C92.9,70.3,93.9,70.2,95,70.3L95,70.3z"/>
					</g>
				</g>
			</g>
			<g>
				<g>
					<g>
						<path class="st1" d="M96.9,55.4c0-0.5-0.1-0.9-0.1-1.4c0-1.8,0-3.5,0-5.3c0-0.1,0-0.2-0.1-0.3l0,0c0-1.1,0-2.1,0-3.2
							c0-2.5,0-5,0.2-7.4c0-0.4,0-1,0.8-1c0.8,0,1.3,0.5,1.2,1.1c-0.1,1.6-0.3,3.3-0.1,4.9c0.2,2.4,0.1,4.8,0.1,7.1
							c0,2.1,0,4.3,0,6.4c0,2,0.2,4,0.2,6c0,1.7-0.2,3.5-0.3,5.2c0,0.4-0.1,0.8,0.2,1.2l0,0c-0.3,0.5,0.3,1-0.2,1.5l0,0
							c0,0.2-0.1,0.3,0,0.5c0.1,0.7-0.1,0.9-1,0.7c-0.2-0.1-0.4,0-0.6-0.2c0,0,0,0,0,0l0,0c-0.6-0.5-0.3-1.1-0.3-1.6
							c-0.1-2.6-0.1-5.3-0.1-7.9c0-1.6,0-3.2-0.1-4.9C96.9,56.3,96.8,55.9,96.9,55.4L96.9,55.4z"/>
					</g>
				</g>
			</g>
		</g>
		<g>
			<g>
				<g>
					<g>
						<path class="st2" d="M137.8,60.3c0.2,0,0.4-0.1,0.6-0.1c0.7,0,1.4,0,2.1,0c0,0,0.1,0,0.1-0.1l0,0c0.4,0,0.8,0,1.3,0
							c1,0,2,0,2.9,0.2c0.2,0,0.4,0,0.4,0.7c0,0.7-0.2,1.1-0.4,1.1c-0.6-0.1-1.3-0.2-1.9-0.1c-0.9,0.2-1.9,0.1-2.8,0.1
							c-0.8,0-1.7,0-2.5,0c-0.8,0-1.6,0.2-2.4,0.2c-0.7,0-1.4-0.2-2-0.2c-0.2,0-0.3-0.1-0.5,0.2l0,0c-0.2-0.3-0.4,0.3-0.6-0.2l0,0
							c-0.1,0-0.1-0.1-0.2,0c-0.3,0.1-0.4-0.1-0.3-0.9c0-0.2,0-0.4,0.1-0.5c0,0,0,0,0,0l0,0c0.2-0.5,0.4-0.3,0.6-0.3
							c1-0.1,2.1-0.1,3.1-0.1c0.6,0,1.3,0,1.9-0.1C137.4,60.4,137.6,60.3,137.8,60.3L137.8,60.3z"/>
					</g>
				</g>
			</g>
			<g>
				<g>
					<g>
						<path class="st2" d="M58.8,60.3c0.2,0,0.3-0.1,0.5-0.1c0.6,0,1.3,0,1.9,0c0,0,0.1,0,0.1-0.1l0,0c0.4,0,0.8,0,1.2,0
							c0.9,0,1.8,0,2.7,0.2c0.1,0,0.4,0,0.4,0.7c0,0.7-0.2,1.1-0.4,1.1c-0.6-0.1-1.2-0.2-1.8-0.1c-0.9,0.2-1.7,0.1-2.6,0.1
							c-0.8,0-1.5,0-2.3,0c-0.7,0-1.4,0.2-2.2,0.2c-0.6,0-1.2-0.2-1.9-0.2c-0.1,0-0.3-0.1-0.4,0.2l0,0c-0.2-0.3-0.4,0.3-0.5-0.2l0,0
							c-0.1,0-0.1-0.1-0.2,0c-0.3,0.1-0.3-0.1-0.2-0.9c0-0.2,0-0.4,0.1-0.5c0,0,0,0,0,0l0,0c0.2-0.5,0.4-0.3,0.6-0.3
							c1-0.1,1.9-0.1,2.9-0.1c0.6,0,1.2,0,1.7-0.1C58.5,60.4,58.7,60.3,58.8,60.3L58.8,60.3z"/>
					</g>
				</g>
			</g>
			<g>
				<g>
					<g>
						<path class="st2" d="M52.7,44.7c0,0.4,0.1,0.8,0.1,1.3c0,1.6,0,3.2,0,4.7c0,0.1,0,0.2,0.1,0.2l0,0c0,1,0,1.9,0,2.9
							c0,2.2,0,4.4-0.2,6.6c0,0.3,0,0.9-0.7,0.9c-0.7,0-1.1-0.4-1.1-1c0.1-1.5,0.2-2.9,0.1-4.4c-0.2-2.1-0.1-4.2-0.1-6.3
							c0-1.9,0-3.8,0-5.7c0-1.8-0.2-3.6-0.2-5.3c0-1.5,0.2-3.1,0.2-4.6c0-0.4,0.1-0.7-0.2-1.1l0,0c0.3-0.4-0.3-0.9,0.2-1.3l0,0
							c0-0.1,0.1-0.3,0-0.4c-0.1-0.6,0.1-0.8,0.9-0.6c0.2,0,0.4,0,0.5,0.1c0,0,0,0,0,0l0,0c0.5,0.4,0.3,1,0.3,1.4
							c0.1,2.3,0.1,4.7,0.1,7c0,1.4,0,2.9,0.1,4.3C52.6,44,52.7,44.3,52.7,44.7L52.7,44.7z"/>
					</g>
				</g>
			</g>
			<g>
				<g>
					<g>
						<path class="st2" d="M102.7,31.6c-1.2,0-2.5,0.1-3.7,0.1c-4.7,0-9.4,0-14.1,0c-0.2,0-0.5,0-0.7,0.1l0,0c-2.8,0-5.7,0-8.5,0
							c-6.6,0-13.2,0-19.8-0.2c-1,0-2.8,0-2.7-0.7c0-0.7,1.2-1.1,3-1.1c4.3,0.1,8.7,0.2,13,0.1c6.3-0.2,12.6-0.1,18.9-0.1
							c5.7,0,11.3,0,17,0c5.3,0,10.6-0.2,16-0.2c4.6,0,9.2,0.2,13.8,0.2c1.1,0,2.2,0.1,3.3-0.2l0,0c1.2,0.3,2.7-0.3,3.9,0.2l0,0
							c0.4,0,0.9,0.1,1.3,0c1.9-0.1,2.4,0.1,1.8,0.9c-0.1,0.2,0,0.4-0.4,0.5c0,0,0,0,0,0l0,0c-1.3,0.5-2.9,0.3-4.3,0.3
							c-7,0.1-14,0.1-21,0.1c-4.3,0-8.6,0-12.9,0.1C105,31.5,103.9,31.6,102.7,31.6L102.7,31.6z"/>
					</g>
				</g>
			</g>
			<g>
				<g>
					<g>
						<path class="st2" d="M148.3,19.7c0,0.3,0.1,0.5,0.1,0.8c0,1,0,2.1,0,3.1c0,0.1,0,0.1,0.1,0.2l0,0c0,0.6,0,1.2,0,1.9
							c0,1.4,0,2.9-0.2,4.3c0,0.2,0,0.6-0.7,0.6c-0.7,0-1.1-0.3-1.1-0.7c0.1-0.9,0.2-1.9,0.1-2.8c-0.2-1.4-0.1-2.7-0.1-4.1
							c0-1.2,0-2.5,0-3.7c0-1.2-0.2-2.3-0.2-3.5c0-1,0.2-2,0.2-3c0-0.2,0.1-0.5-0.2-0.7l0,0c0.3-0.3-0.3-0.6,0.2-0.9l0,0
							c0-0.1,0.1-0.2,0-0.3c-0.1-0.4,0.1-0.5,0.9-0.4c0.2,0,0.4,0,0.5,0.1c0,0,0,0,0,0l0,0c0.5,0.3,0.3,0.6,0.3,0.9
							c0.1,1.5,0.1,3.1,0.1,4.6c0,0.9,0,1.9,0.1,2.8C148.3,19.2,148.4,19.4,148.3,19.7L148.3,19.7z"/>
					</g>
				</g>
			</g>
			<g>
				<g>
					<g>
						<path class="st2" d="M183.1,48.3c0.5-0.4,0.9-0.9,1.2-1.4c0.3-0.5,0.5-0.9,0.5-1.2c0-0.3-0.1-0.5-0.5-1l-1.3-1.4
							c-0.9-0.9-1.8-1.9-2.7-2.8c-1.8-1.8-3.7-3.6-5.6-5.4c-0.2-0.2-0.4-0.3-0.6-0.5l0,0c-2.3-2.2-4.6-4.3-7-6.4
							c-5.5-4.9-11-9.8-16.1-15c-0.8-0.8-2.2-2.2-1.7-2.6c0.5-0.5,1.7,0.1,3.2,1.5c3.4,3.4,6.9,6.8,10.5,9.9
							c5.3,4.6,10.5,9.3,15.6,14.1c2.3,2.2,4.5,4.4,6.7,6.7c0.3,0.3,0.5,0.5,0.8,0.9c0.2,0.2,0.3,0.4,0.4,0.7
							c0.1,0.3,0.2,0.5,0.3,0.8c0.2,1.2-0.3,2.2-0.9,2.9c-1.1,1.4-2.4,2.4-3.6,3.4c-0.6,0.5-1.2,0.9-1.6,1.4l-1.6,1.5l-3.2,3.1
							c-2.1,2.1-4.2,4.1-6.4,6.2c-3.7,3.5-7.5,6.9-11.3,10.4c-0.9,0.8-1.8,1.7-2.5,2.6l0,0c-1.2,0.7-2,2.3-3.3,2.9l0,0
							c-0.3,0.3-0.7,0.6-1,0.9c-1.4,1.5-2,1.7-2,0.7c0-0.2-0.3-0.3,0-0.7l0,0l0,0c0.7-1.4,2.1-2.4,3.3-3.5l16.9-16.2
							c3.5-3.3,6.9-6.6,10.4-10C181.2,50,182.1,49.1,183.1,48.3L183.1,48.3z"/>
					</g>
				</g>
			</g>
			<g>
				<g>
					<g>
						<path class="st2" d="M148.3,70.6c0,0.3,0.1,0.5,0.1,0.8c0,1,0,2.1,0,3.1c0,0.1,0,0.1,0.1,0.2l0,0c0,0.6,0,1.2,0,1.9
							c0,1.4,0,2.9-0.2,4.3c0,0.2,0,0.6-0.7,0.6c-0.7,0-1.1-0.3-1.1-0.7c0.1-0.9,0.2-1.9,0.1-2.8c-0.2-1.4-0.1-2.7-0.1-4.1
							c0-1.2,0-2.5,0-3.7c0-1.2-0.2-2.3-0.2-3.5c0-1,0.2-2,0.2-3c0-0.2,0.1-0.5-0.2-0.7l0,0c0.3-0.3-0.3-0.6,0.2-0.9l0,0
							c0-0.1,0.1-0.2,0-0.3c-0.1-0.4,0.1-0.5,0.9-0.4c0.2,0,0.4,0,0.5,0.1c0,0,0,0,0,0l0,0c0.5,0.3,0.3,0.6,0.3,0.9
							c0.1,1.5,0.1,3.1,0.1,4.6c0,0.9,0,1.9,0.1,2.8C148.3,70.1,148.4,70.4,148.3,70.6L148.3,70.6z"/>
					</g>
				</g>
			</g>
		</g>
		<g>
			<g>
				<g>
					<g>
						<path class="st2" d="M53.6,83.6c-0.2,0-0.4,0.1-0.7,0.1c-0.8,0-1.7,0-2.5,0c0,0-0.1,0-0.1,0.1l0,0c-0.5,0-1,0-1.5,0
							c-1.2,0-2.3,0-3.5-0.2c-0.2,0-0.5,0-0.5-0.7c0-0.7,0.2-1.1,0.5-1.1c0.8,0.1,1.5,0.2,2.3,0.1c1.1-0.2,2.2-0.1,3.3-0.1
							c1,0,2,0,3,0c0.9,0,1.9-0.2,2.8-0.2c0.8,0,1.6,0.2,2.4,0.2c0.2,0,0.4,0.1,0.6-0.2l0,0c0.2,0.3,0.5-0.3,0.7,0.2l0,0
							c0.1,0,0.2,0.1,0.2,0c0.3-0.1,0.4,0.1,0.3,0.9c0,0.2,0,0.4-0.1,0.5c0,0,0,0,0,0l0,0c-0.2,0.5-0.5,0.3-0.8,0.3
							c-1.2,0.1-2.5,0.1-3.7,0.1c-0.8,0-1.5,0-2.3,0.1C54,83.6,53.8,83.7,53.6,83.6L53.6,83.6z"/>
					</g>
				</g>
			</g>
			<g>
				<g>
					<g>
						<path class="st2" d="M136.8,83.6c-0.1,0-0.1,0.1-0.2,0.1c-0.2,0-0.5,0-0.7,0c0,0,0,0,0,0.1l0,0c-0.1,0-0.3,0-0.4,0
							c-0.3,0-0.7,0-1-0.2c-0.1,0-0.1,0-0.1-0.7c0-0.7,0.1-1.1,0.2-1.1c0.2,0.1,0.4,0.2,0.7,0.1c0.3-0.2,0.7-0.1,1-0.1
							c0.3,0,0.6,0,0.9,0c0.3,0,0.6-0.2,0.8-0.2c0.2,0,0.5,0.2,0.7,0.2c0.1,0,0.1,0.1,0.2-0.2l0,0c0.1,0.3,0.1-0.3,0.2,0.2l0,0
							c0,0,0,0.1,0.1,0c0.1-0.1,0.1,0.1,0.1,0.9c0,0.2,0,0.4,0,0.5c0,0,0,0,0,0l0,0c-0.1,0.5-0.1,0.3-0.2,0.3
							c-0.4,0.1-0.7,0.1-1.1,0.1c-0.2,0-0.4,0-0.7,0.1C137,83.6,136.9,83.7,136.8,83.6L136.8,83.6z"/>
					</g>
				</g>
			</g>
			<g>
				<g>
					<g>
						<path class="st2" d="M139.5,99.2c0-0.4-0.1-0.8-0.1-1.3c0-1.6,0-3.2,0-4.7c0-0.1,0-0.2-0.1-0.2l0,0c0-1,0-1.9,0-2.9
							c0-2.2,0-4.4,0.2-6.6c0-0.3,0-0.9,0.7-0.9c0.7,0,1.1,0.4,1.1,1c-0.1,1.5-0.2,2.9-0.1,4.4c0.2,2.1,0.1,4.2,0.1,6.3
							c0,1.9,0,3.8,0,5.7c0,1.8,0.2,3.6,0.2,5.3c0,1.5-0.2,3.1-0.2,4.6c0,0.4-0.1,0.7,0.2,1.1l0,0c-0.3,0.4,0.3,0.9-0.2,1.3l0,0
							c0,0.1-0.1,0.3,0,0.4c0.1,0.6-0.1,0.8-0.9,0.6c-0.2,0-0.4,0-0.5-0.1c0,0,0,0,0,0l0,0c-0.5-0.4-0.3-1-0.3-1.4
							c-0.1-2.3-0.1-4.7-0.1-7c0-1.4,0-2.9-0.1-4.3C139.5,100,139.4,99.6,139.5,99.2L139.5,99.2z"/>
					</g>
				</g>
			</g>
			<g>
				<g>
					<g>
						<path class="st2" d="M136.5,112.4c0.1,0,0.1-0.1,0.2-0.1c0.2,0,0.5,0,0.7,0c0,0,0,0,0-0.1l0,0c0.1,0,0.3,0,0.4,0
							c0.3,0,0.7,0,1,0.2c0.1,0,0.1,0,0.1,0.7c0,0.7-0.1,1.1-0.2,1.1c-0.2-0.1-0.4-0.2-0.7-0.1c-0.3,0.2-0.7,0.1-1,0.1
							c-0.3,0-0.6,0-0.9,0c-0.3,0-0.6,0.2-0.8,0.2c-0.2,0-0.5-0.2-0.7-0.2c-0.1,0-0.1-0.1-0.2,0.2l0,0c-0.1-0.3-0.1,0.3-0.2-0.2l0,0
							c0,0,0-0.1-0.1,0c-0.1,0.1-0.1-0.1-0.1-0.9c0-0.2,0-0.4,0-0.5c0,0,0,0,0,0l0,0c0.1-0.5,0.1-0.3,0.2-0.3
							c0.4-0.1,0.7-0.1,1.1-0.1c0.2,0,0.4,0,0.7-0.1C136.4,112.4,136.4,112.3,136.5,112.4L136.5,112.4z"/>
					</g>
				</g>
			</g>
			<g>
				<g>
					<g>
						<path class="st2" d="M52.3,112.4c0.2,0,0.4-0.1,0.7-0.1c0.8,0,1.7,0,2.5,0c0,0,0.1,0,0.1-0.1l0,0c0.5,0,1,0,1.5,0
							c1.2,0,2.3,0,3.5,0.2c0.2,0,0.5,0,0.5,0.7c0,0.7-0.2,1.1-0.5,1.1c-0.8-0.1-1.5-0.2-2.3-0.1c-1.1,0.2-2.2,0.1-3.3,0.1
							c-1,0-2,0-3,0c-0.9,0-1.9,0.2-2.8,0.2c-0.8,0-1.6-0.2-2.4-0.2c-0.2,0-0.4-0.1-0.6,0.2l0,0c-0.2-0.3-0.5,0.3-0.7-0.2l0,0
							c-0.1,0-0.2-0.1-0.2,0c-0.3,0.1-0.4-0.1-0.3-0.9c0-0.2,0-0.4,0.1-0.5c0,0,0,0,0,0l0,0c0.2-0.5,0.5-0.3,0.8-0.3
							c1.2-0.1,2.5-0.1,3.7-0.1c0.8,0,1.5,0,2.3-0.1C51.9,112.4,52.1,112.3,52.3,112.4L52.3,112.4z"/>
					</g>
				</g>
			</g>
			<g>
				<g>
					<g>
						<path class="st2" d="M41.7,124.2c0-0.3-0.1-0.5-0.1-0.8c0-1,0-2.1,0-3.1c0-0.1,0-0.1-0.1-0.2l0,0c0-0.6,0-1.2,0-1.9
							c0-1.4,0-2.9,0.2-4.3c0-0.2,0-0.6,0.7-0.6c0.7,0,1.1,0.3,1.1,0.7c-0.1,0.9-0.2,1.9-0.1,2.8c0.2,1.4,0.1,2.7,0.1,4.1
							c0,1.2,0,2.5,0,3.7c0,1.2,0.2,2.3,0.2,3.5c0,1-0.2,2-0.2,3c0,0.2-0.1,0.5,0.2,0.7l0,0c-0.3,0.3,0.3,0.6-0.2,0.9l0,0
							c0,0.1-0.1,0.2,0,0.3c0.1,0.4-0.1,0.5-0.9,0.4c-0.2,0-0.4,0-0.5-0.1c0,0,0,0,0,0l0,0c-0.5-0.3-0.3-0.6-0.3-0.9
							c-0.1-1.5-0.1-3.1-0.1-4.6c0-0.9,0-1.9-0.1-2.8C41.7,124.7,41.6,124.5,41.7,124.2L41.7,124.2z"/>
					</g>
				</g>
			</g>
			<g>
				<g>
					<g>
						<path class="st2" d="M6.9,95.6C6.4,96,6,96.5,5.7,97c-0.3,0.5-0.5,0.9-0.5,1.2c0,0.3,0.1,0.5,0.5,1l1.3,1.4
							c0.9,0.9,1.8,1.9,2.7,2.8c1.8,1.8,3.7,3.6,5.6,5.4c0.2,0.2,0.4,0.3,0.6,0.5l0,0c2.3,2.2,4.6,4.3,7,6.4c5.5,4.9,11,9.8,16.1,15
							c0.8,0.8,2.2,2.2,1.7,2.6c-0.5,0.5-1.7-0.1-3.2-1.5c-3.4-3.4-6.9-6.8-10.5-9.9c-5.3-4.6-10.5-9.3-15.6-14.1
							c-2.3-2.2-4.5-4.4-6.7-6.7c-0.3-0.3-0.5-0.5-0.8-0.9c-0.2-0.2-0.3-0.4-0.4-0.7c-0.1-0.3-0.2-0.5-0.3-0.8
							c-0.2-1.2,0.3-2.2,0.9-2.9c1.1-1.4,2.4-2.4,3.6-3.4C8.2,92,8.7,91.5,9.2,91l1.6-1.5l3.2-3.1c2.1-2.1,4.2-4.1,6.4-6.2
							c3.7-3.5,7.5-6.9,11.3-10.4c0.9-0.8,1.8-1.7,2.5-2.6l0,0c1.2-0.7,2-2.3,3.3-2.9l0,0c0.3-0.3,0.7-0.6,1-0.9
							c1.4-1.5,2-1.7,2-0.7c0,0.2,0.3,0.3,0,0.7l0,0l0,0c-0.7,1.4-2.1,2.4-3.3,3.5L20.3,83.1c-3.5,3.3-6.9,6.6-10.4,10
							C8.8,93.9,7.9,94.8,6.9,95.6L6.9,95.6z"/>
					</g>
				</g>
			</g>
			<g>
				<g>
					<g>
						<path class="st2" d="M41.7,73.3c0-0.3-0.1-0.5-0.1-0.8c0-1,0-2.1,0-3.1c0-0.1,0-0.1-0.1-0.2l0,0c0-0.6,0-1.2,0-1.9
							c0-1.4,0-2.9,0.2-4.3c0-0.2,0-0.6,0.7-0.6c0.7,0,1.1,0.3,1.1,0.7c-0.1,0.9-0.2,1.9-0.1,2.8c0.2,1.4,0.1,2.7,0.1,4.1
							c0,1.2,0,2.5,0,3.7c0,1.2,0.2,2.3,0.2,3.5c0,1-0.2,2-0.2,3c0,0.2-0.1,0.5,0.2,0.7l0,0c-0.3,0.3,0.3,0.6-0.2,0.9l0,0
							c0,0.1-0.1,0.2,0,0.3c0.1,0.4-0.1,0.5-0.9,0.4c-0.2,0-0.4,0-0.5-0.1c0,0,0,0,0,0l0,0c-0.5-0.3-0.3-0.6-0.3-0.9
							c-0.1-1.5-0.1-3.1-0.1-4.6c0-0.9,0-1.9-0.1-2.8C41.7,73.8,41.6,73.5,41.7,73.3L41.7,73.3z"/>
					</g>
				</g>
			</g>
		</g>
	</g>
	<rect x="1.3" y="-73.9" class="st3" width="186.7" height="186.7"/>
</g>
</svg>
