<?xml version="1.0" encoding="utf-8"?>
<!-- Generator: Adobe Illustrator 25.2.3, SVG Export Plug-In . SVG Version: 6.00 Build 0)  -->
<svg version="1.1" id="Layer_1" xmlns="http://www.w3.org/2000/svg" xmlns:xlink="http://www.w3.org/1999/xlink" x="0px" y="0px"
	 viewBox="0 0 190 150" style="enable-background:new 0 0 190 150;" xml:space="preserve">
<style type="text/css">
	.st0{fill:#231F20;}
	.st1{fill:#FBA92C;}
	.st2{fill:#FFFFFF;}
</style>
<g>
	<g>
		<g>
			<g>
				<path class="st0" d="M64.3,99.5c0.4-0.3,0.8-0.5,1.3-0.8l0.7-0.4c0.2-0.1,0.5-0.2,0.7-0.3c1.9-0.7,3.9-0.8,5.8-0.8
					c1.9,0.1,3.8,0.4,5.6,0.7c0.2,0,0.4,0,0.6,0l0,0c1.1,0.2,2.2,0.3,3.2,0.4l1.7,0.1c0.6,0.1,1.2,0.1,1.7,0.2
					c5.3,1,10,3.5,14.5,5.7c0.7,0.3,2,0.8,1.7,1.5c-0.3,0.6-1.3,0.7-2.6,0.1c-3.1-1.4-6.1-3-9.2-4.1c-2.3-0.7-4.6-1.3-6.9-1.5
					c-2.5-0.1-5-0.6-7.4-0.9c-2.2-0.3-4.3-0.4-6.3,0c-1,0.2-2,0.5-2.9,1c-0.9,0.5-1.9,1.1-2.8,1.6c-3.6,2.1-7.1,4.3-10.6,6.5
					c-3.1,1.8-6.2,3.6-9.3,5.4c-0.7,0.4-1.5,0.9-2,1.5l0,0c-1,0.3-1.6,1.4-2.7,1.5l0,0c-0.3,0.2-0.6,0.3-0.8,0.5
					c-1.2,0.9-1.6,0.9-1.6,0c0-0.2-0.2-0.3,0-0.6l0,0l0,0c0.6-1,1.7-1.4,2.7-2c4.6-3,9.2-5.9,13.9-8.7c2.9-1.7,5.8-3.4,8.6-5.2
					C62.7,100.5,63.5,99.9,64.3,99.5L64.3,99.5z"/>
			</g>
		</g>
	</g>
	<g>
		<g>
			<g>
				<path class="st0" d="M65.9,136.9c-0.2,0.2-0.3,0.3-0.5,0.5l-1.9,1.6c0,0,0,0.1-0.1,0.1l0,0c-0.4,0.3-0.8,0.7-1.1,1
					c-0.8,0.8-1.7,1.6-2.7,2.3c-0.2,0.1-0.4,0.3-0.8-0.2c-0.5-0.5-0.6-1-0.4-1.2c0.6-0.5,1.3-0.9,1.8-1.5c0.7-0.9,1.6-1.6,2.4-2.4
					c0.7-0.7,1.5-1.3,2.3-2c0.7-0.7,1.3-1.4,2.1-2c0.6-0.5,1.4-0.9,2.1-1.4c0.2-0.1,0.3-0.2,0.3-0.5l0,0c0.4,0.1,0.2-0.5,0.7-0.3
					l0,0c0.1,0,0.2-0.1,0.2-0.1c0.2-0.3,0.4-0.2,0.8,0.5c0.1,0.1,0.3,0.3,0.3,0.4l0,0l0,0c0.2,0.6-0.2,0.5-0.4,0.7l-2.8,2.4
					c-0.6,0.5-1.2,1-1.7,1.5C66.2,136.6,66.1,136.8,65.9,136.9L65.9,136.9z"/>
			</g>
		</g>
	</g>
	<g>
		<circle class="st1" cx="100.6" cy="57.8" r="25.1"/>
		<g>
			<g>
				<g>
					<g>
						<path class="st2" d="M102.5,59.4c-0.7-0.1-1.3-0.1-2-0.1c-1.6,0-3.2-0.2-4.9-1c-0.8-0.4-1.6-1-2.2-1.8c-0.6-0.8-1-1.8-1.1-2.7
							c0-0.2-0.1-0.4-0.1-0.6l0,0c0-1.1,0.1-2.3,0.7-3.4c0.6-1.1,1.6-1.9,2.6-2.4c1.1-0.6,2.3-0.8,3.5-1c0.6-0.1,1.1-0.1,1.7-0.1
							c0.6,0,1.2,0.1,1.8,0.2c1.2,0.2,2.3,0.6,3.3,1.3c1,0.7,2,1.6,2.5,2.8c0.2,0.4,0.3,0.9,0.3,1.4c-0.1,0.5-0.3,0.8-0.8,0.8
							c-0.5,0-0.9-0.2-1.2-0.4c-0.3-0.2-0.5-0.4-0.7-0.8c-0.4-0.8-1.3-1.6-2.3-2.1c-1.1-0.5-2.3-0.7-3.5-0.5
							c-1.8,0.2-3.5,0.7-4.4,1.7C95.2,51.3,95,52,95,52.7c0,0.8,0.1,1.5,0.5,2c0.6,1,2.1,1.5,3.6,1.7c0.8,0.1,1.5,0.1,2.5,0.1
							c1,0.1,1.9,0.2,2.9,0.5c0.9,0.3,1.8,0.8,2.6,1.5c0.8,0.7,1.4,1.8,1.6,2.8c0.2,1.1,0.2,2.1-0.1,3.2c-0.3,1.1-1,2.1-1.9,2.8
							c-1.5,1.2-3.2,1.5-4.8,1.6c-1.5,0.1-3.2-0.1-4.7-0.6c-0.7-0.2-1.4-0.6-2.3-0.7l0,0c-0.3-0.4-0.7-0.7-1.2-1
							c-0.4-0.3-0.8-0.8-0.8-1.3l0,0c-0.1-0.3-0.3-0.6-0.4-0.9c-0.3-0.7-0.3-1.3-0.1-1.5c0.2-0.2,0.6-0.2,1.1,0
							c0.2,0.1,0.6,0,0.7,0.2l0,0l0,0c0.4,0.3,0.6,0.5,0.7,0.8c0.1,0.3,0.3,0.6,0.5,0.8c1.2,1.2,3.2,1.8,5.1,1.7
							c1.9,0,4-0.6,4.8-1.8c0.3-0.4,0.4-0.8,0.5-1.3c0.1-0.5,0.1-1-0.1-1.5c-0.2-0.9-0.9-1.6-1.8-1.9
							C103.7,59.6,103.1,59.6,102.5,59.4L102.5,59.4z"/>
					</g>
				</g>
			</g>
			<g>
				<g>
					<g>
						<g>
							<path class="st2" d="M102,56.7c0,0.4,0.1,0.8,0.1,1.1c0,1.4,0,2.8-0.1,4.3c0,0.1,0.1,0.1,0.1,0.2l0,0c0,0.9,0,1.7,0,2.6
								c0,2,0,4-0.3,6c0,0.3-0.1,0.8-1,0.8c-1,0-1.6-0.4-1.5-0.9c0.1-1.3,0.3-2.6,0.1-3.9c-0.3-1.9-0.1-3.8-0.2-5.7
								c0-1.7,0-3.4,0-5.1c-0.1-1.6-0.3-3.2-0.3-4.8c0-1.4,0.3-2.8,0.3-4.2c0-0.3,0.1-0.7-0.3-1l0,0c0.4-0.4-0.4-0.8,0.3-1.2l0,0
								c0-0.1,0.1-0.3,0-0.4c-0.2-0.6,0.2-0.7,1.3-0.5c0.2,0,0.6,0,0.7,0.1c0,0,0,0,0,0l0,0c0.7,0.4,0.4,0.9,0.4,1.3
								c0.1,2.1,0.1,4.2,0.1,6.3c0,1.3,0,2.6,0.1,3.9C102,56,102.1,56.3,102,56.7L102,56.7z"/>
						</g>
					</g>
				</g>
			</g>
		</g>
	</g>
	<g>
		<g>
			<g>
				<path class="st0" d="M106.1,132.9c0.9-0.5,1.8-1,2.8-1.5l10.5-5.4c0.2-0.1,0.3-0.2,0.5-0.3l0,0c1-0.5,1.9-1.1,2.6-1.9
					c0.6-0.7,1-1.6,1.3-2.7c0.5-2.6,0.8-5.4,1.1-8.1c0.3-2.7,0.7-5.5,1.1-8.2c0.1-0.9,0.4-2.3,1-2.2c0.7,0.1,1,1.2,0.7,2.6
					c-0.5,3.6-1,7.2-1.3,10.8c-0.1,1.3-0.3,2.6-0.5,4c-0.2,1.3-0.5,2.8-1.2,4.1c-0.8,1.3-2,2.3-3.2,3c-1.2,0.7-2.4,1.3-3.5,1.9
					l-12.6,6.5l-3,1.6l-1.5,0.8c-0.5,0.3-1.1,0.5-1.9,0.7c-1.5,0.2-2.8-0.3-3.8-0.7c-1.1-0.5-2-1-3-1.5c-3.5-1.7-6.8-3.5-10.3-5.3
					c-0.8-0.4-1.6-0.8-2.5-0.9l0,0c-0.4-0.3-0.9-0.4-1.4-0.5c-0.5-0.1-0.9-0.1-1.4-0.3l0,0c-0.3,0-0.6,0-0.8,0.1
					c-0.6,0.2-0.9,0.4-1.1,0.4c-0.2,0-0.4-0.2-0.5-0.6c0-0.2-0.3-0.3,0-0.6l0,0l0,0c0.4-0.6,1.1-0.9,1.8-1c0.7-0.1,1.4,0,2.1,0.1
					c1.6,0.3,3,0.9,4.3,1.6l4,1.9l7.9,3.8c1.6,0.8,3.2,1.7,4.5,1.4c0.7-0.1,1.4-0.6,2.2-1l2.4-1.3
					C104.3,133.8,105.2,133.3,106.1,132.9L106.1,132.9z"/>
			</g>
		</g>
	</g>
	<g>
		<g>
			<g>
				<path class="st0" d="M107.6,106.6c0.4-0.2,0.8-0.4,1.3-0.6l4.9-2.1c0.1,0,0.2-0.1,0.2-0.2l0,0l3-1.3c2.3-1,4.6-2,6.9-2.8
					c0.4-0.1,1-0.4,1.2,0.2c0.3,0.7,0,1.2-0.6,1.5c-1.5,0.6-3.1,1.1-4.6,1.9c-2.1,1.1-4.3,2-6.5,3l-5.9,2.6
					c-1.8,0.8-3.6,1.8-5.5,2.6c-0.4,0.2-0.8,0.3-1.2,0.5c-0.4,0.1-0.8,0.3-1.3,0.5c-0.5,0.2-1.4,0.1-1.9-0.1
					c-0.5-0.2-0.9-0.4-1.2-0.6c-0.3-0.2-0.7-0.3-1.1-0.2l0,0c-0.3-0.4-1,0-1.3-0.5l0,0c-0.1,0-0.3-0.1-0.4-0.1c-0.7,0-0.8-0.2-0.5-1
					c0.1-0.2,0-0.4,0.2-0.5l0,0l0,0c0.6-0.5,1.2-0.1,1.7,0c0.7,0.2,1.4,0.4,2,0.6c0.7,0.3,1.3,0.6,1.6,0.6c0.3,0,0.9-0.3,1.5-0.5
					l1.8-0.8c1.5-0.7,3-1.3,4.5-2C106.8,107,107.1,106.7,107.6,106.6L107.6,106.6z"/>
			</g>
		</g>
	</g>
	<g>
		<g>
			<g>
				<path class="st0" d="M94.9,17.6c0.1,0.2,0.2,0.4,0.3,0.6c0.3,0.8,0.5,1.7,0.8,2.5c0,0,0.1,0.1,0.1,0.1l0,0l0.4,1.5
					c0.3,1.2,0.6,2.3,0.7,3.6c0,0.2,0.1,0.5-0.6,0.6c-0.7,0.1-1.1,0-1.2-0.3c-0.1-0.8-0.1-1.6-0.4-2.3c-0.5-1-0.7-2.2-1.1-3.2
					c-0.3-1-0.6-1.9-1-2.9c-0.4-0.9-0.9-1.7-1.2-2.6c-0.3-0.8-0.5-1.6-0.8-2.3c-0.1-0.2-0.1-0.4-0.4-0.4l0,0
					c0.2-0.3-0.5-0.3-0.1-0.7l0,0c0-0.1,0-0.2-0.1-0.2c-0.3-0.3-0.1-0.4,0.7-0.7c0.2-0.1,0.4-0.2,0.5-0.2l0,0l0,0
					c0.6,0,0.5,0.3,0.6,0.6c0.6,1.1,1.1,2.3,1.7,3.5c0.3,0.7,0.6,1.5,0.9,2.2C94.7,17.2,94.8,17.4,94.9,17.6L94.9,17.6z"/>
			</g>
		</g>
	</g>
	<g>
		<g>
			<g>
				<path class="st0" d="M69.5,28.2c0.2,0.1,0.4,0.1,0.5,0.2c0.6,0.4,1.3,0.8,1.9,1.2c0,0,0.1,0,0.1,0l0,0c0.4,0.2,0.7,0.5,1.1,0.8
					c0.9,0.6,1.8,1.1,2.5,1.9c0.1,0.1,0.3,0.3-0.1,0.8c-0.4,0.6-0.8,0.8-1,0.6c-0.5-0.4-1-1-1.6-1.2c-0.9-0.4-1.7-1-2.6-1.5
					c-0.8-0.4-1.5-0.9-2.3-1.3c-0.7-0.4-1.5-0.7-2.3-1.1c-0.6-0.4-1.2-0.8-1.8-1.2c-0.1-0.1-0.3-0.2-0.5-0.1l0,0
					c0-0.4-0.5,0-0.5-0.4l0,0c-0.1,0-0.1-0.1-0.2-0.1c-0.3,0-0.3-0.3,0.2-0.9c0.1-0.1,0.2-0.4,0.3-0.4l0,0l0,0
					c0.4-0.4,0.5,0,0.7,0.1c1,0.5,2,1,3,1.5c0.6,0.3,1.2,0.7,1.8,1C69.1,28.1,69.4,28.1,69.5,28.2L69.5,28.2z"/>
			</g>
		</g>
	</g>
	<g>
		<g>
			<g>
				<path class="st0" d="M56.8,51.1c0.2,0,0.4,0,0.6,0c0.7,0.1,1.4,0.3,2.1,0.4c0,0,0.1,0,0.1,0l0,0c0.4,0.1,0.8,0.2,1.3,0.3
					c1,0.2,2,0.4,2.9,0.8c0.1,0.1,0.4,0.1,0.2,0.8c-0.2,0.7-0.4,1-0.7,1c-0.6-0.2-1.2-0.5-1.9-0.5c-1,0-1.9-0.3-2.8-0.4
					c-0.8-0.1-1.7-0.3-2.5-0.4c-0.8-0.1-1.6,0-2.4-0.1c-0.7-0.1-1.3-0.3-2-0.5c-0.2,0-0.3-0.1-0.5,0.2l0,0c-0.2-0.3-0.4,0.2-0.6-0.2
					l0,0c-0.1,0-0.1-0.1-0.2,0c-0.3,0.1-0.3-0.2-0.2-0.9c0-0.2,0-0.4,0.1-0.5l0,0l0,0c0.2-0.5,0.5-0.2,0.7-0.2
					c1.1,0,2.1,0.1,3.2,0.2c0.7,0.1,1.3,0.2,2,0.2C56.4,51.1,56.6,51,56.8,51.1L56.8,51.1z"/>
			</g>
		</g>
	</g>
	<g>
		<g>
			<g>
				<path class="st0" d="M59.2,76c0.2-0.1,0.3-0.3,0.5-0.4c0.6-0.4,1.3-0.7,1.9-1.1c0,0,0-0.1,0.1-0.1l0,0c0.4-0.2,0.8-0.4,1.2-0.7
					c0.9-0.5,1.7-1.1,2.7-1.4c0.2-0.1,0.4-0.2,0.7,0.4c0.4,0.6,0.4,1.1,0.2,1.2c-0.6,0.3-1.3,0.5-1.8,1c-0.7,0.7-1.6,1.1-2.5,1.6
					c-0.7,0.5-1.5,0.9-2.2,1.4c-0.7,0.5-1.3,1-2,1.4c-0.6,0.4-1.3,0.6-2,0.9c-0.2,0.1-0.3,0.1-0.3,0.4l0,0c-0.3-0.2-0.2,0.4-0.6,0.2
					l0,0c-0.1,0-0.1,0-0.2,0.1c-0.2,0.2-0.4,0.1-0.7-0.6c-0.1-0.2-0.2-0.3-0.2-0.5c0,0,0,0,0,0l0,0c-0.1-0.6,0.2-0.5,0.4-0.6
					c0.9-0.6,1.8-1.2,2.8-1.8c0.6-0.4,1.2-0.7,1.7-1.1C58.9,76.2,59,76,59.2,76L59.2,76z"/>
			</g>
		</g>
	</g>
	<g>
		<g>
			<g>
				<path class="st0" d="M76.5,88.4c0-0.1,0.1-0.2,0.1-0.3c0.2-0.3,0.5-0.6,0.7-0.9c0,0,0-0.1,0-0.1l0,0c0.1-0.2,0.3-0.3,0.4-0.5
					c0.3-0.4,0.6-0.8,1.1-1.1c0.1,0,0.2-0.2,0.7,0.3c0.6,0.4,0.8,0.8,0.7,0.9c-0.3,0.2-0.6,0.4-0.7,0.8c-0.2,0.5-0.6,0.8-0.8,1.3
					c-0.3,0.4-0.6,0.7-0.8,1.1c-0.2,0.4-0.4,0.8-0.6,1.1c-0.2,0.3-0.6,0.5-0.9,0.7c-0.1,0.1-0.2,0.1,0,0.3l0,0
					c-0.3-0.1,0.1,0.3-0.3,0.1l0,0c0,0-0.1,0-0.1,0.1c0,0.2-0.2,0.1-0.8-0.4c-0.1-0.1-0.3-0.2-0.4-0.3c0,0,0,0,0,0l0,0
					c-0.4-0.4-0.1-0.3,0-0.4c0.3-0.5,0.6-0.9,1-1.4c0.2-0.3,0.4-0.5,0.6-0.9C76.4,88.6,76.4,88.5,76.5,88.4L76.5,88.4z"/>
			</g>
		</g>
	</g>
	<g>
		<g>
			<g>
				<path class="st0" d="M105.9,94.7c0-0.1-0.1-0.2,0-0.3c0-0.4,0.1-0.8,0.1-1.2c0,0,0,0-0.1-0.1l0,0c0-0.2,0.1-0.5,0.1-0.7
					c0-0.6,0-1.1,0.3-1.7c0-0.1,0.1-0.2,0.7-0.2c0.7,0,1.1,0.2,1.1,0.3c-0.1,0.4-0.3,0.7-0.2,1.1c0.1,0.6,0,1.1,0,1.6
					c0,0.5-0.1,1-0.1,1.5c0,0.5,0.1,0.9,0.1,1.4c0,0.4-0.2,0.8-0.3,1.2c0,0.1-0.1,0.2,0.2,0.3l0,0c-0.3,0.1,0.3,0.2-0.2,0.3l0,0
					c0,0-0.1,0.1,0,0.1c0.1,0.2-0.1,0.2-0.9,0.1c-0.2,0-0.4,0-0.5-0.1c0,0,0,0,0,0l0,0c-0.5-0.1-0.3-0.3-0.3-0.4c0-0.6,0-1.2,0-1.8
					c0-0.4,0.1-0.7,0-1.1C105.9,94.9,105.8,94.8,105.9,94.7L105.9,94.7z"/>
			</g>
		</g>
	</g>
	<g>
		<g>
			<g>
				<path class="st0" d="M128.7,89.5c-0.1-0.1-0.3-0.2-0.4-0.4c-0.5-0.5-0.9-1.1-1.4-1.6c0,0-0.1,0-0.1,0l0,0
					c-0.3-0.3-0.6-0.7-0.9-1c-0.7-0.7-1.4-1.5-1.9-2.4c-0.1-0.1-0.3-0.3,0.2-0.8c0.5-0.5,1-0.6,1.1-0.4c0.4,0.5,0.7,1.1,1.3,1.5
					c0.8,0.6,1.4,1.4,2,2.1c0.6,0.6,1.2,1.3,1.8,1.9c0.6,0.6,1.2,1.1,1.8,1.7c0.5,0.5,0.8,1.2,1.2,1.7c0.1,0.1,0.2,0.3,0.5,0.2l0,0
					c-0.1,0.3,0.5,0.1,0.3,0.6l0,0c0,0.1,0,0.1,0.1,0.2c0.3,0.1,0.1,0.4-0.5,0.8c-0.1,0.1-0.3,0.3-0.4,0.3c0,0,0,0,0,0l0,0
					c-0.5,0.2-0.5-0.1-0.7-0.3c-0.8-0.8-1.5-1.6-2.2-2.3c-0.5-0.5-0.9-1-1.4-1.4C129,89.8,128.8,89.7,128.7,89.5L128.7,89.5z"/>
			</g>
		</g>
	</g>
	<g>
		<g>
			<g>
				<path class="st0" d="M140.9,68.2c-0.2,0-0.3,0.1-0.5,0c-0.6,0-1.2-0.1-1.8-0.1c0,0-0.1,0-0.1,0.1l0,0c-0.4,0-0.7-0.1-1.1-0.1
					c-0.9,0-1.7-0.1-2.6-0.3c-0.1,0-0.4-0.1-0.3-0.7c0-0.7,0.2-1.1,0.4-1.1c0.6,0.1,1.1,0.3,1.7,0.2c0.8-0.1,1.7,0,2.5,0
					c0.7,0,1.5,0.1,2.2,0.1c0.7,0,1.4-0.1,2.1-0.1c0.6,0,1.2,0.2,1.8,0.3c0.1,0,0.3,0.1,0.4-0.2l0,0c0.2,0.3,0.4-0.3,0.5,0.2l0,0
					c0.1,0,0.1,0.1,0.2,0c0.3-0.1,0.3,0.1,0.2,0.9c0,0.2,0,0.4-0.1,0.5c0,0,0,0,0,0l0,0c-0.2,0.5-0.4,0.3-0.6,0.3
					c-0.9,0-1.8,0-2.8,0c-0.6,0-1.1-0.1-1.7,0C141.2,68.2,141.1,68.3,140.9,68.2L140.9,68.2z"/>
			</g>
		</g>
	</g>
	<g>
		<g>
			<g>
				<path class="st0" d="M141.3,45.6c-0.2,0.1-0.4,0.2-0.6,0.2c-0.7,0.1-1.5,0.3-2.2,0.4c0,0-0.1,0.1-0.1,0.1l0,0l-1.3,0.2
					c-1,0.2-2.1,0.3-3.2,0.2c-0.2,0-0.5,0-0.5-0.7c0-0.7,0.1-1.1,0.4-1.1c0.6,0,1.3,0.1,2-0.1c0.9-0.3,1.9-0.4,2.9-0.6
					c0.9-0.2,1.7-0.3,2.6-0.6c0.8-0.2,1.6-0.5,2.4-0.7c0.7-0.2,1.4-0.2,2.1-0.3c0.2,0,0.3,0,0.4-0.3l0,0c0.3,0.2,0.3-0.4,0.6,0l0,0
					c0.1,0,0.1,0,0.2,0c0.2-0.2,0.4,0,0.6,0.8c0,0.2,0.1,0.4,0.1,0.5l0,0l0,0c0,0.6-0.4,0.4-0.6,0.5c-1.1,0.4-2.1,0.7-3.2,1
					c-0.7,0.2-1.3,0.3-2,0.5C141.7,45.5,141.5,45.6,141.3,45.6L141.3,45.6z"/>
			</g>
		</g>
	</g>
	<g>
		<g>
			<g>
				<path class="st0" d="M128,26.9c-0.2,0.2-0.4,0.3-0.6,0.5c-0.8,0.5-1.6,1.1-2.4,1.6c0,0-0.1,0.1-0.1,0.1l0,0
					c-0.5,0.3-1,0.6-1.4,1c-1.1,0.8-2.2,1.5-3.4,2.1c-0.2,0.1-0.5,0.3-0.9-0.3c-0.4-0.6-0.4-1.1-0.1-1.2c0.8-0.4,1.6-0.8,2.2-1.4
					c0.9-0.9,2-1.5,3.1-2.3c0.9-0.7,1.9-1.3,2.8-2c0.9-0.6,1.7-1.4,2.5-2c0.8-0.5,1.6-0.9,2.4-1.4c0.2-0.1,0.4-0.2,0.4-0.5l0,0
					c0.4,0.1,0.3-0.5,0.8-0.3l0,0c0.1,0,0.2,0,0.2-0.1c0.2-0.3,0.5-0.2,0.8,0.5c0.1,0.2,0.2,0.3,0.2,0.5c0,0,0,0,0,0l0,0
					c0.1,0.6-0.3,0.6-0.5,0.7c-1.1,0.8-2.3,1.6-3.4,2.5c-0.7,0.5-1.4,1-2.1,1.5C128.4,26.6,128.3,26.8,128,26.9L128,26.9z"/>
			</g>
		</g>
	</g>
	<g>
		<g>
			<g>
				<path class="st0" d="M111.7,17.7c0,0.2,0,0.4,0,0.5c-0.1,0.7-0.3,1.3-0.5,2c0,0,0,0.1,0,0.1l0,0l-0.4,1.2
					c-0.3,0.9-0.6,1.8-1.1,2.6c-0.1,0.1-0.2,0.4-0.8,0.1c-0.7-0.3-1-0.6-0.9-0.8c0.3-0.5,0.6-1,0.7-1.6c0.1-0.9,0.4-1.7,0.6-2.5
					c0.2-0.7,0.3-1.5,0.4-2.3c0.1-0.7,0-1.4,0.1-2.2c0.1-0.6,0.3-1.2,0.4-1.8c0-0.1,0.1-0.3-0.2-0.4l0,0c0.3-0.2-0.3-0.4,0.2-0.5
					l0,0c0-0.1,0.1-0.1,0-0.2c-0.1-0.3,0.1-0.3,0.9-0.2c0.2,0,0.4,0,0.5,0.1l0,0l0,0c0.5,0.2,0.3,0.4,0.3,0.6c0,1-0.1,2-0.1,3
					c-0.1,0.6-0.2,1.2-0.2,1.8C111.8,17.4,111.8,17.6,111.7,17.7L111.7,17.7z"/>
			</g>
		</g>
	</g>
</g>
</svg>
