<?xml version="1.0" encoding="utf-8"?>
<!-- Generator: Adobe Illustrator 25.2.3, SVG Export Plug-In . SVG Version: 6.00 Build 0)  -->
<svg version="1.1" id="Layer_1" xmlns="http://www.w3.org/2000/svg" xmlns:xlink="http://www.w3.org/1999/xlink" x="0px" y="0px"
	 viewBox="0 0 50 30" style="enable-background:new 0 0 50 30;" xml:space="preserve">
<style type="text/css">
	.st0{fill:#F388AE;}
	.st1{fill:#F495AE;}
</style>
<path class="st0" d="M47.9,5.9c-0.1-0.1-0.2-0.2-0.3-0.2c-0.1,0-0.3,0-0.4,0l-0.3,0l-0.2,0.1L45.7,6l-1.9,0.5l0,0
	c-0.6,0.1-1.2,0.3-1.8,0.4c-2.2,0.5-4.4,1-6.7,1.6l-4.5,1l-2.2,0.5l-1.4,0.3c-0.1,0-0.2,0.1-0.3,0.2c-0.1,0-0.1,0.1-0.2,0.2
	c0,0.1,0,0.1,0,0.2l0.1,0.1c0.1,0.1,0.1,0.2,0.2,0.2l2,1c0.6,0.3,1.3,0.6,2,0.9l1.6-0.7c0.8-0.3,1.5-0.6,2.3-1
	c0.2-0.1,0.4-0.2,0.6-0.3l0,0c0.2-0.1,0.4-0.2,0.6-0.3l2.5-1c0,0,0.1,0,0.1-0.1l0,0l1.5-0.6c1.2-0.5,2.3-1,3.5-1.4
	c0.2-0.1,0.5-0.2,0.6,0c0.1,0.2-0.1,0.4-0.4,0.6c-0.8,0.3-1.6,0.5-2.3,0.9c-1.1,0.5-2.2,0.9-3.3,1.4l-3,1.2
	c-0.9,0.4-1.8,0.8-2.8,1.2c-0.3,0.1-0.5,0.2-0.8,0.3c0.3,0.2,0.6,0.4,0.9,0.6l4.5,2.6l0.6,0.3l0.3,0.2c0.1,0.1,0.3,0.1,0.4,0.2
	c0.2,0,0.4,0,0.5,0c0.1,0,0.2-0.1,0.3-0.1c0,0,0.1-0.1,0.1-0.1l0.1-0.1l0.4-0.5l1.7-2l2.9-3.5l0,0c0.1-0.1,0.1-0.2,0.2-0.3L47.1,8
	c0.2-0.2,0.4-0.5,0.6-0.8c0.1-0.2,0.2-0.3,0.3-0.5C48.1,6.4,48,6.2,47.9,5.9z"/>
<path class="st1" d="M31.9,16.7c0,0.1,0,0.1,0,0.2V17l0,0h0l0.1-0.1c0,0,0,0,0,0l0,0l0.4-0.3c0.3-0.2,0.6-0.4,0.9-0.6
	c0.1,0,0.1-0.1,0.2,0c0.1,0.1,0.1,0.2,0,0.3c-0.2,0.1-0.4,0.3-0.6,0.4c-0.3,0.2-0.6,0.4-0.9,0.7c-0.1,0.1-0.3,0.1-0.4,0.1
	c-0.1-0.1-0.2-0.2-0.3-0.3l0-0.5c0-0.3-0.1-0.6-0.1-0.9c0-0.3,0-0.5,0-0.8c0-0.1,0-0.1,0-0.2l0,0c0.1-0.1-0.1-0.2,0-0.2l0,0
	c0,0,0,0,0-0.1c0-0.1,0-0.1,0.2-0.1c0,0,0.1,0,0.1,0l0,0c0.1,0.1,0.1,0.2,0.1,0.2l0.1,1.2c0,0.2,0,0.5,0,0.7
	C31.9,16.5,31.9,16.6,31.9,16.7L31.9,16.7z"/>
<path class="st1" d="M3.6,15C3.6,15,3.6,15,3.6,15C3.6,15,3.6,15.1,3.6,15L3.6,15L3.6,15c0,0.1-0.1,0.1-0.1,0.1c0,0,0,0.1-0.1,0.1
	c0,0,0,0-0.1-0.1c-0.1,0-0.1-0.1-0.2-0.1c0,0,0.1,0,0.1-0.1s0-0.1,0-0.1c0,0,0-0.1,0-0.1c0,0,0-0.1,0-0.1c0,0,0.1,0,0.1,0s0,0,0,0
	l0,0c0.1,0,0,0,0,0l0,0c0,0,0,0,0.2,0.1c0,0,0.1,0,0.1,0.1l0,0c0.1,0.1,0,0,0,0c0,0,0,0.1,0,0.1C3.6,14.9,3.6,14.9,3.6,15
	C3.6,15,3.6,15,3.6,15L3.6,15z"/>
<path class="st1" d="M2.9,16.6C2.9,16.6,2.9,16.6,2.9,16.6l-0.1,0.2l0,0l0,0c0,0,0,0.1,0,0.1c0,0.1-0.1,0.1-0.1,0.2c0,0,0,0-0.1,0
	s-0.2-0.1-0.2-0.1c0,0,0.1-0.1,0.1-0.1c0-0.1,0-0.1,0-0.2c0-0.1,0-0.1,0.1-0.2c0-0.1,0-0.1,0-0.2c0,0,0.1-0.1,0.1-0.1c0,0,0,0,0,0
	l0,0c0.1,0,0,0,0,0l0,0l0,0c0,0,0,0,0.2,0l0.1,0l0,0c0.1,0.1,0,0.1,0,0.1c0,0.1,0,0.1-0.1,0.2C2.9,16.4,2.9,16.5,2.9,16.6
	C2.9,16.5,2.9,16.6,2.9,16.6L2.9,16.6z"/>
<path class="st1" d="M2.5,18.4C2.5,18.4,2.5,18.5,2.5,18.4v0.2l0,0l0,0c0,0,0,0.1,0,0.1c0,0.1,0,0.1,0,0.2c0,0,0,0-0.1,0
	s-0.2,0-0.2,0c0,0,0-0.1,0-0.1c0-0.1,0-0.1,0-0.2c0-0.1,0-0.1,0-0.2c0-0.1,0-0.1,0-0.2c0-0.1,0-0.1,0.1-0.1c0,0,0,0,0,0l0,0
	c0.1,0-0.1,0,0,0l0,0l0,0c0,0,0,0,0.2,0h0.1l0,0c0.1,0,0.1,0,0.1,0.1c0,0.1,0,0.1,0,0.2C2.5,18.3,2.5,18.4,2.5,18.4
	C2.5,18.4,2.5,18.4,2.5,18.4L2.5,18.4z"/>
<path class="st1" d="M2.9,20.3C2.9,20.3,2.9,20.3,2.9,20.3L3,20.4l0,0c0,0,0,0.1,0,0.1c0,0.1,0.1,0.1,0.1,0.2c0,0,0,0-0.1,0.1
	c-0.1,0.1-0.2,0.1-0.2,0.1c0,0,0-0.1-0.1-0.1c0,0-0.1-0.1-0.1-0.2s-0.1-0.1-0.1-0.2c0,0-0.1-0.1-0.1-0.1c0-0.1,0-0.1,0-0.2
	c0,0,0,0-0.1,0l0,0c0.1,0-0.1,0,0-0.1l0,0c0,0,0,0,0,0s0,0,0.2-0.1c0,0,0.1,0,0.1,0l0,0c0.1,0,0.1,0,0.1,0l0.1,0.2
	C2.8,20.2,2.9,20.2,2.9,20.3C2.9,20.2,2.9,20.2,2.9,20.3L2.9,20.3z"/>
<path class="st1" d="M4.2,21.6C4.2,21.6,4.3,21.6,4.2,21.6l0.2,0.1l0,0l0,0c0,0,0,0,0.1,0c0.1,0,0.1,0.1,0.2,0.1c0,0,0,0,0,0.1
	s-0.1,0.2-0.1,0.2s-0.1-0.1-0.1-0.1c-0.1,0-0.1,0-0.2-0.1C4.1,22,4,22,4,21.9c-0.1,0-0.1,0-0.2-0.1c0,0-0.1-0.1-0.1-0.1
	c0,0,0,0-0.1,0l0,0c0-0.1-0.1,0,0-0.1l0,0l0,0c0,0,0,0,0.1-0.2c0,0,0-0.1,0.1-0.1l0,0c0.1-0.1,0.1,0,0.1,0l0.2,0.1
	C4.1,21.6,4.2,21.6,4.2,21.6C4.2,21.6,4.2,21.6,4.2,21.6L4.2,21.6z"/>
<path class="st1" d="M6,22.3C6,22.3,6.1,22.3,6,22.3l0.2,0l0,0l0,0l0.1,0c0.1,0,0.1,0,0.2,0.1c0,0,0,0,0,0.1c0,0.1-0.1,0.2-0.1,0.2
	c0,0-0.1-0.1-0.1-0.1c-0.1,0-0.1,0-0.2,0c-0.1,0-0.1,0-0.2,0c-0.1,0-0.1,0-0.2,0c0,0-0.1-0.1-0.1-0.1s0,0,0,0l0,0c0-0.1,0,0,0,0l0,0
	c0,0,0,0,0-0.2c0,0,0-0.1,0-0.1l0,0c0-0.1,0,0,0.1,0c0.1,0,0.1,0,0.2,0C5.9,22.4,5.9,22.4,6,22.3C6,22.4,6,22.4,6,22.3L6,22.3z"/>
<path class="st1" d="M7.9,22.6C7.9,22.6,8,22.6,7.9,22.6l0.2,0l0,0l0,0h0.1c0.1,0,0.1,0,0.2,0.1c0,0,0,0,0,0.1c0,0.1,0,0.2,0,0.2
	s-0.1-0.1-0.1,0c-0.1,0-0.1,0-0.2,0c-0.1,0-0.1,0-0.2,0c-0.1,0-0.1,0-0.2,0c-0.1,0-0.1,0-0.1-0.1c0,0,0,0,0,0l0,0c0-0.1,0,0.1,0,0
	l0,0c0,0,0,0,0-0.2c0,0,0-0.1,0-0.1l0,0c0-0.1,0-0.1,0.1-0.1c0.1,0,0.1,0,0.2,0C7.8,22.7,7.9,22.7,7.9,22.6
	C7.9,22.7,7.9,22.7,7.9,22.6L7.9,22.6z"/>
<path class="st1" d="M9.9,22.6C9.9,22.6,9.9,22.5,9.9,22.6l0.2,0l0,0l0,0h0.1c0.1,0,0.1,0,0.2,0c0,0,0,0,0.1,0.1s0,0.2,0,0.2
	c0,0-0.1,0-0.1,0c-0.1,0-0.1,0.1-0.2,0.1c-0.1,0-0.1,0-0.2,0c-0.1,0-0.1,0-0.2,0.1c-0.1,0-0.1,0-0.2,0c0,0,0,0,0,0l0,0
	c0-0.1,0,0.1,0,0l0,0c0,0,0,0,0-0.2c0,0,0-0.1,0-0.1l0,0c0-0.1,0-0.1,0-0.1c0.1,0,0.1,0,0.2,0C9.8,22.6,9.8,22.6,9.9,22.6
	C9.9,22.6,9.9,22.6,9.9,22.6L9.9,22.6z"/>
<path class="st1" d="M11.8,22.1C11.8,22.1,11.8,22.1,11.8,22.1L12,22l0,0l0,0c0,0,0.1,0,0.1,0c0.1,0,0.1,0,0.2,0c0,0,0,0,0.1,0.1
	c0.1,0.1,0.1,0.2,0.1,0.2s-0.1,0-0.1,0c0,0-0.1,0.1-0.2,0.1c-0.1,0-0.1,0-0.2,0.1c0,0-0.1,0.1-0.2,0.1c-0.1,0-0.1,0-0.2,0
	c0,0,0,0,0,0.1l0,0c0-0.1,0,0.1-0.1,0l0,0c0,0,0,0-0.1-0.2c0,0,0-0.1,0-0.1l0,0c0-0.1,0-0.1,0-0.1c0.1,0,0.1-0.1,0.2-0.1
	C11.7,22.2,11.7,22.1,11.8,22.1C11.8,22.1,11.8,22.1,11.8,22.1L11.8,22.1z"/>
<path class="st1" d="M13.5,21.2C13.5,21.2,13.5,21.2,13.5,21.2l0.2-0.1l0,0l0,0c0,0,0.1,0,0.1,0c0.1,0,0.1-0.1,0.2-0.1
	c0,0,0,0,0.1,0.1c0.1,0.1,0.1,0.2,0.1,0.2c0,0-0.1,0-0.1,0.1c0,0-0.1,0.1-0.2,0.1c-0.1,0-0.1,0.1-0.2,0.1c0,0-0.1,0.1-0.1,0.1
	c-0.1,0-0.1,0-0.2,0c0,0,0,0,0,0.1l0,0c0,0,0,0.1-0.1,0l0,0l0,0c0,0,0,0-0.1-0.2c0,0,0-0.1,0-0.1l0,0c0-0.1,0-0.1,0-0.1
	c0,0,0.1-0.1,0.2-0.1C13.5,21.3,13.5,21.3,13.5,21.2C13.5,21.3,13.5,21.2,13.5,21.2L13.5,21.2z"/>
<path class="st1" d="M14.9,19.9C14.9,19.9,14.9,19.9,14.9,19.9l0.1-0.2l0,0l0,0c0,0,0,0,0-0.1c0-0.1,0.1-0.1,0.1-0.2c0,0,0,0,0.1,0
	c0.1,0.1,0.2,0.1,0.2,0.1s-0.1,0.1-0.1,0.1c0,0.1,0,0.1-0.1,0.2c0,0.1-0.1,0.1-0.1,0.2c0,0.1,0,0.1-0.1,0.2c0,0-0.1,0.1-0.1,0.1
	c0,0,0,0,0,0.1l0,0c-0.1,0,0,0.1-0.1,0l0,0c0,0,0,0-0.2-0.1l-0.1-0.1l0,0c-0.1-0.1,0-0.1,0-0.1s0.1-0.1,0.1-0.2
	C14.9,20,14.9,20,14.9,19.9C14.9,20,14.9,19.9,14.9,19.9L14.9,19.9z"/>
<path class="st1" d="M15.2,18.3C15.2,18.3,15.1,18.3,15.2,18.3c0,0-0.1-0.1-0.1-0.1c0,0,0,0,0,0l0,0c0,0,0,0,0-0.1
	C15,18,15,18,14.9,17.9c0,0,0,0,0.1-0.1s0.2-0.2,0.2-0.1c0,0,0,0.1,0.1,0.1c0.1,0,0.1,0.1,0.2,0.2c0,0.1,0.1,0.1,0.1,0.2
	c0,0.1,0.1,0.1,0.1,0.2c0,0.1,0,0.1,0,0.2c0,0,0,0,0,0l0,0c-0.1,0,0.1,0,0,0.1l0,0c0,0,0,0,0,0s0,0-0.2,0c0,0-0.1,0-0.1,0l0,0
	c-0.1,0-0.1,0-0.1,0s0-0.1-0.1-0.2C15.3,18.3,15.2,18.3,15.2,18.3C15.2,18.3,15.2,18.3,15.2,18.3L15.2,18.3z"/>
<path class="st1" d="M13.7,17.5C13.7,17.5,13.7,17.5,13.7,17.5h-0.2l0,0h-0.1c-0.1,0-0.1,0-0.2,0c0,0,0,0-0.1-0.1c0-0.1,0-0.2,0-0.2
	c0,0,0.1,0,0.1,0c0.1,0,0.1,0,0.2,0c0.1,0,0.1,0,0.2,0c0.1,0,0.1,0,0.2,0c0.1,0,0.1,0,0.2,0.1c0,0,0,0,0,0l0,0c0,0.1,0-0.1,0,0l0,0
	c0,0,0,0,0,0.2c0,0,0,0.1,0,0.1l0,0c0,0.1,0,0.1-0.1,0.1h-0.2C13.8,17.5,13.7,17.5,13.7,17.5C13.7,17.5,13.7,17.5,13.7,17.5
	L13.7,17.5z"/>
<path class="st1" d="M11.8,18C11.8,18,11.8,18,11.8,18l-0.2,0.1l0,0l0,0c0,0-0.1,0-0.1,0c-0.1,0-0.1,0.1-0.2,0c0,0,0,0-0.1-0.1
	c-0.1-0.1-0.1-0.2-0.1-0.2s0.1,0,0.1,0c0,0,0.1-0.1,0.2-0.1c0.1,0,0.1,0,0.2-0.1c0,0,0.1-0.1,0.1-0.1c0.1,0,0.1,0,0.2,0
	c0,0,0,0,0-0.1l0,0c0,0.1,0-0.1,0.1,0l0,0l0,0c0,0,0,0,0.1,0.2c0,0,0,0.1,0,0.1l0,0c0,0.1,0,0.1,0,0.1c0,0-0.1,0.1-0.2,0.1
	C11.9,17.9,11.9,17.9,11.8,18C11.9,18,11.9,18,11.8,18L11.8,18z"/>
<path class="st1" d="M10.2,19C10.2,19,10.2,19,10.2,19l-0.1,0.1l0,0l0,0c0,0,0,0-0.1,0.1c0,0.1-0.1,0.1-0.2,0.1c0,0,0,0-0.1-0.1
	s-0.2-0.2-0.2-0.2c0,0,0.1,0,0.1-0.1c0-0.1,0.1-0.1,0.1-0.2s0.1-0.1,0.1-0.1c0-0.1,0.1-0.1,0.1-0.2c0,0,0.1,0,0.2-0.1c0,0,0,0,0-0.1
	l0,0c0.1,0,0-0.1,0.1,0l0,0l0,0c0,0,0,0,0.1,0.1c0,0,0,0.1,0.1,0.1l0,0c0.1,0.1,0,0.1,0,0.1c0,0-0.1,0.1-0.2,0.2
	C10.3,18.9,10.2,18.9,10.2,19L10.2,19L10.2,19z"/>
<path class="st1" d="M9.4,20.6C9.4,20.6,9.4,20.6,9.4,20.6v0.2l0,0l0,0c0,0,0,0.1,0,0.1c0,0.1,0,0.1,0,0.2c0,0,0,0-0.1,0
	c-0.1,0-0.2,0-0.2,0c0,0,0-0.1,0-0.2c0-0.1,0-0.1,0-0.2c0-0.1,0-0.1,0-0.2c0-0.1,0-0.1,0-0.2C9,20.3,9,20.2,9,20.2c0,0,0,0,0,0l0,0
	c0.1,0,0,0,0,0l0,0l0,0c0,0,0,0,0.2,0l0.1,0l0,0c0.1,0,0,0,0,0.1c0,0.1,0,0.1,0,0.2C9.3,20.5,9.3,20.5,9.4,20.6
	C9.3,20.6,9.4,20.6,9.4,20.6L9.4,20.6z"/>
<path class="st1" d="M9.8,22.3C9.9,22.3,9.9,22.3,9.8,22.3l0.1,0.1l0,0c0,0,0,0,0.1,0.1c0.1,0,0.1,0.1,0.1,0.2c0,0,0,0-0.1,0.1
	C9.9,22.9,9.8,23,9.8,23s0-0.1-0.1-0.1c-0.1,0-0.1-0.1-0.2-0.2s-0.1-0.1-0.1-0.2s-0.1-0.1-0.1-0.1c0-0.1,0-0.1,0-0.2c0,0,0,0-0.1,0
	l0,0c0,0-0.1,0,0-0.1l0,0l0,0c0,0,0,0,0.2-0.1l0.1,0l0,0c0.1,0,0.1,0,0.1,0l0.1,0.2C9.7,22.3,9.7,22.3,9.8,22.3
	C9.8,22.3,9.8,22.3,9.8,22.3L9.8,22.3z"/>
<path class="st1" d="M11.2,23.6C11.2,23.6,11.3,23.6,11.2,23.6l0.2,0.1l0,0l0,0c0,0,0,0,0.1,0c0.1,0,0.1,0.1,0.2,0.1c0,0,0,0,0,0.1
	c-0.1,0.1-0.1,0.2-0.1,0.2c0,0-0.1-0.1-0.1-0.1s-0.1-0.1-0.2-0.1C11.1,24,11,24,11,23.9c-0.1,0-0.1,0-0.2-0.1c0,0-0.1-0.1-0.1-0.1
	s0,0-0.1,0l0,0c0-0.1-0.1,0,0-0.1l0,0c0,0,0,0,0.1-0.2c0,0,0-0.1,0.1-0.1l0,0c0.1-0.1,0.1,0,0.1,0c0.1,0,0.1,0.1,0.2,0.1
	C11.1,23.6,11.2,23.6,11.2,23.6C11.2,23.6,11.2,23.6,11.2,23.6L11.2,23.6z"/>
<path class="st1" d="M13,24.4C13,24.3,13.1,24.3,13,24.4l0.2,0l0,0l0,0c0,0,0.1,0,0.1,0c0.1,0,0.1,0,0.2,0.1c0,0,0,0,0,0.2
	s-0.1,0.2-0.1,0.2c0,0-0.1-0.1-0.1-0.1c-0.1,0-0.1,0-0.2,0c-0.1,0-0.1,0-0.2,0c-0.1,0-0.1,0-0.2,0c0,0-0.1-0.1-0.1-0.1c0,0,0,0,0,0
	l0,0c0-0.1,0,0,0,0l0,0c0,0,0,0,0-0.2c0,0,0-0.1,0-0.1l0,0c0-0.1,0,0,0.1,0c0.1,0,0.1,0,0.2,0C12.9,24.4,12.9,24.4,13,24.4
	C13,24.4,13,24.4,13,24.4L13,24.4z"/>
<path class="st1" d="M15,24.7C15,24.7,15,24.7,15,24.7l0.2,0l0,0l0,0l0.1,0c0.1,0,0.1,0,0.2,0.1c0,0,0,0,0,0.1c0,0.1,0,0.2-0.1,0.2
	s-0.1-0.1-0.1,0s-0.1,0-0.2,0c-0.1,0-0.1,0-0.2,0c-0.1,0-0.1,0-0.2,0c-0.1,0-0.1,0-0.1-0.1c0,0,0,0,0,0l0,0c0-0.1,0,0,0,0l0,0l0,0
	c0,0,0,0,0-0.2c0,0,0-0.1,0-0.1l0,0c0-0.1,0-0.1,0.1-0.1c0.1,0,0.2,0,0.2,0C14.8,24.8,14.8,24.8,15,24.7
	C14.9,24.7,14.9,24.7,15,24.7L15,24.7z"/>
<path class="st1" d="M16.9,24.9C16.9,24.9,17,24.9,16.9,24.9l0.2,0l0,0l0,0c0,0,0.1,0,0.1,0c0.1,0,0.1,0,0.2,0.1c0,0,0,0,0,0.1
	c0,0.1,0,0.2,0,0.2c0,0-0.1-0.1-0.1,0c-0.1,0-0.1,0-0.2,0c-0.1,0-0.1,0-0.2,0c-0.1,0-0.1,0-0.2,0c-0.1,0-0.1,0-0.1-0.1c0,0,0,0,0,0
	l0,0c0-0.1,0,0.1,0,0l0,0c0,0,0,0,0-0.2c0,0,0-0.1,0-0.1l0,0c0-0.1,0-0.1,0-0.1c0.1,0,0.2,0,0.2,0C16.8,24.9,16.8,24.9,16.9,24.9
	C16.9,24.9,16.9,24.9,16.9,24.9L16.9,24.9z"/>
<path class="st1" d="M18.9,25C18.9,25,18.9,25,18.9,25h0.2l0,0l0,0h0.1c0.1,0,0.2,0,0.2,0c0,0,0,0,0,0.1c0,0.1,0,0.2,0,0.2
	s-0.1,0-0.1,0c-0.1,0-0.1,0-0.2,0c-0.1,0-0.1,0-0.2,0c-0.1,0-0.1,0-0.2,0c-0.1,0-0.1,0-0.1-0.1c0,0,0,0,0,0l0,0c0-0.1,0,0.1,0,0l0,0
	c0,0,0,0,0-0.2c0,0,0-0.1,0-0.1l0,0c0-0.1,0-0.1,0-0.1c0.1,0,0.2,0,0.2,0C18.8,25,18.8,25,18.9,25C18.9,25,18.9,25,18.9,25L18.9,25z
	"/>
<path class="st1" d="M20.9,24.9L20.9,24.9h0.2l0,0h0.1c0.1,0,0.1,0,0.2,0c0,0,0,0,0,0.1c0,0.1,0,0.2,0,0.2c0,0-0.1,0-0.1,0
	c-0.1,0-0.1,0-0.2,0c-0.1,0-0.1,0-0.2,0c-0.1,0-0.1,0-0.2,0c-0.1,0-0.1,0-0.2,0c0,0,0,0,0,0l0,0c0-0.1,0,0.1,0,0l0,0c0,0,0,0,0-0.2
	c0,0,0-0.1,0-0.1l0,0c0-0.1,0-0.1,0-0.1c0.1,0,0.1,0,0.2,0C20.8,25,20.8,25,20.9,24.9C20.9,25,20.9,24.9,20.9,24.9L20.9,24.9z"/>
<path class="st1" d="M22.9,24.7C22.9,24.7,22.9,24.7,22.9,24.7l0.2,0l0,0l0,0c0,0,0.1,0,0.1,0c0.1,0,0.1,0,0.2,0c0,0,0,0,0.1,0.1
	c0,0.1,0,0.2,0,0.2c0,0-0.1,0-0.1,0c-0.1,0-0.1,0.1-0.2,0.1c-0.1,0-0.1,0-0.2,0c-0.1,0-0.1,0.1-0.2,0.1c-0.1,0-0.1,0-0.2,0
	c0,0,0,0,0,0l0,0c0-0.1,0,0.1,0,0l0,0c0,0,0,0,0-0.2c0,0,0-0.1,0-0.1l0,0c0-0.1,0-0.1,0-0.1c0.1,0,0.1,0,0.2-0.1
	C22.8,24.8,22.8,24.8,22.9,24.7C22.8,24.8,22.9,24.7,22.9,24.7L22.9,24.7z"/>
<path class="st1" d="M24.8,24.3C24.8,24.3,24.8,24.3,24.8,24.3l0.2-0.1l0,0l0,0l0.1,0c0.1,0,0.1,0,0.2,0c0,0,0,0,0.1,0.1
	c0,0.1,0.1,0.2,0,0.2c0,0-0.1,0-0.1,0c0,0-0.1,0.1-0.2,0.1c-0.1,0-0.1,0-0.2,0.1c-0.1,0-0.1,0.1-0.2,0.1c-0.1,0-0.1,0-0.2,0
	c0,0,0,0,0,0.1l0,0c0-0.1,0,0.1-0.1,0l0,0l0,0c0,0,0,0-0.1-0.2c0,0,0-0.1,0-0.1l0,0c0-0.1,0-0.1,0-0.1c0.1,0,0.1-0.1,0.2-0.1
	C24.7,24.4,24.7,24.4,24.8,24.3C24.8,24.3,24.8,24.3,24.8,24.3L24.8,24.3z"/>
<path class="st1" d="M26.6,23.5C26.6,23.5,26.6,23.5,26.6,23.5l0.2-0.1l0,0l0,0c0,0,0.1,0,0.1,0c0.1,0,0.1-0.1,0.2-0.1
	c0,0,0,0,0.1,0.1s0.1,0.2,0.1,0.2c0,0-0.1,0-0.1,0c0,0-0.1,0.1-0.2,0.1c-0.1,0-0.1,0.1-0.2,0.1c0,0-0.1,0.1-0.1,0.1
	c-0.1,0-0.1,0-0.2,0c0,0,0,0,0,0.1l0,0c0,0,0,0.1-0.1,0l0,0c0,0,0,0-0.1-0.2c0,0,0-0.1,0-0.1l0,0c0-0.1,0-0.1,0-0.1
	c0.1,0,0.1-0.1,0.2-0.1C26.5,23.6,26.5,23.6,26.6,23.5C26.6,23.6,26.6,23.5,26.6,23.5L26.6,23.5z"/>
<path class="st1" d="M28.2,22.4C28.2,22.4,28.2,22.4,28.2,22.4l0.1-0.1l0,0l0,0c0,0,0.1,0,0.1-0.1c0-0.1,0.1-0.1,0.2-0.1
	c0,0,0,0,0.1,0.1s0.2,0.2,0.1,0.2c0,0-0.1,0-0.1,0.1s-0.1,0.1-0.1,0.2c0,0-0.1,0.1-0.1,0.1c0,0.1-0.1,0.1-0.1,0.1c0,0-0.1,0-0.1,0.1
	c0,0,0,0,0,0.1l0,0c-0.1,0,0,0.1-0.1,0l0,0c0,0,0,0-0.1-0.1c0,0,0-0.1-0.1-0.1l0,0c-0.1-0.1,0-0.1,0-0.1s0.1-0.1,0.2-0.2
	C28.1,22.5,28.2,22.5,28.2,22.4L28.2,22.4L28.2,22.4z"/>
<path class="st1" d="M29.5,21C29.5,21,29.5,21,29.5,21l0.1-0.2l0,0l0,0c0,0,0,0,0.1-0.1c0-0.1,0.1-0.1,0.2-0.1c0,0,0,0,0.1,0
	c0.1,0.1,0.2,0.1,0.2,0.1c0,0-0.1,0.1-0.1,0.1c0,0.1-0.1,0.1-0.1,0.2s-0.1,0.1-0.1,0.2c0,0.1,0,0.1-0.1,0.2c0,0-0.1,0.1-0.1,0.1
	c0,0,0,0,0,0.1l0,0c-0.1,0,0,0.1-0.1,0l0,0l0,0c0,0,0,0-0.2-0.1l-0.1-0.1l0,0c-0.1-0.1,0-0.1,0-0.1c0-0.1,0.1-0.1,0.1-0.2
	C29.4,21.1,29.5,21.1,29.5,21C29.5,21,29.5,21,29.5,21L29.5,21z"/>
<path class="st1" d="M30.3,19.5C30.3,19.5,30.3,19.5,30.3,19.5L30.3,19.5L30.3,19.5L30.3,19.5c0-0.1,0-0.1,0-0.1c0,0,0-0.1,0.1-0.1
	c0,0,0,0,0.1,0c0.1,0,0.2,0.1,0.2,0.1s-0.1,0,0,0.1c0,0,0,0.1,0,0.1c0,0,0,0.1,0,0.1c0,0,0,0.1,0,0.1c0,0-0.1,0-0.1,0.1c0,0,0,0,0,0
	l0,0c-0.1,0,0,0,0,0l0,0c0,0,0,0-0.2-0.1l-0.1,0l0,0c-0.1,0,0,0,0,0C30.3,19.6,30.3,19.6,30.3,19.5C30.3,19.5,30.3,19.5,30.3,19.5
	C30.3,19.5,30.2,19.5,30.3,19.5L30.3,19.5z"/>
</svg>
