<svg xmlns="http://www.w3.org/2000/svg" viewBox="0 0 145.57 62.4">
  <defs>
    <style>
      .cls-1 {
        fill: #fff;
      }
    </style>
  </defs>
  <g id="Layer_2" data-name="Layer 2">
    <g id="Layer_1-2" data-name="Layer 1">
      <g>
        <path class="cls-1" d="M.47.68A2.4,2.4,0,0,1,1.6.07,8.91,8.91,0,0,1,2.91,0l.92.15.73.16L7.45,1l6.1,1.5h0c2,.39,3.87,1,5.78,1.43,7,1.74,14.07,3.35,21.11,5L54.6,12.3,61.69,14,66,15a2.38,2.38,0,0,1,1.14.51,1.34,1.34,0,0,1,.51.64.75.75,0,0,1,0,.51l-.17.29a2,2,0,0,1-.79.73l-6.49,3.1A34,34,0,0,1,54,23.5l-5-2.07c-2.39-1-4.8-1.94-7.15-3a14.89,14.89,0,0,0-2-.88h0c-.69-.31-1.36-.64-2.05-.92l-7.88-3.18a2.08,2.08,0,0,1-.38-.22h0l-4.76-1.92C21.27,9.79,17.6,8.29,13.85,7c-.58-.2-1.55-.59-1.82.12s.2,1.42,1.21,1.81c2.44.92,4.93,1.74,7.28,2.85,3.44,1.62,7,2.95,10.48,4.43l9.43,3.9c3,1.25,5.84,2.62,8.8,3.82.81.33,1.63.62,2.45.92a28.4,28.4,0,0,1-2.93,1.85L34.43,35.08l-1.8,1-.9.52a5.16,5.16,0,0,1-1.26.59,3.27,3.27,0,0,1-1.68-.08,2.68,2.68,0,0,1-.86-.46,3.83,3.83,0,0,1-.35-.34l-.16-.2-1.34-1.59-5.35-6.35-9.29-11,0,0c-.24-.32-.47-.66-.73-1l-7.67-9A26.93,26.93,0,0,1,1.14,4.82,7.49,7.49,0,0,1,.22,3.16,2.41,2.41,0,0,1,.47.68Z"/>
        <path class="cls-1" d="M52.54,34.83c0,.23,0,.46,0,.68l0,.47a1.24,1.24,0,0,1-.47.9,1.43,1.43,0,0,1-1,.3,1.37,1.37,0,0,1-.48-.1,2.45,2.45,0,0,1-.36-.22l-.43-.32-.12,0h0l-1.25-.92a30.58,30.58,0,0,1-2.86-2.2c-.14-.13-.39-.31-.15-.64s.56-.41.82-.2A17.36,17.36,0,0,0,48.18,34c1,.59,1.89,1.3,2.83,2a.22.22,0,0,0,.24,0,.11.11,0,0,0,.08-.1l.05-1.5c0-1,0-1.94,0-2.91s.17-1.66.24-2.5a.83.83,0,0,0-.1-.59h0c.19-.22-.14-.5.14-.71h0a.91.91,0,0,0,0-.23c-.06-.34.09-.43.55-.3.1,0,.23,0,.3.09h0c.3.24.14.52.14.78,0,1.28-.07,2.55-.1,3.83,0,.78-.07,1.57,0,2.35a2.82,2.82,0,0,1,0,.65Z"/>
        <g>
          <path class="cls-1" d="M142,28.8l.07,0a1.8,1.8,0,0,0,.08.21h0s0,.09.05.12a.29.29,0,0,1,0,.33s0,.05-.36.23a1.94,1.94,0,0,1-.61.24c0-.07.06-.18,0-.2s-.13-.15-.2-.23a2.53,2.53,0,0,0-.13-.22c-.06-.06-.18-.09-.21-.17s0-.17,0-.25,0-.05-.13,0h0c.16-.1-.16,0,.08-.1h0s0,0,0,0,.06-.07.47-.27l.27-.14h0c.28-.13.16,0,.18,0a1.65,1.65,0,0,1,.19.27c0,.06.05.12.13.16s.09,0,.06,0Z"/>
          <path class="cls-1" d="M144,33.41s.07.06.08.1l.13.43s0,0,0,0h0a1.12,1.12,0,0,0,.08.26,1,1,0,0,1,.1.63s0,.08-.38.2-.65.16-.65.1,0-.29-.08-.39a1.41,1.41,0,0,1-.26-.52c-.08-.16-.12-.33-.2-.48a4.78,4.78,0,0,1-.26-.42,1.7,1.7,0,0,1,0-.45s0-.08-.15-.05h0c.16-.1-.18,0,.06-.15h0s0,0,0,0,0-.09.48-.25a2.43,2.43,0,0,1,.28-.1h0c.31-.08.18,0,.21.06.1.2.18.41.27.61a1.06,1.06,0,0,0,.18.37s.09,0,.07.09Z"/>
          <path class="cls-1" d="M145.45,39.1s.05.07.05.11l0,.46,0,0h0a2.62,2.62,0,0,0,0,.28,1,1,0,0,1-.09.64s0,.09-.42.1-.67,0-.66-.08.13-.27.05-.4a1.59,1.59,0,0,1-.11-.56,4.46,4.46,0,0,0-.07-.51c0-.16-.15-.31-.17-.46a2.46,2.46,0,0,1,.09-.44s0-.07-.14-.07h0c.18-.07-.17-.06.09-.14h0s0,0,0,0,.06-.08.52-.15l.3,0h0c.31,0,.17.07.19.11.07.21.1.44.15.66a1.47,1.47,0,0,0,.1.4s.08.07,0,.11Z"/>
          <path class="cls-1" d="M144.94,45a.56.56,0,0,1,0,.13c-.05.15-.12.29-.18.43a.08.08,0,0,0,0,0h0c0,.08-.08.17-.12.25a1,1,0,0,1-.37.55s-.06.07-.42-.11-.58-.33-.54-.37.23-.17.22-.32.1-.37.14-.55.12-.31.15-.48a3.77,3.77,0,0,1,0-.48c0-.13.18-.23.24-.36s.05-.06-.1-.12h0c.19,0-.14-.11.13-.09h0s0,0,0,0,.09-.06.54.05a2.81,2.81,0,0,1,.29.08h0c.3.1.14.12.14.17a4.94,4.94,0,0,1-.12.67,1.48,1.48,0,0,0-.07.42s.05.1,0,.12Z"/>
          <path class="cls-1" d="M141.62,50a.39.39,0,0,1-.06.11c-.12.1-.25.19-.38.28a.1.1,0,0,1,0,0h0a1.88,1.88,0,0,0-.23.16.94.94,0,0,1-.59.28s-.08,0-.31-.3-.35-.56-.3-.58.3,0,.36-.18.27-.27.4-.4.26-.22.37-.35.16-.29.27-.4.27-.11.39-.18.07,0,0-.15h0c.16.1-.07-.16.16,0h0s0,0,0,0,.1,0,.43.32c.07.08.17.16.22.22h0c.2.24.05.18,0,.21-.14.19-.3.36-.45.53a1.38,1.38,0,0,0-.28.31s0,.11-.06.11Z"/>
          <path class="cls-1" d="M136.52,53s-.06.07-.1.08l-.42.15s0,0,0,0h0l-.26.09a1,1,0,0,1-.63.09s-.09,0-.22-.37-.18-.64-.12-.64.29,0,.4-.08.34-.17.51-.27.32-.13.47-.22.25-.23.4-.28a2.17,2.17,0,0,1,.45,0s.07,0,0-.15h0c.11.16,0-.17.15.06h0s0,0,0,0,.1,0,.27.47a2.93,2.93,0,0,1,.12.28h0c.09.3,0,.18-.05.2-.2.12-.4.21-.6.31a1.07,1.07,0,0,0-.36.2s-.05.09-.09.08Z"/>
          <path class="cls-1" d="M130.9,54.58a.6.6,0,0,1-.11.06l-.45,0s0,0,0,0h0a1.26,1.26,0,0,0-.27,0,1,1,0,0,1-.63,0s-.09,0-.14-.41-.05-.66,0-.66.28.09.4,0,.37-.11.56-.17.34-.06.5-.11a3,3,0,0,1,.46-.19,2.24,2.24,0,0,1,.44.07s.08,0,.08-.14h0c.08.17.05-.17.15.08h0s0,0,0,0,.09.06.17.51a2.07,2.07,0,0,1,0,.3h0c0,.31,0,.17-.09.19-.21.07-.43.11-.65.16a1.36,1.36,0,0,0-.39.12s-.06.09-.1.06Z"/>
          <path class="cls-1" d="M125.09,55.08s-.08,0-.12,0l-.45,0s0,0,0,0h0l-.28,0a1,1,0,0,1-.62-.12s-.08,0-.06-.43.08-.66.13-.65.26.14.4.07.38,0,.58-.06.34,0,.52,0a2.73,2.73,0,0,1,.48-.1c.14,0,.28.11.43.15s.06,0,.09-.12h0c0,.19.08-.15.12.12h0s0,0,0,0,.08.07.08.53c0,.11,0,.24,0,.31h0c0,.31-.08.16-.13.16-.22,0-.44,0-.66,0a.94.94,0,0,0-.41,0s-.08.07-.11,0Z"/>
          <path class="cls-1" d="M119.28,54.49a.25.25,0,0,1-.12,0l-.44-.11,0,0h0a1.11,1.11,0,0,0-.26-.07,1,1,0,0,1-.59-.24s-.08,0,0-.43.19-.63.24-.61.23.18.38.14.39,0,.58,0,.34.07.52.08a4,4,0,0,1,.49,0,1.74,1.74,0,0,1,.39.23s.07,0,.12-.11h0c0,.19.11-.14.1.13h0s0,0,0,0,.06.09,0,.54c0,.1,0,.23-.06.3h0c-.09.3-.11.14-.16.14-.22,0-.44-.05-.66-.08a1.43,1.43,0,0,0-.41,0s-.09.06-.12,0Z"/>
          <path class="cls-1" d="M113.68,52.85h-.12l-.41-.19s0,0,0,0h0c-.09,0-.16-.09-.25-.12a.91.91,0,0,1-.53-.34s-.08,0,.09-.42.31-.59.36-.55.19.22.34.2a1.55,1.55,0,0,1,.57.15c.17,0,.32.14.49.18a2.64,2.64,0,0,1,.49.08c.12,0,.22.2.34.29s0,.06.13-.08h0c0,.18.13-.12.07.15h0s0,0,0,0,0,.1-.12.53a2.61,2.61,0,0,1-.12.28h0c-.14.28-.13.12-.18.11-.21-.05-.42-.13-.63-.2a1.08,1.08,0,0,0-.4-.11s-.09,0-.12,0Z"/>
          <path class="cls-1" d="M108.49,50.19a.42.42,0,0,1-.12,0L108,49.9l0,0h0a1.12,1.12,0,0,0-.22-.16.92.92,0,0,1-.45-.46s-.06-.07.18-.39.43-.51.47-.47.13.27.28.28.35.17.52.25.29.19.45.27a3.75,3.75,0,0,1,.47.17c.11.07.18.24.28.35s0,.06.14-.06h0c-.06.18.16-.09,0,.16h0s0,0,0,0,0,.1-.22.49c-.06.09-.12.2-.17.26h0c-.19.25-.16.1-.2.08-.2-.09-.39-.21-.59-.32a1.52,1.52,0,0,0-.36-.18s-.11,0-.12,0Z"/>
          <path class="cls-1" d="M104.14,46.16s-.08,0-.1-.08l-.23-.4h0c0-.08-.08-.17-.14-.25a1,1,0,0,1-.2-.63s0-.09.34-.27.61-.26.62-.21,0,.29.12.37.23.3.35.45.18.28.3.4.27.19.36.32a1.8,1.8,0,0,1,.14.41s0,.07.16,0h0c-.11.15.18,0,0,.17h0s0,0,0,0,0,.1-.37.39a2.48,2.48,0,0,1-.24.18h0c-.27.17-.19,0-.22,0s-.31-.33-.46-.5a1.45,1.45,0,0,0-.29-.32s-.1,0-.1-.07Z"/>
          <path class="cls-1" d="M102.62,40.28a.34.34,0,0,1,0-.14,3.8,3.8,0,0,1,.18-.47s0,0,0,0h0c0-.1.1-.18.14-.28a.92.92,0,0,1,.44-.55s.07-.07.4.15.54.4.5.43-.25.14-.24.28-.1.34-.14.51a3.28,3.28,0,0,0-.11.45c0,.14.06.3,0,.44s-.13.23-.17.36,0,.06.12.09h0c-.18,0,.16.07-.11.11,0,0,0,0,0,0s-.07.07-.53.07c-.11,0-.24,0-.31,0h0c-.31,0-.16-.09-.17-.14a3,3,0,0,1,0-.73,2.22,2.22,0,0,0,0-.45s-.06-.1,0-.13Z"/>
          <path class="cls-1" d="M107.22,36.3a.26.26,0,0,1,.12,0l.47,0s0,0,0,0h.29a1,1,0,0,1,.66.09s.09,0,.08.43,0,.66-.09.65-.26-.13-.39-.06-.37.07-.55.11-.32,0-.48.09-.28.17-.42.21a3,3,0,0,1-.41,0s-.07,0,0,.15h0c-.09-.16,0,.18-.14-.06h0s0,0,0,0-.09,0-.24-.48c0-.1-.09-.22-.1-.29h0c-.07-.31,0-.19.08-.21a4.06,4.06,0,0,1,.66-.25,1.6,1.6,0,0,0,.42-.14s.06-.08.11-.06Z"/>
          <path class="cls-1" d="M113.15,36.92a.57.57,0,0,1,.13,0l.42.17,0,0h0l.26.11a.93.93,0,0,1,.55.31s.08,0-.07.42-.27.61-.31.58-.21-.21-.36-.19a1.3,1.3,0,0,1-.56-.11c-.17,0-.33-.11-.5-.15a3.91,3.91,0,0,1-.49,0c-.13,0-.24-.17-.36-.24s-.06,0-.13.09h0c0-.19-.11.13-.09-.14h0s0,0,0,0,0-.09.07-.54c0-.09.05-.22.08-.29h0c.11-.29.13-.13.17-.13.23,0,.44.08.67.13a2.57,2.57,0,0,0,.4.07s.1,0,.12,0Z"/>
          <path class="cls-1" d="M118.52,39.34s.09,0,.12,0l.36.27s0,0,0,0h0c.08.06.14.13.22.18a.92.92,0,0,1,.44.47s.06.08-.19.39-.44.5-.47.46-.13-.27-.28-.29-.33-.18-.5-.27-.29-.19-.44-.27a3.68,3.68,0,0,1-.47-.15c-.11-.08-.18-.24-.28-.34s0-.06-.15.06h0c0-.18-.15.1,0-.16h0s0,0,0,0,0-.11.21-.5a2.63,2.63,0,0,1,.15-.26h0c.19-.26.16-.1.2-.08.21.08.41.19.61.29a1.48,1.48,0,0,0,.38.18s.1,0,.12,0Z"/>
          <path class="cls-1" d="M122.75,43.56l.1.08c.07.14.13.29.19.43h0a2,2,0,0,0,.11.26,1,1,0,0,1,.14.66s0,.09-.37.23-.63.19-.64.14,0-.29-.08-.38-.2-.32-.3-.47-.16-.29-.26-.43-.26-.2-.34-.33a2.45,2.45,0,0,1-.11-.41s0-.07-.16,0h0c.13-.14-.17,0,0-.16h0s0,0,0,0,0-.11.4-.38c.08-.05.18-.14.24-.17h0c.27-.16.19,0,.22,0a5.62,5.62,0,0,1,.44.53,1.62,1.62,0,0,0,.26.34s.11,0,.1.08Z"/>
          <path class="cls-1" d="M123.85,49.5s0,.09,0,.13-.08.3-.13.46l0,0h0c0,.09-.07.18-.09.27a.9.9,0,0,1-.31.59s-.05.08-.43-.06-.61-.26-.58-.31.21-.2.18-.34.06-.37.08-.55a4.44,4.44,0,0,0,.07-.49c0-.16-.06-.32,0-.47a2.67,2.67,0,0,1,.18-.39s0-.06-.12-.09h0c.19,0-.15-.08.12-.11,0,0,0,0,0,0s.08-.07.54-.05a2.51,2.51,0,0,1,.3,0h0c.31,0,.16.1.17.14a5.45,5.45,0,0,1,0,.7,1.54,1.54,0,0,0,0,.43s.06.09,0,.13Z"/>
          <path class="cls-1" d="M121.08,54.82a.26.26,0,0,1,0,.12l-.33.32s0,0,0,0h0l-.21.18a1,1,0,0,1-.55.36s-.08,0-.35-.26-.41-.52-.36-.55.28-.07.33-.22.24-.3.35-.45a3.9,3.9,0,0,0,.33-.38,4.34,4.34,0,0,1,.23-.43c.09-.1.26-.14.37-.23s.07,0,0-.15h0c.17.08-.08-.16.16,0,0,0,0,0,0,0s.1,0,.46.28a2.88,2.88,0,0,1,.24.19h0c.23.22.08.17.06.21a5.23,5.23,0,0,1-.39.57,1.39,1.39,0,0,0-.24.34s0,.11,0,.11Z"/>
          <path class="cls-1" d="M116.37,58.38a.27.27,0,0,1-.08.1l-.41.19s0,0,0,0h0a1.79,1.79,0,0,0-.24.12A1,1,0,0,1,115,59s-.09,0-.25-.34-.25-.63-.19-.64.29,0,.37-.13.32-.22.48-.33.3-.17.44-.27.23-.25.37-.32a2,2,0,0,1,.44-.07s.07,0,0-.15h0c.13.14,0-.17.16,0h0s0,0,0,0,.11,0,.34.43a2.71,2.71,0,0,1,.15.26h0c.13.28,0,.18,0,.21s-.37.24-.56.36a1.15,1.15,0,0,0-.35.24s0,.1-.08.08Z"/>
          <path class="cls-1" d="M110.91,60.5a.23.23,0,0,1-.1.07l-.44.09s0,0,0,0h0l-.27,0a1,1,0,0,1-.63,0s-.09,0-.17-.4-.11-.65-.05-.65.28.06.4,0a1.4,1.4,0,0,1,.54-.22c.17-.06.34-.08.5-.15a4.64,4.64,0,0,1,.44-.23,2.28,2.28,0,0,1,.45,0s.08,0,.06-.15h0c.09.17,0-.17.15.08h0c0-.08.1,0,.21.5a2.16,2.16,0,0,1,.08.29h0c.06.31,0,.18-.08.2-.2.08-.42.14-.63.21a1.2,1.2,0,0,0-.38.15s-.05.09-.1.06Z"/>
          <path class="cls-1" d="M105.22,61.6s-.07,0-.11,0l-.45,0v0h-.27a1,1,0,0,1-.63,0s-.09,0-.13-.42,0-.66,0-.65.28.1.4,0a1.46,1.46,0,0,1,.57-.15c.17,0,.35,0,.52-.08a1.88,1.88,0,0,1,.47-.17c.14,0,.29.07.44.09s.07,0,.08-.14h0c.06.17.06-.17.13.09h0s0,0,0,0,.09.06.14.52a1.78,1.78,0,0,1,0,.3h0c0,.32-.06.18-.1.19-.22.06-.44.09-.65.13a1.47,1.47,0,0,0-.4.1s-.06.08-.1.05Z"/>
          <path class="cls-1" d="M99.47,62.11a.31.31,0,0,1-.12,0h-.44s0,0,0,0h0a2.43,2.43,0,0,0-.27,0,1,1,0,0,1-.62-.09s-.09,0-.1-.42,0-.66.06-.65.28.12.41,0,.39-.07.58-.1.35,0,.52,0,.33-.13.49-.14a2.64,2.64,0,0,1,.44.12s.07,0,.09-.12h0c.05.18.07-.16.13.11h0s0,0,0,0,.08.08.09.54a3,3,0,0,1,0,.3h0c0,.31-.07.17-.12.18-.22,0-.43,0-.65.08a1.34,1.34,0,0,0-.4.07s-.07.08-.11,0Z"/>
          <path class="cls-1" d="M93.72,62.33a.34.34,0,0,1-.11.05l-.45,0,0,0h0a1.15,1.15,0,0,0-.26,0,1,1,0,0,1-.62-.11s-.09,0-.09-.42,0-.66.08-.65.27.13.41,0,.39,0,.58-.08l.53,0a2.7,2.7,0,0,1,.49-.12,2.35,2.35,0,0,1,.43.13s.07,0,.1-.12h0c0,.19.08-.16.12.11h0s0,0,0,0,.08.08.07.54a3,3,0,0,1,0,.3h0c0,.31-.09.16-.13.17-.22,0-.44,0-.66.07a1.1,1.1,0,0,0-.4,0s-.07.08-.11,0Z"/>
          <path class="cls-1" d="M88,62.33a.28.28,0,0,1-.12,0l-.44,0s0,0,0,0h0l-.27,0a1,1,0,0,1-.61-.13s-.09,0-.07-.43.07-.66.12-.64.27.14.4.07a1.33,1.33,0,0,1,.59-.05c.18,0,.35,0,.53,0a2.81,2.81,0,0,1,.49-.09c.14,0,.28.11.42.15s.07,0,.11-.12h0c0,.18.08-.16.12.11h0s0,0,0,0,.08.08.05.54a1.47,1.47,0,0,1,0,.31h0c0,.31-.09.15-.13.16-.22,0-.44,0-.66,0a1.15,1.15,0,0,0-.41,0s-.07.07-.11,0Z"/>
          <path class="cls-1" d="M82.2,62s-.08,0-.12,0l-.44-.07s0,0,0,0h0a2.34,2.34,0,0,0-.26,0,1,1,0,0,1-.61-.19s-.08,0,0-.43.12-.65.17-.63.25.16.4.11.39,0,.58,0,.35,0,.53,0a2.73,2.73,0,0,1,.5-.06,2.09,2.09,0,0,1,.4.19s.07,0,.11-.11h0c0,.18.1-.15.11.12h0s0,0,0,0,.07.09,0,.55a2.19,2.19,0,0,1,0,.3h0c-.07.3-.1.15-.15.15-.22,0-.44,0-.66,0a1.13,1.13,0,0,0-.41,0s-.08.06-.11,0Z"/>
          <path class="cls-1" d="M76.48,61a.27.27,0,0,1-.12,0l-.43-.13s0,0,0,0h0a2.5,2.5,0,0,0-.26-.07,1,1,0,0,1-.58-.26s-.08,0,0-.43.2-.63.25-.6.23.19.38.15a1.4,1.4,0,0,1,.58.06c.17,0,.34.08.51.09a4.13,4.13,0,0,1,.5,0c.14,0,.25.17.38.23s.06,0,.12-.09h0c0,.19.11-.14.09.14h0s0,0,0,0,.06.1,0,.54a1.91,1.91,0,0,1-.07.3h0c-.1.3-.12.14-.16.13-.22,0-.44-.06-.66-.09a1.07,1.07,0,0,0-.4,0s-.09.06-.12,0Z"/>
          <path class="cls-1" d="M70.92,59.32h-.13l-.4-.19,0,0h0L70.11,59a1,1,0,0,1-.54-.34s-.07-.05.1-.42.3-.59.35-.56.19.22.34.21a1.37,1.37,0,0,1,.57.14c.17,0,.32.14.49.18a2.64,2.64,0,0,1,.49.08c.13.05.22.2.34.29s0,.05.13-.08h0c0,.19.13-.12.08.15h0s0,0,0,0,0,.1-.13.53a1.49,1.49,0,0,1-.11.28h0c-.14.28-.14.13-.18.12l-.64-.2a1.09,1.09,0,0,0-.39-.11s-.1,0-.12,0Z"/>
          <path class="cls-1" d="M65.71,56.71a.42.42,0,0,1-.12,0l-.37-.26,0,0h0L65,56.28a1,1,0,0,1-.47-.43s-.06-.06.17-.39.41-.53.45-.49.15.26.3.27.36.16.53.24.29.19.45.26a3.26,3.26,0,0,1,.47.17c.12.07.18.24.28.35s0,.06.15-.06h0c-.06.18.15-.1,0,.16h0s0,0,0,0,0,.1-.22.49a1.48,1.48,0,0,1-.16.26h0c-.19.25-.16.09-.2.07-.2-.09-.39-.2-.59-.31a1.14,1.14,0,0,0-.37-.17s-.1,0-.11,0Z"/>
          <path class="cls-1" d="M61.08,53.15s-.09,0-.12,0l-.3-.33s0,0,0,0h0a1.71,1.71,0,0,0-.18-.2,1,1,0,0,1-.37-.52s-.05-.07.24-.35.52-.43.54-.38.1.28.25.32.31.23.46.35.25.24.39.34a3.07,3.07,0,0,1,.43.26c.1.09.13.27.2.39s0,.07.16,0h0c-.09.17.16-.06,0,.17h0s0,0,0,0,0,.11-.32.45a2.3,2.3,0,0,1-.2.22h0c-.24.21-.17.06-.21,0s-.35-.28-.52-.42a1.11,1.11,0,0,0-.32-.25s-.11,0-.11-.05Z"/>
          <path class="cls-1" d="M57.33,48.65s-.08,0-.1-.08L57,48.18h0a1.88,1.88,0,0,0-.14-.24,1,1,0,0,1-.23-.59s0-.09.32-.28.6-.29.62-.23,0,.29.16.36.25.3.37.45.18.29.29.42.27.21.35.35a2.7,2.7,0,0,1,.11.43s0,.08.15,0h0c-.13.14.17,0,0,.17h0s0,0,0,0,0,.11-.41.36a2.23,2.23,0,0,1-.25.17h0c-.27.15-.18,0-.21,0s-.27-.35-.4-.53a1.35,1.35,0,0,0-.26-.33s-.1,0-.09-.07Z"/>
          <path class="cls-1" d="M55,44s-.05,0-.06,0l0-.22h0a.58.58,0,0,0,0-.14.29.29,0,0,1,0-.33s0,0,.4-.16a1.82,1.82,0,0,1,.63-.14c0,.08-.08.17,0,.21s.1.16.15.25,0,.16.1.23.16.12.18.19-.06.17-.07.25,0,0,.13,0h0c-.16.08.17,0-.08.09h0s0,0,0,0-.06.06-.49.21l-.29.1h0c-.3.09-.16,0-.18,0a2.8,2.8,0,0,1-.15-.3c0-.06,0-.13-.11-.18s-.08,0,0,0Z"/>
        </g>
      </g>
    </g>
  </g>
</svg>
