<svg xmlns="http://www.w3.org/2000/svg" viewBox="0 0 290.42 342.39">
  <defs>
    <style>
      .cls-1 {
        fill: #0048ff;
      }

      .cls-2 {
        fill: #fff;
      }

      .cls-3 {
        font-size: 12px;
        font-family: MyriadPro-Regular, Myriad Pro;
      }

      .cls-4 {
        fill: #0cc4ac;
      }

      .cls-5 {
        fill: #ee3435;
      }

      .cls-6 {
        fill: #ee3636;
      }
    </style>
  </defs>
  <g id="Layer_2" data-name="Layer 2">
    <g id="Layer_1-2" data-name="Layer 1">
      <g>
        <g>
          <rect class="cls-1" x="26.8" y="19.39" width="237.04" height="303.85" rx="13.97" transform="translate(-31.62 32.89) rotate(-11.66)"/>
          <path class="cls-2" d="M4.21,79.09,2,68.59.92,63.34.37,60.71A18.52,18.52,0,0,1,0,57.87,15.06,15.06,0,0,1,8.44,43.79a21.14,21.14,0,0,1,5.38-1.61l159-32.76,8.09-1.73-.24,0,24-4.95,12-2.48a15,15,0,0,1,16.59,8.11l.36.75.29.77a11,11,0,0,1,.47,1.58c.27,1.07.43,2,.65,3l2.48,12,5,24q23,111.23,45.67,222.33c.58,2.91,1.3,6.26,2,9.79a14.55,14.55,0,0,1-2.18,10.5,14.9,14.9,0,0,1-3.2,3.46,13.27,13.27,0,0,1-3.24,1.86,10.22,10.22,0,0,1-2.34.64c-.54.07-.82.07-.79,0s.27-.24.68-.43,1-.45,1.71-.8c.36-.18.74-.43,1.16-.66s.84-.58,1.3-.9a16.22,16.22,0,0,0,2.69-2.73,13.71,13.71,0,0,0,2.66-9.6c-.06-.49-.15-1-.24-1.48s-.22-1.06-.34-1.6c-.23-1.08-.47-2.19-.71-3.34-.47-2.29-1-4.7-1.5-7.22-10-48.81-20-97.9-30.1-146.43Q244.71,70.72,233.68,17.52L233,14.2l-.34-1.67c-.14-.52-.25-1-.42-1.54a13.32,13.32,0,0,0-3.34-5.32A13.07,13.07,0,0,0,217.15,2.3l-26.6,5.49-53.22,11L41.75,38.51l-23.9,4.93c-2,.42-4,.8-5.93,1.25A13,13,0,0,0,2,57.1c0,.47,0,.94,0,1.42s.14.94.2,1.41l.62,3,1.23,6,2.47,12,4.94,23.89q18.62,89.76,37.21,179.47l8,38.73,1,4.84.5,2.42.28,1.11c.11.36.26.71.38,1.07a12.92,12.92,0,0,0,14.88,7.78l9.69-2,77.49-15.84c12.16-2.5,25.11-5.13,36.54-7.75l-.2,0c14.08-2.59,30.4-6.54,44.1-8.91h0l14.23-2.9c21.19-4.49,26.85-5.4,19.91-3.18-1.53.49.33.33-4.79,1.51l-.39.06h.15c-14.26,3.48-32,6.89-48.11,10.21L104,335.85,74.44,342c-.59.14-1.27.23-1.93.33a16.85,16.85,0,0,1-2,.1,15.57,15.57,0,0,1-4-.61,14.95,14.95,0,0,1-10.31-11.29l-1.53-7.39L42.49,263.92q-15-72.6-30-145.18C9.7,105.52,6.87,92.31,4.16,78.87Z"/>
        </g>
        <g>
          <rect class="cls-1" x="-2.11" y="54.6" width="303.85" height="237.04" rx="13.97" transform="translate(-39.69 301.59) rotate(-83.26)"/>
          <path class="cls-2" d="M45,41.08l1.24-10.65.62-5.33.3-2.67a17.57,17.57,0,0,1,.56-2.8A15.06,15.06,0,0,1,60.16,8.92a20.9,20.9,0,0,1,5.62.18L227,28.18l8.21.92-.24,0L259.38,32l12.18,1.45a15.21,15.21,0,0,1,10.9,6.76,15.05,15.05,0,0,1,2.29,6.16l.1.82,0,.83a11.37,11.37,0,0,1-.05,1.65c-.07,1.1-.23,2.06-.34,3.09L283.05,64.9l-2.88,24.37q-13.29,112.8-26.82,225.39c-.36,2.94-.74,6.35-1.22,9.9a14.52,14.52,0,0,1-5.38,9.28,14.88,14.88,0,0,1-4.12,2.28,14,14,0,0,1-3.67.74,10.19,10.19,0,0,1-2.41-.13c-.55-.11-.81-.2-.75-.28a1.54,1.54,0,0,1,.78-.2c.45,0,1.08-.11,1.88-.21.4-.06.83-.18,1.31-.27s1-.27,1.51-.44a15.79,15.79,0,0,0,3.42-1.74,13.75,13.75,0,0,0,5.56-8.27c.08-.48.15-1,.23-1.48s.12-1.07.18-1.62c.12-1.1.25-2.23.38-3.39q.4-3.49.86-7.33c5.91-49.48,11.94-99.2,17.64-148.45q6.31-54,12.64-108l.39-3.37.2-1.69c0-.53.09-1,.1-1.59a13.23,13.23,0,0,0-1.5-6.1,13.4,13.4,0,0,0-4.18-4.7,13.54,13.54,0,0,0-5.89-2.21l-27-3.18-54-6.37L93.44,14.42,69.21,11.56c-2-.23-4.07-.51-6-.69a13,13,0,0,0-13.31,8.65c-.18.44-.27.91-.41,1.36s-.16.94-.25,1.41l-.36,3-.71,6.06L46.72,43.48,43.87,67.71Q33.21,158.76,22.55,249.76L17.88,289l-.58,4.91L17,296.38l-.08,1.13c0,.38,0,.76,0,1.14a13,13,0,0,0,3.59,8.18,13.11,13.11,0,0,0,8.08,3.9l9.81,1.18L117,321.33c12.33,1.47,25.44,3.05,37.12,4.17l-.2,0c14.18,2,30.91,3.38,44.66,5.46h0L213,332.67c21.52,2.43,27.18,3.34,19.89,3.26-1.6,0,.21.43-5-.07l-.39-.06.15,0c-14.64-1.2-32.58-3.58-48.88-5.49l-120-14.12-30-3.54c-.61-.06-1.28-.18-1.94-.29a18.4,18.4,0,0,1-1.93-.54A15.77,15.77,0,0,1,21.28,310a15,15,0,0,1-5-6.13,14.74,14.74,0,0,1-1.19-7.83l.88-7.5,7.07-60q8.65-73.63,17.32-147.24c1.56-13.42,3-26.85,4.71-40.46Z"/>
        </g>
        <g>
          <rect class="cls-1" x="29.49" y="21.2" width="237.04" height="303.85" rx="13.97" transform="translate(-10.46 9.52) rotate(-3.56)"/>
          <path class="cls-2" d="M21.3,61.94l-.69-10.71-.34-5.35L20.1,43.2a16.13,16.13,0,0,1,0-2.86,15.06,15.06,0,0,1,5.29-10,14.89,14.89,0,0,1,5-2.79A20.85,20.85,0,0,1,36,26.75l162.06-10,8.25-.57h-.24l24.49-1.51,12.25-.76a15.22,15.22,0,0,1,11.93,4.71,15,15,0,0,1,3.35,5.65l.25.79.18.81a11.4,11.4,0,0,1,.25,1.64c.12,1.09.14,2.06.22,3.09l.76,12.25,1.52,24.5q7.08,113.36,13.89,226.55c.16,3,.4,6.38.56,10a14.53,14.53,0,0,1-3.63,10.1,15,15,0,0,1-3.65,3,13.56,13.56,0,0,1-3.47,1.38,10.26,10.26,0,0,1-2.41.31c-.55,0-.83-.05-.78-.14a1.57,1.57,0,0,1,.73-.34c.44-.1,1.05-.3,1.81-.55.39-.12.79-.31,1.25-.49s.9-.44,1.41-.7a16.19,16.19,0,0,0,3.05-2.33,13.72,13.72,0,0,0,4-9.13c0-.49,0-1,0-1.49s-.07-1.08-.11-1.63c-.08-1.11-.15-2.24-.23-3.41-.15-2.33-.31-4.79-.47-7.36-3-49.74-6-99.74-9.17-149.21q-3.43-54.28-6.86-108.51L257,29.92l-.11-1.69c-.06-.54-.1-1.06-.19-1.59A13.1,13.1,0,0,0,249.13,17a13.55,13.55,0,0,0-6.19-1.12L215.83,17.6,161.6,21,64.19,27.05,39.83,28.56c-2,.14-4.09.23-6,.41A13,13,0,0,0,22.23,39.85c-.09.47-.09.95-.15,1.42s0,.95,0,1.42l.19,3,.38,6.09L23.41,64l1.53,24.35L36.49,271.27l2.43,39.46.3,4.94.15,2.46.12,1.13c0,.38.16.75.23,1.12a12.91,12.91,0,0,0,13.64,9.79l9.86-.59,78.95-4.77c12.39-.75,25.58-1.53,37.27-2.52h-.2c14.3-.58,31-2.19,44.91-2.6h0l14.5-.87c21.61-1.46,27.34-1.57,20.15-.34-1.58.26.29.37-4.95.82h-.24c-14.61,1.43-32.69,2.31-49.07,3.34L84,330.2,53.8,332.08c-.61.05-1.3.05-2,.06a16.71,16.71,0,0,1-2-.19A15.68,15.68,0,0,1,46,330.79a14.94,14.94,0,0,1-8.62-12.63l-.47-7.54-3.77-60.3q-4.63-74-9.27-148c-.86-13.48-1.8-27-2.6-40.65Z"/>
        </g>
        <g>
          <rect class="cls-1" x="-3.92" y="54.6" width="303.85" height="237.04" rx="13.97" transform="matrix(0.03, -1, 1, 0.03, -29.8, 315.47)"/>
          <path class="cls-2" d="M32.33,50.5l.33-10.73.16-5.36.08-2.68a18.54,18.54,0,0,1,.31-2.84A15.09,15.09,0,0,1,44.69,17.16a20.74,20.74,0,0,1,5.62-.3l162.28,5.27,8.27.21h-.25l24.53.8,12.27.4a15,15,0,0,1,14.24,11.76l.17.81.1.82a11.34,11.34,0,0,1,.1,1.65c0,1.1-.06,2.06-.08,3.1l-.4,12.27-.79,24.53Q267.12,192,263.24,305.32c-.12,3-.2,6.39-.38,10a14.56,14.56,0,0,1-4.56,9.7,14.79,14.79,0,0,1-3.92,2.61,13.61,13.61,0,0,1-3.59,1.06,9.78,9.78,0,0,1-2.42.07c-.55-.05-.82-.12-.77-.21s.32-.18.76-.26,1.07-.21,1.86-.38c.39-.09.81-.24,1.28-.37s.95-.36,1.47-.57a16.36,16.36,0,0,0,3.26-2,13.73,13.73,0,0,0,4.83-8.71c0-.49.08-1,.11-1.49s0-1.09,0-1.64c0-1.1.06-2.24.09-3.41q.1-3.51.23-7.37c1.67-49.81,3.44-99.86,4.92-149.41q1.69-54.37,3.39-108.68l.11-3.39.06-1.7c0-.54,0-1.06-.05-1.59a13.06,13.06,0,0,0-12.63-12l-27.16-.88-54.3-1.75L78.32,19.8,53.93,19c-2-.06-4.1-.16-6.06-.17A13,13,0,0,0,35.35,28.6c-.14.45-.19.93-.29,1.39s-.08,1-.13,1.42l-.1,3.05-.19,6.09-.39,12.19-.78,24.39q-2.87,91.62-5.73,183.2l-1.3,39.51-.17,4.94-.08,2.47,0,1.14c0,.38.08.75.12,1.13a13,13,0,0,0,4.27,7.85A13.14,13.14,0,0,0,39,320.56l9.88.34,79.05,2.69c12.41.41,25.61.88,37.34,1l-.2,0c14.29.77,31.08.74,45,1.64h0l14.52.5c21.65.59,27.37,1,20.1,1.56-1.6.12.24.4-5,.35l-.39,0,.15,0c-14.68.05-32.77-.79-49.17-1.3L69.44,323.46l-30.19-1c-.62,0-1.3-.08-2-.13a14.58,14.58,0,0,1-2-.38,15.55,15.55,0,0,1-3.71-1.51,15,15,0,0,1-5.54-5.68,14.88,14.88,0,0,1-1.85-7.7l.24-7.55,1.93-60.39Q28.75,165,31.1,91c.41-13.5.74-27,1.24-40.71Z"/>
          <g>
            <path class="cls-2" d="M85.16,128.68c0-1.05,0-2.1,0-3.15.13-4,.28-7.94.42-11.91a4.26,4.26,0,0,0,0-.61v0c.09-2.4.19-4.8.26-7.2.16-5.55.34-11.11.73-16.64.06-.86.11-2.34.79-2.29s1.09,1.06,1,2.57c-.18,3.65-.46,7.32-.46,11,0,5.32-.26,10.63-.39,15.95-.12,4.77-.31,9.54-.43,14.31-.11,4.49-.1,9-.25,13.45-.13,3.87-.43,7.73-.62,11.6a9.27,9.27,0,0,0,.12,2.74h0c-.34,1,.19,2.29-.3,3.29h0a9.73,9.73,0,0,0-.06,1.07c.06,1.59-.2,2-1,1.45-.16-.13-.39,0-.49-.39v0h0c-.49-1.09-.2-2.41-.17-3.61.14-5.91.32-11.82.49-17.73.1-3.63.25-7.26.27-10.88,0-1-.06-2,0-3Z"/>
            <text class="cls-3" transform="matrix(0.7, -0.71, 0.71, 0.7, 42.46, 56.54)">v</text>
            <text class="cls-3" transform="translate(45.94 52.94) rotate(-15.11)">v</text>
            <path class="cls-2" d="M213.8,121.06c0,1.18,0,2.37-.05,3.56l-.48,13.46a5.32,5.32,0,0,0,0,.69v0l-.29,8.14c-.18,6.28-.38,12.56-.8,18.81-.07,1-.12,2.64-.8,2.59s-1.08-1.19-1-2.89c.2-4.13.49-8.28.51-12.39,0-6,.3-12,.46-18l.48-16.18c.13-5.07.14-10.14.31-15.2l.14-3.28A32.19,32.19,0,0,1,212.6,97a23.68,23.68,0,0,0,.38-6.27,2.84,2.84,0,0,0-1.18-2.21v0c-.42-.94-2-1.34-2.59-2.42h0c-.31-.26-.6-.55-.92-.77-1.49-1-1.71-1.51-.76-1.74.21-.06.23-.33.64-.15l0,0v0c1.28.34,2.3,1.47,3.38,2.3a11,11,0,0,1,2,1.85,6.53,6.53,0,0,1,1.1,2.64,18.85,18.85,0,0,1,0,5.25L214.42,98c0,.41-.07.8-.08,1.19l0,1.26-.14,5c-.12,4.09-.28,8.2-.32,12.29,0,1.12,0,2.24-.05,3.38Z"/>
            <path class="cls-2" d="M152.83,178.13c-1.83,0-3.66,0-5.48-.11l-20.73-.71c-.35,0-.71,0-1.06,0h0l-12.53-.43c-2.41-.07-4.86-.18-7.23-.21s-4.82.05-7.29-.08a25.31,25.31,0,0,1-7.42-1.31,11.3,11.3,0,0,1-3.43-1.92c-.25-.23-.52-.43-.75-.67l-.66-.76a9.29,9.29,0,0,1-1.08-1.64,8.06,8.06,0,0,1-.93-2.67c-.12-.91,0-1.6.37-1.58.74,0,1.08,1.61,2.31,3.66a8.11,8.11,0,0,0,3,3,13.67,13.67,0,0,0,4.23,1.51,42.73,42.73,0,0,0,9.35.52c2.32-.07,4.68,0,7,0l6.94.2,13.87.45,24.93.76c7.8.22,15.6.32,23.4.58,3.37.11,6.73.26,10.09.42s6.77.69,10.07.74a11.75,11.75,0,0,0,4.52-.54h0a4.88,4.88,0,0,0,2.44-.77,19.84,19.84,0,0,0,1.82-1.5h0a7.36,7.36,0,0,0,.84-1.47,13.64,13.64,0,0,1,1-2.39c.26-.34.49-.22.72.34.1.24.39.08.29.76l0,.05,0,0a7.08,7.08,0,0,1-1,3.08,7.57,7.57,0,0,1-1,1.45l-.7.63a5.85,5.85,0,0,1-.74.52,10.66,10.66,0,0,1-3.94,1.34,24.34,24.34,0,0,1-4,.26c-2.63,0-5.22-.28-7.75-.46-5.08-.22-10.27-.33-15.4-.5-6.31-.19-12.63-.42-18.93-.53-1.72,0-3.45,0-5.2-.1Z"/>
            <path class="cls-2" d="M146.55,84.39c1.43,0,2.87,0,4.3.07,5.43.18,10.85.38,16.28.57.27,0,.55,0,.83,0h0c3.28.12,6.56.25,9.84.35,7.59.22,15.18.47,22.75.93,1.18.07,3.19.14,3.13.81s-1.43,1.08-3.49,1c-5-.22-10-.55-15-.58-7.28-.06-14.53-.39-21.79-.59-6.53-.17-13-.42-19.57-.59-6.13-.16-12.25-.21-18.38-.41-5.28-.18-10.56-.52-15.84-.76a17.32,17.32,0,0,0-3.75.09h0c-1.43-.36-3.13.16-4.51-.34h0c-.48,0-1-.09-1.45-.08-2.18,0-2.74-.21-2-1,.16-.16,0-.39.51-.49h0c1.49-.48,3.29-.17,4.94-.12,8.07.2,16.15.46,24.22.69,5,.15,9.92.34,14.87.41,1.35,0,2.71,0,4.08.06Z"/>
            <path class="cls-2" d="M150.57,169c1.35,0,2.69,0,4,.06l15.24.54a6.79,6.79,0,0,0,.78,0h0l9.21.32,10.66.36,2.66.1h.44a.39.39,0,0,1,.27-.14,2.05,2.05,0,0,1,.28,0l.37,0c.94,0,1.82,0,2.71,0a11.13,11.13,0,0,0,2.37,0,1.25,1.25,0,0,0,.76-.63c.16-.25.17-.55.45-.74a.51.51,0,0,1,.54,0,1.1,1.1,0,0,1,.43.82,2,2,0,0,1-.41,1.38,2.61,2.61,0,0,1-1.57,1,9.46,9.46,0,0,1-1.94.08l-1.75,0c-.57,0-1.17,0-1.71,0h-.16a2,2,0,0,0-.07-.3l0-.17,0-.08,0,0c.37,1.15.11.33.2.59l.11.14h.11A1.08,1.08,0,0,0,195,172s.09-.05.07,0L195,172a1.24,1.24,0,0,1-.29.1,3.27,3.27,0,0,1-.71,0l-3.71-.13c-1.17,0-2.34-.07-3.5-.07-6.82,0-13.61-.36-20.41-.54L148,170.88c-5.74-.15-11.47-.18-17.21-.37-5-.16-9.89-.5-14.84-.72a15.2,15.2,0,0,0-3.51.09h0c-1.34-.35-2.93.17-4.22-.32h0c-.46,0-.92-.09-1.36-.08-2,0-2.57-.21-1.86-1,.15-.16,0-.39.48-.49h0c1.4-.48,3.09-.17,4.63-.14l22.69.65c4.64.14,9.28.32,13.92.38,1.27,0,2.54,0,3.82.05Z"/>
            <path class="cls-2" d="M177.73,109.16c.64,0,1.27,0,1.9,0l7.17.28a2.35,2.35,0,0,0,.37-.05h0c1.44.05,2.89.12,4.33.16,3.35.09,6.7.2,10,.52.52,0,1.4.08,1.36.76s-.65,1.1-1.55,1c-2.2-.13-4.41-.37-6.6-.31-3.21.07-6.41-.13-9.61-.19-2.88-.06-5.75-.19-8.63-.25-2.7,0-5.4,0-8.1-.07-2.33-.09-4.65-.34-7-.47a3.3,3.3,0,0,0-1.65.15h0c-.62-.33-1.38.22-2-.25h0a3.47,3.47,0,0,0-.64-.06c-1,.09-1.2-.17-.86-.93.08-.17,0-.4.24-.5h0c.66-.51,1.46-.23,2.18-.22,3.56.06,7.12.17,10.68.26,2.18.06,4.37.16,6.55.14a12,12,0,0,1,1.8,0Z"/>
            <path class="cls-2" d="M117.34,107.21c.6,0,1.2,0,1.8,0l6.8.26a2,2,0,0,0,.35,0h0c1.37.06,2.74.13,4.12.16,3.17.08,6.35.19,9.51.5.49.05,1.33.08,1.29.76s-.62,1.1-1.48,1c-2.08-.13-4.18-.37-6.26-.31-3.05.08-6.08-.11-9.12-.17-2.73-.06-5.45-.18-8.18-.23-2.57,0-5.13,0-7.69-.07-2.21-.07-4.42-.32-6.62-.46a3.16,3.16,0,0,0-1.58.16h0c-.59-.33-1.31.23-1.88-.25h0a3.14,3.14,0,0,0-.61,0c-.91.08-1.14-.17-.81-.93.07-.17,0-.4.22-.51h0c.64-.5,1.39-.23,2.07-.21,3.38,0,6.76.15,10.14.24,2.07.05,4.14.15,6.22.12a12.18,12.18,0,0,1,1.71,0Z"/>
            <path class="cls-2" d="M145.81,114.45c1.44,0,2.89,0,4.33.08,5.45.18,10.9.38,16.35.57.28,0,.56,0,.83,0h0c3.3.12,6.59.25,9.89.35,7.62.22,15.25.47,22.85.93,1.19.07,3.21.14,3.15.82s-1.43,1.07-3.51,1c-5-.23-10.05-.55-15.05-.59-7.31-.06-14.6-.39-21.9-.59-6.55-.18-13.11-.43-19.66-.6-6.15-.16-12.31-.21-18.46-.41-5.31-.18-10.62-.52-15.93-.76a17.52,17.52,0,0,0-3.77.09h0c-1.44-.36-3.14.16-4.53-.34h0c-.49,0-1-.09-1.46-.08-2.19,0-2.76-.22-2-1,.17-.17,0-.39.52-.49h0c1.5-.48,3.31-.17,5-.13,8.11.21,16.22.47,24.34.71,5,.14,10,.33,14.93.4,1.36,0,2.73,0,4.11.07Z"/>
            <path class="cls-2" d="M204.58,99.83c0,.23,0,.46,0,.69,0,.86-.08,1.72-.12,2.58a.43.43,0,0,0,.05.13h0c0,.52-.07,1-.08,1.56a18.89,18.89,0,0,1-.31,3.6c0,.19-.06.51-.74.48s-1.11-.26-1.07-.58a10,10,0,0,0,.18-2.37,28.54,28.54,0,0,1,0-3.46c0-1,.07-2.07.07-3.1s-.13-1.95-.09-2.92.23-1.67.32-2.5c0-.2.07-.41-.18-.6h0c.31-.22-.25-.5.21-.71,0-.08.06-.15,0-.23-.1-.35.14-.43.91-.29.17,0,.4,0,.51.1h0c.52.25.26.53.26.79,0,1.28,0,2.56,0,3.84a23.22,23.22,0,0,0,0,2.36,1.77,1.77,0,0,1,.05.65Z"/>
            <path class="cls-2" d="M96.68,96.49a5.34,5.34,0,0,1,0,.69c0,.88-.09,1.75-.13,2.63a.35.35,0,0,0,.05.13h0c0,.53-.07,1.06-.08,1.58a18.9,18.9,0,0,1-.32,3.67c0,.19-.05.51-.73.48s-1.11-.26-1.07-.59a10.31,10.31,0,0,0,.18-2.41,27.56,27.56,0,0,1,0-3.52c0-1.05.07-2.1.06-3.15s-.12-2-.09-3,.24-1.7.33-2.55a.56.56,0,0,0-.19-.61h0c.32-.22-.25-.51.22-.72h0c0-.08.06-.16,0-.23-.11-.36.14-.44.91-.3.17,0,.4,0,.51.1h0c.52.26.26.54.26.81,0,1.3,0,2.6,0,3.9,0,.8-.07,1.6,0,2.4a1.64,1.64,0,0,1,.05.66Z"/>
            <path class="cls-2" d="M203.25,140.88c0,.63,0,1.27,0,1.91-.08,2.4-.18,4.81-.27,7.22a2.2,2.2,0,0,0,0,.36h0c-.06,1.46-.13,2.91-.17,4.37-.09,3.37-.2,6.73-.52,10.08-.05.53-.08,1.42-.76,1.38s-1.1-.65-1-1.57c.13-2.21.37-4.43.32-6.64-.08-3.23.12-6.45.19-9.67.06-2.89.19-5.78.24-8.68.05-2.72,0-5.44.08-8.15.08-2.35.33-4.68.47-7a3.35,3.35,0,0,0-.15-1.66h0c.33-.62-.22-1.39.25-2h0a3.47,3.47,0,0,0,.06-.64c-.09-1,.17-1.22.93-.87.17.08.4,0,.51.24l0,0h0c.51.67.23,1.46.22,2.19-.06,3.59-.17,7.17-.27,10.75-.05,2.2-.15,4.4-.13,6.6a13.66,13.66,0,0,1,0,1.81Z"/>
            <path class="cls-2" d="M95.15,143.86c0,.83,0,1.65,0,2.48l-.34,9.37a3.88,3.88,0,0,0,0,.48v0l-.21,5.67,0,1.64c0,.63-.1,1.18-.15,1.69a4,4,0,0,0,0,1.24.66.66,0,0,0,.41.52,3.14,3.14,0,0,0,1.19.26l1.63.09,3.24.23c.68.05,1.83.09,1.79.77s-.84,1.09-2,1L96.35,169a5.62,5.62,0,0,1-2.4-.5,2.75,2.75,0,0,1-1.08-1.06,3.65,3.65,0,0,1-.37-1.34c.12-4.22.25-8.41.38-12.61l.32-11.27c.08-3.53,0-7.06.16-10.58.11-3,.38-6.08.54-9.12a5.59,5.59,0,0,0-.14-2.16h0c.34-.82-.21-1.8.28-2.59h0a8.1,8.1,0,0,0,.06-.84c-.08-1.25.18-1.57.94-1.13.17.1.39,0,.5.3v0h0c.5.86.21,1.9.19,2.84l-.37,14c-.07,2.86-.19,5.71-.19,8.56a23,23,0,0,1,0,2.35Z"/>
            <path class="cls-2" d="M112.36,105.26a1,1,0,0,1-.06-.25c0-.31,0-.62.07-.94l-.05,0h0a5.48,5.48,0,0,0,0-.57,2.57,2.57,0,0,1,.24-1.31c0-.06,0-.18.72-.15s1.11.11,1.08.23c-.07.29-.24.57-.13.86a3.65,3.65,0,0,1,.08,1.27c0,.38,0,.75,0,1.13s.16.72.15,1.07a5,5,0,0,1-.28.91c0,.07,0,.15.2.22h0c-.31.08.26.19-.19.26h0s0,0,0,.08-.14.16-.91.09a3.52,3.52,0,0,1-.51,0h0c-.52-.1-.27-.2-.27-.29,0-.47,0-.94,0-1.41a3.58,3.58,0,0,0,0-.86c0-.08-.12-.16-.06-.24Z"/>
            <path class="cls-2" d="M121.18,104.81a1.57,1.57,0,0,1,.06.28c0,.33,0,.67-.08,1,0,0,0,0,.06.05h0c0,.2,0,.41,0,.61a3,3,0,0,1-.25,1.42c0,.07,0,.19-.72.17s-1.11-.12-1.08-.25c.07-.31.25-.62.13-.93a4.46,4.46,0,0,1-.07-1.36c0-.41,0-.82,0-1.23a11.27,11.27,0,0,1-.14-1.15,6,6,0,0,1,.27-1c0-.07.06-.16-.2-.24h0c.31-.08-.26-.2.2-.27h0s.06-.06,0-.09.13-.17.91-.1a3.52,3.52,0,0,1,.51,0h0c.53.11.27.22.28.32,0,.5,0,1,0,1.51a4.15,4.15,0,0,0,.05.93c0,.08.12.17.06.26Z"/>
            <path class="cls-2" d="M128.88,94.34l-.14-.15c-1.5-1.26-2.8-2.76-4.37-3.94a8.42,8.42,0,0,0-2.59-1.58,9.87,9.87,0,0,0-2.62-.38L114.87,88a11.74,11.74,0,0,0-3.46.16,9.77,9.77,0,0,0-2.78,1.38c-1.73,1.12-3.41,2.31-5.12,3.45-.66.44,3,2.85,3.24,3l4.91,3.35a5.38,5.38,0,0,0,1.29.71,6.06,6.06,0,0,0,1.81.18H119a7.06,7.06,0,0,0,1.38-.09,6.19,6.19,0,0,0,1.57-.65l4.17-2.23a19.83,19.83,0,0,0,2.13-1.16C128.73,95.79,129.31,95,128.88,94.34Z"/>
            <path class="cls-2" d="M126.48,132.69l-6.59,4.25a3.9,3.9,0,0,1-.93.48,4.29,4.29,0,0,1-1.24.12h-3.1a8.87,8.87,0,0,1-2.36-.21,7.42,7.42,0,0,1-1.36-.58,36.58,36.58,0,0,1-6.26-4.07l-1.36-1a36.75,36.75,0,0,1,6.46-5.27,7.14,7.14,0,0,1,2-1,8.7,8.7,0,0,1,2.45-.14l3.9.14a5.62,5.62,0,0,1,1.84.27,4.76,4.76,0,0,1,1.12.69l6.8,5.14Z"/>
            <path class="cls-2" d="M139.58,100l4.28-2.5a12.22,12.22,0,0,1,1.56-.85,5.22,5.22,0,0,1,1.43-.12H149a12.47,12.47,0,0,1,3.11.21,8.18,8.18,0,0,1,1.36.58,37.19,37.19,0,0,1,6.26,4.07l.41.31a1,1,0,0,1,.13,1.51,37.1,37.1,0,0,1-5.64,4.45,6.88,6.88,0,0,1-2,1,8.7,8.7,0,0,1-2.45.14l-3.9-.13a5.62,5.62,0,0,1-1.84-.28,4.72,4.72,0,0,1-1.12-.68l-6.37-4.82a.42.42,0,0,1,0-.67Z"/>
            <path class="cls-2" d="M103,144.59l7.53-4.82a3.17,3.17,0,0,1,.86-.44,3.94,3.94,0,0,1,1.14-.08l4.12.13a7.12,7.12,0,0,1,2.32.34,5.65,5.65,0,0,1,1.08.6l6.16,4c.26.16.53.35.59.61.12.47-.48.82-1,1.05a24,24,0,0,0-5.75,3.75,2.29,2.29,0,0,1-.79.53,2.61,2.61,0,0,1-.93.11h-4.75a11.93,11.93,0,0,1-2.54-.18,10.3,10.3,0,0,1-3.28-1.59l-4.61-3Z"/>
            <path class="cls-2" d="M126.38,159.86c-1.57,2-4.26,3.2-6.83,4.31a5.81,5.81,0,0,1-1.37.46,6.19,6.19,0,0,1-1.49,0l-4.76-.34a3.12,3.12,0,0,1-1.06-.2,3.24,3.24,0,0,1-1-.94c-1.33-1.46-3.6-2.11-5.31-3.26-.47-.32-.93-.73-1-1.22s.56-1.06,1.1-1.45l5.22-3.74.55-.67a54,54,0,0,1,5.55-.31,7.23,7.23,0,0,1,2.37.25,6.83,6.83,0,0,1,1.66.91l7.28,4.93Z"/>
            <path class="cls-2" d="M113.67,120.1a1.26,1.26,0,0,1,0,.27l-.12,1s0,0,0,.06h0c0,.2-.07.41-.08.61a3,3,0,0,1-.31,1.42c0,.07,0,.2-.73.16s-1.11-.16-1.07-.29c.09-.31.28-.62.18-.94a4.38,4.38,0,0,1,0-1.4c0-.42.07-.83.06-1.25a11.89,11.89,0,0,1-.08-1.19,6.22,6.22,0,0,1,.32-1c0-.08.07-.16-.18-.26h0c.31-.06-.25-.23.21-.27h0s.06-.06,0-.09.15-.16.91,0a4.6,4.6,0,0,1,.51.08h0c.51.15.25.24.25.34,0,.52,0,1,0,1.54a3.7,3.7,0,0,0,0,.94c0,.08.11.18,0,.26Z"/>
            <path class="cls-2" d="M120.58,120.24a.92.92,0,0,1,0,.28c0,.34-.07.68-.1,1,0,0,0,0,0,0h0c0,.21-.06.42-.07.62a3,3,0,0,1-.29,1.43c0,.07,0,.2-.72.16s-1.11-.16-1.08-.29c.08-.31.27-.62.17-.94a4.33,4.33,0,0,1,0-1.39c0-.42.06-.83,0-1.24a9.44,9.44,0,0,1-.12-1.18,7.4,7.4,0,0,1,.31-1c0-.08.06-.16-.19-.25h0c.32-.07-.25-.22.21-.28h0s.06-.06,0-.09.14-.16.91-.07a2.42,2.42,0,0,1,.51.07h0c.51.12.25.22.26.33,0,.51,0,1,0,1.54a3.7,3.7,0,0,0,0,.94c0,.09.12.18,0,.26Z"/>
            <path class="cls-2" d="M145,121.11a1.26,1.26,0,0,1,0,.27l-.13,1s0,0,.06.06h0a6.17,6.17,0,0,0-.08.62,3.1,3.1,0,0,1-.31,1.41c0,.07-.06.2-.73.16s-1.11-.16-1.07-.29c.09-.31.28-.62.18-.94a4.7,4.7,0,0,1,0-1.4c0-.42.08-.83.07-1.25a11.89,11.89,0,0,1-.08-1.19,6.22,6.22,0,0,1,.32-1c0-.08.07-.16-.18-.26h0c.31-.06-.25-.23.21-.27,0,0,.06-.06,0-.09s.14-.16.91,0a5,5,0,0,1,.51.08h0c.51.15.25.24.25.34,0,.52,0,1,0,1.54a3.7,3.7,0,0,0,0,.94c0,.08.11.18,0,.26Z"/>
            <path class="cls-2" d="M151.9,121.25a1,1,0,0,1,0,.28c0,.34-.07.68-.1,1l.05,0h0a4.53,4.53,0,0,0-.07.62,3,3,0,0,1-.29,1.43c0,.07-.05.2-.73.16s-1.1-.16-1.07-.29c.08-.31.27-.62.16-.94a4.64,4.64,0,0,1,0-1.39c0-.41.06-.83,0-1.24a11.76,11.76,0,0,1-.11-1.18,7.4,7.4,0,0,1,.31-1c0-.08.06-.16-.19-.25h0c.31-.07-.25-.22.21-.28h0s.06-.06,0-.09.15-.16.92-.07a3,3,0,0,1,.5.07h0c.52.12.26.22.27.33,0,.51,0,1,0,1.54a4.24,4.24,0,0,0,0,.94c0,.09.12.18.05.26Z"/>
            <path class="cls-2" d="M181.08,164.71a1.75,1.75,0,0,1,0-.32l.13-1.17s0,0,0-.07h0c0-.24.07-.48.08-.71a3.93,3.93,0,0,1,.32-1.64c0-.09,0-.23.73-.19s1.11.16,1.07.31a2.27,2.27,0,0,0-.19,1.08,5.72,5.72,0,0,1,0,1.6c0,.48-.07.95-.07,1.43s.12.91.08,1.36a9.78,9.78,0,0,1-.33,1.14c0,.09-.07.18.18.29h0c-.31.08.25.25-.21.31h0s-.06.07,0,.1-.15.19-.92.08a4.39,4.39,0,0,1-.5-.08h0c-.52-.16-.26-.27-.26-.39,0-.59,0-1.17.05-1.76a4.88,4.88,0,0,0,0-1.08c0-.1-.11-.21,0-.3Z"/>
            <path class="cls-2" d="M174.17,164.58a1.12,1.12,0,0,1,0-.31c0-.4.07-.79.11-1.19,0,0,0,0,0-.06h0c0-.24.06-.47.07-.71a4,4,0,0,1,.29-1.65c0-.08.05-.23.73-.18s1.11.16,1.08.31a2.18,2.18,0,0,0-.17,1.09,5.65,5.65,0,0,1,0,1.59c0,.47-.06.95,0,1.42s.13.91.1,1.35a9.15,9.15,0,0,1-.31,1.14c0,.09-.06.18.19.29h0c-.32.09.25.25-.21.32h0s-.06.07,0,.11-.14.19-.91.09a2.32,2.32,0,0,1-.51-.07h0c-.52-.14-.26-.25-.26-.37,0-.59,0-1.18,0-1.77a5,5,0,0,0,0-1.09c0-.1-.12-.2-.05-.3Z"/>
            <path class="cls-2" d="M146.74,91.88a1.31,1.31,0,0,1,.06.27c0,.34,0,.68-.05,1l.06,0h0c0,.2,0,.41,0,.62a3.08,3.08,0,0,1-.21,1.43c0,.07,0,.2-.72.19s-1.12-.1-1.09-.23a1.62,1.62,0,0,0,.11-.94,4.6,4.6,0,0,1-.1-1.38c0-.41,0-.82,0-1.23a9.31,9.31,0,0,1-.18-1.16,6.41,6.41,0,0,1,.26-1c0-.07,0-.16-.21-.23h0c.31-.09-.27-.2.19-.28h0s.06-.07,0-.1.13-.17.91-.11a3.78,3.78,0,0,1,.51,0h0c.52.1.27.21.28.32.05.51.05,1,.07,1.53a3.64,3.64,0,0,0,.06.93c0,.09.13.17.07.26Z"/>
            <path class="cls-2" d="M153.29,92.13a1.22,1.22,0,0,1,.06.26c0,.31,0,.63-.07,1,0,0,0,0,.05,0h0a5.44,5.44,0,0,0-.05.58,2.62,2.62,0,0,1-.24,1.33c0,.07,0,.18-.72.16s-1.12-.12-1.09-.24c.08-.29.25-.58.14-.88a3.69,3.69,0,0,1-.08-1.28c0-.38,0-.77,0-1.15a10.37,10.37,0,0,1-.15-1.08,5.48,5.48,0,0,1,.28-.93c0-.07,0-.15-.2-.22h0c.31-.08-.26-.2.19-.26,0,0,.06-.06,0-.09s.14-.15.91-.09a3.52,3.52,0,0,1,.51.05h0c.52.1.27.2.27.3,0,.48,0,1,0,1.43a3.64,3.64,0,0,0,0,.87c0,.08.12.16.06.24Z"/>
            <path class="cls-2" d="M134.8,132.12a13.46,13.46,0,0,0,4.48-2.78,8.63,8.63,0,0,1,2.85-2.25,8.43,8.43,0,0,1,3-.3l4.61.1a6.7,6.7,0,0,1,1.42.13,6,6,0,0,1,1.43.66l6.46,3.73c.42.24.89.58.8,1a1.07,1.07,0,0,1-.34.49l-5.2,5a3,3,0,0,1-1.17.83,4.35,4.35,0,0,1-1.26.14h-4.28a11.78,11.78,0,0,1-2.22-.14,10.34,10.34,0,0,1-2.67-1.06l-7-3.58Z"/>
            <path class="cls-2" d="M144.25,140.57c2.47.32,5.14-.27,7.41.6a12,12,0,0,1,1.48.73l2.15,1.22a17.6,17.6,0,0,1,3.38,2.29,1,1,0,0,1,.4.75c0,.28-.33.49-.6.66L152,151.1l-1.16,1.14L144.2,152a3.61,3.61,0,0,1-1.19-.18,2.9,2.9,0,0,1-.74-.44l-6.72-5c-.42-.31-.87-.69-.81-1.13a1.31,1.31,0,0,1,.48-.7,20.67,20.67,0,0,1,7.29-4.35Z"/>
            <path class="cls-2" d="M140.09,155.1a24.42,24.42,0,0,1-4.76,3.79c-.3.19-.63.4-.73.7-.17.51.39,1,.9,1.32l5.26,3.55,2.15,1.33,6.9.16a8.43,8.43,0,0,0,3.22-.33,6.67,6.67,0,0,0,2.2-1.6l3.11-3c.26-.26.55-.59.4-.91a1,1,0,0,0-.32-.34l-3-2.35a17.13,17.13,0,0,0-3.46-2.28c-2.79-1.26-6.15-1.14-9.31-1Z"/>
            <path class="cls-2" d="M185.4,155.83l5.32-4.58a.6.6,0,0,0,.17-.19c.08-.18,0-.37-.18-.52-1.72-2-4.67-2.9-7-4.35a5,5,0,0,0-1.33-.67,4.85,4.85,0,0,0-1.14-.12l-4.73-.13-1.8,0a20,20,0,0,0-8.41,5.92.78.78,0,0,0-.24.51c0,.28.33.48.61.64l6.67,3.79a5.28,5.28,0,0,0,1.23.56,6,6,0,0,0,1.12.13l7.51.41Z"/>
            <path class="cls-2" d="M183.3,143.27c-3.2.2-6.61.35-9.45-.91a17.13,17.13,0,0,1-2.86-1.73c-1.26-.88-4.64-1.93-4.15-3.67.57-2,5.06-3.12,6.85-4.26a4.57,4.57,0,0,1,1.39-.66,5.17,5.17,0,0,1,1.42-.06l4.22.22a6.48,6.48,0,0,1,1.59.21,5.86,5.86,0,0,1,1.48.74l6.23,3.92c.35.22.74.54.61.88a1,1,0,0,1-.48.43,20.18,20.18,0,0,0-5.4,4.4Z"/>
            <path class="cls-2" d="M182,119.4l-7.6-.25a2.64,2.64,0,0,0-1.09.12,2,2,0,0,0-.78.73,16.64,16.64,0,0,1-4.8,4.26c-.17.1-.36.25-.28.41a.38.38,0,0,0,.18.15l7.56,4.37a4.31,4.31,0,0,0,.84.4,4.81,4.81,0,0,0,1.32.12l3.91,0,2.2.16c1-.74,2.42-.93,3.45-1.61a9.37,9.37,0,0,0,1.08-.9,11.08,11.08,0,0,1,3.11-2c.37-.16.81-.35.9-.69s-.27-.74-.63-1a76.94,76.94,0,0,0-6.48-4.51Z"/>
            <path class="cls-2" d="M178.07,105.14a1.54,1.54,0,0,1,0,.3l-.08,1.12s0,0,.06.06h0c0,.23,0,.45,0,.68a4.28,4.28,0,0,1-.1,1.55c0,.09,0,.22-.68.31s-1.12,0-1.12-.12a2.79,2.79,0,0,0,0-1.15,5.27,5.27,0,0,1-.14-1.63c0-.48,0-1,0-1.46a9.23,9.23,0,0,1,0-1.39,7.39,7.39,0,0,1,.43-1.16c0-.09.09-.18-.14-.32h0c.32,0-.21-.3.26-.3h0s.08-.06.06-.11.18-.17.92.08a2.92,2.92,0,0,1,.48.17h0c.48.23.21.28.19.39-.06.55-.15,1.1-.19,1.66a3.94,3.94,0,0,0,0,1c0,.1.11.2,0,.29Z"/>
            <path class="cls-2" d="M184.47,105.41a1.82,1.82,0,0,1,0,.32l-.17,1.11s0,0,0,.06h0c0,.22-.07.43-.08.65a4.18,4.18,0,0,1-.15,1.38c0,.07,0,.18-.66.34s-1.11.13-1.12,0a4.49,4.49,0,0,0,0-1.21,4.52,4.52,0,0,1,0-1.64c0-.47.12-.93.13-1.39s-.08-.86,0-1.26.21-.66.27-1c0-.07,0-.16-.23-.2h0c.31-.12-.27-.14.16-.28h0s0-.06,0-.08.1-.19.87-.3a2,2,0,0,1,.51-.07h0c.53,0,.31.22.34.35a7.61,7.61,0,0,1,.08,1.89,6.62,6.62,0,0,0,0,1.09c0,.1.1.21,0,.3Z"/>
            <path class="cls-2" d="M169.39,92.67l3.5-2.1a8,8,0,0,1,2.17-1,9.06,9.06,0,0,1,2.45-.15l8.75.23a1.6,1.6,0,0,1,.44,0,1.46,1.46,0,0,1,.6.39,35.4,35.4,0,0,0,4.81,3.59l.22,1c-1.86,2.7-6.07,3.62-8.77,5.8a1.22,1.22,0,0,1-.51.28,1,1,0,0,1-.39,0l-5.46-.53a3.7,3.7,0,0,1-1-.2,3.12,3.12,0,0,1-.85-.58,62.28,62.28,0,0,0-6.88-5,.68.68,0,0,1,0-1.2A4.32,4.32,0,0,0,169.39,92.67Z"/>
          </g>
          <g>
            <g>
              <path class="cls-2" d="M158.73,273.44A34.15,34.15,0,0,1,158,269a21.43,21.43,0,0,1-.11-2.27c0-.75-.07-1.51,0-2.27a36.56,36.56,0,0,1,4.79-16.36,37.08,37.08,0,0,1,11.83-12.26l1.5-.92-.05,0a32.13,32.13,0,0,1,9.67-3.73,37.35,37.35,0,0,1,5.14-.8c.87-.07,1.73-.05,2.6-.08l1.3,0,1.3.1,1.5.13a9.33,9.33,0,0,1,1.49.18l3,.55,2.89.85c1,.28,1.87.72,2.81,1.08a36,36,0,0,1,10,6.51,35.12,35.12,0,0,1,11,20.81,24.75,24.75,0,0,1,.26,4.27c-.06,1.36-.22,2.38-.56,2.33s-.64-.78-.85-2-.47-2.88-.72-4.93a33.09,33.09,0,0,0-26.92-27.3,36.4,36.4,0,0,0-5.4-.59l-2.72.05c-.91,0-1.8.19-2.7.28a33.93,33.93,0,0,0-10.36,3.13,35.11,35.11,0,0,0-8.79,6.31,33.73,33.73,0,0,0-9.21,16.88l-.45,2.4c-.08.81-.13,1.62-.21,2.43,0,.41-.08.81-.09,1.22l0,1.22c0,.81,0,1.63.07,2.44a36.29,36.29,0,0,0,2.17,9.47,35.78,35.78,0,0,0,4.48,7.95c.42.64,1,1.17,1.45,1.76a16.4,16.4,0,0,0,1.56,1.67l1.65,1.58c.58.49,1.19.95,1.78,1.42.3.23.59.48.9.7l1,.62c.65.4,1.27.84,1.93,1.21A35.14,35.14,0,0,0,181,297a31.18,31.18,0,0,0,4.32,1.42c.72.23,1.49.3,2.23.46a16.72,16.72,0,0,0,2.25.34,35,35,0,0,0,15.49-1.78,34,34,0,0,0,13.05-8.64,14.17,14.17,0,0,0,1.24-1.42l1.18-1.49a26.11,26.11,0,0,0,1.83-3.2l0,0a17.6,17.6,0,0,0,2-4c.24-.73.57-1.43.78-2.14a14.6,14.6,0,0,1,.78-2h0l.21-.7.15-.71c.1-.48.19-1,.27-1.42a25,25,0,0,0,.32-2.64,9.21,9.21,0,0,1,.26-1.51c.2-.64.45-.57.77.19.15.34.4,0,.43,1.06l0,.08v0a11,11,0,0,1,0,2.44c-.1.84-.24,1.7-.4,2.57s-.49,1.72-.74,2.57l-.39,1.27c-.17.41-.34.81-.5,1.21a35.21,35.21,0,0,1-16.58,18.55,35.51,35.51,0,0,1-48.36-15.9,37.16,37.16,0,0,1-1.68-3.95l-.69-2c-.17-.7-.32-1.41-.46-2.12Z"/>
              <g>
                <path class="cls-4" d="M191.13,279.1l.72.72.37.36.09.09,0,0s.05.05.08.06a1.13,1.13,0,0,0,.71.2,1,1,0,0,0,.63-.24l1.37-1.26,2.85-2.65,5.7-5.29a6.23,6.23,0,0,0,.51-.62l0,0,1.73-1.6c.3-.27.47-.48.71-.71s.42-.49.61-.76a8.63,8.63,0,0,0,1.47-3.55,8.35,8.35,0,0,0-.47-4.35,8.24,8.24,0,0,0-2.66-3.47A8.69,8.69,0,0,0,197,255l-.73.34a4.29,4.29,0,0,1-.79.36,1.12,1.12,0,0,1-1.4-.13,1.42,1.42,0,0,1-.15-1.65,4,4,0,0,1,2.06-1.76,11.35,11.35,0,0,1,8-.32,11.9,11.9,0,0,1,3.56,1.87,12.77,12.77,0,0,1,2.75,2.93,10.7,10.7,0,0,1,1.81,5.6,11.51,11.51,0,0,1-1.3,5.75,12,12,0,0,1-1.68,2.45c-.71.77-1.33,1.31-2,1.91l-3.79,3.57-6.81,6.42-.43.4a4.2,4.2,0,0,1-.7.54,4.45,4.45,0,0,1-5.06-.25,3.24,3.24,0,0,1-.34-.29l-.27-.27-.4-.43-.81-.85L187,279.51c-2-2.12-4.09-4.2-6.14-6.29l-1.54-1.57-.77-.78-.38-.4-.43-.48a11.93,11.93,0,0,1-2.45-4.52,11.46,11.46,0,0,1,7.61-14.13c1.31-.42,2.72-.57,4-1l0,0a13.53,13.53,0,0,0,2.52.41,4.7,4.7,0,0,1,1.25.33,2.28,2.28,0,0,1,1,.75h0c.48.24.89.61,1.36.85,1,.6,1.54,1.2,1.61,1.61s-.28.66-1,.87c-.31.1-.45.48-.92.3v0a5.13,5.13,0,0,1-2-.74,8.47,8.47,0,0,0-11.62,11.43l.38.66.43.62c.32.41.63.76,1.06,1.22l2.44,2.58c1.63,1.73,3.26,3.44,4.94,5.11.91.92,1.92,1.75,2.75,2.77Z"/>
                <path class="cls-4" d="M193.88,255.35a10,10,0,0,0-14.47-.12,10.19,10.19,0,0,0,.08,14L191,281.5a2.88,2.88,0,0,0,4.09.13l12.27-11.5a10.18,10.18,0,0,0,1-14A10,10,0,0,0,193.88,255.35Z"/>
              </g>
            </g>
            <g>
              <path class="cls-2" d="M61.77,270.31a37.67,37.67,0,0,1-.73-4.48,21.69,21.69,0,0,1-.11-2.27c0-.76-.07-1.52,0-2.28a36.54,36.54,0,0,1,4.78-16.36,37.2,37.2,0,0,1,11.84-12.26l1.49-.91-.05,0a38.89,38.89,0,0,1,4.69-2.26,39.61,39.61,0,0,1,5-1.47,38.43,38.43,0,0,1,5.14-.8c.86-.07,1.73-.05,2.6-.07l1.29,0,1.3.11,1.5.12a9.33,9.33,0,0,1,1.49.18l3,.56,2.89.84c1,.28,1.87.72,2.81,1.08a36,36,0,0,1,10,6.51,35.13,35.13,0,0,1,11,20.82,24.62,24.62,0,0,1,.27,4.26c-.07,1.36-.22,2.38-.56,2.33s-.65-.78-.86-2-.47-2.88-.71-4.92a33.4,33.4,0,0,0-16.7-23.7,33,33,0,0,0-10.23-3.61,37.48,37.48,0,0,0-5.4-.59l-2.72.06c-.9,0-1.8.19-2.7.27a33.87,33.87,0,0,0-10.35,3.13,34.75,34.75,0,0,0-8.79,6.31,33.66,33.66,0,0,0-9.22,16.89l-.44,2.39c-.09.81-.14,1.63-.21,2.44,0,.4-.08.81-.09,1.21l0,1.22c0,.81,0,1.63.08,2.44a32.72,32.72,0,0,0,6.64,17.42,22.33,22.33,0,0,0,1.46,1.76,17.63,17.63,0,0,0,1.55,1.68l1.65,1.57c.58.49,1.19.95,1.79,1.42.3.24.59.48.9.7l1,.62c.64.4,1.26.85,1.93,1.21a36.29,36.29,0,0,0,8.43,3.37c.73.22,1.49.29,2.23.45a17.22,17.22,0,0,0,2.25.34,35,35,0,0,0,15.49-1.78,33.87,33.87,0,0,0,13.05-8.64,12,12,0,0,0,1.24-1.42l1.18-1.49a26.12,26.12,0,0,0,1.84-3.19l0,0a17.08,17.08,0,0,0,2-4c.24-.73.58-1.42.78-2.14a17.44,17.44,0,0,1,.78-2h0l.22-.7.15-.72c.1-.48.19-.95.26-1.42a24.68,24.68,0,0,0,.32-2.64,9,9,0,0,1,.27-1.51c.19-.64.44-.57.77.19.14.34.4,0,.42,1.07l0,.08,0,0a12.31,12.31,0,0,1,0,2.43c-.11.84-.25,1.71-.41,2.58s-.49,1.71-.73,2.57c-.14.42-.27.84-.4,1.27s-.33.81-.49,1.21A35.26,35.26,0,0,1,113,294.28,35.51,35.51,0,0,1,64.6,278.37a35.2,35.2,0,0,1-1.68-3.95l-.7-2c-.17-.7-.31-1.41-.46-2.12Z"/>
              <g>
                <path class="cls-5" d="M100.75,263l8.86-8.31a2.94,2.94,0,1,0-4-4.29l-8.86,8.3-8.31-8.86a2.95,2.95,0,0,0-4.3,4l8.31,8.86L83.56,271a2.93,2.93,0,0,0-.13,4.16,2.88,2.88,0,0,0,2,.93,2.91,2.91,0,0,0,2.11-.79L96.45,267l8.31,8.86a2.95,2.95,0,0,0,4.16.14,2.94,2.94,0,0,0,.14-4.16Z"/>
                <path class="cls-6" d="M90.13,257.7,92,259.55l1.31,1.35L95,262.78l-.34.32L86,271.23l-.94.88-.23.22-.09.09a1.43,1.43,0,0,0-.14.2,1.11,1.11,0,0,0-.06,1,1.14,1.14,0,0,0,1.67.55.41.41,0,0,0,.14-.15l.33-.38h0l9.91-9.22,1,1.09,5.69,6,2.46,2.63c.52.57.52.57.76.69a1.11,1.11,0,0,0,.67.08,1.15,1.15,0,0,0,.92-.93,1.21,1.21,0,0,0-.09-.7,1.54,1.54,0,0,0-.23-.33l-.6-.67q-2.4-2.67-4.77-5.39c-1-1.13-2.72-3-1.86-3.73s2.57,0,4.32,1.95l3.17,3.53,1.59,1.77.39.44a5.41,5.41,0,0,1,.51.66,4.33,4.33,0,0,1,.6,1.59,4.24,4.24,0,0,1-6.81,4,11.53,11.53,0,0,1-1-.95l-.83-.83-3.58-3.65-2.51-2.59-2.06,1.95-3.17,3-1.59,1.48-.79.74a4.18,4.18,0,0,1-.54.47,4.1,4.1,0,0,1-.7.43,4.47,4.47,0,0,1-5-7.28l2.94-2.77,4.78-4.48-4.84-5.11-2-2.1-.52-.55a4.6,4.6,0,0,1-.66-.91,4.73,4.73,0,0,1-.55-2.18,4.67,4.67,0,0,1,6.49-4.27,4.78,4.78,0,0,1,1,.59,5.33,5.33,0,0,1,.74.68l1,1,2,2.1L96.81,256s0,0,0,0h0l.09-.08.21-.19,1.7-1.54,3.42-3.06,1.72-1.52.43-.38a4.92,4.92,0,0,1,.65-.51,4.49,4.49,0,0,1,6.87,2.81,4.69,4.69,0,0,1-.67,3.45,5.39,5.39,0,0,1-.55.71l-.4.47a7.54,7.54,0,0,0-.67,1h0c-1.67.87-2.57,3-4.37,3.68h0a17.94,17.94,0,0,0-1.38,1.22c-1.87,2-2.68,2.22-2.89.64,0-.34-.48-.45-.12-1.05l.05,0h0c.76-1.91,2.72-3.18,4.23-4.61l2.38-2.27,1.16-1.11a1.57,1.57,0,0,0,.42-.74,1.55,1.55,0,0,0-.52-1.53,1.52,1.52,0,0,0-1.58-.21,1.18,1.18,0,0,0-.35.23,2.53,2.53,0,0,0-.25.22l-.29.28L104.9,253l-2.39,2.25-5.86,5.53-4-4.28-3.22-3.43-1.61-1.71-.41-.43a1.71,1.71,0,0,0-.25-.24,1.33,1.33,0,0,0-.51-.24,1.38,1.38,0,0,0-1.51,2.11,2.9,2.9,0,0,0,.19.22l.41.42.83.84c1.2,1.22,2.49,2.36,3.61,3.69Z"/>
              </g>
            </g>
          </g>
        </g>
      </g>
    </g>
  </g>
</svg>
