<svg xmlns="http://www.w3.org/2000/svg" viewBox="0 0 134 100.19">
  <defs>
    <style>
      .cls-1 {
        fill: #ffaa29;
      }

      .cls-2 {
        fill: #fff;
      }
    </style>
  </defs>
  <g id="Layer_2" data-name="Layer 2">
    <g id="Layer_1-2" data-name="Layer 1">
      <g>
        <path class="cls-1" d="M37,37.5c0,8-11.33,24-16.26,30.57a2.79,2.79,0,0,1-4.48,0C11.33,61.49,0,45.49,0,37.5a18.5,18.5,0,0,1,37,0Z"/>
        <g>
          <path class="cls-2" d="M20,39.69c-.52,0-1,0-1.59,0a9.53,9.53,0,0,1-4.06-.85,5.17,5.17,0,0,1-1.89-1.54A4.66,4.66,0,0,1,11.54,35c0-.17-.08-.32-.12-.48v0a5.51,5.51,0,0,1,.65-2.88,5.34,5.34,0,0,1,2.19-2,8.6,8.6,0,0,1,2.88-.8,12.85,12.85,0,0,1,1.38-.06,10.16,10.16,0,0,1,1.46.13,7.9,7.9,0,0,1,2.78,1.07,5.33,5.33,0,0,1,2.08,2.4,2.31,2.31,0,0,1,.23,1.21.71.71,0,0,1-.79.66,2.88,2.88,0,0,1-1.18-.28,1,1,0,0,1-.58-.52,3.52,3.52,0,0,0-1.73-1.59,4.86,4.86,0,0,0-2.69-.38,5.32,5.32,0,0,0-3.32,1.28,2.17,2.17,0,0,0-.48,1.36,2.2,2.2,0,0,0,.36,1.44,3.76,3.76,0,0,0,2.71,1.22c.6.08,1.19.05,2,.09a10.32,10.32,0,0,1,2.39.44A5.84,5.84,0,0,1,24,38.51a4.73,4.73,0,0,1,1.38,2.42,5.46,5.46,0,0,1-.06,2.69A4.72,4.72,0,0,1,23.74,46a6.89,6.89,0,0,1-4,1.3,10.2,10.2,0,0,1-3.88-.55,6.66,6.66,0,0,0-1.91-.58h0a2.94,2.94,0,0,0-1-.84,1.26,1.26,0,0,1-.65-1.15h0c-.12-.26-.21-.54-.33-.8-.3-.6-.27-1.08-.07-1.27s.55-.13,1.11,0c.25,0,.56,0,.73.12v0h0a1.19,1.19,0,0,1,.66.51,2.22,2.22,0,0,0,.36.63,5.41,5.41,0,0,0,3.89,1.28c1.53,0,3.09-.46,3.66-1.33a2,2,0,0,0,.34-.9,3.05,3.05,0,0,0,0-1.09A1.94,1.94,0,0,0,21.31,40c-.4-.15-.87-.14-1.33-.3Z"/>
          <path class="cls-2" d="M20,37.23a7.19,7.19,0,0,1,.09.91c0,1.13,0,2.27-.06,3.41,0,.06.06.11.09.17h0c0,.69-.05,1.37,0,2.06a22.49,22.49,0,0,1-.28,4.77c0,.25-.05.67-1,.66s-1.58-.29-1.54-.72a12.76,12.76,0,0,0,.15-3.14,33.32,33.32,0,0,1-.17-4.57c-.05-1.37,0-2.74-.05-4.1s-.27-2.57-.26-3.86c0-1.1.26-2.21.34-3.32a.69.69,0,0,0-.29-.79h0c.44-.3-.38-.65.27-.95h0c0-.1.08-.2,0-.3-.16-.46.19-.58,1.28-.43.24,0,.56,0,.73.11h0c.75.31.39.69.41,1,.07,1.69.08,3.38.11,5.08a29.29,29.29,0,0,0,.11,3.11,2.12,2.12,0,0,1,.1.86Z"/>
        </g>
      </g>
      <g>
        <path class="cls-1" d="M90,68.5c0,8-11.33,24-16.26,30.57a2.79,2.79,0,0,1-4.48,0C64.33,92.49,53,76.49,53,68.5a18.5,18.5,0,0,1,37,0Z"/>
        <g>
          <path class="cls-2" d="M73,70.69c-.52,0-1,0-1.59,0a9.53,9.53,0,0,1-4.06-.85,5.17,5.17,0,0,1-1.89-1.54A4.66,4.66,0,0,1,64.54,66c0-.17-.08-.32-.12-.48v0a5.51,5.51,0,0,1,.65-2.88,5.34,5.34,0,0,1,2.19-2,8.6,8.6,0,0,1,2.88-.8,12.85,12.85,0,0,1,1.38-.06,10.16,10.16,0,0,1,1.46.13,7.9,7.9,0,0,1,2.78,1.07,5.33,5.33,0,0,1,2.08,2.4,2.31,2.31,0,0,1,.23,1.21.71.71,0,0,1-.79.66,2.88,2.88,0,0,1-1.18-.28,1,1,0,0,1-.58-.52,3.52,3.52,0,0,0-1.73-1.59,4.86,4.86,0,0,0-2.69-.38,5.32,5.32,0,0,0-3.32,1.28,2.17,2.17,0,0,0-.48,1.36,2.2,2.2,0,0,0,.36,1.44,3.76,3.76,0,0,0,2.71,1.22c.6.08,1.19,0,2,.09a10.32,10.32,0,0,1,2.39.44A5.84,5.84,0,0,1,77,69.51a4.73,4.73,0,0,1,1.38,2.42,5.46,5.46,0,0,1-.06,2.69A4.72,4.72,0,0,1,76.74,77a6.89,6.89,0,0,1-4,1.3,10.2,10.2,0,0,1-3.88-.55,6.66,6.66,0,0,0-1.91-.58h0a2.94,2.94,0,0,0-1-.84,1.26,1.26,0,0,1-.65-1.15h0c-.12-.26-.21-.54-.33-.8-.3-.6-.27-1.08-.07-1.27s.55-.13,1.11,0c.25.05.56,0,.73.12v0h0a1.19,1.19,0,0,1,.66.51,2.22,2.22,0,0,0,.36.63,5.41,5.41,0,0,0,3.89,1.28c1.53,0,3.09-.46,3.66-1.33a2,2,0,0,0,.34-.9,3.05,3.05,0,0,0,0-1.09A1.94,1.94,0,0,0,74.31,71c-.4-.15-.87-.14-1.33-.3Z"/>
          <path class="cls-2" d="M73,68.23a7.19,7.19,0,0,1,.09.91c0,1.13,0,2.27-.06,3.41,0,.06.06.11.09.17h0c0,.69,0,1.37,0,2.06a22.49,22.49,0,0,1-.28,4.77c0,.25,0,.67-1,.66s-1.58-.29-1.54-.72a12.76,12.76,0,0,0,.15-3.14,33.32,33.32,0,0,1-.17-4.57c0-1.37,0-2.74,0-4.1s-.27-2.57-.26-3.86c0-1.1.26-2.21.34-3.32a.69.69,0,0,0-.29-.79h0c.44-.3-.38-.65.27-.95h0c0-.1.08-.2,0-.3-.16-.46.19-.58,1.28-.43.24,0,.56,0,.73.11h0c.75.31.39.69.41,1,.07,1.69.08,3.38.11,5.08a29.29,29.29,0,0,0,.11,3.11,2.12,2.12,0,0,1,.1.86Z"/>
        </g>
      </g>
      <g>
        <path class="cls-1" d="M134,18.5c0,8-11.33,24-16.26,30.57a2.79,2.79,0,0,1-4.48,0C108.33,42.49,97,26.49,97,18.5a18.5,18.5,0,0,1,37,0Z"/>
        <g>
          <path class="cls-2" d="M117,20.69c-.52-.05-1,0-1.59,0a9.53,9.53,0,0,1-4.06-.85,5.17,5.17,0,0,1-1.89-1.54,4.66,4.66,0,0,1-.91-2.32c0-.17-.08-.32-.12-.48v0a5.51,5.51,0,0,1,.65-2.88,5.34,5.34,0,0,1,2.19-2,8.6,8.6,0,0,1,2.88-.8,12.85,12.85,0,0,1,1.38-.06,10.16,10.16,0,0,1,1.46.13,7.9,7.9,0,0,1,2.78,1.07,5.33,5.33,0,0,1,2.08,2.4,2.31,2.31,0,0,1,.23,1.21.71.71,0,0,1-.79.66,2.88,2.88,0,0,1-1.18-.28,1,1,0,0,1-.58-.52,3.52,3.52,0,0,0-1.73-1.59,4.86,4.86,0,0,0-2.69-.38,5.32,5.32,0,0,0-3.32,1.28,2.17,2.17,0,0,0-.48,1.36,2.2,2.2,0,0,0,.36,1.44,3.76,3.76,0,0,0,2.71,1.22c.6.08,1.19.05,2,.09a10.32,10.32,0,0,1,2.39.44A5.84,5.84,0,0,1,121,19.51a4.73,4.73,0,0,1,1.38,2.42,5.46,5.46,0,0,1-.06,2.69A4.72,4.72,0,0,1,120.74,27a6.89,6.89,0,0,1-4,1.3,10.2,10.2,0,0,1-3.88-.55,6.66,6.66,0,0,0-1.91-.58h0a2.94,2.94,0,0,0-1-.84,1.26,1.26,0,0,1-.65-1.15h0c-.12-.26-.21-.54-.33-.8-.3-.6-.27-1.08-.07-1.27s.55-.13,1.11,0c.25.05.56,0,.73.12v0h0a1.19,1.19,0,0,1,.66.51,2.22,2.22,0,0,0,.36.63,5.41,5.41,0,0,0,3.89,1.28c1.53,0,3.09-.46,3.66-1.33a2,2,0,0,0,.34-.9,3.05,3.05,0,0,0,0-1.09A1.94,1.94,0,0,0,118.31,21c-.4-.15-.87-.14-1.33-.3Z"/>
          <path class="cls-2" d="M117,18.23a7.19,7.19,0,0,1,.09.91c0,1.13,0,2.27-.06,3.41,0,.06.06.11.09.17h0c0,.69,0,1.37,0,2.06a22.49,22.49,0,0,1-.28,4.77c0,.25,0,.67-1,.66s-1.58-.29-1.54-.72a12.76,12.76,0,0,0,.15-3.14,33.32,33.32,0,0,1-.17-4.57c0-1.37,0-2.74,0-4.1s-.27-2.57-.26-3.86c0-1.1.26-2.21.34-3.32a.69.69,0,0,0-.29-.79h0c.44-.3-.38-.65.27-1h0c0-.1.08-.2,0-.3-.16-.46.19-.58,1.28-.43.24,0,.56,0,.73.11h0c.75.31.39.69.41,1,.07,1.69.08,3.38.11,5.08a29.29,29.29,0,0,0,.11,3.11,2.12,2.12,0,0,1,.1.86Z"/>
        </g>
      </g>
    </g>
  </g>
</svg>
