<svg xmlns="http://www.w3.org/2000/svg" viewBox="0 0 113.35 115.76">
  <defs>
    <style>
      .cls-1 {
        fill: #231f20;
      }

      .cls-2 {
        fill: #ffaa29;
      }
    </style>
  </defs>
  <g id="Layer_2" data-name="Layer 2">
    <g id="Layer_1-2" data-name="Layer 1">
      <g>
        <g>
          <g>
            <g>
              <path class="cls-1" d="M0,29.64,0,23.7a4.15,4.15,0,0,1,1.81-3.41,4.26,4.26,0,0,1,1.89-.64,5.83,5.83,0,0,1,1.76.14l44,7.87c.75.13,1.5.23,2.25.34h-.06L65,30.37l6.65,1.2,3.33.59,1.67.29a7.15,7.15,0,0,1,1.9.53,5.84,5.84,0,0,1,3.07,3.56,5.11,5.11,0,0,1,.21,1.23c0,.42,0,.68,0,1v9.78l0,15.64q0,15.63-.19,31.24c0,.82,0,1.77,0,2.75a5.07,5.07,0,0,1-.22,1.69,3.67,3.67,0,0,1-.93,1.5,3.33,3.33,0,0,1-2.52.91c-.66-.07-1-.3-.92-.45.09-.37,1.22-.31,2.17-1.24a2.62,2.62,0,0,0,.71-2.11c0-1.15-.07-2.45-.06-3.86.06-13.73.22-27.53.1-41.19l-.09-15V38c0-.13,0-.24,0-.36a3.16,3.16,0,0,0-.18-.72,3.82,3.82,0,0,0-2-2.16,3.55,3.55,0,0,0-.7-.22l-.9-.17-7.37-1.3L39.2,27.84,12.73,23.15,6.11,22l-1.62-.28a2.48,2.48,0,0,0-1.19.12A2,2,0,0,0,2,23.6V37l.11,25.25,0,12.63,0,6.31V84.3A3.28,3.28,0,0,0,3,86.5a3.47,3.47,0,0,0,1.66,1.13c.26.08.79.16,1.22.24l1.34.24,5.36,1,10.71,2,21.43,4c3.36.61,6.94,1.29,10.17,1.6l-.06,0c3.83,1,8.48,1.24,12.17,2.36h0c1.32.24,2.65.53,3.94.73,5.89.93,7.4,1.45,5.3,1.86-.46.09,0,.4-1.44.26l-.11,0,0,0c-4.07-.19-8.94-1.31-13.39-2.09L28.55,93.93,12.16,91l-4.1-.72L6,89.94a16,16,0,0,1-2.18-.45A5.6,5.6,0,0,1,.46,86.07,5.27,5.27,0,0,1,.2,84.83c0-.47,0-.74,0-1.11V81.64C.17,68,.2,54.39.11,40.8.08,37.08,0,33.35,0,29.58Z"/>
              <path class="cls-1" d="M38,33.11c1.08.16,2.16.31,3.24.5l12.22,2.22a4.34,4.34,0,0,0,.63.05h0c2.46.44,4.92.91,7.39,1.34,5.7,1,11.4,2,17.05,3.23.89.19,2.4.46,2.25,1.13s-1.24.91-2.79.61c-3.74-.73-7.48-1.56-11.23-2.1-5.5-.8-10.93-1.86-16.39-2.8-4.91-.84-9.8-1.74-14.71-2.58-4.6-.78-9.23-1.45-13.83-2.27-4-.71-7.9-1.59-11.86-2.36a9.91,9.91,0,0,0-2.85-.29h0c-1-.5-2.39-.16-3.35-.79h0c-.37-.08-.73-.19-1.09-.23-1.65-.18-2-.49-1.36-1.16.15-.15.05-.39.47-.44l0,0h0c1.2-.32,2.52.17,3.76.38,6.07,1,12.14,2.1,18.21,3.15,3.72.65,7.44,1.34,11.17,1.91,1,.16,2.06.24,3.08.48Z"/>
            </g>
            <path class="cls-1" d="M24.91,84.36c-1.4-.23-2.81-.43-4.21-.68l-4-.72-2-.36-1-.18A4.06,4.06,0,0,1,12.47,82a4.4,4.4,0,0,1-1.84-1.86,4.09,4.09,0,0,1-.43-1.29,4,4,0,0,1,0-.68V73.61c0-.27,0-.54-.06-.82v0l0-9.76c0-7.53,0-15.06.2-22.57,0-1.17,0-3.17.72-3.13s1.11,1.38,1.09,3.43c-.07,5-.23,9.93-.11,14.86.18,7.21.09,14.41.12,21.61v1.13a2,2,0,0,0,.25.8,2.51,2.51,0,0,0,1.29,1.14,3,3,0,0,0,.43.11l.59.1,1.2.21,2.39.43,9.55,1.68c6,1,12,1.94,18,3,5.16.92,10.29,2,15.44,3a16.86,16.86,0,0,0,3.7.45h0c1.34.55,3.09.27,4.37,1h0c.47.1,1,.23,1.42.29,2.14.26,2.65.6,1.81,1.24-.19.14,0,.39-.58.42l0,0h0c-1.53.26-3.26-.3-4.87-.57L43.41,87.5c-4.84-.84-9.68-1.74-14.52-2.5-1.33-.21-2.67-.35-4-.65Z"/>
            <path class="cls-1" d="M45.22,56.51l2.56,1.82.52,1.18L54,72.86a6.71,6.71,0,0,0,.35.65v0l.42,1L55,75h0a.08.08,0,0,0,0,0l0,0,.74-1.74C58.38,67,61,60.76,63.86,54.62c.44-1,1.14-2.61,1.75-2.31s.55,1.58-.19,3.26c-1.8,4.08-3.7,8.14-5.31,12.27q-1,2.61-2.1,5.2l-3,7.11L50.9,70.63l-4.77-11-4-3L35.47,51.9c-1-.7-2.71-2-2.25-1.59h0l-.31.37-.67.78L30.89,53c-1.55,1.78-3.13,3.53-4.72,5.28L25,59.59l-.59.66-.38.41-.27.3-.3.22a1.54,1.54,0,0,1-1.43,0,5.13,5.13,0,0,1-.62-.41L21,60.5l-1.45-1a13.84,13.84,0,0,0-2.88-1.71v0c-.88-1-2.45-1.35-3.21-2.42h0a12.09,12.09,0,0,0-1.05-.76c-1.67-1-1.95-1.49-1-1.77.22-.06.21-.34.66-.17l0,0h0c1.38.3,2.57,1.42,3.79,2.24l4.48,3,2.09,1.4a.15.15,0,0,0,.26,0l.77-.88,7.07-8.17L31.68,49c.32-.36.63-.79,1.07-.87a1.69,1.69,0,0,1,1.32.29l2.83,2.09c1.78,1.31,3.57,2.62,5.37,3.89,1,.7,2,1.34,3,2.12Z"/>
            <path class="cls-2" d="M25.58,61a2.34,2.34,0,0,1-2.88,2.36A3.58,3.58,0,0,1,19.83,60a2.35,2.35,0,0,1,2.87-2.37A3.6,3.6,0,0,1,25.58,61Z"/>
            <path class="cls-2" d="M36,49.44a2.35,2.35,0,0,1-2.88,2.36,3.59,3.59,0,0,1-2.87-3.39,2.34,2.34,0,0,1,2.87-2.36A3.59,3.59,0,0,1,36,49.44Z"/>
            <path class="cls-2" d="M49.76,59.55a2.34,2.34,0,0,1-2.88,2.36A3.58,3.58,0,0,1,44,58.53a2.34,2.34,0,0,1,2.87-2.37A3.59,3.59,0,0,1,49.76,59.55Z"/>
            <path class="cls-2" d="M58.05,78.45a2.34,2.34,0,0,1-2.87,2.36,3.59,3.59,0,0,1-2.88-3.39,2.35,2.35,0,0,1,2.88-2.36A3.58,3.58,0,0,1,58.05,78.45Z"/>
            <path class="cls-2" d="M68,53.67A2.34,2.34,0,0,1,65.13,56a3.58,3.58,0,0,1-2.87-3.38,2.34,2.34,0,0,1,2.87-2.37A3.59,3.59,0,0,1,68,53.67Z"/>
          </g>
          <g>
            <path class="cls-1" d="M0,29.64,0,23.7a4.15,4.15,0,0,1,1.81-3.41,4.26,4.26,0,0,1,1.89-.64,5.83,5.83,0,0,1,1.76.14l44,7.87c.75.13,1.5.23,2.25.34h-.06L65,30.37l6.65,1.2,3.33.59,1.67.29a7.15,7.15,0,0,1,1.9.53,5.84,5.84,0,0,1,3.07,3.56,5.11,5.11,0,0,1,.21,1.23c0,.42,0,.68,0,1v9.78l0,15.64q0,15.63-.19,31.24c0,.82,0,1.77,0,2.75a5.07,5.07,0,0,1-.22,1.69,3.67,3.67,0,0,1-.93,1.5,3.33,3.33,0,0,1-2.52.91c-.66-.07-1-.3-.92-.45.09-.37,1.22-.31,2.17-1.24a2.62,2.62,0,0,0,.71-2.11c0-1.15-.07-2.45-.06-3.86.06-13.73.22-27.53.1-41.19l-.09-15V38c0-.13,0-.24,0-.36a3.16,3.16,0,0,0-.18-.72,3.82,3.82,0,0,0-2-2.16,3.55,3.55,0,0,0-.7-.22l-.9-.17-7.37-1.3L39.2,27.84,12.73,23.15,6.11,22l-1.62-.28a2.48,2.48,0,0,0-1.19.12A2,2,0,0,0,2,23.6V37l.11,25.25,0,12.63,0,6.31V84.3A3.28,3.28,0,0,0,3,86.5a3.47,3.47,0,0,0,1.66,1.13c.26.08.79.16,1.22.24l1.34.24,5.36,1,10.71,2,21.43,4c3.36.61,6.94,1.29,10.17,1.6l-.06,0c3.83,1,8.48,1.24,12.17,2.36h0c1.32.24,2.65.53,3.94.73,5.89.93,7.4,1.45,5.3,1.86-.46.09,0,.4-1.44.26l-.11,0,0,0c-4.07-.19-8.94-1.31-13.39-2.09L28.55,93.93,12.16,91l-4.1-.72L6,89.94a16,16,0,0,1-2.18-.45A5.6,5.6,0,0,1,.46,86.07,5.27,5.27,0,0,1,.2,84.83c0-.47,0-.74,0-1.11V81.64C.17,68,.2,54.39.11,40.8.08,37.08,0,33.35,0,29.58Z"/>
            <path class="cls-1" d="M38,33.11c1.08.16,2.16.31,3.24.5l12.22,2.22a4.34,4.34,0,0,0,.63.05h0c2.46.44,4.92.91,7.39,1.34,5.7,1,11.4,2,17.05,3.23.89.19,2.4.46,2.25,1.13s-1.24.91-2.79.61c-3.74-.73-7.48-1.56-11.23-2.1-5.5-.8-10.93-1.86-16.39-2.8-4.91-.84-9.8-1.74-14.71-2.58-4.6-.78-9.23-1.45-13.83-2.27-4-.71-7.9-1.59-11.86-2.36a9.91,9.91,0,0,0-2.85-.29h0c-1-.5-2.39-.16-3.35-.79h0c-.37-.08-.73-.19-1.09-.23-1.65-.18-2-.49-1.36-1.16.15-.15.05-.39.47-.44l0,0h0c1.2-.32,2.52.17,3.76.38,6.07,1,12.14,2.1,18.21,3.15,3.72.65,7.44,1.34,11.17,1.91,1,.16,2.06.24,3.08.48Z"/>
          </g>
          <g>
            <path class="cls-1" d="M84.76,91.64s-.08.06-.11,0l-.37-.11s0,0,0,.06h0a2,2,0,0,0-.23-.07.53.53,0,0,1-.5-.29s-.07,0,0-.71.23-1.1.27-1.06.2.26.34.16.35,0,.53,0,.3,0,.46,0,.33-.13.47-.1.22.22.33.3,0,.07.12-.18h0c0,.31.12-.25.08.2h0s0,.06,0,0,0,.14-.11.9a4,4,0,0,1-.1.5h0c-.12.51-.12.26-.16.26a3.88,3.88,0,0,1-.59,0c-.12,0-.23-.06-.36,0s-.09.12-.11,0Z"/>
            <path class="cls-1" d="M73,19.41l5.83,1,11,2,1.38.25a5.46,5.46,0,0,1,1.63.57,5.78,5.78,0,0,1,2.39,2.41,5.49,5.49,0,0,1,.56,1.64,5.31,5.31,0,0,1,.06.87v3.5c0,.38,0,.76.06,1.14v0l0,13.53c0,10.43,0,20.86-.19,31.26,0,1.63,0,4.39-.72,4.34s-1.12-1.91-1.09-4.74c.06-6.87.23-13.77.1-20.6-.09-5-.11-10-.11-15V28.41a4.67,4.67,0,0,0,0-.8,3.52,3.52,0,0,0-.18-.71,3.91,3.91,0,0,0-1.77-2,4.6,4.6,0,0,0-.61-.25L91,24.61l-.41-.08L89,24.24l-6.62-1.17L69.09,20.73C60.79,19.29,52.48,18,44.2,16.49c-7.15-1.28-14.27-2.72-21.41-4-.84-.16-1.71-.33-2.57-.46-.43-.07-.86-.12-1.28-.16a1.93,1.93,0,0,0-1,.07h0a1.48,1.48,0,0,0-1.56,1,3.3,3.3,0,0,0-.16,1.11,7.33,7.33,0,0,1-.18,1.5h0c0,.67-.06,1.35,0,2,.11,3-.13,3.77-.91,2.77-.17-.22-.39,0-.51-.68v0a13.44,13.44,0,0,1-.33-3.3c0-.57,0-1.16,0-1.74,0-.31,0-.55,0-.92a4.64,4.64,0,0,1,.19-1,3.65,3.65,0,0,1,1.59-2.07A4,4,0,0,1,18.66,10c.46,0,.73.11,1.09.17l1,.18,2,.36L31,12.11,47.42,15c6.7,1.18,13.41,2.4,20.12,3.5,1.83.3,3.68.53,5.53.92Z"/>
            <path class="cls-1" d="M52.1,23.15c1.08.17,2.16.32,3.24.51l12.22,2.21c.21,0,.42,0,.63.06h0c2.47.45,4.93.91,7.39,1.34,5.71,1,11.41,2,17.06,3.24.88.19,2.39.46,2.24,1.12s-1.24.92-2.78.62c-3.74-.74-7.49-1.57-11.24-2.11-5.49-.79-10.93-1.86-16.39-2.79-4.9-.84-9.8-1.75-14.7-2.58-4.61-.78-9.24-1.45-13.83-2.27-4-.72-7.91-1.6-11.87-2.36a9.88,9.88,0,0,0-2.85-.3h0c-1-.49-2.38-.15-3.35-.79h0a10.52,10.52,0,0,0-1.09-.22c-1.65-.18-2-.5-1.36-1.17.15-.14.05-.39.47-.43l0,0v0c1.19-.32,2.51.17,3.75.38,6.07,1,12.14,2.1,18.21,3.16,3.73.64,7.45,1.34,11.18,1.91,1,.15,2.05.23,3.08.47Z"/>
          </g>
          <g>
            <path class="cls-1" d="M96.37,11.1,103,12.2l1.55.27.77.14a5.46,5.46,0,0,1,.93.23,5.83,5.83,0,0,1,3,2.4,5.72,5.72,0,0,1,.74,1.82,5.56,5.56,0,0,1,.1,1V22l0,12.61c0,.43,0,.86.06,1.29v0l0,15.25q0,8.82,0,17.63L110,77.56v1.1a4.54,4.54,0,0,1-.21,1.38,3.9,3.9,0,0,1-1.81,2.24,4.29,4.29,0,0,1-2.77.43L103,82.28c-1.8-.35-4.87-.9-4.69-1.56s2.31-.72,5.46-.14l1.42.27a3,3,0,0,0,1.14.06,2,2,0,0,0,1.58-1.19,2.82,2.82,0,0,0,.21-1.09l0-1.45,0-2.9c0-3.88,0-7.75,0-11.6-.18-11.26-.09-22.51-.12-33.76l0-7.58V18a2.16,2.16,0,0,0,0-.35,3.68,3.68,0,0,0-1.58-2.48,3.37,3.37,0,0,0-1.37-.56l-1.87-.33-3.73-.66L92,12.34C82.61,10.71,73.24,9.2,63.9,7.53,55.84,6.09,47.81,4.49,39.76,3A40.36,40.36,0,0,0,34,2.18h0c-.27-.08-.54-.16-.83-.22l-.42-.09a1.75,1.75,0,0,0-.32,0,1.86,1.86,0,0,0-1.15.3,2,2,0,0,0-.73.81,4.65,4.65,0,0,0-.39,1.18h0c0,.75-.05,1.52,0,2.25.12,3.37-.13,4.26-.9,3.13-.18-.25-.4,0-.52-.77l0-.06v0A16.4,16.4,0,0,1,28.42,5V4a4.22,4.22,0,0,1,.16-1.2A3.89,3.89,0,0,1,30,.77,4,4,0,0,1,32.76,0l.35.05.29,0,.58.1,1.16.2,4.62.81L49,2.85,67.48,6.1c7.57,1.33,15.13,2.71,22.69,4,2.07.34,4.15.61,6.24,1Z"/>
            <path class="cls-1" d="M66.2,13.2c1.08.16,2.17.31,3.24.5l12.22,2.22a4.46,4.46,0,0,0,.63.05h0c2.46.44,4.92.91,7.38,1.34,5.71,1,11.41,2,17.06,3.23.88.19,2.39.46,2.24,1.13s-1.24.91-2.78.61c-3.74-.73-7.48-1.56-11.24-2.1-5.49-.8-10.93-1.86-16.39-2.8-4.9-.84-9.79-1.74-14.7-2.58C59.24,14,54.62,13.35,50,12.53c-4-.71-7.91-1.59-11.87-2.36a9.87,9.87,0,0,0-2.85-.29h0c-1-.5-2.39-.16-3.36-.79h0a11,11,0,0,0-1.08-.23c-1.66-.18-2-.49-1.36-1.16.15-.15.05-.39.46-.44l0,0h0c1.2-.32,2.52.17,3.75.38,6.08,1,12.14,2.1,18.21,3.15,3.73.65,7.45,1.34,11.18,1.91,1,.16,2.06.24,3.08.48Z"/>
          </g>
        </g>
        <g>
          <path class="cls-1" d="M90.24,111.38c-.31-.31-.63-.6-.92-.91s-.55-.56-.84-.8-.55-.45-.92-.74a7.24,7.24,0,0,1-2-2.12c-.06-.1-.14-.18-.21-.28h0a3.63,3.63,0,0,1-.31-2.13,3.22,3.22,0,0,1,1.11-2,2.59,2.59,0,0,1,1.38-.57,3.39,3.39,0,0,1,1.27.12l.52.16.51.24c.3.15.57.31.84.48a20.2,20.2,0,0,1,2.88,2.24c.27.25.8.74.31,1.21a1.05,1.05,0,0,1-1.51.15c-.56-.49-1.14-1-1.75-1.42a7.51,7.51,0,0,0-1.87-1.08,2.18,2.18,0,0,0-1.11-.1.88.88,0,0,0-.51.59,1.58,1.58,0,0,0,0,1,2.79,2.79,0,0,0,.72,1,9.82,9.82,0,0,0,1.07.87,14,14,0,0,1,1.25,1c.79.74,1.46,1.52,2.14,2.25a8.78,8.78,0,0,0,4.11,2.83,14.79,14.79,0,0,0,4.5.4,1.65,1.65,0,0,0,1.12-.32h0c.47.27.94-.36,1.42.06h0a1.11,1.11,0,0,0,.42,0c.5-.19.73,0,.73.81,0,.17.11.38,0,.52h0a1.09,1.09,0,0,1-.79.45c-.25,0-.51,0-.77,0-1.22.14-2.48.31-3.79.35a11,11,0,0,1-4-.51,11.77,11.77,0,0,1-4-3,5.89,5.89,0,0,1-.9-.9Z"/>
          <path class="cls-1" d="M90.63,95.31c-.1-.26-.21-.51-.29-.77l-.81-3c0-.05-.06-.09-.1-.14h0c-.16-.62-.3-1.25-.44-1.91a6.69,6.69,0,0,1,.45-4.84c.13-.25.4-.67,1-.27s.81.78.68,1a3.57,3.57,0,0,0-.42,2.39c.27,1.24.56,2.53,1,3.85s.68,2.4,1.06,3.58.82,2.19,1.13,3.31c.27,1,.38,2,.6,3,0,.23.08.48.39.62h0c-.22.35.42.5.05.88h0c0,.09,0,.19,0,.27.22.37,0,.54-.77.62-.17,0-.38.11-.52,0h0c-.58-.12-.43-.52-.53-.82-.47-1.47-.9-2.94-1.34-4.42-.27-.9-.5-1.82-.85-2.7a2.4,2.4,0,0,1-.28-.73Z"/>
          <path class="cls-1" d="M95.71,88.15a4.9,4.9,0,0,1,.24.52l.63,2.08s0,.06.08.09h0c.12.42.23.84.38,1.26a12.76,12.76,0,0,1,.74,3c0,.16.1.41-.55.61s-1.12.16-1.18-.1a7.51,7.51,0,0,0-.52-1.94,18.86,18.86,0,0,1-1-2.72l-.84-2.5c-.27-.83-.59-1.56-.83-2.24a5.27,5.27,0,0,0-.57-1.49c0-.08-.12-.13-.25.09h0c0-.14,0-.09,0-.05s0,.09-.09-.14h0s-.07,0-.1,0-.25-.08-.43-.83c0-.16-.13-.37-.08-.5h0c0-.29.2-.4.36-.43s.36,0,.53,0a2.25,2.25,0,0,1,1.17.46,3,3,0,0,1,.73.8,7.15,7.15,0,0,1,.78,1.67c.23.66.36,1.34.62,1.92.07.17.21.26.21.46Z"/>
          <path class="cls-1" d="M102.19,94.13s.06-.16.21-.29a3.38,3.38,0,0,1,2-.75s.06,0,.1-.06h0a5.17,5.17,0,0,1,1.19.13,3.92,3.92,0,0,1,2.1,1.08c.08.08.24.18-.09.77s-.66.91-.81.8c-.35-.27-.66-.61-1.07-.63a5.1,5.1,0,0,0-1.48-.07,1.57,1.57,0,0,0-.49.21,1.19,1.19,0,0,0-.21.17l-.24.24a2,2,0,0,1-.33.24L103,96a2,2,0,0,1-1.44.15,2.75,2.75,0,0,1-1.13-.62,3.77,3.77,0,0,1-.56-.76.09.09,0,0,0,0-.06s-.08-.06-.07.2h0c0-.15,0-.09,0,0s0,.07-.07-.13h0s0,0,0,0-.12,0-.56-.61a1.6,1.6,0,0,1-.3-.45h0c-.17-.59.26-.55.48-.61a1.94,1.94,0,0,1,1.42.11,6.61,6.61,0,0,1,1.22,1l.15.1.07,0a.1.1,0,0,0,.11-.07v0s0-.1,0-.06Z"/>
          <path class="cls-1" d="M112.92,103.92a6.92,6.92,0,0,1,.25.92,12.07,12.07,0,0,1,.07,3.7.64.64,0,0,0,0,.2h0a11.2,11.2,0,0,1-.61,2.26,3.4,3.4,0,0,1-1,1.38,6.52,6.52,0,0,1-1.18.77c-.73.39-1.46.69-2,1-.21.1-.3.23-.87-.14s-.64-1-.18-1.33a24.86,24.86,0,0,0,2.77-1.54,1.7,1.7,0,0,0,.46-.61,5,5,0,0,0,.31-.86,8.77,8.77,0,0,0,.32-2.05,12.42,12.42,0,0,0-.48-3.78c-.34-1.2-.82-2.42-1.13-3.66-.27-1.07-.38-2.18-.59-3.27,0-.25-.09-.52-.39-.6h0c.11-.15,0-.23-.07-.26s-.09,0,0-.19h0s0-.07,0-.06-.08,0-.1-.1a2.4,2.4,0,0,1,0-.73c.05-.18,0-.41.17-.54h0a.65.65,0,0,1,.87-.08,2.16,2.16,0,0,1,.59.67,5.07,5.07,0,0,1,.56,1.41l.34,1.22.66,2.44c.27,1,.5,2,.85,3a3,3,0,0,1,.27.84Z"/>
        </g>
      </g>
    </g>
  </g>
</svg>
