<svg xmlns="http://www.w3.org/2000/svg" viewBox="0 0 129.72 153.88">
  <defs>
    <style>
      .cls-1 {
        fill: #231f20;
      }

      .cls-2 {
        fill: #fff;
      }
    </style>
  </defs>
  <g id="Layer_2" data-name="Layer 2">
    <g id="Layer_1-2" data-name="Layer 1">
      <g>
        <path class="cls-1" d="M32.7,103.87c.51-.3.93-.6,1.5-.89l.82-.42c.29-.13.58-.23.87-.34a17.29,17.29,0,0,1,6.76-.88,61.76,61.76,0,0,1,6.5.76c.22,0,.44,0,.66,0h0c1.27.2,2.53.36,3.78.47l2,.14c.68.06,1.35.17,2,.28,6.19,1.15,11.6,4.1,17,6.59.84.4,2.29,1,2,1.6s-1.44.65-3,0a113.69,113.69,0,0,0-10.81-4.74,33,33,0,0,0-8.16-1.75c-2.92-.13-5.81-.69-8.61-1a24.32,24.32,0,0,0-7.42-.06,11.23,11.23,0,0,0-3.39,1.15c-1.08.56-2.22,1.26-3.32,1.89-4.18,2.45-8.27,5-12.42,7.52-3.58,2.15-7.22,4.18-10.8,6.34a10.51,10.51,0,0,0-2.39,1.75h0c-1.13.34-1.94,1.54-3.11,1.75h0c-.33.2-.69.37-1,.59-1.38,1-1.9,1.06-1.83.1,0-.21-.23-.32.06-.64h0c.7-1.07,2-1.63,3.14-2.34q8.06-5.2,16.28-10.14l10.11-6c.91-.55,1.79-1.18,2.77-1.66Z" transform="translate(-0.26 -0.02)"/>
        <path class="cls-1" d="M34.31,147.28c-.18.19-.35.39-.54.56l-2.21,1.91a.71.71,0,0,0-.08.15h0c-.44.38-.9.76-1.32,1.17a27.37,27.37,0,0,1-3.12,2.66c-.18.12-.44.37-.91-.13s-.59-1-.3-1.21a14.05,14.05,0,0,0,2-1.8,33.59,33.59,0,0,1,2.84-2.76c.86-.81,1.78-1.57,2.64-2.37s1.57-1.6,2.42-2.31,1.59-1.09,2.37-1.65c.19-.13.4-.25.4-.59h0c.4.07.27-.57.76-.37h0c.07,0,.17-.07.22-.14.24-.34.47-.21.86.47.08.16.25.31.24.46h0c.12.58-.29.59-.51.78L36.8,145c-.67.59-1.37,1.15-2,1.8a2,2,0,0,1-.51.53Z" transform="translate(-0.26 -0.02)"/>
        <g>
          <path class="cls-2" d="M73.39,47.22c0-.82.07-1.64.14-2.47a7.15,7.15,0,0,0-4.43,1.91A3.64,3.64,0,0,0,68.25,49a3.85,3.85,0,0,0,.62,2.46c.8,1.21,2.56,1.84,4.38,2l.4,0c0-.24,0-.47,0-.7C73.59,51,73.38,49.1,73.39,47.22Z" transform="translate(-0.26 -0.02)"/>
          <path class="cls-2" d="M79.36,57.11a19.5,19.5,0,0,0-2.1-.53h0c-.25,0-.49,0-.74,0,0,1.14,0,2.28,0,3.42a.87.87,0,0,0,.08.26h0c0,1,0,2,0,3,0,.59,0,1.19,0,1.78a9.65,9.65,0,0,0,2.06-.43,4.75,4.75,0,0,0,2.44-1.63,4.37,4.37,0,0,0,.55-3.39A3.54,3.54,0,0,0,79.36,57.11Z" transform="translate(-0.26 -0.02)"/>
          <path class="cls-2" d="M75,25.53a29.4,29.4,0,1,0,29.39,29.39A29.39,29.39,0,0,0,75,25.53Zm9.28,37.24a6.16,6.16,0,0,1-2.09,3.12,9.72,9.72,0,0,1-5.47,1.82h-.23c0,.83-.1,1.65-.21,2.47,0,.37,0,1-1,1s-1.58-.42-1.54-1.06c0-.82.13-1.65.17-2.48a12.26,12.26,0,0,1-2.6-.6,18.51,18.51,0,0,0-2.57-.89v0A6.35,6.35,0,0,0,67.41,65a2,2,0,0,1-.92-1.49h0c-.17-.35-.3-.72-.45-1.07a1.77,1.77,0,0,1-.15-1.66c.19-.27.55-.19,1.11,0,.25.08.56,0,.74.22v0h0a2.86,2.86,0,0,1,.8,1,4.1,4.1,0,0,0,.65,1,6.87,6.87,0,0,0,2.75,1.6,8.58,8.58,0,0,0,1.89.39c-.19-2.06-.09-4.13-.14-6.19,0-.8,0-1.6,0-2.4a12.18,12.18,0,0,1-4.45-1.1,6.87,6.87,0,0,1-2.52-2,6.36,6.36,0,0,1-1.2-3.06c0-.22-.09-.42-.13-.64v0a7.17,7.17,0,0,1,.83-3.81,6.9,6.9,0,0,1,2.9-2.68,11.43,11.43,0,0,1,4-1.1l.68,0a1,1,0,0,0-.3-.77h0c.43-.44-.38-.95.26-1.38h0a1.38,1.38,0,0,0,0-.45c-.16-.66.18-.84,1.28-.61.24,0,.56,0,.72.15h0c.74.45.39,1,.4,1.51s0,1,0,1.56c.29,0,.57.06.85.11a10.94,10.94,0,0,1,3.82,1.43,7.34,7.34,0,0,1,2.86,3.19,3.47,3.47,0,0,1,.35,1.59c0,.53-.29.9-.76.88a2,2,0,0,1-1.2-.47,2.88,2.88,0,0,1-.74-1,5.68,5.68,0,0,0-2.84-2.5,7.82,7.82,0,0,0-2.29-.6c0,1.07,0,2.13,0,3.2,0,1.52,0,3,.11,4.55a4.37,4.37,0,0,1,.09,1.25h0a13.77,13.77,0,0,1,3.11.6,7.94,7.94,0,0,1,3,1.71,6.13,6.13,0,0,1,1.79,3.21A7.49,7.49,0,0,1,84.27,62.77Z" transform="translate(-0.26 -0.02)"/>
        </g>
        <path class="cls-1" d="M81.49,142.88c1.08-.58,2.14-1.18,3.23-1.73L97,134.86c.21-.11.39-.25.58-.37h0a10.69,10.69,0,0,0,3.05-2.21,7.18,7.18,0,0,0,1.52-3.27c.61-3,.92-6.29,1.32-9.46s.78-6.4,1.29-9.6c.15-1,.41-2.71,1.07-2.58s.93,1.33.69,3.06c-.59,4.19-1.16,8.42-1.55,12.64-.14,1.55-.32,3.1-.55,4.64a13.07,13.07,0,0,1-1.43,4.73,9.79,9.79,0,0,1-3.69,3.42c-1.41.81-2.77,1.46-4.14,2.19l-14.79,7.64-3.46,1.82-1.75.93a7.33,7.33,0,0,1-2.13.74,7.65,7.65,0,0,1-4.39-.86c-1.22-.56-2.36-1.12-3.54-1.7-4-2-8-4.1-12-6.13a8.06,8.06,0,0,0-2.9-1.07h0a3.82,3.82,0,0,0-1.69-.54,6.12,6.12,0,0,1-1.64-.3h0a2.58,2.58,0,0,0-1,.12,12.34,12.34,0,0,1-1.34.55c-.26,0-.44-.16-.44-.65,0-.22-.27-.3.07-.68h0a3,3,0,0,1,2.1-1.08,7.83,7.83,0,0,1,2.39.17,19.58,19.58,0,0,1,5,1.84l4.64,2.24,9.27,4.5c1.91.9,3.75,2,5.37,1.6A12.16,12.16,0,0,0,75.67,146l2.78-1.48c1-.55,2-1.17,3.06-1.65Z" transform="translate(-0.26 -0.02)"/>
        <path class="cls-1" d="M83.25,112.15c.5-.24,1-.51,1.49-.72L90.5,109a2.53,2.53,0,0,0,.27-.18h0l3.48-1.49c2.67-1.17,5.34-2.33,8.1-3.29.43-.15,1.14-.46,1.4.17a1.13,1.13,0,0,1-.79,1.53,56.14,56.14,0,0,0-5.32,2.2c-2.49,1.27-5.09,2.29-7.64,3.44l-6.88,3c-2.15,1-4.24,2.05-6.41,3-.46.2-.93.39-1.41.58a15.79,15.79,0,0,1-1.55.55,3.36,3.36,0,0,1-2.08-.1c-.61-.23-1-.48-1.45-.67a2.08,2.08,0,0,0-1.34-.26h0c-.41-.45-1.13,0-1.53-.58h0a1.89,1.89,0,0,0-.51-.12c-.79,0-1-.26-.63-1,.08-.17,0-.4.26-.49v0c.65-.44,1.35-.06,2,.08a19,19,0,0,1,2.33.72,6.91,6.91,0,0,0,1.9.67,5.44,5.44,0,0,0,1.82-.64l2.13-.94c1.74-.77,3.5-1.5,5.21-2.34a10.22,10.22,0,0,1,1.41-.69Z" transform="translate(-0.26 -0.02)"/>
        <path class="cls-1" d="M68.15,8c.11.24.24.48.33.73.33,1,.63,1.93.91,2.9a.64.64,0,0,0,.1.13h0L70,13.57a19.56,19.56,0,0,1,.84,4.16c0,.22.09.59-.58.72s-1.15,0-1.2-.38a11.09,11.09,0,0,0-.54-2.68c-.51-1.23-.78-2.53-1.21-3.78s-.75-2.25-1.19-3.35-1-2-1.4-3-.6-1.83-.95-2.73c-.08-.21-.15-.44-.48-.53h0c.17-.37-.49-.39-.19-.82h0A.75.75,0,0,0,63,.91c-.28-.3-.1-.51.65-.74.16-.05.35-.18.5-.14h0c.59,0,.51.43.66.7.7,1.32,1.32,2.69,1.92,4.07.37.85.68,1.72,1.09,2.55a2.09,2.09,0,0,1,.33.69Z" transform="translate(-0.26 -0.02)"/>
        <path class="cls-1" d="M38.57,20.51c.21.1.43.18.63.3.74.45,1.48.93,2.21,1.41a.68.68,0,0,0,.15,0h0c.44.29.87.6,1.32.88a16.16,16.16,0,0,1,2.94,2.21c.14.13.4.32,0,.87s-.82.79-1.07.59a9.09,9.09,0,0,0-1.92-1.42c-1.06-.49-2-1.19-3-1.77S38.1,22.5,37.19,22s-1.78-.81-2.63-1.29-1.38-1-2.09-1.42c-.17-.1-.34-.24-.62-.09h0c-.06-.39-.57,0-.55-.5h0c-.06,0-.11-.13-.19-.14-.36,0-.33-.31.13-.95.1-.14.17-.35.3-.42v0c.45-.36.6,0,.84.12,1.18.55,2.32,1.16,3.47,1.78.71.38,1.38.8,2.12,1.12a1.83,1.83,0,0,1,.6.28Z" transform="translate(-0.26 -0.02)"/>
        <path class="cls-1" d="M23.8,47.25a5,5,0,0,1,.67,0c.82.13,1.65.29,2.47.46a1,1,0,0,0,.14,0h0c.49.1,1,.22,1.49.31A14.48,14.48,0,0,1,32,49c.17.07.47.14.31.8s-.47,1-.77.94a8.46,8.46,0,0,0-2.19-.59c-1.12,0-2.18-.36-3.27-.51s-1.95-.33-2.93-.43-1.86-.06-2.78-.18-1.57-.35-2.37-.48a.5.5,0,0,0-.58.16h0c-.19-.33-.49.22-.66-.25h0c-.07,0-.15-.07-.22,0-.34.09-.41-.16-.24-.92,0-.17,0-.4.11-.51v0c.26-.5.52-.23.77-.22,1.25,0,2.49.16,3.73.28.76.08,1.52.21,2.29.22a1.48,1.48,0,0,1,.63,0Z" transform="translate(-0.26 -0.02)"/>
        <path class="cls-1" d="M26.73,76.34a5.52,5.52,0,0,1,.55-.4c.73-.44,1.48-.86,2.22-1.29a.23.23,0,0,0,.08-.11h0c.45-.26.9-.51,1.34-.78a18.56,18.56,0,0,1,3.18-1.68c.18-.06.45-.22.79.36s.39,1.07.1,1.22a9.92,9.92,0,0,0-2.08,1.12A25.91,25.91,0,0,1,30,76.65c-.86.56-1.76,1.06-2.62,1.62S25.84,79.43,25,79.92s-1.52.7-2.27,1.07c-.18.09-.38.17-.4.49h0c-.36-.15-.29.48-.71.21h0a.85.85,0,0,0-.22.09c-.23.28-.43.12-.73-.61-.07-.16-.21-.33-.2-.48h0c-.07-.57.31-.5.52-.64,1.07-.7,2.16-1.36,3.24-2a22.76,22.76,0,0,0,2-1.27c.17-.13.3-.33.51-.39Z" transform="translate(-0.26 -0.02)"/>
        <path class="cls-1" d="M47,90.88a1.59,1.59,0,0,1,.16-.32c.28-.35.57-.68.85-1a.15.15,0,0,0,0-.09h0c.17-.21.36-.4.51-.62a5.13,5.13,0,0,1,1.3-1.33c.09-.06.19-.19.72.24s.81.77.69.89c-.3.28-.68.5-.83.9a8.28,8.28,0,0,1-1,1.47c-.3.44-.66.83-1,1.27s-.46.91-.77,1.3a11.74,11.74,0,0,1-1,.86c-.08.07-.17.14,0,.37h0c-.31-.09.06.37-.37.18h0s-.1,0-.1.07c0,.21-.24.1-.82-.43a2.52,2.52,0,0,1-.37-.34h0c-.34-.41-.05-.38,0-.49.36-.55.76-1.07,1.15-1.6a6.84,6.84,0,0,0,.69-1c0-.11,0-.25.15-.31Z" transform="translate(-0.26 -0.02)"/>
        <path class="cls-1" d="M81.38,98.09a2.58,2.58,0,0,1,0-.38c0-.47.08-.94.12-1.41,0,0,0,0,0-.08h0c0-.28.06-.56.07-.85a5.52,5.52,0,0,1,.32-2c0-.11,0-.28.73-.24s1.11.19,1.07.37a3,3,0,0,0-.18,1.29,8.62,8.62,0,0,1,0,1.9c0,.57-.08,1.14-.07,1.7s.13,1.08.09,1.61a10.77,10.77,0,0,1-.33,1.36c0,.11-.06.22.19.34h0c-.31.11.25.29-.21.38h0s-.06.08,0,.13-.14.23-.92.12a2.27,2.27,0,0,1-.5-.08h0c-.52-.16-.26-.3-.26-.44,0-.71,0-1.41,0-2.11a7.06,7.06,0,0,0,0-1.3c0-.12-.11-.24-.05-.36Z" transform="translate(-0.26 -0.02)"/>
        <path class="cls-1" d="M108,91.92c-.17-.15-.35-.29-.5-.45-.56-.63-1.11-1.27-1.67-1.91a.39.39,0,0,0-.13-.06h0c-.33-.39-.66-.78-1-1.15a18,18,0,0,1-2.23-2.76c-.1-.16-.31-.39.2-.85s1-.59,1.17-.33a10,10,0,0,0,1.49,1.8,28.6,28.6,0,0,1,2.37,2.43c.7.73,1.36,1.51,2.07,2.24s1.42,1.28,2,2,1,1.34,1.48,2c.12.15.23.33.54.29h0c-.08.38.52.18.33.65h0c0,.06.06.15.13.19.31.17.19.4-.46.84-.15.1-.29.27-.43.29v0h0c-.54.19-.54-.19-.72-.38-.88-.89-1.73-1.82-2.59-2.74-.53-.56-1-1.15-1.61-1.66-.16-.14-.38-.23-.48-.42Z" transform="translate(-0.26 -0.02)"/>
        <path class="cls-1" d="M122.18,66.93a5.65,5.65,0,0,1-.58,0c-.72,0-1.43-.08-2.15-.13,0,0-.08,0-.12.06h0c-.44,0-.87-.07-1.31-.08a12.7,12.7,0,0,1-3-.32c-.16,0-.43,0-.39-.73s.23-1.11.5-1.07a7,7,0,0,0,2,.18,19.91,19.91,0,0,1,2.89,0c.87,0,1.73.07,2.6.07s1.63-.12,2.44-.08,1.4.23,2.1.32a.4.4,0,0,0,.5-.18h0c.18.32.42-.25.59.21h0c.06,0,.13.07.19,0,.29-.1.36.15.23.92a1.88,1.88,0,0,1-.08.51v0c-.21.51-.44.25-.66.25-1.08,0-2.15,0-3.22,0a16.19,16.19,0,0,0-2,0,1.29,1.29,0,0,1-.55.05Z" transform="translate(-0.26 -0.02)"/>
        <path class="cls-1" d="M122.62,40.53a5.6,5.6,0,0,1-.66.21c-.86.17-1.71.32-2.57.46,0,0-.08.06-.12.08h0l-1.57.24a13.32,13.32,0,0,1-3.69.28c-.2,0-.54,0-.56-.68s.16-1.13.47-1.12a7.91,7.91,0,0,0,2.32-.17c1.1-.34,2.24-.45,3.36-.69s2-.4,3-.66,1.84-.6,2.78-.83,1.65-.24,2.45-.41c.19,0,.4-.06.5-.37h0c.3.22.37-.4.71,0h0c.08,0,.16,0,.22,0,.27-.22.44,0,.61.74,0,.17.15.37.11.51h0c0,.57-.42.45-.67.53-1.24.46-2.5.8-3.75,1.13-.77.21-1.55.36-2.31.62a1.73,1.73,0,0,1-.62.2Z" transform="translate(-0.26 -0.02)"/>
        <path class="cls-1" d="M107,18.7a7.23,7.23,0,0,1-.69.55c-.91.63-1.84,1.24-2.76,1.85,0,0-.07.1-.11.15h0c-.56.37-1.12.73-1.67,1.11a29.23,29.23,0,0,1-3.94,2.47.6.6,0,0,1-.94-.22c-.39-.59-.4-1.08,0-1.3a16.61,16.61,0,0,0,2.58-1.65c1.12-1,2.39-1.75,3.59-2.62s2.2-1.5,3.28-2.29,2-1.58,3-2.28,1.89-1.07,2.81-1.63a.82.82,0,0,0,.51-.61h0c.41.09.37-.58.86-.37h0c.09,0,.2-.06.26-.14.3-.34.54-.21.86.51.07.16.23.33.2.48h0c0,.6-.4.6-.67.8-1.33,1-2.68,1.92-4,2.87-.82.59-1.68,1.14-2.46,1.78a2.56,2.56,0,0,1-.65.53Z" transform="translate(-0.26 -0.02)"/>
        <path class="cls-1" d="M87.87,8.08c0,.2,0,.42-.05.62-.17.77-.36,1.53-.58,2.28,0,0,0,.09,0,.13h0l-.41,1.36a10.92,10.92,0,0,1-1.26,3c-.09.15-.2.42-.83.16s-1-.6-.84-.85a6.52,6.52,0,0,0,.8-1.91c.14-1,.51-1.94.72-2.92s.4-1.75.52-2.64.08-1.69.18-2.52.32-1.42.43-2.15c0-.17.07-.35-.18-.52h0c.32-.18-.25-.43.21-.61h0c0-.07.06-.14,0-.2-.1-.3.14-.38.92-.27a1.88,1.88,0,0,1,.51.08h0c.52.22.26.47.26.71a33.8,33.8,0,0,1-.18,3.48c-.07.71-.21,1.41-.24,2.13a1.3,1.3,0,0,1,0,.59Z" transform="translate(-0.26 -0.02)"/>
      </g>
    </g>
  </g>
</svg>
