<svg xmlns="http://www.w3.org/2000/svg" viewBox="0 0 108.27 125.92"><defs><style>.cls-1{fill:#231f20;}.cls-2{fill:#0048ff;}</style></defs><g id="Layer_2" data-name="Layer 2"><g id="Layer_1-2" data-name="Layer 1"><path class="cls-1" d="M8.24,23.21l.72-8L9.7,7.6l.37-3.79A4.14,4.14,0,0,1,13.24.12,5.05,5.05,0,0,1,13.92,0H28.7c.52,0,1,0,1.56-.06h-.05L48.64,0c14.21,0,28.43,0,42.6.19l1.87,0a3,3,0,0,1,2.32,1.13A2.61,2.61,0,0,1,96,3.21c0,.47-.23.7-.39.66-.36-.07-.5-.8-1.12-1.4A1.74,1.74,0,0,0,93.25,2L92.07,2H90.69C81.33,2,71.93,1.8,62.63,1.93,49,2.11,35.42,2,21.82,2.05H13.88a1.71,1.71,0,0,0-.71.21,2.2,2.2,0,0,0-1,1.22,1.61,1.61,0,0,0-.08.38l-.06.55-.11,1.14-.44,4.56L9.74,28.36Q8.18,45.51,6.6,62.62c-1,9.85-2.1,19.68-3.12,29.53a60.21,60.21,0,0,0-.47,7v0c-.56,2.65-.29,5.84-1,8.39H2c-.1.9-.24,1.83-.3,2.71a4.56,4.56,0,0,0,0,.6,2.54,2.54,0,0,0,.08.43,1.89,1.89,0,0,0,.34.6,2.23,2.23,0,0,0,.71.53c.36.17.47.47-.28.74-.17,0-.19.14-.3.21s-.33.1-.86-.21L1.33,113v0A2.87,2.87,0,0,1,0,110.76c0-.54,0-.82.05-1.24s.06-.77.09-1.17c.17-1.57.35-3.18.51-4.71Q2.81,81.07,5,58.48C5.84,49.25,6.77,40,7.57,30.78c.22-2.53.37-5.06.68-7.62Z"/><path class="cls-1" d="M89.24,92.52l-.68,7.7-.72,7.28-.36,3.64,0,.45a5,5,0,0,1-.09.59A4.17,4.17,0,0,1,85.11,115a3.7,3.7,0,0,1-1.24.36h-6.5l-7.31,0c-.5,0-1,0-1.49.06h0l-17.68,0c-13.64,0-27.28,0-40.88-.2-2.12,0-5.74,0-5.67-.71s2.5-1.12,6.21-1.1c9,.07,18,.23,26.92.11,13.06-.18,26.1-.08,39.15-.12h7a2.37,2.37,0,0,0,.34-.08,2,2,0,0,0,.63-.38,2.14,2.14,0,0,0,.73-1.31l.21-2.15.43-4.37,1.68-17.5c1-11,1.94-21.92,3-32.87.92-9.45,2-18.88,3-28.33a53.33,53.33,0,0,0,.44-6.71v0c.56-2.53.28-5.6,1-8h0c.1-.86.23-1.75.29-2.6.26-3.89.6-4.89,1.25-3.52.14.3.4,0,.42,1l0,.06,0,0c.26,2.68-.3,5.9-.58,8.84Q94.46,37,92.38,58.67c-.84,8.86-1.73,17.73-2.5,26.59-.21,2.42-.35,4.85-.65,7.3Z"/><path class="cls-1" d="M101.13,69.5c.14-1.66.25-3.33.41-5l1.84-18.87c0-.32,0-.64,0-1v0l1.12-11.4,1.26-13.19.34-3.29.17-1.65.09-.82c0-.13,0-.28,0-.4v-.3a3.9,3.9,0,0,0-1-2.37,14.42,14.42,0,0,0-2.27-2.11c-.52-.43-1.27-1-1.83-1.52s-.9-1.09-.65-1.32.73-.18,1.38.09a11.32,11.32,0,0,1,2.48,1.52,11.51,11.51,0,0,1,3.18,3.45,4.81,4.81,0,0,1,.59,2.52c-.05.79-.15,1.47-.22,2.21-.31,2.9-.59,5.79-.81,8.68-.62,8.46-1.52,16.87-2.28,25.29l-2.13,22.7C102.18,79.89,101.66,87,101,94.1c-.59,6.13-1.35,12.24-2,18.37a22.16,22.16,0,0,0-.21,4.36v0c-.47,1.63-.08,3.64-.69,5.21h0a4.58,4.58,0,0,1-.74,2,2.94,2.94,0,0,1-2.66,1.52c-.52-.12-.36-.37,0-.8.14-.21-.06-.36.37-.62h0a4,4,0,0,0,1.15-1.77,3.74,3.74,0,0,0,.09-.58l.09-.74c.06-.49.12-1,.17-1.45l2.59-28.1c.53-5.75,1.11-11.5,1.56-17.25.13-1.57.17-3.15.39-4.74Z"/><path class="cls-1" d="M43,123.74c1.21,0,2.43-.07,3.64-.07l13.78,0c.24,0,.47,0,.71-.06h0l8.33,0c6.43,0,12.85,0,19.27.2,1,0,2.7,0,2.67.72s-1.18,1.12-2.93,1.09c-4.23-.07-8.48-.23-12.69-.11-6.15.18-12.3.09-18.45.12l-16.57,0c-5.18,0-10.37.19-15.55.19a56.87,56.87,0,0,1-13.57-1.15c-1.2-.33-2.18-.87-3.24-1.15l0,0c-1-.86-2.55-1.23-3.22-2.46h0c-.32-.31-.62-.67-.92-1a2.57,2.57,0,0,1-.86-2c.07-.4.35-.3.79-.06.2.08.35-.08.59.22v0c.81.68,1.68,1.75,2.79,2.54A16.47,16.47,0,0,0,11.88,123a33.13,33.13,0,0,0,4.92.71c3.35.25,6.75.13,10.19.13,4.19,0,8.39,0,12.58-.08,1.15,0,2.29-.12,3.46-.06Z"/><path class="cls-2" d="M20.27,33a2.47,2.47,0,0,1-2.41-2.86l1.66-17.06a3.13,3.13,0,0,1,3-2.86H82.87a2.48,2.48,0,0,1,2.41,2.86L83.62,30.17a3.13,3.13,0,0,1-3,2.86H20.27Z"/><path class="cls-1" d="M32.93,54.9c0,.37,0,.73,0,1.1-.14,1.36-.29,2.73-.44,4.09a.52.52,0,0,0,0,.21h0c-.09.82-.19,1.65-.27,2.48a46,46,0,0,1-.75,5.71c-.06.29-.11.8-.79.72s-1.08-.46-1-1a25.22,25.22,0,0,0,.47-3.77c0-1.85.27-3.66.41-5.5.13-1.64.33-3.28.45-4.93s.11-3.1.27-4.64c.13-1.34.43-2.65.63-4a1.24,1.24,0,0,0-.12-1h0c.35-.34-.19-.81.3-1.12h0a1.16,1.16,0,0,0,.07-.37c-.06-.55.2-.67,1-.42.17.06.39,0,.5.18h0c.48.42.19.85.16,1.27-.15,2-.34,4.07-.51,6.1-.11,1.25-.26,2.5-.29,3.76a4.44,4.44,0,0,1,0,1Z"/><path class="cls-1" d="M30.81,54.8c.34,0,.68-.07,1-.07,1.29,0,2.57,0,3.86,0a.7.7,0,0,0,.19-.06h0c.78,0,1.55,0,2.33,0a40.42,40.42,0,0,1,5.39.2c.28,0,.76,0,.75.72s-.33,1.12-.82,1.09A22.18,22.18,0,0,0,40,56.63c-1.72.18-3.44.09-5.16.12-1.55,0-3.09,0-4.64,0s-2.9.19-4.35.18c-1.26,0-2.51-.18-3.76-.24a1.06,1.06,0,0,0-.89.21h0c-.34-.31-.74.27-1.07-.18a1.08,1.08,0,0,0-.35,0c-.51.12-.65-.13-.48-.9,0-.17,0-.4.12-.51h0c.35-.53.78-.28,1.17-.29,1.91-.05,3.82-.06,5.74-.08,1.17,0,2.35,0,3.52-.08a3.93,3.93,0,0,1,1-.06Z"/><path class="cls-1" d="M66.19,55.86c-.25.27-.48.56-.75.82l-3,2.86a1.18,1.18,0,0,0-.11.19h0c-.62.58-1.24,1.15-1.84,1.74a50.38,50.38,0,0,1-4.34,3.91c-.25.18-.62.54-1.08,0s-.52-1-.12-1.4a26.85,26.85,0,0,0,2.84-2.59c1.22-1.43,2.63-2.65,4-4S64.12,55.14,65.3,54s2.13-2.32,3.27-3.4c1-.94,2.08-1.76,3.1-2.65a1.24,1.24,0,0,0,.55-.82h0c.48,0,.39-.75,1-.67h0a1.34,1.34,0,0,0,.29-.23c.33-.47.6-.4,1,.29.08.15.27.28.26.46h0c.09.64-.42.78-.71,1.08-1.46,1.48-3,2.92-4.42,4.38-.91.89-1.85,1.75-2.7,2.7a4,4,0,0,1-.71.77Z"/><path class="cls-1" d="M64.88,54.44a7.93,7.93,0,0,1,.7.72c.81,1,1.61,2,2.41,2.92a.82.82,0,0,0,.17.11h0c.49.59,1,1.19,1.46,1.77a38.83,38.83,0,0,1,3.27,4.18c.15.23.45.59-.08,1s-1.06.47-1.35.09a22.14,22.14,0,0,0-2.17-2.74C68.06,61.33,67,60,65.93,58.71s-2-2.33-3-3.46-2-2.06-2.9-3.16c-.79-.94-1.45-2-2.2-3a1,1,0,0,0-.72-.53h0c0-.45-.67-.38-.53-.92h0a1.42,1.42,0,0,0-.2-.28c-.41-.31-.31-.57.39-.94.16-.09.3-.26.47-.24h0c.62-.08.7.41,1,.7,1.25,1.4,2.47,2.83,3.7,4.26.76.87,1.48,1.77,2.29,2.6a3.6,3.6,0,0,1,.67.68Z"/><path class="cls-1" d="M27.43,89.56c.34,0,.68-.07,1-.07l3.86.05a.89.89,0,0,0,.2-.06h0c.78,0,1.55,0,2.33,0a40.42,40.42,0,0,1,5.39.2c.28,0,.76,0,.75.71s-.33,1.12-.82,1.09a23.4,23.4,0,0,0-3.55-.1c-1.72.18-3.44.08-5.16.12-1.55,0-3.09,0-4.64,0s-2.9.2-4.35.19c-1.26,0-2.51-.18-3.76-.25a1.1,1.1,0,0,0-.89.21h0c-.34-.31-.74.27-1.07-.19h0a1,1,0,0,0-.35,0c-.51.11-.65-.13-.47-.91,0-.17,0-.39.11-.51h0c.35-.52.78-.27,1.17-.28,1.91-.05,3.83-.06,5.74-.08,1.17,0,2.35,0,3.52-.08a3.5,3.5,0,0,1,1-.07Z"/><path class="cls-1" d="M60.35,89.56c.34,0,.68-.07,1-.07l3.86.05a.7.7,0,0,0,.19-.06h0c.77,0,1.55,0,2.33,0a40.42,40.42,0,0,1,5.39.2c.28,0,.76,0,.75.71s-.33,1.12-.82,1.09a23.44,23.44,0,0,0-3.55-.1c-1.73.18-3.45.08-5.17.12-1.54,0-3.09,0-4.63,0s-2.91.2-4.36.19c-1.25,0-2.5-.18-3.75-.25a1.09,1.09,0,0,0-.89.21h0c-.34-.31-.73.27-1.06-.19h0a1.06,1.06,0,0,0-.35,0c-.51.11-.65-.13-.48-.91,0-.17,0-.39.12-.51h0c.34-.52.77-.27,1.16-.28,1.92-.05,3.83-.06,5.75-.08,1.17,0,2.34,0,3.52-.08a3.46,3.46,0,0,1,1-.07Z"/><path class="cls-1" d="M61.3,101.66c0,.07.06.13.05.19,0,.23-.07.45-.11.68,0,0,0,0,0,0h0c0,.14-.06.27-.07.41a1.41,1.41,0,0,1-.29.94s0,.13-.72.06-1.11-.17-1.07-.25.26-.4.16-.62,0-.62,0-.93.06-.54,0-.82a4.29,4.29,0,0,1-.11-.79,2.9,2.9,0,0,1,.31-.64c0-.05.06-.11-.19-.18h0c.31,0-.26-.16.2-.17,0,0,.06,0,0-.06s.14-.1.91,0c.17,0,.39,0,.51.07h0c.51.11.26.16.26.23,0,.34,0,.68,0,1a2,2,0,0,0,0,.64c0,.06.11.12,0,.17Z"/><path class="cls-1" d="M63.46,79.41a.41.41,0,0,1,0,.18c0,.23-.07.46-.11.68,0,0,0,0,.06,0h0a2.9,2.9,0,0,0-.06.41,1.47,1.47,0,0,1-.29.94s0,.13-.73.06-1.11-.16-1.07-.25.27-.4.16-.62a2.21,2.21,0,0,1,0-.92c0-.28.06-.55.05-.83a5.36,5.36,0,0,1-.11-.79c0-.22.23-.42.31-.64,0,0,.06-.1-.19-.18h0c.31,0-.25-.15.21-.17h0s.06,0,0-.06.15-.1.91,0a3.14,3.14,0,0,1,.51.07h0c.52.11.26.16.26.23,0,.35,0,.69,0,1a1.67,1.67,0,0,0,0,.63c0,.06.12.12.05.18Z"/></g></g></svg>