<svg xmlns="http://www.w3.org/2000/svg" viewBox="0 0 147.35 124.79"><defs><style>.cls-1{fill:#231f20;}.cls-2{fill:#0048ff;}</style></defs><g id="Layer_2" data-name="Layer 2"><g id="Layer_1-2" data-name="Layer 1"><path class="cls-1" d="M41.26,7.77a80.59,80.59,0,0,0-7.85,3.46A78,78,0,0,0,26,15.54c-1.14.72-2.22,1.53-3.31,2.31s-2.15,1.63-3.16,2.53A57.87,57.87,0,0,0,13.76,26a54.78,54.78,0,0,0-4.88,6.39,50.51,50.51,0,0,0-3.74,7.09,45.71,45.71,0,0,0-2.36,7.65A44.19,44.19,0,0,0,2,55.08a45.11,45.11,0,0,0,.8,8,46.69,46.69,0,0,0,2.37,7.65c.46,1,.9,2,1.43,2.94l0-.09A52.63,52.63,0,0,0,18.46,88.78,69.78,69.78,0,0,0,34.77,99.49a86.17,86.17,0,0,0,21.56,6.92,92.87,92.87,0,0,0,11.28,1.37c1.89.13,3.78.17,5.68.2.95,0,1.88,0,2.82,0L79,107.8l3.24-.18c.11,0,.25-.06.33,0l.24.26.45.52.47.52,1,1a48.17,48.17,0,0,0,4.15,3.8,54.41,54.41,0,0,0,9.43,6.12c1.67.87,3.39,1.65,5.14,2.36l1.31.53a2.82,2.82,0,0,0,1,.18,2.3,2.3,0,0,0,1.72-.85,1.62,1.62,0,0,0,.33-.82,2.16,2.16,0,0,0,0-.44c-.05-.15-.07-.28-.17-.54-.33-.91-.64-1.83-.94-2.74q-.9-2.76-1.62-5.57c-.3-1.17-.64-2.55-.92-4-.14-.71-.27-1.43-.38-2.14-.07-.45-.14-.9-.2-1.34,0-.26-.08-.53-.11-.79l0-.19a.54.54,0,0,1,.19-.08l.4-.15,1.27-.43.83-.27c.53-.16,1-.3,1.4-.4.79-.19,1.29-.24,1.31-.07,0,.36-1.17,1.12-3.37,2.15l-.35.2c0,.17.09.35.13.51.15.69.32,1.43.5,2.22.38,1.62.84,3.45,1.39,5.44.66,2.41,1.43,4.79,2.28,7.15a3.52,3.52,0,0,1,0,2.44,3.81,3.81,0,0,1-1.52,1.87,4.24,4.24,0,0,1-2.26.65,5.52,5.52,0,0,1-2.13-.51A60.2,60.2,0,0,1,90,117a53.39,53.39,0,0,1-5.88-5c-.45-.45-.91-.9-1.34-1.38-.22-.23-.44-.46-.65-.7l-.41-.46s-.1,0-.15,0l-.4,0-1,0-1.89.11c-2.51.19-5.09.17-7.61.12s-5.07-.23-7.59-.48c-14.71-1.47-29.25-6.39-41.29-15.19A58.82,58.82,0,0,1,6.67,77.92,43.84,43.84,0,0,1,0,56.7,42.41,42.41,0,0,1,.82,46.65,44.54,44.54,0,0,1,4,37.09,52.46,52.46,0,0,1,15.83,21C25.61,11.78,38.05,5.84,51,2.71A99.38,99.38,0,0,1,88.21,1a84.86,84.86,0,0,1,35,13.06A63.34,63.34,0,0,1,135.4,24.78a53.64,53.64,0,0,1,4.9,6.52,52.14,52.14,0,0,1,3.79,7.26,42.2,42.2,0,0,1,.23,32,60.45,60.45,0,0,1-7.69,13.33l.07-.06c-2,2.15-4.15,4.55-6.53,6.67l-1.77,1.59c-.6.51-1.24,1-1.85,1.44s-1.23.91-1.85,1.33-1.27.77-1.89,1.12h0c-1.63,1.15-3.44,2.09-5.08,3.1-1.94,1.07-3.55,1.91-4.85,2.5s-2.26.94-2.9,1.14c-1.26.4-1.21.1,0-.85.52-.42-.25-.32,1.64-1.29l.15-.05h-.06c2.58-1.45,5.43-3.07,8.3-4.82,1.4-.94,2.85-1.84,4.22-2.84s2.74-2,3.94-3.1A55.11,55.11,0,0,0,139.76,76l1.41-2.66c.48-.87.81-1.82,1.22-2.73a41.45,41.45,0,0,0,3-11.58,47.72,47.72,0,0,0,.14-6c0-1-.18-2-.26-3s-.32-2-.48-3A46,46,0,0,0,133.85,26a65.46,65.46,0,0,0-19.1-14.56A86.46,86.46,0,0,0,86.47,2.77a96,96,0,0,0-29.6.68A93.87,93.87,0,0,0,41.17,7.8Z"/><path class="cls-2" d="M74.57,66c.73-2.29.71-4.34,1.17-6.63a5,5,0,0,1,2.15-3.6,6.09,6.09,0,0,1,2.9-.42c11,0,20.16-8.06,21.23-17.94.47-4.33-.65-9.55-4.09-12.37a24.05,24.05,0,0,0-13-5.15c-7.91-.85-17.2.57-23.91,5.66a17.48,17.48,0,0,0-5.83,7.67,5.28,5.28,0,0,0,.37,5.14,4.57,4.57,0,0,0,3.71,1.72,5,5,0,0,0,4.2-2.22A27,27,0,0,0,64.93,35c3.14-6.31,12.86-6.37,18.76-5.53a13.53,13.53,0,0,1,5.14,1.61C93.94,34.16,92,43.5,85.34,45.44a15.5,15.5,0,0,1-4.1.54,15.19,15.19,0,0,0-13.8,8.68c-1.64,3.42-2.11,7.07-2.56,10.66l-.11,1.87c.78,3.8,8,5.86,9.55.74Z"/><path class="cls-2" d="M66.79,90.4a6.12,6.12,0,0,1-1.05-.1,5.3,5.3,0,0,1-3.43-2.25,2.62,2.62,0,0,1-.64-1.48,3.21,3.21,0,0,1-.09-1.31c.22-1.51,1.7-3.11,3-4.11a5.83,5.83,0,0,1,7.6.43,3.61,3.61,0,0,1,.76,3.56C72.25,88,70.33,90.4,66.79,90.4Z"/></g></g></svg>