<svg xmlns="http://www.w3.org/2000/svg" viewBox="0 0 131.48 127.45"><defs><style>.cls-1{fill:#231f20;}.cls-2{fill:none;}</style></defs><g id="Layer_2" data-name="Layer 2"><g id="Layer_1-2" data-name="Layer 1"><path class="cls-1" d="M11.53,102.56c.53.48,1.06,1,1.56,1.46l5.7,5.75a2,2,0,0,0,.33.25h0l3.45,3.48a3.26,3.26,0,0,0,.37.35,2.26,2.26,0,0,0,.35.17,1.55,1.55,0,0,0,.77,0,1.94,1.94,0,0,0,.36-.15l.09,0,.14-.1.3-.2,1.17-.79c1.57-1,3.15-2.07,4.77-3,.5-.31,1.33-.87,1.7-.3s.06,1.31-.8,1.87c-2.09,1.35-4.24,2.63-6.21,4.13a3.27,3.27,0,0,1-4.18-.26l-.5-.49-1-1-3.84-3.83L9.19,103l-2.54-2.44-.08-3.44c0-1,0-2,0-3,0-2.63.18-5.25.24-7.88a4.33,4.33,0,0,0-.21-1.86h0c.31-.72-.26-1.55.19-2.25h0a4.35,4.35,0,0,0,0-.72c-.12-1.08.13-1.36.9-1,.17.08.4,0,.51.25v0h0c.53.73.28,1.63.29,2.45l.08,12c0,1.54,0,3.07,0,4.61l1.47,1.39a16.13,16.13,0,0,1,1.48,1.39Z"/><path class="cls-1" d="M98.75,116c.69-.5,1.36-1,2.07-1.5l8-5.44a3.8,3.8,0,0,0,.37-.33h0l4.75-3.23h0v-2.67l0-3.26c0-2.17.08-4.34.19-6.51,0-.7,0-1.9.71-1.87s1.12.82,1.1,2c-.07,3-.23,6-.11,8.9l.07,2,0,2.44-7.8,5.37-9.57,6.61-3.73,2.64-3.2-3.08-2.56-2.52c-1.1-1.1-2.23-2.29-3.23-3.37,0,0,0-.09-.09-.06s0,0-.07,0l-.29.1-.56.19c-.76.26-1.52.5-2.28.73a6.81,6.81,0,0,0-2.1.87h0c-.91-.06-1.75.76-2.68.52h0a6,6,0,0,0-.86.17c-1.26.39-1.64.21-1.37-.64,0-.18-.1-.38.18-.56h0c.73-.69,1.82-.68,2.75-.94,1.14-.31,2.27-.66,3.4-1l1.67-.59.83-.31,1-.38.74-.29c.06,0,.13-.09.18,0l.14.14.28.28.85.84,1.28,1.27L91.4,115l3.67,3.64c-.15.09,1-.74,1.73-1.25a21.37,21.37,0,0,1,2-1.43Z"/><path class="cls-1" d="M64.42,125.09c.56,0,1.12,0,1.67,0l2.34.14,1.14.07.05,0v-.51a1.65,1.65,0,0,0-.06-.32h0l0-3.83c0-3,0-5.91.2-8.86,0-.46,0-1.24.71-1.23s1.12.55,1.1,1.35c-.07,1.94-.23,3.9-.11,5.83.09,1.41.11,2.83.11,4.24v5.43L63.27,127c-2.38-.1-4.77-.07-7.15-.21-2-.12-4.09-.41-6.14-.59a2.74,2.74,0,0,0-1.47.13h0c-.54-.34-1.23.2-1.74-.29h0a3.68,3.68,0,0,0-.57-.06c-.85.07-1.06-.19-.73-1,.07-.16,0-.39.22-.5l0,0v0c.6-.49,1.29-.2,1.93-.17l9.42.43c1.92.1,3.85.23,5.78.25a9.4,9.4,0,0,1,1.59,0Z"/><path class="cls-1" d="M62.56,53.36c.49-.09,1-.19,1.48-.25a29.63,29.63,0,0,1,5.65,0,2.54,2.54,0,0,0,.29,0h0a30.22,30.22,0,0,1,3.38.58,20,20,0,0,1,7.29,3c.34.24.94.6.56,1.16a1.07,1.07,0,0,1-1.56.35A21.54,21.54,0,0,0,77.56,57a12.52,12.52,0,0,0-2.28-.85,33.61,33.61,0,0,0-7-1.15,29.15,29.15,0,0,0-6.33.43,30.65,30.65,0,0,0-5.64,1.81c-.78.33-1.59.61-2.35,1a17.5,17.5,0,0,0-2.28,1.17,1.66,1.66,0,0,0-.88.85h0c-.56,0-.63.82-1.26.75a1.78,1.78,0,0,0-.38.28c-.45.54-.75.5-1.1-.23-.08-.17-.28-.29-.22-.5h0c0-.73.67-1,1.11-1.31a27.1,27.1,0,0,1,7.25-4.16c.81-.28,1.61-.6,2.44-.8L59.94,54l1.25-.3a5.4,5.4,0,0,1,1.38-.3Z"/><path class="cls-2" d="M11.58,84.19,23.42,96l11.31-7.75a52,52,0,0,0,12.36,5.15l-1.73,11.76M.89,80.61V62.41a1.6,1.6,0,0,1,1.69-1.6l12.59.7a34.12,34.12,0,0,0,3.81,11L7.67,80.28,6.9,89.45M22.25,27.28l3,3a42.67,42.67,0,0,0-7,10.39L4,39.84,1.37,57.49m69.34,49.1,1.72-11.78a60.83,60.83,0,0,0,13.63-3.73L95,100l18.53-12.7a1.57,1.57,0,0,0,.22-2.41l-7.58-7.58A42.87,42.87,0,0,0,113,66.91l14.37.8,3.06-20.88L116.08,46a34.47,34.47,0,0,0-3.8-10.93L120,29.81M48.5,105.36l22.21,1.23.82-5.64M46.8,66.73C38.64,58.57,40.46,46.18,50.86,39s25.44-6.3,33.6,1.86S90.8,61.45,80.4,68.58,55,74.88,46.8,66.73Z"/><path class="cls-1" d="M80.77,36.78a20.94,20.94,0,0,1,4.65,3.52A17.59,17.59,0,0,1,88.62,61c-.16.34-.34.67-.51,1l0,0a23,23,0,0,1-1.89,2.78,26.19,26.19,0,0,1-2.3,2.41A26.77,26.77,0,0,1,78.54,71a29.62,29.62,0,0,1-14.7,3.51,26.18,26.18,0,0,1-14.39-4.45,13.62,13.62,0,0,1-2.1-1.76c-.58-.65-1-1.21-.69-1.43.58-.48,2,.47,4.1,1.89a25.4,25.4,0,0,0,18,3.52,27.52,27.52,0,0,0,12.37-5.4A21.87,21.87,0,0,0,85.76,62a17.52,17.52,0,0,0,2.55-6.14,14.94,14.94,0,0,0,0-5.92,16.14,16.14,0,0,0-2.23-5.49A19.32,19.32,0,0,0,82.05,40a22.68,22.68,0,0,0-5.24-3,27.94,27.94,0,0,0-22.2,1.16,24.93,24.93,0,0,0-7.75,5.87,17.75,17.75,0,0,0-4.12,8.67A12.74,12.74,0,0,0,42.61,55c0,.39,0,.77.09,1.15s.19.72.31,1.06v0a5,5,0,0,0,0,.67c0,.22.1.44.16.66a8.93,8.93,0,0,0,.45,1.32c.2.43.39.85.55,1.28a8.56,8.56,0,0,1,.46,1.25h0a7.87,7.87,0,0,0,.94,1.52c.2.26.39.5.55.72a7,7,0,0,1,.48.55,3.14,3.14,0,0,1,.53.79q.26.6-.63.48c-.26,0-.26.3-.81-.15l0,0v0a7.87,7.87,0,0,1-2.23-2.35c-.28-.5-.55-1-.81-1.53s-.43-1.07-.65-1.58a16.74,16.74,0,0,1-1-8.08,18.71,18.71,0,0,1,2.77-7.66,23,23,0,0,1,5.49-5.94,26.64,26.64,0,0,1,7-3.92,30.2,30.2,0,0,1,19.47-.63,27.25,27.25,0,0,1,2.57.93l1.26.56c.41.21.8.46,1.2.71Z"/><path class="cls-1" d="M61.42,105c.38,0,.76,0,1.14,0l4.28.27a.85.85,0,0,0,.22,0h0c.86.06,1.72.13,2.59.17h.1L70,104c.15-.8.32-1.59.53-2.38.07-.31.15-.83.82-.72s1.06.52,1,1.06-.27,1.29-.41,1.94c-.06.32-.12.64-.17,1l-.06.49-.05.62c-.06.5-.11,1-.16,1.49l-2-.07-1.22-.06-2.45-.13L60.61,107c-1.61,0-3.23,0-4.84-.08-1.39-.08-2.77-.34-4.16-.48a1.32,1.32,0,0,0-1,.16h0c-.36-.33-.84.22-1.18-.26h0a1.28,1.28,0,0,0-.38,0c-.58.08-.72-.17-.48-.94.05-.16,0-.39.16-.5h0c.42-.5.88-.22,1.32-.21,2.12.06,4.25.18,6.38.27,1.3.06,2.6.16,3.91.14a4.34,4.34,0,0,1,1.08,0Z"/><path class="cls-1" d="M106.61,79.25l-1.76-1.74c-.35-.17,0-.38.16-.57l.5-.59.74-.88c.67-.81,1.3-1.63,1.91-2.48A39.43,39.43,0,0,0,111,68.42c.21-.39.42-.79.62-1.2l.54-1.11.15-.31c.07-.06.21,0,.32,0l.68,0,3,.17,10.12.58.15-1c.06-.4.08-.82.12-1.23v0l2.16-14.51.28-2-6.45-.36-3.83-.22L117,47.18l-1.8-.1c-.16-.53-.24-1.28-.35-1.77a33.94,33.94,0,0,0-2.16-7.09c-.25-.57-.51-1.14-.78-1.69L111.12,35l-.11-.19c0-.07.1-.09.14-.14l.37-.25.75-.5,3.33-2.21c1.47-1,4-2.66,4.28-2.07s-1.07,2.09-3.62,3.81L113.94,35c-.73.56-.63.07-.27.93a36.6,36.6,0,0,1,2.07,5.32c.28.92.52,1.84.72,2.77l.14.7.08.42c0,.22.18.15.37.17l5.56.27,4,.16,4.92.24-3.3,22.66-4.27-.23L116.64,68l-3-.16L113.05,69c-.28.55-.59,1.09-.9,1.63a44.55,44.55,0,0,1-4.27,6.08l-.4.47s-.12.08,0,.12l.81.81,2.59,2.57,2.43,2.4.61.61.31.3c.11.12.16.15.34.35a2.56,2.56,0,0,1,.47,2.61,2.76,2.76,0,0,1-.83,1.11l-.74.52-1.4,1-2.81,2L98,99.29l-3.15,2.15-5.07-5.15-3.93-4.06-1.34.48c-.65.23-1.31.45-2,.65-1.32.42-2.65.79-4,1.12l-2.8.64-1.38.34-.67.18-.17,0s0,0,0,0,0,0,0,.05h0l-.09,0a.07.07,0,0,0,0,0c0,.25-.07.49-.1.74-.06.53-.12,1.07-.17,1.6a12.79,12.79,0,0,1-.61,3h0c-.12.72-.27,1.44-.35,2.14-.35,3.22-.72,4-1.33,2.85-.14-.26-.4,0-.4-.81l0-.06v0c-.21-2.25.44-4.88.78-7.31l.56-3.9,1.47-.24.86-.16,1.71-.34c1.14-.25,2.27-.52,3.39-.83s2.23-.65,3.33-1l1.65-.58.81-.31,1.35-.54,8.79,8.77,4.36-3,9.13-6.27L113,86.47a.64.64,0,0,0,.21-.5.6.6,0,0,0-.07-.27l-.07-.11,0,0-.13-.13-2-1.93c-1.45-1.41-3-2.77-4.35-4.25Z"/><path class="cls-1" d="M12.4,41.35c-.66,0-1.32,0-2,0L4.88,41V41a2,2,0,0,0,0,.33h0L4.2,45.83c-.49,3.46-1,6.93-1.72,10.35-.11.54-.25,1.45-.92,1.34s-1-.8-.85-1.74c.4-2.27.9-4.53,1.11-6.82.14-1.55.34-3.1.56-4.64l.8-5.43L4.47,39l9.27.48,2.12.07,1.06,0h.67s0,0,0-.06c.12-.26.3-.64.46-.95.32-.65.67-1.28,1-1.91a39.2,39.2,0,0,1,4.55-5.93c.26-.3.24-.25.28-.32s0-.05,0-.07a.43.43,0,0,0-.2,0h0c.13-.09.13,0-.24-.3a1.37,1.37,0,0,1-.63-.84h0a4.32,4.32,0,0,0-.45-.5c-.79-.62-.8-1,0-1.29.18-.07.28-.29.53-.2v0h0c.85.1,1.26.87,1.81,1.4L26.18,30l.11.11s.11.07.05.11l-.2.23-.4.46-.7.81c-.58.7-1.15,1.41-1.69,2.15a39.53,39.53,0,0,0-3,4.59c-.27.49-.53,1-.78,1.48l-.52,1-.16.34c-.06.12-.09.27-.25.21l-.77,0L16,41.43l-1.72,0a13.15,13.15,0,0,1-1.88,0Z"/><path class="cls-1" d="M13.2,60.35l1.61,0,.69,0h.6s0,.06,0,.08l.24,1.34.15.78.13.61q.13.62.3,1.23c.21.81.45,1.62.73,2.42s.58,1.58.91,2.36c.17.38.34.77.53,1.15l.27.57.5,1c.16.3.37.61.56.93v0c-2,1.48-2.45,1.69-3.41,2.36L14.41,77,11.36,79.1,8.72,80.89l-.32,3L8,87.51c-.1.75-.21,2-.88,2s-1-1-.9-2.3l.38-3.48L6.76,82,7,79.86l1.37-1,1.06-.77c1.88-1.39,3.79-2.73,5.71-4L17.7,72.3s.14-.06.08-.12l-.14-.26c-.28-.54-.53-1.08-.78-1.62a33.43,33.43,0,0,1-2.09-6.09c-.13-.52-.24-1-.34-1.57,0-.24,0-.25-.16-.25l-2.89-.14L5.49,62l-2.95-.1a.46.46,0,0,0-.4.17.5.5,0,0,0-.1.19.34.34,0,0,0,0,.1v.34c0,3.39-.19,6.78-.25,10.18A7.15,7.15,0,0,0,2,75.31H2c-.31.92.26,2-.19,2.89h0a7.31,7.31,0,0,0,0,.93c.12,1.4-.13,1.77-.9,1.3-.17-.1-.4,0-.51-.32v0h0c-.53-.94-.27-2.1-.28-3.16L0,69.15V62.31A2.42,2.42,0,0,1,.5,60.9,2.47,2.47,0,0,1,2.05,60a3.28,3.28,0,0,1,.8,0l.6,0,2.38.12c1.59.08,3.18.16,4.76.2a25.48,25.48,0,0,1,2.62.08Z"/><path class="cls-1" d="M30.23,90.1c.61-.45,1.2-.91,1.83-1.34L34.68,87l1.9,1.08,1.31.69c.89.45,1.78.88,2.69,1.27a3.31,3.31,0,0,0,.42.12h0a46.53,46.53,0,0,0,4.75,1.75l2.12.62c.72,0,.33.67.33,1.12L48,94.83l-.46,3c-.31,2-.65,3.94-1,5.89-.12.61-.28,1.66-1,1.54s-1-.89-.81-2c.44-2.59,1-5.18,1.24-7.78l.13-1.25v-.17A1.1,1.1,0,0,0,46,94l-.12,0-.35-.1-.7-.21c-.47-.14-.93-.3-1.39-.45C41.57,92.6,39.77,91.85,38,91c-.64-.3-1.27-.61-1.9-.94l-.93-.5-.4-.23L30.2,92.54l-3.08,2.2-1.53,1.11-.77.56-1.53,1.07-2.15-2.13c-2-2-3.8-4.06-5.72-6.07A5,5,0,0,0,13.88,88v0c-.32-.75-1.35-1-1.55-1.81h0a4.69,4.69,0,0,0-.52-.57c-.88-.72-.92-1.11-.11-1.39.18-.06.27-.29.55-.17v0h0c.92.17,1.42,1,2,1.63l9.07,9,.17.16,2.2-1.51c.93-.65,1.86-1.31,2.78-2a18.32,18.32,0,0,1,1.73-1.27Z"/><path class="cls-1" d="M44.32,113.35c0-.34-.07-.68-.07-1l0-3.9a.76.76,0,0,0-.06-.2h0c0-.79,0-1.58,0-2.36v-.76l.19-1.26.19-1.18c.15-.79.32-1.57.53-2.34.07-.28.14-.76.81-.65s1.06.49,1,1a23.85,23.85,0,0,0-.62,3.54l0,.56,0,.49s0,.12,0,.2v3.85l0,4.69c0,1.47.19,2.94.18,4.41,0,1.27-.18,2.53-.24,3.8a1.08,1.08,0,0,0,.21.9h0c-.3.35.27.75-.18,1.08h0a1,1,0,0,0,0,.34c.12.52-.13.66-.9.49-.17,0-.4,0-.51-.12h0c-.53-.35-.28-.79-.29-1.18,0-1.94-.06-3.87-.08-5.81,0-1.19,0-2.38-.08-3.56a4,4,0,0,1-.06-1Z"/><path class="cls-1" d="M38.2,108.85a1.46,1.46,0,0,1,.3.07l1,.54s.05,0,.08,0h0c.2.11.39.23.6.32a3.55,3.55,0,0,1,1.32.83c.06.06.19.12-.09.74s-.53,1-.66.9c-.3-.2-.55-.5-.92-.54a4.79,4.79,0,0,1-1.43-.56c-.43-.17-.82-.41-1.25-.58a12.82,12.82,0,0,1-1.23-.44,7.57,7.57,0,0,1-.87-.74c-.07-.06-.13-.14-.33,0h0c.07-.31-.32.13-.18-.32,0,0,0-.08-.08-.08s-.1-.21.33-.85a2.89,2.89,0,0,1,.29-.43h0c.35-.4.33-.12.43-.08.51.23,1,.49,1.5.73a4.58,4.58,0,0,0,.94.4c.1,0,.23,0,.29.07Z"/><path class="cls-1" d="M35.78,97.45a7.36,7.36,0,0,1,.06.81c0,1,0,2,0,3,0,0,0,.1.06.16h0c0,.62,0,1.23,0,1.85a25.33,25.33,0,0,1-.2,4.26c0,.23,0,.6-.72.6s-1.11-.26-1.09-.65a14,14,0,0,0,.11-2.81,40,40,0,0,1-.12-4.09c0-1.22,0-2.45,0-3.67s-.19-2.3-.18-3.45c0-1,.18-2,.24-3a.7.7,0,0,0-.2-.7h0c.31-.27-.27-.58.19-.84h0c0-.1.06-.19,0-.28-.12-.41.13-.51.91-.38.17,0,.39,0,.51.1h0c.52.28.27.62.28.93.05,1.51.06,3,.08,4.54,0,.93,0,1.86.08,2.79a2.45,2.45,0,0,1,.07.76Z"/><path class="cls-1" d="M84.79,3.4v0h-.33L83,3.29l-3-.15L61.58,2.09,60.85,7c-.06.43-.09.86-.13,1.29v0l-.82,5.5c-2.06.32-2.44.39-3.4.57s-1.7.35-2.55.55q-2.53.6-5,1.44l-1.61.57-.81.3-1.47.58L36.27,9,29,13.92,20.89,19.3c-1.54,1-4.13,2.79-4.46,2.2s1.15-2.15,3.82-3.95l7.89-5.28,3.93-2.65,4.43-3,3.6,3.55,5.44,5.32.3-.12.83-.32c.56-.21,1.12-.41,1.69-.6,1.13-.38,2.27-.73,3.42-1s2.31-.6,3.48-.84L57,12.2l1.1-.19L59.81.41,59.87,0,87.08,1.48l-.86,5.91-.71,5-.13,1v.08l.07,0h0l.26.07.62.19,1.23.39c1.65.54,3.26,1.16,4.85,1.86.79.36,1.57.73,2.35,1.12l1.68.88,6.28-4.34,5.32-3.62,14.1,14.41,1.07,1.08,1.35,1.33c0,1,0,1.28.06,1.8s.08.93.14,1.38v0c-.31,2.24.27,4.86-.19,7h0c0,.76-.06,1.54,0,2.28.11,3.39-.13,4.28-.91,3.15-.17-.25-.39,0-.51-.78v0c-.52-2.3-.27-5.13-.28-7.7l0-6.38-15-15-6.66,4.59-4.6,3.16-1.48-.83-1-.53c-.66-.34-1.33-.67-2-1-1.35-.63-2.74-1.19-4.14-1.7-.7-.24-1.4-.49-2.12-.71l-1.2-.36-1-.28-.25-.07-.12,0-.06,0v-.07l.07-.51L84,9.26c.13-1,.26-2.1.4-3.15l.21-1.58.12-.79,0-.2,0-.1v0Z"/><path class="cls-1" d="M15.61,24.78c0-.23-.11-.47-.14-.7l-.28-3.26.12-.09c.07,0,.11-.12.17-.18h0l1.07-.71.68-.46a21,21,0,0,1,3.24-2c.18-.08.46-.27.84.3s.44,1.05.14,1.22a11.62,11.62,0,0,0-2.12,1.33,11.08,11.08,0,0,1-1.21,1l-.83.57a.36.36,0,0,0,0,.11s0,.18,0,.3l0,.4.09.81q.08.83.18,1.62c.14,1,.39,2,.49,3s0,1.77,0,2.65c0,.21,0,.43.27.6h0c-.29.27.32.49-.12.76,0,.09,0,.17,0,.25.15.35-.09.47-.87.42-.17,0-.39.05-.52,0h0c-.55-.19-.32-.52-.36-.79-.19-1.33-.33-2.67-.49-4-.1-.82-.15-1.64-.32-2.45a2,2,0,0,1-.14-.67Z"/><path class="cls-1" d="M128.45,82.28c0,.42.07.85.07,1.28v1.21c0,.23,0,.35,0,.66a2.84,2.84,0,0,1-.19.91,3.17,3.17,0,0,1-2.79,2.08c-.12,0-.25,0-.37,0h0l-3-.35a63.53,63.53,0,0,1-6.72-.95c-.34-.07-.94-.14-.85-.82a1,1,0,0,1,1.14-1,34.92,34.92,0,0,0,4.43.6c1.08,0,2.16.13,3.24.25l1.61.18.3,0a.91.91,0,0,0,.23,0,1,1,0,0,0,.41-.18,1.16,1.16,0,0,0,.46-.65,1.18,1.18,0,0,0,0-.2v-1l0-2.92c0-1.82-.19-3.65-.19-5.47,0-1.57.19-3.15.25-4.72a1.66,1.66,0,0,0-.21-1.12h0c.31-.43-.27-.93.19-1.35h0a1.56,1.56,0,0,0,0-.43c-.11-.65.13-.82.91-.6.17,0,.39,0,.51.15h0c.53.44.27,1,.28,1.47l.09,7.22c0,1.48,0,3,.07,4.43a5.47,5.47,0,0,1,.07,1.21Z"/><path class="cls-1" d="M24.42,101.75a4.43,4.43,0,0,1,.06.51c0,.63,0,1.27-.06,1.9,0,0,0,.06.06.1h0c0,.39,0,.77,0,1.15a9.55,9.55,0,0,1-.22,2.66c0,.14,0,.37-.72.36s-1.11-.17-1.08-.41a6.1,6.1,0,0,0,.12-1.75,14.51,14.51,0,0,1-.1-2.55c0-.76,0-1.52,0-2.28s-.17-1.44-.16-2.15.19-1.24.26-1.85a.34.34,0,0,0-.2-.44h0c.31-.16-.26-.37.19-.52h0c0-.06.06-.12,0-.17-.11-.26.13-.32.91-.23a1.93,1.93,0,0,1,.51.06h0c.52.18.27.39.27.58.05,1,.05,1.89.06,2.83a14.46,14.46,0,0,0,.06,1.74c0,.16.13.32.07.48Z"/><path class="cls-1" d="M93.91,110.7a7.36,7.36,0,0,1-.06-.81c0-1,0-2,0-3a.47.47,0,0,0-.06-.15h0c0-.62,0-1.23,0-1.85a25.33,25.33,0,0,1,.2-4.26c0-.23,0-.6.72-.6s1.11.26,1.09.65a14,14,0,0,0-.11,2.81,40,40,0,0,1,.12,4.09c0,1.22,0,2.45,0,3.67s.19,2.3.18,3.45c0,1-.18,2-.24,3a.7.7,0,0,0,.2.7h0c-.31.27.27.58-.19.85h0a.83.83,0,0,0,0,.27c.12.41-.13.51-.91.38-.17,0-.39,0-.51-.1h0c-.52-.28-.27-.62-.28-.93,0-1.51-.06-3-.08-4.54,0-.93,0-1.86-.08-2.79a2.45,2.45,0,0,1-.07-.76Z"/></g></g></svg>