<svg xmlns="http://www.w3.org/2000/svg" viewBox="0 0 120.9 121.01">
  <defs>
    <style>
      .cls-1 {
        fill: #0048ff;
      }

      .cls-2 {
        fill: #231f20;
      }
    </style>
  </defs>
  <g id="Layer_2" data-name="Layer 2">
    <g id="Layer_1-2" data-name="Layer 1">
      <g>
        <path class="cls-1" d="M87,39c.08-2.71-.35-6.37-3.86-6.13a17.82,17.82,0,0,0-6.55,2.23c-2.52,1.25-4.88,2.79-7.35,4.12q-8.31,4.5-16.61,9T35.74,57.53C32.41,59.4,29,61.18,25.8,63.32c-5.7,3.87-2.26,5.74-2.26,5.74a39.77,39.77,0,0,0,13.18,2.39c6.8.2,9.67-3,9.67-3l3.54-3q5.31-4.56,10.72-9C62,55.25,63.39,54.12,64.77,53c.63-.51,1.23-1,1.83-1.56a25.9,25.9,0,0,1,3-2.49,2.27,2.27,0,0,1,.75-.32c1.41-.25,1,1.2.64,1.92a9.52,9.52,0,0,1-1.48,2C64.08,58.31,58.94,64.32,54,70.47c-3.11,3.9.79,7,.79,7s16.84,9.08,21.24,10.84,6.44-.08,8.07-2.84c1.5-2.56,2.53-36.34,2.79-44.93Z"/>
        <path class="cls-2" d="M52.87,120.6c-1.25-.11-2.48-.36-3.72-.53s-2.46-.47-3.67-.81a60.92,60.92,0,0,1-13.23-5.12,62.77,62.77,0,0,1-11.67-8c-.36-.32-.73-.63-1.1-.94l0,0a56,56,0,0,1-5.88-6.25,58.8,58.8,0,0,1-5-7A59.46,59.46,0,0,1,1.32,73.53C1,71.9.68,70.28.5,68.63S.14,65.34.06,63.69A57.33,57.33,0,0,1,.47,53.8c.22-2,.89-5.49,1.55-5.28s.57,2.53.19,6A56.24,56.24,0,0,0,5,79.5a59.65,59.65,0,0,0,21.82,28.92,58.58,58.58,0,0,0,60.69,3.9,66.81,66.81,0,0,0,11.09-7.38,60.67,60.67,0,0,0,9.17-9.71c.61-.85,1.25-1.73,1.85-2.62A27,27,0,0,0,111,89.84l0,0a15,15,0,0,0,1.84-3.35l.83-1.74a10.57,10.57,0,0,1,.88-1.63h0c.32-.75.72-1.5,1-2.26,1.06-3.51,1.6-4.37,2-3,.08.31.39.07.21,1l0,.06,0,0c-.27,2.6-1.68,5.47-2.93,8a60.56,60.56,0,0,1-12.26,17,61.83,61.83,0,0,1-17.37,11.77A62.58,62.58,0,0,1,59.93,121H58.16l-1.77-.08a32.94,32.94,0,0,1-3.56-.33Z"/>
        <path class="cls-2" d="M63.57.08c1.19.07,2.39.09,3.57.24l1.78.19,1.77.28A60.42,60.42,0,0,1,95.5,11.11l1.15.77,0,0a63.14,63.14,0,0,1,6.23,5.32,68.68,68.68,0,0,1,5.46,6.1,62.81,62.81,0,0,1,5.23,7.9,59.22,59.22,0,0,1,3.9,8.63,55.6,55.6,0,0,1,2.46,9.12,57,57,0,0,1,1,9.38c.07,2,0,5.31-.74,5.2s-1-2.29-1.09-5.61a56.36,56.36,0,0,0-5.85-23.26A59.85,59.85,0,0,0,89.36,9.56,58.16,58.16,0,0,0,59.19,2c-1.23.05-2.47.09-3.69.23-.61.07-1.23.1-1.84.19l-1.82.29A60.94,60.94,0,0,0,44.63,4.3a59.75,59.75,0,0,0-13.49,5.83c-1.87,1-3.58,2.27-5.34,3.44-1.66,1.32-3.39,2.55-4.92,4s-3,3-4.52,4.49a63.32,63.32,0,0,0-3.94,5,25.49,25.49,0,0,0-3,5.21l0,0c-1.36,1.89-2.06,4.55-3.26,6.46h0a17.36,17.36,0,0,0-.87,2.18c-1,3.35-1.5,4.17-1.88,2.83-.08-.29-.39-.07-.24-.93l0,0,0,0a13.47,13.47,0,0,1,.34-1.91,11.44,11.44,0,0,1,.63-2c.55-1.28,1.08-2.62,1.69-3.84A60.29,60.29,0,0,1,33.2,6.69L36,5.33l2.86-1.15,1.43-.57,1.48-.46,2.94-.92,3-.7,1.5-.34L50.71,1l3-.48,3.06-.3C58,.13,59.07,0,60.2,0s2.27,0,3.41.08Z"/>
      </g>
    </g>
  </g>
</svg>
